ISO-10303-21;
HEADER;
/* Generated by software containing ST-Developer
 * from STEP Tools, Inc. (www.steptools.com) 
 */
/* OPTION: using custom renumber hook */

FILE_DESCRIPTION(
/* description */ ('STEP AP242 Edition 2',
'CAx-IF Rec.Pracs.---Representation and Presentation of Product Manufa
cturing Information (PMI)---4.0---2014-10-13',
'CAx-IF Rec.Pracs.---3D Tessellated Geometry---0.4---2014-09-14','2;1',
'CAx-IF Rec.Pracs.---User Defined Attributes---1.5---2016-08-15'),
/* implementation_level */ '2;1');

FILE_NAME(
/* name */ 'Motor Mount - Part 1',
/* time_stamp */ '2026-07-12T21:07:22Z',
/* author */ (''),
/* organization */ (''),
/* preprocessor_version */ 'ST-DEVELOPER v20',
/* originating_system */ 'ONSHAPE BY PTC INC, 1.217',
/* authorisation */ '  ');

FILE_SCHEMA (('AP242_MANAGED_MODEL_BASED_3D_ENGINEERING_MIM_LF { 1 0 10303 442 3 1 4 }'));
ENDSEC;

DATA;
#10=SHAPE_REPRESENTATION_RELATIONSHIP('','',#645,#11);
#11=ADVANCED_BREP_SHAPE_REPRESENTATION('',(#643),#1083);
#12=CYLINDRICAL_SURFACE('',#657,0.009);
#13=CYLINDRICAL_SURFACE('',#679,0.0075);
#14=CYLINDRICAL_SURFACE('',#693,0.004);
#15=CYLINDRICAL_SURFACE('',#694,0.004);
#16=CYLINDRICAL_SURFACE('',#696,0.0035);
#17=CYLINDRICAL_SURFACE('',#698,0.0035);
#18=CYLINDRICAL_SURFACE('',#700,0.0035);
#19=CYLINDRICAL_SURFACE('',#702,0.0035);
#20=CYLINDRICAL_SURFACE('',#704,0.0035);
#21=CYLINDRICAL_SURFACE('',#706,0.0035);
#22=CYLINDRICAL_SURFACE('',#707,0.02);
#23=CYLINDRICAL_SURFACE('',#708,0.052);
#24=CYLINDRICAL_SURFACE('',#709,0.00325);
#25=CYLINDRICAL_SURFACE('',#710,0.00325);
#26=CYLINDRICAL_SURFACE('',#711,0.00325);
#27=CYLINDRICAL_SURFACE('',#712,0.00325);
#28=CYLINDRICAL_SURFACE('',#713,0.052);
#29=CYLINDRICAL_SURFACE('',#714,0.025);
#30=CIRCLE('',#649,0.00325);
#31=CIRCLE('',#650,0.00325);
#32=CIRCLE('',#651,0.00325);
#33=CIRCLE('',#652,0.00325);
#34=CIRCLE('',#653,0.02);
#35=CIRCLE('',#654,0.052);
#36=CIRCLE('',#655,0.025);
#37=CIRCLE('',#656,0.052);
#38=CIRCLE('',#658,0.009);
#39=CIRCLE('',#659,0.009);
#40=CIRCLE('',#661,0.0035);
#41=CIRCLE('',#662,0.0035);
#42=CIRCLE('',#663,0.0035);
#43=CIRCLE('',#664,0.0035);
#44=CIRCLE('',#665,0.0035);
#45=CIRCLE('',#666,0.0035);
#46=CIRCLE('',#667,0.004);
#47=CIRCLE('',#668,0.004);
#48=CIRCLE('',#671,0.0035);
#49=CIRCLE('',#672,0.0035);
#50=CIRCLE('',#673,0.0035);
#51=CIRCLE('',#674,0.0035);
#52=CIRCLE('',#675,0.0035);
#53=CIRCLE('',#676,0.0035);
#54=CIRCLE('',#677,0.004);
#55=CIRCLE('',#678,0.004);
#56=CIRCLE('',#680,0.0075);
#57=CIRCLE('',#681,0.0075);
#58=CIRCLE('',#683,0.00325);
#59=CIRCLE('',#684,0.00325);
#60=CIRCLE('',#685,0.00325);
#61=CIRCLE('',#686,0.00325);
#62=CIRCLE('',#687,0.02);
#63=CIRCLE('',#688,0.052);
#64=CIRCLE('',#689,0.025);
#65=CIRCLE('',#690,0.052);
#66=ORIENTED_EDGE('',*,*,#238,.F.);
#67=ORIENTED_EDGE('',*,*,#239,.T.);
#68=ORIENTED_EDGE('',*,*,#240,.T.);
#69=ORIENTED_EDGE('',*,*,#241,.T.);
#70=ORIENTED_EDGE('',*,*,#242,.F.);
#71=ORIENTED_EDGE('',*,*,#243,.F.);
#72=ORIENTED_EDGE('',*,*,#244,.F.);
#73=ORIENTED_EDGE('',*,*,#245,.F.);
#74=ORIENTED_EDGE('',*,*,#246,.F.);
#75=ORIENTED_EDGE('',*,*,#247,.F.);
#76=ORIENTED_EDGE('',*,*,#248,.T.);
#77=ORIENTED_EDGE('',*,*,#249,.T.);
#78=ORIENTED_EDGE('',*,*,#238,.T.);
#79=ORIENTED_EDGE('',*,*,#250,.T.);
#80=ORIENTED_EDGE('',*,*,#251,.F.);
#81=ORIENTED_EDGE('',*,*,#252,.F.);
#82=ORIENTED_EDGE('',*,*,#253,.T.);
#83=ORIENTED_EDGE('',*,*,#254,.F.);
#84=ORIENTED_EDGE('',*,*,#255,.F.);
#85=ORIENTED_EDGE('',*,*,#252,.T.);
#86=ORIENTED_EDGE('',*,*,#256,.T.);
#87=ORIENTED_EDGE('',*,*,#257,.T.);
#88=ORIENTED_EDGE('',*,*,#258,.T.);
#89=ORIENTED_EDGE('',*,*,#259,.F.);
#90=ORIENTED_EDGE('',*,*,#260,.T.);
#91=ORIENTED_EDGE('',*,*,#261,.T.);
#92=ORIENTED_EDGE('',*,*,#262,.T.);
#93=ORIENTED_EDGE('',*,*,#263,.F.);
#94=ORIENTED_EDGE('',*,*,#264,.T.);
#95=ORIENTED_EDGE('',*,*,#265,.T.);
#96=ORIENTED_EDGE('',*,*,#266,.T.);
#97=ORIENTED_EDGE('',*,*,#267,.F.);
#98=ORIENTED_EDGE('',*,*,#268,.F.);
#99=ORIENTED_EDGE('',*,*,#269,.T.);
#100=ORIENTED_EDGE('',*,*,#270,.F.);
#101=ORIENTED_EDGE('',*,*,#271,.T.);
#102=ORIENTED_EDGE('',*,*,#272,.T.);
#103=ORIENTED_EDGE('',*,*,#254,.T.);
#104=ORIENTED_EDGE('',*,*,#270,.T.);
#105=ORIENTED_EDGE('',*,*,#273,.T.);
#106=ORIENTED_EDGE('',*,*,#274,.F.);
#107=ORIENTED_EDGE('',*,*,#275,.T.);
#108=ORIENTED_EDGE('',*,*,#276,.T.);
#109=ORIENTED_EDGE('',*,*,#277,.T.);
#110=ORIENTED_EDGE('',*,*,#278,.T.);
#111=ORIENTED_EDGE('',*,*,#279,.F.);
#112=ORIENTED_EDGE('',*,*,#280,.T.);
#113=ORIENTED_EDGE('',*,*,#281,.T.);
#114=ORIENTED_EDGE('',*,*,#282,.T.);
#115=ORIENTED_EDGE('',*,*,#283,.F.);
#116=ORIENTED_EDGE('',*,*,#284,.T.);
#117=ORIENTED_EDGE('',*,*,#285,.T.);
#118=ORIENTED_EDGE('',*,*,#286,.T.);
#119=ORIENTED_EDGE('',*,*,#287,.F.);
#120=ORIENTED_EDGE('',*,*,#274,.T.);
#121=ORIENTED_EDGE('',*,*,#288,.T.);
#122=ORIENTED_EDGE('',*,*,#289,.F.);
#123=ORIENTED_EDGE('',*,*,#290,.F.);
#124=ORIENTED_EDGE('',*,*,#291,.T.);
#125=ORIENTED_EDGE('',*,*,#292,.T.);
#126=ORIENTED_EDGE('',*,*,#293,.F.);
#127=ORIENTED_EDGE('',*,*,#294,.F.);
#128=ORIENTED_EDGE('',*,*,#295,.T.);
#129=ORIENTED_EDGE('',*,*,#290,.T.);
#130=ORIENTED_EDGE('',*,*,#296,.F.);
#131=ORIENTED_EDGE('',*,*,#297,.F.);
#132=ORIENTED_EDGE('',*,*,#298,.F.);
#133=ORIENTED_EDGE('',*,*,#299,.F.);
#134=ORIENTED_EDGE('',*,*,#300,.F.);
#135=ORIENTED_EDGE('',*,*,#301,.F.);
#136=ORIENTED_EDGE('',*,*,#240,.F.);
#137=ORIENTED_EDGE('',*,*,#302,.T.);
#138=ORIENTED_EDGE('',*,*,#303,.T.);
#139=ORIENTED_EDGE('',*,*,#294,.T.);
#140=ORIENTED_EDGE('',*,*,#304,.F.);
#141=ORIENTED_EDGE('',*,*,#305,.T.);
#142=ORIENTED_EDGE('',*,*,#303,.F.);
#143=ORIENTED_EDGE('',*,*,#306,.T.);
#144=ORIENTED_EDGE('',*,*,#248,.F.);
#145=ORIENTED_EDGE('',*,*,#255,.T.);
#146=ORIENTED_EDGE('',*,*,#272,.F.);
#147=ORIENTED_EDGE('',*,*,#307,.T.);
#148=ORIENTED_EDGE('',*,*,#291,.F.);
#149=ORIENTED_EDGE('',*,*,#295,.F.);
#150=ORIENTED_EDGE('',*,*,#251,.T.);
#151=ORIENTED_EDGE('',*,*,#308,.T.);
#152=ORIENTED_EDGE('',*,*,#304,.T.);
#153=ORIENTED_EDGE('',*,*,#293,.T.);
#154=ORIENTED_EDGE('',*,*,#289,.T.);
#155=ORIENTED_EDGE('',*,*,#309,.T.);
#156=ORIENTED_EDGE('',*,*,#268,.T.);
#157=ORIENTED_EDGE('',*,*,#253,.F.);
#158=ORIENTED_EDGE('',*,*,#288,.F.);
#159=ORIENTED_EDGE('',*,*,#273,.F.);
#160=ORIENTED_EDGE('',*,*,#269,.F.);
#161=ORIENTED_EDGE('',*,*,#309,.F.);
#162=ORIENTED_EDGE('',*,*,#292,.F.);
#163=ORIENTED_EDGE('',*,*,#307,.F.);
#164=ORIENTED_EDGE('',*,*,#271,.F.);
#165=ORIENTED_EDGE('',*,*,#275,.F.);
#166=ORIENTED_EDGE('',*,*,#310,.T.);
#167=ORIENTED_EDGE('',*,*,#285,.F.);
#168=ORIENTED_EDGE('',*,*,#311,.F.);
#169=ORIENTED_EDGE('',*,*,#265,.F.);
#170=ORIENTED_EDGE('',*,*,#311,.T.);
#171=ORIENTED_EDGE('',*,*,#284,.F.);
#172=ORIENTED_EDGE('',*,*,#312,.F.);
#173=ORIENTED_EDGE('',*,*,#266,.F.);
#174=ORIENTED_EDGE('',*,*,#267,.T.);
#175=ORIENTED_EDGE('',*,*,#312,.T.);
#176=ORIENTED_EDGE('',*,*,#287,.T.);
#177=ORIENTED_EDGE('',*,*,#313,.F.);
#178=ORIENTED_EDGE('',*,*,#313,.T.);
#179=ORIENTED_EDGE('',*,*,#286,.F.);
#180=ORIENTED_EDGE('',*,*,#310,.F.);
#181=ORIENTED_EDGE('',*,*,#264,.F.);
#182=ORIENTED_EDGE('',*,*,#314,.T.);
#183=ORIENTED_EDGE('',*,*,#281,.F.);
#184=ORIENTED_EDGE('',*,*,#315,.F.);
#185=ORIENTED_EDGE('',*,*,#261,.F.);
#186=ORIENTED_EDGE('',*,*,#315,.T.);
#187=ORIENTED_EDGE('',*,*,#280,.F.);
#188=ORIENTED_EDGE('',*,*,#316,.F.);
#189=ORIENTED_EDGE('',*,*,#262,.F.);
#190=ORIENTED_EDGE('',*,*,#263,.T.);
#191=ORIENTED_EDGE('',*,*,#316,.T.);
#192=ORIENTED_EDGE('',*,*,#283,.T.);
#193=ORIENTED_EDGE('',*,*,#317,.F.);
#194=ORIENTED_EDGE('',*,*,#317,.T.);
#195=ORIENTED_EDGE('',*,*,#282,.F.);
#196=ORIENTED_EDGE('',*,*,#314,.F.);
#197=ORIENTED_EDGE('',*,*,#260,.F.);
#198=ORIENTED_EDGE('',*,*,#318,.T.);
#199=ORIENTED_EDGE('',*,*,#277,.F.);
#200=ORIENTED_EDGE('',*,*,#319,.F.);
#201=ORIENTED_EDGE('',*,*,#257,.F.);
#202=ORIENTED_EDGE('',*,*,#319,.T.);
#203=ORIENTED_EDGE('',*,*,#276,.F.);
#204=ORIENTED_EDGE('',*,*,#320,.F.);
#205=ORIENTED_EDGE('',*,*,#258,.F.);
#206=ORIENTED_EDGE('',*,*,#259,.T.);
#207=ORIENTED_EDGE('',*,*,#320,.T.);
#208=ORIENTED_EDGE('',*,*,#279,.T.);
#209=ORIENTED_EDGE('',*,*,#321,.F.);
#210=ORIENTED_EDGE('',*,*,#321,.T.);
#211=ORIENTED_EDGE('',*,*,#278,.F.);
#212=ORIENTED_EDGE('',*,*,#318,.F.);
#213=ORIENTED_EDGE('',*,*,#256,.F.);
#214=ORIENTED_EDGE('',*,*,#246,.T.);
#215=ORIENTED_EDGE('',*,*,#322,.T.);
#216=ORIENTED_EDGE('',*,*,#300,.T.);
#217=ORIENTED_EDGE('',*,*,#323,.F.);
#218=ORIENTED_EDGE('',*,*,#247,.T.);
#219=ORIENTED_EDGE('',*,*,#323,.T.);
#220=ORIENTED_EDGE('',*,*,#301,.T.);
#221=ORIENTED_EDGE('',*,*,#322,.F.);
#222=ORIENTED_EDGE('',*,*,#245,.T.);
#223=ORIENTED_EDGE('',*,*,#299,.T.);
#224=ORIENTED_EDGE('',*,*,#244,.T.);
#225=ORIENTED_EDGE('',*,*,#298,.T.);
#226=ORIENTED_EDGE('',*,*,#243,.T.);
#227=ORIENTED_EDGE('',*,*,#297,.T.);
#228=ORIENTED_EDGE('',*,*,#242,.T.);
#229=ORIENTED_EDGE('',*,*,#296,.T.);
#230=ORIENTED_EDGE('',*,*,#250,.F.);
#231=ORIENTED_EDGE('',*,*,#241,.F.);
#232=ORIENTED_EDGE('',*,*,#305,.F.);
#233=ORIENTED_EDGE('',*,*,#308,.F.);
#234=ORIENTED_EDGE('',*,*,#249,.F.);
#235=ORIENTED_EDGE('',*,*,#306,.F.);
#236=ORIENTED_EDGE('',*,*,#302,.F.);
#237=ORIENTED_EDGE('',*,*,#239,.F.);
#238=EDGE_CURVE('',#324,#325,#384,.T.);
#239=EDGE_CURVE('',#324,#326,#385,.T.);
#240=EDGE_CURVE('',#326,#327,#386,.T.);
#241=EDGE_CURVE('',#327,#325,#387,.F.);
#242=EDGE_CURVE('',#328,#328,#30,.T.);
#243=EDGE_CURVE('',#329,#329,#31,.T.);
#244=EDGE_CURVE('',#330,#330,#32,.T.);
#245=EDGE_CURVE('',#331,#331,#33,.T.);
#246=EDGE_CURVE('',#332,#333,#34,.T.);
#247=EDGE_CURVE('',#333,#332,#35,.T.);
#248=EDGE_CURVE('',#334,#335,#388,.T.);
#249=EDGE_CURVE('',#335,#324,#36,.T.);
#250=EDGE_CURVE('',#325,#336,#37,.T.);
#251=EDGE_CURVE('',#337,#336,#389,.T.);
#252=EDGE_CURVE('',#334,#337,#390,.T.);
#253=EDGE_CURVE('',#337,#338,#38,.T.);
#254=EDGE_CURVE('',#339,#338,#391,.T.);
#255=EDGE_CURVE('',#334,#339,#39,.T.);
#256=EDGE_CURVE('',#340,#341,#40,.F.);
#257=EDGE_CURVE('',#341,#342,#392,.T.);
#258=EDGE_CURVE('',#342,#343,#41,.F.);
#259=EDGE_CURVE('',#340,#343,#393,.T.);
#260=EDGE_CURVE('',#344,#345,#42,.F.);
#261=EDGE_CURVE('',#345,#346,#394,.T.);
#262=EDGE_CURVE('',#346,#347,#43,.F.);
#263=EDGE_CURVE('',#344,#347,#395,.T.);
#264=EDGE_CURVE('',#348,#349,#44,.F.);
#265=EDGE_CURVE('',#349,#350,#396,.T.);
#266=EDGE_CURVE('',#350,#351,#45,.F.);
#267=EDGE_CURVE('',#348,#351,#397,.T.);
#268=EDGE_CURVE('',#352,#338,#398,.T.);
#269=EDGE_CURVE('',#352,#353,#46,.T.);
#270=EDGE_CURVE('',#354,#353,#399,.T.);
#271=EDGE_CURVE('',#354,#355,#47,.T.);
#272=EDGE_CURVE('',#355,#339,#400,.T.);
#273=EDGE_CURVE('',#353,#356,#401,.F.);
#274=EDGE_CURVE('',#357,#356,#402,.T.);
#275=EDGE_CURVE('',#357,#354,#403,.T.);
#276=EDGE_CURVE('',#358,#359,#48,.T.);
#277=EDGE_CURVE('',#359,#360,#404,.T.);
#278=EDGE_CURVE('',#360,#361,#49,.T.);
#279=EDGE_CURVE('',#358,#361,#405,.T.);
#280=EDGE_CURVE('',#362,#363,#50,.T.);
#281=EDGE_CURVE('',#363,#364,#406,.T.);
#282=EDGE_CURVE('',#364,#365,#51,.T.);
#283=EDGE_CURVE('',#362,#365,#407,.T.);
#284=EDGE_CURVE('',#366,#367,#52,.T.);
#285=EDGE_CURVE('',#367,#368,#408,.T.);
#286=EDGE_CURVE('',#368,#369,#53,.T.);
#287=EDGE_CURVE('',#366,#369,#409,.T.);
#288=EDGE_CURVE('',#356,#370,#54,.T.);
#289=EDGE_CURVE('',#371,#370,#410,.T.);
#290=EDGE_CURVE('',#372,#371,#411,.T.);
#291=EDGE_CURVE('',#372,#373,#412,.T.);
#292=EDGE_CURVE('',#373,#357,#55,.T.);
#293=EDGE_CURVE('',#374,#371,#56,.T.);
#294=EDGE_CURVE('',#375,#374,#413,.T.);
#295=EDGE_CURVE('',#375,#372,#57,.T.);
#296=EDGE_CURVE('',#376,#376,#58,.T.);
#297=EDGE_CURVE('',#377,#377,#59,.T.);
#298=EDGE_CURVE('',#378,#378,#60,.T.);
#299=EDGE_CURVE('',#379,#379,#61,.T.);
#300=EDGE_CURVE('',#380,#381,#62,.T.);
#301=EDGE_CURVE('',#381,#380,#63,.T.);
#302=EDGE_CURVE('',#326,#382,#64,.T.);
#303=EDGE_CURVE('',#382,#375,#414,.T.);
#304=EDGE_CURVE('',#383,#374,#415,.T.);
#305=EDGE_CURVE('',#383,#327,#65,.T.);
#306=EDGE_CURVE('',#382,#335,#416,.F.);
#307=EDGE_CURVE('',#355,#373,#417,.F.);
#308=EDGE_CURVE('',#336,#383,#418,.T.);
#309=EDGE_CURVE('',#370,#352,#419,.T.);
#310=EDGE_CURVE('',#349,#368,#420,.T.);
#311=EDGE_CURVE('',#350,#367,#421,.T.);
#312=EDGE_CURVE('',#351,#366,#422,.T.);
#313=EDGE_CURVE('',#348,#369,#423,.T.);
#314=EDGE_CURVE('',#345,#364,#424,.T.);
#315=EDGE_CURVE('',#346,#363,#425,.T.);
#316=EDGE_CURVE('',#347,#362,#426,.T.);
#317=EDGE_CURVE('',#344,#365,#427,.T.);
#318=EDGE_CURVE('',#341,#360,#428,.T.);
#319=EDGE_CURVE('',#342,#359,#429,.T.);
#320=EDGE_CURVE('',#343,#358,#430,.T.);
#321=EDGE_CURVE('',#340,#361,#431,.T.);
#322=EDGE_CURVE('',#333,#380,#432,.T.);
#323=EDGE_CURVE('',#332,#381,#433,.T.);
#324=VERTEX_POINT('',#906);
#325=VERTEX_POINT('',#907);
#326=VERTEX_POINT('',#909);
#327=VERTEX_POINT('',#911);
#328=VERTEX_POINT('',#915);
#329=VERTEX_POINT('',#917);
#330=VERTEX_POINT('',#919);
#331=VERTEX_POINT('',#921);
#332=VERTEX_POINT('',#923);
#333=VERTEX_POINT('',#924);
#334=VERTEX_POINT('',#927);
#335=VERTEX_POINT('',#928);
#336=VERTEX_POINT('',#931);
#337=VERTEX_POINT('',#933);
#338=VERTEX_POINT('',#937);
#339=VERTEX_POINT('',#939);
#340=VERTEX_POINT('',#943);
#341=VERTEX_POINT('',#944);
#342=VERTEX_POINT('',#946);
#343=VERTEX_POINT('',#948);
#344=VERTEX_POINT('',#951);
#345=VERTEX_POINT('',#952);
#346=VERTEX_POINT('',#954);
#347=VERTEX_POINT('',#956);
#348=VERTEX_POINT('',#959);
#349=VERTEX_POINT('',#960);
#350=VERTEX_POINT('',#962);
#351=VERTEX_POINT('',#964);
#352=VERTEX_POINT('',#967);
#353=VERTEX_POINT('',#969);
#354=VERTEX_POINT('',#971);
#355=VERTEX_POINT('',#973);
#356=VERTEX_POINT('',#977);
#357=VERTEX_POINT('',#979);
#358=VERTEX_POINT('',#983);
#359=VERTEX_POINT('',#984);
#360=VERTEX_POINT('',#986);
#361=VERTEX_POINT('',#988);
#362=VERTEX_POINT('',#991);
#363=VERTEX_POINT('',#992);
#364=VERTEX_POINT('',#994);
#365=VERTEX_POINT('',#996);
#366=VERTEX_POINT('',#999);
#367=VERTEX_POINT('',#1000);
#368=VERTEX_POINT('',#1002);
#369=VERTEX_POINT('',#1004);
#370=VERTEX_POINT('',#1007);
#371=VERTEX_POINT('',#1009);
#372=VERTEX_POINT('',#1011);
#373=VERTEX_POINT('',#1013);
#374=VERTEX_POINT('',#1017);
#375=VERTEX_POINT('',#1019);
#376=VERTEX_POINT('',#1023);
#377=VERTEX_POINT('',#1025);
#378=VERTEX_POINT('',#1027);
#379=VERTEX_POINT('',#1029);
#380=VERTEX_POINT('',#1031);
#381=VERTEX_POINT('',#1032);
#382=VERTEX_POINT('',#1035);
#383=VERTEX_POINT('',#1038);
#384=LINE('',#905,#434);
#385=LINE('',#908,#435);
#386=LINE('',#910,#436);
#387=LINE('',#912,#437);
#388=LINE('',#926,#438);
#389=LINE('',#932,#439);
#390=LINE('',#934,#440);
#391=LINE('',#938,#441);
#392=LINE('',#945,#442);
#393=LINE('',#949,#443);
#394=LINE('',#953,#444);
#395=LINE('',#957,#445);
#396=LINE('',#961,#446);
#397=LINE('',#965,#447);
#398=LINE('',#966,#448);
#399=LINE('',#970,#449);
#400=LINE('',#974,#450);
#401=LINE('',#976,#451);
#402=LINE('',#978,#452);
#403=LINE('',#980,#453);
#404=LINE('',#985,#454);
#405=LINE('',#989,#455);
#406=LINE('',#993,#456);
#407=LINE('',#997,#457);
#408=LINE('',#1001,#458);
#409=LINE('',#1005,#459);
#410=LINE('',#1008,#460);
#411=LINE('',#1010,#461);
#412=LINE('',#1012,#462);
#413=LINE('',#1018,#463);
#414=LINE('',#1036,#464);
#415=LINE('',#1037,#465);
#416=LINE('',#1041,#466);
#417=LINE('',#1042,#467);
#418=LINE('',#1044,#468);
#419=LINE('',#1045,#469);
#420=LINE('',#1049,#470);
#421=LINE('',#1050,#471);
#422=LINE('',#1052,#472);
#423=LINE('',#1054,#473);
#424=LINE('',#1057,#474);
#425=LINE('',#1058,#475);
#426=LINE('',#1060,#476);
#427=LINE('',#1062,#477);
#428=LINE('',#1065,#478);
#429=LINE('',#1066,#479);
#430=LINE('',#1068,#480);
#431=LINE('',#1070,#481);
#432=LINE('',#1073,#482);
#433=LINE('',#1074,#483);
#434=VECTOR('',#719,1.);
#435=VECTOR('',#720,1.);
#436=VECTOR('',#721,1.);
#437=VECTOR('',#722,1.);
#438=VECTOR('',#737,1.);
#439=VECTOR('',#742,1.);
#440=VECTOR('',#743,1.);
#441=VECTOR('',#748,1.);
#442=VECTOR('',#755,1.);
#443=VECTOR('',#758,1.);
#444=VECTOR('',#761,1.);
#445=VECTOR('',#764,1.);
#446=VECTOR('',#767,1.);
#447=VECTOR('',#770,1.);
#448=VECTOR('',#771,1.);
#449=VECTOR('',#774,1.);
#450=VECTOR('',#777,1.);
#451=VECTOR('',#780,1.);
#452=VECTOR('',#781,1.);
#453=VECTOR('',#782,1.);
#454=VECTOR('',#787,1.);
#455=VECTOR('',#790,1.);
#456=VECTOR('',#793,1.);
#457=VECTOR('',#796,1.);
#458=VECTOR('',#799,1.);
#459=VECTOR('',#802,1.);
#460=VECTOR('',#805,1.);
#461=VECTOR('',#806,1.);
#462=VECTOR('',#807,1.);
#463=VECTOR('',#814,1.);
#464=VECTOR('',#833,1.);
#465=VECTOR('',#834,1.);
#466=VECTOR('',#839,1.);
#467=VECTOR('',#840,1.);
#468=VECTOR('',#843,1.);
#469=VECTOR('',#844,1.);
#470=VECTOR('',#851,1.);
#471=VECTOR('',#852,1.);
#472=VECTOR('',#855,1.);
#473=VECTOR('',#858,1.);
#474=VECTOR('',#863,1.);
#475=VECTOR('',#864,1.);
#476=VECTOR('',#867,1.);
#477=VECTOR('',#870,1.);
#478=VECTOR('',#875,1.);
#479=VECTOR('',#876,1.);
#480=VECTOR('',#879,1.);
#481=VECTOR('',#882,1.);
#482=VECTOR('',#887,1.);
#483=VECTOR('',#888,1.);
#484=EDGE_LOOP('',(#66,#67,#68,#69));
#485=EDGE_LOOP('',(#70));
#486=EDGE_LOOP('',(#71));
#487=EDGE_LOOP('',(#72));
#488=EDGE_LOOP('',(#73));
#489=EDGE_LOOP('',(#74,#75));
#490=EDGE_LOOP('',(#76,#77,#78,#79,#80,#81));
#491=EDGE_LOOP('',(#82,#83,#84,#85));
#492=EDGE_LOOP('',(#86,#87,#88,#89));
#493=EDGE_LOOP('',(#90,#91,#92,#93));
#494=EDGE_LOOP('',(#94,#95,#96,#97));
#495=EDGE_LOOP('',(#98,#99,#100,#101,#102,#103));
#496=EDGE_LOOP('',(#104,#105,#106,#107));
#497=EDGE_LOOP('',(#108,#109,#110,#111));
#498=EDGE_LOOP('',(#112,#113,#114,#115));
#499=EDGE_LOOP('',(#116,#117,#118,#119));
#500=EDGE_LOOP('',(#120,#121,#122,#123,#124,#125));
#501=EDGE_LOOP('',(#126,#127,#128,#129));
#502=EDGE_LOOP('',(#130));
#503=EDGE_LOOP('',(#131));
#504=EDGE_LOOP('',(#132));
#505=EDGE_LOOP('',(#133));
#506=EDGE_LOOP('',(#134,#135));
#507=EDGE_LOOP('',(#136,#137,#138,#139,#140,#141));
#508=EDGE_LOOP('',(#142,#143,#144,#145,#146,#147,#148,#149));
#509=EDGE_LOOP('',(#150,#151,#152,#153,#154,#155,#156,#157));
#510=EDGE_LOOP('',(#158,#159,#160,#161));
#511=EDGE_LOOP('',(#162,#163,#164,#165));
#512=EDGE_LOOP('',(#166,#167,#168,#169));
#513=EDGE_LOOP('',(#170,#171,#172,#173));
#514=EDGE_LOOP('',(#174,#175,#176,#177));
#515=EDGE_LOOP('',(#178,#179,#180,#181));
#516=EDGE_LOOP('',(#182,#183,#184,#185));
#517=EDGE_LOOP('',(#186,#187,#188,#189));
#518=EDGE_LOOP('',(#190,#191,#192,#193));
#519=EDGE_LOOP('',(#194,#195,#196,#197));
#520=EDGE_LOOP('',(#198,#199,#200,#201));
#521=EDGE_LOOP('',(#202,#203,#204,#205));
#522=EDGE_LOOP('',(#206,#207,#208,#209));
#523=EDGE_LOOP('',(#210,#211,#212,#213));
#524=EDGE_LOOP('',(#214,#215,#216,#217));
#525=EDGE_LOOP('',(#218,#219,#220,#221));
#526=EDGE_LOOP('',(#222));
#527=EDGE_LOOP('',(#223));
#528=EDGE_LOOP('',(#224));
#529=EDGE_LOOP('',(#225));
#530=EDGE_LOOP('',(#226));
#531=EDGE_LOOP('',(#227));
#532=EDGE_LOOP('',(#228));
#533=EDGE_LOOP('',(#229));
#534=EDGE_LOOP('',(#230,#231,#232,#233));
#535=EDGE_LOOP('',(#234,#235,#236,#237));
#536=FACE_BOUND('',#484,.T.);
#537=FACE_BOUND('',#485,.T.);
#538=FACE_BOUND('',#486,.T.);
#539=FACE_BOUND('',#487,.T.);
#540=FACE_BOUND('',#488,.T.);
#541=FACE_BOUND('',#489,.T.);
#542=FACE_BOUND('',#490,.T.);
#543=FACE_BOUND('',#491,.T.);
#544=FACE_BOUND('',#492,.T.);
#545=FACE_BOUND('',#493,.T.);
#546=FACE_BOUND('',#494,.T.);
#547=FACE_BOUND('',#495,.T.);
#548=FACE_BOUND('',#496,.T.);
#549=FACE_BOUND('',#497,.T.);
#550=FACE_BOUND('',#498,.T.);
#551=FACE_BOUND('',#499,.T.);
#552=FACE_BOUND('',#500,.T.);
#553=FACE_BOUND('',#501,.T.);
#554=FACE_BOUND('',#502,.T.);
#555=FACE_BOUND('',#503,.T.);
#556=FACE_BOUND('',#504,.T.);
#557=FACE_BOUND('',#505,.T.);
#558=FACE_BOUND('',#506,.T.);
#559=FACE_BOUND('',#507,.T.);
#560=FACE_BOUND('',#508,.T.);
#561=FACE_BOUND('',#509,.T.);
#562=FACE_BOUND('',#510,.T.);
#563=FACE_BOUND('',#511,.T.);
#564=FACE_BOUND('',#512,.T.);
#565=FACE_BOUND('',#513,.T.);
#566=FACE_BOUND('',#514,.T.);
#567=FACE_BOUND('',#515,.T.);
#568=FACE_BOUND('',#516,.T.);
#569=FACE_BOUND('',#517,.T.);
#570=FACE_BOUND('',#518,.T.);
#571=FACE_BOUND('',#519,.T.);
#572=FACE_BOUND('',#520,.T.);
#573=FACE_BOUND('',#521,.T.);
#574=FACE_BOUND('',#522,.T.);
#575=FACE_BOUND('',#523,.T.);
#576=FACE_BOUND('',#524,.T.);
#577=FACE_BOUND('',#525,.T.);
#578=FACE_BOUND('',#526,.T.);
#579=FACE_BOUND('',#527,.T.);
#580=FACE_BOUND('',#528,.T.);
#581=FACE_BOUND('',#529,.T.);
#582=FACE_BOUND('',#530,.T.);
#583=FACE_BOUND('',#531,.T.);
#584=FACE_BOUND('',#532,.T.);
#585=FACE_BOUND('',#533,.T.);
#586=FACE_BOUND('',#534,.T.);
#587=FACE_BOUND('',#535,.T.);
#588=PLANE('',#647);
#589=PLANE('',#648);
#590=PLANE('',#660);
#591=PLANE('',#669);
#592=PLANE('',#670);
#593=PLANE('',#682);
#594=PLANE('',#691);
#595=PLANE('',#692);
#596=PLANE('',#695);
#597=PLANE('',#697);
#598=PLANE('',#699);
#599=PLANE('',#701);
#600=PLANE('',#703);
#601=PLANE('',#705);
#602=ADVANCED_FACE('',(#536),#588,.T.);
#603=ADVANCED_FACE('',(#537,#538,#539,#540,#541,#542),#589,.T.);
#604=ADVANCED_FACE('',(#543),#12,.T.);
#605=ADVANCED_FACE('',(#544,#545,#546,#547),#590,.T.);
#606=ADVANCED_FACE('',(#548),#591,.T.);
#607=ADVANCED_FACE('',(#549,#550,#551,#552),#592,.T.);
#608=ADVANCED_FACE('',(#553),#13,.F.);
#609=ADVANCED_FACE('',(#554,#555,#556,#557,#558,#559),#593,.T.);
#610=ADVANCED_FACE('',(#560),#594,.T.);
#611=ADVANCED_FACE('',(#561),#595,.F.);
#612=ADVANCED_FACE('',(#562),#14,.T.);
#613=ADVANCED_FACE('',(#563),#15,.T.);
#614=ADVANCED_FACE('',(#564),#596,.T.);
#615=ADVANCED_FACE('',(#565),#16,.F.);
#616=ADVANCED_FACE('',(#566),#597,.F.);
#617=ADVANCED_FACE('',(#567),#17,.F.);
#618=ADVANCED_FACE('',(#568),#598,.T.);
#619=ADVANCED_FACE('',(#569),#18,.F.);
#620=ADVANCED_FACE('',(#570),#599,.F.);
#621=ADVANCED_FACE('',(#571),#19,.F.);
#622=ADVANCED_FACE('',(#572),#600,.T.);
#623=ADVANCED_FACE('',(#573),#20,.F.);
#624=ADVANCED_FACE('',(#574),#601,.F.);
#625=ADVANCED_FACE('',(#575),#21,.F.);
#626=ADVANCED_FACE('',(#576),#22,.F.);
#627=ADVANCED_FACE('',(#577),#23,.F.);
#628=ADVANCED_FACE('',(#578,#579),#24,.F.);
#629=ADVANCED_FACE('',(#580,#581),#25,.F.);
#630=ADVANCED_FACE('',(#582,#583),#26,.F.);
#631=ADVANCED_FACE('',(#584,#585),#27,.F.);
#632=ADVANCED_FACE('',(#586),#28,.T.);
#633=ADVANCED_FACE('',(#587),#29,.T.);
#634=CLOSED_SHELL('',(#602,#603,#604,#605,#606,#607,#608,#609,#610,#611,
#612,#613,#614,#615,#616,#617,#618,#619,#620,#621,#622,#623,#624,#625,#626,
#627,#628,#629,#630,#631,#632,#633));
#635=STYLED_ITEM('',(#636),#643);
#636=PRESENTATION_STYLE_ASSIGNMENT((#637));
#637=SURFACE_STYLE_USAGE(.BOTH.,#638);
#638=SURFACE_SIDE_STYLE('',(#639));
#639=SURFACE_STYLE_FILL_AREA(#640);
#640=FILL_AREA_STYLE('',(#641));
#641=FILL_AREA_STYLE_COLOUR('',#642);
#642=COLOUR_RGB('',0.615686274509804,0.811764705882353,0.929411764705882);
#643=MANIFOLD_SOLID_BREP('Part 1',#634);
#644=SHAPE_DEFINITION_REPRESENTATION(#1088,#645);
#645=SHAPE_REPRESENTATION('Part 1',(#646),#1083);
#646=AXIS2_PLACEMENT_3D('',#903,#715,#716);
#647=AXIS2_PLACEMENT_3D('',#904,#717,#718);
#648=AXIS2_PLACEMENT_3D('',#913,#723,#724);
#649=AXIS2_PLACEMENT_3D('',#914,#725,#726);
#650=AXIS2_PLACEMENT_3D('',#916,#727,#728);
#651=AXIS2_PLACEMENT_3D('',#918,#729,#730);
#652=AXIS2_PLACEMENT_3D('',#920,#731,#732);
#653=AXIS2_PLACEMENT_3D('',#922,#733,#734);
#654=AXIS2_PLACEMENT_3D('',#925,#735,#736);
#655=AXIS2_PLACEMENT_3D('',#929,#738,#739);
#656=AXIS2_PLACEMENT_3D('',#930,#740,#741);
#657=AXIS2_PLACEMENT_3D('',#935,#744,#745);
#658=AXIS2_PLACEMENT_3D('',#936,#746,#747);
#659=AXIS2_PLACEMENT_3D('',#940,#749,#750);
#660=AXIS2_PLACEMENT_3D('',#941,#751,#752);
#661=AXIS2_PLACEMENT_3D('',#942,#753,#754);
#662=AXIS2_PLACEMENT_3D('',#947,#756,#757);
#663=AXIS2_PLACEMENT_3D('',#950,#759,#760);
#664=AXIS2_PLACEMENT_3D('',#955,#762,#763);
#665=AXIS2_PLACEMENT_3D('',#958,#765,#766);
#666=AXIS2_PLACEMENT_3D('',#963,#768,#769);
#667=AXIS2_PLACEMENT_3D('',#968,#772,#773);
#668=AXIS2_PLACEMENT_3D('',#972,#775,#776);
#669=AXIS2_PLACEMENT_3D('',#975,#778,#779);
#670=AXIS2_PLACEMENT_3D('',#981,#783,#784);
#671=AXIS2_PLACEMENT_3D('',#982,#785,#786);
#672=AXIS2_PLACEMENT_3D('',#987,#788,#789);
#673=AXIS2_PLACEMENT_3D('',#990,#791,#792);
#674=AXIS2_PLACEMENT_3D('',#995,#794,#795);
#675=AXIS2_PLACEMENT_3D('',#998,#797,#798);
#676=AXIS2_PLACEMENT_3D('',#1003,#800,#801);
#677=AXIS2_PLACEMENT_3D('',#1006,#803,#804);
#678=AXIS2_PLACEMENT_3D('',#1014,#808,#809);
#679=AXIS2_PLACEMENT_3D('',#1015,#810,#811);
#680=AXIS2_PLACEMENT_3D('',#1016,#812,#813);
#681=AXIS2_PLACEMENT_3D('',#1020,#815,#816);
#682=AXIS2_PLACEMENT_3D('',#1021,#817,#818);
#683=AXIS2_PLACEMENT_3D('',#1022,#819,#820);
#684=AXIS2_PLACEMENT_3D('',#1024,#821,#822);
#685=AXIS2_PLACEMENT_3D('',#1026,#823,#824);
#686=AXIS2_PLACEMENT_3D('',#1028,#825,#826);
#687=AXIS2_PLACEMENT_3D('',#1030,#827,#828);
#688=AXIS2_PLACEMENT_3D('',#1033,#829,#830);
#689=AXIS2_PLACEMENT_3D('',#1034,#831,#832);
#690=AXIS2_PLACEMENT_3D('',#1039,#835,#836);
#691=AXIS2_PLACEMENT_3D('',#1040,#837,#838);
#692=AXIS2_PLACEMENT_3D('',#1043,#841,#842);
#693=AXIS2_PLACEMENT_3D('',#1046,#845,#846);
#694=AXIS2_PLACEMENT_3D('',#1047,#847,#848);
#695=AXIS2_PLACEMENT_3D('',#1048,#849,#850);
#696=AXIS2_PLACEMENT_3D('',#1051,#853,#854);
#697=AXIS2_PLACEMENT_3D('',#1053,#856,#857);
#698=AXIS2_PLACEMENT_3D('',#1055,#859,#860);
#699=AXIS2_PLACEMENT_3D('',#1056,#861,#862);
#700=AXIS2_PLACEMENT_3D('',#1059,#865,#866);
#701=AXIS2_PLACEMENT_3D('',#1061,#868,#869);
#702=AXIS2_PLACEMENT_3D('',#1063,#871,#872);
#703=AXIS2_PLACEMENT_3D('',#1064,#873,#874);
#704=AXIS2_PLACEMENT_3D('',#1067,#877,#878);
#705=AXIS2_PLACEMENT_3D('',#1069,#880,#881);
#706=AXIS2_PLACEMENT_3D('',#1071,#883,#884);
#707=AXIS2_PLACEMENT_3D('',#1072,#885,#886);
#708=AXIS2_PLACEMENT_3D('',#1075,#889,#890);
#709=AXIS2_PLACEMENT_3D('',#1076,#891,#892);
#710=AXIS2_PLACEMENT_3D('',#1077,#893,#894);
#711=AXIS2_PLACEMENT_3D('',#1078,#895,#896);
#712=AXIS2_PLACEMENT_3D('',#1079,#897,#898);
#713=AXIS2_PLACEMENT_3D('',#1080,#899,#900);
#714=AXIS2_PLACEMENT_3D('',#1081,#901,#902);
#715=DIRECTION('',(0.,0.,1.));
#716=DIRECTION('',(1.,0.,0.));
#717=DIRECTION('',(0.,0.,1.));
#718=DIRECTION('',(1.,0.,0.));
#719=DIRECTION('',(0.,1.,0.));
#720=DIRECTION('',(1.,0.,0.));
#721=DIRECTION('',(0.,1.,0.));
#722=DIRECTION('',(1.,0.,0.));
#723=DIRECTION('',(-1.,0.,0.));
#724=DIRECTION('',(0.,0.,1.));
#725=DIRECTION('',(-1.,0.,0.));
#726=DIRECTION('',(0.,0.,1.));
#727=DIRECTION('',(-1.,0.,0.));
#728=DIRECTION('',(0.,0.,1.));
#729=DIRECTION('',(-1.,0.,0.));
#730=DIRECTION('',(0.,0.,1.));
#731=DIRECTION('',(-1.,0.,0.));
#732=DIRECTION('',(0.,0.,1.));
#733=DIRECTION('',(-1.,0.,0.));
#734=DIRECTION('',(0.,0.,1.));
#735=DIRECTION('',(-1.,0.,0.));
#736=DIRECTION('',(0.,0.,1.));
#737=DIRECTION('',(0.,0.,1.));
#738=DIRECTION('',(-1.,0.,0.));
#739=DIRECTION('',(0.,0.,1.));
#740=DIRECTION('',(-1.,0.,0.));
#741=DIRECTION('',(0.,0.,1.));
#742=DIRECTION('',(0.,0.,1.));
#743=DIRECTION('',(0.,1.,0.));
#744=DIRECTION('',(0.,1.,0.));
#745=DIRECTION('',(0.,0.,1.));
#746=DIRECTION('',(0.,-1.,0.));
#747=DIRECTION('',(0.,0.,-1.));
#748=DIRECTION('',(0.,1.,0.));
#749=DIRECTION('',(0.,-1.,0.));
#750=DIRECTION('',(0.,0.,-1.));
#751=DIRECTION('',(0.,0.,-1.));
#752=DIRECTION('',(-1.,0.,0.));
#753=DIRECTION('',(0.,0.,-1.));
#754=DIRECTION('',(-1.,0.,0.));
#755=DIRECTION('',(-1.,0.,0.));
#756=DIRECTION('',(0.,0.,-1.));
#757=DIRECTION('',(-1.,0.,0.));
#758=DIRECTION('',(-1.,0.,0.));
#759=DIRECTION('',(0.,0.,-1.));
#760=DIRECTION('',(-1.,0.,0.));
#761=DIRECTION('',(-1.,0.,0.));
#762=DIRECTION('',(0.,0.,-1.));
#763=DIRECTION('',(-1.,0.,0.));
#764=DIRECTION('',(-1.,0.,0.));
#765=DIRECTION('',(0.,0.,-1.));
#766=DIRECTION('',(-1.,0.,0.));
#767=DIRECTION('',(-1.,0.,0.));
#768=DIRECTION('',(0.,0.,-1.));
#769=DIRECTION('',(-1.,0.,0.));
#770=DIRECTION('',(-1.,0.,0.));
#771=DIRECTION('',(-1.,0.,0.));
#772=DIRECTION('',(0.,0.,-1.));
#773=DIRECTION('',(-1.,0.,0.));
#774=DIRECTION('',(0.,1.,0.));
#775=DIRECTION('',(0.,0.,-1.));
#776=DIRECTION('',(-1.,0.,0.));
#777=DIRECTION('',(-1.,0.,0.));
#778=DIRECTION('',(1.,0.,0.));
#779=DIRECTION('',(0.,0.,-1.));
#780=DIRECTION('',(0.,0.,-1.));
#781=DIRECTION('',(0.,1.,0.));
#782=DIRECTION('',(0.,0.,-1.));
#783=DIRECTION('',(-3.00685402502646E-16,0.,1.));
#784=DIRECTION('',(1.,0.,3.00685402502646E-16));
#785=DIRECTION('',(3.00685402502646E-16,0.,-1.));
#786=DIRECTION('',(1.,0.,3.00685402502646E-16));
#787=DIRECTION('',(1.,0.,3.00685402502646E-16));
#788=DIRECTION('',(3.00685402502646E-16,0.,-1.));
#789=DIRECTION('',(1.,0.,3.00685402502646E-16));
#790=DIRECTION('',(1.,0.,3.00685402502646E-16));
#791=DIRECTION('',(3.00685402502646E-16,0.,-1.));
#792=DIRECTION('',(1.,0.,3.00685402502646E-16));
#793=DIRECTION('',(1.,0.,3.00685402502646E-16));
#794=DIRECTION('',(3.00685402502646E-16,0.,-1.));
#795=DIRECTION('',(1.,0.,3.00685402502646E-16));
#796=DIRECTION('',(1.,0.,3.00685402502646E-16));
#797=DIRECTION('',(3.00685402502646E-16,0.,-1.));
#798=DIRECTION('',(1.,0.,3.00685402502646E-16));
#799=DIRECTION('',(1.,0.,3.00685402502646E-16));
#800=DIRECTION('',(3.00685402502646E-16,0.,-1.));
#801=DIRECTION('',(1.,0.,3.00685402502646E-16));
#802=DIRECTION('',(1.,0.,3.00685402502646E-16));
#803=DIRECTION('',(-3.00685402502646E-16,0.,1.));
#804=DIRECTION('',(1.,0.,3.00685402502646E-16));
#805=DIRECTION('',(1.,0.,3.00685402502646E-16));
#806=DIRECTION('',(0.,1.,0.));
#807=DIRECTION('',(1.,0.,3.00685402502646E-16));
#808=DIRECTION('',(-3.00685402502646E-16,0.,1.));
#809=DIRECTION('',(1.,0.,3.00685402502646E-16));
#810=DIRECTION('',(0.,1.,0.));
#811=DIRECTION('',(0.,0.,1.));
#812=DIRECTION('',(0.,-1.,0.));
#813=DIRECTION('',(0.,0.,-1.));
#814=DIRECTION('',(0.,1.,0.));
#815=DIRECTION('',(0.,-1.,0.));
#816=DIRECTION('',(0.,0.,-1.));
#817=DIRECTION('',(1.,0.,0.));
#818=DIRECTION('',(0.,0.,-1.));
#819=DIRECTION('',(1.,0.,0.));
#820=DIRECTION('',(0.,0.,-1.));
#821=DIRECTION('',(1.,0.,0.));
#822=DIRECTION('',(0.,0.,-1.));
#823=DIRECTION('',(1.,0.,0.));
#824=DIRECTION('',(0.,0.,-1.));
#825=DIRECTION('',(1.,0.,0.));
#826=DIRECTION('',(0.,0.,-1.));
#827=DIRECTION('',(1.,0.,0.));
#828=DIRECTION('',(0.,0.,-1.));
#829=DIRECTION('',(1.,0.,0.));
#830=DIRECTION('',(0.,0.,-1.));
#831=DIRECTION('',(1.,0.,0.));
#832=DIRECTION('',(0.,0.,-1.));
#833=DIRECTION('',(0.,0.,-1.));
#834=DIRECTION('',(0.,0.,-1.));
#835=DIRECTION('',(1.,0.,0.));
#836=DIRECTION('',(0.,0.,-1.));
#837=DIRECTION('',(0.,-1.,0.));
#838=DIRECTION('',(1.,0.,0.));
#839=DIRECTION('',(1.,0.,0.));
#840=DIRECTION('',(0.,0.,-1.));
#841=DIRECTION('',(0.,-1.,0.));
#842=DIRECTION('',(1.,0.,0.));
#843=DIRECTION('',(1.,0.,0.));
#844=DIRECTION('',(0.,0.,-1.));
#845=DIRECTION('',(0.,0.,1.));
#846=DIRECTION('',(1.,0.,0.));
#847=DIRECTION('',(0.,0.,-1.));
#848=DIRECTION('',(-1.,0.,0.));
#849=DIRECTION('',(0.,-1.,0.));
#850=DIRECTION('',(0.,0.,-1.));
#851=DIRECTION('',(-3.00685402502646E-16,0.,1.));
#852=DIRECTION('',(-3.00685402502646E-16,0.,1.));
#853=DIRECTION('',(-3.00685402502646E-16,0.,1.));
#854=DIRECTION('',(1.,0.,3.00685402502646E-16));
#855=DIRECTION('',(-3.00685402502646E-16,0.,1.));
#856=DIRECTION('',(0.,-1.,0.));
#857=DIRECTION('',(0.,0.,-1.));
#858=DIRECTION('',(-3.00685402502646E-16,0.,1.));
#859=DIRECTION('',(-3.00685402502646E-16,0.,1.));
#860=DIRECTION('',(1.,0.,3.00685402502646E-16));
#861=DIRECTION('',(0.,-1.,0.));
#862=DIRECTION('',(0.,0.,-1.));
#863=DIRECTION('',(-3.00685402502646E-16,0.,1.));
#864=DIRECTION('',(-3.00685402502646E-16,0.,1.));
#865=DIRECTION('',(-3.00685402502646E-16,0.,1.));
#866=DIRECTION('',(1.,0.,3.00685402502646E-16));
#867=DIRECTION('',(-3.00685402502646E-16,0.,1.));
#868=DIRECTION('',(0.,-1.,0.));
#869=DIRECTION('',(0.,0.,-1.));
#870=DIRECTION('',(-3.00685402502646E-16,0.,1.));
#871=DIRECTION('',(-3.00685402502646E-16,0.,1.));
#872=DIRECTION('',(1.,0.,3.00685402502646E-16));
#873=DIRECTION('',(0.,-1.,0.));
#874=DIRECTION('',(0.,0.,-1.));
#875=DIRECTION('',(-3.00685402502646E-16,0.,1.));
#876=DIRECTION('',(-3.00685402502646E-16,0.,1.));
#877=DIRECTION('',(-3.00685402502646E-16,0.,1.));
#878=DIRECTION('',(1.,0.,3.00685402502646E-16));
#879=DIRECTION('',(-3.00685402502646E-16,0.,1.));
#880=DIRECTION('',(0.,-1.,0.));
#881=DIRECTION('',(0.,0.,-1.));
#882=DIRECTION('',(-3.00685402502646E-16,0.,1.));
#883=DIRECTION('',(-3.00685402502646E-16,0.,1.));
#884=DIRECTION('',(1.,0.,3.00685402502646E-16));
#885=DIRECTION('',(1.,0.,0.));
#886=DIRECTION('',(0.,0.,-1.));
#887=DIRECTION('',(1.,0.,0.));
#888=DIRECTION('',(1.,0.,0.));
#889=DIRECTION('',(1.,0.,0.));
#890=DIRECTION('',(0.,0.,-1.));
#891=DIRECTION('',(1.,0.,0.));
#892=DIRECTION('',(0.,0.,-1.));
#893=DIRECTION('',(1.,0.,0.));
#894=DIRECTION('',(0.,0.,-1.));
#895=DIRECTION('',(1.,0.,0.));
#896=DIRECTION('',(0.,0.,-1.));
#897=DIRECTION('',(1.,0.,0.));
#898=DIRECTION('',(0.,0.,-1.));
#899=DIRECTION('',(-1.,0.,0.));
#900=DIRECTION('',(0.,0.,1.));
#901=DIRECTION('',(1.,0.,0.));
#902=DIRECTION('',(0.,0.,-1.));
#903=CARTESIAN_POINT('',(0.,0.,0.));
#904=CARTESIAN_POINT('',(0.0025,-0.0815,0.134));
#905=CARTESIAN_POINT('',(0.,-0.0815,0.134));
#906=CARTESIAN_POINT('',(0.,-0.0565,0.134));
#907=CARTESIAN_POINT('',(0.,0.0295,0.134));
#908=CARTESIAN_POINT('',(0.0025,-0.0565,0.134));
#909=CARTESIAN_POINT('',(0.005,-0.0565,0.134));
#910=CARTESIAN_POINT('',(0.005,-0.0815,0.134));
#911=CARTESIAN_POINT('',(0.005,0.0295,0.134));
#912=CARTESIAN_POINT('',(0.,0.0295,0.134));
#913=CARTESIAN_POINT('',(0.,-0.0815,0.0715));
#914=CARTESIAN_POINT('',(0.,-0.0385,0.02625));
#915=CARTESIAN_POINT('',(0.,-0.0385,0.0295));
#916=CARTESIAN_POINT('',(0.,-0.0665,0.03575));
#917=CARTESIAN_POINT('',(0.,-0.0665,0.039));
#918=CARTESIAN_POINT('',(0.,-0.0665,0.11075));
#919=CARTESIAN_POINT('',(0.,-0.0665,0.114));
#920=CARTESIAN_POINT('',(0.,-0.0385,0.12025));
#921=CARTESIAN_POINT('',(0.,-0.0385,0.1235));
#922=CARTESIAN_POINT('',(0.,-0.026,0.07325));
#923=CARTESIAN_POINT('',(0.,-0.0291,0.0534917106003581));
#924=CARTESIAN_POINT('',(0.,-0.0291,0.0930082893996418));
#925=CARTESIAN_POINT('',(0.,0.019,0.07325));
#926=CARTESIAN_POINT('',(0.,-0.0815,0.0715));
#927=CARTESIAN_POINT('',(0.,-0.0815,0.009));
#928=CARTESIAN_POINT('',(0.,-0.0815,0.109));
#929=CARTESIAN_POINT('',(0.,-0.0565,0.109));
#930=CARTESIAN_POINT('',(0.,0.0295,0.082));
#931=CARTESIAN_POINT('',(0.,0.0815,0.082));
#932=CARTESIAN_POINT('',(0.,0.0815,0.0715));
#933=CARTESIAN_POINT('',(0.,0.0815,0.009));
#934=CARTESIAN_POINT('',(0.,-0.0815,0.009));
#935=CARTESIAN_POINT('',(0.009,-0.0815,0.009));
#936=CARTESIAN_POINT('',(0.009,0.0815,0.009));
#937=CARTESIAN_POINT('',(0.009,0.0815,-1.7347234759768E-18));
#938=CARTESIAN_POINT('',(0.009,-0.0815,-1.7347234759768E-18));
#939=CARTESIAN_POINT('',(0.009,-0.0815,-1.7347234759768E-18));
#940=CARTESIAN_POINT('',(0.009,-0.0815,0.009));
#941=CARTESIAN_POINT('',(0.0295,-0.0815,0.));
#942=CARTESIAN_POINT('',(0.0413377200961113,0.0668181404471397,0.));
#943=CARTESIAN_POINT('',(0.0413377200961113,0.0633181404471397,-5.55111512312578E-17));
#944=CARTESIAN_POINT('',(0.0413377200961113,0.0703181404471397,0.));
#945=CARTESIAN_POINT('',(0.0295,0.0703181404471398,0.));
#946=CARTESIAN_POINT('',(0.0183377200961113,0.0703181404471397,-5.55111512312578E-17));
#947=CARTESIAN_POINT('',(0.0183377200961113,0.0668181404471397,0.));
#948=CARTESIAN_POINT('',(0.0183377200961113,0.0633181404471397,-5.55111512312578E-17));
#949=CARTESIAN_POINT('',(0.0295,0.0633181404471398,0.));
#950=CARTESIAN_POINT('',(0.0413377200961113,2.60208521396521E-18,0.));
#951=CARTESIAN_POINT('',(0.0413377200961113,-0.0035,-5.55111512312578E-17));
#952=CARTESIAN_POINT('',(0.0413377200961113,0.0035,0.));
#953=CARTESIAN_POINT('',(0.0295,0.0035,0.));
#954=CARTESIAN_POINT('',(0.0183377200961113,0.0035,-5.55111512312578E-17));
#955=CARTESIAN_POINT('',(0.0183377200961113,0.,0.));
#956=CARTESIAN_POINT('',(0.0183377200961113,-0.0035,-5.55111512312578E-17));
#957=CARTESIAN_POINT('',(0.0295,-0.0035,0.));
#958=CARTESIAN_POINT('',(0.0413377200961113,-0.0668181404471397,0.));
#959=CARTESIAN_POINT('',(0.0413377200961113,-0.0703181404471397,-5.55111512312578E-17));
#960=CARTESIAN_POINT('',(0.0413377200961113,-0.0633181404471397,0.));
#961=CARTESIAN_POINT('',(0.0295,-0.0633181404471397,0.));
#962=CARTESIAN_POINT('',(0.0183377200961113,-0.0633181404471397,-5.55111512312578E-17));
#963=CARTESIAN_POINT('',(0.0183377200961113,-0.0668181404471397,0.));
#964=CARTESIAN_POINT('',(0.0183377200961113,-0.0703181404471397,-5.55111512312578E-17));
#965=CARTESIAN_POINT('',(0.0295,-0.0703181404471397,0.));
#966=CARTESIAN_POINT('',(0.0295,0.0815,0.));
#967=CARTESIAN_POINT('',(0.046,0.0815,0.));
#968=CARTESIAN_POINT('',(0.046,0.0775,0.));
#969=CARTESIAN_POINT('',(0.05,0.0775,0.));
#970=CARTESIAN_POINT('',(0.05,-0.0815,0.));
#971=CARTESIAN_POINT('',(0.05,-0.0775,0.));
#972=CARTESIAN_POINT('',(0.046,-0.0775,0.));
#973=CARTESIAN_POINT('',(0.046,-0.0815,0.));
#974=CARTESIAN_POINT('',(0.0295,-0.0815,0.));
#975=CARTESIAN_POINT('',(0.05,-0.0815,0.0025));
#976=CARTESIAN_POINT('',(0.05,0.0775,0.005));
#977=CARTESIAN_POINT('',(0.05,0.0775,0.005));
#978=CARTESIAN_POINT('',(0.05,-0.0815,0.005));
#979=CARTESIAN_POINT('',(0.05,-0.0775,0.005));
#980=CARTESIAN_POINT('',(0.05,-0.0775,0.0025));
#981=CARTESIAN_POINT('',(0.03125,-0.0815,0.005));
#982=CARTESIAN_POINT('',(0.0183377200961113,0.0668181404471397,0.005));
#983=CARTESIAN_POINT('',(0.0183377200961113,0.0633181404471397,0.005));
#984=CARTESIAN_POINT('',(0.0183377200961113,0.0703181404471397,0.005));
#985=CARTESIAN_POINT('',(0.0298377200961113,0.0703181404471397,0.005));
#986=CARTESIAN_POINT('',(0.0413377200961113,0.0703181404471397,0.005));
#987=CARTESIAN_POINT('',(0.0413377200961113,0.0668181404471397,0.005));
#988=CARTESIAN_POINT('',(0.0413377200961113,0.0633181404471397,0.005));
#989=CARTESIAN_POINT('',(0.0298377200961113,0.0633181404471397,0.005));
#990=CARTESIAN_POINT('',(0.0183377200961113,0.,0.005));
#991=CARTESIAN_POINT('',(0.0183377200961113,-0.0035,0.005));
#992=CARTESIAN_POINT('',(0.0183377200961113,0.0035,0.005));
#993=CARTESIAN_POINT('',(0.0298377200961113,0.0035,0.005));
#994=CARTESIAN_POINT('',(0.0413377200961113,0.0035,0.005));
#995=CARTESIAN_POINT('',(0.0413377200961113,2.60208521396521E-18,0.005));
#996=CARTESIAN_POINT('',(0.0413377200961113,-0.0035,0.005));
#997=CARTESIAN_POINT('',(0.0298377200961113,-0.0035,0.005));
#998=CARTESIAN_POINT('',(0.0183377200961113,-0.0668181404471397,0.005));
#999=CARTESIAN_POINT('',(0.0183377200961113,-0.0703181404471397,0.005));
#1000=CARTESIAN_POINT('',(0.0183377200961113,-0.0633181404471397,0.005));
#1001=CARTESIAN_POINT('',(0.0298377200961113,-0.0633181404471397,0.005));
#1002=CARTESIAN_POINT('',(0.0413377200961113,-0.0633181404471397,0.005));
#1003=CARTESIAN_POINT('',(0.0413377200961113,-0.0668181404471397,0.005));
#1004=CARTESIAN_POINT('',(0.0413377200961113,-0.0703181404471397,0.005));
#1005=CARTESIAN_POINT('',(0.0298377200961113,-0.0703181404471397,0.005));
#1006=CARTESIAN_POINT('',(0.046,0.0775,0.005));
#1007=CARTESIAN_POINT('',(0.046,0.0815,0.005));
#1008=CARTESIAN_POINT('',(0.03125,0.0815,0.005));
#1009=CARTESIAN_POINT('',(0.0125,0.0815,0.005));
#1010=CARTESIAN_POINT('',(0.0125,-0.0815,0.005));
#1011=CARTESIAN_POINT('',(0.0125,-0.0815,0.005));
#1012=CARTESIAN_POINT('',(0.03125,-0.0815,0.005));
#1013=CARTESIAN_POINT('',(0.046,-0.0815,0.005));
#1014=CARTESIAN_POINT('',(0.046,-0.0775,0.005));
#1015=CARTESIAN_POINT('',(0.0125,-0.0815,0.0125));
#1016=CARTESIAN_POINT('',(0.0125,0.0815,0.0125));
#1017=CARTESIAN_POINT('',(0.005,0.0815,0.0125));
#1018=CARTESIAN_POINT('',(0.005,-0.0815,0.0125));
#1019=CARTESIAN_POINT('',(0.005,-0.0815,0.0125));
#1020=CARTESIAN_POINT('',(0.0125,-0.0815,0.0125));
#1021=CARTESIAN_POINT('',(0.005,-0.0815,0.07325));
#1022=CARTESIAN_POINT('',(0.005,-0.0385,0.02625));
#1023=CARTESIAN_POINT('',(0.005,-0.0385,0.023));
#1024=CARTESIAN_POINT('',(0.005,-0.0665,0.03575));
#1025=CARTESIAN_POINT('',(0.005,-0.0665,0.0325));
#1026=CARTESIAN_POINT('',(0.005,-0.0665,0.11075));
#1027=CARTESIAN_POINT('',(0.005,-0.0665,0.1075));
#1028=CARTESIAN_POINT('',(0.005,-0.0385,0.12025));
#1029=CARTESIAN_POINT('',(0.005,-0.0385,0.117));
#1030=CARTESIAN_POINT('',(0.005,-0.026,0.07325));
#1031=CARTESIAN_POINT('',(0.005,-0.0291,0.0930082893996419));
#1032=CARTESIAN_POINT('',(0.005,-0.0291,0.0534917106003582));
#1033=CARTESIAN_POINT('',(0.005,0.019,0.07325));
#1034=CARTESIAN_POINT('',(0.005,-0.0565,0.109));
#1035=CARTESIAN_POINT('',(0.005,-0.0815,0.109));
#1036=CARTESIAN_POINT('',(0.005,-0.0815,0.07325));
#1037=CARTESIAN_POINT('',(0.005,0.0815,0.07325));
#1038=CARTESIAN_POINT('',(0.005,0.0815,0.082));
#1039=CARTESIAN_POINT('',(0.005,0.0295,0.082));
#1040=CARTESIAN_POINT('',(0.025,-0.0815,0.067));
#1041=CARTESIAN_POINT('',(0.025,-0.0815,0.109));
#1042=CARTESIAN_POINT('',(0.046,-0.0815,0.067));
#1043=CARTESIAN_POINT('',(0.025,0.0815,0.067));
#1044=CARTESIAN_POINT('',(0.005,0.0815,0.082));
#1045=CARTESIAN_POINT('',(0.046,0.0815,0.));
#1046=CARTESIAN_POINT('',(0.046,0.0775,0.067));
#1047=CARTESIAN_POINT('',(0.046,-0.0775,0.0025));
#1048=CARTESIAN_POINT('',(0.0298377200961114,-0.0633181404471397,-0.211862484422014));
#1049=CARTESIAN_POINT('',(0.0413377200961114,-0.0633181404471397,-0.211862484422014));
#1050=CARTESIAN_POINT('',(0.0183377200961113,-0.0633181404471397,-0.211862484422014));
#1051=CARTESIAN_POINT('',(0.0183377200961113,-0.0668181404471397,-0.211862484422014));
#1052=CARTESIAN_POINT('',(0.0183377200961113,-0.0703181404471397,-0.211862484422014));
#1053=CARTESIAN_POINT('',(0.0298377200961114,-0.0703181404471397,-0.211862484422014));
#1054=CARTESIAN_POINT('',(0.0413377200961114,-0.0703181404471397,-0.211862484422014));
#1055=CARTESIAN_POINT('',(0.0413377200961114,-0.0668181404471397,-0.211862484422014));
#1056=CARTESIAN_POINT('',(0.0298377200961114,0.0035,-0.211862484422014));
#1057=CARTESIAN_POINT('',(0.0413377200961113,0.0035,-0.211862484422014));
#1058=CARTESIAN_POINT('',(0.0183377200961113,0.0035,-0.211862484422014));
#1059=CARTESIAN_POINT('',(0.0183377200961113,0.,-0.211862484422014));
#1060=CARTESIAN_POINT('',(0.0183377200961113,-0.0035,-0.211862484422014));
#1061=CARTESIAN_POINT('',(0.0298377200961114,-0.0035,-0.211862484422014));
#1062=CARTESIAN_POINT('',(0.0413377200961113,-0.0035,-0.211862484422014));
#1063=CARTESIAN_POINT('',(0.0413377200961113,2.60208521396521E-18,-0.211862484422014));
#1064=CARTESIAN_POINT('',(0.0298377200961114,0.0703181404471397,-0.211862484422014));
#1065=CARTESIAN_POINT('',(0.0413377200961113,0.0703181404471397,-0.211862484422014));
#1066=CARTESIAN_POINT('',(0.0183377200961113,0.0703181404471397,-0.211862484422014));
#1067=CARTESIAN_POINT('',(0.0183377200961113,0.0668181404471397,-0.211862484422014));
#1068=CARTESIAN_POINT('',(0.0183377200961113,0.0633181404471397,-0.211862484422014));
#1069=CARTESIAN_POINT('',(0.0298377200961114,0.0633181404471397,-0.211862484422014));
#1070=CARTESIAN_POINT('',(0.0413377200961113,0.0633181404471397,-0.211862484422014));
#1071=CARTESIAN_POINT('',(0.0413377200961113,0.0668181404471397,-0.211862484422014));
#1072=CARTESIAN_POINT('',(-0.211862484422014,-0.026,0.07325));
#1073=CARTESIAN_POINT('',(-0.211862484422014,-0.0291,0.0930082893996419));
#1074=CARTESIAN_POINT('',(-0.211862484422014,-0.0291,0.0534917106003581));
#1075=CARTESIAN_POINT('',(-0.211862484422014,0.019,0.07325));
#1076=CARTESIAN_POINT('',(-0.211862484422014,-0.0385,0.12025));
#1077=CARTESIAN_POINT('',(-0.211862484422014,-0.0665,0.11075));
#1078=CARTESIAN_POINT('',(-0.211862484422014,-0.0665,0.03575));
#1079=CARTESIAN_POINT('',(-0.211862484422014,-0.0385,0.02625));
#1080=CARTESIAN_POINT('',(0.025,0.0295,0.082));
#1081=CARTESIAN_POINT('',(0.0025,-0.0565,0.109));
#1082=MECHANICAL_DESIGN_GEOMETRIC_PRESENTATION_REPRESENTATION('',(#635),
#1083);
#1083=(
GEOMETRIC_REPRESENTATION_CONTEXT(3)
GLOBAL_UNCERTAINTY_ASSIGNED_CONTEXT((#1084))
GLOBAL_UNIT_ASSIGNED_CONTEXT((#1087,#1086,#1085))
REPRESENTATION_CONTEXT('Part 1','TOP_LEVEL_ASSEMBLY_PART')
);
#1084=UNCERTAINTY_MEASURE_WITH_UNIT(LENGTH_MEASURE(1.E-8),#1087,
'DISTANCE_ACCURACY_VALUE','Maximum Tolerance applied to model');
#1085=(
NAMED_UNIT(*)
SI_UNIT($,.STERADIAN.)
SOLID_ANGLE_UNIT()
);
#1086=(
NAMED_UNIT(*)
PLANE_ANGLE_UNIT()
SI_UNIT($,.RADIAN.)
);
#1087=(
LENGTH_UNIT()
NAMED_UNIT(*)
SI_UNIT($,.METRE.)
);
#1088=PRODUCT_DEFINITION_SHAPE('','',#1089);
#1089=PRODUCT_DEFINITION('','',#1091,#1090);
#1090=PRODUCT_DEFINITION_CONTEXT('',#1097,'design');
#1091=PRODUCT_DEFINITION_FORMATION_WITH_SPECIFIED_SOURCE('','',#1093,
 .NOT_KNOWN.);
#1092=PRODUCT_RELATED_PRODUCT_CATEGORY('','',(#1093));
#1093=PRODUCT('Part 1','Part 1','Part 1',(#1095));
#1094=PRODUCT_CATEGORY('','');
#1095=PRODUCT_CONTEXT('',#1097,'mechanical');
#1096=APPLICATION_PROTOCOL_DEFINITION('international standard',
'ap242_managed_model_based_3d_engineering',2020,#1097);
#1097=APPLICATION_CONTEXT('managed model based 3d engineering');
ENDSEC;
END-ISO-10303-21;
