<svg width="467.398" xmlns="http://www.w3.org/2000/svg" height="467.398" id="screenshot-24169c5e-57ea-80e1-8006-6770170cf0a4" viewBox="-80.185 -56.712 467.398 467.398" xmlns:xlink="http://www.w3.org/1999/xlink" fill="none" version="1.1"><g id="shape-24169c5e-57ea-80e1-8006-6770170cf0a4" rx="0" ry="0"><g id="shape-24169c5e-57ea-80e1-8006-676de0fe6cbf" height="800" class="iconify iconify--noto" rx="0" ry="0" style="fill: rgb(0, 0, 0);"><g id="shape-24169c5e-57ea-80e1-8006-676de0fe6cc0" style="display: none;"><g class="fills" id="fills-24169c5e-57ea-80e1-8006-676de0fe6cc0"><rect width="245.51612903225805" height="245.9813664596268" x="13.992864744236158" transform="matrix(0.707107, 0.707107, -0.707107, 0.707107, 122.826197, -62.411903)" style="fill: none;" ry="0" fill="none" rx="0" y="-5.932299241135439"/></g></g><g id="shape-24169c5e-57ea-80e1-8006-676de0fe6cc1"><g class="fills" id="fills-24169c5e-57ea-80e1-8006-676de0fe6cc1"><path d="M86.93446350097656,210.30335998535156C85.46717834472656,211.7709197998047,83.25355529785156,212.16673278808594,81.35414123535156,211.3269805908203C77.59510803222656,209.66065979003906,70.74330139160156,205.5260772705078,60.48988723754883,195.2726593017578C49.97841262817383,184.7613983154297,45.66810989379883,177.59776306152344,43.94740676879883,173.75718688964844C43.10780715942383,171.8843536376953,43.54384231567383,169.6851348876953,44.99818801879883,168.2306671142578L65.69374084472656,147.53533935546875L107.71205139160156,189.5536651611328L86.94862365722656,210.31715393066406Z" style="fill: rgb(255, 202, 40);"/></g></g><g id="shape-24169c5e-57ea-80e1-8006-676de0fe6cc2"><g class="fills" id="fills-24169c5e-57ea-80e1-8006-676de0fe6cc2"><path d="M86.93446350097656,210.30335998535156C86.93446350097656,210.30335998535156,77.75575256347656,212.53855895996094,60.47645950317383,195.2592010498047C43.19691848754883,177.97987365722656,44.98451614379883,168.2168731689453,44.98451614379883,168.2168731689453" fill="none" stroke-linecap="round" stroke-miterlimit="10" style="fill: none;"/></g><g fill="none" stroke-linecap="round" stroke-miterlimit="10" id="strokes-dfd1c97e-766d-8067-8006-6ab1471218b2-24169c5e-57ea-80e1-8006-676de0fe6cc2" class="strokes"><g class="stroke-shape"><path d="M86.93446350097656,210.30335998535156C86.93446350097656,210.30335998535156,77.75575256347656,212.53855895996094,60.47645950317383,195.2592010498047C43.19691848754883,177.97987365722656,44.98451614379883,168.2168731689453,44.98451614379883,168.2168731689453" style="fill: none; stroke-width: 13.4378; stroke: rgb(255, 202, 40); stroke-opacity: 1;"/></g></g></g><g id="shape-24169c5e-57ea-80e1-8006-676de0fe6cc3"><g class="fills" id="fills-24169c5e-57ea-80e1-8006-676de0fe6cc3"><path d="M65.75209045410156,156.943359375L59.06190872192383,154.13961791992188L56.88783645629883,156.31344604492188C56.88783645629883,156.31344604492188,60.18104934692383,162.97653198242188,75.50672912597656,178.30259704589844C90.83290100097656,193.6286163330078,98.98793029785156,198.25022888183594,98.98793029785156,198.25022888183594L103.78431701660156,193.45347595214844L65.75209045410156,156.943359375Z" style="fill: rgb(255, 0, 0); fill-opacity: 1;"/></g></g><g id="shape-24169c5e-57ea-80e1-8006-676de0fe6cc4"><g class="fills" id="fills-24169c5e-57ea-80e1-8006-676de0fe6cc4"><path d="M150.71498107910156,181.98023986816406C147.21498107910156,178.98023986816406,150.30628967285156,181.8700714111328,126.76869201660156,164.41973876953125C124.11000061035156,162.44003295898438,123.73329162597656,158.5853271484375,125.92152404785156,156.09902954101562L185.11463928222656,81.68814849853516L192.18959045410156,93.98131561279297C192.85389709472656,95.13452911376953,194.55091857910156,95.0376205444336,195.09461975097656,93.81568145751953L220.11537170410156,36.352176666259766C220.40834045410156,35.594730377197266,220.22206115722656,34.73532485961914,219.64198303222656,34.16757583618164C218.80067443847656,33.32646560668945,217.78236389160156,33.55827713012695,217.45741271972656,33.69412612915039L160.03456115722656,58.7280158996582C159.46961975097656,58.9743537902832,159.09095764160156,59.51724624633789,159.05555725097656,60.1314582824707C159.02064514160156,60.74611282348633,159.33509826660156,61.32722854614258,159.86854553222656,61.633548736572266L172.16151428222656,68.7087173461914L97.75135803222656,127.90180206298828C95.26429748535156,130.08990478515625,91.39662170410156,129.72654724121094,89.43006896972656,127.05420684814453C71.98011779785156,103.51618194580078,64.28041076660156,76.9020767211914,87.92909240722656,62.6381721496582C104.77333068847656,52.46768569946289,119.52992248535156,53.36313247680664,137.87806701660156,30.72800064086914C149.97279357910156,17.304828643798828,158.30213928222656,-4.452083110809326,161.47474670410156,-13.699932098388672C162.04603576660156,-15.38400650024414,160.35096740722656,-16.916751861572266,158.73426818847656,-16.195331573486328L95.86537170410156,11.843677520751953C94.77870178222656,12.333438873291016,94.56044006347656,13.772708892822266,95.44154357910156,14.54599380493164L109.50843811035156,26.92709732055664C100.31166076660156,33.33029556274414,68.19300842285156,31.568164825439453,44.41273880004883,55.34843826293945C23.214008331298828,76.5474624633789,25.071186065673828,122.62149810791016,78.12953186035156,175.67991638183594C131.18812561035156,228.7384796142578,139.02967834472656,211.1654510498047,160.21498107910156,189.98023986816406" style="fill: rgb(255, 202, 40);"/></g></g><g id="shape-24169c5e-57ea-80e1-8006-676de0fe6cc5"><g class="fills" id="fills-24169c5e-57ea-80e1-8006-676de0fe6cc5"><path d="M95.90614318847656,11.88425064086914L121.93641662597656,20.629779815673828C120.03236389160156,23.944080352783203,109.56263732910156,26.954212188720703,109.56263732910156,26.954212188720703L95.49623107910156,14.572925567626953C95.49623107910156,14.572925567626953,94.81776428222656,14.002872467041016,94.80531311035156,13.202320098876953C94.80555725097656,12.41525650024414,95.90614318847656,11.88425064086914,95.90614318847656,11.88425064086914Z" style="fill: rgb(255, 0, 0); fill-opacity: 1;"/></g></g><g id="shape-24169c5e-57ea-80e1-8006-676de0fe6cc6"><g class="fills" id="fills-24169c5e-57ea-80e1-8006-676de0fe6cc6"><path d="M205.70399475097656,43.46684646606445C206.81825256347656,42.97690200805664,207.80775451660156,44.346866607666016,206.99232482910156,45.244022369384766C204.47816467285156,48.00203323364258,200.98524475097656,51.6572151184082,198.09217834472656,54.00880813598633C189.30189514160156,61.11691665649414,179.84022521972656,60.1891975402832,175.15736389160156,59.093997955322266C174.11244201660156,58.83723831176758,173.99159240722656,57.412113189697266,174.98329162597656,56.962406158447266L205.70399475097656,43.46684646606445Z" style="fill: rgb(255, 236, 179);"/></g></g><g id="shape-24169c5e-57ea-80e1-8006-676de0fe6cc7" style="display: none;"><g class="fills" id="fills-24169c5e-57ea-80e1-8006-676de0fe6cc7"><path d="M257.6815490722656,105.87970733642578C262.6144104003906,100.97379302978516,263.7706604003906,98.35282135009766,258.0260314941406,100.4898910522461C250.40760803222656,103.3337173461914,239.79823303222656,109.76555633544922,231.75599670410156,115.93645477294922C226.62025451660156,119.87885284423828,233.17811584472656,119.4242935180664,238.14808654785156,117.8449935913086C242.64271545410156,116.4426040649414,249.78675842285156,113.74744415283203,257.6815490722656,105.87970733642578Z" style="fill: rgb(255, 236, 179);"/></g></g><g id="shape-24169c5e-57ea-80e1-8006-676de0fe6cc8"><g class="fills" id="fills-24169c5e-57ea-80e1-8006-676de0fe6cc8"><path d="M149.00453186035156,-6.05897855758667C149.81922912597656,-6.548205852508545,150.74159240722656,-5.571391582489014,150.21156311035156,-4.797290325164795C146.36415100097656,1.0030711889266968,140.30262756347656,8.041202545166016,129.16688537597656,11.93454360961914C121.53480529785156,14.602619171142578,113.81092834472656,13.34762954711914,109.64442443847656,12.27865982055664C109.24403381347656,12.18033218383789,108.96376037597656,11.82229995727539,108.96351623535156,11.41086196899414C108.96400451660156,10.998371124267578,109.24598693847656,10.639698028564453,109.64588928222656,10.54123306274414C113.69252014160156,9.47774887084961,121.24232482910156,7.244556903839111,129.97547912597656,3.530163049697876C138.35560607910156,-0.020946145057678223,145.21498107910156,-3.8151509761810303,149.00453186035156,-6.05897855758667Z" style="fill: rgb(255, 236, 179);"/></g></g><g id="shape-24169c5e-57ea-80e1-8006-676de0fe6cc9"><g class="fills" id="fills-24169c5e-57ea-80e1-8006-676de0fe6cc9"><path d="M170.32777404785156,70.19005584716797C170.32777404785156,70.19005584716797,179.26649475097656,64.23531341552734,179.57948303222656,63.92250442504883C179.83705139160156,63.66475296020508,164.11903381347656,60.82866287231445,159.09681701660156,59.937320709228516C158.98793029785156,60.562076568603516,159.23133850097656,61.2405891418457,159.86854553222656,61.60676956176758L170.32777404785156,70.19005584716797Z" style="fill: rgb(255, 0, 0); fill-opacity: 1;"/></g></g><g id="shape-24169c5e-57ea-80e1-8006-676de0fe6cce"><g class="fills" id="fills-24169c5e-57ea-80e1-8006-676de0fe6cce"><path d="M46.16444778442383,169.3428497314453C43.47499465942383,170.26914978027344,42.71229934692383,173.66368103027344,45.47694778442383,178.62962341308594C47.60487747192383,182.44239807128906,51.14345169067383,187.2042694091797,54.32240676879883,184.5132598876953C55.79018020629883,183.26304626464844,55.34486770629883,180.61598205566406,51.08852005004883,173.58753967285156C50.28895950317383,172.2713165283203,48.63588333129883,168.4987030029297,46.16444778442383,169.3428497314453Z" style="fill: rgb(255, 236, 179);"/></g></g><g id="shape-24169c5e-57ea-80e1-8006-676de0fe6ccf"><g class="fills" id="fills-24169c5e-57ea-80e1-8006-676de0fe6ccf"><path d="M49.08827590942383,164.27615356445312C49.71034622192383,166.8279571533203,53.07973098754883,178.35084533691406,65.24574279785156,190.5167999267578C78.76820373535156,204.03904724121094,92.05775451660156,205.2077178955078,92.05775451660156,205.2077178955078L107.71205139160156,189.5536651611328L95.26698303222656,184.9358673095703C95.26698303222656,184.9358673095703,91.25868225097656,188.4289093017578,85.68812561035156,193.99961853027344C80.11634826660156,199.5713653564453,67.52967834472656,186.9308319091797,65.88832092285156,185.28932189941406C50.25038528442383,169.65150451660156,52.97450637817383,160.25445556640625,52.96059036254883,160.24066162109375L49.08827590942383,164.16757202148438C49.07484817504883,164.18121337890625,49.07387161254883,164.23593139648438,49.08827590942383,164.27615356445312Z" style="fill: rgb(255, 0, 0); fill-opacity: 1;"/></g></g><g id="shape-24169c5e-57ea-80e1-8006-676de0fe6cca"><g class="fills" id="fills-24169c5e-57ea-80e1-8006-676de0fe6cca"><path d="M155.71498107910156,209.48023986816406C161.81141662597656,208.83595275878906,157.21498107910156,203.48023986816406,151.21498107910156,200.98023986816406C143.91761779785156,197.93919372558594,112.09046936035156,181.7028350830078,99.68104553222656,168.69529724121094C96.33094787597656,165.18182373046875,110.75013732910156,163.70223999023438,124.66761779785156,161.014892578125C124.32972717285156,159.31820678710938,124.72547912597656,157.51205444335938,125.94886779785156,156.09921264648438L185.14125061035156,81.6884994506836L192.21644592285156,93.9813003540039C192.88099670410156,95.13439178466797,194.57752990722656,95.0384292602539,195.12220764160156,93.8156509399414L191.26210021972656,69.84391021728516C191.00550842285156,68.28376007080078,189.10536193847656,67.66065216064453,187.97792053222656,68.76117706298828L78.12953186035156,175.67991638183594C88.71498107910156,203.98023986816406,133.76063537597656,211.68653869628906,155.71498107910156,209.48023986816406L155.71498107910156,209.48023986816406" style="fill: rgb(255, 0, 0); fill-opacity: 1;"/></g></g><g id="shape-24169c5e-57ea-80e1-8006-676e176de081" style="display: none;"><g class="fills" id="fills-24169c5e-57ea-80e1-8006-676e176de081"><path d="M143.21498107910156,191.11732482910156L256.3522033691406,77.98023223876953L293.8287658691406,115.45690155029297L180.69154357910156,228.59397888183594L143.21498107910156,191.11732482910156" style="fill: rgb(46, 11, 51); fill-opacity: 1;"/></g></g><g id="shape-24169c5e-57ea-80e1-8006-676de0fe6cd0"><g class="fills" id="fills-24169c5e-57ea-80e1-8006-676de0fe6cd0"><path d="M80.50843811035156,201.5395965576172C80.50843811035156,201.5395965576172,86.23377990722656,204.79249572753906,85.44227600097656,209.4363250732422C84.37684631347656,215.6550750732422,79.61170959472656,216.13450622558594,79.61170959472656,216.13450622558594C79.61170959472656,216.13450622558594,89.31459045410156,219.7770538330078,92.56459045410156,214.16737365722656C95.65126037597656,208.85643005371094,92.03041076660156,205.2075653076172,92.03041076660156,205.2075653076172L83.00672912597656,200.58677673339844L80.50843811035156,201.5395965576172Z" style="fill: rgb(255, 0, 0); fill-opacity: 1;"/></g></g><g id="shape-24169c5e-57ea-80e1-8006-676de0fe6ccb"><g class="fills" id="fills-24169c5e-57ea-80e1-8006-676de0fe6ccb"><path d="M184.14955139160156,82.8430404663086C184.14955139160156,82.8430404663086,189.57411193847656,74.5429458618164,189.88685607910156,74.2301254272461C190.14466857910156,73.9723892211914,192.98085021972656,89.69071197509766,193.87171936035156,94.71251678466797C193.24745178222656,94.82178497314453,192.56874084472656,94.57833099365234,192.20277404785156,93.94107818603516L184.14955139160156,82.8430404663086Z" style="fill: rgb(255, 0, 0); fill-opacity: 1;"/></g></g><g id="shape-24169c5e-57ea-80e1-8006-676de0fe6ccd"><g class="fills" id="fills-24169c5e-57ea-80e1-8006-676de0fe6ccd"><path d="M56.92567825317383,59.51791763305664C69.89271545410156,42.672367095947266,98.04969787597656,42.18350601196289,98.04969787597656,42.18350601196289C100.38490295410156,41.828128814697266,101.33192443847656,45.05861282348633,99.19984436035156,46.05154800415039C99.19984436035156,46.05154800415039,74.64930725097656,51.20695877075195,64.00355529785156,67.8198471069336C53.83412551879883,83.6862564086914,60.83559036254883,102.3733139038086,60.83559036254883,102.3733139038086C61.40394973754883,104.5718765258789,58.14393997192383,105.71532440185547,57.07362747192383,103.72115325927734C51.82924270629883,94.07353973388672,45.98329544067383,73.74219512939453,56.92567825317383,59.51791763305664Z" style="fill: rgb(255, 236, 179);"/></g></g><g id="shape-24169c5e-57ea-80e1-8006-676de0fe6ccc"><g class="fills" id="fills-24169c5e-57ea-80e1-8006-676de0fe6ccc"><path d="M34.50038528442383,71.63574981689453C25.992572784423828,96.17508697509766,36.27406692504883,133.8245849609375,78.12953186035156,175.67991638183594C78.12953186035156,175.67991638183594,82.40858459472656,158.19015502929688,72.83290100097656,148.61456298828125C63.25770950317383,139.03933715820312,42.61732864379883,115.81684112548828,39.23280715942383,92.15750885009766C38.20790481567383,84.93614959716797,38.45790481567383,78.3384017944336,39.19618606567383,72.90723419189453C39.56581497192383,70.06938934326172,35.45351028442383,68.91980743408203,34.50038528442383,71.63574981689453Z" style="fill: rgb(255, 0, 0); fill-opacity: 1;"/></g></g><g id="shape-24169c5e-57ea-80e1-8006-676b1ad31d22"><g class="fills" id="fills-24169c5e-57ea-80e1-8006-676b1ad31d22"><path d="M118.16297912597656,146.42678833007812C117.24208068847656,143.74014282226562,113.84852600097656,142.98300170898438,108.87757873535156,145.75643920898438C105.06044006347656,147.89224243164062,100.29237365722656,151.43948364257812,102.97669982910156,154.61441040039062C104.22450256347656,156.07913208007812,106.87269592285156,155.62860107421875,113.90858459472656,151.35891723632812C115.22596740722656,150.55691528320312,119.00160217285156,148.89730834960938,118.16297912597656,146.42678833007812Z" style="fill: rgb(255, 236, 179);"/></g></g></g><g id="shape-24169c5e-57ea-80e1-8006-676b1ad31d13" width="800" height="800" class="iconify iconify--noto" rx="0" ry="0" style="fill: rgb(0, 0, 0);"><g id="shape-24169c5e-57ea-80e1-8006-676b1ad31d14" style="display: none;"><g class="fills" id="fills-24169c5e-57ea-80e1-8006-676b1ad31d14"><rect width="245.98136645962768" height="245.5161290322582" x="47.285249166655376" transform="matrix(-0.707107, 0.707107, -0.707107, -0.707107, 458.203228, 284.035517)" style="fill: none;" ry="0" fill="none" rx="0" y="114.15668983833993"/></g></g><g id="shape-24169c5e-57ea-80e1-8006-676b1ad31d18"><g class="fills" id="fills-24169c5e-57ea-80e1-8006-676b1ad31d18"><path d="M142.87635803222656,327.1110534667969L128.78675842285156,339.5190734863281C127.90370178222656,340.2936706542969,128.11903381347656,341.7329406738281,129.20423889160156,342.2205505371094L191.96595764160156,370.14093017578125C193.58094787597656,370.8588562011719,195.29335021972656,369.3094482421875,194.71083068847656,367.6400451660156C191.56971740722656,358.4123229980469,183.26893615722656,336.6578369140625,171.19911193847656,323.2561340332031C153.04188537597656,300.914306640625,138.16200256347656,301.5796813964844,121.31117248535156,291.44091796875C97.70277404785156,277.20843505859375,105.43861389160156,250.59275817871094,122.93324279785156,227.0216827392578C124.91786193847656,224.3589630126953,128.77357482910156,223.97547912597656,131.25550842285156,226.1588592529297L205.55458068847656,285.2113952636719L193.24818420410156,292.3095397949219C192.09388732910156,292.9757385253906,192.18739318847656,294.6727600097656,193.40834045410156,295.2147216796875L250.82411193847656,320.1265563964844C251.58143615722656,320.4178466796875,252.44081115722656,320.2301025390625,253.01014709472656,319.64892578125C253.85267639160156,318.8063049316406,253.62318420410156,317.7880554199219,253.48768615722656,317.4629821777344L228.56239318847656,260.0877685546875C228.31727600097656,259.5233154296875,227.77503967285156,259.1456604003906,227.16102600097656,259.1119384765625C226.54627990722656,259.0780029296875,225.96449279785156,259.3934020996094,225.65711975097656,259.927490234375L218.55873107910156,272.2343444824219L159.50648498535156,197.9357147216797C157.32337951660156,195.45262145996094,157.69300842285156,191.58363342285156,160.36976623535156,189.61268615722656C183.94032287597656,172.1178741455078,210.56947326660156,164.36843872070312,224.78871154785156,187.99009704589844C234.92689514160156,204.8147735595703,234.00331115722656,219.57264709472656,256.6039123535156,237.8783416748047C270.0052795410156,249.9483184814453,291.7457580566406,258.2360534667969,300.9877014160156,261.39080810546875C302.6708068847656,261.9588928222656,304.2064514160156,260.2604675292969,303.4886779785156,258.6461181640625L275.5682678222656,195.8299102783203C275.0802307128906,194.74400329589844,273.6412658691406,194.52830505371094,272.8668518066406,195.4116973876953L260.4584045410156,209.50172424316406C254.07313537597656,200.31663513183594,255.89564514160156,168.1944122314453,232.16029357910156,144.45919799804688C211.00233459472656,123.30120086669922,164.92445373535156,125.24500274658203,111.76527404785156,178.40406799316406C58.60609817504883,231.5633087158203,56.67567825317383,277.6549377441406,77.81996154785156,298.7994384765625C101.55531311035156,322.53460693359375,131.16078186035156,311.8357849121094,142.87635803222656,327.1110534667969Z" style="fill: rgb(255, 202, 40);"/></g></g><g id="shape-24169c5e-57ea-80e1-8006-676b1ad31d19"><g class="fills" id="fills-24169c5e-57ea-80e1-8006-676b1ad31d19"><path d="M275.5274963378906,195.87062072753906L266.7328186035156,221.9172821044922C263.4220275878906,220.01954650878906,260.4317932128906,209.5555877685547,260.4317932128906,209.5555877685547L272.8399963378906,195.46571350097656C272.8399963378906,195.46571350097656,273.4110412597656,194.78623962402344,274.2113342285156,194.7722930908203C274.9989318847656,194.7714080810547,275.5274963378906,195.87062072753906,275.5274963378906,195.87062072753906Z" style="fill: rgb(255, 0, 0); fill-opacity: 1;"/></g></g><g id="shape-24169c5e-57ea-80e1-8006-676b1ad31d1a"><g class="fills" id="fills-24169c5e-57ea-80e1-8006-676b1ad31d1a"><path d="M243.73695373535156,305.7288818359375C244.22523498535156,306.8415832519531,242.85292053222656,307.8338623046875,241.95790100097656,307.0205383300781C239.20423889160156,304.5113525390625,235.55580139160156,301.02545166015625,233.21009826660156,298.13677978515625C226.11805725097656,289.3597106933594,227.06410217285156,279.8963317871094,228.16786193847656,275.2118225097656C228.42640686035156,274.16650390625,229.85218811035156,274.0426025390625,230.29920959472656,275.03338623046875L243.73695373535156,305.7288818359375Z" style="fill: rgb(255, 236, 179);"/></g></g><g id="shape-24169c5e-57ea-80e1-8006-676b1ad31d1b"><g class="fills" id="fills-24169c5e-57ea-80e1-8006-676b1ad31d1b"><path d="M181.22547912597656,357.8243713378906C186.12196350097656,362.7475280761719,188.74134826660156,363.89923095703125,186.61512756347656,358.1585693359375C183.78553771972656,350.54510498046875,177.37391662597656,339.9486083984375,171.21791076660156,331.91778564453125C167.28553771972656,326.7895812988281,167.72743225097656,333.3460998535156,169.29774475097656,338.31365966796875C170.69129943847656,342.8059387207031,173.37269592285156,349.9443054199219,181.22547912597656,357.8243713378906Z" style="fill: rgb(255, 236, 179);"/></g></g><g id="shape-24169c5e-57ea-80e1-8006-676b1ad31d1c"><g class="fills" id="fills-24169c5e-57ea-80e1-8006-676b1ad31d1c"><path d="M293.3702697753906,248.9350128173828C293.8580627441406,249.74916076660156,292.8797912597656,250.6734161376953,292.1063537597656,250.1444854736328C286.3133850097656,246.30809020996094,279.2865295410156,240.26011657714844,275.4142150878906,229.1315155029297C272.7608947753906,221.5043487548828,274.0306701660156,213.7784881591797,275.1073303222656,209.6094512939453C275.2062072753906,209.2088165283203,275.5643615722656,208.9280548095703,275.9764709472656,208.9274444580078C276.3888244628906,208.9271697998047,276.7469787597656,209.20835876464844,276.8446350097656,209.6079559326172C277.9002990722656,213.65223693847656,280.1192932128906,221.19834899902344,283.8170471191406,229.92454528808594C287.3524475097656,238.29762268066406,291.1334533691406,245.14930725097656,293.3702697753906,248.9350128173828Z" style="fill: rgb(255, 236, 179);"/></g></g><g id="shape-24169c5e-57ea-80e1-8006-676b1ad31d1d"><g class="fills" id="fills-24169c5e-57ea-80e1-8006-676b1ad31d1d"><path d="M217.08094787597656,270.4028015136719C217.08094787597656,270.4028015136719,223.01795959472656,279.3302917480469,223.33045959472656,279.6424255371094C223.58778381347656,279.9000244140625,226.45399475097656,264.17596435546875,227.35487365722656,259.15240478515625C226.72987365722656,259.0444641113281,226.05140686035156,259.2894287109375,225.68421936035156,259.927978515625L217.08094787597656,270.4028015136719Z" style="fill: rgb(255, 0, 0); fill-opacity: 1;"/></g></g><g id="shape-24169c5e-57ea-80e1-8006-676b1ad31d1e"><g class="fills" id="fills-24169c5e-57ea-80e1-8006-676b1ad31d1e"><path d="M63.67567825317383,268.72900390625C64.30848693847656,274.8238830566406,65.90516662597656,280.38824462890625,68.24916076660156,285.3411865234375C70.64686584472656,290.3424072265625,73.87953186035156,294.89788818359375,77.80653381347656,298.8128967285156C101.54188537597656,322.548095703125,132.23915100097656,320.1977233886719,142.84925842285156,327.111083984375L142.80799865722656,327.1521911621094L128.73231506347656,339.5465393066406C127.86195373535156,340.3352966308594,128.10536193847656,341.74639892578125,129.16395568847656,342.2339782714844L163.91029357910156,335.4540710449219C155.60243225097656,321.08551025390625,140.09120178222656,314.7329406738281,124.64710998535156,309.31671142578125C87.17713928222656,295.898681640625,80.96034240722656,280.57763671875,85.63783264160156,257.75244140625C89.41590881347656,239.3264923095703,105.67811584472656,212.3766326904297,118.70887756347656,199.9425506591797C122.22889709472656,196.58570861816406,123.68153381347656,211.0021209716797,126.34266662597656,224.91468811035156C128.03993225097656,224.5738067626953,129.84486389160156,224.96559143066406,131.25575256347656,226.1864776611328L205.55458068847656,285.23846435546875L193.24818420410156,292.3367004394531C192.09388732910156,293.002685546875,192.18690490722656,294.6995544433594,193.40809631347656,295.2419738769531L217.38710021972656,291.33636474609375C218.94886779785156,291.076904296875,219.57460021972656,289.1755065917969,218.47645568847656,288.0502014160156L111.76527404785156,178.40406799316406C77.71229553222656,212.4572296142578,61.51088333129883,246.77870178222656,63.67567825317383,268.72900390625Z" style="fill: rgb(255, 0, 0); fill-opacity: 1;"/></g></g><g id="shape-24169c5e-57ea-80e1-8006-676b1ad31d1f"><g class="fills" id="fills-24169c5e-57ea-80e1-8006-676b1ad31d1f"><path d="M204.40126037597656,284.2488708496094C204.40126037597656,284.2488708496094,212.69105529785156,289.6572265625,213.00355529785156,289.9693908691406C213.26087951660156,290.2269592285156,197.53724670410156,293.0926208496094,192.51380920410156,293.99346923828125C192.40541076660156,293.3691711425781,192.65052795410156,292.690185546875,193.28895568847656,292.3233642578125L204.40126037597656,284.2488708496094Z" style="fill: rgb(255, 0, 0); fill-opacity: 1;"/></g></g><g id="shape-24169c5e-57ea-80e1-8006-676b1ad31d20"><g class="fills" id="fills-24169c5e-57ea-80e1-8006-676b1ad31d20"><path d="M215.89222717285156,134.57781982421875C191.36903381347656,126.11614227294922,153.70008850097656,136.46946716308594,111.76527404785156,178.40406799316406C111.76527404785156,178.40406799316406,129.24696350097656,182.6499481201172,138.84071350097656,173.0561981201172C148.43397521972656,163.46295166015625,171.69593811035156,142.77847290039062,195.36122131347656,139.34902954101562C202.58509826660156,138.31015014648438,209.18226623535156,138.54827880859375,214.61219787597656,139.27627563476562C217.44911193847656,139.64013671875,218.60658264160156,135.5256805419922,215.89222717285156,134.57781982421875Z" style="fill: rgb(255, 0, 0); fill-opacity: 1;"/></g></g><g id="shape-24169c5e-57ea-80e1-8006-676b1ad31d21"><g class="fills" id="fills-24169c5e-57ea-80e1-8006-676b1ad31d21"><path d="M227.96766662597656,156.98037719726562C244.78895568847656,169.91590881347656,245.22425842285156,198.07115173339844,245.22425842285156,198.07115173339844C245.57484436035156,200.40626525878906,242.34339904785156,201.3591766357422,241.35365295410156,199.2292938232422C241.35365295410156,199.2292938232422,236.24549865722656,174.68894958496094,219.65272521972656,164.07421875C203.80580139160156,153.93453979492188,185.10511779785156,160.9710693359375,185.10511779785156,160.9710693359375C182.90467834472656,161.54348754882812,181.76771545410156,158.28628540039062,183.76405334472656,157.21185302734375C193.42176818847656,151.94903564453125,213.76429748535156,146.06466674804688,227.96766662597656,156.98037719726562Z" style="fill: rgb(255, 236, 179);"/></g></g></g></g></svg>