<svg width="5895" xmlns="http://www.w3.org/2000/svg" height="1431" id="screenshot-8bd66237-ef76-8049-8007-06f43a6ebbe3" viewBox="0 0 5895 1431" xmlns:xlink="http://www.w3.org/1999/xlink" fill="none" version="1.1"><style>/* cyrillic-ext */
@font-face {
  font-family: 'JetBrains Mono';
  font-style: normal;
  font-weight: 800;
  font-display: block;
  src: url(http://penpot-frontend:8080/internal/gfonts/font/jetbrainsmono/v24/tDbY2o-flEEny0FZhsfKu5WU4zr3E_BX0PnT8RD8SKtTN1OVgaY.woff2) format('woff2');
  unicode-range: U+0460-052F, U+1C80-1C8A, U+20B4, U+2DE0-2DFF, U+A640-A69F, U+FE2E-FE2F;
}
/* cyrillic */
@font-face {
  font-family: 'JetBrains Mono';
  font-style: normal;
  font-weight: 800;
  font-display: block;
  src: url(http://penpot-frontend:8080/internal/gfonts/font/jetbrainsmono/v24/tDbY2o-flEEny0FZhsfKu5WU4zr3E_BX0PnT8RD8SKtTPlOVgaY.woff2) format('woff2');
  unicode-range: U+0301, U+0400-045F, U+0490-0491, U+04B0-04B1, U+2116;
}
/* greek */
@font-face {
  font-family: 'JetBrains Mono';
  font-style: normal;
  font-weight: 800;
  font-display: block;
  src: url(http://penpot-frontend:8080/internal/gfonts/font/jetbrainsmono/v24/tDbY2o-flEEny0FZhsfKu5WU4zr3E_BX0PnT8RD8SKtTOVOVgaY.woff2) format('woff2');
  unicode-range: U+0370-0377, U+037A-037F, U+0384-038A, U+038C, U+038E-03A1, U+03A3-03FF;
}
/* vietnamese */
@font-face {
  font-family: 'JetBrains Mono';
  font-style: normal;
  font-weight: 800;
  font-display: block;
  src: url(http://penpot-frontend:8080/internal/gfonts/font/jetbrainsmono/v24/tDbY2o-flEEny0FZhsfKu5WU4zr3E_BX0PnT8RD8SKtTNVOVgaY.woff2) format('woff2');
  unicode-range: U+0102-0103, U+0110-0111, U+0128-0129, U+0168-0169, U+01A0-01A1, U+01AF-01B0, U+0300-0301, U+0303-0304, U+0308-0309, U+0323, U+0329, U+1EA0-1EF9, U+20AB;
}
/* latin-ext */
@font-face {
  font-family: 'JetBrains Mono';
  font-style: normal;
  font-weight: 800;
  font-display: block;
  src: url(http://penpot-frontend:8080/internal/gfonts/font/jetbrainsmono/v24/tDbY2o-flEEny0FZhsfKu5WU4zr3E_BX0PnT8RD8SKtTNFOVgaY.woff2) format('woff2');
  unicode-range: U+0100-02BA, U+02BD-02C5, U+02C7-02CC, U+02CE-02D7, U+02DD-02FF, U+0304, U+0308, U+0329, U+1D00-1DBF, U+1E00-1E9F, U+1EF2-1EFF, U+2020, U+20A0-20AB, U+20AD-20C0, U+2113, U+2C60-2C7F, U+A720-A7FF;
}
/* latin */
@font-face {
  font-family: 'JetBrains Mono';
  font-style: normal;
  font-weight: 800;
  font-display: block;
  src: url(http://penpot-frontend:8080/internal/gfonts/font/jetbrainsmono/v24/tDbY2o-flEEny0FZhsfKu5WU4zr3E_BX0PnT8RD8SKtTOlOV.woff2) format('woff2');
  unicode-range: U+0000-00FF, U+0131, U+0152-0153, U+02BB-02BC, U+02C6, U+02DA, U+02DC, U+0304, U+0308, U+0329, U+2000-206F, U+20AC, U+2122, U+2191, U+2193, U+2212, U+2215, U+FEFF, U+FFFD;
}
</style><g id="shape-8bd66237-ef76-8049-8007-06f43a6ebbe3" rx="0" ry="0"><g id="shape-8bd66237-ef76-8049-8007-06f43a6ebbe4" rx="0" ry="0"><g id="shape-8bd66237-ef76-8049-8007-06f43a6ebbe7"><g class="fills" id="fills-8bd66237-ef76-8049-8007-06f43a6ebbe7"><path d="M883.32373046875,65.3310546875C868.80908203125,67.0615234375,853.12841796875,67.2236328125,837.44873046875,67.32421875C819.63427734375,67.4384765625,808.79150390625,77.59375,812.70361328125,93.984375C819.72216796875,123.3544921875,827.48095703125,153.3916015625,840.93994140625,180.1259765625C852.97509765625,204.033203125,871.99462890625,224.857421875,890.03173828125,245.1767578125C903.71826171875,260.59765625,923.56591796875,257.1455078125,937.27392578125,246.7314453125C952.45556640625,235.1962890625,963.98681640625,218.4423828125,975.28564453125,202.6533203125C977.05517578125,200.1826171875,969.68212890625,190.4384765625,965.62939453125,184.6953125C960.39794921875,177.27734375,954.25537109375,170.5,951.04443359375,160.5634765625C984.67041015625,170.6494140625,1012.34130859375,190.5,1033.66943359375,216.1728515625C1054.83935546875,241.658203125,1070.42333984375,271.7919921875,1093.27978515625,299.318359375C1093.84912109375,259.5595703125,1103.93115234375,224.283203125,1122.66455078125,191.5029296875C1141.44287109375,158.6494140625,1166.53759765625,132.3623046875,1203.66845703125,112.6474609375C1207.64208984375,136.515625,1195.19580078125,149.7421875,1183.86083984375,163.6435546875C1171.75634765625,178.482421875,1158.31005859375,192.6904296875,1148.92138671875,209.154296875C1138.70458984375,227.060546875,1143.86572265625,237.45703125,1163.68115234375,237.6279296875C1181.48681640625,237.7861328125,1200.36962890625,233.5625,1216.95263671875,226.7978515625C1242.98974609375,216.1728515625,1267.49365234375,201.7900390625,1294.15771484375,188.572265625C1281.82080078125,201.2158203125,1269.95654296875,218.0400390625,1253.73291015625,226.60546875C1214.45556640625,247.3447265625,1172.57958984375,259.1826171875,1124.49560546875,242.4736328125C1133.17041015625,221.4306640625,1140.98681640625,202.4736328125,1148.80322265625,183.5166015625C1125.08349609375,204.2041015625,1112.69775390625,230.90234375,1113.07861328125,260.5322265625C1113.73974609375,312.1416015625,1105.64404296875,361.4521484375,1085.12646484375,408.693359375C1081.16552734375,417.814453125,1075.80322265625,426.3271484375,1069.44677734375,438.1826171875C1181.93798828125,444.0751953125,1283.38037109375,469.7138671875,1363.54736328125,559.2509765625C1164.53173828125,559.2509765625,970.96142578125,559.2509765625,770.83251953125,559.2509765625C787.79248046875,541.931640625,799.40185546875,526.33984375,814.41650390625,515.42578125C863.85009765625,479.478515625,919.39013671875,457.6826171875,979.88623046875,447.689453125C988.31494140625,446.2958984375,997.15185546875,437.47265625,1002.58447265625,429.8056640625C1015.60595703125,411.431640625,1025.68212890625,390.9580078125,1038.79541015625,372.658203125C1072.08349609375,326.2138671875,1069.65185546875,273.4482421875,1029.05615234375,226.7841796875C1024.95556640625,222.2978515625,1022.70751953125,219.7705078125,1020.45556640625,217.23828125C1019.38232421875,218.1455078125,1018.30419921875,219.0517578125,1017.22705078125,219.958984375C1019.52294921875,223.857421875,1021.81787109375,227.7568359375,1024.11376953125,231.65625C1033.24853515625,249.728515625,1042.38330078125,267.796875,1053.13525390625,289.06640625C1004.56103515625,300.9306640625,960.29736328125,301.228515625,918.73779296875,277.552734375C844.76513671875,235.40625,803.76123046875,172.7646484375,802.53076171875,85.865234375C802.29833984375,69.4541015625,808.63818359375,62.59765625,824.02880859375,62.720703125C843.40673828125,62.873046875,862.78076171875,63.376953125,883.32373046875,65.3310546875M1160.74560546875,160.642578125C1159.43603515625,164.5986328125,1158.12646484375,168.5595703125,1156.81201171875,172.515625C1158.18310546875,173.0107421875,1159.55419921875,173.509765625,1160.92529296875,174.0048828125C1162.89306640625,169.91796875,1164.85595703125,165.833984375,1169.15771484375,160.66015625C1169.36376953125,158.6708984375,1169.57470703125,156.6826171875,1169.77978515625,154.693359375C1167.64208984375,155.87109375,1165.49951171875,157.0546875,1160.74560546875,160.642578125M1267.29248046875,551.6796875C1288.40966796875,551.6796875,1309.52685546875,551.6796875,1334.93798828125,551.6796875C1329.64599609375,543.443359375,1328.43212890625,539.3251953125,1325.72021484375,537.6826171875C1294.82861328125,518.9140625,1264.55908203125,498.826171875,1232.32177734375,482.677734375C1213.29833984375,473.1484375,1191.39208984375,468.2236328125,1170.20458984375,464.443359375C1140.16259765625,459.076171875,1109.63525390625,456.1845703125,1079.22119140625,453.1923828125C1060.64892578125,451.361328125,1056.46923828125,440.9423828125,1060.73681640625,425.3505859375C1062.86962890625,417.560546875,1068.75830078125,410.7568359375,1070.66845703125,402.94921875C1073.78759765625,390.19140625,1075.04541015625,376.9736328125,1077.08740234375,363.94921875C1074.70849609375,363.05078125,1072.32470703125,362.15234375,1069.94580078125,361.25390625C1065.51220703125,364.5224609375,1059.88623046875,366.94140625,1056.84619140625,371.19921875C1043.01025390625,390.5947265625,1027.41748046875,409.3193359375,1017.24853515625,430.5771484375C1007.68896484375,450.5634765625,994.97900390625,458.98828125,973.64208984375,463.0849609375C919.09619140625,473.5556640625,866.66259765625,490.8828125,821.37841796875,524.740234375C813.75048828125,530.4443359375,807.59521484375,538.12109375,800.76025390625,544.884765625C801.85595703125,547.150390625,802.95068359375,549.419921875,804.04638671875,551.6845703125C956.97216796875,551.6845703125,1109.89306640625,551.6845703125,1267.29248046875,551.6796875M1013.35400390625,248.4755859375C1003.64501953125,252.1513671875,992.88916015625,254.3681640625,984.75341796875,260.2255859375C981.59423828125,262.50390625,984.35498046875,273.0009765625,984.41552734375,279.7568359375C998.10693359375,279.3095703125,1011.79833984375,278.8671875,1025.48974609375,278.4248046875C1022.43115234375,268.91796875,1019.37841796875,259.40625,1013.35400390625,248.4755859375M1007.19384765625,204.58984375C1005.60791015625,203.1787109375,1004.02197265625,201.7724609375,1002.43994140625,200.3662109375C1003.06689453125,202.263671875,1003.69287109375,204.1650390625,1007.19384765625,204.58984375Z" style="fill: rgb(148, 170, 66);"/></g></g><g id="shape-8bd66237-ef76-8049-8007-06f43a6ebbe8"><g class="fills" id="fills-8bd66237-ef76-8049-8007-06f43a6ebbe8"><path d="M1302.71044921875,179.6044921875C1310.62255859375,166.5615234375,1320.12939453125,153.291015625,1331.13134765625,139.6611328125C1323.18798828125,152.6552734375,1313.74658203125,166.0185546875,1302.71044921875,179.6044921875Z" style="fill: rgb(148, 170, 66);"/></g></g><g id="shape-8bd66237-ef76-8049-8007-06f43a6ebbe9"><g class="fills" id="fills-8bd66237-ef76-8049-8007-06f43a6ebbe9"><path d="M1578.48486328125,1222.876953125C1554.03759765625,1260.58984375,1517.44580078125,1273.7861328125,1481.71240234375,1258.7802734375C1447.67919921875,1244.494140625,1424.69580078125,1202.6142578125,1431.73193359375,1167.71875C1439.19775390625,1130.6767578125,1476.53369140625,1101.40234375,1515.36865234375,1103.96484375C1562.66845703125,1107.0927734375,1609.24951171875,1161.0205078125,1578.48486328125,1222.876953125Z"/></g></g><g id="shape-8bd66237-ef76-8049-8007-06f43a6ebbea"><g class="fills" id="fills-8bd66237-ef76-8049-8007-06f43a6ebbea"><path d="M653.41650390625,1108.1796875C685.23681640625,1122.55859375,711.37939453125,1158.4091796875,707.44482421875,1184.5732421875C702.29345703125,1218.85546875,689.25439453125,1248.5986328125,652.1591796875,1260.7216796875C623.82568359375,1269.974609375,599.37841796875,1262.8642578125,578.09033203125,1243.994140625C553.54248046875,1222.228515625,546.05078125,1193.248046875,554.3310546875,1162.9345703125C567.1328125,1116.091796875,606.892578125,1095.02734375,653.41650390625,1108.1796875Z"/></g></g><g id="shape-8bd66237-ef76-8049-8007-06f43a6ebbeb"><g class="fills" id="fills-8bd66237-ef76-8049-8007-06f43a6ebbeb"><path d="M985.53759765625,975.505859375C970.06787109375,1001.927734375,943.53076171875,1011.509765625,922.93896484375,999.474609375C899.47802734375,985.7578125,892.41552734375,955.8515625,907.02197265625,932.0849609375C918.12841796875,914.0078125,944.59521484375,907.1123046875,966.36572265625,916.6142578125C986.07666015625,925.2236328125,993.96728515625,948.0146484375,985.53759765625,975.505859375Z"/></g></g><g id="shape-8bd66237-ef76-8049-8007-06f43a6ebbec"><g class="fills" id="fills-8bd66237-ef76-8049-8007-06f43a6ebbec"><path d="M1217.17626953125,916.5966796875C1237.50927734375,930.4892578125,1248.53173828125,948.13671875,1240.67236328125,970.9189453125C1234.37646484375,989.162109375,1220.83837890625,1002.296875,1199.83544921875,1004.50390625C1180.36083984375,1006.5458984375,1163.72119140625,998.861328125,1159.05517578125,980.75C1154.95849609375,964.837890625,1154.72607421875,945.3330078125,1160.32958984375,930.2138671875C1166.38037109375,913.880859375,1184.44384765625,910.1083984375,1202.23583984375,914.3759765625C1206.56005859375,915.41015625,1211.11669921875,915.4716796875,1217.17626953125,916.5966796875Z"/></g></g><g id="shape-8bd66237-ef76-8049-8007-06f43a6ebbed"><g class="fills" id="fills-8bd66237-ef76-8049-8007-06f43a6ebbed"><path d="M1014.83935546875,249.189453125C1019.37841796875,259.40625,1022.43115234375,268.91796875,1025.48974609375,278.4248046875C1011.79833984375,278.8671875,998.10693359375,279.3095703125,984.41552734375,279.7568359375C984.35498046875,273.0009765625,981.59423828125,262.50390625,984.75341796875,260.2255859375C992.88916015625,254.3681640625,1003.64501953125,252.1513671875,1014.83935546875,249.189453125Z" style="fill: rgb(160, 185, 58);"/></g></g><g id="shape-8bd66237-ef76-8049-8007-06f43a6ebbee"><g class="fills" id="fills-8bd66237-ef76-8049-8007-06f43a6ebbee"><path d="M1166.81787109375,161.74609375C1164.85595703125,165.833984375,1162.89306640625,169.91796875,1160.92529296875,174.0048828125C1159.55419921875,173.509765625,1158.18310546875,173.0107421875,1156.81201171875,172.515625C1158.12646484375,168.5595703125,1159.43603515625,164.5986328125,1162.91455078125,160.3232421875C1165.66162109375,160.5810546875,1166.23974609375,161.1640625,1166.81787109375,161.74609375Z"/></g></g><g id="shape-8bd66237-ef76-8049-8007-06f43a6ebbef"><g class="fills" id="fills-8bd66237-ef76-8049-8007-06f43a6ebbef"><path d="M1025.00341796875,230.82421875C1021.81787109375,227.7568359375,1019.52294921875,223.857421875,1017.22705078125,219.958984375C1018.30419921875,219.0517578125,1019.38232421875,218.1455078125,1020.45556640625,217.23828125C1022.70751953125,219.7705078125,1024.95556640625,222.2978515625,1027.43896484375,226.57421875C1027.08056640625,228.87890625,1026.48876953125,229.4345703125,1025.00341796875,230.82421875Z"/></g></g><g id="shape-8bd66237-ef76-8049-8007-06f43a6ebbf0"><g class="fills" id="fills-8bd66237-ef76-8049-8007-06f43a6ebbf0"><path d="M1164.22509765625,159.1181640625C1165.49951171875,157.0546875,1167.64208984375,155.87109375,1169.77978515625,154.693359375C1169.57470703125,156.6826171875,1169.36376953125,158.6708984375,1167.98779296875,161.203125C1166.23974609375,161.1640625,1165.66162109375,160.5810546875,1164.22509765625,159.1181640625Z"/></g></g><g id="shape-8bd66237-ef76-8049-8007-06f43a6ebbf1"><g class="fills" id="fills-8bd66237-ef76-8049-8007-06f43a6ebbf1"><path d="M1619.47509765625,802.828125C1235.40185546875,802.7978515625,853.56298828125,802.775390625,471.72802734375,802.740234375C435.57861328125,802.740234375,435.337890625,802.47265625,435.26318359375,766.3466796875C435.232421875,751.40234375,435.39453125,736.4541015625,435.1494140625,721.5146484375C434.90380859375,706.5302734375,442.43505859375,699.7666015625,456.958984375,699.7626953125C483.859375,699.7529296875,510.76025390625,699.6875,537.66064453125,699.68359375C911.27587890625,699.669921875,1284.89208984375,699.6611328125,1658.51123046875,699.666015625C1687.61572265625,699.666015625,1699.70361328125,711.8935546875,1700.26904296875,740.8916015625C1701.43017578125,800.7431640625,1702.20556640625,804.681640625,1639.64208984375,802.8759765625C1633.67041015625,802.701171875,1627.68505859375,802.8369140625,1619.47509765625,802.828125Z" style="fill: rgb(148, 176, 54);"/></g></g><g id="shape-8bd66237-ef76-8049-8007-06f43a6ebbf2"><g class="fills" id="fills-8bd66237-ef76-8049-8007-06f43a6ebbf2"><path d="M888.23583984375,583.1806640625C1054.90478515625,583.17578125,1219.33544921875,582.400390625,1383.74951171875,583.662109375C1430.30322265625,584.017578125,1483.94287109375,542.62890625,1485.00732421875,485.8271484375C1485.70849609375,448.267578125,1495.24169921875,439.4091796875,1532.83251953125,439.3876953125C1535.07568359375,439.3828125,1537.31884765625,439.3876953125,1539.56201171875,439.3876953125C1595.61474609375,439.400390625,1606.26123046875,457.060546875,1594.54150390625,513.7353515625C1585.10009765625,559.3779296875,1564.85888671875,598.12890625,1535.66748046875,632.578125C1510.15576171875,662.6806640625,1473.98388671875,672.3408203125,1436.27099609375,672.419921875C1188.88232421875,672.962890625,941.49755859375,672.6689453125,694.10888671875,672.712890625C627.40966796875,672.7265625,569.490234375,624.3369140625,556.267578125,571.8291015625C549.18310546875,543.7060546875,540.4951171875,515.9384765625,534.501953125,487.59765625C527.19384765625,453.0390625,544.2412109375,435.8994140625,579.52294921875,439.1328125C592.1279296875,440.2861328125,604.9208984375,439.3349609375,617.6220703125,439.5400390625C633.2978515625,439.794921875,642.32763671875,448.7275390625,645.4033203125,463.203125C647.97021484375,475.2822265625,649.376953125,487.6806640625,650.349609375,500.013671875C653.86328125,544.6220703125,694.57763671875,582.7421875,740.25146484375,583.0712890625C788.83056640625,583.4169921875,837.41357421875,583.1669921875,888.23583984375,583.1806640625Z" style="fill: rgb(147, 176, 54);"/></g></g><g id="shape-8bd66237-ef76-8049-8007-06f43a6ebbf3"><g class="fills" id="fills-8bd66237-ef76-8049-8007-06f43a6ebbf3"><path d="M1290.64892578125,1070.5634765625C1317.83447265625,992.13671875,1422.53564453125,935.9921875,1486.19873046875,932.75C1543.77685546875,929.8193359375,1599.54931640625,937.72265625,1645.68310546875,971.9609375C1677.75341796875,995.759765625,1707.99267578125,1026.357421875,1728.66748046875,1060.25390625C1767.72607421875,1124.29296875,1769.75927734375,1195.859375,1746.17529296875,1266.49609375C1728.02783203125,1320.8349609375,1693.54345703125,1367.078125,1644.23291015625,1394.1748046875C1596.76318359375,1420.2646484375,1544.27587890625,1435.953125,1486.05029296875,1427.94921875C1422.87744140625,1419.2607421875,1367.83642578125,1397.5703125,1325.89111328125,1349.9296875C1276.05029296875,1293.3173828125,1257.57958984375,1225.1640625,1267.03857421875,1150.8818359375C1270.45166015625,1124.0869140625,1282.00048828125,1098.3310546875,1290.64892578125,1070.5634765625M1579.51416015625,1221.501953125C1609.24951171875,1161.0205078125,1562.66845703125,1107.0927734375,1515.36865234375,1103.96484375C1476.53369140625,1101.40234375,1439.19775390625,1130.6767578125,1431.73193359375,1167.71875C1424.69580078125,1202.6142578125,1447.67919921875,1244.494140625,1481.71240234375,1258.7802734375C1517.44580078125,1273.7861328125,1554.03759765625,1260.58984375,1579.51416015625,1221.501953125Z" style="fill: rgb(34, 54, 86);"/></g></g><g id="shape-8bd66237-ef76-8049-8007-06f43a6ebbf4"><g class="fills" id="fills-8bd66237-ef76-8049-8007-06f43a6ebbf4"><path d="M409.59375,1069.3056640625C482.435546875,924.53125,671.36572265625,885.71484375,791.27099609375,992.4736328125C843.69580078125,1039.150390625,873.20361328125,1098.8603515625,875.98974609375,1172.818359375C879.59130859375,1268.244140625,840.83544921875,1341.1103515625,765.27685546875,1392.0673828125C721.46044921875,1421.6142578125,668.48291015625,1433.3466796875,612.71044921875,1427.791015625C568.140625,1423.3486328125,526.1162109375,1412.974609375,489.19140625,1388.580078125C429.05517578125,1348.84765625,397.07666015625,1290.9638671875,385.05029296875,1220.0908203125C376.03369140625,1166.9833984375,387.4072265625,1118.4052734375,409.59375,1069.3056640625M651.66845703125,1107.7763671875C606.892578125,1095.02734375,567.1328125,1116.091796875,554.3310546875,1162.9345703125C546.05078125,1193.248046875,553.54248046875,1222.228515625,578.09033203125,1243.994140625C599.37841796875,1262.8642578125,623.82568359375,1269.974609375,652.1591796875,1260.7216796875C689.25439453125,1248.5986328125,702.29345703125,1218.85546875,707.44482421875,1184.5732421875C711.37939453125,1158.4091796875,685.23681640625,1122.55859375,651.66845703125,1107.7763671875Z" style="fill: rgb(34, 54, 86);"/></g></g><g id="shape-8bd66237-ef76-8049-8007-06f43a6ebbf5"><g class="fills" id="fills-8bd66237-ef76-8049-8007-06f43a6ebbf5"><path d="M1018.33935546875,1108.2890625C984.71826171875,1108.236328125,953.32275390625,1107.5966796875,921.96630859375,1108.3896484375C907.08349609375,1108.7666015625,899.67431640625,1103.6708984375,894.07080078125,1089.279296875C863.94580078125,1011.8994140625,813.26416015625,950.91015625,735.31884765625,920.7158203125C679.78271484375,899.19921875,619.9482421875,892.5927734375,560.23681640625,909.884765625C551.0888671875,912.53125,540.9462890625,915.1689453125,531.9521484375,913.6796875C526.01513671875,912.6982421875,521.28369140625,904.3388671875,516.09619140625,899.19921875C515.7021484375,898.8095703125,515.96044921875,897.7578125,515.91259765625,897.013671875C512.0615234375,833.96484375,494.08544921875,833.947265625,571.654296875,834.0390625C909.34423828125,834.4462890625,1247.04248046875,834.2578125,1584.73681640625,834.341796875C1620.97802734375,834.3505859375,1620.96923828125,834.5166015625,1615.57177734375,871.2216796875C1615.24267578125,873.4345703125,1615.16455078125,875.681640625,1615.02783203125,877.9208984375C1612.54833984375,919.3662109375,1612.71044921875,918.6435546875,1572.81982421875,909.75390625C1469.41455078125,886.7138671875,1378.62744140625,910.998046875,1306.76318359375,989.4990234375C1283.32275390625,1015.1025390625,1267.77001953125,1048.6708984375,1252.07666015625,1080.3154296875C1242.77099609375,1099.083984375,1234.14404296875,1109.458984375,1211.08154296875,1108.8583984375C1147.61962890625,1107.20703125,1084.08837890625,1108.2890625,1018.33935546875,1108.2890625M986.19482421875,973.9111328125C993.96728515625,948.0146484375,986.07666015625,925.2236328125,966.36572265625,916.6142578125C944.59521484375,907.1123046875,918.12841796875,914.0078125,907.02197265625,932.0849609375C892.41552734375,955.8515625,899.47802734375,985.7578125,922.93896484375,999.474609375C943.53076171875,1011.509765625,970.06787109375,1001.927734375,986.19482421875,973.9111328125M1215.56787109375,915.9833984375C1211.11669921875,915.4716796875,1206.56005859375,915.41015625,1202.23583984375,914.3759765625C1184.44384765625,910.1083984375,1166.38037109375,913.880859375,1160.32958984375,930.2138671875C1154.72607421875,945.3330078125,1154.95849609375,964.837890625,1159.05517578125,980.75C1163.72119140625,998.861328125,1180.36083984375,1006.5458984375,1199.83544921875,1004.50390625C1220.83837890625,1002.296875,1234.37646484375,989.162109375,1240.67236328125,970.9189453125C1248.53173828125,948.13671875,1237.50927734375,930.4892578125,1215.56787109375,915.9833984375Z" style="fill: rgb(33, 53, 84);"/></g></g><g id="shape-8bd66237-ef76-8049-8007-06f43a6ebbf6"><g class="fills" id="fills-8bd66237-ef76-8049-8007-06f43a6ebbf6"><path d="M165.93359375,1201.87890625C220.37841796875,1201.935546875,272.5849609375,1202.333984375,324.78271484375,1201.84765625C340.62939453125,1201.703125,350.60986328125,1204.927734375,350.34228515625,1223.666015625C350.15869140625,1236.80078125,352.7392578125,1249.974609375,354.083984375,1263.1357421875C340.75634765625,1263.7880859375,327.43310546875,1264.984375,314.10546875,1265.0146484375C223.87060546875,1265.203125,133.63525390625,1265.1943359375,43.39990234375,1265.1376953125C11.6142578125,1265.115234375,-0.591796875,1256.029296875,0.02197265625,1233.4140625C0.578125,1212.9501953125,16.091796875,1202.0888671875,45.11767578125,1202.0185546875C84.64013671875,1201.921875,124.16748046875,1201.921875,165.93359375,1201.87890625Z" style="fill: rgb(39, 57, 86);"/></g></g><g id="shape-8bd66237-ef76-8049-8007-06f43a6ebbf7"><g class="fills" id="fills-8bd66237-ef76-8049-8007-06f43a6ebbf7"><path d="M304.75634765625,1143.8505859375C261.4697265625,1143.876953125,220.36962890625,1143.28125,179.30029296875,1144.18359375C159.29150390625,1144.6259765625,150.1171875,1134.474609375,148.3076171875,1116.775390625C146.55078125,1099.5791015625,151.12060546875,1085.1875,172.41748046875,1084.310546875C201.3642578125,1083.119140625,230.30615234375,1081.6474609375,259.26171875,1081.04296875C285.3955078125,1080.4990234375,311.5556640625,1080.7802734375,337.6982421875,1081.0380859375C362.2373046875,1081.279296875,364.39306640625,1084.1796875,358.39501953125,1106.9443359375C348.72607421875,1143.640625,348.72607421875,1143.640625,304.75634765625,1143.8505859375Z" style="fill: rgb(39, 57, 86);"/></g></g><g id="shape-8bd66237-ef76-8049-8007-06f43a6ebbf8"><g class="fills" id="fills-8bd66237-ef76-8049-8007-06f43a6ebbf8"><path d="M296.13818359375,1318.697265625C311.77490234375,1318.7578125,325.18994140625,1318.8193359375,338.60546875,1318.701171875C387.521484375,1318.2626953125,402.009765625,1327.7529296875,425.9052734375,1378.3017578125C417.4228515625,1379.546875,409.953125,1381.5439453125,402.47412109375,1381.587890625C351.79248046875,1381.9033203125,301.1064453125,1381.587890625,250.42919921875,1381.9560546875C232.02392578125,1382.0869140625,217.73681640625,1377.640625,215.67333984375,1356.4365234375C213.587890625,1335.0380859375,221.5439453125,1323.984375,244.88720703125,1320.353515625C260.93115234375,1317.85546875,277.55322265625,1319.060546875,296.13818359375,1318.697265625Z" style="fill: rgb(36, 56, 86);"/></g></g><g id="shape-8bd66237-ef76-8049-8007-06f43a6ebbf9"><g class="fills" id="fills-8bd66237-ef76-8049-8007-06f43a6ebbf9"><path d="M429.8701171875,984.947265625C425.177734375,989.9892578125,420.078125,993.109375,418.16357421875,997.5908203125C405.62890625,1026.8525390625,381.91357421875,1030.4365234375,354.18017578125,1027.7861328125C338.67529296875,1026.30078125,322.88134765625,1028.0439453125,307.275390625,1027.220703125C288.85693359375,1026.248046875,278.90673828125,1015.77734375,278.1181640625,997.2578125C277.33837890625,979.0283203125,288.6376953125,965.0869140625,307.10009765625,964.6279296875C344.33154296875,963.6982421875,381.59814453125,964.27734375,418.85107421875,964.2685546875C433.17333984375,964.263671875,438.30810546875,970.08203125,429.8701171875,984.947265625Z" style="fill: rgb(39, 57, 86);"/></g></g><g id="shape-8bd66237-ef76-8049-8007-06f43a6ebbfa"><g class="fills" id="fills-8bd66237-ef76-8049-8007-06f43a6ebbfa"><path d="M884.48974609375,66.9306640625C978.67236328125,69.9140625,1039.19384765625,120.984375,1075.26904296875,198.806640625C1090.34033203125,164.2880859375,1101.80615234375,124.7958984375,1123.33935546875,91.8935546875C1153.47802734375,45.8525390625,1200.85107421875,19.53515625,1255.03369140625,9.314453125C1285.20751953125,3.623046875,1316.26513671875,2.1337890625,1347.01708984375,0.11328125C1365.58935546875,-1.103515625,1371.40771484375,7.2197265625,1366.36474609375,25.9189453125C1356.32666015625,63.1318359375,1345.66748046875,100.1787109375,1332.45361328125,138.658203125C1320.12939453125,153.291015625,1310.62255859375,166.5615234375,1301.11083984375,179.83203125C1299.63916015625,181.833984375,1298.16650390625,183.83203125,1294.67041015625,187.4150390625C1267.49365234375,201.7900390625,1242.98974609375,216.1728515625,1216.95263671875,226.7978515625C1200.36962890625,233.5625,1181.48681640625,237.7861328125,1163.68115234375,237.6279296875C1143.86572265625,237.45703125,1138.70458984375,227.060546875,1148.92138671875,209.154296875C1158.31005859375,192.6904296875,1171.75634765625,178.482421875,1183.86083984375,163.6435546875C1195.19580078125,149.7421875,1207.64208984375,136.515625,1203.66845703125,112.6474609375C1166.53759765625,132.3623046875,1141.44287109375,158.6494140625,1122.66455078125,191.5029296875C1103.93115234375,224.283203125,1093.84912109375,259.5595703125,1093.27978515625,299.318359375C1070.42333984375,271.7919921875,1054.83935546875,241.658203125,1033.66943359375,216.1728515625C1012.34130859375,190.5,984.67041015625,170.6494140625,951.04443359375,160.5634765625C954.25537109375,170.5,960.39794921875,177.27734375,965.62939453125,184.6953125C969.68212890625,190.4384765625,977.05517578125,200.1826171875,975.28564453125,202.6533203125C963.98681640625,218.4423828125,952.45556640625,235.1962890625,937.27392578125,246.7314453125C923.56591796875,257.1455078125,903.71826171875,260.59765625,890.03173828125,245.1767578125C871.99462890625,224.857421875,852.97509765625,204.033203125,840.93994140625,180.1259765625C827.48095703125,153.3916015625,819.72216796875,123.3544921875,812.70361328125,93.984375C808.79150390625,77.59375,819.63427734375,67.4384765625,837.44873046875,67.32421875C853.12841796875,67.2236328125,868.80908203125,67.0615234375,884.48974609375,66.9306640625Z" style="fill: rgb(160, 185, 58);"/></g></g><g id="shape-8bd66237-ef76-8049-8007-06f43a6ebbfb"><g class="fills" id="fills-8bd66237-ef76-8049-8007-06f43a6ebbfb"><path d="M1265.05419921875,551.6796875C1109.89306640625,551.6845703125,956.97216796875,551.6845703125,804.04638671875,551.6845703125C802.95068359375,549.419921875,801.85595703125,547.150390625,800.76025390625,544.884765625C807.59521484375,538.12109375,813.75048828125,530.4443359375,821.37841796875,524.740234375C866.66259765625,490.8828125,919.09619140625,473.5556640625,973.64208984375,463.0849609375C994.97900390625,458.98828125,1007.68896484375,450.5634765625,1017.24853515625,430.5771484375C1027.41748046875,409.3193359375,1043.01025390625,390.5947265625,1056.84619140625,371.19921875C1059.88623046875,366.94140625,1065.51220703125,364.5224609375,1069.94580078125,361.25390625C1072.32470703125,362.15234375,1074.70849609375,363.05078125,1077.08740234375,363.94921875C1075.04541015625,376.9736328125,1073.78759765625,390.19140625,1070.66845703125,402.94921875C1068.75830078125,410.7568359375,1062.86962890625,417.560546875,1060.73681640625,425.3505859375C1056.46923828125,440.9423828125,1060.64892578125,451.361328125,1079.22119140625,453.1923828125C1109.63525390625,456.1845703125,1140.16259765625,459.076171875,1170.20458984375,464.443359375C1191.39208984375,468.2236328125,1213.29833984375,473.1484375,1232.32177734375,482.677734375C1264.55908203125,498.826171875,1294.82861328125,518.9140625,1325.72021484375,537.6826171875C1328.43212890625,539.3251953125,1329.64599609375,543.443359375,1334.93798828125,551.6796875C1309.52685546875,551.6796875,1288.40966796875,551.6796875,1265.05419921875,551.6796875Z" style="fill: rgb(150, 180, 51);"/></g></g><g id="shape-8bd66237-ef76-8049-8007-06f43a6ebbfc"><g class="fills" id="fills-8bd66237-ef76-8049-8007-06f43a6ebbfc"><path d="M1005.75634765625,205.3251953125C1003.69287109375,204.1650390625,1003.06689453125,202.263671875,1002.43994140625,200.3662109375C1004.02197265625,201.7724609375,1005.60791015625,203.1787109375,1005.75634765625,205.3251953125Z"/></g></g></g><g id="shape-8bd66237-ef76-8049-8007-06f43a6ebbe5"><g transform="matrix(1.000000, 0.000000, 0.000000, 1.000000, 0.000000, 0.000000)" class="text-container" x="1843.8278451074584" y="13.33770260484016" width="4051.1721548925398" height="789.5840643719876" rx="0" ry="0"><defs><pattern patternUnits="objectBoundingBox" width="4051.171875" height="1040" id="fill-0-render-25-0"><g><rect width="4051.171875" height="1040" style="fill: rgb(34, 54, 89); fill-opacity: 1;"/></g></pattern></defs><g class="fills" id="fills-8bd66237-ef76-8049-8007-06f43a6ebbe5"><text x="1843.8278451074584" y="926.8377026048402" dominant-baseline="ideographic" textLength="4051.171875" lengthAdjust="spacingAndGlyphs" style="text-transform: uppercase; font-family: &quot;JetBrains Mono&quot;; letter-spacing: 202.561px; font-style: normal; font-weight: 800; white-space: pre; font-size: 787.737px; text-decoration: rgb(34, 54, 89); direction: ltr; fill: rgb(34, 54, 89); fill-opacity: 1;">Tandem</text></g></g></g><g id="shape-8bd66237-ef76-8049-8007-06f43a6ebbe6"><g transform="matrix(1.000000, 0.000000, 0.000000, 1.000000, 0.000000, 0.000000)" class="text-container" x="1843.8278451074584" y="713.1963051163766" width="3858.259195135748" height="717.8036948836234" rx="0" ry="0"><defs><pattern patternUnits="objectBoundingBox" width="4004.6328125" height="829" id="fill-0-render-26-0"><g><rect width="4004.6328125" height="829" style="fill: rgb(147, 179, 49); fill-opacity: 1;"/></g></pattern></defs><g class="fills" id="fills-8bd66237-ef76-8049-8007-06f43a6ebbe6"><text x="1843.8278451074584" y="1504.1963051163766" dominant-baseline="ideographic" textLength="4004.6328125" lengthAdjust="spacingAndGlyphs" style="text-transform: uppercase; font-family: &quot;JetBrains Mono&quot;; letter-spacing: 123.737px; font-style: normal; font-weight: 800; white-space: pre; font-size: 628.081px; text-decoration: rgb(147, 179, 49); direction: ltr; fill: rgb(147, 179, 49); fill-opacity: 1;">Robotics</text></g></g></g></g></svg>