<?xml version="1.0" encoding="utf-8"?>
<COLLADA xmlns="http://www.collada.org/2005/11/COLLADASchema" version="1.4.1">
  <asset><unit name="meter" meter="1"/><up_axis>Z_UP</up_axis></asset>
  <library_images><image id="farm_sidewalk_right_image"><init_from>textures/sidewalk_tile.jpg</init_from></image></library_images>
  <library_effects>
    <effect id="farm_sidewalk_right_effect">
      <profile_COMMON>
        <newparam sid="farm_sidewalk_right_surface"><surface type="2D"><init_from>farm_sidewalk_right_image</init_from></surface></newparam><newparam sid="farm_sidewalk_right_sampler"><sampler2D><source>farm_sidewalk_right_surface</source><wrap_s>WRAP</wrap_s><wrap_t>WRAP</wrap_t></sampler2D></newparam>
        <technique sid="common"><lambert><diffuse><texture texture="farm_sidewalk_right_sampler" texcoord="UVSET0"/></diffuse></lambert></technique>
      </profile_COMMON>
    </effect>
  </library_effects>
  <library_materials>
    <material id="farm_sidewalk_right_material"><instance_effect url="#farm_sidewalk_right_effect"/></material>
  </library_materials>
  <library_geometries>
    <geometry id="farm_sidewalk_right_geometry">
      <mesh>
        <source id="farm_sidewalk_right_positions">
          <float_array id="farm_sidewalk_right_positions_array" count="1920">2.78379 -60.6558 0.13 4.43849 -61.0456 0.13 4.61518 -60.2956 0.13 2.96048 -59.9058 0.13 2.96061 -59.9053 0.13 4.61539 -60.2948 0.13 4.79192 -59.5448 0.13 3.13714 -59.1553 0.13 3.1374 -59.1542 0.13 4.79233 -59.5431 0.13 4.96855 -58.7931 0.13 3.31363 -58.4042 0.13 3.31401 -58.4026 0.13 4.96916 -58.7905 0.13 5.14493 -58.0405 0.13 3.48978 -57.6526 0.13 3.49028 -57.6504 0.13 5.14573 -58.0371 0.13 5.32089 -57.2871 0.13 3.66544 -56.9004 0.13 3.66607 -56.8977 0.13 5.32189 -57.2828 0.13 5.49629 -56.5328 0.13 3.84046 -56.1477 0.13 3.84121 -56.1445 0.13 5.49748 -56.5276 0.13 5.67096 -55.7776 0.13 4.01469 -55.3945 0.13 4.01555 -55.3908 0.13 5.67234 -55.7716 0.13 5.84475 -55.0216 0.13 4.18797 -54.6408 0.13 4.18895 -54.6365 0.13 5.84632 -55.0148 0.13 6.01752 -54.2648 0.13 4.36015 -53.8865 0.13 4.36125 -53.8816 0.13 6.01927 -54.2571 0.13 6.1891 -53.5071 0.13 4.53108 -53.1316 0.13 4.53229 -53.1263 0.13 6.19103 -53.4986 0.13 6.35935 -52.7486 0.13 4.70062 -52.3763 0.13 4.70193 -52.3704 0.13 6.36144 -52.7392 0.13 6.52811 -51.9892 0.13 4.8686 -51.6204 0.13 4.87001 -51.614 0.13 6.53037 -51.979 0.13 6.69523 -51.229 0.13 5.03488 -50.864 0.13 5.03639 -50.8571 0.13 6.69764 -51.218 0.13 6.86057 -50.468 0.13 5.19931 -50.1071 0.13 5.20091 -50.0997 0.13 6.86312 -50.4562 0.13 7.02396 -49.7062 0.13 5.36175 -49.3497 0.13 5.36344 -49.3418 0.13 7.02666 -49.6935 0.13 7.18527 -48.9435 0.13 5.52205 -48.5918 0.13 5.52383 -48.5833 0.13 7.18809 -48.93 0.13 7.34434 -48.18 0.13 5.68008 -47.8333 0.13 5.68193 -47.8244 0.13 7.34729 -48.1658 0.13 7.50104 -47.4158 0.13 5.83568 -47.0744 0.13 5.8376 -47.0649 0.13 7.5041 -47.4007 0.13 7.65522 -46.6507 0.13 5.98872 -46.3149 0.13 5.9907 -46.305 0.13 7.65839 -46.6349 0.13 7.80674 -45.8849 0.13 6.13906 -45.555 0.13 6.1411 -45.5446 0.13 7.81 -45.8683 0.13 7.95546 -45.1183 0.13 6.28656 -44.7946 0.13 6.28866 -44.7837 0.13 7.9588 -45.1009 0.13 8.10125 -44.3509 0.13 6.43111 -44.0337 0.13 6.43324 -44.0223 0.13 8.10465 -44.3327 0.13 8.24396 -43.5827 0.13 6.57255 -43.2723 0.13 6.57472 -43.2605 0.13 8.24742 -43.5639 0.13 8.38347 -42.8139 0.13 6.71077 -42.5105 0.13 6.71297 -42.4982 0.13 8.38698 -42.7943 0.13 8.51965 -42.0443 0.13 6.84563 -41.7482 0.13 6.84786 -41.7354 0.13 8.52319 -42.024 0.13 8.65236 -41.274 0.13 6.97703 -40.9854 0.13 6.97927 -40.9722 0.13 8.65593 -41.2529 0.13 8.78149 -40.5029 0.13 7.10483 -40.2222 0.13 7.10707 -40.2086 0.13 8.78507 -40.4812 0.13 8.90692 -39.7312 0.13 7.22892 -39.4586 0.13 7.23117 -39.4446 0.13 8.9105 -39.7089 0.13 9.02853 -38.9589 0.13 7.34919 -38.6946 0.13 7.35143 -38.6802 0.13 9.03209 -38.9358 0.13 9.14619 -38.1858 0.13 7.46553 -37.9302 0.13 7.46775 -37.9153 0.13 9.14973 -38.1622 0.13 9.25981 -37.4122 0.13 7.57783 -37.1653 0.13 7.58002 -37.1501 0.13 9.2633 -37.3879 0.13 9.36926 -36.6379 0.13 7.68598 -36.4001 0.13 7.68814 -36.3845 0.13 9.37271 -36.613 0.13 9.47446 -35.863 0.13 7.78989 -35.6345 0.13 7.79201 -35.6185 0.13 9.47784 -35.8376 0.13 9.57529 -35.0876 0.13 7.88946 -34.8685 0.13 7.89153 -34.8522 0.13 9.57859 -35.0615 0.13 9.67166 -34.3115 0.13 7.9846 -34.1022 0.13 7.98662 -34.0855 0.13 9.67488 -34.285 0.13 9.76348 -33.535 0.13 8.07522 -33.3355 0.13 8.07718 -33.3186 0.13 9.7666 -33.5079 0.13 9.85066 -32.7579 0.13 8.16124 -32.5686 0.13 8.16313 -32.5513 0.13 9.85367 -32.7304 0.13 9.93312 -31.9804 0.13 8.24258 -31.8013 0.13 8.24438 -31.7837 0.13 9.936 -31.9523 0.13 10.0108 -31.2023 0.13 8.31915 -31.0337 0.13 8.32087 -31.0159 0.13 10.0135 -31.1739 0.13 10.0835 -30.4239 0.13 8.39089 -30.2659 0.13 8.39253 -30.2477 0.13 10.0861 -30.395 0.13 10.1513 -29.645 0.13 8.45774 -29.4977 0.13 8.45928 -29.4794 0.13 10.1538 -29.6157 0.13 10.2141 -28.8657 0.13 8.51962 -28.7294 0.13 8.52106 -28.7108 0.13 10.2164 -28.8361 0.13 10.2719 -28.0861 0.13 8.57649 -27.9608 0.13 8.57781 -27.942 0.13 10.274 -28.0561 0.13 10.3244 -27.3061 0.13 8.62828 -27.192 0.13 8.62949 -27.173 0.13 10.3264 -27.2759 0.13 10.3718 -26.5259 0.13 8.67495 -26.423 0.13 8.67605 -26.4039 0.13 10.3736 -26.4953 0.13 10.414 -25.7453 0.13 8.71645 -25.6539 0.13 8.71743 -25.6346 0.13 10.4155 -25.7145 0.13 10.4509 -24.9645 0.13 8.75275 -24.8846 0.13 8.7536 -24.8651 0.13 10.4522 -24.9335 0.13 10.4824 -24.1835 0.13 8.78381 -24.1151 0.13 8.78453 -24.0955 0.13 10.4836 -24.1523 0.13 10.5087 -23.4023 0.13 8.8096 -23.3455 0.13 8.81019 -23.3259 0.13 10.5096 -23.371 0.13 10.5295 -22.621 0.13 8.8301 -22.5759 0.13 8.83056 -22.5562 0.13 10.5302 -22.5895 0.13 10.545 -21.8395 0.13 8.84529 -21.8062 0.13 8.84561 -21.7864 0.13 10.5455 -21.808 0.13 10.555 -21.058 0.13 8.85514 -21.0364 0.13 8.85533 -21.0165 0.13 10.5553 -21.0264 0.13 10.5596 -20.2764 0.13 8.85966 -20.2665 0.13 8.85971 -20.2467 0.13 10.5597 -20.2447 0.13 10.5588 -19.4947 0.13 8.85884 -19.4967 0.13 8.85875 -19.4769 0.13 10.5587 -19.4631 0.13 10.5526 -18.7131 0.13 8.85268 -18.7269 0.13 8.85245 -18.707 0.13 10.5523 -18.6815 0.13 10.541 -17.9315 0.13 8.84118 -17.957 0.13 8.84082 -17.9373 0.13 10.5404 -17.9 0.13 10.5239 -17.15 0.13 8.82436 -17.1873 0.13 8.82386 -17.1675 0.13 10.5232 -17.1185 0.13 10.5015 -16.3685 0.13 8.80223 -16.4175 0.13 8.80159 -16.3979 0.13 10.5005 -16.3372 0.13 10.4737 -15.5872 0.13 8.77481 -15.6479 0.13 8.77404 -15.6284 0.13 10.4725 -15.5561 0.13 10.4406 -14.8061 0.13 8.74213 -14.8784 0.13 8.74123 -14.859 0.13 10.4392 -14.7752 0.13 10.4021 -14.0252 0.13 8.70421 -14.109 0.13 8.7032 -14.0897 0.13 10.4005 -13.9945 0.13 10.3584 -13.2445 0.13 8.6611 -13.3397 0.13 8.65996 -13.3206 0.13 10.3566 -13.214 0.13 10.3095 -12.464 0.13 8.61283 -12.5706 0.13 8.61158 -12.5517 0.13 10.3075 -12.4338 0.13 10.2554 -11.6838 0.13 8.55946 -11.8017 0.13 8.55809 -11.783 0.13 10.2532 -11.654 0.13 10.1961 -10.904 0.13 8.50102 -11.033 0.13 8.49955 -11.0145 0.13 10.1938 -10.8745 0.13 10.1318 -10.1245 0.13 8.43757 -10.2645 0.13 8.43601 -10.2462 0.13 10.1293 -10.0953 0.13 10.0625 -9.34533 0.13 8.36918 -9.49619 0.13 8.36752 -9.47817 0.13 10.0598 -9.31659 0.13 9.98821 -8.56659 0.13 8.29591 -8.72817 0.13 8.29416 -8.7104 0.13 9.98542 -8.53826 0.13 9.90909 -7.78826 0.13 8.21782 -7.9604 0.13 8.21599 -7.94292 0.13 9.90616 -7.76039 0.13 9.82517 -7.01039 0.13 8.13499 -7.19292 0.13 8.13309 -7.17574 0.13 9.82212 -6.983 0.13 9.73654 -6.233 0.13 8.0475 -6.42574 0.13 8.04552 -6.40887 0.13 9.73339 -6.2061 0.13 9.64329 -5.4561 0.13 7.95542 -5.65887 0.13 7.95339 -5.64232 0.13 9.64004 -5.42972 0.13 9.5455 -4.67972 0.13 7.85885 -4.89232 0.13 7.85676 -4.87612 0.13 9.54217 -4.65389 0.13 9.44328 -3.90389 0.13 7.75787 -4.12612 0.13 7.75573 -4.11027 0.13 9.43987 -3.87862 0.13 9.33671 -3.12862 0.13 7.65257 -3.36027 0.13 7.65039 -3.34479 0.13 9.33325 -3.10393 0.13 9.2259 -2.35393 0.13 7.54305 -2.59479 0.13 7.54085 -2.57969 0.13 9.22239 -2.32986 0.13 9.11096 -1.57986 0.13 7.42942 -1.82969 0.13 7.42719 -1.81498 0.13 9.10741 -1.55641 0.13 8.99199 -0.806406 0.13 7.31177 -1.06498 0.13 7.30953 -1.05068 0.13 8.98842 -0.783596 0.13 8.86911 -0.033596 0.13 7.19022 -0.300676 0.13 7.18798 -0.286784 0.13 8.86553 -0.0114458 0.13 8.74243 0.738554 0.13 7.06488 0.463216 0.13 7.06264 0.476684 0.13 8.73886 0.760028 0.13 8.61208 1.51003 0.13 6.93586 1.22668 0.13 6.93362 1.23972 0.13 8.60852 1.53081 0.13 8.47817 2.28081 0.13 6.80328 1.98972 0.13 6.80106 2.00231 0.13 8.47463 2.30089 0.13 8.34083 3.05089 0.13 6.66725 2.75231 0.13 6.66506 2.76445 0.13 8.33733 3.07025 0.13 8.20018 3.82025 0.13 6.52791 3.51445 0.13 6.52575 3.52613 0.13 8.19674 3.83887 0.13 8.05637 4.58887 0.13 6.38538 4.27613 0.13 6.38326 4.28735 0.13 8.05299 4.60675 0.13 7.90952 5.35675 0.13 6.23979 5.03735 0.13 6.23772 5.04809 0.13 7.90621 5.37388 0.13 7.75977 6.12388 0.13 6.09128 5.79809 0.13 6.08925 5.80835 0.13 7.75654 6.14023 0.13 7.60725 6.89023 0.13 5.93996 6.55835 0.13 5.938 6.56812 0.13 7.60412 6.90581 0.13 7.45211 7.65581 0.13 5.78599 7.31812 0.13 5.78409 7.3274 0.13 7.44908 7.67061 0.13 7.29448 8.42061 0.13 5.62949 8.0774 0.13 5.62766 8.08618 0.13 7.29158 8.43461 0.13 7.13452 9.18461 0.13 5.47061 8.83618 0.13 5.46887 8.84446 0.13 7.13174 9.1978 0.13 6.97237 9.9478 0.13 5.3095 9.59446 0.13 5.30783 9.60223 0.13 6.96972 9.96019 0.13 6.80817 10.7102 0.13 5.14629 10.3522 0.13 5.14471 10.3595 0.13 6.80566 10.7218 0.13 6.64208 11.4718 0.13 4.98113 11.1095 0.13 4.97965 11.1162 0.13 6.63972 11.4825 0.13 6.47423 12.2325 0.13 4.81416 11.8662 0.13 4.81278 11.8724 0.13 6.47203 12.2424 0.13 6.3048 12.9924 0.13 4.64555 12.6224 0.13 4.64427 12.6281 0.13 6.30276 13.0015 0.13 6.13392 13.7515 0.13 4.47542 13.3781 0.13 4.47425 13.3833 0.13 6.13205 13.7598 0.13 5.96174 14.5098 0.13 4.30395 14.1333 0.13 4.30289 14.138 0.13 5.96006 14.5172 0.13 5.78843 15.2672 0.13 4.13127 14.888 0.13 4.13032 14.8921 0.13 5.78693 15.2737 0.13 5.61414 16.0237 0.13 3.95754 15.6421 0.13 3.95671 15.6457 0.13 5.61282 16.0294 0.13 5.43902 16.7794 0.13 3.78291 16.3957 0.13 3.7822 16.3987 0.13 5.43789 16.7843 0.13 5.26323 17.5343 0.13 3.60753 17.1487 0.13 3.60695 17.1512 0.13 5.26229 17.5383 0.13 5.08691 18.2883 0.13 3.43157 17.9012 0.13 3.43111 17.9032 0.13 5.08618 18.2914 0.13 4.91024 19.0414 0.13 3.25517 18.6532 0.13 3.25483 18.6546 0.13 4.9097 19.0437 0.13 4.73335 19.7937 0.13 3.07848 19.4046 0.13 3.07827 19.4055 0.13 4.73301 19.7952 0.13 4.55641 20.5452 0.13 2.90166 20.1555 0.13 2.90158 20.1559 0.13 4.55627 20.5457 0.13 4.37957 21.2957 0.13 2.72487 20.9059 0.13 2.72492 20.9057 0.13 4.37963 21.2955 0.13 4.20298 22.0455 0.13 2.54826 21.6557 0.13 2.54843 21.655 0.13 4.20325 22.0443 0.13 4.0268 22.7943 0.13 2.37198 22.405 0.13 2.37228 22.4037 0.13 4.02727 22.7923 0.13 3.85118 23.5423 0.13 2.19618 23.1537 0.13 2.1966 23.1519 0.13 3.85185 23.5394 0.13 3.67626 24.2894 0.13 2.02102 23.9019 0.13 2.02156 23.8996 0.13 3.67713 24.2857 0.13 3.50221 25.0357 0.13 1.84664 24.6496 0.13 1.84731 24.6467 0.13 3.50328 25.0311 0.13 3.32917 25.7811 0.13 1.6732 25.3967 0.13 1.67399 25.3933 0.13 3.33043 25.7757 0.13 3.15729 26.5257 0.13 1.50085 26.1433 0.13 1.50176 26.1394 0.13 3.15873 26.5194 0.13 2.9867 27.2694 0.13 1.32973 26.8894 0.13 1.33075 26.8849 0.13 2.98833 27.2623 0.13 2.81757 28.0123 0.13 1.15999 27.6349 0.13 1.16112 27.6299 0.13 2.81938 28.0044 0.13 2.65003 28.7544 0.13 0.991774 28.3799 0.13 0.993016 28.3744 0.13 2.65201 28.7456 0.13 2.48422 29.4956 0.13 0.825226 29.1244 0.13 0.826572 29.1184 0.13 2.48636 29.4859 0.13 2.32028 30.2359 0.13 0.660488 29.8684 0.13 0.661934 29.8618 0.13 2.32258 30.2254 0.13 2.15835 30.9754 0.13 0.497699 30.6118 0.13 0.499241 30.6047 0.13 2.16081 30.9641 0.13 1.99856 31.7141 0.13 0.336998 31.3547 0.13 0.338631 31.3471 0.13 2.00117 31.702 0.13 1.84106 32.452 0.13 0.178519 32.0971 0.13 0.180238 32.089 0.13 1.8438 32.4391 0.13 1.68596 33.1891 0.13 0.022398 32.839 0.13 0.0241969 32.8304 0.13 1.68883 33.1754 0.13 1.53339 33.9254 0.13 -0.131235 33.5804 0.13 -0.129362 33.5713 0.13 1.53638 33.9108 0.13 1.38349 34.6608 0.13 -0.282251 34.3213 0.13 -0.280309 34.3117 0.13 1.38659 34.6455 0.13 1.23637 35.3955 0.13 -0.430523 35.0617 0.13 -0.428519 35.0516 0.13 1.23957 35.3794 0.13 1.09216 36.1294 0.13 -0.575927 35.8016 0.13 -0.573868 35.791 0.13 1.09544 36.1125 0.13 0.950968 36.8625 0.13 -0.718342 36.541 0.13 -0.716235 36.5299 0.13 0.954328 36.8449 0.13 0.812914 37.5949 0.13 -0.85765 37.2799 0.13 -0.855501 37.2684 0.13 0.81634 37.5765 0.13 0.678107 38.3265 0.13 -0.993734 38.0184 0.13 -0.991551 38.0064 0.13 0.681588 38.3074 0.13 0.546656 39.0574 0.13 -1.12648 38.7564 0.13 -1.12427 38.744 0.13 0.55018 39.0376 0.13 0.418667 39.7876 0.13 -1.25579 39.494 0.13 -1.25356 39.4811 0.13 0.422222 39.767 0.13 0.294241 40.517 0.13 -1.38154 40.2311 0.13 -1.37929 40.2178 0.13 0.297815 40.4958 0.13 0.173478 41.2458 0.13 -1.50363 40.9678 0.13 -1.50139 40.954 0.13 0.177058 41.2239 0.13 0.0564732 41.9739 0.13 -1.62197 41.704 0.13 -1.61973 41.6898 0.13 0.0600474 41.9513 0.13 -0.0566816 42.7013 0.13 -1.73646 42.4398 0.13 -1.73423 42.4253 0.13 -0.0531259 42.678 0.13 -0.165898 43.428 0.13 -1.847 43.1753 0.13 -1.84479 43.1603 0.13 -0.162373 43.4042 0.13 -0.271089 44.1542 0.13 -1.95351 43.9103 0.13 -1.95132 43.8949 0.13 -0.267608 44.1297 0.13 -0.372175 44.8797 0.13 -2.05589 44.6449 0.13 -2.05374 44.6292 0.13 -0.36875 44.8546 0.13 -0.469077 45.6046 0.13 -2.15407 45.3792 0.13 -2.15196 45.3631 0.13 -0.46572 45.579 0.13 -0.56172 46.329 0.13 -2.24796 46.1131 0.13 -2.24591 46.0967 0.13 -0.558443 46.3028 0.13 -0.650032 47.0528 0.13 -2.3375 46.8467 0.13 -2.3355 46.8299 0.13 -0.646848 47.026 0.13 -0.733948 47.776 0.13 -2.4226 47.5799 0.13 -2.42067 47.5628 0.13 -0.730868 47.7488 0.13 -0.813401 48.4988 0.13 -2.5032 48.3128 0.13 -2.50134 48.2955 0.13 -0.810437 48.4711 0.13 -0.888334 49.2211 0.13 -2.57924 49.0455 0.13 -2.57746 49.0278 0.13 -0.885496 49.1929 0.13 -0.958688 49.9429 0.13 -2.65065 49.7778 0.13 -2.64896 49.7598 0.13 -0.955987 49.9143 0.13 -1.02441 50.6643 0.13 -2.71738 50.5098 0.13 -2.71578 50.4916 0.13 -1.02186 50.6353 0.13 -1.08545 51.3853 0.13 -2.77937 51.2416 0.13 -2.77787 51.2232 0.13 -1.08306 51.3559 0.13 -1.14177 52.1059 0.13 -2.83659 51.9732 0.13 -2.83519 51.9546 0.13 -1.13954 52.0761 0.13 -1.19332 52.8261 0.13 -2.88897 52.7046 0.13 -2.88768 52.6857 0.13 -1.19126 52.7961 0.13 -1.24006 53.5461 0.13 -2.93648 53.4357 0.13 -2.9353 53.4167 0.13 -1.23819 53.5157 0.13 -1.28197 54.2657 0.13 -2.97908 54.1667 0.13 -2.97802 54.1474 0.13 -1.28028 54.2351 0.13 -1.319 54.9851 0.13 -3.01674 54.8974 0.13 -3.01581 54.8781 0.13 -1.31751 54.9542 0.13 -1.35113 55.7042 0.13 -3.04943 55.6281 0.13 -3.04862 55.6086 0.13 -1.34985 55.6732 0.13 -1.37835 56.4232 0.13 -3.07712 56.3586 0.13 -3.07644 56.339 0.13 -1.37727 56.3919 0.13 -1.40062 57.1419 0.13 -3.0998 57.089 0.13 -3.09925 57.0693 0.13 -1.39975 57.1105 0.13 -1.41793 57.8605 0.13 -3.11743 57.8193 0.13 -3.11702 57.7996 0.13 -1.41728 57.829 0.13 -1.43028 58.579 0.13 -3.13002 58.5496 0.13 -3.12975 58.5298 0.13 -1.42984 58.5474 0.13 -1.43764 59.2974 0.13 -3.13755 59.2798 0.13 -3.13742 59.2599 0.13 -1.43743 59.2658 0.13 -1.44003 60.0158 0.13 -3.14002 60.0099 0.13</float_array>
          <technique_common><accessor source="#farm_sidewalk_right_positions_array" count="640" stride="3"><param name="X" type="float"/><param name="Y" type="float"/><param name="Z" type="float"/></accessor></technique_common>
        </source>
        <source id="farm_sidewalk_right_normals">
          <float_array id="farm_sidewalk_right_normals_array" count="1920">0 0 1 0 0 1 0 0 1 0 0 1 0 0 1 0 0 1 0 0 1 0 0 1 0 0 1 0 0 1 0 0 1 0 0 1 0 0 1 0 0 1 0 0 1 0 0 1 0 0 1 0 0 1 0 0 1 0 0 1 0 0 1 0 0 1 0 0 1 0 0 1 0 0 1 0 0 1 0 0 1 0 0 1 0 0 1 0 0 1 0 0 1 0 0 1 0 0 1 0 0 1 0 0 1 0 0 1 0 0 1 0 0 1 0 0 1 0 0 1 0 0 1 0 0 1 0 0 1 0 0 1 0 0 1 0 0 1 0 0 1 0 0 1 0 0 1 0 0 1 0 0 1 0 0 1 0 0 1 0 0 1 0 0 1 0 0 1 0 0 1 0 0 1 0 0 1 0 0 1 0 0 1 0 0 1 0 0 1 0 0 1 0 0 1 0 0 1 0 0 1 0 0 1 0 0 1 0 0 1 0 0 1 0 0 1 0 0 1 0 0 1 0 0 1 0 0 1 0 0 1 0 0 1 0 0 1 0 0 1 0 0 1 0 0 1 0 0 1 0 0 1 0 0 1 0 0 1 0 0 1 0 0 1 0 0 1 0 0 1 0 0 1 0 0 1 0 0 1 0 0 1 0 0 1 0 0 1 0 0 1 0 0 1 0 0 1 0 0 1 0 0 1 0 0 1 0 0 1 0 0 1 0 0 1 0 0 1 0 0 1 0 0 1 0 0 1 0 0 1 0 0 1 0 0 1 0 0 1 0 0 1 0 0 1 0 0 1 0 0 1 0 0 1 0 0 1 0 0 1 0 0 1 0 0 1 0 0 1 0 0 1 0 0 1 0 0 1 0 0 1 0 0 1 0 0 1 0 0 1 0 0 1 0 0 1 0 0 1 0 0 1 0 0 1 0 0 1 0 0 1 0 0 1 0 0 1 0 0 1 0 0 1 0 0 1 0 0 1 0 0 1 0 0 1 0 0 1 0 0 1 0 0 1 0 0 1 0 0 1 0 0 1 0 0 1 0 0 1 0 0 1 0 0 1 0 0 1 0 0 1 0 0 1 0 0 1 0 0 1 0 0 1 0 0 1 0 0 1 0 0 1 0 0 1 0 0 1 0 0 1 0 0 1 0 0 1 0 0 1 0 0 1 0 0 1 0 0 1 0 0 1 0 0 1 0 0 1 0 0 1 0 0 1 0 0 1 0 0 1 0 0 1 0 0 1 0 0 1 0 0 1 0 0 1 0 0 1 0 0 1 0 0 1 0 0 1 0 0 1 0 0 1 0 0 1 0 0 1 0 0 1 0 0 1 0 0 1 0 0 1 0 0 1 0 0 1 0 0 1 0 0 1 0 0 1 0 0 1 0 0 1 0 0 1 0 0 1 0 0 1 0 0 1 0 0 1 0 0 1 0 0 1 0 0 1 0 0 1 0 0 1 0 0 1 0 0 1 0 0 1 0 0 1 0 0 1 0 0 1 0 0 1 0 0 1 0 0 1 0 0 1 0 0 1 0 0 1 0 0 1 0 0 1 0 0 1 0 0 1 0 0 1 0 0 1 0 0 1 0 0 1 0 0 1 0 0 1 0 0 1 0 0 1 0 0 1 0 0 1 0 0 1 0 0 1 0 0 1 0 0 1 0 0 1 0 0 1 0 0 1 0 0 1 0 0 1 0 0 1 0 0 1 0 0 1 0 0 1 0 0 1 0 0 1 0 0 1 0 0 1 0 0 1 0 0 1 0 0 1 0 0 1 0 0 1 0 0 1 0 0 1 0 0 1 0 0 1 0 0 1 0 0 1 0 0 1 0 0 1 0 0 1 0 0 1 0 0 1 0 0 1 0 0 1 0 0 1 0 0 1 0 0 1 0 0 1 0 0 1 0 0 1 0 0 1 0 0 1 0 0 1 0 0 1 0 0 1 0 0 1 0 0 1 0 0 1 0 0 1 0 0 1 0 0 1 0 0 1 0 0 1 0 0 1 0 0 1 0 0 1 0 0 1 0 0 1 0 0 1 0 0 1 0 0 1 0 0 1 0 0 1 0 0 1 0 0 1 0 0 1 0 0 1 0 0 1 0 0 1 0 0 1 0 0 1 0 0 1 0 0 1 0 0 1 0 0 1 0 0 1 0 0 1 0 0 1 0 0 1 0 0 1 0 0 1 0 0 1 0 0 1 0 0 1 0 0 1 0 0 1 0 0 1 0 0 1 0 0 1 0 0 1 0 0 1 0 0 1 0 0 1 0 0 1 0 0 1 0 0 1 0 0 1 0 0 1 0 0 1 0 0 1 0 0 1 0 0 1 0 0 1 0 0 1 0 0 1 0 0 1 0 0 1 0 0 1 0 0 1 0 0 1 0 0 1 0 0 1 0 0 1 0 0 1 0 0 1 0 0 1 0 0 1 0 0 1 0 0 1 0 0 1 0 0 1 0 0 1 0 0 1 0 0 1 0 0 1 0 0 1 0 0 1 0 0 1 0 0 1 0 0 1 0 0 1 0 0 1 0 0 1 0 0 1 0 0 1 0 0 1 0 0 1 0 0 1 0 0 1 0 0 1 0 0 1 0 0 1 0 0 1 0 0 1 0 0 1 0 0 1 0 0 1 0 0 1 0 0 1 0 0 1 0 0 1 0 0 1 0 0 1 0 0 1 0 0 1 0 0 1 0 0 1 0 0 1 0 0 1 0 0 1 0 0 1 0 0 1 0 0 1 0 0 1 0 0 1 0 0 1 0 0 1 0 0 1 0 0 1 0 0 1 0 0 1 0 0 1 0 0 1 0 0 1 0 0 1 0 0 1 0 0 1 0 0 1 0 0 1 0 0 1 0 0 1 0 0 1 0 0 1 0 0 1 0 0 1 0 0 1 0 0 1 0 0 1 0 0 1 0 0 1 0 0 1 0 0 1 0 0 1 0 0 1 0 0 1 0 0 1 0 0 1 0 0 1 0 0 1 0 0 1 0 0 1 0 0 1 0 0 1 0 0 1 0 0 1 0 0 1 0 0 1 0 0 1 0 0 1 0 0 1 0 0 1 0 0 1 0 0 1 0 0 1 0 0 1 0 0 1 0 0 1 0 0 1 0 0 1 0 0 1 0 0 1 0 0 1 0 0 1 0 0 1 0 0 1 0 0 1 0 0 1 0 0 1 0 0 1 0 0 1 0 0 1 0 0 1 0 0 1 0 0 1 0 0 1 0 0 1 0 0 1 0 0 1 0 0 1 0 0 1 0 0 1 0 0 1 0 0 1 0 0 1 0 0 1 0 0 1 0 0 1 0 0 1 0 0 1 0 0 1 0 0 1 0 0 1 0 0 1 0 0 1 0 0 1 0 0 1 0 0 1 0 0 1 0 0 1 0 0 1 0 0 1 0 0 1 0 0 1 0 0 1 0 0 1 0 0 1 0 0 1 0 0 1 0 0 1 0 0 1 0 0 1 0 0 1 0 0 1 0 0 1 0 0 1 0 0 1 0 0 1 0 0 1 0 0 1 0 0 1 0 0 1 0 0 1 0 0 1 0 0 1 0 0 1 0 0 1 0 0 1 0 0 1 0 0 1 0 0 1 0 0 1 0 0 1 0 0 1 0 0 1 0 0 1 0 0 1 0 0 1 0 0 1 0 0 1 0 0 1 0 0 1 0 0 1 0 0 1 0 0 1 0 0 1 0 0 1 0 0 1 0 0 1 0 0 1 0 0 1 0 0 1 0 0 1 0 0 1 0 0 1 0 0 1 0 0 1 0 0 1 0 0 1 0 0 1 0 0 1 0 0 1 0 0 1 0 0 1 0 0 1 0 0 1 0 0 1 0 0 1 0 0 1 0 0 1 0 0 1 0 0 1 0 0 1 0 0 1 0 0 1 0 0 1 0 0 1 0 0 1 0 0 1 0 0 1 0 0 1 0 0 1 0 0 1 0 0 1 0 0 1 0 0 1 0 0 1 0 0 1 0 0 1 0 0 1 0 0 1 0 0 1 0 0 1 0 0 1 0 0 1 0 0 1 0 0 1 0 0 1 0 0 1 0 0 1 0 0 1 0 0 1 0 0 1 0 0 1 0 0 1 0 0 1 0 0 1 0 0 1 0 0 1 0 0 1 0 0 1 0 0 1 0 0 1 0 0 1 0 0 1 0 0 1 0 0 1 0 0 1 0 0 1 0 0 1 0 0 1 0 0 1 0 0 1 0 0 1 0 0 1 0 0 1 0 0 1 0 0 1 0 0 1 0 0 1 0 0 1 0 0 1 0 0 1 0 0 1 0 0 1 0 0 1 0 0 1 0 0 1 0 0 1 0 0 1</float_array>
          <technique_common><accessor source="#farm_sidewalk_right_normals_array" count="640" stride="3"><param name="X" type="float"/><param name="Y" type="float"/><param name="Z" type="float"/></accessor></technique_common>
        </source>
        <source id="farm_sidewalk_right_uv">
          <float_array id="farm_sidewalk_right_uv_array" count="1280">0 0 0 2 0.906508 2 0.906508 0 0.906508 0 0.906508 2 1.81297 2 1.81297 0 1.81297 0 1.81297 2 2.71936 2 2.71936 0 2.71936 0 2.71936 2 3.62562 2 3.62562 0 3.62562 0 3.62562 2 4.53172 2 4.53172 0 4.53172 0 4.53172 2 5.43761 2 5.43761 0 5.43761 0 5.43761 2 6.34326 2 6.34326 0 6.34326 0 6.34326 2 7.24863 2 7.24863 0 7.24863 0 7.24863 2 8.15367 2 8.15367 0 8.15367 0 8.15367 2 9.05837 2 9.05837 0 9.05837 0 9.05837 2 9.96267 2 9.96267 0 9.96267 0 9.96267 2 10.8665 2 10.8665 0 10.8665 0 10.8665 2 11.77 2 11.77 0 11.77 0 11.77 2 12.6729 2 12.6729 0 12.6729 0 12.6729 2 13.5753 2 13.5753 0 13.5753 0 13.5753 2 14.4772 2 14.4772 0 14.4772 0 14.4772 2 15.3785 2 15.3785 0 15.3785 0 15.3785 2 16.2792 2 16.2792 0 16.2792 0 16.2792 2 17.1793 2 17.1793 0 17.1793 0 17.1793 2 18.0787 2 18.0787 0 18.0787 0 18.0787 2 18.9775 2 18.9775 0 18.9775 0 18.9775 2 19.8756 2 19.8756 0 19.8756 0 19.8756 2 20.7731 2 20.7731 0 20.7731 0 20.7731 2 21.6698 2 21.6698 0 21.6698 0 21.6698 2 22.5659 2 22.5659 0 22.5659 0 22.5659 2 23.4612 2 23.4612 0 23.4612 0 23.4612 2 24.3559 2 24.3559 0 24.3559 0 24.3559 2 25.2498 2 25.2498 0 25.2498 0 25.2498 2 26.143 2 26.143 0 26.143 0 26.143 2 27.0355 2 27.0355 0 27.0355 0 27.0355 2 27.9273 2 27.9273 0 27.9273 0 27.9273 2 28.8184 2 28.8184 0 28.8184 0 28.8184 2 29.7089 2 29.7089 0 29.7089 0 29.7089 2 30.5986 2 30.5986 0 30.5986 0 30.5986 2 31.4878 2 31.4878 0 31.4878 0 31.4878 2 32.3762 2 32.3762 0 32.3762 0 32.3762 2 33.2641 2 33.2641 0 33.2641 0 33.2641 2 34.1514 2 34.1514 0 34.1514 0 34.1514 2 35.0381 2 35.0381 0 35.0381 0 35.0381 2 35.9243 2 35.9243 0 35.9243 0 35.9243 2 36.81 2 36.81 0 36.81 0 36.81 2 37.6952 2 37.6952 0 37.6952 0 37.6952 2 38.58 2 38.58 0 38.58 0 38.58 2 39.4643 2 39.4643 0 39.4643 0 39.4643 2 40.3483 2 40.3483 0 40.3483 0 40.3483 2 41.2319 2 41.2319 0 41.2319 0 41.2319 2 42.1153 2 42.1153 0 42.1153 0 42.1153 2 42.9983 2 42.9983 0 42.9983 0 42.9983 2 43.8812 2 43.8812 0 43.8812 0 43.8812 2 44.7638 2 44.7638 0 44.7638 0 44.7638 2 45.6464 2 45.6464 0 45.6464 0 45.6464 2 46.5288 2 46.5288 0 46.5288 0 46.5288 2 47.4111 2 47.4111 0 47.4111 0 47.4111 2 48.2935 2 48.2935 0 48.2935 0 48.2935 2 49.1759 2 49.1759 0 49.1759 0 49.1759 2 50.0583 2 50.0583 0 50.0583 0 50.0583 2 50.9409 2 50.9409 0 50.9409 0 50.9409 2 51.8236 2 51.8236 0 51.8236 0 51.8236 2 52.7065 2 52.7065 0 52.7065 0 52.7065 2 53.5897 2 53.5897 0 53.5897 0 53.5897 2 54.4731 2 54.4731 0 54.4731 0 54.4731 2 55.3569 2 55.3569 0 55.3569 0 55.3569 2 56.241 2 56.241 0 56.241 0 56.241 2 57.1254 2 57.1254 0 57.1254 0 57.1254 2 58.0103 2 58.0103 0 58.0103 0 58.0103 2 58.8957 2 58.8957 0 58.8957 0 58.8957 2 59.7815 2 59.7815 0 59.7815 0 59.7815 2 60.6679 2 60.6679 0 60.6679 0 60.6679 2 61.5548 2 61.5548 0 61.5548 0 61.5548 2 62.4423 2 62.4423 0 62.4423 0 62.4423 2 63.3304 2 63.3304 0 63.3304 0 63.3304 2 64.2191 2 64.2191 0 64.2191 0 64.2191 2 65.1084 2 65.1084 0 65.1084 0 65.1084 2 65.9984 2 65.9984 0 65.9984 0 65.9984 2 66.8891 2 66.8891 0 66.8891 0 66.8891 2 67.7804 2 67.7804 0 67.7804 0 67.7804 2 68.6725 2 68.6725 0 68.6725 0 68.6725 2 69.5652 2 69.5652 0 69.5652 0 69.5652 2 70.4586 2 70.4586 0 70.4586 0 70.4586 2 71.3528 2 71.3528 0 71.3528 0 71.3528 2 72.2477 2 72.2477 0 72.2477 0 72.2477 2 73.1432 2 73.1432 0 73.1432 0 73.1432 2 74.0395 2 74.0395 0 74.0395 0 74.0395 2 74.9365 2 74.9365 0 74.9365 0 74.9365 2 75.8342 2 75.8342 0 75.8342 0 75.8342 2 76.7325 2 76.7325 0 76.7325 0 76.7325 2 77.6316 2 77.6316 0 77.6316 0 77.6316 2 78.5312 2 78.5312 0 78.5312 0 78.5312 2 79.4315 2 79.4315 0 79.4315 0 79.4315 2 80.3324 2 80.3324 0 80.3324 0 80.3324 2 81.2339 2 81.2339 0 81.2339 0 81.2339 2 82.136 2 82.136 0 82.136 0 82.136 2 83.0386 2 83.0386 0 83.0386 0 83.0386 2 83.9417 2 83.9417 0 83.9417 0 83.9417 2 84.8452 2 84.8452 0 84.8452 0 84.8452 2 85.7493 2 85.7493 0 85.7493 0 85.7493 2 86.6537 2 86.6537 0 86.6537 0 86.6537 2 87.5585 2 87.5585 0 87.5585 0 87.5585 2 88.4637 2 88.4637 0 88.4637 0 88.4637 2 89.3691 2 89.3691 0 89.3691 0 89.3691 2 90.2749 2 90.2749 0 90.2749 0 90.2749 2 91.1808 2 91.1808 0 91.1808 0 91.1808 2 92.087 2 92.087 0 92.087 0 92.087 2 92.9933 2 92.9933 0 92.9933 0 92.9933 2 93.8997 2 93.8997 0 93.8997 0 93.8997 2 94.8062 2 94.8062 0 94.8062 0 94.8062 2 95.7127 2 95.7127 0 95.7127 0 95.7127 2 96.6192 2 96.6192 0 96.6192 0 96.6192 2 97.5256 2 97.5256 0 97.5256 0 97.5256 2 98.432 2 98.432 0 98.432 0 98.432 2 99.3382 2 99.3382 0 99.3382 0 99.3382 2 100.244 2 100.244 0 100.244 0 100.244 2 101.15 2 101.15 0 101.15 0 101.15 2 102.056 2 102.056 0 102.056 0 102.056 2 102.961 2 102.961 0 102.961 0 102.961 2 103.866 2 103.866 0 103.866 0 103.866 2 104.77 2 104.77 0 104.77 0 104.77 2 105.675 2 105.675 0 105.675 0 105.675 2 106.578 2 106.578 0 106.578 0 106.578 2 107.482 2 107.482 0 107.482 0 107.482 2 108.384 2 108.384 0 108.384 0 108.384 2 109.287 2 109.287 0 109.287 0 109.287 2 110.188 2 110.188 0 110.188 0 110.188 2 111.089 2 111.089 0 111.089 0 111.089 2 111.99 2 111.99 0 111.99 0 111.99 2 112.89 2 112.89 0 112.89 0 112.89 2 113.789 2 113.789 0 113.789 0 113.789 2 114.687 2 114.687 0 114.687 0 114.687 2 115.585 2 115.585 0 115.585 0 115.585 2 116.483 2 116.483 0 116.483 0 116.483 2 117.379 2 117.379 0 117.379 0 117.379 2 118.275 2 118.275 0 118.275 0 118.275 2 119.17 2 119.17 0 119.17 0 119.17 2 120.064 2 120.064 0 120.064 0 120.064 2 120.958 2 120.958 0 120.958 0 120.958 2 121.851 2 121.851 0 121.851 0 121.851 2 122.743 2 122.743 0 122.743 0 122.743 2 123.635 2 123.635 0 123.635 0 123.635 2 124.526 2 124.526 0 124.526 0 124.526 2 125.416 2 125.416 0 125.416 0 125.416 2 126.306 2 126.306 0 126.306 0 126.306 2 127.195 2 127.195 0 127.195 0 127.195 2 128.083 2 128.083 0 128.083 0 128.083 2 128.97 2 128.97 0 128.97 0 128.97 2 129.858 2 129.858 0 129.858 0 129.858 2 130.744 2 130.744 0 130.744 0 130.744 2 131.63 2 131.63 0 131.63 0 131.63 2 132.516 2 132.516 0 132.516 0 132.516 2 133.401 2 133.401 0 133.401 0 133.401 2 134.285 2 134.285 0 134.285 0 134.285 2 135.17 2 135.17 0 135.17 0 135.17 2 136.053 2 136.053 0 136.053 0 136.053 2 136.937 2 136.937 0 136.937 0 136.937 2 137.82 2 137.82 0 137.82 0 137.82 2 138.703 2 138.703 0 138.703 0 138.703 2 139.586 2 139.586 0 139.586 0 139.586 2 140.469 2 140.469 0 140.469 0 140.469 2 141.351 2 141.351 0 141.351 0 141.351 2 142.233 2 142.233 0 142.233 0 142.233 2 143.116 2 143.116 0</float_array>
          <technique_common><accessor source="#farm_sidewalk_right_uv_array" count="640" stride="2"><param name="S" type="float"/><param name="T" type="float"/></accessor></technique_common>
        </source>
        <vertices id="farm_sidewalk_right_vertices"><input semantic="POSITION" source="#farm_sidewalk_right_positions"/></vertices>
        <triangles material="farm_sidewalk_right_material" count="320">
          <input semantic="VERTEX" source="#farm_sidewalk_right_vertices" offset="0"/>
          <input semantic="NORMAL" source="#farm_sidewalk_right_normals" offset="1"/>
          <input semantic="TEXCOORD" source="#farm_sidewalk_right_uv" offset="2" set="0"/>
          <p>0 0 0 1 1 1 2 2 2 0 0 0 2 2 2 3 3 3 4 4 4 5 5 5 6 6 6 4 4 4 6 6 6 7 7 7 8 8 8 9 9 9 10 10 10 8 8 8 10 10 10 11 11 11 12 12 12 13 13 13 14 14 14 12 12 12 14 14 14 15 15 15 16 16 16 17 17 17 18 18 18 16 16 16 18 18 18 19 19 19 20 20 20 21 21 21 22 22 22 20 20 20 22 22 22 23 23 23 24 24 24 25 25 25 26 26 26 24 24 24 26 26 26 27 27 27 28 28 28 29 29 29 30 30 30 28 28 28 30 30 30 31 31 31 32 32 32 33 33 33 34 34 34 32 32 32 34 34 34 35 35 35 36 36 36 37 37 37 38 38 38 36 36 36 38 38 38 39 39 39 40 40 40 41 41 41 42 42 42 40 40 40 42 42 42 43 43 43 44 44 44 45 45 45 46 46 46 44 44 44 46 46 46 47 47 47 48 48 48 49 49 49 50 50 50 48 48 48 50 50 50 51 51 51 52 52 52 53 53 53 54 54 54 52 52 52 54 54 54 55 55 55 56 56 56 57 57 57 58 58 58 56 56 56 58 58 58 59 59 59 60 60 60 61 61 61 62 62 62 60 60 60 62 62 62 63 63 63 64 64 64 65 65 65 66 66 66 64 64 64 66 66 66 67 67 67 68 68 68 69 69 69 70 70 70 68 68 68 70 70 70 71 71 71 72 72 72 73 73 73 74 74 74 72 72 72 74 74 74 75 75 75 76 76 76 77 77 77 78 78 78 76 76 76 78 78 78 79 79 79 80 80 80 81 81 81 82 82 82 80 80 80 82 82 82 83 83 83 84 84 84 85 85 85 86 86 86 84 84 84 86 86 86 87 87 87 88 88 88 89 89 89 90 90 90 88 88 88 90 90 90 91 91 91 92 92 92 93 93 93 94 94 94 92 92 92 94 94 94 95 95 95 96 96 96 97 97 97 98 98 98 96 96 96 98 98 98 99 99 99 100 100 100 101 101 101 102 102 102 100 100 100 102 102 102 103 103 103 104 104 104 105 105 105 106 106 106 104 104 104 106 106 106 107 107 107 108 108 108 109 109 109 110 110 110 108 108 108 110 110 110 111 111 111 112 112 112 113 113 113 114 114 114 112 112 112 114 114 114 115 115 115 116 116 116 117 117 117 118 118 118 116 116 116 118 118 118 119 119 119 120 120 120 121 121 121 122 122 122 120 120 120 122 122 122 123 123 123 124 124 124 125 125 125 126 126 126 124 124 124 126 126 126 127 127 127 128 128 128 129 129 129 130 130 130 128 128 128 130 130 130 131 131 131 132 132 132 133 133 133 134 134 134 132 132 132 134 134 134 135 135 135 136 136 136 137 137 137 138 138 138 136 136 136 138 138 138 139 139 139 140 140 140 141 141 141 142 142 142 140 140 140 142 142 142 143 143 143 144 144 144 145 145 145 146 146 146 144 144 144 146 146 146 147 147 147 148 148 148 149 149 149 150 150 150 148 148 148 150 150 150 151 151 151 152 152 152 153 153 153 154 154 154 152 152 152 154 154 154 155 155 155 156 156 156 157 157 157 158 158 158 156 156 156 158 158 158 159 159 159 160 160 160 161 161 161 162 162 162 160 160 160 162 162 162 163 163 163 164 164 164 165 165 165 166 166 166 164 164 164 166 166 166 167 167 167 168 168 168 169 169 169 170 170 170 168 168 168 170 170 170 171 171 171 172 172 172 173 173 173 174 174 174 172 172 172 174 174 174 175 175 175 176 176 176 177 177 177 178 178 178 176 176 176 178 178 178 179 179 179 180 180 180 181 181 181 182 182 182 180 180 180 182 182 182 183 183 183 184 184 184 185 185 185 186 186 186 184 184 184 186 186 186 187 187 187 188 188 188 189 189 189 190 190 190 188 188 188 190 190 190 191 191 191 192 192 192 193 193 193 194 194 194 192 192 192 194 194 194 195 195 195 196 196 196 197 197 197 198 198 198 196 196 196 198 198 198 199 199 199 200 200 200 201 201 201 202 202 202 200 200 200 202 202 202 203 203 203 204 204 204 205 205 205 206 206 206 204 204 204 206 206 206 207 207 207 208 208 208 209 209 209 210 210 210 208 208 208 210 210 210 211 211 211 212 212 212 213 213 213 214 214 214 212 212 212 214 214 214 215 215 215 216 216 216 217 217 217 218 218 218 216 216 216 218 218 218 219 219 219 220 220 220 221 221 221 222 222 222 220 220 220 222 222 222 223 223 223 224 224 224 225 225 225 226 226 226 224 224 224 226 226 226 227 227 227 228 228 228 229 229 229 230 230 230 228 228 228 230 230 230 231 231 231 232 232 232 233 233 233 234 234 234 232 232 232 234 234 234 235 235 235 236 236 236 237 237 237 238 238 238 236 236 236 238 238 238 239 239 239 240 240 240 241 241 241 242 242 242 240 240 240 242 242 242 243 243 243 244 244 244 245 245 245 246 246 246 244 244 244 246 246 246 247 247 247 248 248 248 249 249 249 250 250 250 248 248 248 250 250 250 251 251 251 252 252 252 253 253 253 254 254 254 252 252 252 254 254 254 255 255 255 256 256 256 257 257 257 258 258 258 256 256 256 258 258 258 259 259 259 260 260 260 261 261 261 262 262 262 260 260 260 262 262 262 263 263 263 264 264 264 265 265 265 266 266 266 264 264 264 266 266 266 267 267 267 268 268 268 269 269 269 270 270 270 268 268 268 270 270 270 271 271 271 272 272 272 273 273 273 274 274 274 272 272 272 274 274 274 275 275 275 276 276 276 277 277 277 278 278 278 276 276 276 278 278 278 279 279 279 280 280 280 281 281 281 282 282 282 280 280 280 282 282 282 283 283 283 284 284 284 285 285 285 286 286 286 284 284 284 286 286 286 287 287 287 288 288 288 289 289 289 290 290 290 288 288 288 290 290 290 291 291 291 292 292 292 293 293 293 294 294 294 292 292 292 294 294 294 295 295 295 296 296 296 297 297 297 298 298 298 296 296 296 298 298 298 299 299 299 300 300 300 301 301 301 302 302 302 300 300 300 302 302 302 303 303 303 304 304 304 305 305 305 306 306 306 304 304 304 306 306 306 307 307 307 308 308 308 309 309 309 310 310 310 308 308 308 310 310 310 311 311 311 312 312 312 313 313 313 314 314 314 312 312 312 314 314 314 315 315 315 316 316 316 317 317 317 318 318 318 316 316 316 318 318 318 319 319 319 320 320 320 321 321 321 322 322 322 320 320 320 322 322 322 323 323 323 324 324 324 325 325 325 326 326 326 324 324 324 326 326 326 327 327 327 328 328 328 329 329 329 330 330 330 328 328 328 330 330 330 331 331 331 332 332 332 333 333 333 334 334 334 332 332 332 334 334 334 335 335 335 336 336 336 337 337 337 338 338 338 336 336 336 338 338 338 339 339 339 340 340 340 341 341 341 342 342 342 340 340 340 342 342 342 343 343 343 344 344 344 345 345 345 346 346 346 344 344 344 346 346 346 347 347 347 348 348 348 349 349 349 350 350 350 348 348 348 350 350 350 351 351 351 352 352 352 353 353 353 354 354 354 352 352 352 354 354 354 355 355 355 356 356 356 357 357 357 358 358 358 356 356 356 358 358 358 359 359 359 360 360 360 361 361 361 362 362 362 360 360 360 362 362 362 363 363 363 364 364 364 365 365 365 366 366 366 364 364 364 366 366 366 367 367 367 368 368 368 369 369 369 370 370 370 368 368 368 370 370 370 371 371 371 372 372 372 373 373 373 374 374 374 372 372 372 374 374 374 375 375 375 376 376 376 377 377 377 378 378 378 376 376 376 378 378 378 379 379 379 380 380 380 381 381 381 382 382 382 380 380 380 382 382 382 383 383 383 384 384 384 385 385 385 386 386 386 384 384 384 386 386 386 387 387 387 388 388 388 389 389 389 390 390 390 388 388 388 390 390 390 391 391 391 392 392 392 393 393 393 394 394 394 392 392 392 394 394 394 395 395 395 396 396 396 397 397 397 398 398 398 396 396 396 398 398 398 399 399 399 400 400 400 401 401 401 402 402 402 400 400 400 402 402 402 403 403 403 404 404 404 405 405 405 406 406 406 404 404 404 406 406 406 407 407 407 408 408 408 409 409 409 410 410 410 408 408 408 410 410 410 411 411 411 412 412 412 413 413 413 414 414 414 412 412 412 414 414 414 415 415 415 416 416 416 417 417 417 418 418 418 416 416 416 418 418 418 419 419 419 420 420 420 421 421 421 422 422 422 420 420 420 422 422 422 423 423 423 424 424 424 425 425 425 426 426 426 424 424 424 426 426 426 427 427 427 428 428 428 429 429 429 430 430 430 428 428 428 430 430 430 431 431 431 432 432 432 433 433 433 434 434 434 432 432 432 434 434 434 435 435 435 436 436 436 437 437 437 438 438 438 436 436 436 438 438 438 439 439 439 440 440 440 441 441 441 442 442 442 440 440 440 442 442 442 443 443 443 444 444 444 445 445 445 446 446 446 444 444 444 446 446 446 447 447 447 448 448 448 449 449 449 450 450 450 448 448 448 450 450 450 451 451 451 452 452 452 453 453 453 454 454 454 452 452 452 454 454 454 455 455 455 456 456 456 457 457 457 458 458 458 456 456 456 458 458 458 459 459 459 460 460 460 461 461 461 462 462 462 460 460 460 462 462 462 463 463 463 464 464 464 465 465 465 466 466 466 464 464 464 466 466 466 467 467 467 468 468 468 469 469 469 470 470 470 468 468 468 470 470 470 471 471 471 472 472 472 473 473 473 474 474 474 472 472 472 474 474 474 475 475 475 476 476 476 477 477 477 478 478 478 476 476 476 478 478 478 479 479 479 480 480 480 481 481 481 482 482 482 480 480 480 482 482 482 483 483 483 484 484 484 485 485 485 486 486 486 484 484 484 486 486 486 487 487 487 488 488 488 489 489 489 490 490 490 488 488 488 490 490 490 491 491 491 492 492 492 493 493 493 494 494 494 492 492 492 494 494 494 495 495 495 496 496 496 497 497 497 498 498 498 496 496 496 498 498 498 499 499 499 500 500 500 501 501 501 502 502 502 500 500 500 502 502 502 503 503 503 504 504 504 505 505 505 506 506 506 504 504 504 506 506 506 507 507 507 508 508 508 509 509 509 510 510 510 508 508 508 510 510 510 511 511 511 512 512 512 513 513 513 514 514 514 512 512 512 514 514 514 515 515 515 516 516 516 517 517 517 518 518 518 516 516 516 518 518 518 519 519 519 520 520 520 521 521 521 522 522 522 520 520 520 522 522 522 523 523 523 524 524 524 525 525 525 526 526 526 524 524 524 526 526 526 527 527 527 528 528 528 529 529 529 530 530 530 528 528 528 530 530 530 531 531 531 532 532 532 533 533 533 534 534 534 532 532 532 534 534 534 535 535 535 536 536 536 537 537 537 538 538 538 536 536 536 538 538 538 539 539 539 540 540 540 541 541 541 542 542 542 540 540 540 542 542 542 543 543 543 544 544 544 545 545 545 546 546 546 544 544 544 546 546 546 547 547 547 548 548 548 549 549 549 550 550 550 548 548 548 550 550 550 551 551 551 552 552 552 553 553 553 554 554 554 552 552 552 554 554 554 555 555 555 556 556 556 557 557 557 558 558 558 556 556 556 558 558 558 559 559 559 560 560 560 561 561 561 562 562 562 560 560 560 562 562 562 563 563 563 564 564 564 565 565 565 566 566 566 564 564 564 566 566 566 567 567 567 568 568 568 569 569 569 570 570 570 568 568 568 570 570 570 571 571 571 572 572 572 573 573 573 574 574 574 572 572 572 574 574 574 575 575 575 576 576 576 577 577 577 578 578 578 576 576 576 578 578 578 579 579 579 580 580 580 581 581 581 582 582 582 580 580 580 582 582 582 583 583 583 584 584 584 585 585 585 586 586 586 584 584 584 586 586 586 587 587 587 588 588 588 589 589 589 590 590 590 588 588 588 590 590 590 591 591 591 592 592 592 593 593 593 594 594 594 592 592 592 594 594 594 595 595 595 596 596 596 597 597 597 598 598 598 596 596 596 598 598 598 599 599 599 600 600 600 601 601 601 602 602 602 600 600 600 602 602 602 603 603 603 604 604 604 605 605 605 606 606 606 604 604 604 606 606 606 607 607 607 608 608 608 609 609 609 610 610 610 608 608 608 610 610 610 611 611 611 612 612 612 613 613 613 614 614 614 612 612 612 614 614 614 615 615 615 616 616 616 617 617 617 618 618 618 616 616 616 618 618 618 619 619 619 620 620 620 621 621 621 622 622 622 620 620 620 622 622 622 623 623 623 624 624 624 625 625 625 626 626 626 624 624 624 626 626 626 627 627 627 628 628 628 629 629 629 630 630 630 628 628 628 630 630 630 631 631 631 632 632 632 633 633 633 634 634 634 632 632 632 634 634 634 635 635 635 636 636 636 637 637 637 638 638 638 636 636 636 638 638 638 639 639 639</p>
        </triangles>
      </mesh>
    </geometry>
  </library_geometries>
  <library_visual_scenes>
    <visual_scene id="farm_sidewalk_right_scene">
      <node id="farm_sidewalk_right_node">
        <instance_geometry url="#farm_sidewalk_right_geometry">
          <bind_material><technique_common>
            <instance_material symbol="farm_sidewalk_right_material" target="#farm_sidewalk_right_material"><bind_vertex_input semantic="UVSET0" input_semantic="TEXCOORD" input_set="0"/></instance_material>
          </technique_common></bind_material>
        </instance_geometry>
      </node>
    </visual_scene>
  </library_visual_scenes>
  <scene><instance_visual_scene url="#farm_sidewalk_right_scene"/></scene>
</COLLADA>
