<?xml version="1.0" encoding="utf-8"?>
<COLLADA xmlns="http://www.collada.org/2005/11/COLLADASchema" version="1.4.1">
  <asset><unit name="meter" meter="1"/><up_axis>Z_UP</up_axis></asset>
  <library_images><image id="farm_sidewalk_image"><init_from>textures/sidewalk_tile.jpg</init_from></image></library_images>
  <library_effects>
    <effect id="farm_sidewalk_effect">
      <profile_COMMON>
        <newparam sid="farm_sidewalk_surface"><surface type="2D"><init_from>farm_sidewalk_image</init_from></surface></newparam><newparam sid="farm_sidewalk_sampler"><sampler2D><source>farm_sidewalk_surface</source><wrap_s>WRAP</wrap_s><wrap_t>WRAP</wrap_t></sampler2D></newparam>
        <technique sid="common"><lambert><diffuse><texture texture="farm_sidewalk_sampler" texcoord="UVSET0"/></diffuse></lambert></technique>
      </profile_COMMON>
    </effect>
  </library_effects>
  <library_materials>
    <material id="farm_sidewalk_material"><instance_effect url="#farm_sidewalk_effect"/></material>
  </library_materials>
  <library_geometries>
    <geometry id="farm_sidewalk_geometry">
      <mesh>
        <source id="farm_sidewalk_positions">
          <float_array id="farm_sidewalk_positions_array" count="1920">-2.78379 -59.3442 0.13 -4.43849 -58.9544 0.13 -4.2618 -58.2044 0.13 -2.6071 -58.5942 0.13 -2.60723 -58.5947 0.13 -4.26201 -58.2052 0.13 -4.08547 -57.4552 0.13 -2.43069 -57.8447 0.13 -2.43095 -57.8458 0.13 -4.08588 -57.4569 0.13 -3.90965 -56.7069 0.13 -2.25472 -57.0958 0.13 -2.2551 -57.0974 0.13 -3.91025 -56.7095 0.13 -3.73448 -55.9595 0.13 -2.07933 -56.3474 0.13 -2.07983 -56.3496 0.13 -3.73528 -55.9629 0.13 -3.56013 -55.2129 0.13 -1.90467 -55.5996 0.13 -1.9053 -55.6023 0.13 -3.56112 -55.2172 0.13 -3.38673 -54.4672 0.13 -1.7309 -54.8523 0.13 -1.73165 -54.8555 0.13 -3.38792 -54.4724 0.13 -3.21444 -53.7224 0.13 -1.55817 -54.1055 0.13 -1.55904 -54.1092 0.13 -3.21582 -53.7284 0.13 -3.04341 -52.9784 0.13 -1.38662 -53.3592 0.13 -1.38761 -53.3635 0.13 -3.04498 -52.9852 0.13 -2.87378 -52.2352 0.13 -1.21641 -52.6135 0.13 -1.2175 -52.6184 0.13 -2.87552 -52.2429 0.13 -2.70569 -51.4929 0.13 -1.04767 -51.8684 0.13 -1.04887 -51.8737 0.13 -2.70761 -51.5014 0.13 -2.53929 -50.7514 0.13 -0.880548 -51.1237 0.13 -0.88186 -51.1296 0.13 -2.54138 -50.7608 0.13 -2.37471 -50.0108 0.13 -0.715191 -50.3796 0.13 -0.716604 -50.386 0.13 -2.37696 -50.021 0.13 -2.21209 -49.271 0.13 -0.551737 -49.636 0.13 -0.553248 -49.6429 0.13 -2.2145 -49.282 0.13 -2.05158 -48.532 0.13 -0.390324 -48.8929 0.13 -0.391928 -48.9003 0.13 -2.05414 -48.5438 0.13 -1.8933 -47.7938 0.13 -0.23109 -48.1503 0.13 -0.232781 -48.1582 0.13 -1.89599 -47.8065 0.13 -1.73738 -47.0565 0.13 -0.0741684 -47.4082 0.13 -0.0759412 -47.4167 0.13 -1.74021 -47.07 0.13 -1.58396 -46.32 0.13 0.0803085 -46.6667 0.13 0.0784594 -46.6756 0.13 -1.58691 -46.3342 0.13 -1.43316 -45.5842 0.13 0.232211 -45.9256 0.13 0.230291 -45.9351 0.13 -1.43622 -45.5993 0.13 -1.2851 -44.8493 0.13 0.381411 -45.1851 0.13 0.379428 -45.195 0.13 -1.28826 -44.8651 0.13 -1.1399 -44.1151 0.13 0.527785 -44.445 0.13 0.525744 -44.4554 0.13 -1.14316 -44.1317 0.13 -0.997689 -43.3817 0.13 0.67121 -43.7054 0.13 0.669118 -43.7163 0.13 -1.00102 -43.3991 0.13 -0.858576 -42.6491 0.13 0.811566 -42.9663 0.13 0.80943 -42.9777 0.13 -0.861982 -42.6673 0.13 -0.722675 -41.9173 0.13 0.948738 -42.2277 0.13 0.946565 -42.2395 0.13 -0.726139 -41.9361 0.13 -0.590093 -41.1861 0.13 1.08261 -41.4895 0.13 1.08041 -41.5018 0.13 -0.593604 -41.2057 0.13 -0.460939 -40.4557 0.13 1.21307 -40.7518 0.13 1.21085 -40.7646 0.13 -0.464485 -40.476 0.13 -0.335314 -39.726 0.13 1.34002 -40.0146 0.13 1.33778 -40.0278 0.13 -0.338883 -39.7471 0.13 -0.21332 -38.9971 0.13 1.46335 -39.2778 0.13 1.4611 -39.2914 0.13 -0.216899 -39.0188 0.13 -0.0950516 -38.2688 0.13 1.58295 -38.5414 0.13 1.5807 -38.5554 0.13 -0.0986291 -38.2911 0.13 0.0193967 -37.5411 0.13 1.69873 -37.8054 0.13 1.69649 -37.8198 0.13 0.0158334 -37.5642 0.13 0.129935 -36.8142 0.13 1.8106 -37.0698 0.13 1.80838 -37.0847 0.13 0.126399 -36.8378 0.13 0.236478 -36.0878 0.13 1.91846 -36.3347 0.13 1.91626 -36.3499 0.13 0.232981 -36.1121 0.13 0.338941 -35.3621 0.13 2.02222 -35.5999 0.13 2.02006 -35.6155 0.13 0.335496 -35.387 0.13 0.437246 -34.637 0.13 2.12181 -34.8655 0.13 2.11969 -34.8815 0.13 0.433865 -34.6624 0.13 0.531316 -33.9124 0.13 2.21714 -34.1315 0.13 2.21507 -34.1478 0.13 0.528012 -33.9385 0.13 0.62108 -33.1885 0.13 2.30814 -33.3978 0.13 2.30612 -33.4145 0.13 0.617864 -33.215 0.13 0.706468 -32.465 0.13 2.39473 -32.6645 0.13 2.39277 -32.6814 0.13 0.703353 -32.4921 0.13 0.787416 -31.7421 0.13 2.47684 -31.9314 0.13 2.47495 -31.9487 0.13 0.784412 -31.7696 0.13 0.863862 -31.0196 0.13 2.5544 -31.1987 0.13 2.5526 -31.2163 0.13 0.860981 -31.0477 0.13 0.935748 -30.2977 0.13 2.62736 -30.4663 0.13 2.62564 -30.4841 0.13 0.933001 -30.3261 0.13 1.00302 -29.5761 0.13 2.69566 -29.7341 0.13 2.69403 -29.7523 0.13 1.00042 -29.605 0.13 1.06563 -28.855 0.13 2.75924 -29.0023 0.13 2.7577 -29.0206 0.13 1.06318 -28.8843 0.13 1.12353 -28.1343 0.13 2.81805 -28.2706 0.13 2.81662 -28.2892 0.13 1.12124 -28.1639 0.13 1.17667 -27.4139 0.13 2.87205 -27.5392 0.13 2.87072 -27.558 0.13 1.17455 -27.4439 0.13 1.22502 -26.6939 0.13 2.92118 -26.808 0.13 2.91997 -26.827 0.13 1.22308 -26.7241 0.13 1.26854 -25.9741 0.13 2.96543 -26.077 0.13 2.96433 -26.0961 0.13 1.26679 -26.0047 0.13 1.3072 -25.2547 0.13 3.00474 -25.3461 0.13 3.00376 -25.3654 0.13 1.30564 -25.2855 0.13 1.34097 -24.5355 0.13 3.03909 -24.6154 0.13 3.03824 -24.6349 0.13 1.33961 -24.5665 0.13 1.36982 -23.8165 0.13 3.06845 -23.8849 0.13 3.06773 -23.9045 0.13 1.36868 -23.8477 0.13 1.39375 -23.0977 0.13 3.0928 -23.1545 0.13 3.09221 -23.1741 0.13 1.39281 -23.129 0.13 1.41271 -22.379 0.13 3.11212 -22.4241 0.13 3.11166 -22.4438 0.13 1.41199 -22.4105 0.13 1.42672 -21.6605 0.13 3.12639 -21.6938 0.13 3.12607 -21.7136 0.13 1.42621 -21.692 0.13 1.43574 -20.942 0.13 3.13561 -20.9636 0.13 3.13542 -20.9835 0.13 1.43545 -20.9736 0.13 1.43979 -20.2236 0.13 3.13976 -20.2335 0.13 3.13971 -20.2533 0.13 1.43971 -20.2553 0.13 1.43885 -19.5053 0.13 3.13885 -19.5033 0.13 3.13894 -19.5231 0.13 1.43899 -19.5369 0.13 1.43292 -18.7869 0.13 3.13287 -18.7731 0.13 3.1331 -18.793 0.13 1.43329 -18.8185 0.13 1.42202 -18.0685 0.13 3.12183 -18.043 0.13 3.12219 -18.0627 0.13 1.4226 -18.1 0.13 1.40614 -17.35 0.13 3.10574 -17.3127 0.13 3.10624 -17.3325 0.13 1.40694 -17.3815 0.13 1.38531 -16.6315 0.13 3.0846 -16.5825 0.13 3.08524 -16.6021 0.13 1.38632 -16.6628 0.13 1.35954 -15.9128 0.13 3.05845 -15.8521 0.13 3.05922 -15.8716 0.13 1.36075 -15.9439 0.13 1.32884 -15.1939 0.13 3.0273 -15.1216 0.13 3.02819 -15.141 0.13 1.33026 -15.2248 0.13 1.29323 -14.4748 0.13 2.99117 -14.391 0.13 2.99218 -14.4103 0.13 1.29485 -14.5055 0.13 1.25276 -13.7555 0.13 2.95009 -13.6603 0.13 2.95122 -13.6794 0.13 1.25457 -13.786 0.13 1.20744 -13.036 0.13 2.90409 -12.9294 0.13 2.90535 -12.9483 0.13 1.20944 -13.0662 0.13 1.15731 -12.3162 0.13 2.85322 -12.1983 0.13 2.85458 -12.217 0.13 1.15949 -12.346 0.13 1.10241 -11.596 0.13 2.79751 -11.467 0.13 2.79898 -11.4855 0.13 1.10475 -11.6255 0.13 1.04278 -10.8755 0.13 2.737 -10.7355 0.13 2.73857 -10.7538 0.13 1.04528 -10.9047 0.13 0.97846 -10.1547 0.13 2.67175 -10.0038 0.13 2.67342 -10.0218 0.13 0.981113 -10.1834 0.13 0.909503 -9.43341 0.13 2.60181 -9.27183 0.13 2.60356 -9.2896 0.13 0.912296 -9.46174 0.13 0.835961 -8.71174 0.13 2.52722 -8.5396 0.13 2.52906 -8.55708 0.13 0.838884 -8.73961 0.13 0.757888 -7.98961 0.13 2.44806 -7.80708 0.13 2.44997 -7.82426 0.13 0.760931 -8.017 0.13 0.675345 -7.267 0.13 2.36438 -7.07426 0.13 2.36636 -7.09113 0.13 0.678496 -7.2939 0.13 0.588395 -6.5439 0.13 2.27626 -6.34113 0.13 2.27829 -6.35768 0.13 0.591642 -6.57028 0.13 0.497103 -5.82028 0.13 2.18376 -5.60768 0.13 2.18585 -5.62388 0.13 0.500435 -5.84611 0.13 0.401541 -5.09611 0.13 2.08695 -4.87388 0.13 2.08909 -4.88973 0.13 0.404944 -5.12138 0.13 0.301781 -4.37138 0.13 1.98592 -4.13973 0.13 1.9881 -4.15521 0.13 0.305245 -4.39607 0.13 0.197901 -3.64607 0.13 1.88075 -3.40521 0.13 1.88295 -3.42031 0.13 0.201413 -3.67014 0.13 0.0899821 -2.92014 0.13 1.77152 -2.67031 0.13 1.77375 -2.68502 0.13 0.0935289 -2.94359 0.13 -0.0218921 -2.19359 0.13 1.65833 -1.93502 0.13 1.66057 -1.94932 0.13 -0.0183227 -2.2164 0.13 -0.137634 -1.4664 0.13 1.54125 -1.19932 0.13 1.5435 -1.21322 0.13 -0.134054 -1.48855 0.13 -0.257152 -0.738554 0.13 1.4204 -0.463216 0.13 1.42265 -0.476684 0.13 -0.253575 -0.760028 0.13 -0.380353 -0.0100284 0.13 1.29587 0.273316 0.13 1.2981 0.260281 0.13 -0.376791 -0.0308114 0.13 -0.507139 0.719189 0.13 1.16775 1.01028 0.13 1.16997 0.997688 0.13 -0.503603 0.699111 0.13 -0.637408 1.44911 0.13 1.03617 1.74769 0.13 1.03836 1.73555 0.13 -0.633911 1.42975 0.13 -0.771057 2.17975 0.13 0.901214 2.48555 0.13 0.903375 2.47387 0.13 -0.767612 2.16113 0.13 -0.907979 2.91113 0.13 0.763007 3.22387 0.13 0.765129 3.21265 0.13 -0.904596 2.89325 0.13 -1.04806 3.64325 0.13 0.621661 3.96265 0.13 0.623737 3.95191 0.13 -1.04475 3.62612 0.13 -1.1912 4.37612 0.13 0.477293 4.70191 0.13 0.479316 4.69165 0.13 -1.18797 4.35977 0.13 -1.33727 5.10977 0.13 0.330023 5.44165 0.13 0.331986 5.43188 0.13 -1.33414 5.09419 0.13 -1.48615 5.84419 0.13 0.179974 6.18188 0.13 0.181871 6.1726 0.13 -1.48312 5.82939 0.13 -1.63772 6.57939 0.13 0.0272716 6.9226 0.13 0.0290959 6.91382 0.13 -1.63481 6.56539 0.13 -1.79187 7.31539 0.13 -0.127957 7.66382 0.13 -0.126211 7.65554 0.13 -1.78908 7.3022 0.13 -1.94845 8.0522 0.13 -0.28558 8.40554 0.13 -0.283918 8.39777 0.13 -1.9458 8.03981 0.13 -2.10735 8.78981 0.13 -0.445466 9.14777 0.13 -0.443893 9.14052 0.13 -2.10484 8.77824 0.13 -2.26843 9.52824 0.13 -0.60748 9.89052 0.13 -0.606002 9.88378 0.13 -2.26607 9.51749 0.13 -2.43156 10.2675 0.13 -0.771485 10.6338 0.13 -0.770105 10.6276 0.13 -2.42936 10.2576 0.13 -2.59659 11.0076 0.13 -0.937343 11.3776 0.13 -0.936066 11.3719 0.13 -2.59456 10.9985 0.13 -2.7634 11.7485 0.13 -1.10491 12.1219 0.13 -1.10374 12.1167 0.13 -2.76154 11.7402 0.13 -2.93185 12.4902 0.13 -1.27405 12.8667 0.13 -1.27299 12.862 0.13 -2.93016 12.4828 0.13 -3.10178 13.2328 0.13 -1.44461 13.612 0.13 -1.44367 13.6079 0.13 -3.10027 13.2263 0.13 -3.27306 13.9763 0.13 -1.61645 14.3579 0.13 -1.61563 14.3543 0.13 -3.27174 13.9706 0.13 -3.44554 14.7206 0.13 -1.78943 15.1043 0.13 -1.78872 15.1013 0.13 -3.44441 14.7157 0.13 -3.61908 15.4657 0.13 -1.96339 15.8513 0.13 -1.9628 15.8488 0.13 -3.61814 15.4617 0.13 -3.79352 16.2117 0.13 -2.13818 16.5988 0.13 -2.13772 16.5968 0.13 -3.79279 16.2086 0.13 -3.96873 16.9586 0.13 -2.31366 17.3468 0.13 -2.31332 17.3454 0.13 -3.96819 16.9563 0.13 -4.14454 17.7063 0.13 -2.48967 18.0954 0.13 -2.48946 18.0945 0.13 -4.1442 17.7048 0.13 -4.3208 18.4548 0.13 -2.66606 18.8445 0.13 -2.66598 18.8441 0.13 -4.32067 18.4543 0.13 -4.49738 19.2043 0.13 -2.84268 19.5941 0.13 -2.84272 19.5943 0.13 -4.49744 19.2045 0.13 -4.6741 19.9545 0.13 -3.01938 20.3443 0.13 -3.01955 20.345 0.13 -4.67437 19.9557 0.13 -4.85082 20.7057 0.13 -3.196 21.095 0.13 -3.19629 21.0963 0.13 -4.85129 20.7077 0.13 -5.02738 21.4577 0.13 -3.37239 21.8463 0.13 -3.37281 21.8481 0.13 -5.02805 21.4606 0.13 -5.20364 22.2106 0.13 -3.54839 22.5981 0.13 -3.54894 22.6004 0.13 -5.20451 22.2143 0.13 -5.37943 22.9643 0.13 -3.72386 23.3504 0.13 -3.72453 23.3533 0.13 -5.38049 22.9689 0.13 -5.5546 23.7189 0.13 -3.89863 24.1033 0.13 -3.89942 24.1067 0.13 -5.55585 23.7243 0.13 -5.72899 24.4743 0.13 -4.07256 24.8567 0.13 -4.07347 24.8606 0.13 -5.73044 24.4806 0.13 -5.90247 25.2306 0.13 -4.24549 25.6106 0.13 -4.24651 25.6151 0.13 -5.90409 25.2377 0.13 -6.07485 25.9877 0.13 -4.41728 26.3651 0.13 -4.41841 26.3701 0.13 -6.07666 25.9956 0.13 -6.24601 26.7456 0.13 -4.58776 27.1201 0.13 -4.589 27.1256 0.13 -6.24799 26.7544 0.13 -6.41578 27.5044 0.13 -4.75679 27.8756 0.13 -4.75813 27.8816 0.13 -6.41792 27.5141 0.13 -6.58401 28.2641 0.13 -4.92422 28.6316 0.13 -4.92567 28.6382 0.13 -6.58632 28.2746 0.13 -6.75055 29.0246 0.13 -5.0899 29.3882 0.13 -5.09144 29.3953 0.13 -6.75301 29.0359 0.13 -6.91525 29.7859 0.13 -5.25369 30.1453 0.13 -5.25532 30.1529 0.13 -6.91786 29.798 0.13 -7.07797 30.548 0.13 -5.41543 30.9029 0.13 -5.41715 30.911 0.13 -7.08071 30.5609 0.13 -7.23855 31.3109 0.13 -5.57499 31.661 0.13 -5.57679 31.6696 0.13 -7.24142 31.3246 0.13 -7.39685 32.0746 0.13 -5.73222 32.4196 0.13 -5.73409 32.4287 0.13 -7.39983 32.0892 0.13 -7.55272 32.8392 0.13 -5.88698 33.1787 0.13 -5.88892 33.1883 0.13 -7.55582 32.8545 0.13 -7.70603 33.6045 0.13 -6.03914 33.9383 0.13 -6.04114 33.9484 0.13 -7.70923 33.6206 0.13 -7.85663 34.3706 0.13 -6.18855 34.6984 0.13 -6.19061 34.709 0.13 -7.85992 34.3875 0.13 -8.00439 35.1375 0.13 -6.33508 35.459 0.13 -6.33719 35.4701 0.13 -8.00775 35.1551 0.13 -8.14917 35.9051 0.13 -6.4786 36.2201 0.13 -6.48075 36.2316 0.13 -8.15259 35.9235 0.13 -8.29083 36.6735 0.13 -6.61899 36.9816 0.13 -6.62117 36.9936 0.13 -8.29431 36.6926 0.13 -8.42924 37.4426 0.13 -6.7561 37.7436 0.13 -6.75831 37.756 0.13 -8.43276 37.4624 0.13 -8.56428 38.2124 0.13 -6.88982 38.506 0.13 -6.89205 38.5189 0.13 -8.56783 38.233 0.13 -8.69581 38.983 0.13 -7.02003 39.2689 0.13 -7.02228 39.2822 0.13 -8.69938 39.0042 0.13 -8.82372 39.7542 0.13 -7.14661 40.0322 0.13 -7.14886 40.046 0.13 -8.8273 39.7761 0.13 -8.94789 40.5261 0.13 -7.26944 40.796 0.13 -7.27168 40.8102 0.13 -8.95146 40.5487 0.13 -9.06819 41.2987 0.13 -7.38841 41.5602 0.13 -7.39064 41.5747 0.13 -9.07175 41.322 0.13 -9.18452 42.072 0.13 -7.50341 42.3247 0.13 -7.50563 42.3397 0.13 -9.18804 42.0958 0.13 -9.29676 42.8458 0.13 -7.61434 43.0897 0.13 -7.61653 43.1051 0.13 -9.30024 42.8703 0.13 -9.40481 43.6203 0.13 -7.72109 43.8551 0.13 -7.72324 43.8708 0.13 -9.40823 43.6454 0.13 -9.50856 44.3954 0.13 -7.82357 44.6208 0.13 -7.82567 44.6369 0.13 -9.51192 44.421 0.13 -9.60791 45.171 0.13 -7.92167 45.3869 0.13 -7.92373 45.4033 0.13 -9.61119 45.1972 0.13 -9.70278 45.9472 0.13 -8.01532 46.1533 0.13 -8.01731 46.1701 0.13 -9.70596 45.974 0.13 -9.79306 46.724 0.13 -8.10441 46.9201 0.13 -8.10634 46.9372 0.13 -9.79614 46.7512 0.13 -9.87868 47.5012 0.13 -8.18888 47.6872 0.13 -8.19074 47.7045 0.13 -9.88164 47.5289 0.13 -9.95954 48.2789 0.13 -8.26863 48.4545 0.13 -8.27041 48.4722 0.13 -9.96238 48.3071 0.13 -10.0356 49.0571 0.13 -8.34361 49.2222 0.13 -8.3453 49.2402 0.13 -10.0383 49.0857 0.13 -10.1067 49.8357 0.13 -8.41372 49.9902 0.13 -8.41532 50.0084 0.13 -10.1092 49.8647 0.13 -10.1728 50.6147 0.13 -8.47892 50.7584 0.13 -8.48042 50.7768 0.13 -10.1752 50.6441 0.13 -10.234 51.3941 0.13 -8.53914 51.5268 0.13 -8.54054 51.5454 0.13 -10.2362 51.4239 0.13 -10.29 52.1739 0.13 -8.59432 52.2954 0.13 -8.59561 52.3143 0.13 -10.292 52.2039 0.13 -10.3408 52.9539 0.13 -8.64441 53.0643 0.13 -8.64558 53.0833 0.13 -10.3427 52.9843 0.13 -10.3865 53.7343 0.13 -8.68936 53.8333 0.13 -8.69042 53.8526 0.13 -10.3882 53.7649 0.13 -10.4269 54.5149 0.13 -8.72913 54.6026 0.13 -8.73007 54.6219 0.13 -10.4284 54.5458 0.13 -10.462 55.2958 0.13 -8.76369 55.3719 0.13 -8.7645 55.3914 0.13 -10.4633 55.3268 0.13 -10.4918 56.0768 0.13 -8.793 56.1414 0.13 -8.79367 56.161 0.13 -10.4929 56.1081 0.13 -10.5162 56.8581 0.13 -8.81703 56.911 0.13 -8.81757 56.9307 0.13 -10.5171 56.8895 0.13 -10.5353 57.6395 0.13 -8.83575 57.6807 0.13 -8.83616 57.7004 0.13 -10.5359 57.671 0.13 -10.5489 58.421 0.13 -8.84916 58.4504 0.13 -8.84944 58.4702 0.13 -10.5493 58.4526 0.13 -10.5572 59.2026 0.13 -8.85724 59.2202 0.13 -8.85738 59.2401 0.13 -10.5574 59.2342 0.13 -10.56 59.9842 0.13 -8.85998 59.9901 0.13</float_array>
          <technique_common><accessor source="#farm_sidewalk_positions_array" count="640" stride="3"><param name="X" type="float"/><param name="Y" type="float"/><param name="Z" type="float"/></accessor></technique_common>
        </source>
        <source id="farm_sidewalk_normals">
          <float_array id="farm_sidewalk_normals_array" count="1920">0 0 1 0 0 1 0 0 1 0 0 1 0 0 1 0 0 1 0 0 1 0 0 1 0 0 1 0 0 1 0 0 1 0 0 1 0 0 1 0 0 1 0 0 1 0 0 1 0 0 1 0 0 1 0 0 1 0 0 1 0 0 1 0 0 1 0 0 1 0 0 1 0 0 1 0 0 1 0 0 1 0 0 1 0 0 1 0 0 1 0 0 1 0 0 1 0 0 1 0 0 1 0 0 1 0 0 1 0 0 1 0 0 1 0 0 1 0 0 1 0 0 1 0 0 1 0 0 1 0 0 1 0 0 1 0 0 1 0 0 1 0 0 1 0 0 1 0 0 1 0 0 1 0 0 1 0 0 1 0 0 1 0 0 1 0 0 1 0 0 1 0 0 1 0 0 1 0 0 1 0 0 1 0 0 1 0 0 1 0 0 1 0 0 1 0 0 1 0 0 1 0 0 1 0 0 1 0 0 1 0 0 1 0 0 1 0 0 1 0 0 1 0 0 1 0 0 1 0 0 1 0 0 1 0 0 1 0 0 1 0 0 1 0 0 1 0 0 1 0 0 1 0 0 1 0 0 1 0 0 1 0 0 1 0 0 1 0 0 1 0 0 1 0 0 1 0 0 1 0 0 1 0 0 1 0 0 1 0 0 1 0 0 1 0 0 1 0 0 1 0 0 1 0 0 1 0 0 1 0 0 1 0 0 1 0 0 1 0 0 1 0 0 1 0 0 1 0 0 1 0 0 1 0 0 1 0 0 1 0 0 1 0 0 1 0 0 1 0 0 1 0 0 1 0 0 1 0 0 1 0 0 1 0 0 1 0 0 1 0 0 1 0 0 1 0 0 1 0 0 1 0 0 1 0 0 1 0 0 1 0 0 1 0 0 1 0 0 1 0 0 1 0 0 1 0 0 1 0 0 1 0 0 1 0 0 1 0 0 1 0 0 1 0 0 1 0 0 1 0 0 1 0 0 1 0 0 1 0 0 1 0 0 1 0 0 1 0 0 1 0 0 1 0 0 1 0 0 1 0 0 1 0 0 1 0 0 1 0 0 1 0 0 1 0 0 1 0 0 1 0 0 1 0 0 1 0 0 1 0 0 1 0 0 1 0 0 1 0 0 1 0 0 1 0 0 1 0 0 1 0 0 1 0 0 1 0 0 1 0 0 1 0 0 1 0 0 1 0 0 1 0 0 1 0 0 1 0 0 1 0 0 1 0 0 1 0 0 1 0 0 1 0 0 1 0 0 1 0 0 1 0 0 1 0 0 1 0 0 1 0 0 1 0 0 1 0 0 1 0 0 1 0 0 1 0 0 1 0 0 1 0 0 1 0 0 1 0 0 1 0 0 1 0 0 1 0 0 1 0 0 1 0 0 1 0 0 1 0 0 1 0 0 1 0 0 1 0 0 1 0 0 1 0 0 1 0 0 1 0 0 1 0 0 1 0 0 1 0 0 1 0 0 1 0 0 1 0 0 1 0 0 1 0 0 1 0 0 1 0 0 1 0 0 1 0 0 1 0 0 1 0 0 1 0 0 1 0 0 1 0 0 1 0 0 1 0 0 1 0 0 1 0 0 1 0 0 1 0 0 1 0 0 1 0 0 1 0 0 1 0 0 1 0 0 1 0 0 1 0 0 1 0 0 1 0 0 1 0 0 1 0 0 1 0 0 1 0 0 1 0 0 1 0 0 1 0 0 1 0 0 1 0 0 1 0 0 1 0 0 1 0 0 1 0 0 1 0 0 1 0 0 1 0 0 1 0 0 1 0 0 1 0 0 1 0 0 1 0 0 1 0 0 1 0 0 1 0 0 1 0 0 1 0 0 1 0 0 1 0 0 1 0 0 1 0 0 1 0 0 1 0 0 1 0 0 1 0 0 1 0 0 1 0 0 1 0 0 1 0 0 1 0 0 1 0 0 1 0 0 1 0 0 1 0 0 1 0 0 1 0 0 1 0 0 1 0 0 1 0 0 1 0 0 1 0 0 1 0 0 1 0 0 1 0 0 1 0 0 1 0 0 1 0 0 1 0 0 1 0 0 1 0 0 1 0 0 1 0 0 1 0 0 1 0 0 1 0 0 1 0 0 1 0 0 1 0 0 1 0 0 1 0 0 1 0 0 1 0 0 1 0 0 1 0 0 1 0 0 1 0 0 1 0 0 1 0 0 1 0 0 1 0 0 1 0 0 1 0 0 1 0 0 1 0 0 1 0 0 1 0 0 1 0 0 1 0 0 1 0 0 1 0 0 1 0 0 1 0 0 1 0 0 1 0 0 1 0 0 1 0 0 1 0 0 1 0 0 1 0 0 1 0 0 1 0 0 1 0 0 1 0 0 1 0 0 1 0 0 1 0 0 1 0 0 1 0 0 1 0 0 1 0 0 1 0 0 1 0 0 1 0 0 1 0 0 1 0 0 1 0 0 1 0 0 1 0 0 1 0 0 1 0 0 1 0 0 1 0 0 1 0 0 1 0 0 1 0 0 1 0 0 1 0 0 1 0 0 1 0 0 1 0 0 1 0 0 1 0 0 1 0 0 1 0 0 1 0 0 1 0 0 1 0 0 1 0 0 1 0 0 1 0 0 1 0 0 1 0 0 1 0 0 1 0 0 1 0 0 1 0 0 1 0 0 1 0 0 1 0 0 1 0 0 1 0 0 1 0 0 1 0 0 1 0 0 1 0 0 1 0 0 1 0 0 1 0 0 1 0 0 1 0 0 1 0 0 1 0 0 1 0 0 1 0 0 1 0 0 1 0 0 1 0 0 1 0 0 1 0 0 1 0 0 1 0 0 1 0 0 1 0 0 1 0 0 1 0 0 1 0 0 1 0 0 1 0 0 1 0 0 1 0 0 1 0 0 1 0 0 1 0 0 1 0 0 1 0 0 1 0 0 1 0 0 1 0 0 1 0 0 1 0 0 1 0 0 1 0 0 1 0 0 1 0 0 1 0 0 1 0 0 1 0 0 1 0 0 1 0 0 1 0 0 1 0 0 1 0 0 1 0 0 1 0 0 1 0 0 1 0 0 1 0 0 1 0 0 1 0 0 1 0 0 1 0 0 1 0 0 1 0 0 1 0 0 1 0 0 1 0 0 1 0 0 1 0 0 1 0 0 1 0 0 1 0 0 1 0 0 1 0 0 1 0 0 1 0 0 1 0 0 1 0 0 1 0 0 1 0 0 1 0 0 1 0 0 1 0 0 1 0 0 1 0 0 1 0 0 1 0 0 1 0 0 1 0 0 1 0 0 1 0 0 1 0 0 1 0 0 1 0 0 1 0 0 1 0 0 1 0 0 1 0 0 1 0 0 1 0 0 1 0 0 1 0 0 1 0 0 1 0 0 1 0 0 1 0 0 1 0 0 1 0 0 1 0 0 1 0 0 1 0 0 1 0 0 1 0 0 1 0 0 1 0 0 1 0 0 1 0 0 1 0 0 1 0 0 1 0 0 1 0 0 1 0 0 1 0 0 1 0 0 1 0 0 1 0 0 1 0 0 1 0 0 1 0 0 1 0 0 1 0 0 1 0 0 1 0 0 1 0 0 1 0 0 1 0 0 1 0 0 1 0 0 1 0 0 1 0 0 1 0 0 1 0 0 1 0 0 1 0 0 1 0 0 1 0 0 1 0 0 1 0 0 1 0 0 1 0 0 1 0 0 1 0 0 1 0 0 1 0 0 1 0 0 1 0 0 1 0 0 1 0 0 1 0 0 1 0 0 1 0 0 1 0 0 1 0 0 1 0 0 1 0 0 1 0 0 1 0 0 1 0 0 1 0 0 1 0 0 1 0 0 1 0 0 1 0 0 1 0 0 1 0 0 1 0 0 1 0 0 1 0 0 1 0 0 1 0 0 1 0 0 1 0 0 1 0 0 1 0 0 1 0 0 1 0 0 1 0 0 1 0 0 1 0 0 1 0 0 1 0 0 1 0 0 1 0 0 1 0 0 1 0 0 1 0 0 1 0 0 1 0 0 1 0 0 1 0 0 1 0 0 1 0 0 1 0 0 1 0 0 1 0 0 1 0 0 1 0 0 1 0 0 1 0 0 1 0 0 1 0 0 1 0 0 1 0 0 1 0 0 1 0 0 1 0 0 1 0 0 1 0 0 1 0 0 1 0 0 1 0 0 1 0 0 1 0 0 1 0 0 1 0 0 1 0 0 1 0 0 1 0 0 1 0 0 1 0 0 1 0 0 1 0 0 1 0 0 1 0 0 1 0 0 1 0 0 1 0 0 1 0 0 1 0 0 1 0 0 1 0 0 1 0 0 1 0 0 1 0 0 1 0 0 1 0 0 1</float_array>
          <technique_common><accessor source="#farm_sidewalk_normals_array" count="640" stride="3"><param name="X" type="float"/><param name="Y" type="float"/><param name="Z" type="float"/></accessor></technique_common>
        </source>
        <source id="farm_sidewalk_uv">
          <float_array id="farm_sidewalk_uv_array" count="1280">0 0 0 2 0.906508 2 0.906508 0 0.906508 0 0.906508 2 1.81297 2 1.81297 0 1.81297 0 1.81297 2 2.71936 2 2.71936 0 2.71936 0 2.71936 2 3.62562 2 3.62562 0 3.62562 0 3.62562 2 4.53172 2 4.53172 0 4.53172 0 4.53172 2 5.43761 2 5.43761 0 5.43761 0 5.43761 2 6.34326 2 6.34326 0 6.34326 0 6.34326 2 7.24863 2 7.24863 0 7.24863 0 7.24863 2 8.15367 2 8.15367 0 8.15367 0 8.15367 2 9.05837 2 9.05837 0 9.05837 0 9.05837 2 9.96267 2 9.96267 0 9.96267 0 9.96267 2 10.8665 2 10.8665 0 10.8665 0 10.8665 2 11.77 2 11.77 0 11.77 0 11.77 2 12.6729 2 12.6729 0 12.6729 0 12.6729 2 13.5753 2 13.5753 0 13.5753 0 13.5753 2 14.4772 2 14.4772 0 14.4772 0 14.4772 2 15.3785 2 15.3785 0 15.3785 0 15.3785 2 16.2792 2 16.2792 0 16.2792 0 16.2792 2 17.1793 2 17.1793 0 17.1793 0 17.1793 2 18.0787 2 18.0787 0 18.0787 0 18.0787 2 18.9775 2 18.9775 0 18.9775 0 18.9775 2 19.8756 2 19.8756 0 19.8756 0 19.8756 2 20.7731 2 20.7731 0 20.7731 0 20.7731 2 21.6698 2 21.6698 0 21.6698 0 21.6698 2 22.5659 2 22.5659 0 22.5659 0 22.5659 2 23.4612 2 23.4612 0 23.4612 0 23.4612 2 24.3559 2 24.3559 0 24.3559 0 24.3559 2 25.2498 2 25.2498 0 25.2498 0 25.2498 2 26.143 2 26.143 0 26.143 0 26.143 2 27.0355 2 27.0355 0 27.0355 0 27.0355 2 27.9273 2 27.9273 0 27.9273 0 27.9273 2 28.8184 2 28.8184 0 28.8184 0 28.8184 2 29.7089 2 29.7089 0 29.7089 0 29.7089 2 30.5986 2 30.5986 0 30.5986 0 30.5986 2 31.4878 2 31.4878 0 31.4878 0 31.4878 2 32.3762 2 32.3762 0 32.3762 0 32.3762 2 33.2641 2 33.2641 0 33.2641 0 33.2641 2 34.1514 2 34.1514 0 34.1514 0 34.1514 2 35.0381 2 35.0381 0 35.0381 0 35.0381 2 35.9243 2 35.9243 0 35.9243 0 35.9243 2 36.81 2 36.81 0 36.81 0 36.81 2 37.6952 2 37.6952 0 37.6952 0 37.6952 2 38.58 2 38.58 0 38.58 0 38.58 2 39.4643 2 39.4643 0 39.4643 0 39.4643 2 40.3483 2 40.3483 0 40.3483 0 40.3483 2 41.2319 2 41.2319 0 41.2319 0 41.2319 2 42.1153 2 42.1153 0 42.1153 0 42.1153 2 42.9983 2 42.9983 0 42.9983 0 42.9983 2 43.8812 2 43.8812 0 43.8812 0 43.8812 2 44.7638 2 44.7638 0 44.7638 0 44.7638 2 45.6464 2 45.6464 0 45.6464 0 45.6464 2 46.5288 2 46.5288 0 46.5288 0 46.5288 2 47.4111 2 47.4111 0 47.4111 0 47.4111 2 48.2935 2 48.2935 0 48.2935 0 48.2935 2 49.1759 2 49.1759 0 49.1759 0 49.1759 2 50.0583 2 50.0583 0 50.0583 0 50.0583 2 50.9409 2 50.9409 0 50.9409 0 50.9409 2 51.8236 2 51.8236 0 51.8236 0 51.8236 2 52.7065 2 52.7065 0 52.7065 0 52.7065 2 53.5897 2 53.5897 0 53.5897 0 53.5897 2 54.4731 2 54.4731 0 54.4731 0 54.4731 2 55.3569 2 55.3569 0 55.3569 0 55.3569 2 56.241 2 56.241 0 56.241 0 56.241 2 57.1254 2 57.1254 0 57.1254 0 57.1254 2 58.0103 2 58.0103 0 58.0103 0 58.0103 2 58.8957 2 58.8957 0 58.8957 0 58.8957 2 59.7815 2 59.7815 0 59.7815 0 59.7815 2 60.6679 2 60.6679 0 60.6679 0 60.6679 2 61.5548 2 61.5548 0 61.5548 0 61.5548 2 62.4423 2 62.4423 0 62.4423 0 62.4423 2 63.3304 2 63.3304 0 63.3304 0 63.3304 2 64.2191 2 64.2191 0 64.2191 0 64.2191 2 65.1084 2 65.1084 0 65.1084 0 65.1084 2 65.9984 2 65.9984 0 65.9984 0 65.9984 2 66.8891 2 66.8891 0 66.8891 0 66.8891 2 67.7804 2 67.7804 0 67.7804 0 67.7804 2 68.6725 2 68.6725 0 68.6725 0 68.6725 2 69.5652 2 69.5652 0 69.5652 0 69.5652 2 70.4586 2 70.4586 0 70.4586 0 70.4586 2 71.3528 2 71.3528 0 71.3528 0 71.3528 2 72.2477 2 72.2477 0 72.2477 0 72.2477 2 73.1432 2 73.1432 0 73.1432 0 73.1432 2 74.0395 2 74.0395 0 74.0395 0 74.0395 2 74.9365 2 74.9365 0 74.9365 0 74.9365 2 75.8342 2 75.8342 0 75.8342 0 75.8342 2 76.7325 2 76.7325 0 76.7325 0 76.7325 2 77.6316 2 77.6316 0 77.6316 0 77.6316 2 78.5312 2 78.5312 0 78.5312 0 78.5312 2 79.4315 2 79.4315 0 79.4315 0 79.4315 2 80.3324 2 80.3324 0 80.3324 0 80.3324 2 81.2339 2 81.2339 0 81.2339 0 81.2339 2 82.136 2 82.136 0 82.136 0 82.136 2 83.0386 2 83.0386 0 83.0386 0 83.0386 2 83.9417 2 83.9417 0 83.9417 0 83.9417 2 84.8452 2 84.8452 0 84.8452 0 84.8452 2 85.7493 2 85.7493 0 85.7493 0 85.7493 2 86.6537 2 86.6537 0 86.6537 0 86.6537 2 87.5585 2 87.5585 0 87.5585 0 87.5585 2 88.4637 2 88.4637 0 88.4637 0 88.4637 2 89.3691 2 89.3691 0 89.3691 0 89.3691 2 90.2749 2 90.2749 0 90.2749 0 90.2749 2 91.1808 2 91.1808 0 91.1808 0 91.1808 2 92.087 2 92.087 0 92.087 0 92.087 2 92.9933 2 92.9933 0 92.9933 0 92.9933 2 93.8997 2 93.8997 0 93.8997 0 93.8997 2 94.8062 2 94.8062 0 94.8062 0 94.8062 2 95.7127 2 95.7127 0 95.7127 0 95.7127 2 96.6192 2 96.6192 0 96.6192 0 96.6192 2 97.5256 2 97.5256 0 97.5256 0 97.5256 2 98.432 2 98.432 0 98.432 0 98.432 2 99.3382 2 99.3382 0 99.3382 0 99.3382 2 100.244 2 100.244 0 100.244 0 100.244 2 101.15 2 101.15 0 101.15 0 101.15 2 102.056 2 102.056 0 102.056 0 102.056 2 102.961 2 102.961 0 102.961 0 102.961 2 103.866 2 103.866 0 103.866 0 103.866 2 104.77 2 104.77 0 104.77 0 104.77 2 105.675 2 105.675 0 105.675 0 105.675 2 106.578 2 106.578 0 106.578 0 106.578 2 107.482 2 107.482 0 107.482 0 107.482 2 108.384 2 108.384 0 108.384 0 108.384 2 109.287 2 109.287 0 109.287 0 109.287 2 110.188 2 110.188 0 110.188 0 110.188 2 111.089 2 111.089 0 111.089 0 111.089 2 111.99 2 111.99 0 111.99 0 111.99 2 112.89 2 112.89 0 112.89 0 112.89 2 113.789 2 113.789 0 113.789 0 113.789 2 114.687 2 114.687 0 114.687 0 114.687 2 115.585 2 115.585 0 115.585 0 115.585 2 116.483 2 116.483 0 116.483 0 116.483 2 117.379 2 117.379 0 117.379 0 117.379 2 118.275 2 118.275 0 118.275 0 118.275 2 119.17 2 119.17 0 119.17 0 119.17 2 120.064 2 120.064 0 120.064 0 120.064 2 120.958 2 120.958 0 120.958 0 120.958 2 121.851 2 121.851 0 121.851 0 121.851 2 122.743 2 122.743 0 122.743 0 122.743 2 123.635 2 123.635 0 123.635 0 123.635 2 124.526 2 124.526 0 124.526 0 124.526 2 125.416 2 125.416 0 125.416 0 125.416 2 126.306 2 126.306 0 126.306 0 126.306 2 127.195 2 127.195 0 127.195 0 127.195 2 128.083 2 128.083 0 128.083 0 128.083 2 128.97 2 128.97 0 128.97 0 128.97 2 129.858 2 129.858 0 129.858 0 129.858 2 130.744 2 130.744 0 130.744 0 130.744 2 131.63 2 131.63 0 131.63 0 131.63 2 132.516 2 132.516 0 132.516 0 132.516 2 133.401 2 133.401 0 133.401 0 133.401 2 134.285 2 134.285 0 134.285 0 134.285 2 135.17 2 135.17 0 135.17 0 135.17 2 136.053 2 136.053 0 136.053 0 136.053 2 136.937 2 136.937 0 136.937 0 136.937 2 137.82 2 137.82 0 137.82 0 137.82 2 138.703 2 138.703 0 138.703 0 138.703 2 139.586 2 139.586 0 139.586 0 139.586 2 140.469 2 140.469 0 140.469 0 140.469 2 141.351 2 141.351 0 141.351 0 141.351 2 142.233 2 142.233 0 142.233 0 142.233 2 143.116 2 143.116 0</float_array>
          <technique_common><accessor source="#farm_sidewalk_uv_array" count="640" stride="2"><param name="S" type="float"/><param name="T" type="float"/></accessor></technique_common>
        </source>
        <vertices id="farm_sidewalk_vertices"><input semantic="POSITION" source="#farm_sidewalk_positions"/></vertices>
        <triangles material="farm_sidewalk_material" count="320">
          <input semantic="VERTEX" source="#farm_sidewalk_vertices" offset="0"/>
          <input semantic="NORMAL" source="#farm_sidewalk_normals" offset="1"/>
          <input semantic="TEXCOORD" source="#farm_sidewalk_uv" offset="2" set="0"/>
          <p>0 0 0 2 2 2 1 1 1 0 0 0 3 3 3 2 2 2 4 4 4 6 6 6 5 5 5 4 4 4 7 7 7 6 6 6 8 8 8 10 10 10 9 9 9 8 8 8 11 11 11 10 10 10 12 12 12 14 14 14 13 13 13 12 12 12 15 15 15 14 14 14 16 16 16 18 18 18 17 17 17 16 16 16 19 19 19 18 18 18 20 20 20 22 22 22 21 21 21 20 20 20 23 23 23 22 22 22 24 24 24 26 26 26 25 25 25 24 24 24 27 27 27 26 26 26 28 28 28 30 30 30 29 29 29 28 28 28 31 31 31 30 30 30 32 32 32 34 34 34 33 33 33 32 32 32 35 35 35 34 34 34 36 36 36 38 38 38 37 37 37 36 36 36 39 39 39 38 38 38 40 40 40 42 42 42 41 41 41 40 40 40 43 43 43 42 42 42 44 44 44 46 46 46 45 45 45 44 44 44 47 47 47 46 46 46 48 48 48 50 50 50 49 49 49 48 48 48 51 51 51 50 50 50 52 52 52 54 54 54 53 53 53 52 52 52 55 55 55 54 54 54 56 56 56 58 58 58 57 57 57 56 56 56 59 59 59 58 58 58 60 60 60 62 62 62 61 61 61 60 60 60 63 63 63 62 62 62 64 64 64 66 66 66 65 65 65 64 64 64 67 67 67 66 66 66 68 68 68 70 70 70 69 69 69 68 68 68 71 71 71 70 70 70 72 72 72 74 74 74 73 73 73 72 72 72 75 75 75 74 74 74 76 76 76 78 78 78 77 77 77 76 76 76 79 79 79 78 78 78 80 80 80 82 82 82 81 81 81 80 80 80 83 83 83 82 82 82 84 84 84 86 86 86 85 85 85 84 84 84 87 87 87 86 86 86 88 88 88 90 90 90 89 89 89 88 88 88 91 91 91 90 90 90 92 92 92 94 94 94 93 93 93 92 92 92 95 95 95 94 94 94 96 96 96 98 98 98 97 97 97 96 96 96 99 99 99 98 98 98 100 100 100 102 102 102 101 101 101 100 100 100 103 103 103 102 102 102 104 104 104 106 106 106 105 105 105 104 104 104 107 107 107 106 106 106 108 108 108 110 110 110 109 109 109 108 108 108 111 111 111 110 110 110 112 112 112 114 114 114 113 113 113 112 112 112 115 115 115 114 114 114 116 116 116 118 118 118 117 117 117 116 116 116 119 119 119 118 118 118 120 120 120 122 122 122 121 121 121 120 120 120 123 123 123 122 122 122 124 124 124 126 126 126 125 125 125 124 124 124 127 127 127 126 126 126 128 128 128 130 130 130 129 129 129 128 128 128 131 131 131 130 130 130 132 132 132 134 134 134 133 133 133 132 132 132 135 135 135 134 134 134 136 136 136 138 138 138 137 137 137 136 136 136 139 139 139 138 138 138 140 140 140 142 142 142 141 141 141 140 140 140 143 143 143 142 142 142 144 144 144 146 146 146 145 145 145 144 144 144 147 147 147 146 146 146 148 148 148 150 150 150 149 149 149 148 148 148 151 151 151 150 150 150 152 152 152 154 154 154 153 153 153 152 152 152 155 155 155 154 154 154 156 156 156 158 158 158 157 157 157 156 156 156 159 159 159 158 158 158 160 160 160 162 162 162 161 161 161 160 160 160 163 163 163 162 162 162 164 164 164 166 166 166 165 165 165 164 164 164 167 167 167 166 166 166 168 168 168 170 170 170 169 169 169 168 168 168 171 171 171 170 170 170 172 172 172 174 174 174 173 173 173 172 172 172 175 175 175 174 174 174 176 176 176 178 178 178 177 177 177 176 176 176 179 179 179 178 178 178 180 180 180 182 182 182 181 181 181 180 180 180 183 183 183 182 182 182 184 184 184 186 186 186 185 185 185 184 184 184 187 187 187 186 186 186 188 188 188 190 190 190 189 189 189 188 188 188 191 191 191 190 190 190 192 192 192 194 194 194 193 193 193 192 192 192 195 195 195 194 194 194 196 196 196 198 198 198 197 197 197 196 196 196 199 199 199 198 198 198 200 200 200 202 202 202 201 201 201 200 200 200 203 203 203 202 202 202 204 204 204 206 206 206 205 205 205 204 204 204 207 207 207 206 206 206 208 208 208 210 210 210 209 209 209 208 208 208 211 211 211 210 210 210 212 212 212 214 214 214 213 213 213 212 212 212 215 215 215 214 214 214 216 216 216 218 218 218 217 217 217 216 216 216 219 219 219 218 218 218 220 220 220 222 222 222 221 221 221 220 220 220 223 223 223 222 222 222 224 224 224 226 226 226 225 225 225 224 224 224 227 227 227 226 226 226 228 228 228 230 230 230 229 229 229 228 228 228 231 231 231 230 230 230 232 232 232 234 234 234 233 233 233 232 232 232 235 235 235 234 234 234 236 236 236 238 238 238 237 237 237 236 236 236 239 239 239 238 238 238 240 240 240 242 242 242 241 241 241 240 240 240 243 243 243 242 242 242 244 244 244 246 246 246 245 245 245 244 244 244 247 247 247 246 246 246 248 248 248 250 250 250 249 249 249 248 248 248 251 251 251 250 250 250 252 252 252 254 254 254 253 253 253 252 252 252 255 255 255 254 254 254 256 256 256 258 258 258 257 257 257 256 256 256 259 259 259 258 258 258 260 260 260 262 262 262 261 261 261 260 260 260 263 263 263 262 262 262 264 264 264 266 266 266 265 265 265 264 264 264 267 267 267 266 266 266 268 268 268 270 270 270 269 269 269 268 268 268 271 271 271 270 270 270 272 272 272 274 274 274 273 273 273 272 272 272 275 275 275 274 274 274 276 276 276 278 278 278 277 277 277 276 276 276 279 279 279 278 278 278 280 280 280 282 282 282 281 281 281 280 280 280 283 283 283 282 282 282 284 284 284 286 286 286 285 285 285 284 284 284 287 287 287 286 286 286 288 288 288 290 290 290 289 289 289 288 288 288 291 291 291 290 290 290 292 292 292 294 294 294 293 293 293 292 292 292 295 295 295 294 294 294 296 296 296 298 298 298 297 297 297 296 296 296 299 299 299 298 298 298 300 300 300 302 302 302 301 301 301 300 300 300 303 303 303 302 302 302 304 304 304 306 306 306 305 305 305 304 304 304 307 307 307 306 306 306 308 308 308 310 310 310 309 309 309 308 308 308 311 311 311 310 310 310 312 312 312 314 314 314 313 313 313 312 312 312 315 315 315 314 314 314 316 316 316 318 318 318 317 317 317 316 316 316 319 319 319 318 318 318 320 320 320 322 322 322 321 321 321 320 320 320 323 323 323 322 322 322 324 324 324 326 326 326 325 325 325 324 324 324 327 327 327 326 326 326 328 328 328 330 330 330 329 329 329 328 328 328 331 331 331 330 330 330 332 332 332 334 334 334 333 333 333 332 332 332 335 335 335 334 334 334 336 336 336 338 338 338 337 337 337 336 336 336 339 339 339 338 338 338 340 340 340 342 342 342 341 341 341 340 340 340 343 343 343 342 342 342 344 344 344 346 346 346 345 345 345 344 344 344 347 347 347 346 346 346 348 348 348 350 350 350 349 349 349 348 348 348 351 351 351 350 350 350 352 352 352 354 354 354 353 353 353 352 352 352 355 355 355 354 354 354 356 356 356 358 358 358 357 357 357 356 356 356 359 359 359 358 358 358 360 360 360 362 362 362 361 361 361 360 360 360 363 363 363 362 362 362 364 364 364 366 366 366 365 365 365 364 364 364 367 367 367 366 366 366 368 368 368 370 370 370 369 369 369 368 368 368 371 371 371 370 370 370 372 372 372 374 374 374 373 373 373 372 372 372 375 375 375 374 374 374 376 376 376 378 378 378 377 377 377 376 376 376 379 379 379 378 378 378 380 380 380 382 382 382 381 381 381 380 380 380 383 383 383 382 382 382 384 384 384 386 386 386 385 385 385 384 384 384 387 387 387 386 386 386 388 388 388 390 390 390 389 389 389 388 388 388 391 391 391 390 390 390 392 392 392 394 394 394 393 393 393 392 392 392 395 395 395 394 394 394 396 396 396 398 398 398 397 397 397 396 396 396 399 399 399 398 398 398 400 400 400 402 402 402 401 401 401 400 400 400 403 403 403 402 402 402 404 404 404 406 406 406 405 405 405 404 404 404 407 407 407 406 406 406 408 408 408 410 410 410 409 409 409 408 408 408 411 411 411 410 410 410 412 412 412 414 414 414 413 413 413 412 412 412 415 415 415 414 414 414 416 416 416 418 418 418 417 417 417 416 416 416 419 419 419 418 418 418 420 420 420 422 422 422 421 421 421 420 420 420 423 423 423 422 422 422 424 424 424 426 426 426 425 425 425 424 424 424 427 427 427 426 426 426 428 428 428 430 430 430 429 429 429 428 428 428 431 431 431 430 430 430 432 432 432 434 434 434 433 433 433 432 432 432 435 435 435 434 434 434 436 436 436 438 438 438 437 437 437 436 436 436 439 439 439 438 438 438 440 440 440 442 442 442 441 441 441 440 440 440 443 443 443 442 442 442 444 444 444 446 446 446 445 445 445 444 444 444 447 447 447 446 446 446 448 448 448 450 450 450 449 449 449 448 448 448 451 451 451 450 450 450 452 452 452 454 454 454 453 453 453 452 452 452 455 455 455 454 454 454 456 456 456 458 458 458 457 457 457 456 456 456 459 459 459 458 458 458 460 460 460 462 462 462 461 461 461 460 460 460 463 463 463 462 462 462 464 464 464 466 466 466 465 465 465 464 464 464 467 467 467 466 466 466 468 468 468 470 470 470 469 469 469 468 468 468 471 471 471 470 470 470 472 472 472 474 474 474 473 473 473 472 472 472 475 475 475 474 474 474 476 476 476 478 478 478 477 477 477 476 476 476 479 479 479 478 478 478 480 480 480 482 482 482 481 481 481 480 480 480 483 483 483 482 482 482 484 484 484 486 486 486 485 485 485 484 484 484 487 487 487 486 486 486 488 488 488 490 490 490 489 489 489 488 488 488 491 491 491 490 490 490 492 492 492 494 494 494 493 493 493 492 492 492 495 495 495 494 494 494 496 496 496 498 498 498 497 497 497 496 496 496 499 499 499 498 498 498 500 500 500 502 502 502 501 501 501 500 500 500 503 503 503 502 502 502 504 504 504 506 506 506 505 505 505 504 504 504 507 507 507 506 506 506 508 508 508 510 510 510 509 509 509 508 508 508 511 511 511 510 510 510 512 512 512 514 514 514 513 513 513 512 512 512 515 515 515 514 514 514 516 516 516 518 518 518 517 517 517 516 516 516 519 519 519 518 518 518 520 520 520 522 522 522 521 521 521 520 520 520 523 523 523 522 522 522 524 524 524 526 526 526 525 525 525 524 524 524 527 527 527 526 526 526 528 528 528 530 530 530 529 529 529 528 528 528 531 531 531 530 530 530 532 532 532 534 534 534 533 533 533 532 532 532 535 535 535 534 534 534 536 536 536 538 538 538 537 537 537 536 536 536 539 539 539 538 538 538 540 540 540 542 542 542 541 541 541 540 540 540 543 543 543 542 542 542 544 544 544 546 546 546 545 545 545 544 544 544 547 547 547 546 546 546 548 548 548 550 550 550 549 549 549 548 548 548 551 551 551 550 550 550 552 552 552 554 554 554 553 553 553 552 552 552 555 555 555 554 554 554 556 556 556 558 558 558 557 557 557 556 556 556 559 559 559 558 558 558 560 560 560 562 562 562 561 561 561 560 560 560 563 563 563 562 562 562 564 564 564 566 566 566 565 565 565 564 564 564 567 567 567 566 566 566 568 568 568 570 570 570 569 569 569 568 568 568 571 571 571 570 570 570 572 572 572 574 574 574 573 573 573 572 572 572 575 575 575 574 574 574 576 576 576 578 578 578 577 577 577 576 576 576 579 579 579 578 578 578 580 580 580 582 582 582 581 581 581 580 580 580 583 583 583 582 582 582 584 584 584 586 586 586 585 585 585 584 584 584 587 587 587 586 586 586 588 588 588 590 590 590 589 589 589 588 588 588 591 591 591 590 590 590 592 592 592 594 594 594 593 593 593 592 592 592 595 595 595 594 594 594 596 596 596 598 598 598 597 597 597 596 596 596 599 599 599 598 598 598 600 600 600 602 602 602 601 601 601 600 600 600 603 603 603 602 602 602 604 604 604 606 606 606 605 605 605 604 604 604 607 607 607 606 606 606 608 608 608 610 610 610 609 609 609 608 608 608 611 611 611 610 610 610 612 612 612 614 614 614 613 613 613 612 612 612 615 615 615 614 614 614 616 616 616 618 618 618 617 617 617 616 616 616 619 619 619 618 618 618 620 620 620 622 622 622 621 621 621 620 620 620 623 623 623 622 622 622 624 624 624 626 626 626 625 625 625 624 624 624 627 627 627 626 626 626 628 628 628 630 630 630 629 629 629 628 628 628 631 631 631 630 630 630 632 632 632 634 634 634 633 633 633 632 632 632 635 635 635 634 634 634 636 636 636 638 638 638 637 637 637 636 636 636 639 639 639 638 638 638</p>
        </triangles>
      </mesh>
    </geometry>
  </library_geometries>
  <library_visual_scenes>
    <visual_scene id="farm_sidewalk_scene">
      <node id="farm_sidewalk_node">
        <instance_geometry url="#farm_sidewalk_geometry">
          <bind_material><technique_common>
            <instance_material symbol="farm_sidewalk_material" target="#farm_sidewalk_material"><bind_vertex_input semantic="UVSET0" input_semantic="TEXCOORD" input_set="0"/></instance_material>
          </technique_common></bind_material>
        </instance_geometry>
      </node>
    </visual_scene>
  </library_visual_scenes>
  <scene><instance_visual_scene url="#farm_sidewalk_scene"/></scene>
</COLLADA>
