<?xml version="1.0" encoding="utf-8"?>
<COLLADA xmlns="http://www.collada.org/2005/11/COLLADASchema" version="1.4.1">
  <asset><unit name="meter" meter="1"/><up_axis>Z_UP</up_axis></asset>
  <library_images><image id="farm_verge_right_image"><init_from>textures/grass_color.jpg</init_from></image></library_images>
  <library_effects>
    <effect id="farm_verge_right_effect">
      <profile_COMMON>
        <newparam sid="farm_verge_right_surface"><surface type="2D"><init_from>farm_verge_right_image</init_from></surface></newparam><newparam sid="farm_verge_right_sampler"><sampler2D><source>farm_verge_right_surface</source><wrap_s>WRAP</wrap_s><wrap_t>WRAP</wrap_t></sampler2D></newparam>
        <technique sid="common"><lambert><diffuse><texture texture="farm_verge_right_sampler" texcoord="UVSET0"/></diffuse></lambert></technique>
      </profile_COMMON>
    </effect>
  </library_effects>
  <library_materials>
    <material id="farm_verge_right_material"><instance_effect url="#farm_verge_right_effect"/></material>
  </library_materials>
  <library_geometries>
    <geometry id="farm_verge_right_geometry">
      <mesh>
        <source id="farm_verge_right_positions">
          <float_array id="farm_verge_right_positions_array" count="1920">4.43849 -61.0456 0.13 5.50918 -61.2979 0 5.68587 -60.5479 0 4.61518 -60.2956 0.13 4.61539 -60.2948 0.13 5.68612 -60.5468 0 5.86266 -59.7968 0 4.79192 -59.5448 0.13 4.79233 -59.5431 0.13 5.86316 -59.7947 0 6.03939 -59.0447 0 4.96855 -58.7931 0.13 4.96916 -58.7905 0.13 6.04014 -59.0415 0 6.21591 -58.2915 0 5.14493 -58.0405 0.13 5.14573 -58.0371 0.13 6.21691 -58.2872 0 6.39207 -57.5372 0 5.32089 -57.2871 0.13 5.32189 -57.2828 0.13 6.39331 -57.5319 0 6.5677 -56.7819 0 5.49629 -56.5328 0.13 5.49748 -56.5276 0.13 6.56918 -56.7755 0 6.74266 -56.0255 0 5.67096 -55.7776 0.13 5.67234 -55.7716 0.13 6.74438 -56.0181 0 6.91679 -55.2681 0 5.84475 -55.0216 0.13 5.84632 -55.0148 0.13 6.91874 -55.2596 0 7.08994 -54.5096 0 6.01752 -54.2648 0.13 6.01927 -54.2571 0.13 7.09211 -54.5 0 7.26194 -53.75 0 6.1891 -53.5071 0.13 6.19103 -53.4986 0.13 7.26433 -53.7395 0 7.43265 -52.9895 0 6.35935 -52.7486 0.13 6.36144 -52.7392 0.13 7.43525 -52.9778 0 7.60192 -52.2278 0 6.52811 -51.9892 0.13 6.53037 -51.979 0.13 7.60471 -52.2152 0 7.76958 -51.4652 0 6.69523 -51.229 0.13 6.69764 -51.218 0.13 7.77257 -51.4515 0 7.9355 -50.7015 0 6.86057 -50.468 0.13 6.86312 -50.4562 0.13 7.93867 -50.6868 0 8.09951 -49.9368 0 7.02396 -49.7062 0.13 7.02666 -49.6935 0.13 8.10285 -49.9211 0 8.26146 -49.1711 0 7.18527 -48.9435 0.13 7.18809 -48.93 0.13 8.26497 -49.1544 0 8.42122 -48.4044 0 7.34434 -48.18 0.13 7.34729 -48.1658 0.13 8.42488 -48.3867 0 8.57863 -47.6367 0 7.50104 -47.4158 0.13 7.5041 -47.4007 0.13 8.58243 -47.618 0 8.73355 -46.868 0 7.65522 -46.6507 0.13 7.65839 -46.6349 0.13 8.73748 -46.8483 0 8.88583 -46.0983 0 7.80674 -45.8849 0.13 7.81 -45.8683 0.13 8.88987 -46.0777 0 9.03534 -45.3277 0 7.95546 -45.1183 0.13 7.9588 -45.1009 0.13 9.03948 -45.3061 0 9.18193 -44.5561 0 8.10125 -44.3509 0.13 8.10465 -44.3327 0.13 9.18616 -44.5336 0 9.32546 -43.7836 0 8.24396 -43.5827 0.13 8.24742 -43.5639 0.13 9.32976 -43.7602 0 9.46581 -43.0102 0 8.38347 -42.8139 0.13 8.38698 -42.7943 0.13 9.47017 -42.9859 0 9.60283 -42.2359 0 8.51965 -42.0443 0.13 8.52319 -42.024 0.13 9.60723 -42.2107 0 9.7364 -41.4607 0 8.65236 -41.274 0.13 8.65593 -41.2529 0.13 9.74083 -41.4346 0 9.8664 -40.6846 0 8.78149 -40.5029 0.13 8.78507 -40.4812 0.13 9.87084 -40.6576 0 9.99269 -39.9076 0 8.90692 -39.7312 0.13 8.9105 -39.7089 0.13 9.99713 -39.8799 0 10.1152 -39.1299 0 9.02853 -38.9589 0.13 9.03209 -38.9358 0.13 10.1196 -39.1013 0 10.2337 -38.3513 0 9.14619 -38.1858 0.13 9.14973 -38.1622 0.13 10.2381 -38.3219 0 10.3481 -37.5719 0 9.25981 -37.4122 0.13 9.2633 -37.3879 0.13 10.3525 -37.5418 0 10.4584 -36.7918 0 9.36926 -36.6379 0.13 9.37271 -36.613 0.13 10.4627 -36.7609 0 10.5645 -36.0109 0 9.47446 -35.863 0.13 9.47784 -35.8376 0.13 10.5687 -35.9793 0 10.6661 -35.2293 0 9.57529 -35.0876 0.13 9.57859 -35.0615 0.13 10.6702 -35.197 0 10.7633 -34.447 0 9.67166 -34.3115 0.13 9.67488 -34.285 0.13 10.7673 -34.414 0 10.8559 -33.664 0 9.76348 -33.535 0.13 9.7666 -33.5079 0.13 10.8598 -33.6305 0 10.9438 -32.8805 0 9.85066 -32.7579 0.13 9.85367 -32.7304 0.13 10.9475 -32.8462 0 11.027 -32.0962 0 9.93312 -31.9804 0.13 9.936 -31.9523 0.13 11.0306 -32.0615 0 11.1053 -31.3115 0 10.0108 -31.2023 0.13 10.0135 -31.1739 0.13 11.1088 -31.2761 0 11.1788 -30.5261 0 10.0835 -30.4239 0.13 10.0861 -30.395 0.13 11.182 -30.4903 0 11.2472 -29.7403 0 10.1513 -29.645 0.13 10.1538 -29.6157 0.13 11.2503 -29.704 0 11.3106 -28.954 0 10.2141 -28.8657 0.13 10.2164 -28.8361 0.13 11.3134 -28.9172 0 11.3689 -28.1672 0 10.2719 -28.0861 0.13 10.274 -28.0561 0.13 11.3715 -28.13 0 11.422 -27.38 0 10.3244 -27.3061 0.13 10.3264 -27.2759 0.13 11.4244 -27.3424 0 11.4698 -26.5924 0 10.3718 -26.5259 0.13 10.3736 -26.4953 0.13 11.472 -26.5545 0 11.5124 -25.8045 0 10.414 -25.7453 0.13 10.4155 -25.7145 0.13 11.5143 -25.7663 0 11.5497 -25.0163 0 10.4509 -24.9645 0.13 10.4522 -24.9335 0.13 11.5513 -24.9778 0 11.5815 -24.2278 0 10.4824 -24.1835 0.13 10.4836 -24.1523 0.13 11.583 -24.1891 0 11.608 -23.4391 0 10.5087 -23.4023 0.13 10.5096 -23.371 0.13 11.6092 -23.4002 0 11.6291 -22.6502 0 10.5295 -22.621 0.13 10.5302 -22.5895 0.13 11.63 -22.6111 0 11.6447 -21.8611 0 10.545 -21.8395 0.13 10.5455 -21.808 0.13 11.6454 -21.822 0 11.6549 -21.072 0 10.555 -21.058 0.13 10.5553 -21.0264 0.13 11.6553 -21.0327 0 11.6596 -20.2827 0 10.5596 -20.2764 0.13 10.5597 -20.2447 0.13 11.6597 -20.2435 0 11.6588 -19.4935 0 10.5588 -19.4947 0.13 10.5587 -19.4631 0.13 11.6587 -19.4542 0 11.6526 -18.7042 0 10.5526 -18.7131 0.13 10.5523 -18.6815 0.13 11.6521 -18.665 0 11.6409 -17.915 0 10.541 -17.9315 0.13 10.5404 -17.9 0.13 11.6401 -17.8758 0 11.6237 -17.1258 0 10.5239 -17.15 0.13 10.5232 -17.1185 0.13 11.6227 -17.0868 0 11.6011 -16.3368 0 10.5015 -16.3685 0.13 10.5005 -16.3372 0.13 11.5998 -16.298 0 11.573 -15.548 0 10.4737 -15.5872 0.13 10.4725 -15.5561 0.13 11.5715 -15.5093 0 11.5396 -14.7593 0 10.4406 -14.8061 0.13 10.4392 -14.7752 0.13 11.5378 -14.7209 0 11.5008 -13.9709 0 10.4021 -14.0252 0.13 10.4005 -13.9945 0.13 11.4988 -13.9328 0 11.4567 -13.1828 0 10.3584 -13.2445 0.13 10.3566 -13.214 0.13 11.4545 -13.145 0 11.4073 -12.395 0 10.3095 -12.464 0.13 10.3075 -12.4338 0.13 11.4048 -12.3576 0 11.3527 -11.6076 0 10.2554 -11.6838 0.13 10.2532 -11.654 0.13 11.35 -11.5705 0 11.2929 -10.8205 0 10.1961 -10.904 0.13 10.1938 -10.8745 0.13 11.29 -10.7839 0 11.2281 -10.0339 0 10.1318 -10.1245 0.13 10.1293 -10.0953 0.13 11.225 -9.99771 0 11.1581 -9.24771 0 10.0625 -9.34533 0.13 10.0598 -9.31659 0.13 11.1548 -9.21203 0 11.0832 -8.46203 0 9.98821 -8.56659 0.13 9.98542 -8.53826 0.13 11.0798 -8.42688 0 11.0034 -7.67688 0 9.90909 -7.78826 0.13 9.90616 -7.76039 0.13 10.9998 -7.64229 0 10.9188 -6.89229 0 9.82517 -7.01039 0.13 9.82212 -6.983 0.13 10.915 -6.85828 0 10.8294 -6.10828 0 9.73654 -6.233 0.13 9.73339 -6.2061 0.13 10.8255 -6.07489 0 10.7354 -5.32489 0 9.64329 -5.4561 0.13 9.64004 -5.42972 0.13 10.7314 -5.29215 0 10.6369 -4.54215 0 9.5455 -4.67972 0.13 9.54217 -4.65389 0.13 10.6327 -4.51009 0 10.5338 -3.76009 0 9.44328 -3.90389 0.13 9.43987 -3.87862 0.13 10.5296 -3.72872 0 10.4264 -2.97872 0 9.33671 -3.12862 0.13 9.33325 -3.10393 0.13 10.4221 -2.94809 0 10.3148 -2.19809 0 9.2259 -2.35393 0.13 9.22239 -2.32986 0.13 10.3104 -2.1682 0 10.199 -1.4182 0 9.11096 -1.57986 0.13 9.10741 -1.55641 0.13 10.1946 -1.38909 0 10.0792 -0.639091 0 8.99199 -0.806406 0.13 8.98842 -0.783596 0.13 10.0748 -0.610779 0 9.95545 0.139221 0 8.86911 -0.033596 0.13 8.86553 -0.0114458 0.13 9.95101 0.166714 0 9.82791 0.916714 0 8.74243 0.738554 0.13 8.73886 0.760028 0.13 9.82347 0.943369 0 9.69669 1.69337 0 8.61208 1.51003 0.13 8.60852 1.53081 0.13 9.69227 1.71917 0 9.56192 2.46917 0 8.47817 2.28081 0.13 8.47463 2.30089 0.13 9.55753 2.49409 0 9.42373 3.24409 0 8.34083 3.05089 0.13 8.33733 3.07025 0.13 9.41939 3.26811 0 9.28224 4.01811 0 8.20018 3.82025 0.13 8.19674 3.83887 0.13 9.27797 4.04123 0 9.1376 4.79123 0 8.05637 4.58887 0.13 8.05299 4.60675 0.13 9.1334 4.81342 0 8.98993 5.56342 0 7.90952 5.35675 0.13 7.90621 5.37388 0.13 8.98582 5.58468 0 8.83938 6.33468 0 7.75977 6.12388 0.13 7.75654 6.14023 0.13 8.83538 6.35498 0 8.68608 7.10498 0 7.60725 6.89023 0.13 7.60412 6.90581 0.13 8.6822 7.12432 0 8.53019 7.87432 0 7.45211 7.65581 0.13 7.44908 7.67061 0.13 8.52643 7.89268 0 8.37183 8.64268 0 7.29448 8.42061 0.13 7.29158 8.43461 0.13 8.36822 8.66006 0 8.21117 9.41006 0 7.13452 9.18461 0.13 7.13174 9.1978 0.13 8.20772 9.42644 0 8.04835 10.1764 0 6.97237 9.9478 0.13 6.96972 9.96019 0.13 8.04506 10.1918 0 7.88351 10.9418 0 6.80817 10.7102 0.13 6.80566 10.7218 0.13 7.88039 10.9562 0 7.71681 11.7062 0 6.64208 11.4718 0.13 6.63972 11.4825 0.13 7.71388 11.7195 0 7.5484 12.4695 0 6.47423 12.2325 0.13 6.47203 12.2424 0.13 7.54567 12.4818 0 7.37843 13.2318 0 6.3048 12.9924 0.13 6.30276 13.0015 0.13 7.3759 13.2431 0 7.20706 13.9931 0 6.13392 13.7515 0.13 6.13205 13.7598 0.13 7.20474 14.0033 0 7.03444 14.7533 0 5.96174 14.5098 0.13 5.96006 14.5172 0.13 7.03234 14.7625 0 6.86072 15.5125 0 5.78843 15.2672 0.13 5.78693 15.2737 0.13 6.85885 15.5207 0 6.68606 16.2707 0 5.61414 16.0237 0.13 5.61282 16.0294 0.13 6.68443 16.2778 0 6.51062 17.0278 0 5.43902 16.7794 0.13 5.43789 16.7843 0.13 6.50922 17.0338 0 6.33456 17.7838 0 5.26323 17.5343 0.13 5.26229 17.5383 0.13 6.3334 17.7888 0 6.15802 18.5388 0 5.08691 18.2883 0.13 5.08618 18.2914 0.13 6.1571 18.5427 0 5.98116 19.2927 0 4.91024 19.0414 0.13 4.9097 19.0437 0.13 5.9805 19.2955 0 5.80415 20.0455 0 4.73335 19.7937 0.13 4.73301 19.7952 0.13 5.80373 20.0473 0 5.62712 20.7973 0 4.55641 20.5452 0.13 4.55627 20.5457 0.13 5.62696 20.798 0 5.45025 21.548 0 4.37957 21.2957 0.13 4.37963 21.2955 0.13 5.45034 21.5476 0 5.27368 22.2976 0 4.20298 22.0455 0.13 4.20325 22.0443 0.13 5.27401 22.2962 0 5.09756 23.0462 0 4.0268 22.7943 0.13 4.02727 22.7923 0.13 5.09815 23.0437 0 4.92206 23.7937 0 3.85118 23.5423 0.13 3.85185 23.5394 0.13 4.92289 23.7902 0 4.74731 24.5402 0 3.67626 24.2894 0.13 3.67713 24.2857 0.13 4.74838 24.5356 0 4.57346 25.2856 0 3.50221 25.0357 0.13 3.50328 25.0311 0.13 4.57478 25.2799 0 4.40068 26.0299 0 3.32917 25.7811 0.13 3.33043 25.7757 0.13 4.40224 26.0232 0 4.2291 26.7732 0 3.15729 26.5257 0.13 3.15873 26.5194 0.13 4.23089 26.7654 0 4.05886 27.5154 0 2.9867 27.2694 0.13 2.98833 27.2623 0.13 4.06088 27.5065 0 3.89012 28.2565 0 2.81757 28.0123 0.13 2.81938 28.0044 0.13 3.89236 28.2466 0 3.72301 28.9966 0 2.65003 28.7544 0.13 2.65201 28.7456 0.13 3.72547 28.9857 0 3.55768 29.7357 0 2.48422 29.4956 0.13 2.48636 29.4859 0.13 3.56034 29.7237 0 3.39426 30.4737 0 2.32028 30.2359 0.13 2.32258 30.2254 0.13 3.39712 30.4607 0 3.23289 31.2107 0 2.15835 30.9754 0.13 2.16081 30.9641 0.13 3.23594 31.1967 0 3.0737 31.9467 0 1.99856 31.7141 0.13 2.00117 31.702 0.13 3.07693 31.9317 0 2.91682 32.6817 0 1.84106 32.452 0.13 1.8438 32.4391 0.13 2.92022 32.6656 0 2.76238 33.4156 0 1.68596 33.1891 0.13 1.68883 33.1754 0.13 2.76594 33.3986 0 2.61051 34.1486 0 1.53339 33.9254 0.13 1.53638 33.9108 0.13 2.61421 34.1306 0 2.46132 34.8806 0 1.38349 34.6608 0.13 1.38659 34.6455 0.13 2.46517 34.8615 0 2.31495 35.6115 0 1.23637 35.3955 0.13 1.23957 35.3794 0.13 2.31892 35.5916 0 2.17151 36.3416 0 1.09216 36.1294 0.13 1.09544 36.1125 0.13 2.17558 36.3206 0 2.03111 37.0706 0 0.950968 36.8625 0.13 0.954328 36.8449 0.13 2.03528 37.0487 0 1.89387 37.7987 0 0.812914 37.5949 0.13 0.81634 37.5765 0.13 1.89812 37.7759 0 1.75989 38.5259 0 0.678107 38.3265 0.13 0.681588 38.3074 0.13 1.76421 38.5022 0 1.62927 39.2522 0 0.546656 39.0574 0.13 0.55018 39.0376 0.13 1.63365 39.2276 0 1.50214 39.9776 0 0.418667 39.7876 0.13 0.422222 39.767 0.13 1.50655 39.9521 0 1.37857 40.7021 0 0.294241 40.517 0.13 0.297815 40.4958 0.13 1.383 40.6757 0 1.25867 41.4257 0 0.173478 41.2458 0.13 0.177058 41.2239 0.13 1.26311 41.3985 0 1.14253 42.1485 0 0.0564732 41.9739 0.13 0.0600474 41.9513 0.13 1.14696 42.1204 0 1.03023 42.8704 0 -0.0566816 42.7013 0.13 -0.0531259 42.678 0.13 1.03465 42.8416 0 0.921875 43.5916 0 -0.165898 43.428 0.13 -0.162373 43.4042 0.13 0.926249 43.562 0 0.817533 44.312 0 -0.271089 44.1542 0.13 -0.267608 44.1297 0.13 0.821854 44.2816 0 0.717287 45.0316 0 -0.372175 44.8797 0.13 -0.36875 44.8546 0.13 0.721538 45.0004 0 0.621212 45.7504 0 -0.469077 45.6046 0.13 -0.46572 45.579 0.13 0.625378 45.7186 0 0.529379 46.4686 0 -0.56172 46.329 0.13 -0.558443 46.3028 0.13 0.533445 46.4361 0 0.441856 47.1861 0 -0.650032 47.0528 0.13 -0.646848 47.026 0.13 0.445808 47.1529 0 0.358709 47.9029 0 -0.733948 47.776 0.13 -0.730868 47.7488 0.13 0.362532 47.8691 0 0.279998 48.6191 0 -0.813401 48.4988 0.13 -0.810437 48.4711 0.13 0.283677 48.5847 0 0.205781 49.3347 0 -0.888334 49.2211 0.13 -0.885496 49.1929 0.13 0.209303 49.2997 0 0.136111 50.0497 0 -0.958688 49.9429 0.13 -0.955987 49.9143 0.13 0.139463 50.0142 0 0.0710396 50.7642 0 -1.02441 50.6643 0.13 -1.02186 50.6353 0.13 0.0742091 50.7282 0 0.0106127 51.4782 0 -1.08545 51.3853 0.13 -1.08306 51.3559 0.13 0.0135875 51.4417 0 -0.0451263 52.1917 0 -1.14177 52.1059 0.13 -1.13954 52.0761 0.13 -0.0423575 52.1548 0 -0.0961377 52.9048 0 -1.19332 52.8261 0.13 -1.19126 52.7961 0.13 -0.0935854 52.8675 0 -0.142385 53.6175 0 -1.24006 53.5461 0.13 -1.23819 53.5157 0.13 -0.140059 53.5798 0 -0.183837 54.3298 0 -1.28197 54.2657 0.13 -1.28028 54.2351 0.13 -0.181746 54.2918 0 -0.220463 55.0418 0 -1.319 54.9851 0.13 -1.31751 54.9542 0.13 -0.218616 55.0035 0 -0.252239 55.7535 0 -1.35113 55.7042 0.13 -1.34985 55.6732 0.13 -0.250641 55.7149 0 -0.279141 56.4649 0 -1.37835 56.4232 0.13 -1.37727 56.3919 0.13 -0.277801 56.4261 0 -0.301152 57.1761 0 -1.40062 57.1419 0.13 -1.39975 57.1105 0.13 -0.300073 57.1372 0 -0.318257 57.8872 0 -1.41793 57.8605 0.13 -1.41728 57.829 0.13 -0.317444 57.8481 0 -0.330444 58.5981 0 -1.43028 58.579 0.13 -1.42984 58.5474 0.13 -0.3299 58.5589 0 -0.337704 59.3089 0 -1.43764 59.2974 0.13 -1.43743 59.2658 0.13 -0.337432 59.2696 0 -0.340034 60.0196 0 -1.44003 60.0158 0.13</float_array>
          <technique_common><accessor source="#farm_verge_right_positions_array" count="640" stride="3"><param name="X" type="float"/><param name="Y" type="float"/><param name="Z" type="float"/></accessor></technique_common>
        </source>
        <source id="farm_verge_right_normals">
          <float_array id="farm_verge_right_normals_array" count="1920">0.114238 -0.0269127 0.993089 0.114238 -0.0269127 0.993089 0.114238 -0.0269127 0.993089 0.114238 -0.0269127 0.993089 0.114243 -0.0268906 0.993089 0.114243 -0.0268906 0.993089 0.114243 -0.0268906 0.993089 0.114243 -0.0268906 0.993089 0.114253 -0.0268464 0.993089 0.114253 -0.0268464 0.993089 0.114253 -0.0268464 0.993089 0.114253 -0.0268464 0.993089 0.114269 -0.0267801 0.993089 0.114269 -0.0267801 0.993089 0.114269 -0.0267801 0.993089 0.114269 -0.0267801 0.993089 0.11429 -0.0266917 0.993089 0.11429 -0.0266917 0.993089 0.11429 -0.0266917 0.993089 0.11429 -0.0266917 0.993089 0.114315 -0.0265813 0.993089 0.114315 -0.0265813 0.993089 0.114315 -0.0265813 0.993089 0.114315 -0.0265813 0.993089 0.114346 -0.026449 0.993089 0.114346 -0.026449 0.993089 0.114346 -0.026449 0.993089 0.114346 -0.026449 0.993089 0.114382 -0.0262947 0.993089 0.114382 -0.0262947 0.993089 0.114382 -0.0262947 0.993089 0.114382 -0.0262947 0.993089 0.114422 -0.0261187 0.993089 0.114422 -0.0261187 0.993089 0.114422 -0.0261187 0.993089 0.114422 -0.0261187 0.993089 0.114467 -0.0259208 0.993089 0.114467 -0.0259208 0.993089 0.114467 -0.0259208 0.993089 0.114467 -0.0259208 0.993089 0.114516 -0.0257014 0.993089 0.114516 -0.0257014 0.993089 0.114516 -0.0257014 0.993089 0.114516 -0.0257014 0.993089 0.11457 -0.0254604 0.993089 0.11457 -0.0254604 0.993089 0.11457 -0.0254604 0.993089 0.11457 -0.0254604 0.993089 0.114628 -0.0251979 0.993089 0.114628 -0.0251979 0.993089 0.114628 -0.0251979 0.993089 0.114628 -0.0251979 0.993089 0.11469 -0.0249142 0.993089 0.11469 -0.0249142 0.993089 0.11469 -0.0249142 0.993089 0.11469 -0.0249142 0.993089 0.114756 -0.0246094 0.993089 0.114756 -0.0246094 0.993089 0.114756 -0.0246094 0.993089 0.114756 -0.0246094 0.993089 0.114825 -0.0242836 0.993089 0.114825 -0.0242836 0.993089 0.114825 -0.0242836 0.993089 0.114825 -0.0242836 0.993089 0.114898 -0.0239371 0.993089 0.114898 -0.0239371 0.993089 0.114898 -0.0239371 0.993089 0.114898 -0.0239371 0.993089 0.114974 -0.0235699 0.993089 0.114974 -0.0235699 0.993089 0.114974 -0.0235699 0.993089 0.114974 -0.0235699 0.993089 0.115053 -0.0231823 0.993089 0.115053 -0.0231823 0.993089 0.115053 -0.0231823 0.993089 0.115053 -0.0231823 0.993089 0.115134 -0.0227746 0.993089 0.115134 -0.0227746 0.993089 0.115134 -0.0227746 0.993089 0.115134 -0.0227746 0.993089 0.115218 -0.022347 0.993089 0.115218 -0.022347 0.993089 0.115218 -0.022347 0.993089 0.115218 -0.022347 0.993089 0.115304 -0.0218998 0.993089 0.115304 -0.0218998 0.993089 0.115304 -0.0218998 0.993089 0.115304 -0.0218998 0.993089 0.115391 -0.0214331 0.993089 0.115391 -0.0214331 0.993089 0.115391 -0.0214331 0.993089 0.115391 -0.0214331 0.993089 0.115481 -0.0209475 0.993089 0.115481 -0.0209475 0.993089 0.115481 -0.0209475 0.993089 0.115481 -0.0209475 0.993089 0.115571 -0.020443 0.993089 0.115571 -0.020443 0.993089 0.115571 -0.020443 0.993089 0.115571 -0.020443 0.993089 0.115662 -0.0199202 0.993089 0.115662 -0.0199202 0.993089 0.115662 -0.0199202 0.993089 0.115662 -0.0199202 0.993089 0.115754 -0.0193793 0.993089 0.115754 -0.0193793 0.993089 0.115754 -0.0193793 0.993089 0.115754 -0.0193793 0.993089 0.115846 -0.0188207 0.993089 0.115846 -0.0188207 0.993089 0.115846 -0.0188207 0.993089 0.115846 -0.0188207 0.993089 0.115938 -0.0182449 0.993089 0.115938 -0.0182449 0.993089 0.115938 -0.0182449 0.993089 0.115938 -0.0182449 0.993089 0.11603 -0.0176523 0.993089 0.11603 -0.0176523 0.993089 0.11603 -0.0176523 0.993089 0.11603 -0.0176523 0.993089 0.116121 -0.0170433 0.993089 0.116121 -0.0170433 0.993089 0.116121 -0.0170433 0.993089 0.116121 -0.0170433 0.993089 0.116211 -0.0164183 0.993089 0.116211 -0.0164183 0.993089 0.116211 -0.0164183 0.993089 0.116211 -0.0164183 0.993089 0.1163 -0.015778 0.993089 0.1163 -0.015778 0.993089 0.1163 -0.015778 0.993089 0.1163 -0.015778 0.993089 0.116387 -0.0151227 0.993089 0.116387 -0.0151227 0.993089 0.116387 -0.0151227 0.993089 0.116387 -0.0151227 0.993089 0.116472 -0.0144531 0.993089 0.116472 -0.0144531 0.993089 0.116472 -0.0144531 0.993089 0.116472 -0.0144531 0.993089 0.116554 -0.0137697 0.993089 0.116554 -0.0137697 0.993089 0.116554 -0.0137697 0.993089 0.116554 -0.0137697 0.993089 0.116635 -0.013073 0.993089 0.116635 -0.013073 0.993089 0.116635 -0.013073 0.993089 0.116635 -0.013073 0.993089 0.116712 -0.0123637 0.993089 0.116712 -0.0123637 0.993089 0.116712 -0.0123637 0.993089 0.116712 -0.0123637 0.993089 0.116786 -0.0116424 0.993089 0.116786 -0.0116424 0.993089 0.116786 -0.0116424 0.993089 0.116786 -0.0116424 0.993089 0.116857 -0.0109098 0.993089 0.116857 -0.0109098 0.993089 0.116857 -0.0109098 0.993089 0.116857 -0.0109098 0.993089 0.116924 -0.0101664 0.993089 0.116924 -0.0101664 0.993089 0.116924 -0.0101664 0.993089 0.116924 -0.0101664 0.993089 0.116987 -0.00941311 0.993089 0.116987 -0.00941311 0.993089 0.116987 -0.00941311 0.993089 0.116987 -0.00941311 0.993089 0.117046 -0.00865049 0.993089 0.117046 -0.00865049 0.993089 0.117046 -0.00865049 0.993089 0.117046 -0.00865049 0.993089 0.1171 -0.00787929 0.993089 0.1171 -0.00787929 0.993089 0.1171 -0.00787929 0.993089 0.1171 -0.00787929 0.993089 0.11715 -0.00710025 0.993089 0.11715 -0.00710025 0.993089 0.11715 -0.00710025 0.993089 0.11715 -0.00710025 0.993089 0.117195 -0.00631412 0.993089 0.117195 -0.00631412 0.993089 0.117195 -0.00631412 0.993089 0.117195 -0.00631412 0.993089 0.117235 -0.00552168 0.993089 0.117235 -0.00552168 0.993089 0.117235 -0.00552168 0.993089 0.117235 -0.00552168 0.993089 0.11727 -0.00472369 0.993089 0.11727 -0.00472369 0.993089 0.11727 -0.00472369 0.993089 0.11727 -0.00472369 0.993089 0.1173 -0.00392095 0.993089 0.1173 -0.00392095 0.993089 0.1173 -0.00392095 0.993089 0.1173 -0.00392095 0.993089 0.117324 -0.00311427 0.993089 0.117324 -0.00311427 0.993089 0.117324 -0.00311427 0.993089 0.117324 -0.00311427 0.993089 0.117342 -0.00230444 0.993089 0.117342 -0.00230444 0.993089 0.117342 -0.00230444 0.993089 0.117342 -0.00230444 0.993089 0.117356 -0.00149228 0.993089 0.117356 -0.00149228 0.993089 0.117356 -0.00149228 0.993089 0.117356 -0.00149228 0.993089 0.117363 -0.000678615 0.993089 0.117363 -0.000678615 0.993089 0.117363 -0.000678615 0.993089 0.117363 -0.000678615 0.993089 0.117365 0.000135738 0.993089 0.117365 0.000135738 0.993089 0.117365 0.000135738 0.993089 0.117365 0.000135738 0.993089 0.117361 0.000949954 0.993089 0.117361 0.000949954 0.993089 0.117361 0.000949954 0.993089 0.117361 0.000949954 0.993089 0.117352 0.00176321 0.993089 0.117352 0.00176321 0.993089 0.117352 0.00176321 0.993089 0.117352 0.00176321 0.993089 0.117337 0.00257468 0.993089 0.117337 0.00257468 0.993089 0.117337 0.00257468 0.993089 0.117337 0.00257468 0.993089 0.117316 0.00338355 0.993089 0.117316 0.00338355 0.993089 0.117316 0.00338355 0.993089 0.117316 0.00338355 0.993089 0.11729 0.00418901 0.993089 0.11729 0.00418901 0.993089 0.11729 0.00418901 0.993089 0.11729 0.00418901 0.993089 0.117259 0.00499025 0.993089 0.117259 0.00499025 0.993089 0.117259 0.00499025 0.993089 0.117259 0.00499025 0.993089 0.117222 0.00578648 0.993089 0.117222 0.00578648 0.993089 0.117222 0.00578648 0.993089 0.117222 0.00578648 0.993089 0.117181 0.0065769 0.993089 0.117181 0.0065769 0.993089 0.117181 0.0065769 0.993089 0.117181 0.0065769 0.993089 0.117134 0.00736075 0.993089 0.117134 0.00736075 0.993089 0.117134 0.00736075 0.993089 0.117134 0.00736075 0.993089 0.117083 0.00813726 0.993089 0.117083 0.00813726 0.993089 0.117083 0.00813726 0.993089 0.117083 0.00813726 0.993089 0.117027 0.00890568 0.993089 0.117027 0.00890568 0.993089 0.117027 0.00890568 0.993089 0.117027 0.00890568 0.993089 0.116966 0.00966529 0.993089 0.116966 0.00966529 0.993089 0.116966 0.00966529 0.993089 0.116966 0.00966529 0.993089 0.116902 0.0104154 0.993089 0.116902 0.0104154 0.993089 0.116902 0.0104154 0.993089 0.116902 0.0104154 0.993089 0.116834 0.0111552 0.993089 0.116834 0.0111552 0.993089 0.116834 0.0111552 0.993089 0.116834 0.0111552 0.993089 0.116762 0.0118841 0.993089 0.116762 0.0118841 0.993089 0.116762 0.0118841 0.993089 0.116762 0.0118841 0.993089 0.116687 0.0126015 0.993089 0.116687 0.0126015 0.993089 0.116687 0.0126015 0.993089 0.116687 0.0126015 0.993089 0.116608 0.0133066 0.993089 0.116608 0.0133066 0.993089 0.116608 0.0133066 0.993089 0.116608 0.0133066 0.993089 0.116527 0.013999 0.993089 0.116527 0.013999 0.993089 0.116527 0.013999 0.993089 0.116527 0.013999 0.993089 0.116444 0.0146779 0.993089 0.116444 0.0146779 0.993089 0.116444 0.0146779 0.993089 0.116444 0.0146779 0.993089 0.116358 0.0153428 0.993089 0.116358 0.0153428 0.993089 0.116358 0.0153428 0.993089 0.116358 0.0153428 0.993089 0.11627 0.0159931 0.993089 0.11627 0.0159931 0.993089 0.11627 0.0159931 0.993089 0.11627 0.0159931 0.993089 0.116181 0.0166284 0.993089 0.116181 0.0166284 0.993089 0.116181 0.0166284 0.993089 0.116181 0.0166284 0.993089 0.116091 0.0172481 0.993089 0.116091 0.0172481 0.993089 0.116091 0.0172481 0.993089 0.116091 0.0172481 0.993089 0.115999 0.0178517 0.993089 0.115999 0.0178517 0.993089 0.115999 0.0178517 0.993089 0.115999 0.0178517 0.993089 0.115908 0.0184388 0.993089 0.115908 0.0184388 0.993089 0.115908 0.0184388 0.993089 0.115908 0.0184388 0.993089 0.115815 0.0190089 0.993089 0.115815 0.0190089 0.993089 0.115815 0.0190089 0.993089 0.115815 0.0190089 0.993089 0.115723 0.0195616 0.993089 0.115723 0.0195616 0.993089 0.115723 0.0195616 0.993089 0.115723 0.0195616 0.993089 0.115632 0.0200965 0.993089 0.115632 0.0200965 0.993089 0.115632 0.0200965 0.993089 0.115632 0.0200965 0.993089 0.115541 0.0206132 0.993089 0.115541 0.0206132 0.993089 0.115541 0.0206132 0.993089 0.115541 0.0206132 0.993089 0.115451 0.0211115 0.993089 0.115451 0.0211115 0.993089 0.115451 0.0211115 0.993089 0.115451 0.0211115 0.993089 0.115362 0.0215908 0.993089 0.115362 0.0215908 0.993089 0.115362 0.0215908 0.993089 0.115362 0.0215908 0.993089 0.115275 0.022051 0.993089 0.115275 0.022051 0.993089 0.115275 0.022051 0.993089 0.115275 0.022051 0.993089 0.11519 0.0224918 0.993089 0.11519 0.0224918 0.993089 0.11519 0.0224918 0.993089 0.11519 0.0224918 0.993089 0.115107 0.0229128 0.993089 0.115107 0.0229128 0.993089 0.115107 0.0229128 0.993089 0.115107 0.0229128 0.993089 0.115026 0.0233138 0.993089 0.115026 0.0233138 0.993089 0.115026 0.0233138 0.993089 0.115026 0.0233138 0.993089 0.114948 0.0236946 0.993089 0.114948 0.0236946 0.993089 0.114948 0.0236946 0.993089 0.114948 0.0236946 0.993089 0.114873 0.0240549 0.993089 0.114873 0.0240549 0.993089 0.114873 0.0240549 0.993089 0.114873 0.0240549 0.993089 0.114802 0.0243946 0.993089 0.114802 0.0243946 0.993089 0.114802 0.0243946 0.993089 0.114802 0.0243946 0.993089 0.114734 0.0247134 0.993089 0.114734 0.0247134 0.993089 0.114734 0.0247134 0.993089 0.114734 0.0247134 0.993089 0.114669 0.0250112 0.993089 0.114669 0.0250112 0.993089 0.114669 0.0250112 0.993089 0.114669 0.0250112 0.993089 0.114608 0.0252878 0.993089 0.114608 0.0252878 0.993089 0.114608 0.0252878 0.993089 0.114608 0.0252878 0.993089 0.114552 0.0255431 0.993089 0.114552 0.0255431 0.993089 0.114552 0.0255431 0.993089 0.114552 0.0255431 0.993089 0.114499 0.0257769 0.993089 0.114499 0.0257769 0.993089 0.114499 0.0257769 0.993089 0.114499 0.0257769 0.993089 0.114451 0.0259892 0.993089 0.114451 0.0259892 0.993089 0.114451 0.0259892 0.993089 0.114451 0.0259892 0.993089 0.114408 0.0261798 0.993089 0.114408 0.0261798 0.993089 0.114408 0.0261798 0.993089 0.114408 0.0261798 0.993089 0.114369 0.0263486 0.993089 0.114369 0.0263486 0.993089 0.114369 0.0263486 0.993089 0.114369 0.0263486 0.993089 0.114335 0.0264955 0.993089 0.114335 0.0264955 0.993089 0.114335 0.0264955 0.993089 0.114335 0.0264955 0.993089 0.114306 0.0266206 0.993089 0.114306 0.0266206 0.993089 0.114306 0.0266206 0.993089 0.114306 0.0266206 0.993089 0.114282 0.0267236 0.993089 0.114282 0.0267236 0.993089 0.114282 0.0267236 0.993089 0.114282 0.0267236 0.993089 0.114263 0.0268046 0.993089 0.114263 0.0268046 0.993089 0.114263 0.0268046 0.993089 0.114263 0.0268046 0.993089 0.114249 0.0268636 0.993089 0.114249 0.0268636 0.993089 0.114249 0.0268636 0.993089 0.114249 0.0268636 0.993089 0.114241 0.0269005 0.993089 0.114241 0.0269005 0.993089 0.114241 0.0269005 0.993089 0.114241 0.0269005 0.993089 0.114237 0.0269152 0.993089 0.114237 0.0269152 0.993089 0.114237 0.0269152 0.993089 0.114237 0.0269152 0.993089 0.114239 0.0269078 0.993089 0.114239 0.0269078 0.993089 0.114239 0.0269078 0.993089 0.114239 0.0269078 0.993089 0.114246 0.0268783 0.993089 0.114246 0.0268783 0.993089 0.114246 0.0268783 0.993089 0.114246 0.0268783 0.993089 0.114258 0.0268267 0.993089 0.114258 0.0268267 0.993089 0.114258 0.0268267 0.993089 0.114258 0.0268267 0.993089 0.114275 0.0267531 0.993089 0.114275 0.0267531 0.993089 0.114275 0.0267531 0.993089 0.114275 0.0267531 0.993089 0.114298 0.0266574 0.993089 0.114298 0.0266574 0.993089 0.114298 0.0266574 0.993089 0.114298 0.0266574 0.993089 0.114325 0.0265397 0.993089 0.114325 0.0265397 0.993089 0.114325 0.0265397 0.993089 0.114325 0.0265397 0.993089 0.114357 0.0264 0.993089 0.114357 0.0264 0.993089 0.114357 0.0264 0.993089 0.114357 0.0264 0.993089 0.114394 0.0262385 0.993089 0.114394 0.0262385 0.993089 0.114394 0.0262385 0.993089 0.114394 0.0262385 0.993089 0.114436 0.0260551 0.993089 0.114436 0.0260551 0.993089 0.114436 0.0260551 0.993089 0.114436 0.0260551 0.993089 0.114483 0.0258501 0.993089 0.114483 0.0258501 0.993089 0.114483 0.0258501 0.993089 0.114483 0.0258501 0.993089 0.114534 0.0256234 0.993089 0.114534 0.0256234 0.993089 0.114534 0.0256234 0.993089 0.114534 0.0256234 0.993089 0.114589 0.0253753 0.993089 0.114589 0.0253753 0.993089 0.114589 0.0253753 0.993089 0.114589 0.0253753 0.993089 0.114648 0.0251057 0.993089 0.114648 0.0251057 0.993089 0.114648 0.0251057 0.993089 0.114648 0.0251057 0.993089 0.114712 0.024815 0.993089 0.114712 0.024815 0.993089 0.114712 0.024815 0.993089 0.114712 0.024815 0.993089 0.114779 0.0245031 0.993089 0.114779 0.0245031 0.993089 0.114779 0.0245031 0.993089 0.114779 0.0245031 0.993089 0.114849 0.0241704 0.993089 0.114849 0.0241704 0.993089 0.114849 0.0241704 0.993089 0.114849 0.0241704 0.993089 0.114923 0.023817 0.993089 0.114923 0.023817 0.993089 0.114923 0.023817 0.993089 0.114923 0.023817 0.993089 0.115 0.023443 0.993089 0.115 0.023443 0.993089 0.115 0.023443 0.993089 0.115 0.023443 0.993089 0.11508 0.0230487 0.993089 0.11508 0.0230487 0.993089 0.11508 0.0230487 0.993089 0.11508 0.0230487 0.993089 0.115162 0.0226343 0.993089 0.115162 0.0226343 0.993089 0.115162 0.0226343 0.993089 0.115162 0.0226343 0.993089 0.115246 0.0222001 0.993089 0.115246 0.0222001 0.993089 0.115246 0.0222001 0.993089 0.115246 0.0222001 0.993089 0.115333 0.0217464 0.993089 0.115333 0.0217464 0.993089 0.115333 0.0217464 0.993089 0.115333 0.0217464 0.993089 0.115421 0.0212734 0.993089 0.115421 0.0212734 0.993089 0.115421 0.0212734 0.993089 0.115421 0.0212734 0.993089 0.115511 0.0207814 0.993089 0.115511 0.0207814 0.993089 0.115511 0.0207814 0.993089 0.115511 0.0207814 0.993089 0.115601 0.0202708 0.993089 0.115601 0.0202708 0.993089 0.115601 0.0202708 0.993089 0.115601 0.0202708 0.993089 0.115693 0.0197419 0.993089 0.115693 0.0197419 0.993089 0.115693 0.0197419 0.993089 0.115693 0.0197419 0.993089 0.115785 0.0191951 0.993089 0.115785 0.0191951 0.993089 0.115785 0.0191951 0.993089 0.115785 0.0191951 0.993089 0.115877 0.0186307 0.993089 0.115877 0.0186307 0.993089 0.115877 0.0186307 0.993089 0.115877 0.0186307 0.993089 0.115969 0.0180492 0.993089 0.115969 0.0180492 0.993089 0.115969 0.0180492 0.993089 0.115969 0.0180492 0.993089 0.11606 0.0174511 0.993089 0.11606 0.0174511 0.993089 0.11606 0.0174511 0.993089 0.11606 0.0174511 0.993089 0.116151 0.0168367 0.993089 0.116151 0.0168367 0.993089 0.116151 0.0168367 0.993089 0.116151 0.0168367 0.993089 0.116241 0.0162066 0.993089 0.116241 0.0162066 0.993089 0.116241 0.0162066 0.993089 0.116241 0.0162066 0.993089 0.116329 0.0155612 0.993089 0.116329 0.0155612 0.993089 0.116329 0.0155612 0.993089 0.116329 0.0155612 0.993089 0.116415 0.0149011 0.993089 0.116415 0.0149011 0.993089 0.116415 0.0149011 0.993089 0.116415 0.0149011 0.993089 0.1165 0.0142268 0.993089 0.1165 0.0142268 0.993089 0.1165 0.0142268 0.993089 0.1165 0.0142268 0.993089 0.116582 0.0135389 0.993089 0.116582 0.0135389 0.993089 0.116582 0.0135389 0.993089 0.116582 0.0135389 0.993089 0.116661 0.0128379 0.993089 0.116661 0.0128379 0.993089 0.116661 0.0128379 0.993089 0.116661 0.0128379 0.993089 0.116737 0.0121246 0.993089 0.116737 0.0121246 0.993089 0.116737 0.0121246 0.993089 0.116737 0.0121246 0.993089 0.11681 0.0113994 0.993089 0.11681 0.0113994 0.993089 0.11681 0.0113994 0.993089 0.11681 0.0113994 0.993089 0.11688 0.0106631 0.993089 0.11688 0.0106631 0.993089 0.11688 0.0106631 0.993089 0.11688 0.0106631 0.993089 0.116945 0.00991641 0.993089 0.116945 0.00991641 0.993089 0.116945 0.00991641 0.993089 0.116945 0.00991641 0.993089 0.117007 0.0091599 0.993089 0.117007 0.0091599 0.993089 0.117007 0.0091599 0.993089 0.117007 0.0091599 0.993089 0.117064 0.00839434 0.993089 0.117064 0.00839434 0.993089 0.117064 0.00839434 0.993089 0.117064 0.00839434 0.993089 0.117117 0.00762044 0.993089 0.117117 0.00762044 0.993089 0.117117 0.00762044 0.993089 0.117117 0.00762044 0.993089 0.117166 0.00683896 0.993089 0.117166 0.00683896 0.993089 0.117166 0.00683896 0.993089 0.117166 0.00683896 0.993089 0.117209 0.00605064 0.993089 0.117209 0.00605064 0.993089 0.117209 0.00605064 0.993089 0.117209 0.00605064 0.993089 0.117247 0.00525626 0.993089 0.117247 0.00525626 0.993089 0.117247 0.00525626 0.993089 0.117247 0.00525626 0.993089 0.11728 0.0044566 0.993089 0.11728 0.0044566 0.993089 0.11728 0.0044566 0.993089 0.11728 0.0044566 0.993089 0.117308 0.00365246 0.993089 0.117308 0.00365246 0.993089 0.117308 0.00365246 0.993089 0.117308 0.00365246 0.993089 0.117331 0.00284463 0.993089 0.117331 0.00284463 0.993089 0.117331 0.00284463 0.993089 0.117331 0.00284463 0.993089 0.117347 0.00203394 0.993089 0.117347 0.00203394 0.993089 0.117347 0.00203394 0.993089 0.117347 0.00203394 0.993089 0.117359 0.00122119 0.993089 0.117359 0.00122119 0.993089 0.117359 0.00122119 0.993089 0.117359 0.00122119 0.993089 0.117364 0.000407199 0.993089 0.117364 0.000407199 0.993089 0.117364 0.000407199 0.993089 0.117364 0.000407199 0.993089</float_array>
          <technique_common><accessor source="#farm_verge_right_normals_array" count="640" stride="3"><param name="X" type="float"/><param name="Y" type="float"/><param name="Z" type="float"/></accessor></technique_common>
        </source>
        <source id="farm_verge_right_uv">
          <float_array id="farm_verge_right_uv_array" count="1280">0 0 0 0.369218 0.256844 0.369218 0.256844 0 0.256844 0 0.256844 0.369218 0.513676 0.369218 0.513676 0 0.513676 0 0.513676 0.369218 0.770485 0.369218 0.770485 0 0.770485 0 0.770485 0.369218 1.02726 0.369218 1.02726 0 1.02726 0 1.02726 0.369218 1.28399 0.369218 1.28399 0 1.28399 0 1.28399 0.369218 1.54066 0.369218 1.54066 0 1.54066 0 1.54066 0.369218 1.79726 0.369218 1.79726 0 1.79726 0 1.79726 0.369218 2.05378 0.369218 2.05378 0 2.05378 0 2.05378 0.369218 2.31021 0.369218 2.31021 0 2.31021 0 2.31021 0.369218 2.56654 0.369218 2.56654 0 2.56654 0 2.56654 0.369218 2.82276 0.369218 2.82276 0 2.82276 0 2.82276 0.369218 3.07886 0.369218 3.07886 0 3.07886 0 3.07886 0.369218 3.33482 0.369218 3.33482 0 3.33482 0 3.33482 0.369218 3.59065 0.369218 3.59065 0 3.59065 0 3.59065 0.369218 3.84634 0.369218 3.84634 0 3.84634 0 3.84634 0.369218 4.10187 0.369218 4.10187 0 4.10187 0 4.10187 0.369218 4.35724 0.369218 4.35724 0 4.35724 0 4.35724 0.369218 4.61244 0.369218 4.61244 0 4.61244 0 4.61244 0.369218 4.86746 0.369218 4.86746 0 4.86746 0 4.86746 0.369218 5.1223 0.369218 5.1223 0 5.1223 0 5.1223 0.369218 5.37696 0.369218 5.37696 0 5.37696 0 5.37696 0.369218 5.63143 0.369218 5.63143 0 5.63143 0 5.63143 0.369218 5.88571 0.369218 5.88571 0 5.88571 0 5.88571 0.369218 6.13979 0.369218 6.13979 0 6.13979 0 6.13979 0.369218 6.39367 0.369218 6.39367 0 6.39367 0 6.39367 0.369218 6.64735 0.369218 6.64735 0 6.64735 0 6.64735 0.369218 6.90083 0.369218 6.90083 0 6.90083 0 6.90083 0.369218 7.15411 0.369218 7.15411 0 7.15411 0 7.15411 0.369218 7.40718 0.369218 7.40718 0 7.40718 0 7.40718 0.369218 7.66006 0.369218 7.66006 0 7.66006 0 7.66006 0.369218 7.91274 0.369218 7.91274 0 7.91274 0 7.91274 0.369218 8.16522 0.369218 8.16522 0 8.16522 0 8.16522 0.369218 8.41751 0.369218 8.41751 0 8.41751 0 8.41751 0.369218 8.66961 0.369218 8.66961 0 8.66961 0 8.66961 0.369218 8.92153 0.369218 8.92153 0 8.92153 0 8.92153 0.369218 9.17327 0.369218 9.17327 0 9.17327 0 9.17327 0.369218 9.42483 0.369218 9.42483 0 9.42483 0 9.42483 0.369218 9.67623 0.369218 9.67623 0 9.67623 0 9.67623 0.369218 9.92747 0.369218 9.92747 0 9.92747 0 9.92747 0.369218 10.1786 0.369218 10.1786 0 10.1786 0 10.1786 0.369218 10.4295 0.369218 10.4295 0 10.4295 0 10.4295 0.369218 10.6803 0.369218 10.6803 0 10.6803 0 10.6803 0.369218 10.931 0.369218 10.931 0 10.931 0 10.931 0.369218 11.1816 0.369218 11.1816 0 11.1816 0 11.1816 0.369218 11.432 0.369218 11.432 0 11.432 0 11.432 0.369218 11.6824 0.369218 11.6824 0 11.6824 0 11.6824 0.369218 11.9327 0.369218 11.9327 0 11.9327 0 11.9327 0.369218 12.1829 0.369218 12.1829 0 12.1829 0 12.1829 0.369218 12.433 0.369218 12.433 0 12.433 0 12.433 0.369218 12.6831 0.369218 12.6831 0 12.6831 0 12.6831 0.369218 12.9331 0.369218 12.9331 0 12.9331 0 12.9331 0.369218 13.1832 0.369218 13.1832 0 13.1832 0 13.1832 0.369218 13.4332 0.369218 13.4332 0 13.4332 0 13.4332 0.369218 13.6832 0.369218 13.6832 0 13.6832 0 13.6832 0.369218 13.9332 0.369218 13.9332 0 13.9332 0 13.9332 0.369218 14.1832 0.369218 14.1832 0 14.1832 0 14.1832 0.369218 14.4333 0.369218 14.4333 0 14.4333 0 14.4333 0.369218 14.6834 0.369218 14.6834 0 14.6834 0 14.6834 0.369218 14.9335 0.369218 14.9335 0 14.9335 0 14.9335 0.369218 15.1837 0.369218 15.1837 0 15.1837 0 15.1837 0.369218 15.434 0.369218 15.434 0 15.434 0 15.434 0.369218 15.6844 0.369218 15.6844 0 15.6844 0 15.6844 0.369218 15.9349 0.369218 15.9349 0 15.9349 0 15.9349 0.369218 16.1855 0.369218 16.1855 0 16.1855 0 16.1855 0.369218 16.4363 0.369218 16.4363 0 16.4363 0 16.4363 0.369218 16.6871 0.369218 16.6871 0 16.6871 0 16.6871 0.369218 16.9381 0.369218 16.9381 0 16.9381 0 16.9381 0.369218 17.1892 0.369218 17.1892 0 17.1892 0 17.1892 0.369218 17.4405 0.369218 17.4405 0 17.4405 0 17.4405 0.369218 17.692 0.369218 17.692 0 17.692 0 17.692 0.369218 17.9436 0.369218 17.9436 0 17.9436 0 17.9436 0.369218 18.1954 0.369218 18.1954 0 18.1954 0 18.1954 0.369218 18.4474 0.369218 18.4474 0 18.4474 0 18.4474 0.369218 18.6995 0.369218 18.6995 0 18.6995 0 18.6995 0.369218 18.9519 0.369218 18.9519 0 18.9519 0 18.9519 0.369218 19.2045 0.369218 19.2045 0 19.2045 0 19.2045 0.369218 19.4572 0.369218 19.4572 0 19.4572 0 19.4572 0.369218 19.7101 0.369218 19.7101 0 19.7101 0 19.7101 0.369218 19.9633 0.369218 19.9633 0 19.9633 0 19.9633 0.369218 20.2166 0.369218 20.2166 0 20.2166 0 20.2166 0.369218 20.4702 0.369218 20.4702 0 20.4702 0 20.4702 0.369218 20.7239 0.369218 20.7239 0 20.7239 0 20.7239 0.369218 20.9779 0.369218 20.9779 0 20.9779 0 20.9779 0.369218 21.232 0.369218 21.232 0 21.232 0 21.232 0.369218 21.4864 0.369218 21.4864 0 21.4864 0 21.4864 0.369218 21.7409 0.369218 21.7409 0 21.7409 0 21.7409 0.369218 21.9956 0.369218 21.9956 0 21.9956 0 21.9956 0.369218 22.2505 0.369218 22.2505 0 22.2505 0 22.2505 0.369218 22.5056 0.369218 22.5056 0 22.5056 0 22.5056 0.369218 22.7609 0.369218 22.7609 0 22.7609 0 22.7609 0.369218 23.0163 0.369218 23.0163 0 23.0163 0 23.0163 0.369218 23.2719 0.369218 23.2719 0 23.2719 0 23.2719 0.369218 23.5276 0.369218 23.5276 0 23.5276 0 23.5276 0.369218 23.7835 0.369218 23.7835 0 23.7835 0 23.7835 0.369218 24.0395 0.369218 24.0395 0 24.0395 0 24.0395 0.369218 24.2956 0.369218 24.2956 0 24.2956 0 24.2956 0.369218 24.5519 0.369218 24.5519 0 24.5519 0 24.5519 0.369218 24.8082 0.369218 24.8082 0 24.8082 0 24.8082 0.369218 25.0647 0.369218 25.0647 0 25.0647 0 25.0647 0.369218 25.3213 0.369218 25.3213 0 25.3213 0 25.3213 0.369218 25.5779 0.369218 25.5779 0 25.5779 0 25.5779 0.369218 25.8346 0.369218 25.8346 0 25.8346 0 25.8346 0.369218 26.0913 0.369218 26.0913 0 26.0913 0 26.0913 0.369218 26.3481 0.369218 26.3481 0 26.3481 0 26.3481 0.369218 26.6049 0.369218 26.6049 0 26.6049 0 26.6049 0.369218 26.8618 0.369218 26.8618 0 26.8618 0 26.8618 0.369218 27.1186 0.369218 27.1186 0 27.1186 0 27.1186 0.369218 27.3754 0.369218 27.3754 0 27.3754 0 27.3754 0.369218 27.6323 0.369218 27.6323 0 27.6323 0 27.6323 0.369218 27.8891 0.369218 27.8891 0 27.8891 0 27.8891 0.369218 28.1458 0.369218 28.1458 0 28.1458 0 28.1458 0.369218 28.4025 0.369218 28.4025 0 28.4025 0 28.4025 0.369218 28.6592 0.369218 28.6592 0 28.6592 0 28.6592 0.369218 28.9158 0.369218 28.9158 0 28.9158 0 28.9158 0.369218 29.1722 0.369218 29.1722 0 29.1722 0 29.1722 0.369218 29.4286 0.369218 29.4286 0 29.4286 0 29.4286 0.369218 29.6849 0.369218 29.6849 0 29.6849 0 29.6849 0.369218 29.9411 0.369218 29.9411 0 29.9411 0 29.9411 0.369218 30.1972 0.369218 30.1972 0 30.1972 0 30.1972 0.369218 30.4531 0.369218 30.4531 0 30.4531 0 30.4531 0.369218 30.7089 0.369218 30.7089 0 30.7089 0 30.7089 0.369218 30.9645 0.369218 30.9645 0 30.9645 0 30.9645 0.369218 31.22 0.369218 31.22 0 31.22 0 31.22 0.369218 31.4753 0.369218 31.4753 0 31.4753 0 31.4753 0.369218 31.7304 0.369218 31.7304 0 31.7304 0 31.7304 0.369218 31.9854 0.369218 31.9854 0 31.9854 0 31.9854 0.369218 32.2402 0.369218 32.2402 0 32.2402 0 32.2402 0.369218 32.4948 0.369218 32.4948 0 32.4948 0 32.4948 0.369218 32.7492 0.369218 32.7492 0 32.7492 0 32.7492 0.369218 33.0034 0.369218 33.0034 0 33.0034 0 33.0034 0.369218 33.2574 0.369218 33.2574 0 33.2574 0 33.2574 0.369218 33.5112 0.369218 33.5112 0 33.5112 0 33.5112 0.369218 33.7648 0.369218 33.7648 0 33.7648 0 33.7648 0.369218 34.0183 0.369218 34.0183 0 34.0183 0 34.0183 0.369218 34.2715 0.369218 34.2715 0 34.2715 0 34.2715 0.369218 34.5245 0.369218 34.5245 0 34.5245 0 34.5245 0.369218 34.7773 0.369218 34.7773 0 34.7773 0 34.7773 0.369218 35.0299 0.369218 35.0299 0 35.0299 0 35.0299 0.369218 35.2823 0.369218 35.2823 0 35.2823 0 35.2823 0.369218 35.5346 0.369218 35.5346 0 35.5346 0 35.5346 0.369218 35.7866 0.369218 35.7866 0 35.7866 0 35.7866 0.369218 36.0384 0.369218 36.0384 0 36.0384 0 36.0384 0.369218 36.2901 0.369218 36.2901 0 36.2901 0 36.2901 0.369218 36.5416 0.369218 36.5416 0 36.5416 0 36.5416 0.369218 36.793 0.369218 36.793 0 36.793 0 36.793 0.369218 37.0442 0.369218 37.0442 0 37.0442 0 37.0442 0.369218 37.2952 0.369218 37.2952 0 37.2952 0 37.2952 0.369218 37.5461 0.369218 37.5461 0 37.5461 0 37.5461 0.369218 37.7969 0.369218 37.7969 0 37.7969 0 37.7969 0.369218 38.0475 0.369218 38.0475 0 38.0475 0 38.0475 0.369218 38.298 0.369218 38.298 0 38.298 0 38.298 0.369218 38.5485 0.369218 38.5485 0 38.5485 0 38.5485 0.369218 38.7988 0.369218 38.7988 0 38.7988 0 38.7988 0.369218 39.049 0.369218 39.049 0 39.049 0 39.049 0.369218 39.2992 0.369218 39.2992 0 39.2992 0 39.2992 0.369218 39.5494 0.369218 39.5494 0 39.5494 0 39.5494 0.369218 39.7994 0.369218 39.7994 0 39.7994 0 39.7994 0.369218 40.0495 0.369218 40.0495 0 40.0495 0 40.0495 0.369218 40.2995 0.369218 40.2995 0 40.2995 0 40.2995 0.369218 40.5495 0.369218 40.5495 0</float_array>
          <technique_common><accessor source="#farm_verge_right_uv_array" count="640" stride="2"><param name="S" type="float"/><param name="T" type="float"/></accessor></technique_common>
        </source>
        <vertices id="farm_verge_right_vertices"><input semantic="POSITION" source="#farm_verge_right_positions"/></vertices>
        <triangles material="farm_verge_right_material" count="320">
          <input semantic="VERTEX" source="#farm_verge_right_vertices" offset="0"/>
          <input semantic="NORMAL" source="#farm_verge_right_normals" offset="1"/>
          <input semantic="TEXCOORD" source="#farm_verge_right_uv" offset="2" set="0"/>
          <p>0 0 0 1 1 1 2 2 2 0 0 0 2 2 2 3 3 3 4 4 4 5 5 5 6 6 6 4 4 4 6 6 6 7 7 7 8 8 8 9 9 9 10 10 10 8 8 8 10 10 10 11 11 11 12 12 12 13 13 13 14 14 14 12 12 12 14 14 14 15 15 15 16 16 16 17 17 17 18 18 18 16 16 16 18 18 18 19 19 19 20 20 20 21 21 21 22 22 22 20 20 20 22 22 22 23 23 23 24 24 24 25 25 25 26 26 26 24 24 24 26 26 26 27 27 27 28 28 28 29 29 29 30 30 30 28 28 28 30 30 30 31 31 31 32 32 32 33 33 33 34 34 34 32 32 32 34 34 34 35 35 35 36 36 36 37 37 37 38 38 38 36 36 36 38 38 38 39 39 39 40 40 40 41 41 41 42 42 42 40 40 40 42 42 42 43 43 43 44 44 44 45 45 45 46 46 46 44 44 44 46 46 46 47 47 47 48 48 48 49 49 49 50 50 50 48 48 48 50 50 50 51 51 51 52 52 52 53 53 53 54 54 54 52 52 52 54 54 54 55 55 55 56 56 56 57 57 57 58 58 58 56 56 56 58 58 58 59 59 59 60 60 60 61 61 61 62 62 62 60 60 60 62 62 62 63 63 63 64 64 64 65 65 65 66 66 66 64 64 64 66 66 66 67 67 67 68 68 68 69 69 69 70 70 70 68 68 68 70 70 70 71 71 71 72 72 72 73 73 73 74 74 74 72 72 72 74 74 74 75 75 75 76 76 76 77 77 77 78 78 78 76 76 76 78 78 78 79 79 79 80 80 80 81 81 81 82 82 82 80 80 80 82 82 82 83 83 83 84 84 84 85 85 85 86 86 86 84 84 84 86 86 86 87 87 87 88 88 88 89 89 89 90 90 90 88 88 88 90 90 90 91 91 91 92 92 92 93 93 93 94 94 94 92 92 92 94 94 94 95 95 95 96 96 96 97 97 97 98 98 98 96 96 96 98 98 98 99 99 99 100 100 100 101 101 101 102 102 102 100 100 100 102 102 102 103 103 103 104 104 104 105 105 105 106 106 106 104 104 104 106 106 106 107 107 107 108 108 108 109 109 109 110 110 110 108 108 108 110 110 110 111 111 111 112 112 112 113 113 113 114 114 114 112 112 112 114 114 114 115 115 115 116 116 116 117 117 117 118 118 118 116 116 116 118 118 118 119 119 119 120 120 120 121 121 121 122 122 122 120 120 120 122 122 122 123 123 123 124 124 124 125 125 125 126 126 126 124 124 124 126 126 126 127 127 127 128 128 128 129 129 129 130 130 130 128 128 128 130 130 130 131 131 131 132 132 132 133 133 133 134 134 134 132 132 132 134 134 134 135 135 135 136 136 136 137 137 137 138 138 138 136 136 136 138 138 138 139 139 139 140 140 140 141 141 141 142 142 142 140 140 140 142 142 142 143 143 143 144 144 144 145 145 145 146 146 146 144 144 144 146 146 146 147 147 147 148 148 148 149 149 149 150 150 150 148 148 148 150 150 150 151 151 151 152 152 152 153 153 153 154 154 154 152 152 152 154 154 154 155 155 155 156 156 156 157 157 157 158 158 158 156 156 156 158 158 158 159 159 159 160 160 160 161 161 161 162 162 162 160 160 160 162 162 162 163 163 163 164 164 164 165 165 165 166 166 166 164 164 164 166 166 166 167 167 167 168 168 168 169 169 169 170 170 170 168 168 168 170 170 170 171 171 171 172 172 172 173 173 173 174 174 174 172 172 172 174 174 174 175 175 175 176 176 176 177 177 177 178 178 178 176 176 176 178 178 178 179 179 179 180 180 180 181 181 181 182 182 182 180 180 180 182 182 182 183 183 183 184 184 184 185 185 185 186 186 186 184 184 184 186 186 186 187 187 187 188 188 188 189 189 189 190 190 190 188 188 188 190 190 190 191 191 191 192 192 192 193 193 193 194 194 194 192 192 192 194 194 194 195 195 195 196 196 196 197 197 197 198 198 198 196 196 196 198 198 198 199 199 199 200 200 200 201 201 201 202 202 202 200 200 200 202 202 202 203 203 203 204 204 204 205 205 205 206 206 206 204 204 204 206 206 206 207 207 207 208 208 208 209 209 209 210 210 210 208 208 208 210 210 210 211 211 211 212 212 212 213 213 213 214 214 214 212 212 212 214 214 214 215 215 215 216 216 216 217 217 217 218 218 218 216 216 216 218 218 218 219 219 219 220 220 220 221 221 221 222 222 222 220 220 220 222 222 222 223 223 223 224 224 224 225 225 225 226 226 226 224 224 224 226 226 226 227 227 227 228 228 228 229 229 229 230 230 230 228 228 228 230 230 230 231 231 231 232 232 232 233 233 233 234 234 234 232 232 232 234 234 234 235 235 235 236 236 236 237 237 237 238 238 238 236 236 236 238 238 238 239 239 239 240 240 240 241 241 241 242 242 242 240 240 240 242 242 242 243 243 243 244 244 244 245 245 245 246 246 246 244 244 244 246 246 246 247 247 247 248 248 248 249 249 249 250 250 250 248 248 248 250 250 250 251 251 251 252 252 252 253 253 253 254 254 254 252 252 252 254 254 254 255 255 255 256 256 256 257 257 257 258 258 258 256 256 256 258 258 258 259 259 259 260 260 260 261 261 261 262 262 262 260 260 260 262 262 262 263 263 263 264 264 264 265 265 265 266 266 266 264 264 264 266 266 266 267 267 267 268 268 268 269 269 269 270 270 270 268 268 268 270 270 270 271 271 271 272 272 272 273 273 273 274 274 274 272 272 272 274 274 274 275 275 275 276 276 276 277 277 277 278 278 278 276 276 276 278 278 278 279 279 279 280 280 280 281 281 281 282 282 282 280 280 280 282 282 282 283 283 283 284 284 284 285 285 285 286 286 286 284 284 284 286 286 286 287 287 287 288 288 288 289 289 289 290 290 290 288 288 288 290 290 290 291 291 291 292 292 292 293 293 293 294 294 294 292 292 292 294 294 294 295 295 295 296 296 296 297 297 297 298 298 298 296 296 296 298 298 298 299 299 299 300 300 300 301 301 301 302 302 302 300 300 300 302 302 302 303 303 303 304 304 304 305 305 305 306 306 306 304 304 304 306 306 306 307 307 307 308 308 308 309 309 309 310 310 310 308 308 308 310 310 310 311 311 311 312 312 312 313 313 313 314 314 314 312 312 312 314 314 314 315 315 315 316 316 316 317 317 317 318 318 318 316 316 316 318 318 318 319 319 319 320 320 320 321 321 321 322 322 322 320 320 320 322 322 322 323 323 323 324 324 324 325 325 325 326 326 326 324 324 324 326 326 326 327 327 327 328 328 328 329 329 329 330 330 330 328 328 328 330 330 330 331 331 331 332 332 332 333 333 333 334 334 334 332 332 332 334 334 334 335 335 335 336 336 336 337 337 337 338 338 338 336 336 336 338 338 338 339 339 339 340 340 340 341 341 341 342 342 342 340 340 340 342 342 342 343 343 343 344 344 344 345 345 345 346 346 346 344 344 344 346 346 346 347 347 347 348 348 348 349 349 349 350 350 350 348 348 348 350 350 350 351 351 351 352 352 352 353 353 353 354 354 354 352 352 352 354 354 354 355 355 355 356 356 356 357 357 357 358 358 358 356 356 356 358 358 358 359 359 359 360 360 360 361 361 361 362 362 362 360 360 360 362 362 362 363 363 363 364 364 364 365 365 365 366 366 366 364 364 364 366 366 366 367 367 367 368 368 368 369 369 369 370 370 370 368 368 368 370 370 370 371 371 371 372 372 372 373 373 373 374 374 374 372 372 372 374 374 374 375 375 375 376 376 376 377 377 377 378 378 378 376 376 376 378 378 378 379 379 379 380 380 380 381 381 381 382 382 382 380 380 380 382 382 382 383 383 383 384 384 384 385 385 385 386 386 386 384 384 384 386 386 386 387 387 387 388 388 388 389 389 389 390 390 390 388 388 388 390 390 390 391 391 391 392 392 392 393 393 393 394 394 394 392 392 392 394 394 394 395 395 395 396 396 396 397 397 397 398 398 398 396 396 396 398 398 398 399 399 399 400 400 400 401 401 401 402 402 402 400 400 400 402 402 402 403 403 403 404 404 404 405 405 405 406 406 406 404 404 404 406 406 406 407 407 407 408 408 408 409 409 409 410 410 410 408 408 408 410 410 410 411 411 411 412 412 412 413 413 413 414 414 414 412 412 412 414 414 414 415 415 415 416 416 416 417 417 417 418 418 418 416 416 416 418 418 418 419 419 419 420 420 420 421 421 421 422 422 422 420 420 420 422 422 422 423 423 423 424 424 424 425 425 425 426 426 426 424 424 424 426 426 426 427 427 427 428 428 428 429 429 429 430 430 430 428 428 428 430 430 430 431 431 431 432 432 432 433 433 433 434 434 434 432 432 432 434 434 434 435 435 435 436 436 436 437 437 437 438 438 438 436 436 436 438 438 438 439 439 439 440 440 440 441 441 441 442 442 442 440 440 440 442 442 442 443 443 443 444 444 444 445 445 445 446 446 446 444 444 444 446 446 446 447 447 447 448 448 448 449 449 449 450 450 450 448 448 448 450 450 450 451 451 451 452 452 452 453 453 453 454 454 454 452 452 452 454 454 454 455 455 455 456 456 456 457 457 457 458 458 458 456 456 456 458 458 458 459 459 459 460 460 460 461 461 461 462 462 462 460 460 460 462 462 462 463 463 463 464 464 464 465 465 465 466 466 466 464 464 464 466 466 466 467 467 467 468 468 468 469 469 469 470 470 470 468 468 468 470 470 470 471 471 471 472 472 472 473 473 473 474 474 474 472 472 472 474 474 474 475 475 475 476 476 476 477 477 477 478 478 478 476 476 476 478 478 478 479 479 479 480 480 480 481 481 481 482 482 482 480 480 480 482 482 482 483 483 483 484 484 484 485 485 485 486 486 486 484 484 484 486 486 486 487 487 487 488 488 488 489 489 489 490 490 490 488 488 488 490 490 490 491 491 491 492 492 492 493 493 493 494 494 494 492 492 492 494 494 494 495 495 495 496 496 496 497 497 497 498 498 498 496 496 496 498 498 498 499 499 499 500 500 500 501 501 501 502 502 502 500 500 500 502 502 502 503 503 503 504 504 504 505 505 505 506 506 506 504 504 504 506 506 506 507 507 507 508 508 508 509 509 509 510 510 510 508 508 508 510 510 510 511 511 511 512 512 512 513 513 513 514 514 514 512 512 512 514 514 514 515 515 515 516 516 516 517 517 517 518 518 518 516 516 516 518 518 518 519 519 519 520 520 520 521 521 521 522 522 522 520 520 520 522 522 522 523 523 523 524 524 524 525 525 525 526 526 526 524 524 524 526 526 526 527 527 527 528 528 528 529 529 529 530 530 530 528 528 528 530 530 530 531 531 531 532 532 532 533 533 533 534 534 534 532 532 532 534 534 534 535 535 535 536 536 536 537 537 537 538 538 538 536 536 536 538 538 538 539 539 539 540 540 540 541 541 541 542 542 542 540 540 540 542 542 542 543 543 543 544 544 544 545 545 545 546 546 546 544 544 544 546 546 546 547 547 547 548 548 548 549 549 549 550 550 550 548 548 548 550 550 550 551 551 551 552 552 552 553 553 553 554 554 554 552 552 552 554 554 554 555 555 555 556 556 556 557 557 557 558 558 558 556 556 556 558 558 558 559 559 559 560 560 560 561 561 561 562 562 562 560 560 560 562 562 562 563 563 563 564 564 564 565 565 565 566 566 566 564 564 564 566 566 566 567 567 567 568 568 568 569 569 569 570 570 570 568 568 568 570 570 570 571 571 571 572 572 572 573 573 573 574 574 574 572 572 572 574 574 574 575 575 575 576 576 576 577 577 577 578 578 578 576 576 576 578 578 578 579 579 579 580 580 580 581 581 581 582 582 582 580 580 580 582 582 582 583 583 583 584 584 584 585 585 585 586 586 586 584 584 584 586 586 586 587 587 587 588 588 588 589 589 589 590 590 590 588 588 588 590 590 590 591 591 591 592 592 592 593 593 593 594 594 594 592 592 592 594 594 594 595 595 595 596 596 596 597 597 597 598 598 598 596 596 596 598 598 598 599 599 599 600 600 600 601 601 601 602 602 602 600 600 600 602 602 602 603 603 603 604 604 604 605 605 605 606 606 606 604 604 604 606 606 606 607 607 607 608 608 608 609 609 609 610 610 610 608 608 608 610 610 610 611 611 611 612 612 612 613 613 613 614 614 614 612 612 612 614 614 614 615 615 615 616 616 616 617 617 617 618 618 618 616 616 616 618 618 618 619 619 619 620 620 620 621 621 621 622 622 622 620 620 620 622 622 622 623 623 623 624 624 624 625 625 625 626 626 626 624 624 624 626 626 626 627 627 627 628 628 628 629 629 629 630 630 630 628 628 628 630 630 630 631 631 631 632 632 632 633 633 633 634 634 634 632 632 632 634 634 634 635 635 635 636 636 636 637 637 637 638 638 638 636 636 636 638 638 638 639 639 639</p>
        </triangles>
      </mesh>
    </geometry>
  </library_geometries>
  <library_visual_scenes>
    <visual_scene id="farm_verge_right_scene">
      <node id="farm_verge_right_node">
        <instance_geometry url="#farm_verge_right_geometry">
          <bind_material><technique_common>
            <instance_material symbol="farm_verge_right_material" target="#farm_verge_right_material"><bind_vertex_input semantic="UVSET0" input_semantic="TEXCOORD" input_set="0"/></instance_material>
          </technique_common></bind_material>
        </instance_geometry>
      </node>
    </visual_scene>
  </library_visual_scenes>
  <scene><instance_visual_scene url="#farm_verge_right_scene"/></scene>
</COLLADA>
