<?xml version="1.0" encoding="utf-8"?>
<COLLADA xmlns="http://www.collada.org/2005/11/COLLADASchema" version="1.4.1">
  <asset><unit name="meter" meter="1"/><up_axis>Z_UP</up_axis></asset>
  <library_images><image id="farm_curb_face_left_image"><init_from>textures/curb_tile.jpg</init_from></image></library_images>
  <library_effects>
    <effect id="farm_curb_face_left_effect">
      <profile_COMMON>
        <newparam sid="farm_curb_face_left_surface"><surface type="2D"><init_from>farm_curb_face_left_image</init_from></surface></newparam><newparam sid="farm_curb_face_left_sampler"><sampler2D><source>farm_curb_face_left_surface</source><wrap_s>WRAP</wrap_s><wrap_t>WRAP</wrap_t></sampler2D></newparam>
        <technique sid="common"><lambert><diffuse><texture texture="farm_curb_face_left_sampler" texcoord="UVSET0"/></diffuse></lambert></technique>
      </profile_COMMON>
    </effect>
  </library_effects>
  <library_materials>
    <material id="farm_curb_face_left_material"><instance_effect url="#farm_curb_face_left_effect"/></material>
  </library_materials>
  <library_geometries>
    <geometry id="farm_curb_face_left_geometry">
      <mesh>
        <source id="farm_curb_face_left_positions">
          <float_array id="farm_curb_face_left_positions_array" count="1920">-2.62806 -59.3809 0 -2.62806 -59.3809 0.13 -2.45137 -58.6309 0.13 -2.45137 -58.6309 0 -2.45149 -58.6314 0 -2.45149 -58.6314 0.13 -2.27495 -57.8814 0.13 -2.27495 -57.8814 0 -2.27519 -57.8824 0 -2.27519 -57.8824 0.13 -2.09896 -57.1324 0.13 -2.09896 -57.1324 0 -2.09932 -57.1339 0 -2.09932 -57.1339 0.13 -1.92355 -56.3839 0.13 -1.92355 -56.3839 0 -1.92402 -56.386 0 -1.92402 -56.386 0.13 -1.74887 -55.636 0.13 -1.74887 -55.636 0 -1.74946 -55.6385 0 -1.74946 -55.6385 0.13 -1.57506 -54.8885 0.13 -1.57506 -54.8885 0 -1.57577 -54.8915 0 -1.57577 -54.8915 0.13 -1.40229 -54.1415 0.13 -1.40229 -54.1415 0 -1.40311 -54.1451 0 -1.40311 -54.1451 0.13 -1.23069 -53.3951 0.13 -1.23069 -53.3951 0 -1.23162 -53.3991 0 -1.23162 -53.3991 0.13 -1.06042 -52.6491 0.13 -1.06042 -52.6491 0 -1.06146 -52.6537 0 -1.06146 -52.6537 0.13 -0.891619 -51.9037 0.13 -0.891619 -51.9037 0 -0.892757 -51.9087 0 -0.892757 -51.9087 0.13 -0.724432 -51.1587 0.13 -0.724432 -51.1587 0 -0.72567 -51.1643 0 -0.72567 -51.1643 0.13 -0.559001 -50.4143 0.13 -0.559001 -50.4143 0 -0.560335 -50.4203 0 -0.560335 -50.4203 0.13 -0.395468 -49.6703 0.13 -0.395468 -49.6703 0 -0.396894 -49.6768 0 -0.396894 -49.6768 0.13 -0.233971 -48.9268 0.13 -0.233971 -48.9268 0 -0.235485 -48.9339 0 -0.235485 -48.9339 0.13 -0.074647 -48.1839 0.13 -0.074647 -48.1839 0 -0.0762432 -48.1914 0 -0.0762432 -48.1914 0.13 0.0823693 -47.4414 0.13 0.0823693 -47.4414 0 0.0806957 -47.4493 0 0.0806957 -47.4493 0.13 0.236945 -46.6993 0.13 0.236945 -46.6993 0 0.2352 -46.7078 0 0.2352 -46.7078 0.13 0.388951 -45.9578 0.13 0.388951 -45.9578 0 0.387139 -45.9667 0 0.387139 -45.9667 0.13 0.538259 -45.2167 0.13 0.538259 -45.2167 0 0.536387 -45.2261 0 0.536387 -45.2261 0.13 0.684744 -44.4761 0.13 0.684744 -44.4761 0 0.682817 -44.4859 0 0.682817 -44.4859 0.13 0.828283 -43.7359 0.13 0.828283 -43.7359 0 0.826308 -43.7462 0 0.826308 -43.7462 0.13 0.968756 -42.9962 0.13 0.968756 -42.9962 0 0.96674 -43.0069 0 0.96674 -43.0069 0.13 1.10605 -42.2569 0.13 1.10605 -42.2569 0 1.104 -42.2681 0 1.104 -42.2681 0.13 1.24004 -41.5181 0.13 1.24004 -41.5181 0 1.23796 -41.5297 0 1.23796 -41.5297 0.13 1.37063 -40.7797 0.13 1.37063 -40.7797 0 1.36853 -40.7917 0 1.36853 -40.7917 0.13 1.4977 -40.0417 0.13 1.4977 -40.0417 0 1.49559 -40.0542 0 1.49559 -40.0542 0.13 1.62115 -39.3042 0.13 1.62115 -39.3042 0 1.61903 -39.317 0 1.61903 -39.317 0.13 1.74088 -38.567 0.13 1.74088 -38.567 0 1.73876 -38.5803 0 1.73876 -38.5803 0.13 1.85678 -37.8303 0.13 1.85678 -37.8303 0 1.85467 -37.8439 0 1.85467 -37.8439 0.13 1.96878 -37.0939 0.13 1.96878 -37.0939 0 1.96668 -37.1079 0 1.96668 -37.1079 0.13 2.07676 -36.3579 0.13 2.07676 -36.3579 0 2.07469 -36.3723 0 2.07469 -36.3723 0.13 2.18065 -35.6223 0.13 2.18065 -35.6223 0 2.17861 -35.637 0 2.17861 -35.637 0.13 2.28036 -34.887 0.13 2.28036 -34.887 0 2.27836 -34.9021 0 2.27836 -34.9021 0.13 2.37581 -34.1521 0.13 2.37581 -34.1521 0 2.37385 -34.1675 0 2.37385 -34.1675 0.13 2.46692 -33.4175 0.13 2.46692 -33.4175 0 2.46502 -33.4332 0 2.46502 -33.4332 0.13 2.55362 -32.6832 0.13 2.55362 -32.6832 0 2.55178 -32.6993 0 2.55178 -32.6993 0.13 2.63584 -31.9493 0.13 2.63584 -31.9493 0 2.63406 -31.9656 0 2.63406 -31.9656 0.13 2.71351 -31.2156 0.13 2.71351 -31.2156 0 2.71181 -31.2322 0 2.71181 -31.2322 0.13 2.78657 -30.4822 0.13 2.78657 -30.4822 0 2.78495 -30.499 0 2.78495 -30.499 0.13 2.85497 -29.749 0.13 2.85497 -29.749 0 2.85343 -29.7661 0 2.85343 -29.7661 0.13 2.91864 -29.0161 0.13 2.91864 -29.0161 0 2.91719 -29.0334 0 2.91719 -29.0334 0.13 2.97753 -28.2834 0.13 2.97753 -28.2834 0 2.97618 -28.301 0 2.97618 -28.301 0.13 3.03161 -27.551 0.13 3.03161 -27.551 0 3.03036 -27.5687 0 3.03036 -27.5687 0.13 3.08082 -26.8187 0.13 3.08082 -26.8187 0 3.07968 -26.8367 0 3.07968 -26.8367 0.13 3.12513 -26.0867 0.13 3.12513 -26.0867 0 3.1241 -26.1047 0 3.1241 -26.1047 0.13 3.16451 -25.3547 0.13 3.16451 -25.3547 0 3.16359 -25.373 0 3.16359 -25.373 0.13 3.19891 -24.623 0.13 3.19891 -24.623 0 3.19811 -24.6413 0 3.19811 -24.6413 0.13 3.22832 -23.8913 0.13 3.22832 -23.8913 0 3.22764 -23.9098 0 3.22764 -23.9098 0.13 3.25271 -23.1598 0.13 3.25271 -23.1598 0 3.25215 -23.1784 0 3.25215 -23.1784 0.13 3.27206 -22.4284 0.13 3.27206 -22.4284 0 3.27163 -22.447 0 3.27163 -22.447 0.13 3.28636 -21.697 0.13 3.28636 -21.697 0 3.28606 -21.7157 0 3.28606 -21.7157 0.13 3.29559 -20.9657 0.13 3.29559 -20.9657 0 3.29542 -20.9844 0 3.29542 -20.9844 0.13 3.29976 -20.2344 0.13 3.29976 -20.2344 0 3.29971 -20.2531 0 3.29971 -20.2531 0.13 3.29885 -19.5031 0.13 3.29885 -19.5031 0 3.29893 -19.5219 0 3.29893 -19.5219 0.13 3.29286 -18.7719 0.13 3.29286 -18.7719 0 3.29308 -18.7906 0 3.29308 -18.7906 0.13 3.28181 -18.0406 0.13 3.28181 -18.0406 0 3.28215 -18.0592 0 3.28215 -18.0592 0.13 3.2657 -17.3092 0.13 3.2657 -17.3092 0 3.26617 -17.3278 0 3.26617 -17.3278 0.13 3.24454 -16.5778 0.13 3.24454 -16.5778 0 3.24514 -16.5964 0 3.24514 -16.5964 0.13 3.21835 -15.8464 0.13 3.21835 -15.8464 0 3.21907 -15.8648 0 3.21907 -15.8648 0.13 3.18715 -15.1148 0.13 3.18715 -15.1148 0 3.188 -15.1331 0 3.188 -15.1331 0.13 3.15097 -14.3831 0.13 3.15097 -14.3831 0 3.15193 -14.4013 0 3.15193 -14.4013 0.13 3.10984 -13.6513 0.13 3.10984 -13.6513 0 3.11091 -13.6693 0 3.11091 -13.6693 0.13 3.06378 -12.9193 0.13 3.06378 -12.9193 0 3.06496 -12.9372 0 3.06496 -12.9372 0.13 3.01284 -12.1872 0.13 3.01284 -12.1872 0 3.01412 -12.2049 0 3.01412 -12.2049 0.13 2.95705 -11.4549 0.13 2.95705 -11.4549 0 2.95844 -11.4724 0 2.95844 -11.4724 0.13 2.89646 -10.7224 0.13 2.89646 -10.7224 0 2.89794 -10.7396 0 2.89794 -10.7396 0.13 2.83112 -9.98961 0.13 2.83112 -9.98961 0 2.83269 -10.0066 0 2.83269 -10.0066 0.13 2.76108 -9.25663 0.13 2.76108 -9.25663 0 2.76274 -9.2734 0 2.76274 -9.2734 0.13 2.6864 -8.5234 0.13 2.6864 -8.5234 0 2.68813 -8.5399 0 2.68813 -8.5399 0.13 2.60714 -7.7899 0.13 2.60714 -7.7899 0 2.60894 -7.80612 0 2.60894 -7.80612 0.13 2.52335 -7.05612 0.13 2.52335 -7.05612 0 2.52522 -7.07205 0 2.52522 -7.07205 0.13 2.43512 -6.32205 0.13 2.43512 -6.32205 0 2.43704 -6.33767 0 2.43704 -6.33767 0.13 2.3425 -5.58767 0.13 2.3425 -5.58767 0 2.34447 -5.60296 0 2.34447 -5.60296 0.13 2.24558 -4.85296 0.13 2.24558 -4.85296 0 2.24759 -4.86792 0 2.24759 -4.86792 0.13 2.14443 -4.11792 0.13 2.14443 -4.11792 0 2.14648 -4.13254 0 2.14648 -4.13254 0.13 2.03914 -3.38254 0.13 2.03914 -3.38254 0 2.04122 -3.39679 0 2.04122 -3.39679 0.13 1.92979 -2.64679 0.13 1.92979 -2.64679 0 1.93189 -2.66068 0 1.93189 -2.66068 0.13 1.81647 -1.91068 0.13 1.81647 -1.91068 0 1.81858 -1.92419 0 1.81858 -1.92419 0.13 1.69927 -1.17419 0.13 1.69927 -1.17419 0 1.70139 -1.1873 0 1.70139 -1.1873 0.13 1.57829 -0.437302 0.13 1.57829 -0.437302 0 1.58041 -0.450017 0 1.58041 -0.450017 0.13 1.45363 0.299983 0.13 1.45363 0.299983 0 1.45574 0.287677 0 1.45574 0.287677 0.13 1.32539 1.03768 0.13 1.32539 1.03768 0 1.32748 1.02579 0 1.32748 1.02579 0.13 1.19368 1.77579 0.13 1.19368 1.77579 0 1.19575 1.76433 0 1.19575 1.76433 0.13 1.0586 2.51433 0.13 1.0586 2.51433 0 1.06064 2.5033 0 1.06064 2.5033 0.13 0.920276 3.2533 0.13 0.920276 3.2533 0 0.92228 3.24271 0 0.92228 3.24271 0.13 0.778812 3.99271 0.13 0.778812 3.99271 0 0.780771 3.98257 0 0.780771 3.98257 0.13 0.634327 4.73257 0.13 0.634327 4.73257 0 0.636237 4.72289 0 0.636237 4.72289 0.13 0.486944 5.47289 0.13 0.486944 5.47289 0 0.488797 5.46366 0 0.488797 5.46366 0.13 0.336786 6.21366 0.13 0.336786 6.21366 0 0.338576 6.2049 0 0.338576 6.2049 0.13 0.183977 6.9549 0.13 0.183977 6.9549 0 0.185699 6.94661 0 0.185699 6.94661 0.13 0.0286468 7.69661 0.13 0.0286468 7.69661 0 0.0302951 7.6888 0 0.0302951 7.6888 0.13 -0.129074 8.4388 0.13 -0.129074 8.4388 0 -0.127505 8.43147 0 -0.127505 8.43147 0.13 -0.289054 9.18147 0.13 -0.289054 9.18147 0 -0.287569 9.17461 0 -0.287569 9.17461 0.13 -0.451156 9.92461 0.13 -0.451156 9.92461 0 -0.44976 9.91825 0 -0.44976 9.91825 0.13 -0.615243 10.6683 0.13 -0.615243 10.6683 0 -0.613941 10.6624 0 -0.613941 10.6624 0.13 -0.781178 11.4124 0.13 -0.781178 11.4124 0 -0.779973 11.407 0 -0.779973 11.407 0.13 -0.948818 12.157 0.13 -0.948818 12.157 0 -0.947714 12.1521 0 -0.947714 12.1521 0.13 -1.11802 12.9021 0.13 -1.11802 12.9021 0 -1.11702 12.8977 0 -1.11702 12.8977 0.13 -1.28864 13.6477 0.13 -1.28864 13.6477 0 -1.28775 13.6438 0 -1.28775 13.6438 0.13 -1.46054 14.3938 0.13 -1.46054 14.3938 0 -1.45976 14.3905 0 -1.45976 14.3905 0.13 -1.63356 15.1405 0.13 -1.63356 15.1405 0 -1.63289 15.1376 0 -1.63289 15.1376 0.13 -1.80756 15.8876 0.13 -1.80756 15.8876 0 -1.807 15.8852 0 -1.807 15.8852 0.13 -1.98238 16.6352 0.13 -1.98238 16.6352 0 -1.98195 16.6334 0 -1.98195 16.6334 0.13 -2.15789 17.3834 0.13 -2.15789 17.3834 0 -2.15757 17.382 0 -2.15757 17.382 0.13 -2.33392 18.132 0.13 -2.33392 18.132 0 -2.33372 18.1312 0 -2.33372 18.1312 0.13 -2.51032 18.8812 0.13 -2.51032 18.8812 0 -2.51024 18.8808 0 -2.51024 18.8808 0.13 -2.68695 19.6308 0.13 -2.68695 19.6308 0 -2.68699 19.631 0 -2.68699 19.631 0.13 -2.86364 20.381 0.13 -2.86364 20.381 0 -2.8638 20.3817 0 -2.8638 20.3817 0.13 -3.04025 21.1317 0.13 -3.04025 21.1317 0 -3.04053 21.1328 0 -3.04053 21.1328 0.13 -3.21662 21.8828 0.13 -3.21662 21.8828 0 -3.21702 21.8845 0 -3.21702 21.8845 0.13 -3.3926 22.6345 0.13 -3.3926 22.6345 0 -3.39312 22.6367 0 -3.39312 22.6367 0.13 -3.56804 23.3867 0.13 -3.56804 23.3867 0 -3.56867 23.3895 0 -3.56867 23.3895 0.13 -3.74278 24.1395 0.13 -3.74278 24.1395 0 -3.74352 24.1427 0 -3.74352 24.1427 0.13 -3.91666 24.8927 0.13 -3.91666 24.8927 0 -3.91752 24.8964 0 -3.91752 24.8964 0.13 -4.08954 25.6464 0.13 -4.08954 25.6464 0 -4.09051 25.6506 0 -4.09051 25.6506 0.13 -4.26127 26.4006 0.13 -4.26127 26.4006 0 -4.26234 26.4053 0 -4.26234 26.4053 0.13 -4.43169 27.1553 0.13 -4.43169 27.1553 0 -4.43286 27.1605 0 -4.43286 27.1605 0.13 -4.60065 27.9105 0.13 -4.60065 27.9105 0 -4.60192 27.9162 0 -4.60192 27.9162 0.13 -4.768 28.6662 0.13 -4.768 28.6662 0 -4.76937 28.6724 0 -4.76937 28.6724 0.13 -4.9336 29.4224 0.13 -4.9336 29.4224 0 -4.93506 29.4291 0 -4.93506 29.4291 0.13 -5.0973 30.1791 0.13 -5.0973 30.1791 0 -5.09884 30.1863 0 -5.09884 30.1863 0.13 -5.25896 30.9363 0.13 -5.25896 30.9363 0 -5.26058 30.944 0 -5.26058 30.944 0.13 -5.41842 31.694 0.13 -5.41842 31.694 0 -5.42012 31.7021 0 -5.42012 31.7021 0.13 -5.57555 32.4521 0.13 -5.57555 32.4521 0 -5.57732 32.4607 0 -5.57732 32.4607 0.13 -5.73021 33.2107 0.13 -5.73021 33.2107 0 -5.73204 33.2198 0 -5.73204 33.2198 0.13 -5.88225 33.9698 0.13 -5.88225 33.9698 0 -5.88414 33.9793 0 -5.88414 33.9793 0.13 -6.03155 34.7293 0.13 -6.03155 34.7293 0 -6.0335 34.7393 0 -6.0335 34.7393 0.13 -6.17797 35.4893 0.13 -6.17797 35.4893 0 -6.17996 35.4997 0 -6.17996 35.4997 0.13 -6.32137 36.2497 0.13 -6.32137 36.2497 0 -6.3234 36.2606 0 -6.3234 36.2606 0.13 -6.46164 37.0106 0.13 -6.46164 37.0106 0 -6.4637 37.0219 0 -6.4637 37.0219 0.13 -6.59863 37.7719 0.13 -6.59863 37.7719 0 -6.60072 37.7837 0 -6.60072 37.7837 0.13 -6.73223 38.5337 0.13 -6.73223 38.5337 0 -6.73433 38.5458 0 -6.73433 38.5458 0.13 -6.86231 39.2958 0.13 -6.86231 39.2958 0 -6.86443 39.3084 0 -6.86443 39.3084 0.13 -6.98877 40.0584 0.13 -6.98877 40.0584 0 -6.99089 40.0714 0 -6.99089 40.0714 0.13 -7.11147 40.8214 0.13 -7.11147 40.8214 0 -7.11359 40.8348 0 -7.11359 40.8348 0.13 -7.23032 41.5848 0.13 -7.23032 41.5848 0 -7.23242 41.5985 0 -7.23242 41.5985 0.13 -7.34519 42.3485 0.13 -7.34519 42.3485 0 -7.34728 42.3627 0 -7.34728 42.3627 0.13 -7.456 43.1127 0.13 -7.456 43.1127 0 -7.45806 43.1272 0 -7.45806 43.1272 0.13 -7.56263 43.8772 0.13 -7.56263 43.8772 0 -7.56465 43.892 0 -7.56465 43.892 0.13 -7.66498 44.642 0.13 -7.66498 44.642 0 -7.66697 44.6572 0 -7.66697 44.6572 0.13 -7.76297 45.4072 0.13 -7.76297 45.4072 0 -7.76491 45.4227 0 -7.76491 45.4227 0.13 -7.8565 46.1727 0.13 -7.8565 46.1727 0 -7.85838 46.1885 0 -7.85838 46.1885 0.13 -7.94548 46.9385 0.13 -7.94548 46.9385 0 -7.9473 46.9547 0 -7.9473 46.9547 0.13 -8.02984 47.7047 0.13 -8.02984 47.7047 0 -8.03159 47.7211 0 -8.03159 47.7211 0.13 -8.10949 48.4711 0.13 -8.10949 48.4711 0 -8.11117 48.4878 0 -8.11117 48.4878 0.13 -8.18436 49.2378 0.13 -8.18436 49.2378 0 -8.18596 49.2547 0 -8.18596 49.2547 0.13 -8.25438 50.0047 0.13 -8.25438 50.0047 0 -8.2559 50.0219 0 -8.2559 50.0219 0.13 -8.31949 50.7719 0.13 -8.31949 50.7719 0 -8.32091 50.7893 0 -8.32091 50.7893 0.13 -8.37963 51.5393 0.13 -8.37963 51.5393 0 -8.38095 51.5569 0 -8.38095 51.5569 0.13 -8.43473 52.3069 0.13 -8.43473 52.3069 0 -8.43594 52.3247 0 -8.43594 52.3247 0.13 -8.48474 53.0747 0.13 -8.48474 53.0747 0 -8.48585 53.0927 0 -8.48585 53.0927 0.13 -8.52963 53.8427 0.13 -8.52963 53.8427 0 -8.53063 53.8608 0 -8.53063 53.8608 0.13 -8.56935 54.6108 0.13 -8.56935 54.6108 0 -8.57023 54.6291 0 -8.57023 54.6291 0.13 -8.60385 55.3791 0.13 -8.60385 55.3791 0 -8.60461 55.3975 0 -8.60461 55.3975 0.13 -8.63311 56.1475 0.13 -8.63311 56.1475 0 -8.63375 56.166 0 -8.63375 56.166 0.13 -8.6571 56.916 0.13 -8.6571 56.916 0 -8.65762 56.9346 0 -8.65762 56.9346 0.13 -8.6758 57.6846 0.13 -8.6758 57.6846 0 -8.67619 57.7032 0 -8.67619 57.7032 0.13 -8.68919 58.4532 0.13 -8.68919 58.4532 0 -8.68945 58.4719 0 -8.68945 58.4719 0.13 -8.69725 59.2219 0.13 -8.69725 59.2219 0 -8.69738 59.2406 0 -8.69738 59.2406 0.13 -8.69998 59.9906 0.13 -8.69998 59.9906 0</float_array>
          <technique_common><accessor source="#farm_curb_face_left_positions_array" count="640" stride="3"><param name="X" type="float"/><param name="Y" type="float"/><param name="Z" type="float"/></accessor></technique_common>
        </source>
        <source id="farm_curb_face_left_normals">
          <float_array id="farm_curb_face_left_normals_array" count="1920">0.973354 -0.229308 0 0.973354 -0.229308 0 0.973354 -0.229308 0 0.973354 -0.229308 0 0.973398 -0.22912 0 0.973398 -0.22912 0 0.973398 -0.22912 0 0.973398 -0.22912 0 0.973487 -0.228743 0 0.973487 -0.228743 0 0.973487 -0.228743 0 0.973487 -0.228743 0 0.97362 -0.228178 0 0.97362 -0.228178 0 0.97362 -0.228178 0 0.97362 -0.228178 0 0.973796 -0.227425 0 0.973796 -0.227425 0 0.973796 -0.227425 0 0.973796 -0.227425 0 0.974015 -0.226484 0 0.974015 -0.226484 0 0.974015 -0.226484 0 0.974015 -0.226484 0 0.974276 -0.225357 0 0.974276 -0.225357 0 0.974276 -0.225357 0 0.974276 -0.225357 0 0.974579 -0.224042 0 0.974579 -0.224042 0 0.974579 -0.224042 0 0.974579 -0.224042 0 0.974923 -0.222542 0 0.974923 -0.222542 0 0.974923 -0.222542 0 0.974923 -0.222542 0 0.975306 -0.220856 0 0.975306 -0.220856 0 0.975306 -0.220856 0 0.975306 -0.220856 0 0.975728 -0.218987 0 0.975728 -0.218987 0 0.975728 -0.218987 0 0.975728 -0.218987 0 0.976186 -0.216933 0 0.976186 -0.216933 0 0.976186 -0.216933 0 0.976186 -0.216933 0 0.976681 -0.214697 0 0.976681 -0.214697 0 0.976681 -0.214697 0 0.976681 -0.214697 0 0.977209 -0.21228 0 0.977209 -0.21228 0 0.977209 -0.21228 0 0.977209 -0.21228 0 0.977769 -0.209683 0 0.977769 -0.209683 0 0.977769 -0.209683 0 0.977769 -0.209683 0 0.978361 -0.206907 0 0.978361 -0.206907 0 0.978361 -0.206907 0 0.978361 -0.206907 0 0.97898 -0.203954 0 0.97898 -0.203954 0 0.97898 -0.203954 0 0.97898 -0.203954 0 0.979627 -0.200826 0 0.979627 -0.200826 0 0.979627 -0.200826 0 0.979627 -0.200826 0 0.980298 -0.197523 0 0.980298 -0.197523 0 0.980298 -0.197523 0 0.980298 -0.197523 0 0.980992 -0.19405 0 0.980992 -0.19405 0 0.980992 -0.19405 0 0.980992 -0.19405 0 0.981705 -0.190406 0 0.981705 -0.190406 0 0.981705 -0.190406 0 0.981705 -0.190406 0 0.982437 -0.186595 0 0.982437 -0.186595 0 0.982437 -0.186595 0 0.982437 -0.186595 0 0.983184 -0.18262 0 0.983184 -0.18262 0 0.983184 -0.18262 0 0.983184 -0.18262 0 0.983943 -0.178481 0 0.983943 -0.178481 0 0.983943 -0.178481 0 0.983943 -0.178481 0 0.984713 -0.174183 0 0.984713 -0.174183 0 0.984713 -0.174183 0 0.984713 -0.174183 0 0.985491 -0.169728 0 0.985491 -0.169728 0 0.985491 -0.169728 0 0.985491 -0.169728 0 0.986274 -0.16512 0 0.986274 -0.16512 0 0.986274 -0.16512 0 0.986274 -0.16512 0 0.987058 -0.160361 0 0.987058 -0.160361 0 0.987058 -0.160361 0 0.987058 -0.160361 0 0.987843 -0.155455 0 0.987843 -0.155455 0 0.987843 -0.155455 0 0.987843 -0.155455 0 0.988624 -0.150405 0 0.988624 -0.150405 0 0.988624 -0.150405 0 0.988624 -0.150405 0 0.9894 -0.145216 0 0.9894 -0.145216 0 0.9894 -0.145216 0 0.9894 -0.145216 0 0.990167 -0.139891 0 0.990167 -0.139891 0 0.990167 -0.139891 0 0.990167 -0.139891 0 0.990922 -0.134435 0 0.990922 -0.134435 0 0.990922 -0.134435 0 0.990922 -0.134435 0 0.991664 -0.128852 0 0.991664 -0.128852 0 0.991664 -0.128852 0 0.991664 -0.128852 0 0.992389 -0.123146 0 0.992389 -0.123146 0 0.992389 -0.123146 0 0.992389 -0.123146 0 0.993094 -0.117323 0 0.993094 -0.117323 0 0.993094 -0.117323 0 0.993094 -0.117323 0 0.993777 -0.111387 0 0.993777 -0.111387 0 0.993777 -0.111387 0 0.993777 -0.111387 0 0.994436 -0.105344 0 0.994436 -0.105344 0 0.994436 -0.105344 0 0.994436 -0.105344 0 0.995068 -0.0991982 0 0.995068 -0.0991982 0 0.995068 -0.0991982 0 0.995068 -0.0991982 0 0.99567 -0.0929558 0 0.99567 -0.0929558 0 0.99567 -0.0929558 0 0.99567 -0.0929558 0 0.996241 -0.0866224 0 0.996241 -0.0866224 0 0.996241 -0.0866224 0 0.996241 -0.0866224 0 0.996778 -0.0802037 0 0.996778 -0.0802037 0 0.996778 -0.0802037 0 0.996778 -0.0802037 0 0.99728 -0.0737058 0 0.99728 -0.0737058 0 0.99728 -0.0737058 0 0.99728 -0.0737058 0 0.997744 -0.0671349 0 0.997744 -0.0671349 0 0.997744 -0.0671349 0 0.997744 -0.0671349 0 0.998168 -0.0604971 0 0.998168 -0.0604971 0 0.998168 -0.0604971 0 0.998168 -0.0604971 0 0.998552 -0.053799 0 0.998552 -0.053799 0 0.998552 -0.053799 0 0.998552 -0.053799 0 0.998893 -0.047047 0 0.998893 -0.047047 0 0.998893 -0.047047 0 0.998893 -0.047047 0 0.99919 -0.0402479 0 0.99919 -0.0402479 0 0.99919 -0.0402479 0 0.99919 -0.0402479 0 0.999442 -0.0334082 0 0.999442 -0.0334082 0 0.999442 -0.0334082 0 0.999442 -0.0334082 0 0.999648 -0.0265349 0 0.999648 -0.0265349 0 0.999648 -0.0265349 0 0.999648 -0.0265349 0 0.999807 -0.0196348 0 0.999807 -0.0196348 0 0.999807 -0.0196348 0 0.999807 -0.0196348 0 0.999919 -0.0127149 0 0.999919 -0.0127149 0 0.999919 -0.0127149 0 0.999919 -0.0127149 0 0.999983 -0.00578209 0 0.999983 -0.00578209 0 0.999983 -0.00578209 0 0.999983 -0.00578209 0 0.999999 0.00115655 0 0.999999 0.00115655 0 0.999999 0.00115655 0 0.999999 0.00115655 0 0.999967 0.00809401 0 0.999967 0.00809401 0 0.999967 0.00809401 0 0.999967 0.00809401 0 0.999887 0.0150233 0 0.999887 0.0150233 0 0.999887 0.0150233 0 0.999887 0.0150233 0 0.999759 0.0219374 0 0.999759 0.0219374 0 0.999759 0.0219374 0 0.999759 0.0219374 0 0.999584 0.0288293 0 0.999584 0.0288293 0 0.999584 0.0288293 0 0.999584 0.0288293 0 0.999363 0.0356922 0 0.999363 0.0356922 0 0.999363 0.0356922 0 0.999363 0.0356922 0 0.999096 0.0425191 0 0.999096 0.0425191 0 0.999096 0.0425191 0 0.999096 0.0425191 0 0.998784 0.0493033 0 0.998784 0.0493033 0 0.998784 0.0493033 0 0.998784 0.0493033 0 0.998429 0.056038 0 0.998429 0.056038 0 0.998429 0.056038 0 0.998429 0.056038 0 0.998031 0.0627167 0 0.998031 0.0627167 0 0.998031 0.0627167 0 0.998031 0.0627167 0 0.997594 0.0693329 0 0.997594 0.0693329 0 0.997594 0.0693329 0 0.997594 0.0693329 0 0.997117 0.0758802 0 0.997117 0.0758802 0 0.997117 0.0758802 0 0.997117 0.0758802 0 0.996603 0.0823524 0 0.996603 0.0823524 0 0.996603 0.0823524 0 0.996603 0.0823524 0 0.996055 0.0887433 0 0.996055 0.0887433 0 0.996055 0.0887433 0 0.996055 0.0887433 0 0.995473 0.095047 0 0.995473 0.095047 0 0.995473 0.095047 0 0.995473 0.095047 0 0.99486 0.101258 0 0.99486 0.101258 0 0.99486 0.101258 0 0.99486 0.101258 0 0.994219 0.10737 0 0.994219 0.10737 0 0.994219 0.10737 0 0.994219 0.10737 0 0.993552 0.113378 0 0.993552 0.113378 0 0.993552 0.113378 0 0.993552 0.113378 0 0.992861 0.119277 0 0.992861 0.119277 0 0.992861 0.119277 0 0.992861 0.119277 0 0.992149 0.125062 0 0.992149 0.125062 0 0.992149 0.125062 0 0.992149 0.125062 0 0.991418 0.130727 0 0.991418 0.130727 0 0.991418 0.130727 0 0.991418 0.130727 0 0.990672 0.136268 0 0.990672 0.136268 0 0.990672 0.136268 0 0.990672 0.136268 0 0.989912 0.141681 0 0.989912 0.141681 0 0.989912 0.141681 0 0.989912 0.141681 0 0.989142 0.146961 0 0.989142 0.146961 0 0.989142 0.146961 0 0.989142 0.146961 0 0.988364 0.152104 0 0.988364 0.152104 0 0.988364 0.152104 0 0.988364 0.152104 0 0.987582 0.157106 0 0.987582 0.157106 0 0.987582 0.157106 0 0.987582 0.157106 0 0.986797 0.161964 0 0.986797 0.161964 0 0.986797 0.161964 0 0.986797 0.161964 0 0.986012 0.166673 0 0.986012 0.166673 0 0.986012 0.166673 0 0.986012 0.166673 0 0.985231 0.171231 0 0.985231 0.171231 0 0.985231 0.171231 0 0.985231 0.171231 0 0.984456 0.175633 0 0.984456 0.175633 0 0.984456 0.175633 0 0.984456 0.175633 0 0.983689 0.179879 0 0.983689 0.179879 0 0.983689 0.179879 0 0.983689 0.179879 0 0.982933 0.183963 0 0.982933 0.183963 0 0.982933 0.183963 0 0.982933 0.183963 0 0.982191 0.187884 0 0.982191 0.187884 0 0.982191 0.187884 0 0.982191 0.187884 0 0.981465 0.191639 0 0.981465 0.191639 0 0.981465 0.191639 0 0.981465 0.191639 0 0.980758 0.195227 0 0.980758 0.195227 0 0.980758 0.195227 0 0.980758 0.195227 0 0.980072 0.198643 0 0.980072 0.198643 0 0.980072 0.198643 0 0.980072 0.198643 0 0.979409 0.201888 0 0.979409 0.201888 0 0.979409 0.201888 0 0.979409 0.201888 0 0.978771 0.204958 0 0.978771 0.204958 0 0.978771 0.204958 0 0.978771 0.204958 0 0.97816 0.207852 0 0.97816 0.207852 0 0.97816 0.207852 0 0.97816 0.207852 0 0.977579 0.210568 0 0.977579 0.210568 0 0.977579 0.210568 0 0.977579 0.210568 0 0.977029 0.213106 0 0.977029 0.213106 0 0.977029 0.213106 0 0.977029 0.213106 0 0.976512 0.215463 0 0.976512 0.215463 0 0.976512 0.215463 0 0.976512 0.215463 0 0.97603 0.217638 0 0.97603 0.217638 0 0.97603 0.217638 0 0.97603 0.217638 0 0.975583 0.21963 0 0.975583 0.21963 0 0.975583 0.21963 0 0.975583 0.21963 0 0.975174 0.221439 0 0.975174 0.221439 0 0.975174 0.221439 0 0.975174 0.221439 0 0.974804 0.223063 0 0.974804 0.223063 0 0.974804 0.223063 0 0.974804 0.223063 0 0.974474 0.224501 0 0.974474 0.224501 0 0.974474 0.224501 0 0.974474 0.224501 0 0.974185 0.225753 0 0.974185 0.225753 0 0.974185 0.225753 0 0.974185 0.225753 0 0.973937 0.226819 0 0.973937 0.226819 0 0.973937 0.226819 0 0.973937 0.226819 0 0.973732 0.227697 0 0.973732 0.227697 0 0.973732 0.227697 0 0.973732 0.227697 0 0.97357 0.228387 0 0.97357 0.228387 0 0.97357 0.228387 0 0.97357 0.228387 0 0.973452 0.228889 0 0.973452 0.228889 0 0.973452 0.228889 0 0.973452 0.228889 0 0.973379 0.229203 0 0.973379 0.229203 0 0.973379 0.229203 0 0.973379 0.229203 0 0.973349 0.229329 0 0.973349 0.229329 0 0.973349 0.229329 0 0.973349 0.229329 0 0.973364 0.229266 0 0.973364 0.229266 0 0.973364 0.229266 0 0.973364 0.229266 0 0.973423 0.229015 0 0.973423 0.229015 0 0.973423 0.229015 0 0.973423 0.229015 0 0.973526 0.228575 0 0.973526 0.228575 0 0.973526 0.228575 0 0.973526 0.228575 0 0.973673 0.227948 0 0.973673 0.227948 0 0.973673 0.227948 0 0.973673 0.227948 0 0.973864 0.227132 0 0.973864 0.227132 0 0.973864 0.227132 0 0.973864 0.227132 0 0.974097 0.226129 0 0.974097 0.226129 0 0.974097 0.226129 0 0.974097 0.226129 0 0.974373 0.224939 0 0.974373 0.224939 0 0.974373 0.224939 0 0.974373 0.224939 0 0.97469 0.223563 0 0.97469 0.223563 0 0.97469 0.223563 0 0.97469 0.223563 0 0.975047 0.222001 0 0.975047 0.222001 0 0.975047 0.222001 0 0.975047 0.222001 0 0.975443 0.220254 0 0.975443 0.220254 0 0.975443 0.220254 0 0.975443 0.220254 0 0.975877 0.218322 0 0.975877 0.218322 0 0.975877 0.218322 0 0.975877 0.218322 0 0.976347 0.216208 0 0.976347 0.216208 0 0.976347 0.216208 0 0.976347 0.216208 0 0.976853 0.213912 0 0.976853 0.213912 0 0.976853 0.213912 0 0.976853 0.213912 0 0.977392 0.211434 0 0.977392 0.211434 0 0.977392 0.211434 0 0.977392 0.211434 0 0.977963 0.208777 0 0.977963 0.208777 0 0.977963 0.208777 0 0.977963 0.208777 0 0.978564 0.205942 0 0.978564 0.205942 0 0.978564 0.205942 0 0.978564 0.205942 0 0.979193 0.202931 0 0.979193 0.202931 0 0.979193 0.202931 0 0.979193 0.202931 0 0.979848 0.199744 0 0.979848 0.199744 0 0.979848 0.199744 0 0.979848 0.199744 0 0.980527 0.196384 0 0.980527 0.196384 0 0.980527 0.196384 0 0.980527 0.196384 0 0.981227 0.192854 0 0.981227 0.192854 0 0.981227 0.192854 0 0.981227 0.192854 0 0.981947 0.189154 0 0.981947 0.189154 0 0.981947 0.189154 0 0.981947 0.189154 0 0.982684 0.185288 0 0.982684 0.185288 0 0.982684 0.185288 0 0.982684 0.185288 0 0.983436 0.181258 0 0.983436 0.181258 0 0.983436 0.181258 0 0.983436 0.181258 0 0.984199 0.177066 0 0.984199 0.177066 0 0.984199 0.177066 0 0.984199 0.177066 0 0.984972 0.172716 0 0.984972 0.172716 0 0.984972 0.172716 0 0.984972 0.172716 0 0.985751 0.168209 0 0.985751 0.168209 0 0.985751 0.168209 0 0.985751 0.168209 0 0.986535 0.16355 0 0.986535 0.16355 0 0.986535 0.16355 0 0.986535 0.16355 0 0.98732 0.158742 0 0.98732 0.158742 0 0.98732 0.158742 0 0.98732 0.158742 0 0.988104 0.153787 0 0.988104 0.153787 0 0.988104 0.153787 0 0.988104 0.153787 0 0.988884 0.148691 0 0.988884 0.148691 0 0.988884 0.148691 0 0.988884 0.148691 0 0.989657 0.143456 0 0.989657 0.143456 0 0.989657 0.143456 0 0.989657 0.143456 0 0.99042 0.138087 0 0.99042 0.138087 0 0.99042 0.138087 0 0.99042 0.138087 0 0.991171 0.132588 0 0.991171 0.132588 0 0.991171 0.132588 0 0.991171 0.132588 0 0.991907 0.126964 0 0.991907 0.126964 0 0.991907 0.126964 0 0.991907 0.126964 0 0.992626 0.121218 0 0.992626 0.121218 0 0.992626 0.121218 0 0.992626 0.121218 0 0.993324 0.115357 0 0.993324 0.115357 0 0.993324 0.115357 0 0.993324 0.115357 0 0.994 0.109385 0 0.994 0.109385 0 0.994 0.109385 0 0.994 0.109385 0 0.99465 0.103306 0 0.99465 0.103306 0 0.99465 0.103306 0 0.99465 0.103306 0 0.995272 0.0971279 0 0.995272 0.0971279 0 0.995272 0.0971279 0 0.995272 0.0971279 0 0.995864 0.0908545 0 0.995864 0.0908545 0 0.995864 0.0908545 0 0.995864 0.0908545 0 0.996424 0.084492 0 0.996424 0.084492 0 0.996424 0.084492 0 0.996424 0.084492 0 0.99695 0.0780462 0 0.99695 0.0780462 0 0.99695 0.0780462 0 0.99695 0.0780462 0 0.997439 0.0715233 0 0.997439 0.0715233 0 0.997439 0.0715233 0 0.997439 0.0715233 0 0.99789 0.0649294 0 0.99789 0.0649294 0 0.99789 0.0649294 0 0.99789 0.0649294 0 0.998301 0.0582708 0 0.998301 0.0582708 0 0.998301 0.0582708 0 0.998301 0.0582708 0 0.99867 0.051554 0 0.99867 0.051554 0 0.99867 0.051554 0 0.99867 0.051554 0 0.998997 0.0447856 0 0.998997 0.0447856 0 0.998997 0.0447856 0 0.998997 0.0447856 0 0.999279 0.0379721 0 0.999279 0.0379721 0 0.999279 0.0379721 0 0.999279 0.0379721 0 0.999516 0.0311205 0 0.999516 0.0311205 0 0.999516 0.0311205 0 0.999516 0.0311205 0 0.999706 0.0242375 0 0.999706 0.0242375 0 0.999706 0.0242375 0 0.999706 0.0242375 0 0.99985 0.01733 0 0.99985 0.01733 0 0.99985 0.01733 0 0.99985 0.01733 0 0.999946 0.010405 0 0.999946 0.010405 0 0.999946 0.010405 0 0.999946 0.010405 0 0.999994 0.00346951 0 0.999994 0.00346951 0 0.999994 0.00346951 0 0.999994 0.00346951 0</float_array>
          <technique_common><accessor source="#farm_curb_face_left_normals_array" count="640" stride="3"><param name="X" type="float"/><param name="Y" type="float"/><param name="Z" type="float"/></accessor></technique_common>
        </source>
        <source id="farm_curb_face_left_uv">
          <float_array id="farm_curb_face_left_uv_array" count="1280">0 0 0 0.26 1.54106 0.26 1.54106 0 1.54106 0 1.54106 0.26 3.08206 0.26 3.08206 0 3.08206 0 3.08206 0.26 4.62291 0.26 4.62291 0 4.62291 0 4.62291 0.26 6.16355 0.26 6.16355 0 6.16355 0 6.16355 0.26 7.70392 0.26 7.70392 0 7.70392 0 7.70392 0.26 9.24393 0.26 9.24393 0 9.24393 0 9.24393 0.26 10.7835 0.26 10.7835 0 10.7835 0 10.7835 0.26 12.3227 0.26 12.3227 0 12.3227 0 12.3227 0.26 13.8612 0.26 13.8612 0 13.8612 0 13.8612 0.26 15.3992 0.26 15.3992 0 15.3992 0 15.3992 0.26 16.9365 0.26 16.9365 0 16.9365 0 16.9365 0.26 18.4731 0.26 18.4731 0 18.4731 0 18.4731 0.26 20.0089 0.26 20.0089 0 20.0089 0 20.0089 0.26 21.5439 0.26 21.5439 0 21.5439 0 21.5439 0.26 23.078 0.26 23.078 0 23.078 0 23.078 0.26 24.6112 0.26 24.6112 0 24.6112 0 24.6112 0.26 26.1434 0.26 26.1434 0 26.1434 0 26.1434 0.26 27.6746 0.26 27.6746 0 27.6746 0 27.6746 0.26 29.2048 0.26 29.2048 0 29.2048 0 29.2048 0.26 30.7338 0.26 30.7338 0 30.7338 0 30.7338 0.26 32.2618 0.26 32.2618 0 32.2618 0 32.2618 0.26 33.7886 0.26 33.7886 0 33.7886 0 33.7886 0.26 35.3142 0.26 35.3142 0 35.3142 0 35.3142 0.26 36.8387 0.26 36.8387 0 36.8387 0 36.8387 0.26 38.362 0.26 38.362 0 38.362 0 38.362 0.26 39.8841 0.26 39.8841 0 39.8841 0 39.8841 0.26 41.405 0.26 41.405 0 41.405 0 41.405 0.26 42.9246 0.26 42.9246 0 42.9246 0 42.9246 0.26 44.4431 0.26 44.4431 0 44.4431 0 44.4431 0.26 45.9604 0.26 45.9604 0 45.9604 0 45.9604 0.26 47.4764 0.26 47.4764 0 47.4764 0 47.4764 0.26 48.9913 0.26 48.9913 0 48.9913 0 48.9913 0.26 50.5051 0.26 50.5051 0 50.5051 0 50.5051 0.26 52.0177 0.26 52.0177 0 52.0177 0 52.0177 0.26 53.5292 0.26 53.5292 0 53.5292 0 53.5292 0.26 55.0396 0.26 55.0396 0 55.0396 0 55.0396 0.26 56.549 0.26 56.549 0 56.549 0 56.549 0.26 58.0574 0.26 58.0574 0 58.0574 0 58.0574 0.26 59.5648 0.26 59.5648 0 59.5648 0 59.5648 0.26 61.0714 0.26 61.0714 0 61.0714 0 61.0714 0.26 62.577 0.26 62.577 0 62.577 0 62.577 0.26 64.0819 0.26 64.0819 0 64.0819 0 64.0819 0.26 65.586 0.26 65.586 0 65.586 0 65.586 0.26 67.0893 0.26 67.0893 0 67.0893 0 67.0893 0.26 68.5921 0.26 68.5921 0 68.5921 0 68.5921 0.26 70.0943 0.26 70.0943 0 70.0943 0 70.0943 0.26 71.5959 0.26 71.5959 0 71.5959 0 71.5959 0.26 73.0972 0.26 73.0972 0 73.0972 0 73.0972 0.26 74.598 0.26 74.598 0 74.598 0 74.598 0.26 76.0985 0.26 76.0985 0 76.0985 0 76.0985 0.26 77.5988 0.26 77.5988 0 77.5988 0 77.5988 0.26 79.0989 0.26 79.0989 0 79.0989 0 79.0989 0.26 80.599 0.26 80.599 0 80.599 0 80.599 0.26 82.099 0.26 82.099 0 82.099 0 82.099 0.26 83.599 0.26 83.599 0 83.599 0 83.599 0.26 85.0992 0.26 85.0992 0 85.0992 0 85.0992 0.26 86.5995 0.26 86.5995 0 86.5995 0 86.5995 0.26 88.1002 0.26 88.1002 0 88.1002 0 88.1002 0.26 89.6011 0.26 89.6011 0 89.6011 0 89.6011 0.26 91.1025 0.26 91.1025 0 91.1025 0 91.1025 0.26 92.6043 0.26 92.6043 0 92.6043 0 92.6043 0.26 94.1067 0.26 94.1067 0 94.1067 0 94.1067 0.26 95.6096 0.26 95.6096 0 95.6096 0 95.6096 0.26 97.1132 0.26 97.1132 0 97.1132 0 97.1132 0.26 98.6176 0.26 98.6176 0 98.6176 0 98.6176 0.26 100.123 0.26 100.123 0 100.123 0 100.123 0.26 101.629 0.26 101.629 0 101.629 0 101.629 0.26 103.135 0.26 103.135 0 103.135 0 103.135 0.26 104.643 0.26 104.643 0 104.643 0 104.643 0.26 106.152 0.26 106.152 0 106.152 0 106.152 0.26 107.662 0.26 107.662 0 107.662 0 107.662 0.26 109.172 0.26 109.172 0 109.172 0 109.172 0.26 110.684 0.26 110.684 0 110.684 0 110.684 0.26 112.197 0.26 112.197 0 112.197 0 112.197 0.26 113.711 0.26 113.711 0 113.711 0 113.711 0.26 115.227 0.26 115.227 0 115.227 0 115.227 0.26 116.743 0.26 116.743 0 116.743 0 116.743 0.26 118.261 0.26 118.261 0 118.261 0 118.261 0.26 119.78 0.26 119.78 0 119.78 0 119.78 0.26 121.3 0.26 121.3 0 121.3 0 121.3 0.26 122.821 0.26 122.821 0 122.821 0 122.821 0.26 124.344 0.26 124.344 0 124.344 0 124.344 0.26 125.867 0.26 125.867 0 125.867 0 125.867 0.26 127.392 0.26 127.392 0 127.392 0 127.392 0.26 128.918 0.26 128.918 0 128.918 0 128.918 0.26 130.445 0.26 130.445 0 130.445 0 130.445 0.26 131.974 0.26 131.974 0 131.974 0 131.974 0.26 133.503 0.26 133.503 0 133.503 0 133.503 0.26 135.034 0.26 135.034 0 135.034 0 135.034 0.26 136.565 0.26 136.565 0 136.565 0 136.565 0.26 138.098 0.26 138.098 0 138.098 0 138.098 0.26 139.631 0.26 139.631 0 139.631 0 139.631 0.26 141.166 0.26 141.166 0 141.166 0 141.166 0.26 142.701 0.26 142.701 0 142.701 0 142.701 0.26 144.237 0.26 144.237 0 144.237 0 144.237 0.26 145.774 0.26 145.774 0 145.774 0 145.774 0.26 147.311 0.26 147.311 0 147.311 0 147.311 0.26 148.849 0.26 148.849 0 148.849 0 148.849 0.26 150.388 0.26 150.388 0 150.388 0 150.388 0.26 151.928 0.26 151.928 0 151.928 0 151.928 0.26 153.467 0.26 153.467 0 153.467 0 153.467 0.26 155.007 0.26 155.007 0 155.007 0 155.007 0.26 156.548 0.26 156.548 0 156.548 0 156.548 0.26 158.089 0.26 158.089 0 158.089 0 158.089 0.26 159.63 0.26 159.63 0 159.63 0 159.63 0.26 161.171 0.26 161.171 0 161.171 0 161.171 0.26 162.712 0.26 162.712 0 162.712 0 162.712 0.26 164.253 0.26 164.253 0 164.253 0 164.253 0.26 165.794 0.26 165.794 0 165.794 0 165.794 0.26 167.334 0.26 167.334 0 167.334 0 167.334 0.26 168.875 0.26 168.875 0 168.875 0 168.875 0.26 170.415 0.26 170.415 0 170.415 0 170.415 0.26 171.955 0.26 171.955 0 171.955 0 171.955 0.26 173.495 0.26 173.495 0 173.495 0 173.495 0.26 175.033 0.26 175.033 0 175.033 0 175.033 0.26 176.572 0.26 176.572 0 176.572 0 176.572 0.26 178.11 0.26 178.11 0 178.11 0 178.11 0.26 179.647 0.26 179.647 0 179.647 0 179.647 0.26 181.183 0.26 181.183 0 181.183 0 181.183 0.26 182.719 0.26 182.719 0 182.719 0 182.719 0.26 184.253 0.26 184.253 0 184.253 0 184.253 0.26 185.787 0.26 185.787 0 185.787 0 185.787 0.26 187.32 0.26 187.32 0 187.32 0 187.32 0.26 188.852 0.26 188.852 0 188.852 0 188.852 0.26 190.383 0.26 190.383 0 190.383 0 190.383 0.26 191.912 0.26 191.912 0 191.912 0 191.912 0.26 193.441 0.26 193.441 0 193.441 0 193.441 0.26 194.969 0.26 194.969 0 194.969 0 194.969 0.26 196.495 0.26 196.495 0 196.495 0 196.495 0.26 198.02 0.26 198.02 0 198.02 0 198.02 0.26 199.545 0.26 199.545 0 199.545 0 199.545 0.26 201.067 0.26 201.067 0 201.067 0 201.067 0.26 202.589 0.26 202.589 0 202.589 0 202.589 0.26 204.11 0.26 204.11 0 204.11 0 204.11 0.26 205.629 0.26 205.629 0 205.629 0 205.629 0.26 207.147 0.26 207.147 0 207.147 0 207.147 0.26 208.664 0.26 208.664 0 208.664 0 208.664 0.26 210.179 0.26 210.179 0 210.179 0 210.179 0.26 211.694 0.26 211.694 0 211.694 0 211.694 0.26 213.207 0.26 213.207 0 213.207 0 213.207 0.26 214.72 0.26 214.72 0 214.72 0 214.72 0.26 216.231 0.26 216.231 0 216.231 0 216.231 0.26 217.741 0.26 217.741 0 217.741 0 217.741 0.26 219.25 0.26 219.25 0 219.25 0 219.25 0.26 220.758 0.26 220.758 0 220.758 0 220.758 0.26 222.265 0.26 222.265 0 222.265 0 222.265 0.26 223.771 0.26 223.771 0 223.771 0 223.771 0.26 225.277 0.26 225.277 0 225.277 0 225.277 0.26 226.781 0.26 226.781 0 226.781 0 226.781 0.26 228.285 0.26 228.285 0 228.285 0 228.285 0.26 229.788 0.26 229.788 0 229.788 0 229.788 0.26 231.291 0.26 231.291 0 231.291 0 231.291 0.26 232.793 0.26 232.793 0 232.793 0 232.793 0.26 234.294 0.26 234.294 0 234.294 0 234.294 0.26 235.795 0.26 235.795 0 235.795 0 235.795 0.26 237.296 0.26 237.296 0 237.296 0 237.296 0.26 238.797 0.26 238.797 0 238.797 0 238.797 0.26 240.297 0.26 240.297 0 240.297 0 240.297 0.26 241.797 0.26 241.797 0 241.797 0 241.797 0.26 243.297 0.26 243.297 0</float_array>
          <technique_common><accessor source="#farm_curb_face_left_uv_array" count="640" stride="2"><param name="S" type="float"/><param name="T" type="float"/></accessor></technique_common>
        </source>
        <vertices id="farm_curb_face_left_vertices"><input semantic="POSITION" source="#farm_curb_face_left_positions"/></vertices>
        <triangles material="farm_curb_face_left_material" count="320">
          <input semantic="VERTEX" source="#farm_curb_face_left_vertices" offset="0"/>
          <input semantic="NORMAL" source="#farm_curb_face_left_normals" offset="1"/>
          <input semantic="TEXCOORD" source="#farm_curb_face_left_uv" offset="2" set="0"/>
          <p>0 0 0 2 2 2 1 1 1 0 0 0 3 3 3 2 2 2 4 4 4 6 6 6 5 5 5 4 4 4 7 7 7 6 6 6 8 8 8 10 10 10 9 9 9 8 8 8 11 11 11 10 10 10 12 12 12 14 14 14 13 13 13 12 12 12 15 15 15 14 14 14 16 16 16 18 18 18 17 17 17 16 16 16 19 19 19 18 18 18 20 20 20 22 22 22 21 21 21 20 20 20 23 23 23 22 22 22 24 24 24 26 26 26 25 25 25 24 24 24 27 27 27 26 26 26 28 28 28 30 30 30 29 29 29 28 28 28 31 31 31 30 30 30 32 32 32 34 34 34 33 33 33 32 32 32 35 35 35 34 34 34 36 36 36 38 38 38 37 37 37 36 36 36 39 39 39 38 38 38 40 40 40 42 42 42 41 41 41 40 40 40 43 43 43 42 42 42 44 44 44 46 46 46 45 45 45 44 44 44 47 47 47 46 46 46 48 48 48 50 50 50 49 49 49 48 48 48 51 51 51 50 50 50 52 52 52 54 54 54 53 53 53 52 52 52 55 55 55 54 54 54 56 56 56 58 58 58 57 57 57 56 56 56 59 59 59 58 58 58 60 60 60 62 62 62 61 61 61 60 60 60 63 63 63 62 62 62 64 64 64 66 66 66 65 65 65 64 64 64 67 67 67 66 66 66 68 68 68 70 70 70 69 69 69 68 68 68 71 71 71 70 70 70 72 72 72 74 74 74 73 73 73 72 72 72 75 75 75 74 74 74 76 76 76 78 78 78 77 77 77 76 76 76 79 79 79 78 78 78 80 80 80 82 82 82 81 81 81 80 80 80 83 83 83 82 82 82 84 84 84 86 86 86 85 85 85 84 84 84 87 87 87 86 86 86 88 88 88 90 90 90 89 89 89 88 88 88 91 91 91 90 90 90 92 92 92 94 94 94 93 93 93 92 92 92 95 95 95 94 94 94 96 96 96 98 98 98 97 97 97 96 96 96 99 99 99 98 98 98 100 100 100 102 102 102 101 101 101 100 100 100 103 103 103 102 102 102 104 104 104 106 106 106 105 105 105 104 104 104 107 107 107 106 106 106 108 108 108 110 110 110 109 109 109 108 108 108 111 111 111 110 110 110 112 112 112 114 114 114 113 113 113 112 112 112 115 115 115 114 114 114 116 116 116 118 118 118 117 117 117 116 116 116 119 119 119 118 118 118 120 120 120 122 122 122 121 121 121 120 120 120 123 123 123 122 122 122 124 124 124 126 126 126 125 125 125 124 124 124 127 127 127 126 126 126 128 128 128 130 130 130 129 129 129 128 128 128 131 131 131 130 130 130 132 132 132 134 134 134 133 133 133 132 132 132 135 135 135 134 134 134 136 136 136 138 138 138 137 137 137 136 136 136 139 139 139 138 138 138 140 140 140 142 142 142 141 141 141 140 140 140 143 143 143 142 142 142 144 144 144 146 146 146 145 145 145 144 144 144 147 147 147 146 146 146 148 148 148 150 150 150 149 149 149 148 148 148 151 151 151 150 150 150 152 152 152 154 154 154 153 153 153 152 152 152 155 155 155 154 154 154 156 156 156 158 158 158 157 157 157 156 156 156 159 159 159 158 158 158 160 160 160 162 162 162 161 161 161 160 160 160 163 163 163 162 162 162 164 164 164 166 166 166 165 165 165 164 164 164 167 167 167 166 166 166 168 168 168 170 170 170 169 169 169 168 168 168 171 171 171 170 170 170 172 172 172 174 174 174 173 173 173 172 172 172 175 175 175 174 174 174 176 176 176 178 178 178 177 177 177 176 176 176 179 179 179 178 178 178 180 180 180 182 182 182 181 181 181 180 180 180 183 183 183 182 182 182 184 184 184 186 186 186 185 185 185 184 184 184 187 187 187 186 186 186 188 188 188 190 190 190 189 189 189 188 188 188 191 191 191 190 190 190 192 192 192 194 194 194 193 193 193 192 192 192 195 195 195 194 194 194 196 196 196 198 198 198 197 197 197 196 196 196 199 199 199 198 198 198 200 200 200 202 202 202 201 201 201 200 200 200 203 203 203 202 202 202 204 204 204 206 206 206 205 205 205 204 204 204 207 207 207 206 206 206 208 208 208 210 210 210 209 209 209 208 208 208 211 211 211 210 210 210 212 212 212 214 214 214 213 213 213 212 212 212 215 215 215 214 214 214 216 216 216 218 218 218 217 217 217 216 216 216 219 219 219 218 218 218 220 220 220 222 222 222 221 221 221 220 220 220 223 223 223 222 222 222 224 224 224 226 226 226 225 225 225 224 224 224 227 227 227 226 226 226 228 228 228 230 230 230 229 229 229 228 228 228 231 231 231 230 230 230 232 232 232 234 234 234 233 233 233 232 232 232 235 235 235 234 234 234 236 236 236 238 238 238 237 237 237 236 236 236 239 239 239 238 238 238 240 240 240 242 242 242 241 241 241 240 240 240 243 243 243 242 242 242 244 244 244 246 246 246 245 245 245 244 244 244 247 247 247 246 246 246 248 248 248 250 250 250 249 249 249 248 248 248 251 251 251 250 250 250 252 252 252 254 254 254 253 253 253 252 252 252 255 255 255 254 254 254 256 256 256 258 258 258 257 257 257 256 256 256 259 259 259 258 258 258 260 260 260 262 262 262 261 261 261 260 260 260 263 263 263 262 262 262 264 264 264 266 266 266 265 265 265 264 264 264 267 267 267 266 266 266 268 268 268 270 270 270 269 269 269 268 268 268 271 271 271 270 270 270 272 272 272 274 274 274 273 273 273 272 272 272 275 275 275 274 274 274 276 276 276 278 278 278 277 277 277 276 276 276 279 279 279 278 278 278 280 280 280 282 282 282 281 281 281 280 280 280 283 283 283 282 282 282 284 284 284 286 286 286 285 285 285 284 284 284 287 287 287 286 286 286 288 288 288 290 290 290 289 289 289 288 288 288 291 291 291 290 290 290 292 292 292 294 294 294 293 293 293 292 292 292 295 295 295 294 294 294 296 296 296 298 298 298 297 297 297 296 296 296 299 299 299 298 298 298 300 300 300 302 302 302 301 301 301 300 300 300 303 303 303 302 302 302 304 304 304 306 306 306 305 305 305 304 304 304 307 307 307 306 306 306 308 308 308 310 310 310 309 309 309 308 308 308 311 311 311 310 310 310 312 312 312 314 314 314 313 313 313 312 312 312 315 315 315 314 314 314 316 316 316 318 318 318 317 317 317 316 316 316 319 319 319 318 318 318 320 320 320 322 322 322 321 321 321 320 320 320 323 323 323 322 322 322 324 324 324 326 326 326 325 325 325 324 324 324 327 327 327 326 326 326 328 328 328 330 330 330 329 329 329 328 328 328 331 331 331 330 330 330 332 332 332 334 334 334 333 333 333 332 332 332 335 335 335 334 334 334 336 336 336 338 338 338 337 337 337 336 336 336 339 339 339 338 338 338 340 340 340 342 342 342 341 341 341 340 340 340 343 343 343 342 342 342 344 344 344 346 346 346 345 345 345 344 344 344 347 347 347 346 346 346 348 348 348 350 350 350 349 349 349 348 348 348 351 351 351 350 350 350 352 352 352 354 354 354 353 353 353 352 352 352 355 355 355 354 354 354 356 356 356 358 358 358 357 357 357 356 356 356 359 359 359 358 358 358 360 360 360 362 362 362 361 361 361 360 360 360 363 363 363 362 362 362 364 364 364 366 366 366 365 365 365 364 364 364 367 367 367 366 366 366 368 368 368 370 370 370 369 369 369 368 368 368 371 371 371 370 370 370 372 372 372 374 374 374 373 373 373 372 372 372 375 375 375 374 374 374 376 376 376 378 378 378 377 377 377 376 376 376 379 379 379 378 378 378 380 380 380 382 382 382 381 381 381 380 380 380 383 383 383 382 382 382 384 384 384 386 386 386 385 385 385 384 384 384 387 387 387 386 386 386 388 388 388 390 390 390 389 389 389 388 388 388 391 391 391 390 390 390 392 392 392 394 394 394 393 393 393 392 392 392 395 395 395 394 394 394 396 396 396 398 398 398 397 397 397 396 396 396 399 399 399 398 398 398 400 400 400 402 402 402 401 401 401 400 400 400 403 403 403 402 402 402 404 404 404 406 406 406 405 405 405 404 404 404 407 407 407 406 406 406 408 408 408 410 410 410 409 409 409 408 408 408 411 411 411 410 410 410 412 412 412 414 414 414 413 413 413 412 412 412 415 415 415 414 414 414 416 416 416 418 418 418 417 417 417 416 416 416 419 419 419 418 418 418 420 420 420 422 422 422 421 421 421 420 420 420 423 423 423 422 422 422 424 424 424 426 426 426 425 425 425 424 424 424 427 427 427 426 426 426 428 428 428 430 430 430 429 429 429 428 428 428 431 431 431 430 430 430 432 432 432 434 434 434 433 433 433 432 432 432 435 435 435 434 434 434 436 436 436 438 438 438 437 437 437 436 436 436 439 439 439 438 438 438 440 440 440 442 442 442 441 441 441 440 440 440 443 443 443 442 442 442 444 444 444 446 446 446 445 445 445 444 444 444 447 447 447 446 446 446 448 448 448 450 450 450 449 449 449 448 448 448 451 451 451 450 450 450 452 452 452 454 454 454 453 453 453 452 452 452 455 455 455 454 454 454 456 456 456 458 458 458 457 457 457 456 456 456 459 459 459 458 458 458 460 460 460 462 462 462 461 461 461 460 460 460 463 463 463 462 462 462 464 464 464 466 466 466 465 465 465 464 464 464 467 467 467 466 466 466 468 468 468 470 470 470 469 469 469 468 468 468 471 471 471 470 470 470 472 472 472 474 474 474 473 473 473 472 472 472 475 475 475 474 474 474 476 476 476 478 478 478 477 477 477 476 476 476 479 479 479 478 478 478 480 480 480 482 482 482 481 481 481 480 480 480 483 483 483 482 482 482 484 484 484 486 486 486 485 485 485 484 484 484 487 487 487 486 486 486 488 488 488 490 490 490 489 489 489 488 488 488 491 491 491 490 490 490 492 492 492 494 494 494 493 493 493 492 492 492 495 495 495 494 494 494 496 496 496 498 498 498 497 497 497 496 496 496 499 499 499 498 498 498 500 500 500 502 502 502 501 501 501 500 500 500 503 503 503 502 502 502 504 504 504 506 506 506 505 505 505 504 504 504 507 507 507 506 506 506 508 508 508 510 510 510 509 509 509 508 508 508 511 511 511 510 510 510 512 512 512 514 514 514 513 513 513 512 512 512 515 515 515 514 514 514 516 516 516 518 518 518 517 517 517 516 516 516 519 519 519 518 518 518 520 520 520 522 522 522 521 521 521 520 520 520 523 523 523 522 522 522 524 524 524 526 526 526 525 525 525 524 524 524 527 527 527 526 526 526 528 528 528 530 530 530 529 529 529 528 528 528 531 531 531 530 530 530 532 532 532 534 534 534 533 533 533 532 532 532 535 535 535 534 534 534 536 536 536 538 538 538 537 537 537 536 536 536 539 539 539 538 538 538 540 540 540 542 542 542 541 541 541 540 540 540 543 543 543 542 542 542 544 544 544 546 546 546 545 545 545 544 544 544 547 547 547 546 546 546 548 548 548 550 550 550 549 549 549 548 548 548 551 551 551 550 550 550 552 552 552 554 554 554 553 553 553 552 552 552 555 555 555 554 554 554 556 556 556 558 558 558 557 557 557 556 556 556 559 559 559 558 558 558 560 560 560 562 562 562 561 561 561 560 560 560 563 563 563 562 562 562 564 564 564 566 566 566 565 565 565 564 564 564 567 567 567 566 566 566 568 568 568 570 570 570 569 569 569 568 568 568 571 571 571 570 570 570 572 572 572 574 574 574 573 573 573 572 572 572 575 575 575 574 574 574 576 576 576 578 578 578 577 577 577 576 576 576 579 579 579 578 578 578 580 580 580 582 582 582 581 581 581 580 580 580 583 583 583 582 582 582 584 584 584 586 586 586 585 585 585 584 584 584 587 587 587 586 586 586 588 588 588 590 590 590 589 589 589 588 588 588 591 591 591 590 590 590 592 592 592 594 594 594 593 593 593 592 592 592 595 595 595 594 594 594 596 596 596 598 598 598 597 597 597 596 596 596 599 599 599 598 598 598 600 600 600 602 602 602 601 601 601 600 600 600 603 603 603 602 602 602 604 604 604 606 606 606 605 605 605 604 604 604 607 607 607 606 606 606 608 608 608 610 610 610 609 609 609 608 608 608 611 611 611 610 610 610 612 612 612 614 614 614 613 613 613 612 612 612 615 615 615 614 614 614 616 616 616 618 618 618 617 617 617 616 616 616 619 619 619 618 618 618 620 620 620 622 622 622 621 621 621 620 620 620 623 623 623 622 622 622 624 624 624 626 626 626 625 625 625 624 624 624 627 627 627 626 626 626 628 628 628 630 630 630 629 629 629 628 628 628 631 631 631 630 630 630 632 632 632 634 634 634 633 633 633 632 632 632 635 635 635 634 634 634 636 636 636 638 638 638 637 637 637 636 636 636 639 639 639 638 638 638</p>
        </triangles>
      </mesh>
    </geometry>
  </library_geometries>
  <library_visual_scenes>
    <visual_scene id="farm_curb_face_left_scene">
      <node id="farm_curb_face_left_node">
        <instance_geometry url="#farm_curb_face_left_geometry">
          <bind_material><technique_common>
            <instance_material symbol="farm_curb_face_left_material" target="#farm_curb_face_left_material"><bind_vertex_input semantic="UVSET0" input_semantic="TEXCOORD" input_set="0"/></instance_material>
          </technique_common></bind_material>
        </instance_geometry>
      </node>
    </visual_scene>
  </library_visual_scenes>
  <scene><instance_visual_scene url="#farm_curb_face_left_scene"/></scene>
</COLLADA>
