<?xml version="1.0" encoding="utf-8"?>
<COLLADA xmlns="http://www.collada.org/2005/11/COLLADASchema" version="1.4.1">
  <asset><unit name="meter" meter="1"/><up_axis>Z_UP</up_axis></asset>
  <library_images><image id="farm_curb_top_right_image"><init_from>textures/curb_tile.jpg</init_from></image></library_images>
  <library_effects>
    <effect id="farm_curb_top_right_effect">
      <profile_COMMON>
        <newparam sid="farm_curb_top_right_surface"><surface type="2D"><init_from>farm_curb_top_right_image</init_from></surface></newparam><newparam sid="farm_curb_top_right_sampler"><sampler2D><source>farm_curb_top_right_surface</source><wrap_s>WRAP</wrap_s><wrap_t>WRAP</wrap_t></sampler2D></newparam>
        <technique sid="common"><lambert><diffuse><texture texture="farm_curb_top_right_sampler" texcoord="UVSET0"/></diffuse></lambert></technique>
      </profile_COMMON>
    </effect>
  </library_effects>
  <library_materials>
    <material id="farm_curb_top_right_material"><instance_effect url="#farm_curb_top_right_effect"/></material>
  </library_materials>
  <library_geometries>
    <geometry id="farm_curb_top_right_geometry">
      <mesh>
        <source id="farm_curb_top_right_positions">
          <float_array id="farm_curb_top_right_positions_array" count="1920">2.62806 -60.6191 0.13 2.78379 -60.6558 0.13 2.96048 -59.9058 0.13 2.80474 -59.8691 0.13 2.80486 -59.8686 0.13 2.96061 -59.9053 0.13 3.13714 -59.1553 0.13 2.9814 -59.1186 0.13 2.98164 -59.1176 0.13 3.1374 -59.1542 0.13 3.31363 -58.4042 0.13 3.15787 -58.3676 0.13 3.15823 -58.3661 0.13 3.31401 -58.4026 0.13 3.48978 -57.6526 0.13 3.334 -57.6161 0.13 3.33447 -57.614 0.13 3.49028 -57.6504 0.13 3.66544 -56.9004 0.13 3.50963 -56.864 0.13 3.51022 -56.8615 0.13 3.66607 -56.8977 0.13 3.84046 -56.1477 0.13 3.68462 -56.1115 0.13 3.68532 -56.1085 0.13 3.84121 -56.1445 0.13 4.01469 -55.3945 0.13 3.8588 -55.3585 0.13 3.85962 -55.3549 0.13 4.01555 -55.3908 0.13 4.18797 -54.6408 0.13 4.03204 -54.6049 0.13 4.03296 -54.6009 0.13 4.18895 -54.6365 0.13 4.36015 -53.8865 0.13 4.20416 -53.8509 0.13 4.2052 -53.8463 0.13 4.36125 -53.8816 0.13 4.53108 -53.1316 0.13 4.37504 -53.0963 0.13 4.37617 -53.0913 0.13 4.53229 -53.1263 0.13 4.70062 -52.3763 0.13 4.5445 -52.3413 0.13 4.54574 -52.3357 0.13 4.70193 -52.3704 0.13 4.8686 -51.6204 0.13 4.71241 -51.5857 0.13 4.71374 -51.5797 0.13 4.87001 -51.614 0.13 5.03488 -50.864 0.13 4.87861 -50.8297 0.13 4.88003 -50.8232 0.13 5.03639 -50.8571 0.13 5.19931 -50.1071 0.13 5.04296 -50.0732 0.13 5.04447 -50.0661 0.13 5.20091 -50.0997 0.13 5.36175 -49.3497 0.13 5.20531 -49.3161 0.13 5.2069 -49.3086 0.13 5.36344 -49.3418 0.13 5.52205 -48.5918 0.13 5.36552 -48.5586 0.13 5.36719 -48.5507 0.13 5.52383 -48.5833 0.13 5.68008 -47.8333 0.13 5.52344 -47.8007 0.13 5.52519 -47.7922 0.13 5.68193 -47.8244 0.13 5.83568 -47.0744 0.13 5.67894 -47.0422 0.13 5.68075 -47.0333 0.13 5.8376 -47.0649 0.13 5.98872 -46.3149 0.13 5.83187 -46.2833 0.13 5.83374 -46.2739 0.13 5.9907 -46.305 0.13 6.13906 -45.555 0.13 5.9821 -45.5239 0.13 5.98403 -45.5141 0.13 6.1411 -45.5446 0.13 6.28656 -44.7946 0.13 6.12949 -44.7641 0.13 6.13147 -44.7538 0.13 6.28866 -44.7837 0.13 6.43111 -44.0337 0.13 6.27392 -44.0038 0.13 6.27593 -43.9931 0.13 6.43324 -44.0223 0.13 6.57255 -43.2723 0.13 6.41524 -43.2431 0.13 6.41729 -43.2319 0.13 6.57472 -43.2605 0.13 6.71077 -42.5105 0.13 6.55334 -42.4819 0.13 6.55541 -42.4703 0.13 6.71297 -42.4982 0.13 6.84563 -41.7482 0.13 6.68808 -41.7203 0.13 6.69018 -41.7083 0.13 6.84786 -41.7354 0.13 6.97703 -40.9854 0.13 6.81935 -40.9583 0.13 6.82146 -40.9458 0.13 6.97927 -40.9722 0.13 7.10483 -40.2222 0.13 6.94703 -40.1958 0.13 6.94915 -40.183 0.13 7.10707 -40.2086 0.13 7.22892 -39.4586 0.13 7.07099 -39.433 0.13 7.07311 -39.4197 0.13 7.23117 -39.4446 0.13 7.34919 -38.6946 0.13 7.19114 -38.6697 0.13 7.19325 -38.6561 0.13 7.35143 -38.6802 0.13 7.46553 -37.9302 0.13 7.30735 -37.9061 0.13 7.30944 -37.8921 0.13 7.46775 -37.9153 0.13 7.57783 -37.1653 0.13 7.41952 -37.1421 0.13 7.42159 -37.1277 0.13 7.58002 -37.1501 0.13 7.68598 -36.4001 0.13 7.52755 -36.3777 0.13 7.52959 -36.363 0.13 7.68814 -36.3845 0.13 7.78989 -35.6345 0.13 7.63134 -35.613 0.13 7.63334 -35.5979 0.13 7.79201 -35.6185 0.13 7.88946 -34.8685 0.13 7.7308 -34.8479 0.13 7.73275 -34.8325 0.13 7.89153 -34.8522 0.13 7.9846 -34.1022 0.13 7.82582 -34.0825 0.13 7.82772 -34.0668 0.13 7.98662 -34.0855 0.13 8.07522 -33.3355 0.13 7.91633 -33.3168 0.13 7.91817 -33.3007 0.13 8.07718 -33.3186 0.13 8.16124 -32.5686 0.13 8.00224 -32.5507 0.13 8.00402 -32.5344 0.13 8.16313 -32.5513 0.13 8.24258 -31.8013 0.13 8.08347 -31.7844 0.13 8.08517 -31.7678 0.13 8.24438 -31.7837 0.13 8.31915 -31.0337 0.13 8.15994 -31.0178 0.13 8.16157 -31.001 0.13 8.32087 -31.0159 0.13 8.39089 -30.2659 0.13 8.23159 -30.251 0.13 8.23313 -30.2339 0.13 8.39253 -30.2477 0.13 8.45774 -29.4977 0.13 8.29834 -29.4839 0.13 8.29979 -29.4666 0.13 8.45928 -29.4794 0.13 8.51962 -28.7294 0.13 8.36014 -28.7166 0.13 8.36149 -28.699 0.13 8.52106 -28.7108 0.13 8.57649 -27.9608 0.13 8.41692 -27.949 0.13 8.41817 -27.9313 0.13 8.57781 -27.942 0.13 8.62828 -27.192 0.13 8.46864 -27.1813 0.13 8.46979 -27.1633 0.13 8.62949 -27.173 0.13 8.67495 -26.423 0.13 8.51524 -26.4133 0.13 8.51628 -26.3953 0.13 8.67605 -26.4039 0.13 8.71645 -25.6539 0.13 8.55669 -25.6453 0.13 8.55761 -25.627 0.13 8.71743 -25.6346 0.13 8.75275 -24.8846 0.13 8.59293 -24.877 0.13 8.59373 -24.8587 0.13 8.7536 -24.8651 0.13 8.78381 -24.1151 0.13 8.62394 -24.1087 0.13 8.62462 -24.0902 0.13 8.78453 -24.0955 0.13 8.8096 -23.3455 0.13 8.64969 -23.3402 0.13 8.65025 -23.3216 0.13 8.81019 -23.3259 0.13 8.8301 -22.5759 0.13 8.67016 -22.5716 0.13 8.67059 -22.553 0.13 8.83056 -22.5562 0.13 8.84529 -21.8062 0.13 8.68532 -21.803 0.13 8.68562 -21.7843 0.13 8.84561 -21.7864 0.13 8.85514 -21.0364 0.13 8.69516 -21.0343 0.13 8.69533 -21.0156 0.13 8.85533 -21.0165 0.13 8.85966 -20.2665 0.13 8.69967 -20.2656 0.13 8.69971 -20.2469 0.13 8.85971 -20.2467 0.13 8.85884 -19.4967 0.13 8.69884 -19.4969 0.13 8.69875 -19.4781 0.13 8.85875 -19.4769 0.13 8.85268 -18.7269 0.13 8.69268 -18.7281 0.13 8.69247 -18.7094 0.13 8.85245 -18.707 0.13 8.84118 -17.957 0.13 8.6812 -17.9594 0.13 8.68085 -17.9408 0.13 8.84082 -17.9373 0.13 8.82436 -17.1873 0.13 8.6644 -17.1908 0.13 8.66392 -17.1722 0.13 8.82386 -17.1675 0.13 8.80223 -16.4175 0.13 8.64229 -16.4222 0.13 8.6417 -16.4036 0.13 8.80159 -16.3979 0.13 8.77481 -15.6479 0.13 8.61491 -15.6536 0.13 8.61419 -15.6352 0.13 8.77404 -15.6284 0.13 8.74213 -14.8784 0.13 8.58227 -14.8852 0.13 8.58143 -14.8669 0.13 8.74123 -14.859 0.13 8.70421 -14.109 0.13 8.54441 -14.1169 0.13 8.54345 -14.0987 0.13 8.7032 -14.0897 0.13 8.6611 -13.3397 0.13 8.50135 -13.3487 0.13 8.50028 -13.3307 0.13 8.65996 -13.3206 0.13 8.61283 -12.5706 0.13 8.45315 -12.5807 0.13 8.45197 -12.5628 0.13 8.61158 -12.5517 0.13 8.55946 -11.8017 0.13 8.39984 -11.8128 0.13 8.39855 -11.7951 0.13 8.55809 -11.783 0.13 8.50102 -11.033 0.13 8.34148 -11.0451 0.13 8.34009 -11.0276 0.13 8.49955 -11.0145 0.13 8.43757 -10.2645 0.13 8.27812 -10.2776 0.13 8.27664 -10.2604 0.13 8.43601 -10.2462 0.13 8.36918 -9.49619 0.13 8.20982 -9.51039 0.13 8.20825 -9.49337 0.13 8.36752 -9.47817 0.13 8.29591 -8.72817 0.13 8.13664 -8.74337 0.13 8.13498 -8.7266 0.13 8.29416 -8.7104 0.13 8.21782 -7.9604 0.13 8.05865 -7.9766 0.13 8.05691 -7.9601 0.13 8.21599 -7.94292 0.13 8.13499 -7.19292 0.13 7.97592 -7.2101 0.13 7.97412 -7.19388 0.13 8.13309 -7.17574 0.13 8.0475 -6.42574 0.13 7.88853 -6.44388 0.13 7.88667 -6.42795 0.13 8.04552 -6.40887 0.13 7.95542 -5.65887 0.13 7.79657 -5.67795 0.13 7.79464 -5.66233 0.13 7.95339 -5.64232 0.13 7.85885 -4.89232 0.13 7.7001 -4.91233 0.13 7.69813 -4.89704 0.13 7.85676 -4.87612 0.13 7.75787 -4.12612 0.13 7.59924 -4.14704 0.13 7.59722 -4.13208 0.13 7.75573 -4.11027 0.13 7.65257 -3.36027 0.13 7.49406 -3.38208 0.13 7.49201 -3.36746 0.13 7.65039 -3.34479 0.13 7.54305 -2.59479 0.13 7.38466 -2.61746 0.13 7.38259 -2.60321 0.13 7.54085 -2.57969 0.13 7.42942 -1.82969 0.13 7.27116 -1.85321 0.13 7.26906 -1.83932 0.13 7.42719 -1.81498 0.13 7.31177 -1.06498 0.13 7.15363 -1.08932 0.13 7.15152 -1.07581 0.13 7.30953 -1.05068 0.13 7.19022 -0.300676 0.13 7.03221 -0.325813 0.13 7.03009 -0.312698 0.13 7.18798 -0.286784 0.13 7.06488 0.463216 0.13 6.90699 0.437302 0.13 6.90487 0.450017 0.13 7.06264 0.476684 0.13 6.93586 1.22668 0.13 6.7781 1.20002 0.13 6.77599 1.21232 0.13 6.93362 1.23972 0.13 6.80328 1.98972 0.13 6.64564 1.96232 0.13 6.64354 1.97421 0.13 6.80106 2.00231 0.13 6.66725 2.75231 0.13 6.50974 2.72421 0.13 6.50767 2.73567 0.13 6.66506 2.76445 0.13 6.52791 3.51445 0.13 6.37052 3.48567 0.13 6.36848 3.4967 0.13 6.52575 3.52613 0.13 6.38538 4.27613 0.13 6.22812 4.2467 0.13 6.22611 4.25729 0.13 6.38326 4.28735 0.13 6.23979 5.03735 0.13 6.08264 5.00729 0.13 6.08068 5.01743 0.13 6.23772 5.04809 0.13 6.09128 5.79809 0.13 5.93424 5.76743 0.13 5.93233 5.77711 0.13 6.08925 5.80835 0.13 5.93996 6.55835 0.13 5.78304 6.52711 0.13 5.78119 6.53634 0.13 5.938 6.56812 0.13 5.78599 7.31812 0.13 5.62917 7.28634 0.13 5.62738 7.2951 0.13 5.78409 7.3274 0.13 5.62949 8.0774 0.13 5.47278 8.0451 0.13 5.47106 8.05339 0.13 5.62766 8.08618 0.13 5.47061 8.83618 0.13 5.31401 8.80339 0.13 5.31236 8.8112 0.13 5.46887 8.84446 0.13 5.3095 9.59446 0.13 5.15299 9.5612 0.13 5.15142 9.56853 0.13 5.30783 9.60223 0.13 5.14629 10.3522 0.13 4.98987 10.3185 0.13 4.98839 10.3254 0.13 5.14471 10.3595 0.13 4.98113 11.1095 0.13 4.8248 11.0754 0.13 4.82341 11.0817 0.13 4.97965 11.1162 0.13 4.81416 11.8662 0.13 4.65792 11.8317 0.13 4.65662 11.8376 0.13 4.81278 11.8724 0.13 4.64555 12.6224 0.13 4.48938 12.5876 0.13 4.48818 12.593 0.13 4.64427 12.6281 0.13 4.47542 13.3781 0.13 4.31933 13.343 0.13 4.31823 13.3479 0.13 4.47425 13.3833 0.13 4.30395 14.1333 0.13 4.14792 14.0979 0.13 4.14692 14.1023 0.13 4.30289 14.138 0.13 4.13127 14.888 0.13 3.9753 14.8523 0.13 3.97441 14.8562 0.13 4.13032 14.8921 0.13 3.95754 15.6421 0.13 3.80162 15.6062 0.13 3.80084 15.6095 0.13 3.95671 15.6457 0.13 3.78291 16.3957 0.13 3.62704 16.3595 0.13 3.62637 16.3624 0.13 3.7822 16.3987 0.13 3.60753 17.1487 0.13 3.4517 17.1124 0.13 3.45115 17.1148 0.13 3.60695 17.1512 0.13 3.43157 17.9012 0.13 3.27577 17.8648 0.13 3.27533 17.8666 0.13 3.43111 17.9032 0.13 3.25517 18.6532 0.13 3.09939 18.6166 0.13 3.09908 18.618 0.13 3.25483 18.6546 0.13 3.07848 19.4046 0.13 2.92273 19.368 0.13 2.92253 19.3688 0.13 3.07827 19.4055 0.13 2.90166 20.1555 0.13 2.74592 20.1188 0.13 2.74584 20.1192 0.13 2.90158 20.1559 0.13 2.72487 20.9059 0.13 2.56914 20.8692 0.13 2.56918 20.869 0.13 2.72492 20.9057 0.13 2.54826 21.6557 0.13 2.39252 21.619 0.13 2.39268 21.6183 0.13 2.54843 21.655 0.13 2.37198 22.405 0.13 2.21623 22.3683 0.13 2.21651 22.3672 0.13 2.37228 22.4037 0.13 2.19618 23.1537 0.13 2.04042 23.1172 0.13 2.04082 23.1155 0.13 2.1966 23.1519 0.13 2.02102 23.9019 0.13 1.86523 23.8655 0.13 1.86575 23.8633 0.13 2.02156 23.8996 0.13 1.84664 24.6496 0.13 1.69083 24.6133 0.13 1.69146 24.6105 0.13 1.84731 24.6467 0.13 1.6732 25.3967 0.13 1.51735 25.3605 0.13 1.51809 25.3573 0.13 1.67399 25.3933 0.13 1.50085 26.1433 0.13 1.34495 26.1073 0.13 1.34581 26.1036 0.13 1.50176 26.1394 0.13 1.32973 26.8894 0.13 1.17378 26.8536 0.13 1.17474 26.8494 0.13 1.33075 26.8849 0.13 1.15999 27.6349 0.13 1.00398 27.5994 0.13 1.00505 27.5947 0.13 1.16112 27.6299 0.13 0.991774 28.3799 0.13 0.835703 28.3447 0.13 0.836875 28.3395 0.13 0.993016 28.3744 0.13 0.825226 29.1244 0.13 0.669086 29.0895 0.13 0.670357 29.0838 0.13 0.826572 29.1184 0.13 0.660488 29.8684 0.13 0.504272 29.8338 0.13 0.505638 29.8276 0.13 0.661934 29.8618 0.13 0.497699 30.6118 0.13 0.341403 30.5776 0.13 0.342858 30.5709 0.13 0.499241 30.6047 0.13 0.336998 31.3547 0.13 0.180615 31.3209 0.13 0.182157 31.3137 0.13 0.338631 31.3471 0.13 0.178519 32.0971 0.13 0.0220453 32.0637 0.13 0.0236678 32.056 0.13 0.180238 32.089 0.13 0.022398 32.839 0.13 -0.134172 32.806 0.13 -0.132474 32.7979 0.13 0.0241969 32.8304 0.13 -0.131235 33.5804 0.13 -0.287906 33.5479 0.13 -0.286138 33.5393 0.13 -0.129362 33.5713 0.13 -0.282251 34.3213 0.13 -0.439027 34.2893 0.13 -0.437194 34.2802 0.13 -0.280309 34.3117 0.13 -0.430523 35.0617 0.13 -0.587407 35.0302 0.13 -0.585516 35.0207 0.13 -0.428519 35.0516 0.13 -0.575927 35.8016 0.13 -0.732923 35.7707 0.13 -0.73098 35.7607 0.13 -0.573868 35.791 0.13 -0.718342 36.541 0.13 -0.875454 36.5107 0.13 -0.873464 36.5003 0.13 -0.716235 36.5299 0.13 -0.85765 37.2799 0.13 -1.01488 37.2503 0.13 -1.01285 37.2394 0.13 -0.855501 37.2684 0.13 -0.993734 38.0184 0.13 -1.15108 37.9894 0.13 -1.14902 37.9781 0.13 -0.991551 38.0064 0.13 -1.12648 38.7564 0.13 -1.28395 38.7281 0.13 -1.28187 38.7163 0.13 -1.12427 38.744 0.13 -1.25579 39.494 0.13 -1.41338 39.4663 0.13 -1.41128 39.4542 0.13 -1.25356 39.4811 0.13 -1.38154 40.2311 0.13 -1.53926 40.2042 0.13 -1.53714 40.1916 0.13 -1.37929 40.2178 0.13 -1.50363 40.9678 0.13 -1.66148 40.9416 0.13 -1.65936 40.9286 0.13 -1.50139 40.954 0.13 -1.62197 41.704 0.13 -1.77994 41.6786 0.13 -1.77783 41.6652 0.13 -1.61973 41.6898 0.13 -1.73646 42.4398 0.13 -1.89456 42.4152 0.13 -1.89245 42.4015 0.13 -1.73423 42.4253 0.13 -1.847 43.1753 0.13 -2.00522 43.1515 0.13 -2.00313 43.1373 0.13 -1.84479 43.1603 0.13 -1.95351 43.9103 0.13 -2.11185 43.8873 0.13 -2.10979 43.8728 0.13 -1.95132 43.8949 0.13 -2.05589 44.6449 0.13 -2.21436 44.6228 0.13 -2.21233 44.608 0.13 -2.05374 44.6292 0.13 -2.15407 45.3792 0.13 -2.31266 45.358 0.13 -2.31067 45.3428 0.13 -2.15196 45.3631 0.13 -2.24796 46.1131 0.13 -2.40667 46.0928 0.13 -2.40473 46.0773 0.13 -2.24591 46.0967 0.13 -2.3375 46.8467 0.13 -2.49632 46.8273 0.13 -2.49443 46.8115 0.13 -2.3355 46.8299 0.13 -2.4226 47.5799 0.13 -2.58153 47.5615 0.13 -2.57971 47.5453 0.13 -2.42067 47.5628 0.13 -2.5032 48.3128 0.13 -2.66224 48.2953 0.13 -2.66049 48.2789 0.13 -2.50134 48.2955 0.13 -2.57924 49.0455 0.13 -2.73838 49.0289 0.13 -2.7367 49.0122 0.13 -2.57746 49.0278 0.13 -2.65065 49.7778 0.13 -2.80989 49.7622 0.13 -2.80829 49.7453 0.13 -2.64896 49.7598 0.13 -2.71738 50.5098 0.13 -2.87672 50.4953 0.13 -2.87521 50.4781 0.13 -2.71578 50.4916 0.13 -2.77937 51.2416 0.13 -2.9388 51.2281 0.13 -2.93738 51.2107 0.13 -2.77787 51.2232 0.13 -2.83659 51.9732 0.13 -2.9961 51.9607 0.13 -2.99478 51.9431 0.13 -2.83519 51.9546 0.13 -2.88897 52.7046 0.13 -3.04856 52.6931 0.13 -3.04734 52.6753 0.13 -2.88768 52.6857 0.13 -2.93648 53.4357 0.13 -3.09614 53.4253 0.13 -3.09503 53.4073 0.13 -2.9353 53.4167 0.13 -2.97908 54.1667 0.13 -3.13881 54.1573 0.13 -3.13781 54.1392 0.13 -2.97802 54.1474 0.13 -3.01674 54.8974 0.13 -3.17653 54.8892 0.13 -3.17565 54.8709 0.13 -3.01581 54.8781 0.13 -3.04943 55.6281 0.13 -3.20927 55.6209 0.13 -3.20851 55.6025 0.13 -3.04862 55.6086 0.13 -3.07712 56.3586 0.13 -3.23701 56.3525 0.13 -3.23637 56.334 0.13 -3.07644 56.339 0.13 -3.0998 57.089 0.13 -3.25972 57.084 0.13 -3.2592 57.0654 0.13 -3.09925 57.0693 0.13 -3.11743 57.8193 0.13 -3.27739 57.8154 0.13 -3.277 57.7968 0.13 -3.11702 57.7996 0.13 -3.13002 58.5496 0.13 -3.29 58.5468 0.13 -3.28974 58.5281 0.13 -3.12975 58.5298 0.13 -3.13755 59.2798 0.13 -3.29754 59.2781 0.13 -3.29741 59.2594 0.13 -3.13742 59.2599 0.13 -3.14002 60.0099 0.13 -3.30002 60.0094 0.13</float_array>
          <technique_common><accessor source="#farm_curb_top_right_positions_array" count="640" stride="3"><param name="X" type="float"/><param name="Y" type="float"/><param name="Z" type="float"/></accessor></technique_common>
        </source>
        <source id="farm_curb_top_right_normals">
          <float_array id="farm_curb_top_right_normals_array" count="1920">0 0 1 0 0 1 0 0 1 0 0 1 0 0 1 0 0 1 0 0 1 0 0 1 0 0 1 0 0 1 0 0 1 0 0 1 0 0 1 0 0 1 0 0 1 0 0 1 0 0 1 0 0 1 0 0 1 0 0 1 0 0 1 0 0 1 0 0 1 0 0 1 0 0 1 0 0 1 0 0 1 0 0 1 0 0 1 0 0 1 0 0 1 0 0 1 0 0 1 0 0 1 0 0 1 0 0 1 0 0 1 0 0 1 0 0 1 0 0 1 0 0 1 0 0 1 0 0 1 0 0 1 0 0 1 0 0 1 0 0 1 0 0 1 0 0 1 0 0 1 0 0 1 0 0 1 0 0 1 0 0 1 0 0 1 0 0 1 0 0 1 0 0 1 0 0 1 0 0 1 0 0 1 0 0 1 0 0 1 0 0 1 0 0 1 0 0 1 0 0 1 0 0 1 0 0 1 0 0 1 0 0 1 0 0 1 0 0 1 0 0 1 0 0 1 0 0 1 0 0 1 0 0 1 0 0 1 0 0 1 0 0 1 0 0 1 0 0 1 0 0 1 0 0 1 0 0 1 0 0 1 0 0 1 0 0 1 0 0 1 0 0 1 0 0 1 0 0 1 0 0 1 0 0 1 0 0 1 0 0 1 0 0 1 0 0 1 0 0 1 0 0 1 0 0 1 0 0 1 0 0 1 0 0 1 0 0 1 0 0 1 0 0 1 0 0 1 0 0 1 0 0 1 0 0 1 0 0 1 0 0 1 0 0 1 0 0 1 0 0 1 0 0 1 0 0 1 0 0 1 0 0 1 0 0 1 0 0 1 0 0 1 0 0 1 0 0 1 0 0 1 0 0 1 0 0 1 0 0 1 0 0 1 0 0 1 0 0 1 0 0 1 0 0 1 0 0 1 0 0 1 0 0 1 0 0 1 0 0 1 0 0 1 0 0 1 0 0 1 0 0 1 0 0 1 0 0 1 0 0 1 0 0 1 0 0 1 0 0 1 0 0 1 0 0 1 0 0 1 0 0 1 0 0 1 0 0 1 0 0 1 0 0 1 0 0 1 0 0 1 0 0 1 0 0 1 0 0 1 0 0 1 0 0 1 0 0 1 0 0 1 0 0 1 0 0 1 0 0 1 0 0 1 0 0 1 0 0 1 0 0 1 0 0 1 0 0 1 0 0 1 0 0 1 0 0 1 0 0 1 0 0 1 0 0 1 0 0 1 0 0 1 0 0 1 0 0 1 0 0 1 0 0 1 0 0 1 0 0 1 0 0 1 0 0 1 0 0 1 0 0 1 0 0 1 0 0 1 0 0 1 0 0 1 0 0 1 0 0 1 0 0 1 0 0 1 0 0 1 0 0 1 0 0 1 0 0 1 0 0 1 0 0 1 0 0 1 0 0 1 0 0 1 0 0 1 0 0 1 0 0 1 0 0 1 0 0 1 0 0 1 0 0 1 0 0 1 0 0 1 0 0 1 0 0 1 0 0 1 0 0 1 0 0 1 0 0 1 0 0 1 0 0 1 0 0 1 0 0 1 0 0 1 0 0 1 0 0 1 0 0 1 0 0 1 0 0 1 0 0 1 0 0 1 0 0 1 0 0 1 0 0 1 0 0 1 0 0 1 0 0 1 0 0 1 0 0 1 0 0 1 0 0 1 0 0 1 0 0 1 0 0 1 0 0 1 0 0 1 0 0 1 0 0 1 0 0 1 0 0 1 0 0 1 0 0 1 0 0 1 0 0 1 0 0 1 0 0 1 0 0 1 0 0 1 0 0 1 0 0 1 0 0 1 0 0 1 0 0 1 0 0 1 0 0 1 0 0 1 0 0 1 0 0 1 0 0 1 0 0 1 0 0 1 0 0 1 0 0 1 0 0 1 0 0 1 0 0 1 0 0 1 0 0 1 0 0 1 0 0 1 0 0 1 0 0 1 0 0 1 0 0 1 0 0 1 0 0 1 0 0 1 0 0 1 0 0 1 0 0 1 0 0 1 0 0 1 0 0 1 0 0 1 0 0 1 0 0 1 0 0 1 0 0 1 0 0 1 0 0 1 0 0 1 0 0 1 0 0 1 0 0 1 0 0 1 0 0 1 0 0 1 0 0 1 0 0 1 0 0 1 0 0 1 0 0 1 0 0 1 0 0 1 0 0 1 0 0 1 0 0 1 0 0 1 0 0 1 0 0 1 0 0 1 0 0 1 0 0 1 0 0 1 0 0 1 0 0 1 0 0 1 0 0 1 0 0 1 0 0 1 0 0 1 0 0 1 0 0 1 0 0 1 0 0 1 0 0 1 0 0 1 0 0 1 0 0 1 0 0 1 0 0 1 0 0 1 0 0 1 0 0 1 0 0 1 0 0 1 0 0 1 0 0 1 0 0 1 0 0 1 0 0 1 0 0 1 0 0 1 0 0 1 0 0 1 0 0 1 0 0 1 0 0 1 0 0 1 0 0 1 0 0 1 0 0 1 0 0 1 0 0 1 0 0 1 0 0 1 0 0 1 0 0 1 0 0 1 0 0 1 0 0 1 0 0 1 0 0 1 0 0 1 0 0 1 0 0 1 0 0 1 0 0 1 0 0 1 0 0 1 0 0 1 0 0 1 0 0 1 0 0 1 0 0 1 0 0 1 0 0 1 0 0 1 0 0 1 0 0 1 0 0 1 0 0 1 0 0 1 0 0 1 0 0 1 0 0 1 0 0 1 0 0 1 0 0 1 0 0 1 0 0 1 0 0 1 0 0 1 0 0 1 0 0 1 0 0 1 0 0 1 0 0 1 0 0 1 0 0 1 0 0 1 0 0 1 0 0 1 0 0 1 0 0 1 0 0 1 0 0 1 0 0 1 0 0 1 0 0 1 0 0 1 0 0 1 0 0 1 0 0 1 0 0 1 0 0 1 0 0 1 0 0 1 0 0 1 0 0 1 0 0 1 0 0 1 0 0 1 0 0 1 0 0 1 0 0 1 0 0 1 0 0 1 0 0 1 0 0 1 0 0 1 0 0 1 0 0 1 0 0 1 0 0 1 0 0 1 0 0 1 0 0 1 0 0 1 0 0 1 0 0 1 0 0 1 0 0 1 0 0 1 0 0 1 0 0 1 0 0 1 0 0 1 0 0 1 0 0 1 0 0 1 0 0 1 0 0 1 0 0 1 0 0 1 0 0 1 0 0 1 0 0 1 0 0 1 0 0 1 0 0 1 0 0 1 0 0 1 0 0 1 0 0 1 0 0 1 0 0 1 0 0 1 0 0 1 0 0 1 0 0 1 0 0 1 0 0 1 0 0 1 0 0 1 0 0 1 0 0 1 0 0 1 0 0 1 0 0 1 0 0 1 0 0 1 0 0 1 0 0 1 0 0 1 0 0 1 0 0 1 0 0 1 0 0 1 0 0 1 0 0 1 0 0 1 0 0 1 0 0 1 0 0 1 0 0 1 0 0 1 0 0 1 0 0 1 0 0 1 0 0 1 0 0 1 0 0 1 0 0 1 0 0 1 0 0 1 0 0 1 0 0 1 0 0 1 0 0 1 0 0 1 0 0 1 0 0 1 0 0 1 0 0 1 0 0 1 0 0 1 0 0 1 0 0 1 0 0 1 0 0 1 0 0 1 0 0 1 0 0 1 0 0 1 0 0 1 0 0 1 0 0 1 0 0 1 0 0 1 0 0 1 0 0 1 0 0 1 0 0 1 0 0 1 0 0 1 0 0 1 0 0 1 0 0 1 0 0 1 0 0 1 0 0 1 0 0 1 0 0 1 0 0 1 0 0 1 0 0 1 0 0 1 0 0 1 0 0 1 0 0 1 0 0 1 0 0 1 0 0 1 0 0 1 0 0 1 0 0 1 0 0 1 0 0 1 0 0 1 0 0 1 0 0 1 0 0 1 0 0 1 0 0 1 0 0 1 0 0 1 0 0 1 0 0 1 0 0 1 0 0 1 0 0 1 0 0 1 0 0 1 0 0 1 0 0 1 0 0 1 0 0 1 0 0 1 0 0 1 0 0 1 0 0 1 0 0 1 0 0 1 0 0 1 0 0 1 0 0 1 0 0 1 0 0 1 0 0 1 0 0 1 0 0 1 0 0 1 0 0 1 0 0 1 0 0 1 0 0 1 0 0 1 0 0 1 0 0 1 0 0 1 0 0 1 0 0 1 0 0 1 0 0 1 0 0 1 0 0 1 0 0 1 0 0 1 0 0 1 0 0 1 0 0 1 0 0 1 0 0 1 0 0 1 0 0 1 0 0 1 0 0 1 0 0 1 0 0 1 0 0 1 0 0 1 0 0 1</float_array>
          <technique_common><accessor source="#farm_curb_top_right_normals_array" count="640" stride="3"><param name="X" type="float"/><param name="Y" type="float"/><param name="Z" type="float"/></accessor></technique_common>
        </source>
        <source id="farm_curb_top_right_uv">
          <float_array id="farm_curb_top_right_uv_array" count="1280">0 0 0 0.32 1.54106 0.32 1.54106 0 1.54106 0 1.54106 0.32 3.08206 0.32 3.08206 0 3.08206 0 3.08206 0.32 4.62291 0.32 4.62291 0 4.62291 0 4.62291 0.32 6.16355 0.32 6.16355 0 6.16355 0 6.16355 0.32 7.70392 0.32 7.70392 0 7.70392 0 7.70392 0.32 9.24393 0.32 9.24393 0 9.24393 0 9.24393 0.32 10.7835 0.32 10.7835 0 10.7835 0 10.7835 0.32 12.3227 0.32 12.3227 0 12.3227 0 12.3227 0.32 13.8612 0.32 13.8612 0 13.8612 0 13.8612 0.32 15.3992 0.32 15.3992 0 15.3992 0 15.3992 0.32 16.9365 0.32 16.9365 0 16.9365 0 16.9365 0.32 18.4731 0.32 18.4731 0 18.4731 0 18.4731 0.32 20.0089 0.32 20.0089 0 20.0089 0 20.0089 0.32 21.5439 0.32 21.5439 0 21.5439 0 21.5439 0.32 23.078 0.32 23.078 0 23.078 0 23.078 0.32 24.6112 0.32 24.6112 0 24.6112 0 24.6112 0.32 26.1434 0.32 26.1434 0 26.1434 0 26.1434 0.32 27.6746 0.32 27.6746 0 27.6746 0 27.6746 0.32 29.2048 0.32 29.2048 0 29.2048 0 29.2048 0.32 30.7338 0.32 30.7338 0 30.7338 0 30.7338 0.32 32.2618 0.32 32.2618 0 32.2618 0 32.2618 0.32 33.7886 0.32 33.7886 0 33.7886 0 33.7886 0.32 35.3142 0.32 35.3142 0 35.3142 0 35.3142 0.32 36.8387 0.32 36.8387 0 36.8387 0 36.8387 0.32 38.362 0.32 38.362 0 38.362 0 38.362 0.32 39.8841 0.32 39.8841 0 39.8841 0 39.8841 0.32 41.405 0.32 41.405 0 41.405 0 41.405 0.32 42.9246 0.32 42.9246 0 42.9246 0 42.9246 0.32 44.4431 0.32 44.4431 0 44.4431 0 44.4431 0.32 45.9604 0.32 45.9604 0 45.9604 0 45.9604 0.32 47.4764 0.32 47.4764 0 47.4764 0 47.4764 0.32 48.9913 0.32 48.9913 0 48.9913 0 48.9913 0.32 50.5051 0.32 50.5051 0 50.5051 0 50.5051 0.32 52.0177 0.32 52.0177 0 52.0177 0 52.0177 0.32 53.5292 0.32 53.5292 0 53.5292 0 53.5292 0.32 55.0396 0.32 55.0396 0 55.0396 0 55.0396 0.32 56.549 0.32 56.549 0 56.549 0 56.549 0.32 58.0574 0.32 58.0574 0 58.0574 0 58.0574 0.32 59.5648 0.32 59.5648 0 59.5648 0 59.5648 0.32 61.0714 0.32 61.0714 0 61.0714 0 61.0714 0.32 62.577 0.32 62.577 0 62.577 0 62.577 0.32 64.0819 0.32 64.0819 0 64.0819 0 64.0819 0.32 65.586 0.32 65.586 0 65.586 0 65.586 0.32 67.0893 0.32 67.0893 0 67.0893 0 67.0893 0.32 68.5921 0.32 68.5921 0 68.5921 0 68.5921 0.32 70.0943 0.32 70.0943 0 70.0943 0 70.0943 0.32 71.5959 0.32 71.5959 0 71.5959 0 71.5959 0.32 73.0972 0.32 73.0972 0 73.0972 0 73.0972 0.32 74.598 0.32 74.598 0 74.598 0 74.598 0.32 76.0985 0.32 76.0985 0 76.0985 0 76.0985 0.32 77.5988 0.32 77.5988 0 77.5988 0 77.5988 0.32 79.0989 0.32 79.0989 0 79.0989 0 79.0989 0.32 80.599 0.32 80.599 0 80.599 0 80.599 0.32 82.099 0.32 82.099 0 82.099 0 82.099 0.32 83.599 0.32 83.599 0 83.599 0 83.599 0.32 85.0992 0.32 85.0992 0 85.0992 0 85.0992 0.32 86.5995 0.32 86.5995 0 86.5995 0 86.5995 0.32 88.1002 0.32 88.1002 0 88.1002 0 88.1002 0.32 89.6011 0.32 89.6011 0 89.6011 0 89.6011 0.32 91.1025 0.32 91.1025 0 91.1025 0 91.1025 0.32 92.6043 0.32 92.6043 0 92.6043 0 92.6043 0.32 94.1067 0.32 94.1067 0 94.1067 0 94.1067 0.32 95.6096 0.32 95.6096 0 95.6096 0 95.6096 0.32 97.1132 0.32 97.1132 0 97.1132 0 97.1132 0.32 98.6176 0.32 98.6176 0 98.6176 0 98.6176 0.32 100.123 0.32 100.123 0 100.123 0 100.123 0.32 101.629 0.32 101.629 0 101.629 0 101.629 0.32 103.135 0.32 103.135 0 103.135 0 103.135 0.32 104.643 0.32 104.643 0 104.643 0 104.643 0.32 106.152 0.32 106.152 0 106.152 0 106.152 0.32 107.662 0.32 107.662 0 107.662 0 107.662 0.32 109.172 0.32 109.172 0 109.172 0 109.172 0.32 110.684 0.32 110.684 0 110.684 0 110.684 0.32 112.197 0.32 112.197 0 112.197 0 112.197 0.32 113.711 0.32 113.711 0 113.711 0 113.711 0.32 115.227 0.32 115.227 0 115.227 0 115.227 0.32 116.743 0.32 116.743 0 116.743 0 116.743 0.32 118.261 0.32 118.261 0 118.261 0 118.261 0.32 119.78 0.32 119.78 0 119.78 0 119.78 0.32 121.3 0.32 121.3 0 121.3 0 121.3 0.32 122.821 0.32 122.821 0 122.821 0 122.821 0.32 124.344 0.32 124.344 0 124.344 0 124.344 0.32 125.867 0.32 125.867 0 125.867 0 125.867 0.32 127.392 0.32 127.392 0 127.392 0 127.392 0.32 128.918 0.32 128.918 0 128.918 0 128.918 0.32 130.445 0.32 130.445 0 130.445 0 130.445 0.32 131.974 0.32 131.974 0 131.974 0 131.974 0.32 133.503 0.32 133.503 0 133.503 0 133.503 0.32 135.034 0.32 135.034 0 135.034 0 135.034 0.32 136.565 0.32 136.565 0 136.565 0 136.565 0.32 138.098 0.32 138.098 0 138.098 0 138.098 0.32 139.631 0.32 139.631 0 139.631 0 139.631 0.32 141.166 0.32 141.166 0 141.166 0 141.166 0.32 142.701 0.32 142.701 0 142.701 0 142.701 0.32 144.237 0.32 144.237 0 144.237 0 144.237 0.32 145.774 0.32 145.774 0 145.774 0 145.774 0.32 147.311 0.32 147.311 0 147.311 0 147.311 0.32 148.849 0.32 148.849 0 148.849 0 148.849 0.32 150.388 0.32 150.388 0 150.388 0 150.388 0.32 151.928 0.32 151.928 0 151.928 0 151.928 0.32 153.467 0.32 153.467 0 153.467 0 153.467 0.32 155.007 0.32 155.007 0 155.007 0 155.007 0.32 156.548 0.32 156.548 0 156.548 0 156.548 0.32 158.089 0.32 158.089 0 158.089 0 158.089 0.32 159.63 0.32 159.63 0 159.63 0 159.63 0.32 161.171 0.32 161.171 0 161.171 0 161.171 0.32 162.712 0.32 162.712 0 162.712 0 162.712 0.32 164.253 0.32 164.253 0 164.253 0 164.253 0.32 165.794 0.32 165.794 0 165.794 0 165.794 0.32 167.334 0.32 167.334 0 167.334 0 167.334 0.32 168.875 0.32 168.875 0 168.875 0 168.875 0.32 170.415 0.32 170.415 0 170.415 0 170.415 0.32 171.955 0.32 171.955 0 171.955 0 171.955 0.32 173.495 0.32 173.495 0 173.495 0 173.495 0.32 175.033 0.32 175.033 0 175.033 0 175.033 0.32 176.572 0.32 176.572 0 176.572 0 176.572 0.32 178.11 0.32 178.11 0 178.11 0 178.11 0.32 179.647 0.32 179.647 0 179.647 0 179.647 0.32 181.183 0.32 181.183 0 181.183 0 181.183 0.32 182.719 0.32 182.719 0 182.719 0 182.719 0.32 184.253 0.32 184.253 0 184.253 0 184.253 0.32 185.787 0.32 185.787 0 185.787 0 185.787 0.32 187.32 0.32 187.32 0 187.32 0 187.32 0.32 188.852 0.32 188.852 0 188.852 0 188.852 0.32 190.383 0.32 190.383 0 190.383 0 190.383 0.32 191.912 0.32 191.912 0 191.912 0 191.912 0.32 193.441 0.32 193.441 0 193.441 0 193.441 0.32 194.969 0.32 194.969 0 194.969 0 194.969 0.32 196.495 0.32 196.495 0 196.495 0 196.495 0.32 198.02 0.32 198.02 0 198.02 0 198.02 0.32 199.545 0.32 199.545 0 199.545 0 199.545 0.32 201.067 0.32 201.067 0 201.067 0 201.067 0.32 202.589 0.32 202.589 0 202.589 0 202.589 0.32 204.11 0.32 204.11 0 204.11 0 204.11 0.32 205.629 0.32 205.629 0 205.629 0 205.629 0.32 207.147 0.32 207.147 0 207.147 0 207.147 0.32 208.664 0.32 208.664 0 208.664 0 208.664 0.32 210.179 0.32 210.179 0 210.179 0 210.179 0.32 211.694 0.32 211.694 0 211.694 0 211.694 0.32 213.207 0.32 213.207 0 213.207 0 213.207 0.32 214.72 0.32 214.72 0 214.72 0 214.72 0.32 216.231 0.32 216.231 0 216.231 0 216.231 0.32 217.741 0.32 217.741 0 217.741 0 217.741 0.32 219.25 0.32 219.25 0 219.25 0 219.25 0.32 220.758 0.32 220.758 0 220.758 0 220.758 0.32 222.265 0.32 222.265 0 222.265 0 222.265 0.32 223.771 0.32 223.771 0 223.771 0 223.771 0.32 225.277 0.32 225.277 0 225.277 0 225.277 0.32 226.781 0.32 226.781 0 226.781 0 226.781 0.32 228.285 0.32 228.285 0 228.285 0 228.285 0.32 229.788 0.32 229.788 0 229.788 0 229.788 0.32 231.291 0.32 231.291 0 231.291 0 231.291 0.32 232.793 0.32 232.793 0 232.793 0 232.793 0.32 234.294 0.32 234.294 0 234.294 0 234.294 0.32 235.795 0.32 235.795 0 235.795 0 235.795 0.32 237.296 0.32 237.296 0 237.296 0 237.296 0.32 238.797 0.32 238.797 0 238.797 0 238.797 0.32 240.297 0.32 240.297 0 240.297 0 240.297 0.32 241.797 0.32 241.797 0 241.797 0 241.797 0.32 243.297 0.32 243.297 0</float_array>
          <technique_common><accessor source="#farm_curb_top_right_uv_array" count="640" stride="2"><param name="S" type="float"/><param name="T" type="float"/></accessor></technique_common>
        </source>
        <vertices id="farm_curb_top_right_vertices"><input semantic="POSITION" source="#farm_curb_top_right_positions"/></vertices>
        <triangles material="farm_curb_top_right_material" count="320">
          <input semantic="VERTEX" source="#farm_curb_top_right_vertices" offset="0"/>
          <input semantic="NORMAL" source="#farm_curb_top_right_normals" offset="1"/>
          <input semantic="TEXCOORD" source="#farm_curb_top_right_uv" offset="2" set="0"/>
          <p>0 0 0 1 1 1 2 2 2 0 0 0 2 2 2 3 3 3 4 4 4 5 5 5 6 6 6 4 4 4 6 6 6 7 7 7 8 8 8 9 9 9 10 10 10 8 8 8 10 10 10 11 11 11 12 12 12 13 13 13 14 14 14 12 12 12 14 14 14 15 15 15 16 16 16 17 17 17 18 18 18 16 16 16 18 18 18 19 19 19 20 20 20 21 21 21 22 22 22 20 20 20 22 22 22 23 23 23 24 24 24 25 25 25 26 26 26 24 24 24 26 26 26 27 27 27 28 28 28 29 29 29 30 30 30 28 28 28 30 30 30 31 31 31 32 32 32 33 33 33 34 34 34 32 32 32 34 34 34 35 35 35 36 36 36 37 37 37 38 38 38 36 36 36 38 38 38 39 39 39 40 40 40 41 41 41 42 42 42 40 40 40 42 42 42 43 43 43 44 44 44 45 45 45 46 46 46 44 44 44 46 46 46 47 47 47 48 48 48 49 49 49 50 50 50 48 48 48 50 50 50 51 51 51 52 52 52 53 53 53 54 54 54 52 52 52 54 54 54 55 55 55 56 56 56 57 57 57 58 58 58 56 56 56 58 58 58 59 59 59 60 60 60 61 61 61 62 62 62 60 60 60 62 62 62 63 63 63 64 64 64 65 65 65 66 66 66 64 64 64 66 66 66 67 67 67 68 68 68 69 69 69 70 70 70 68 68 68 70 70 70 71 71 71 72 72 72 73 73 73 74 74 74 72 72 72 74 74 74 75 75 75 76 76 76 77 77 77 78 78 78 76 76 76 78 78 78 79 79 79 80 80 80 81 81 81 82 82 82 80 80 80 82 82 82 83 83 83 84 84 84 85 85 85 86 86 86 84 84 84 86 86 86 87 87 87 88 88 88 89 89 89 90 90 90 88 88 88 90 90 90 91 91 91 92 92 92 93 93 93 94 94 94 92 92 92 94 94 94 95 95 95 96 96 96 97 97 97 98 98 98 96 96 96 98 98 98 99 99 99 100 100 100 101 101 101 102 102 102 100 100 100 102 102 102 103 103 103 104 104 104 105 105 105 106 106 106 104 104 104 106 106 106 107 107 107 108 108 108 109 109 109 110 110 110 108 108 108 110 110 110 111 111 111 112 112 112 113 113 113 114 114 114 112 112 112 114 114 114 115 115 115 116 116 116 117 117 117 118 118 118 116 116 116 118 118 118 119 119 119 120 120 120 121 121 121 122 122 122 120 120 120 122 122 122 123 123 123 124 124 124 125 125 125 126 126 126 124 124 124 126 126 126 127 127 127 128 128 128 129 129 129 130 130 130 128 128 128 130 130 130 131 131 131 132 132 132 133 133 133 134 134 134 132 132 132 134 134 134 135 135 135 136 136 136 137 137 137 138 138 138 136 136 136 138 138 138 139 139 139 140 140 140 141 141 141 142 142 142 140 140 140 142 142 142 143 143 143 144 144 144 145 145 145 146 146 146 144 144 144 146 146 146 147 147 147 148 148 148 149 149 149 150 150 150 148 148 148 150 150 150 151 151 151 152 152 152 153 153 153 154 154 154 152 152 152 154 154 154 155 155 155 156 156 156 157 157 157 158 158 158 156 156 156 158 158 158 159 159 159 160 160 160 161 161 161 162 162 162 160 160 160 162 162 162 163 163 163 164 164 164 165 165 165 166 166 166 164 164 164 166 166 166 167 167 167 168 168 168 169 169 169 170 170 170 168 168 168 170 170 170 171 171 171 172 172 172 173 173 173 174 174 174 172 172 172 174 174 174 175 175 175 176 176 176 177 177 177 178 178 178 176 176 176 178 178 178 179 179 179 180 180 180 181 181 181 182 182 182 180 180 180 182 182 182 183 183 183 184 184 184 185 185 185 186 186 186 184 184 184 186 186 186 187 187 187 188 188 188 189 189 189 190 190 190 188 188 188 190 190 190 191 191 191 192 192 192 193 193 193 194 194 194 192 192 192 194 194 194 195 195 195 196 196 196 197 197 197 198 198 198 196 196 196 198 198 198 199 199 199 200 200 200 201 201 201 202 202 202 200 200 200 202 202 202 203 203 203 204 204 204 205 205 205 206 206 206 204 204 204 206 206 206 207 207 207 208 208 208 209 209 209 210 210 210 208 208 208 210 210 210 211 211 211 212 212 212 213 213 213 214 214 214 212 212 212 214 214 214 215 215 215 216 216 216 217 217 217 218 218 218 216 216 216 218 218 218 219 219 219 220 220 220 221 221 221 222 222 222 220 220 220 222 222 222 223 223 223 224 224 224 225 225 225 226 226 226 224 224 224 226 226 226 227 227 227 228 228 228 229 229 229 230 230 230 228 228 228 230 230 230 231 231 231 232 232 232 233 233 233 234 234 234 232 232 232 234 234 234 235 235 235 236 236 236 237 237 237 238 238 238 236 236 236 238 238 238 239 239 239 240 240 240 241 241 241 242 242 242 240 240 240 242 242 242 243 243 243 244 244 244 245 245 245 246 246 246 244 244 244 246 246 246 247 247 247 248 248 248 249 249 249 250 250 250 248 248 248 250 250 250 251 251 251 252 252 252 253 253 253 254 254 254 252 252 252 254 254 254 255 255 255 256 256 256 257 257 257 258 258 258 256 256 256 258 258 258 259 259 259 260 260 260 261 261 261 262 262 262 260 260 260 262 262 262 263 263 263 264 264 264 265 265 265 266 266 266 264 264 264 266 266 266 267 267 267 268 268 268 269 269 269 270 270 270 268 268 268 270 270 270 271 271 271 272 272 272 273 273 273 274 274 274 272 272 272 274 274 274 275 275 275 276 276 276 277 277 277 278 278 278 276 276 276 278 278 278 279 279 279 280 280 280 281 281 281 282 282 282 280 280 280 282 282 282 283 283 283 284 284 284 285 285 285 286 286 286 284 284 284 286 286 286 287 287 287 288 288 288 289 289 289 290 290 290 288 288 288 290 290 290 291 291 291 292 292 292 293 293 293 294 294 294 292 292 292 294 294 294 295 295 295 296 296 296 297 297 297 298 298 298 296 296 296 298 298 298 299 299 299 300 300 300 301 301 301 302 302 302 300 300 300 302 302 302 303 303 303 304 304 304 305 305 305 306 306 306 304 304 304 306 306 306 307 307 307 308 308 308 309 309 309 310 310 310 308 308 308 310 310 310 311 311 311 312 312 312 313 313 313 314 314 314 312 312 312 314 314 314 315 315 315 316 316 316 317 317 317 318 318 318 316 316 316 318 318 318 319 319 319 320 320 320 321 321 321 322 322 322 320 320 320 322 322 322 323 323 323 324 324 324 325 325 325 326 326 326 324 324 324 326 326 326 327 327 327 328 328 328 329 329 329 330 330 330 328 328 328 330 330 330 331 331 331 332 332 332 333 333 333 334 334 334 332 332 332 334 334 334 335 335 335 336 336 336 337 337 337 338 338 338 336 336 336 338 338 338 339 339 339 340 340 340 341 341 341 342 342 342 340 340 340 342 342 342 343 343 343 344 344 344 345 345 345 346 346 346 344 344 344 346 346 346 347 347 347 348 348 348 349 349 349 350 350 350 348 348 348 350 350 350 351 351 351 352 352 352 353 353 353 354 354 354 352 352 352 354 354 354 355 355 355 356 356 356 357 357 357 358 358 358 356 356 356 358 358 358 359 359 359 360 360 360 361 361 361 362 362 362 360 360 360 362 362 362 363 363 363 364 364 364 365 365 365 366 366 366 364 364 364 366 366 366 367 367 367 368 368 368 369 369 369 370 370 370 368 368 368 370 370 370 371 371 371 372 372 372 373 373 373 374 374 374 372 372 372 374 374 374 375 375 375 376 376 376 377 377 377 378 378 378 376 376 376 378 378 378 379 379 379 380 380 380 381 381 381 382 382 382 380 380 380 382 382 382 383 383 383 384 384 384 385 385 385 386 386 386 384 384 384 386 386 386 387 387 387 388 388 388 389 389 389 390 390 390 388 388 388 390 390 390 391 391 391 392 392 392 393 393 393 394 394 394 392 392 392 394 394 394 395 395 395 396 396 396 397 397 397 398 398 398 396 396 396 398 398 398 399 399 399 400 400 400 401 401 401 402 402 402 400 400 400 402 402 402 403 403 403 404 404 404 405 405 405 406 406 406 404 404 404 406 406 406 407 407 407 408 408 408 409 409 409 410 410 410 408 408 408 410 410 410 411 411 411 412 412 412 413 413 413 414 414 414 412 412 412 414 414 414 415 415 415 416 416 416 417 417 417 418 418 418 416 416 416 418 418 418 419 419 419 420 420 420 421 421 421 422 422 422 420 420 420 422 422 422 423 423 423 424 424 424 425 425 425 426 426 426 424 424 424 426 426 426 427 427 427 428 428 428 429 429 429 430 430 430 428 428 428 430 430 430 431 431 431 432 432 432 433 433 433 434 434 434 432 432 432 434 434 434 435 435 435 436 436 436 437 437 437 438 438 438 436 436 436 438 438 438 439 439 439 440 440 440 441 441 441 442 442 442 440 440 440 442 442 442 443 443 443 444 444 444 445 445 445 446 446 446 444 444 444 446 446 446 447 447 447 448 448 448 449 449 449 450 450 450 448 448 448 450 450 450 451 451 451 452 452 452 453 453 453 454 454 454 452 452 452 454 454 454 455 455 455 456 456 456 457 457 457 458 458 458 456 456 456 458 458 458 459 459 459 460 460 460 461 461 461 462 462 462 460 460 460 462 462 462 463 463 463 464 464 464 465 465 465 466 466 466 464 464 464 466 466 466 467 467 467 468 468 468 469 469 469 470 470 470 468 468 468 470 470 470 471 471 471 472 472 472 473 473 473 474 474 474 472 472 472 474 474 474 475 475 475 476 476 476 477 477 477 478 478 478 476 476 476 478 478 478 479 479 479 480 480 480 481 481 481 482 482 482 480 480 480 482 482 482 483 483 483 484 484 484 485 485 485 486 486 486 484 484 484 486 486 486 487 487 487 488 488 488 489 489 489 490 490 490 488 488 488 490 490 490 491 491 491 492 492 492 493 493 493 494 494 494 492 492 492 494 494 494 495 495 495 496 496 496 497 497 497 498 498 498 496 496 496 498 498 498 499 499 499 500 500 500 501 501 501 502 502 502 500 500 500 502 502 502 503 503 503 504 504 504 505 505 505 506 506 506 504 504 504 506 506 506 507 507 507 508 508 508 509 509 509 510 510 510 508 508 508 510 510 510 511 511 511 512 512 512 513 513 513 514 514 514 512 512 512 514 514 514 515 515 515 516 516 516 517 517 517 518 518 518 516 516 516 518 518 518 519 519 519 520 520 520 521 521 521 522 522 522 520 520 520 522 522 522 523 523 523 524 524 524 525 525 525 526 526 526 524 524 524 526 526 526 527 527 527 528 528 528 529 529 529 530 530 530 528 528 528 530 530 530 531 531 531 532 532 532 533 533 533 534 534 534 532 532 532 534 534 534 535 535 535 536 536 536 537 537 537 538 538 538 536 536 536 538 538 538 539 539 539 540 540 540 541 541 541 542 542 542 540 540 540 542 542 542 543 543 543 544 544 544 545 545 545 546 546 546 544 544 544 546 546 546 547 547 547 548 548 548 549 549 549 550 550 550 548 548 548 550 550 550 551 551 551 552 552 552 553 553 553 554 554 554 552 552 552 554 554 554 555 555 555 556 556 556 557 557 557 558 558 558 556 556 556 558 558 558 559 559 559 560 560 560 561 561 561 562 562 562 560 560 560 562 562 562 563 563 563 564 564 564 565 565 565 566 566 566 564 564 564 566 566 566 567 567 567 568 568 568 569 569 569 570 570 570 568 568 568 570 570 570 571 571 571 572 572 572 573 573 573 574 574 574 572 572 572 574 574 574 575 575 575 576 576 576 577 577 577 578 578 578 576 576 576 578 578 578 579 579 579 580 580 580 581 581 581 582 582 582 580 580 580 582 582 582 583 583 583 584 584 584 585 585 585 586 586 586 584 584 584 586 586 586 587 587 587 588 588 588 589 589 589 590 590 590 588 588 588 590 590 590 591 591 591 592 592 592 593 593 593 594 594 594 592 592 592 594 594 594 595 595 595 596 596 596 597 597 597 598 598 598 596 596 596 598 598 598 599 599 599 600 600 600 601 601 601 602 602 602 600 600 600 602 602 602 603 603 603 604 604 604 605 605 605 606 606 606 604 604 604 606 606 606 607 607 607 608 608 608 609 609 609 610 610 610 608 608 608 610 610 610 611 611 611 612 612 612 613 613 613 614 614 614 612 612 612 614 614 614 615 615 615 616 616 616 617 617 617 618 618 618 616 616 616 618 618 618 619 619 619 620 620 620 621 621 621 622 622 622 620 620 620 622 622 622 623 623 623 624 624 624 625 625 625 626 626 626 624 624 624 626 626 626 627 627 627 628 628 628 629 629 629 630 630 630 628 628 628 630 630 630 631 631 631 632 632 632 633 633 633 634 634 634 632 632 632 634 634 634 635 635 635 636 636 636 637 637 637 638 638 638 636 636 636 638 638 638 639 639 639</p>
        </triangles>
      </mesh>
    </geometry>
  </library_geometries>
  <library_visual_scenes>
    <visual_scene id="farm_curb_top_right_scene">
      <node id="farm_curb_top_right_node">
        <instance_geometry url="#farm_curb_top_right_geometry">
          <bind_material><technique_common>
            <instance_material symbol="farm_curb_top_right_material" target="#farm_curb_top_right_material"><bind_vertex_input semantic="UVSET0" input_semantic="TEXCOORD" input_set="0"/></instance_material>
          </technique_common></bind_material>
        </instance_geometry>
      </node>
    </visual_scene>
  </library_visual_scenes>
  <scene><instance_visual_scene url="#farm_curb_top_right_scene"/></scene>
</COLLADA>
