<?xml version="1.0" encoding="utf-8"?>
<COLLADA xmlns="http://www.collada.org/2005/11/COLLADASchema" version="1.4.1">
  <asset><unit name="meter" meter="1"/><up_axis>Z_UP</up_axis></asset>
  <library_images><image id="farm_verge_left_image"><init_from>textures/grass_color.jpg</init_from></image></library_images>
  <library_effects>
    <effect id="farm_verge_left_effect">
      <profile_COMMON>
        <newparam sid="farm_verge_left_surface"><surface type="2D"><init_from>farm_verge_left_image</init_from></surface></newparam><newparam sid="farm_verge_left_sampler"><sampler2D><source>farm_verge_left_surface</source><wrap_s>WRAP</wrap_s><wrap_t>WRAP</wrap_t></sampler2D></newparam>
        <technique sid="common"><lambert><diffuse><texture texture="farm_verge_left_sampler" texcoord="UVSET0"/></diffuse></lambert></technique>
      </profile_COMMON>
    </effect>
  </library_effects>
  <library_materials>
    <material id="farm_verge_left_material"><instance_effect url="#farm_verge_left_effect"/></material>
  </library_materials>
  <library_geometries>
    <geometry id="farm_verge_left_geometry">
      <mesh>
        <source id="farm_verge_left_positions">
          <float_array id="farm_verge_left_positions_array" count="1920">-4.43849 -58.9544 0.13 -5.50918 -58.7021 0 -5.33249 -57.9521 0 -4.2618 -58.2044 0.13 -4.26201 -58.2052 0.13 -5.33275 -57.9532 0 -5.15621 -57.2032 0 -4.08547 -57.4552 0.13 -4.08588 -57.4569 0.13 -5.15671 -57.2053 0 -4.98048 -56.4553 0 -3.90965 -56.7069 0.13 -3.91025 -56.7095 0.13 -4.98123 -56.4585 0 -4.80546 -55.7085 0 -3.73448 -55.9595 0.13 -3.73528 -55.9629 0.13 -4.80646 -55.7128 0 -4.6313 -54.9628 0 -3.56013 -55.2129 0.13 -3.56112 -55.2172 0.13 -4.63254 -54.9681 0 -4.45815 -54.2181 0 -3.38673 -54.4672 0.13 -3.38792 -54.4724 0.13 -4.45963 -54.2245 0 -4.28615 -53.4745 0 -3.21444 -53.7224 0.13 -3.21582 -53.7284 0.13 -4.28786 -53.4819 0 -4.11545 -52.7319 0 -3.04341 -52.9784 0.13 -3.04498 -52.9852 0.13 -4.11739 -52.7404 0 -3.94619 -51.9904 0 -2.87378 -52.2352 0.13 -2.87552 -52.2429 0.13 -3.94836 -52 0 -3.77853 -51.25 0 -2.70569 -51.4929 0.13 -2.70761 -51.5014 0.13 -3.78091 -51.2605 0 -3.61259 -50.5105 0 -2.53929 -50.7514 0.13 -2.54138 -50.7608 0.13 -3.61518 -50.5222 0 -3.44851 -49.7722 0 -2.37471 -50.0108 0.13 -2.37696 -50.021 0.13 -3.45131 -49.7848 0 -3.28644 -49.0348 0 -2.21209 -49.271 0.13 -2.2145 -49.282 0.13 -3.28943 -49.0485 0 -3.12651 -48.2985 0 -2.05158 -48.532 0.13 -2.05414 -48.5438 0.13 -3.12968 -48.3132 0 -2.96884 -47.5632 0 -1.8933 -47.7938 0.13 -1.89599 -47.8065 0.13 -2.97219 -47.5789 0 -2.81358 -46.8289 0 -1.73738 -47.0565 0.13 -1.74021 -47.07 0.13 -2.81709 -46.8456 0 -2.66084 -46.0956 0 -1.58396 -46.32 0.13 -1.58691 -46.3342 0.13 -2.6645 -46.1133 0 -2.51074 -45.3633 0 -1.43316 -45.5842 0.13 -1.43622 -45.5993 0.13 -2.51454 -45.382 0 -2.36342 -44.632 0 -1.2851 -44.8493 0.13 -1.28826 -44.8651 0.13 -2.36735 -44.6517 0 -2.21899 -43.9017 0 -1.1399 -44.1151 0.13 -1.14316 -44.1317 0.13 -2.22303 -43.9223 0 -2.07757 -43.1723 0 -0.997689 -43.3817 0.13 -1.00102 -43.3991 0.13 -2.08171 -43.1939 0 -1.93926 -42.4439 0 -0.858576 -42.6491 0.13 -0.861982 -42.6673 0.13 -1.94348 -42.4664 0 -1.80418 -41.7164 0 -0.722675 -41.9173 0.13 -0.726139 -41.9361 0.13 -1.80848 -41.7398 0 -1.67243 -40.9898 0 -0.590093 -41.1861 0.13 -0.593604 -41.2057 0.13 -1.67679 -41.0141 0 -1.54412 -40.2641 0 -0.460939 -40.4557 0.13 -0.464485 -40.476 0.13 -1.54852 -40.2893 0 -1.41935 -39.5393 0 -0.335314 -39.726 0.13 -0.338883 -39.7471 0.13 -1.42378 -39.5654 0 -1.29822 -38.8154 0 -0.21332 -38.9971 0.13 -0.216899 -39.0188 0.13 -1.30266 -38.8424 0 -1.18082 -38.0924 0 -0.0950516 -38.2688 0.13 -0.0986291 -38.2911 0.13 -1.18526 -38.1201 0 -1.06723 -37.3701 0 0.0193967 -37.5411 0.13 0.0158334 -37.5642 0.13 -1.07165 -37.3987 0 -0.957552 -36.6487 0 0.129935 -36.8142 0.13 0.126399 -36.8378 0.13 -0.961941 -36.6781 0 -0.851862 -35.9281 0 0.236478 -36.0878 0.13 0.232981 -36.1121 0.13 -0.856203 -35.9582 0 -0.750243 -35.2082 0 0.338941 -35.3621 0.13 0.335496 -35.387 0.13 -0.754519 -35.2391 0 -0.652769 -34.4891 0 0.437246 -34.637 0.13 0.433865 -34.6624 0.13 -0.656965 -34.5207 0 -0.559514 -33.7707 0 0.531316 -33.9124 0.13 0.528012 -33.9385 0.13 -0.563616 -33.803 0 -0.470547 -33.053 0 0.62108 -33.1885 0.13 0.617864 -33.215 0.13 -0.474539 -33.086 0 -0.385935 -32.336 0 0.706468 -32.465 0.13 0.703353 -32.4921 0.13 -0.389802 -32.3695 0 -0.305738 -31.6195 0 0.787416 -31.7421 0.13 0.784412 -31.7696 0.13 -0.309467 -31.6538 0 -0.230017 -30.9038 0 0.863862 -31.0196 0.13 0.860981 -31.0477 0.13 -0.233593 -30.9385 0 -0.158826 -30.1885 0 0.935748 -30.2977 0.13 0.933001 -30.3261 0.13 -0.162236 -30.2239 0 -0.0922163 -29.4739 0 1.00302 -29.5761 0.13 1.00042 -29.605 0.13 -0.0954481 -29.5097 0 -0.0302362 -28.7597 0 1.06563 -28.855 0.13 1.06318 -28.8843 0.13 -0.0332772 -28.796 0 0.02707 -28.046 0 1.12353 -28.1343 0.13 1.12124 -28.1639 0.13 0.0242313 -28.0828 0 0.0796615 -27.3328 0 1.17667 -27.4139 0.13 1.17455 -27.4439 0.13 0.0770359 -27.37 0 0.127501 -26.62 0 1.22502 -26.6939 0.13 1.22308 -26.7241 0.13 0.125098 -26.6576 0 0.170555 -25.9076 0 1.26854 -25.9741 0.13 1.26679 -26.0047 0.13 0.168384 -25.9455 0 0.208792 -25.1955 0 1.3072 -25.2547 0.13 1.30564 -25.2855 0.13 0.206863 -25.2337 0 0.242187 -24.4837 0 1.34097 -24.5355 0.13 1.33961 -24.5665 0.13 0.240506 -24.5222 0 0.270716 -23.7722 0 1.36982 -23.8165 0.13 1.36868 -23.8477 0.13 0.26929 -23.8109 0 0.29436 -23.0609 0 1.39375 -23.0977 0.13 1.39281 -23.129 0.13 0.293193 -23.0998 0 0.313101 -22.3498 0 1.41271 -22.379 0.13 1.41199 -22.4105 0.13 0.3122 -22.3889 0 0.326928 -21.6389 0 1.42672 -21.6605 0.13 1.42621 -21.692 0.13 0.326295 -21.678 0 0.335832 -20.928 0 1.43574 -20.942 0.13 1.43545 -20.9736 0.13 0.335469 -20.9673 0 0.339805 -20.2173 0 1.43979 -20.2236 0.13 1.43971 -20.2553 0.13 0.339715 -20.2565 0 0.338847 -19.5065 0 1.43885 -19.5053 0.13 1.43899 -19.5369 0.13 0.339029 -19.5458 0 0.332958 -18.7958 0 1.43292 -18.7869 0.13 1.43329 -18.8185 0.13 0.333412 -18.835 0 0.322143 -18.085 0 1.42202 -18.0685 0.13 1.4226 -18.1 0.13 0.322866 -18.1242 0 0.306409 -17.3742 0 1.40614 -17.35 0.13 1.40694 -17.3815 0.13 0.3074 -17.4132 0 0.285769 -16.6632 0 1.38531 -16.6315 0.13 1.38632 -16.6628 0.13 0.287022 -16.702 0 0.260236 -15.952 0 1.35954 -15.9128 0.13 1.36075 -15.9439 0.13 0.261748 -15.9907 0 0.22983 -15.2407 0 1.32884 -15.1939 0.13 1.33026 -15.2248 0.13 0.231595 -15.2791 0 0.194573 -14.5291 0 1.29323 -14.4748 0.13 1.29485 -14.5055 0.13 0.196583 -14.5672 0 0.154488 -13.8172 0 1.25276 -13.7555 0.13 1.25457 -13.786 0.13 0.156737 -13.855 0 0.109607 -13.105 0 1.20744 -13.036 0.13 1.20944 -13.0662 0.13 0.112085 -13.1424 0 0.0599594 -12.3924 0 1.15731 -12.3162 0.13 1.15949 -12.346 0.13 0.0626572 -12.4295 0 0.00558251 -11.6795 0 1.10241 -11.596 0.13 1.10475 -11.6255 0.13 0.00848985 -11.7161 0 -0.0534849 -10.9661 0 1.04278 -10.8755 0.13 1.04528 -10.9047 0.13 -0.050379 -11.0023 0 -0.1172 -10.2523 0 0.97846 -10.1547 0.13 0.981113 -10.1834 0.13 -0.113907 -10.288 0 -0.185517 -9.53797 0 0.909503 -9.43341 0.13 0.912296 -9.46174 0.13 -0.18205 -9.57312 0 -0.258386 -8.82312 0 0.835961 -8.71174 0.13 0.838884 -8.73961 0.13 -0.254757 -8.85771 0 -0.335753 -8.10771 0 0.757888 -7.98961 0.13 0.760931 -8.017 0.13 -0.331976 -8.14172 0 -0.417562 -7.39172 0 0.675345 -7.267 0.13 0.678496 -7.2939 0.13 -0.413651 -7.42511 0 -0.503752 -6.67511 0 0.588395 -6.5439 0.13 0.591642 -6.57028 0.13 -0.499722 -6.70785 0 -0.594261 -5.95785 0 0.497103 -5.82028 0.13 0.500435 -5.84611 0.13 -0.590126 -5.98991 0 -0.68902 -5.23991 0 0.401541 -5.09611 0.13 0.404944 -5.12138 0.13 -0.684795 -5.27128 0 -0.787958 -4.52128 0 0.301781 -4.37138 0.13 0.305245 -4.39607 0.13 -0.783659 -4.55191 0 -0.891002 -3.80191 0 0.197901 -3.64607 0.13 0.201413 -3.67014 0.13 -0.886644 -3.8318 0 -0.998074 -3.0818 0 0.0899821 -2.92014 0.13 0.0935289 -2.94359 0.13 -0.993672 -3.11091 0 -1.10909 -2.36091 0 -0.0218921 -2.19359 0.13 -0.0183227 -2.2164 0.13 -1.10466 -2.38922 0 -1.22397 -1.63922 0 -0.137634 -1.4664 0.13 -0.134054 -1.48855 0.13 -1.21953 -1.66671 0 -1.34263 -0.916714 0 -0.257152 -0.738554 0.13 -0.253575 -0.760028 0.13 -1.33819 -0.943369 0 -1.46497 -0.193369 0 -0.380353 -0.0100284 0.13 -0.376791 -0.0308114 0.13 -1.46054 -0.219165 0 -1.59089 0.530835 0 -0.507139 0.719189 0.13 -0.503603 0.699111 0.13 -1.5865 0.505915 0 -1.72031 1.25591 0 -0.637408 1.44911 0.13 -0.633911 1.42975 0.13 -1.71597 1.23189 0 -1.85312 1.98189 0 -0.771057 2.17975 0.13 -0.767612 2.16113 0.13 -1.84884 1.95877 0 -1.98921 2.70877 0 -0.907979 2.91113 0.13 -0.904596 2.89325 0.13 -1.98501 2.68658 0 -2.12847 3.43658 0 -1.04806 3.64325 0.13 -1.04475 3.62612 0.13 -2.12437 3.41532 0 -2.27081 4.16532 0 -1.1912 4.37612 0.13 -1.18797 4.35977 0.13 -2.26681 4.14502 0 -2.4161 4.89502 0 -1.33727 5.10977 0.13 -1.33414 5.09419 0.13 -2.41222 4.87568 0 -2.56423 5.62568 0 -1.48615 5.84419 0.13 -1.48312 5.82939 0.13 -2.56047 5.60732 0 -2.71507 6.35732 0 -1.63772 6.57939 0.13 -1.63481 6.56539 0.13 -2.71146 6.33994 0 -2.86851 7.08994 0 -1.79187 7.31539 0.13 -1.78908 7.3022 0.13 -2.86506 7.07356 0 -3.02443 7.82356 0 -1.94845 8.0522 0.13 -1.9458 8.03981 0.13 -3.02114 7.80818 0 -3.18269 8.55818 0 -2.10735 8.78981 0.13 -2.10484 8.77824 0.13 -3.17957 8.54382 0 -3.34316 9.29382 0 -2.26843 9.52824 0.13 -2.26607 9.51749 0.13 -3.34024 9.28048 0 -3.50572 10.0305 0 -2.43156 10.2675 0.13 -2.42936 10.2576 0.13 -3.50299 10.0182 0 -3.67023 10.7682 0 -2.59659 11.0076 0.13 -2.59456 10.9985 0.13 -3.6677 10.7569 0 -3.83654 11.5069 0 -2.7634 11.7485 0.13 -2.76154 11.7402 0.13 -3.83423 11.4967 0 -4.00454 12.2467 0 -2.93185 12.4902 0.13 -2.93016 12.4828 0.13 -4.00244 12.2375 0 -4.17406 12.9875 0 -3.10178 13.2328 0.13 -3.10027 13.2263 0.13 -4.17219 12.9793 0 -4.34498 13.7293 0 -3.27306 13.9763 0.13 -3.27174 13.9706 0.13 -4.34334 13.7222 0 -4.51714 14.4722 0 -3.44554 14.7206 0.13 -3.44441 14.7157 0.13 -4.51574 14.4662 0 -4.69041 15.2162 0 -3.61908 15.4657 0.13 -3.61814 15.4617 0.13 -4.68925 15.2112 0 -4.86463 15.9612 0 -3.79352 16.2117 0.13 -3.79279 16.2086 0.13 -4.86371 15.9573 0 -5.03965 16.7073 0 -3.96873 16.9586 0.13 -3.96819 16.9563 0.13 -5.03899 16.7045 0 -5.21533 17.4545 0 -4.14454 17.7063 0.13 -4.1442 17.7048 0.13 -5.21492 17.4527 0 -5.39152 18.2027 0 -4.3208 18.4548 0.13 -4.32067 18.4543 0.13 -5.39135 18.202 0 -5.56806 18.952 0 -4.49738 19.2043 0.13 -4.49744 19.2045 0.13 -5.56814 18.9524 0 -5.7448 19.7024 0 -4.6741 19.9545 0.13 -4.67437 19.9557 0.13 -5.74513 19.7038 0 -5.92158 20.4538 0 -4.85082 20.7057 0.13 -4.85129 20.7077 0.13 -5.92217 20.4563 0 -6.09826 21.2063 0 -5.02738 21.4577 0.13 -5.02805 21.4606 0.13 -6.09909 21.2098 0 -6.27468 21.9598 0 -5.20364 22.2106 0.13 -5.20451 22.2143 0.13 -6.27576 21.9644 0 -6.45068 22.7144 0 -5.37943 22.9643 0.13 -5.38049 22.9689 0.13 -6.452 22.7201 0 -6.6261 23.4701 0 -5.5546 23.7189 0.13 -5.55585 23.7243 0.13 -6.62766 23.4768 0 -6.80081 24.2268 0 -5.72899 24.4743 0.13 -5.73044 24.4806 0.13 -6.8026 24.2346 0 -6.97462 24.9846 0 -5.90247 25.2306 0.13 -5.90409 25.2377 0.13 -6.97664 24.9935 0 -7.14741 25.7435 0 -6.07485 25.9877 0.13 -6.07666 25.9956 0.13 -7.14965 25.7534 0 -7.319 26.5034 0 -6.24601 26.7456 0.13 -6.24799 26.7544 0.13 -7.32145 26.5143 0 -7.48924 27.2643 0 -6.41578 27.5044 0.13 -6.41792 27.5141 0.13 -7.49191 27.2763 0 -7.65799 28.0263 0 -6.58401 28.2641 0.13 -6.58632 28.2746 0.13 -7.66085 28.0393 0 -7.82509 28.7893 0 -6.75055 29.0246 0.13 -6.75301 29.0359 0.13 -7.82814 28.8033 0 -7.99038 29.5533 0 -6.91525 29.7859 0.13 -6.91786 29.798 0.13 -7.99362 29.5683 0 -8.15373 30.3183 0 -7.07797 30.548 0.13 -7.08071 30.5609 0.13 -8.15713 30.3344 0 -8.31497 31.0844 0 -7.23855 31.3109 0.13 -7.24142 31.3246 0.13 -8.31853 31.1014 0 -8.47396 31.8514 0 -7.39685 32.0746 0.13 -7.39983 32.0892 0.13 -8.47767 31.8694 0 -8.63056 32.6194 0 -7.55272 32.8392 0.13 -7.55582 32.8545 0.13 -8.6344 32.6385 0 -8.78461 33.3885 0 -7.70603 33.6045 0.13 -7.70923 33.6206 0.13 -8.78858 33.4084 0 -8.93599 34.1584 0 -7.85663 34.3706 0.13 -7.85992 34.3875 0.13 -8.94006 34.1794 0 -9.08453 34.9294 0 -8.00439 35.1375 0.13 -8.00775 35.1551 0.13 -9.0887 34.9513 0 -9.23012 35.7013 0 -8.14917 35.9051 0.13 -8.15259 35.9235 0.13 -9.23437 35.7241 0 -9.37261 36.4741 0 -8.29083 36.6735 0.13 -8.29431 36.6926 0.13 -9.37693 36.4978 0 -9.51186 37.2478 0 -8.42924 37.4426 0.13 -8.43276 37.4624 0.13 -9.51623 37.2724 0 -9.64774 38.0224 0 -8.56428 38.2124 0.13 -8.56783 38.233 0.13 -9.65216 38.0479 0 -9.78014 38.7979 0 -8.69581 38.983 0.13 -8.69938 39.0042 0.13 -9.78457 38.8243 0 -9.90891 39.5743 0 -8.82372 39.7542 0.13 -8.8273 39.7761 0.13 -9.91335 39.6015 0 -10.0339 40.3515 0 -8.94789 40.5261 0.13 -8.95146 40.5487 0.13 -10.0384 40.3796 0 -10.1551 41.1296 0 -9.06819 41.2987 0.13 -9.07175 41.322 0.13 -10.1595 41.1584 0 -10.2723 41.9084 0 -9.18452 42.072 0.13 -9.18804 42.0958 0.13 -10.2767 41.938 0 -10.3854 42.688 0 -9.29676 42.8458 0.13 -9.30024 42.8703 0.13 -10.3897 42.7184 0 -10.4943 43.4684 0 -9.40481 43.6203 0.13 -9.40823 43.6454 0.13 -10.4985 43.4996 0 -10.5988 44.2496 0 -9.50856 44.3954 0.13 -9.51192 44.421 0.13 -10.603 44.2814 0 -10.699 45.0314 0 -9.60791 45.171 0.13 -9.61119 45.1972 0.13 -10.7031 45.0639 0 -10.7947 45.8139 0 -9.70278 45.9472 0.13 -9.70596 45.974 0.13 -10.7986 45.8471 0 -10.8857 46.5971 0 -9.79306 46.724 0.13 -9.79614 46.7512 0.13 -10.8895 46.6309 0 -10.9721 47.3809 0 -9.87868 47.5012 0.13 -9.88164 47.5289 0.13 -10.9758 47.4153 0 -11.0537 48.1653 0 -9.95954 48.2789 0.13 -9.96238 48.3071 0.13 -11.0572 48.2003 0 -11.1304 48.9503 0 -10.0356 49.0571 0.13 -10.0383 49.0857 0.13 -11.1337 48.9858 0 -11.2021 49.7358 0 -10.1067 49.8357 0.13 -10.1092 49.8647 0.13 -11.2053 49.7718 0 -11.2689 50.5218 0 -10.1728 50.6147 0.13 -10.1752 50.6441 0.13 -11.2719 50.5583 0 -11.3306 51.3083 0 -10.234 51.3941 0.13 -10.2362 51.4239 0.13 -11.3334 51.3452 0 -11.3871 52.0952 0 -10.29 52.1739 0.13 -10.292 52.2039 0.13 -11.3897 52.1325 0 -11.4385 52.8825 0 -10.3408 52.9539 0.13 -10.3427 52.9843 0.13 -11.4408 52.9202 0 -11.4846 53.6702 0 -10.3865 53.7343 0.13 -10.3882 53.7649 0.13 -11.4867 53.7082 0 -11.5254 54.4582 0 -10.4269 54.5149 0.13 -10.4284 54.5458 0.13 -11.5273 54.4965 0 -11.5609 55.2465 0 -10.462 55.2958 0.13 -10.4633 55.3268 0.13 -11.5625 55.2851 0 -11.591 56.0351 0 -10.4918 56.0768 0.13 -10.4929 56.1081 0.13 -11.5923 56.0739 0 -11.6157 56.8239 0 -10.5162 56.8581 0.13 -10.5171 56.8895 0.13 -11.6167 56.8628 0 -11.6349 57.6128 0 -10.5353 57.6395 0.13 -10.5359 57.671 0.13 -11.6357 57.6519 0 -11.6487 58.4019 0 -10.5489 58.421 0.13 -10.5493 58.4526 0.13 -11.6493 58.4411 0 -11.6571 59.1911 0 -10.5572 59.2026 0.13 -10.5574 59.2342 0.13 -11.6574 59.2304 0 -11.66 59.9804 0 -10.56 59.9842 0.13</float_array>
          <technique_common><accessor source="#farm_verge_left_positions_array" count="640" stride="3"><param name="X" type="float"/><param name="Y" type="float"/><param name="Z" type="float"/></accessor></technique_common>
        </source>
        <source id="farm_verge_left_normals">
          <float_array id="farm_verge_left_normals_array" count="1920">-0.114238 0.0269127 0.993089 -0.114238 0.0269127 0.993089 -0.114238 0.0269127 0.993089 -0.114238 0.0269127 0.993089 -0.114243 0.0268906 0.993089 -0.114243 0.0268906 0.993089 -0.114243 0.0268906 0.993089 -0.114243 0.0268906 0.993089 -0.114253 0.0268464 0.993089 -0.114253 0.0268464 0.993089 -0.114253 0.0268464 0.993089 -0.114253 0.0268464 0.993089 -0.114269 0.0267801 0.993089 -0.114269 0.0267801 0.993089 -0.114269 0.0267801 0.993089 -0.114269 0.0267801 0.993089 -0.11429 0.0266917 0.993089 -0.11429 0.0266917 0.993089 -0.11429 0.0266917 0.993089 -0.11429 0.0266917 0.993089 -0.114315 0.0265813 0.993089 -0.114315 0.0265813 0.993089 -0.114315 0.0265813 0.993089 -0.114315 0.0265813 0.993089 -0.114346 0.026449 0.993089 -0.114346 0.026449 0.993089 -0.114346 0.026449 0.993089 -0.114346 0.026449 0.993089 -0.114382 0.0262947 0.993089 -0.114382 0.0262947 0.993089 -0.114382 0.0262947 0.993089 -0.114382 0.0262947 0.993089 -0.114422 0.0261187 0.993089 -0.114422 0.0261187 0.993089 -0.114422 0.0261187 0.993089 -0.114422 0.0261187 0.993089 -0.114467 0.0259208 0.993089 -0.114467 0.0259208 0.993089 -0.114467 0.0259208 0.993089 -0.114467 0.0259208 0.993089 -0.114516 0.0257014 0.993089 -0.114516 0.0257014 0.993089 -0.114516 0.0257014 0.993089 -0.114516 0.0257014 0.993089 -0.11457 0.0254604 0.993089 -0.11457 0.0254604 0.993089 -0.11457 0.0254604 0.993089 -0.11457 0.0254604 0.993089 -0.114628 0.0251979 0.993089 -0.114628 0.0251979 0.993089 -0.114628 0.0251979 0.993089 -0.114628 0.0251979 0.993089 -0.11469 0.0249142 0.993089 -0.11469 0.0249142 0.993089 -0.11469 0.0249142 0.993089 -0.11469 0.0249142 0.993089 -0.114756 0.0246094 0.993089 -0.114756 0.0246094 0.993089 -0.114756 0.0246094 0.993089 -0.114756 0.0246094 0.993089 -0.114825 0.0242836 0.993089 -0.114825 0.0242836 0.993089 -0.114825 0.0242836 0.993089 -0.114825 0.0242836 0.993089 -0.114898 0.0239371 0.993089 -0.114898 0.0239371 0.993089 -0.114898 0.0239371 0.993089 -0.114898 0.0239371 0.993089 -0.114974 0.0235699 0.993089 -0.114974 0.0235699 0.993089 -0.114974 0.0235699 0.993089 -0.114974 0.0235699 0.993089 -0.115053 0.0231823 0.993089 -0.115053 0.0231823 0.993089 -0.115053 0.0231823 0.993089 -0.115053 0.0231823 0.993089 -0.115134 0.0227746 0.993089 -0.115134 0.0227746 0.993089 -0.115134 0.0227746 0.993089 -0.115134 0.0227746 0.993089 -0.115218 0.022347 0.993089 -0.115218 0.022347 0.993089 -0.115218 0.022347 0.993089 -0.115218 0.022347 0.993089 -0.115304 0.0218998 0.993089 -0.115304 0.0218998 0.993089 -0.115304 0.0218998 0.993089 -0.115304 0.0218998 0.993089 -0.115391 0.0214331 0.993089 -0.115391 0.0214331 0.993089 -0.115391 0.0214331 0.993089 -0.115391 0.0214331 0.993089 -0.115481 0.0209475 0.993089 -0.115481 0.0209475 0.993089 -0.115481 0.0209475 0.993089 -0.115481 0.0209475 0.993089 -0.115571 0.020443 0.993089 -0.115571 0.020443 0.993089 -0.115571 0.020443 0.993089 -0.115571 0.020443 0.993089 -0.115662 0.0199202 0.993089 -0.115662 0.0199202 0.993089 -0.115662 0.0199202 0.993089 -0.115662 0.0199202 0.993089 -0.115754 0.0193793 0.993089 -0.115754 0.0193793 0.993089 -0.115754 0.0193793 0.993089 -0.115754 0.0193793 0.993089 -0.115846 0.0188207 0.993089 -0.115846 0.0188207 0.993089 -0.115846 0.0188207 0.993089 -0.115846 0.0188207 0.993089 -0.115938 0.0182449 0.993089 -0.115938 0.0182449 0.993089 -0.115938 0.0182449 0.993089 -0.115938 0.0182449 0.993089 -0.11603 0.0176523 0.993089 -0.11603 0.0176523 0.993089 -0.11603 0.0176523 0.993089 -0.11603 0.0176523 0.993089 -0.116121 0.0170433 0.993089 -0.116121 0.0170433 0.993089 -0.116121 0.0170433 0.993089 -0.116121 0.0170433 0.993089 -0.116211 0.0164183 0.993089 -0.116211 0.0164183 0.993089 -0.116211 0.0164183 0.993089 -0.116211 0.0164183 0.993089 -0.1163 0.015778 0.993089 -0.1163 0.015778 0.993089 -0.1163 0.015778 0.993089 -0.1163 0.015778 0.993089 -0.116387 0.0151227 0.993089 -0.116387 0.0151227 0.993089 -0.116387 0.0151227 0.993089 -0.116387 0.0151227 0.993089 -0.116472 0.0144531 0.993089 -0.116472 0.0144531 0.993089 -0.116472 0.0144531 0.993089 -0.116472 0.0144531 0.993089 -0.116554 0.0137697 0.993089 -0.116554 0.0137697 0.993089 -0.116554 0.0137697 0.993089 -0.116554 0.0137697 0.993089 -0.116635 0.013073 0.993089 -0.116635 0.013073 0.993089 -0.116635 0.013073 0.993089 -0.116635 0.013073 0.993089 -0.116712 0.0123637 0.993089 -0.116712 0.0123637 0.993089 -0.116712 0.0123637 0.993089 -0.116712 0.0123637 0.993089 -0.116786 0.0116424 0.993089 -0.116786 0.0116424 0.993089 -0.116786 0.0116424 0.993089 -0.116786 0.0116424 0.993089 -0.116857 0.0109098 0.993089 -0.116857 0.0109098 0.993089 -0.116857 0.0109098 0.993089 -0.116857 0.0109098 0.993089 -0.116924 0.0101664 0.993089 -0.116924 0.0101664 0.993089 -0.116924 0.0101664 0.993089 -0.116924 0.0101664 0.993089 -0.116987 0.00941311 0.993089 -0.116987 0.00941311 0.993089 -0.116987 0.00941311 0.993089 -0.116987 0.00941311 0.993089 -0.117046 0.00865049 0.993089 -0.117046 0.00865049 0.993089 -0.117046 0.00865049 0.993089 -0.117046 0.00865049 0.993089 -0.1171 0.00787929 0.993089 -0.1171 0.00787929 0.993089 -0.1171 0.00787929 0.993089 -0.1171 0.00787929 0.993089 -0.11715 0.00710025 0.993089 -0.11715 0.00710025 0.993089 -0.11715 0.00710025 0.993089 -0.11715 0.00710025 0.993089 -0.117195 0.00631412 0.993089 -0.117195 0.00631412 0.993089 -0.117195 0.00631412 0.993089 -0.117195 0.00631412 0.993089 -0.117235 0.00552168 0.993089 -0.117235 0.00552168 0.993089 -0.117235 0.00552168 0.993089 -0.117235 0.00552168 0.993089 -0.11727 0.00472369 0.993089 -0.11727 0.00472369 0.993089 -0.11727 0.00472369 0.993089 -0.11727 0.00472369 0.993089 -0.1173 0.00392095 0.993089 -0.1173 0.00392095 0.993089 -0.1173 0.00392095 0.993089 -0.1173 0.00392095 0.993089 -0.117324 0.00311427 0.993089 -0.117324 0.00311427 0.993089 -0.117324 0.00311427 0.993089 -0.117324 0.00311427 0.993089 -0.117342 0.00230444 0.993089 -0.117342 0.00230444 0.993089 -0.117342 0.00230444 0.993089 -0.117342 0.00230444 0.993089 -0.117356 0.00149228 0.993089 -0.117356 0.00149228 0.993089 -0.117356 0.00149228 0.993089 -0.117356 0.00149228 0.993089 -0.117363 0.000678615 0.993089 -0.117363 0.000678615 0.993089 -0.117363 0.000678615 0.993089 -0.117363 0.000678615 0.993089 -0.117365 -0.000135738 0.993089 -0.117365 -0.000135738 0.993089 -0.117365 -0.000135738 0.993089 -0.117365 -0.000135738 0.993089 -0.117361 -0.000949954 0.993089 -0.117361 -0.000949954 0.993089 -0.117361 -0.000949954 0.993089 -0.117361 -0.000949954 0.993089 -0.117352 -0.00176321 0.993089 -0.117352 -0.00176321 0.993089 -0.117352 -0.00176321 0.993089 -0.117352 -0.00176321 0.993089 -0.117337 -0.00257468 0.993089 -0.117337 -0.00257468 0.993089 -0.117337 -0.00257468 0.993089 -0.117337 -0.00257468 0.993089 -0.117316 -0.00338355 0.993089 -0.117316 -0.00338355 0.993089 -0.117316 -0.00338355 0.993089 -0.117316 -0.00338355 0.993089 -0.11729 -0.00418901 0.993089 -0.11729 -0.00418901 0.993089 -0.11729 -0.00418901 0.993089 -0.11729 -0.00418901 0.993089 -0.117259 -0.00499025 0.993089 -0.117259 -0.00499025 0.993089 -0.117259 -0.00499025 0.993089 -0.117259 -0.00499025 0.993089 -0.117222 -0.00578648 0.993089 -0.117222 -0.00578648 0.993089 -0.117222 -0.00578648 0.993089 -0.117222 -0.00578648 0.993089 -0.117181 -0.0065769 0.993089 -0.117181 -0.0065769 0.993089 -0.117181 -0.0065769 0.993089 -0.117181 -0.0065769 0.993089 -0.117134 -0.00736075 0.993089 -0.117134 -0.00736075 0.993089 -0.117134 -0.00736075 0.993089 -0.117134 -0.00736075 0.993089 -0.117083 -0.00813726 0.993089 -0.117083 -0.00813726 0.993089 -0.117083 -0.00813726 0.993089 -0.117083 -0.00813726 0.993089 -0.117027 -0.00890568 0.993089 -0.117027 -0.00890568 0.993089 -0.117027 -0.00890568 0.993089 -0.117027 -0.00890568 0.993089 -0.116966 -0.00966529 0.993089 -0.116966 -0.00966529 0.993089 -0.116966 -0.00966529 0.993089 -0.116966 -0.00966529 0.993089 -0.116902 -0.0104154 0.993089 -0.116902 -0.0104154 0.993089 -0.116902 -0.0104154 0.993089 -0.116902 -0.0104154 0.993089 -0.116834 -0.0111552 0.993089 -0.116834 -0.0111552 0.993089 -0.116834 -0.0111552 0.993089 -0.116834 -0.0111552 0.993089 -0.116762 -0.0118841 0.993089 -0.116762 -0.0118841 0.993089 -0.116762 -0.0118841 0.993089 -0.116762 -0.0118841 0.993089 -0.116687 -0.0126015 0.993089 -0.116687 -0.0126015 0.993089 -0.116687 -0.0126015 0.993089 -0.116687 -0.0126015 0.993089 -0.116608 -0.0133066 0.993089 -0.116608 -0.0133066 0.993089 -0.116608 -0.0133066 0.993089 -0.116608 -0.0133066 0.993089 -0.116527 -0.013999 0.993089 -0.116527 -0.013999 0.993089 -0.116527 -0.013999 0.993089 -0.116527 -0.013999 0.993089 -0.116444 -0.0146779 0.993089 -0.116444 -0.0146779 0.993089 -0.116444 -0.0146779 0.993089 -0.116444 -0.0146779 0.993089 -0.116358 -0.0153428 0.993089 -0.116358 -0.0153428 0.993089 -0.116358 -0.0153428 0.993089 -0.116358 -0.0153428 0.993089 -0.11627 -0.0159931 0.993089 -0.11627 -0.0159931 0.993089 -0.11627 -0.0159931 0.993089 -0.11627 -0.0159931 0.993089 -0.116181 -0.0166284 0.993089 -0.116181 -0.0166284 0.993089 -0.116181 -0.0166284 0.993089 -0.116181 -0.0166284 0.993089 -0.116091 -0.0172481 0.993089 -0.116091 -0.0172481 0.993089 -0.116091 -0.0172481 0.993089 -0.116091 -0.0172481 0.993089 -0.115999 -0.0178517 0.993089 -0.115999 -0.0178517 0.993089 -0.115999 -0.0178517 0.993089 -0.115999 -0.0178517 0.993089 -0.115908 -0.0184388 0.993089 -0.115908 -0.0184388 0.993089 -0.115908 -0.0184388 0.993089 -0.115908 -0.0184388 0.993089 -0.115815 -0.0190089 0.993089 -0.115815 -0.0190089 0.993089 -0.115815 -0.0190089 0.993089 -0.115815 -0.0190089 0.993089 -0.115723 -0.0195616 0.993089 -0.115723 -0.0195616 0.993089 -0.115723 -0.0195616 0.993089 -0.115723 -0.0195616 0.993089 -0.115632 -0.0200965 0.993089 -0.115632 -0.0200965 0.993089 -0.115632 -0.0200965 0.993089 -0.115632 -0.0200965 0.993089 -0.115541 -0.0206132 0.993089 -0.115541 -0.0206132 0.993089 -0.115541 -0.0206132 0.993089 -0.115541 -0.0206132 0.993089 -0.115451 -0.0211115 0.993089 -0.115451 -0.0211115 0.993089 -0.115451 -0.0211115 0.993089 -0.115451 -0.0211115 0.993089 -0.115362 -0.0215908 0.993089 -0.115362 -0.0215908 0.993089 -0.115362 -0.0215908 0.993089 -0.115362 -0.0215908 0.993089 -0.115275 -0.022051 0.993089 -0.115275 -0.022051 0.993089 -0.115275 -0.022051 0.993089 -0.115275 -0.022051 0.993089 -0.11519 -0.0224918 0.993089 -0.11519 -0.0224918 0.993089 -0.11519 -0.0224918 0.993089 -0.11519 -0.0224918 0.993089 -0.115107 -0.0229128 0.993089 -0.115107 -0.0229128 0.993089 -0.115107 -0.0229128 0.993089 -0.115107 -0.0229128 0.993089 -0.115026 -0.0233138 0.993089 -0.115026 -0.0233138 0.993089 -0.115026 -0.0233138 0.993089 -0.115026 -0.0233138 0.993089 -0.114948 -0.0236946 0.993089 -0.114948 -0.0236946 0.993089 -0.114948 -0.0236946 0.993089 -0.114948 -0.0236946 0.993089 -0.114873 -0.0240549 0.993089 -0.114873 -0.0240549 0.993089 -0.114873 -0.0240549 0.993089 -0.114873 -0.0240549 0.993089 -0.114802 -0.0243946 0.993089 -0.114802 -0.0243946 0.993089 -0.114802 -0.0243946 0.993089 -0.114802 -0.0243946 0.993089 -0.114734 -0.0247134 0.993089 -0.114734 -0.0247134 0.993089 -0.114734 -0.0247134 0.993089 -0.114734 -0.0247134 0.993089 -0.114669 -0.0250112 0.993089 -0.114669 -0.0250112 0.993089 -0.114669 -0.0250112 0.993089 -0.114669 -0.0250112 0.993089 -0.114608 -0.0252878 0.993089 -0.114608 -0.0252878 0.993089 -0.114608 -0.0252878 0.993089 -0.114608 -0.0252878 0.993089 -0.114552 -0.0255431 0.993089 -0.114552 -0.0255431 0.993089 -0.114552 -0.0255431 0.993089 -0.114552 -0.0255431 0.993089 -0.114499 -0.0257769 0.993089 -0.114499 -0.0257769 0.993089 -0.114499 -0.0257769 0.993089 -0.114499 -0.0257769 0.993089 -0.114451 -0.0259892 0.993089 -0.114451 -0.0259892 0.993089 -0.114451 -0.0259892 0.993089 -0.114451 -0.0259892 0.993089 -0.114408 -0.0261798 0.993089 -0.114408 -0.0261798 0.993089 -0.114408 -0.0261798 0.993089 -0.114408 -0.0261798 0.993089 -0.114369 -0.0263486 0.993089 -0.114369 -0.0263486 0.993089 -0.114369 -0.0263486 0.993089 -0.114369 -0.0263486 0.993089 -0.114335 -0.0264955 0.993089 -0.114335 -0.0264955 0.993089 -0.114335 -0.0264955 0.993089 -0.114335 -0.0264955 0.993089 -0.114306 -0.0266206 0.993089 -0.114306 -0.0266206 0.993089 -0.114306 -0.0266206 0.993089 -0.114306 -0.0266206 0.993089 -0.114282 -0.0267236 0.993089 -0.114282 -0.0267236 0.993089 -0.114282 -0.0267236 0.993089 -0.114282 -0.0267236 0.993089 -0.114263 -0.0268046 0.993089 -0.114263 -0.0268046 0.993089 -0.114263 -0.0268046 0.993089 -0.114263 -0.0268046 0.993089 -0.114249 -0.0268636 0.993089 -0.114249 -0.0268636 0.993089 -0.114249 -0.0268636 0.993089 -0.114249 -0.0268636 0.993089 -0.114241 -0.0269005 0.993089 -0.114241 -0.0269005 0.993089 -0.114241 -0.0269005 0.993089 -0.114241 -0.0269005 0.993089 -0.114237 -0.0269152 0.993089 -0.114237 -0.0269152 0.993089 -0.114237 -0.0269152 0.993089 -0.114237 -0.0269152 0.993089 -0.114239 -0.0269078 0.993089 -0.114239 -0.0269078 0.993089 -0.114239 -0.0269078 0.993089 -0.114239 -0.0269078 0.993089 -0.114246 -0.0268783 0.993089 -0.114246 -0.0268783 0.993089 -0.114246 -0.0268783 0.993089 -0.114246 -0.0268783 0.993089 -0.114258 -0.0268267 0.993089 -0.114258 -0.0268267 0.993089 -0.114258 -0.0268267 0.993089 -0.114258 -0.0268267 0.993089 -0.114275 -0.0267531 0.993089 -0.114275 -0.0267531 0.993089 -0.114275 -0.0267531 0.993089 -0.114275 -0.0267531 0.993089 -0.114298 -0.0266574 0.993089 -0.114298 -0.0266574 0.993089 -0.114298 -0.0266574 0.993089 -0.114298 -0.0266574 0.993089 -0.114325 -0.0265397 0.993089 -0.114325 -0.0265397 0.993089 -0.114325 -0.0265397 0.993089 -0.114325 -0.0265397 0.993089 -0.114357 -0.0264 0.993089 -0.114357 -0.0264 0.993089 -0.114357 -0.0264 0.993089 -0.114357 -0.0264 0.993089 -0.114394 -0.0262385 0.993089 -0.114394 -0.0262385 0.993089 -0.114394 -0.0262385 0.993089 -0.114394 -0.0262385 0.993089 -0.114436 -0.0260551 0.993089 -0.114436 -0.0260551 0.993089 -0.114436 -0.0260551 0.993089 -0.114436 -0.0260551 0.993089 -0.114483 -0.0258501 0.993089 -0.114483 -0.0258501 0.993089 -0.114483 -0.0258501 0.993089 -0.114483 -0.0258501 0.993089 -0.114534 -0.0256234 0.993089 -0.114534 -0.0256234 0.993089 -0.114534 -0.0256234 0.993089 -0.114534 -0.0256234 0.993089 -0.114589 -0.0253753 0.993089 -0.114589 -0.0253753 0.993089 -0.114589 -0.0253753 0.993089 -0.114589 -0.0253753 0.993089 -0.114648 -0.0251057 0.993089 -0.114648 -0.0251057 0.993089 -0.114648 -0.0251057 0.993089 -0.114648 -0.0251057 0.993089 -0.114712 -0.024815 0.993089 -0.114712 -0.024815 0.993089 -0.114712 -0.024815 0.993089 -0.114712 -0.024815 0.993089 -0.114779 -0.0245031 0.993089 -0.114779 -0.0245031 0.993089 -0.114779 -0.0245031 0.993089 -0.114779 -0.0245031 0.993089 -0.114849 -0.0241704 0.993089 -0.114849 -0.0241704 0.993089 -0.114849 -0.0241704 0.993089 -0.114849 -0.0241704 0.993089 -0.114923 -0.023817 0.993089 -0.114923 -0.023817 0.993089 -0.114923 -0.023817 0.993089 -0.114923 -0.023817 0.993089 -0.115 -0.023443 0.993089 -0.115 -0.023443 0.993089 -0.115 -0.023443 0.993089 -0.115 -0.023443 0.993089 -0.11508 -0.0230487 0.993089 -0.11508 -0.0230487 0.993089 -0.11508 -0.0230487 0.993089 -0.11508 -0.0230487 0.993089 -0.115162 -0.0226343 0.993089 -0.115162 -0.0226343 0.993089 -0.115162 -0.0226343 0.993089 -0.115162 -0.0226343 0.993089 -0.115246 -0.0222001 0.993089 -0.115246 -0.0222001 0.993089 -0.115246 -0.0222001 0.993089 -0.115246 -0.0222001 0.993089 -0.115333 -0.0217464 0.993089 -0.115333 -0.0217464 0.993089 -0.115333 -0.0217464 0.993089 -0.115333 -0.0217464 0.993089 -0.115421 -0.0212734 0.993089 -0.115421 -0.0212734 0.993089 -0.115421 -0.0212734 0.993089 -0.115421 -0.0212734 0.993089 -0.115511 -0.0207814 0.993089 -0.115511 -0.0207814 0.993089 -0.115511 -0.0207814 0.993089 -0.115511 -0.0207814 0.993089 -0.115601 -0.0202708 0.993089 -0.115601 -0.0202708 0.993089 -0.115601 -0.0202708 0.993089 -0.115601 -0.0202708 0.993089 -0.115693 -0.0197419 0.993089 -0.115693 -0.0197419 0.993089 -0.115693 -0.0197419 0.993089 -0.115693 -0.0197419 0.993089 -0.115785 -0.0191951 0.993089 -0.115785 -0.0191951 0.993089 -0.115785 -0.0191951 0.993089 -0.115785 -0.0191951 0.993089 -0.115877 -0.0186307 0.993089 -0.115877 -0.0186307 0.993089 -0.115877 -0.0186307 0.993089 -0.115877 -0.0186307 0.993089 -0.115969 -0.0180492 0.993089 -0.115969 -0.0180492 0.993089 -0.115969 -0.0180492 0.993089 -0.115969 -0.0180492 0.993089 -0.11606 -0.0174511 0.993089 -0.11606 -0.0174511 0.993089 -0.11606 -0.0174511 0.993089 -0.11606 -0.0174511 0.993089 -0.116151 -0.0168367 0.993089 -0.116151 -0.0168367 0.993089 -0.116151 -0.0168367 0.993089 -0.116151 -0.0168367 0.993089 -0.116241 -0.0162066 0.993089 -0.116241 -0.0162066 0.993089 -0.116241 -0.0162066 0.993089 -0.116241 -0.0162066 0.993089 -0.116329 -0.0155612 0.993089 -0.116329 -0.0155612 0.993089 -0.116329 -0.0155612 0.993089 -0.116329 -0.0155612 0.993089 -0.116415 -0.0149011 0.993089 -0.116415 -0.0149011 0.993089 -0.116415 -0.0149011 0.993089 -0.116415 -0.0149011 0.993089 -0.1165 -0.0142268 0.993089 -0.1165 -0.0142268 0.993089 -0.1165 -0.0142268 0.993089 -0.1165 -0.0142268 0.993089 -0.116582 -0.0135389 0.993089 -0.116582 -0.0135389 0.993089 -0.116582 -0.0135389 0.993089 -0.116582 -0.0135389 0.993089 -0.116661 -0.0128379 0.993089 -0.116661 -0.0128379 0.993089 -0.116661 -0.0128379 0.993089 -0.116661 -0.0128379 0.993089 -0.116737 -0.0121246 0.993089 -0.116737 -0.0121246 0.993089 -0.116737 -0.0121246 0.993089 -0.116737 -0.0121246 0.993089 -0.11681 -0.0113994 0.993089 -0.11681 -0.0113994 0.993089 -0.11681 -0.0113994 0.993089 -0.11681 -0.0113994 0.993089 -0.11688 -0.0106631 0.993089 -0.11688 -0.0106631 0.993089 -0.11688 -0.0106631 0.993089 -0.11688 -0.0106631 0.993089 -0.116945 -0.00991641 0.993089 -0.116945 -0.00991641 0.993089 -0.116945 -0.00991641 0.993089 -0.116945 -0.00991641 0.993089 -0.117007 -0.0091599 0.993089 -0.117007 -0.0091599 0.993089 -0.117007 -0.0091599 0.993089 -0.117007 -0.0091599 0.993089 -0.117064 -0.00839434 0.993089 -0.117064 -0.00839434 0.993089 -0.117064 -0.00839434 0.993089 -0.117064 -0.00839434 0.993089 -0.117117 -0.00762044 0.993089 -0.117117 -0.00762044 0.993089 -0.117117 -0.00762044 0.993089 -0.117117 -0.00762044 0.993089 -0.117166 -0.00683896 0.993089 -0.117166 -0.00683896 0.993089 -0.117166 -0.00683896 0.993089 -0.117166 -0.00683896 0.993089 -0.117209 -0.00605064 0.993089 -0.117209 -0.00605064 0.993089 -0.117209 -0.00605064 0.993089 -0.117209 -0.00605064 0.993089 -0.117247 -0.00525626 0.993089 -0.117247 -0.00525626 0.993089 -0.117247 -0.00525626 0.993089 -0.117247 -0.00525626 0.993089 -0.11728 -0.0044566 0.993089 -0.11728 -0.0044566 0.993089 -0.11728 -0.0044566 0.993089 -0.11728 -0.0044566 0.993089 -0.117308 -0.00365246 0.993089 -0.117308 -0.00365246 0.993089 -0.117308 -0.00365246 0.993089 -0.117308 -0.00365246 0.993089 -0.117331 -0.00284463 0.993089 -0.117331 -0.00284463 0.993089 -0.117331 -0.00284463 0.993089 -0.117331 -0.00284463 0.993089 -0.117347 -0.00203394 0.993089 -0.117347 -0.00203394 0.993089 -0.117347 -0.00203394 0.993089 -0.117347 -0.00203394 0.993089 -0.117359 -0.00122119 0.993089 -0.117359 -0.00122119 0.993089 -0.117359 -0.00122119 0.993089 -0.117359 -0.00122119 0.993089 -0.117364 -0.000407199 0.993089 -0.117364 -0.000407199 0.993089 -0.117364 -0.000407199 0.993089 -0.117364 -0.000407199 0.993089</float_array>
          <technique_common><accessor source="#farm_verge_left_normals_array" count="640" stride="3"><param name="X" type="float"/><param name="Y" type="float"/><param name="Z" type="float"/></accessor></technique_common>
        </source>
        <source id="farm_verge_left_uv">
          <float_array id="farm_verge_left_uv_array" count="1280">0 0 0 0.369218 0.256844 0.369218 0.256844 0 0.256844 0 0.256844 0.369218 0.513676 0.369218 0.513676 0 0.513676 0 0.513676 0.369218 0.770485 0.369218 0.770485 0 0.770485 0 0.770485 0.369218 1.02726 0.369218 1.02726 0 1.02726 0 1.02726 0.369218 1.28399 0.369218 1.28399 0 1.28399 0 1.28399 0.369218 1.54066 0.369218 1.54066 0 1.54066 0 1.54066 0.369218 1.79726 0.369218 1.79726 0 1.79726 0 1.79726 0.369218 2.05378 0.369218 2.05378 0 2.05378 0 2.05378 0.369218 2.31021 0.369218 2.31021 0 2.31021 0 2.31021 0.369218 2.56654 0.369218 2.56654 0 2.56654 0 2.56654 0.369218 2.82276 0.369218 2.82276 0 2.82276 0 2.82276 0.369218 3.07886 0.369218 3.07886 0 3.07886 0 3.07886 0.369218 3.33482 0.369218 3.33482 0 3.33482 0 3.33482 0.369218 3.59065 0.369218 3.59065 0 3.59065 0 3.59065 0.369218 3.84634 0.369218 3.84634 0 3.84634 0 3.84634 0.369218 4.10187 0.369218 4.10187 0 4.10187 0 4.10187 0.369218 4.35724 0.369218 4.35724 0 4.35724 0 4.35724 0.369218 4.61244 0.369218 4.61244 0 4.61244 0 4.61244 0.369218 4.86746 0.369218 4.86746 0 4.86746 0 4.86746 0.369218 5.1223 0.369218 5.1223 0 5.1223 0 5.1223 0.369218 5.37696 0.369218 5.37696 0 5.37696 0 5.37696 0.369218 5.63143 0.369218 5.63143 0 5.63143 0 5.63143 0.369218 5.88571 0.369218 5.88571 0 5.88571 0 5.88571 0.369218 6.13979 0.369218 6.13979 0 6.13979 0 6.13979 0.369218 6.39367 0.369218 6.39367 0 6.39367 0 6.39367 0.369218 6.64735 0.369218 6.64735 0 6.64735 0 6.64735 0.369218 6.90083 0.369218 6.90083 0 6.90083 0 6.90083 0.369218 7.15411 0.369218 7.15411 0 7.15411 0 7.15411 0.369218 7.40718 0.369218 7.40718 0 7.40718 0 7.40718 0.369218 7.66006 0.369218 7.66006 0 7.66006 0 7.66006 0.369218 7.91274 0.369218 7.91274 0 7.91274 0 7.91274 0.369218 8.16522 0.369218 8.16522 0 8.16522 0 8.16522 0.369218 8.41751 0.369218 8.41751 0 8.41751 0 8.41751 0.369218 8.66961 0.369218 8.66961 0 8.66961 0 8.66961 0.369218 8.92153 0.369218 8.92153 0 8.92153 0 8.92153 0.369218 9.17327 0.369218 9.17327 0 9.17327 0 9.17327 0.369218 9.42483 0.369218 9.42483 0 9.42483 0 9.42483 0.369218 9.67623 0.369218 9.67623 0 9.67623 0 9.67623 0.369218 9.92747 0.369218 9.92747 0 9.92747 0 9.92747 0.369218 10.1786 0.369218 10.1786 0 10.1786 0 10.1786 0.369218 10.4295 0.369218 10.4295 0 10.4295 0 10.4295 0.369218 10.6803 0.369218 10.6803 0 10.6803 0 10.6803 0.369218 10.931 0.369218 10.931 0 10.931 0 10.931 0.369218 11.1816 0.369218 11.1816 0 11.1816 0 11.1816 0.369218 11.432 0.369218 11.432 0 11.432 0 11.432 0.369218 11.6824 0.369218 11.6824 0 11.6824 0 11.6824 0.369218 11.9327 0.369218 11.9327 0 11.9327 0 11.9327 0.369218 12.1829 0.369218 12.1829 0 12.1829 0 12.1829 0.369218 12.433 0.369218 12.433 0 12.433 0 12.433 0.369218 12.6831 0.369218 12.6831 0 12.6831 0 12.6831 0.369218 12.9331 0.369218 12.9331 0 12.9331 0 12.9331 0.369218 13.1832 0.369218 13.1832 0 13.1832 0 13.1832 0.369218 13.4332 0.369218 13.4332 0 13.4332 0 13.4332 0.369218 13.6832 0.369218 13.6832 0 13.6832 0 13.6832 0.369218 13.9332 0.369218 13.9332 0 13.9332 0 13.9332 0.369218 14.1832 0.369218 14.1832 0 14.1832 0 14.1832 0.369218 14.4333 0.369218 14.4333 0 14.4333 0 14.4333 0.369218 14.6834 0.369218 14.6834 0 14.6834 0 14.6834 0.369218 14.9335 0.369218 14.9335 0 14.9335 0 14.9335 0.369218 15.1837 0.369218 15.1837 0 15.1837 0 15.1837 0.369218 15.434 0.369218 15.434 0 15.434 0 15.434 0.369218 15.6844 0.369218 15.6844 0 15.6844 0 15.6844 0.369218 15.9349 0.369218 15.9349 0 15.9349 0 15.9349 0.369218 16.1855 0.369218 16.1855 0 16.1855 0 16.1855 0.369218 16.4363 0.369218 16.4363 0 16.4363 0 16.4363 0.369218 16.6871 0.369218 16.6871 0 16.6871 0 16.6871 0.369218 16.9381 0.369218 16.9381 0 16.9381 0 16.9381 0.369218 17.1892 0.369218 17.1892 0 17.1892 0 17.1892 0.369218 17.4405 0.369218 17.4405 0 17.4405 0 17.4405 0.369218 17.692 0.369218 17.692 0 17.692 0 17.692 0.369218 17.9436 0.369218 17.9436 0 17.9436 0 17.9436 0.369218 18.1954 0.369218 18.1954 0 18.1954 0 18.1954 0.369218 18.4474 0.369218 18.4474 0 18.4474 0 18.4474 0.369218 18.6995 0.369218 18.6995 0 18.6995 0 18.6995 0.369218 18.9519 0.369218 18.9519 0 18.9519 0 18.9519 0.369218 19.2045 0.369218 19.2045 0 19.2045 0 19.2045 0.369218 19.4572 0.369218 19.4572 0 19.4572 0 19.4572 0.369218 19.7101 0.369218 19.7101 0 19.7101 0 19.7101 0.369218 19.9633 0.369218 19.9633 0 19.9633 0 19.9633 0.369218 20.2166 0.369218 20.2166 0 20.2166 0 20.2166 0.369218 20.4702 0.369218 20.4702 0 20.4702 0 20.4702 0.369218 20.7239 0.369218 20.7239 0 20.7239 0 20.7239 0.369218 20.9779 0.369218 20.9779 0 20.9779 0 20.9779 0.369218 21.232 0.369218 21.232 0 21.232 0 21.232 0.369218 21.4864 0.369218 21.4864 0 21.4864 0 21.4864 0.369218 21.7409 0.369218 21.7409 0 21.7409 0 21.7409 0.369218 21.9956 0.369218 21.9956 0 21.9956 0 21.9956 0.369218 22.2505 0.369218 22.2505 0 22.2505 0 22.2505 0.369218 22.5056 0.369218 22.5056 0 22.5056 0 22.5056 0.369218 22.7609 0.369218 22.7609 0 22.7609 0 22.7609 0.369218 23.0163 0.369218 23.0163 0 23.0163 0 23.0163 0.369218 23.2719 0.369218 23.2719 0 23.2719 0 23.2719 0.369218 23.5276 0.369218 23.5276 0 23.5276 0 23.5276 0.369218 23.7835 0.369218 23.7835 0 23.7835 0 23.7835 0.369218 24.0395 0.369218 24.0395 0 24.0395 0 24.0395 0.369218 24.2956 0.369218 24.2956 0 24.2956 0 24.2956 0.369218 24.5519 0.369218 24.5519 0 24.5519 0 24.5519 0.369218 24.8082 0.369218 24.8082 0 24.8082 0 24.8082 0.369218 25.0647 0.369218 25.0647 0 25.0647 0 25.0647 0.369218 25.3213 0.369218 25.3213 0 25.3213 0 25.3213 0.369218 25.5779 0.369218 25.5779 0 25.5779 0 25.5779 0.369218 25.8346 0.369218 25.8346 0 25.8346 0 25.8346 0.369218 26.0913 0.369218 26.0913 0 26.0913 0 26.0913 0.369218 26.3481 0.369218 26.3481 0 26.3481 0 26.3481 0.369218 26.6049 0.369218 26.6049 0 26.6049 0 26.6049 0.369218 26.8618 0.369218 26.8618 0 26.8618 0 26.8618 0.369218 27.1186 0.369218 27.1186 0 27.1186 0 27.1186 0.369218 27.3754 0.369218 27.3754 0 27.3754 0 27.3754 0.369218 27.6323 0.369218 27.6323 0 27.6323 0 27.6323 0.369218 27.8891 0.369218 27.8891 0 27.8891 0 27.8891 0.369218 28.1458 0.369218 28.1458 0 28.1458 0 28.1458 0.369218 28.4025 0.369218 28.4025 0 28.4025 0 28.4025 0.369218 28.6592 0.369218 28.6592 0 28.6592 0 28.6592 0.369218 28.9158 0.369218 28.9158 0 28.9158 0 28.9158 0.369218 29.1722 0.369218 29.1722 0 29.1722 0 29.1722 0.369218 29.4286 0.369218 29.4286 0 29.4286 0 29.4286 0.369218 29.6849 0.369218 29.6849 0 29.6849 0 29.6849 0.369218 29.9411 0.369218 29.9411 0 29.9411 0 29.9411 0.369218 30.1972 0.369218 30.1972 0 30.1972 0 30.1972 0.369218 30.4531 0.369218 30.4531 0 30.4531 0 30.4531 0.369218 30.7089 0.369218 30.7089 0 30.7089 0 30.7089 0.369218 30.9645 0.369218 30.9645 0 30.9645 0 30.9645 0.369218 31.22 0.369218 31.22 0 31.22 0 31.22 0.369218 31.4753 0.369218 31.4753 0 31.4753 0 31.4753 0.369218 31.7304 0.369218 31.7304 0 31.7304 0 31.7304 0.369218 31.9854 0.369218 31.9854 0 31.9854 0 31.9854 0.369218 32.2402 0.369218 32.2402 0 32.2402 0 32.2402 0.369218 32.4948 0.369218 32.4948 0 32.4948 0 32.4948 0.369218 32.7492 0.369218 32.7492 0 32.7492 0 32.7492 0.369218 33.0034 0.369218 33.0034 0 33.0034 0 33.0034 0.369218 33.2574 0.369218 33.2574 0 33.2574 0 33.2574 0.369218 33.5112 0.369218 33.5112 0 33.5112 0 33.5112 0.369218 33.7648 0.369218 33.7648 0 33.7648 0 33.7648 0.369218 34.0183 0.369218 34.0183 0 34.0183 0 34.0183 0.369218 34.2715 0.369218 34.2715 0 34.2715 0 34.2715 0.369218 34.5245 0.369218 34.5245 0 34.5245 0 34.5245 0.369218 34.7773 0.369218 34.7773 0 34.7773 0 34.7773 0.369218 35.0299 0.369218 35.0299 0 35.0299 0 35.0299 0.369218 35.2823 0.369218 35.2823 0 35.2823 0 35.2823 0.369218 35.5346 0.369218 35.5346 0 35.5346 0 35.5346 0.369218 35.7866 0.369218 35.7866 0 35.7866 0 35.7866 0.369218 36.0384 0.369218 36.0384 0 36.0384 0 36.0384 0.369218 36.2901 0.369218 36.2901 0 36.2901 0 36.2901 0.369218 36.5416 0.369218 36.5416 0 36.5416 0 36.5416 0.369218 36.793 0.369218 36.793 0 36.793 0 36.793 0.369218 37.0442 0.369218 37.0442 0 37.0442 0 37.0442 0.369218 37.2952 0.369218 37.2952 0 37.2952 0 37.2952 0.369218 37.5461 0.369218 37.5461 0 37.5461 0 37.5461 0.369218 37.7969 0.369218 37.7969 0 37.7969 0 37.7969 0.369218 38.0475 0.369218 38.0475 0 38.0475 0 38.0475 0.369218 38.298 0.369218 38.298 0 38.298 0 38.298 0.369218 38.5485 0.369218 38.5485 0 38.5485 0 38.5485 0.369218 38.7988 0.369218 38.7988 0 38.7988 0 38.7988 0.369218 39.049 0.369218 39.049 0 39.049 0 39.049 0.369218 39.2992 0.369218 39.2992 0 39.2992 0 39.2992 0.369218 39.5494 0.369218 39.5494 0 39.5494 0 39.5494 0.369218 39.7994 0.369218 39.7994 0 39.7994 0 39.7994 0.369218 40.0495 0.369218 40.0495 0 40.0495 0 40.0495 0.369218 40.2995 0.369218 40.2995 0 40.2995 0 40.2995 0.369218 40.5495 0.369218 40.5495 0</float_array>
          <technique_common><accessor source="#farm_verge_left_uv_array" count="640" stride="2"><param name="S" type="float"/><param name="T" type="float"/></accessor></technique_common>
        </source>
        <vertices id="farm_verge_left_vertices"><input semantic="POSITION" source="#farm_verge_left_positions"/></vertices>
        <triangles material="farm_verge_left_material" count="320">
          <input semantic="VERTEX" source="#farm_verge_left_vertices" offset="0"/>
          <input semantic="NORMAL" source="#farm_verge_left_normals" offset="1"/>
          <input semantic="TEXCOORD" source="#farm_verge_left_uv" offset="2" set="0"/>
          <p>0 0 0 2 2 2 1 1 1 0 0 0 3 3 3 2 2 2 4 4 4 6 6 6 5 5 5 4 4 4 7 7 7 6 6 6 8 8 8 10 10 10 9 9 9 8 8 8 11 11 11 10 10 10 12 12 12 14 14 14 13 13 13 12 12 12 15 15 15 14 14 14 16 16 16 18 18 18 17 17 17 16 16 16 19 19 19 18 18 18 20 20 20 22 22 22 21 21 21 20 20 20 23 23 23 22 22 22 24 24 24 26 26 26 25 25 25 24 24 24 27 27 27 26 26 26 28 28 28 30 30 30 29 29 29 28 28 28 31 31 31 30 30 30 32 32 32 34 34 34 33 33 33 32 32 32 35 35 35 34 34 34 36 36 36 38 38 38 37 37 37 36 36 36 39 39 39 38 38 38 40 40 40 42 42 42 41 41 41 40 40 40 43 43 43 42 42 42 44 44 44 46 46 46 45 45 45 44 44 44 47 47 47 46 46 46 48 48 48 50 50 50 49 49 49 48 48 48 51 51 51 50 50 50 52 52 52 54 54 54 53 53 53 52 52 52 55 55 55 54 54 54 56 56 56 58 58 58 57 57 57 56 56 56 59 59 59 58 58 58 60 60 60 62 62 62 61 61 61 60 60 60 63 63 63 62 62 62 64 64 64 66 66 66 65 65 65 64 64 64 67 67 67 66 66 66 68 68 68 70 70 70 69 69 69 68 68 68 71 71 71 70 70 70 72 72 72 74 74 74 73 73 73 72 72 72 75 75 75 74 74 74 76 76 76 78 78 78 77 77 77 76 76 76 79 79 79 78 78 78 80 80 80 82 82 82 81 81 81 80 80 80 83 83 83 82 82 82 84 84 84 86 86 86 85 85 85 84 84 84 87 87 87 86 86 86 88 88 88 90 90 90 89 89 89 88 88 88 91 91 91 90 90 90 92 92 92 94 94 94 93 93 93 92 92 92 95 95 95 94 94 94 96 96 96 98 98 98 97 97 97 96 96 96 99 99 99 98 98 98 100 100 100 102 102 102 101 101 101 100 100 100 103 103 103 102 102 102 104 104 104 106 106 106 105 105 105 104 104 104 107 107 107 106 106 106 108 108 108 110 110 110 109 109 109 108 108 108 111 111 111 110 110 110 112 112 112 114 114 114 113 113 113 112 112 112 115 115 115 114 114 114 116 116 116 118 118 118 117 117 117 116 116 116 119 119 119 118 118 118 120 120 120 122 122 122 121 121 121 120 120 120 123 123 123 122 122 122 124 124 124 126 126 126 125 125 125 124 124 124 127 127 127 126 126 126 128 128 128 130 130 130 129 129 129 128 128 128 131 131 131 130 130 130 132 132 132 134 134 134 133 133 133 132 132 132 135 135 135 134 134 134 136 136 136 138 138 138 137 137 137 136 136 136 139 139 139 138 138 138 140 140 140 142 142 142 141 141 141 140 140 140 143 143 143 142 142 142 144 144 144 146 146 146 145 145 145 144 144 144 147 147 147 146 146 146 148 148 148 150 150 150 149 149 149 148 148 148 151 151 151 150 150 150 152 152 152 154 154 154 153 153 153 152 152 152 155 155 155 154 154 154 156 156 156 158 158 158 157 157 157 156 156 156 159 159 159 158 158 158 160 160 160 162 162 162 161 161 161 160 160 160 163 163 163 162 162 162 164 164 164 166 166 166 165 165 165 164 164 164 167 167 167 166 166 166 168 168 168 170 170 170 169 169 169 168 168 168 171 171 171 170 170 170 172 172 172 174 174 174 173 173 173 172 172 172 175 175 175 174 174 174 176 176 176 178 178 178 177 177 177 176 176 176 179 179 179 178 178 178 180 180 180 182 182 182 181 181 181 180 180 180 183 183 183 182 182 182 184 184 184 186 186 186 185 185 185 184 184 184 187 187 187 186 186 186 188 188 188 190 190 190 189 189 189 188 188 188 191 191 191 190 190 190 192 192 192 194 194 194 193 193 193 192 192 192 195 195 195 194 194 194 196 196 196 198 198 198 197 197 197 196 196 196 199 199 199 198 198 198 200 200 200 202 202 202 201 201 201 200 200 200 203 203 203 202 202 202 204 204 204 206 206 206 205 205 205 204 204 204 207 207 207 206 206 206 208 208 208 210 210 210 209 209 209 208 208 208 211 211 211 210 210 210 212 212 212 214 214 214 213 213 213 212 212 212 215 215 215 214 214 214 216 216 216 218 218 218 217 217 217 216 216 216 219 219 219 218 218 218 220 220 220 222 222 222 221 221 221 220 220 220 223 223 223 222 222 222 224 224 224 226 226 226 225 225 225 224 224 224 227 227 227 226 226 226 228 228 228 230 230 230 229 229 229 228 228 228 231 231 231 230 230 230 232 232 232 234 234 234 233 233 233 232 232 232 235 235 235 234 234 234 236 236 236 238 238 238 237 237 237 236 236 236 239 239 239 238 238 238 240 240 240 242 242 242 241 241 241 240 240 240 243 243 243 242 242 242 244 244 244 246 246 246 245 245 245 244 244 244 247 247 247 246 246 246 248 248 248 250 250 250 249 249 249 248 248 248 251 251 251 250 250 250 252 252 252 254 254 254 253 253 253 252 252 252 255 255 255 254 254 254 256 256 256 258 258 258 257 257 257 256 256 256 259 259 259 258 258 258 260 260 260 262 262 262 261 261 261 260 260 260 263 263 263 262 262 262 264 264 264 266 266 266 265 265 265 264 264 264 267 267 267 266 266 266 268 268 268 270 270 270 269 269 269 268 268 268 271 271 271 270 270 270 272 272 272 274 274 274 273 273 273 272 272 272 275 275 275 274 274 274 276 276 276 278 278 278 277 277 277 276 276 276 279 279 279 278 278 278 280 280 280 282 282 282 281 281 281 280 280 280 283 283 283 282 282 282 284 284 284 286 286 286 285 285 285 284 284 284 287 287 287 286 286 286 288 288 288 290 290 290 289 289 289 288 288 288 291 291 291 290 290 290 292 292 292 294 294 294 293 293 293 292 292 292 295 295 295 294 294 294 296 296 296 298 298 298 297 297 297 296 296 296 299 299 299 298 298 298 300 300 300 302 302 302 301 301 301 300 300 300 303 303 303 302 302 302 304 304 304 306 306 306 305 305 305 304 304 304 307 307 307 306 306 306 308 308 308 310 310 310 309 309 309 308 308 308 311 311 311 310 310 310 312 312 312 314 314 314 313 313 313 312 312 312 315 315 315 314 314 314 316 316 316 318 318 318 317 317 317 316 316 316 319 319 319 318 318 318 320 320 320 322 322 322 321 321 321 320 320 320 323 323 323 322 322 322 324 324 324 326 326 326 325 325 325 324 324 324 327 327 327 326 326 326 328 328 328 330 330 330 329 329 329 328 328 328 331 331 331 330 330 330 332 332 332 334 334 334 333 333 333 332 332 332 335 335 335 334 334 334 336 336 336 338 338 338 337 337 337 336 336 336 339 339 339 338 338 338 340 340 340 342 342 342 341 341 341 340 340 340 343 343 343 342 342 342 344 344 344 346 346 346 345 345 345 344 344 344 347 347 347 346 346 346 348 348 348 350 350 350 349 349 349 348 348 348 351 351 351 350 350 350 352 352 352 354 354 354 353 353 353 352 352 352 355 355 355 354 354 354 356 356 356 358 358 358 357 357 357 356 356 356 359 359 359 358 358 358 360 360 360 362 362 362 361 361 361 360 360 360 363 363 363 362 362 362 364 364 364 366 366 366 365 365 365 364 364 364 367 367 367 366 366 366 368 368 368 370 370 370 369 369 369 368 368 368 371 371 371 370 370 370 372 372 372 374 374 374 373 373 373 372 372 372 375 375 375 374 374 374 376 376 376 378 378 378 377 377 377 376 376 376 379 379 379 378 378 378 380 380 380 382 382 382 381 381 381 380 380 380 383 383 383 382 382 382 384 384 384 386 386 386 385 385 385 384 384 384 387 387 387 386 386 386 388 388 388 390 390 390 389 389 389 388 388 388 391 391 391 390 390 390 392 392 392 394 394 394 393 393 393 392 392 392 395 395 395 394 394 394 396 396 396 398 398 398 397 397 397 396 396 396 399 399 399 398 398 398 400 400 400 402 402 402 401 401 401 400 400 400 403 403 403 402 402 402 404 404 404 406 406 406 405 405 405 404 404 404 407 407 407 406 406 406 408 408 408 410 410 410 409 409 409 408 408 408 411 411 411 410 410 410 412 412 412 414 414 414 413 413 413 412 412 412 415 415 415 414 414 414 416 416 416 418 418 418 417 417 417 416 416 416 419 419 419 418 418 418 420 420 420 422 422 422 421 421 421 420 420 420 423 423 423 422 422 422 424 424 424 426 426 426 425 425 425 424 424 424 427 427 427 426 426 426 428 428 428 430 430 430 429 429 429 428 428 428 431 431 431 430 430 430 432 432 432 434 434 434 433 433 433 432 432 432 435 435 435 434 434 434 436 436 436 438 438 438 437 437 437 436 436 436 439 439 439 438 438 438 440 440 440 442 442 442 441 441 441 440 440 440 443 443 443 442 442 442 444 444 444 446 446 446 445 445 445 444 444 444 447 447 447 446 446 446 448 448 448 450 450 450 449 449 449 448 448 448 451 451 451 450 450 450 452 452 452 454 454 454 453 453 453 452 452 452 455 455 455 454 454 454 456 456 456 458 458 458 457 457 457 456 456 456 459 459 459 458 458 458 460 460 460 462 462 462 461 461 461 460 460 460 463 463 463 462 462 462 464 464 464 466 466 466 465 465 465 464 464 464 467 467 467 466 466 466 468 468 468 470 470 470 469 469 469 468 468 468 471 471 471 470 470 470 472 472 472 474 474 474 473 473 473 472 472 472 475 475 475 474 474 474 476 476 476 478 478 478 477 477 477 476 476 476 479 479 479 478 478 478 480 480 480 482 482 482 481 481 481 480 480 480 483 483 483 482 482 482 484 484 484 486 486 486 485 485 485 484 484 484 487 487 487 486 486 486 488 488 488 490 490 490 489 489 489 488 488 488 491 491 491 490 490 490 492 492 492 494 494 494 493 493 493 492 492 492 495 495 495 494 494 494 496 496 496 498 498 498 497 497 497 496 496 496 499 499 499 498 498 498 500 500 500 502 502 502 501 501 501 500 500 500 503 503 503 502 502 502 504 504 504 506 506 506 505 505 505 504 504 504 507 507 507 506 506 506 508 508 508 510 510 510 509 509 509 508 508 508 511 511 511 510 510 510 512 512 512 514 514 514 513 513 513 512 512 512 515 515 515 514 514 514 516 516 516 518 518 518 517 517 517 516 516 516 519 519 519 518 518 518 520 520 520 522 522 522 521 521 521 520 520 520 523 523 523 522 522 522 524 524 524 526 526 526 525 525 525 524 524 524 527 527 527 526 526 526 528 528 528 530 530 530 529 529 529 528 528 528 531 531 531 530 530 530 532 532 532 534 534 534 533 533 533 532 532 532 535 535 535 534 534 534 536 536 536 538 538 538 537 537 537 536 536 536 539 539 539 538 538 538 540 540 540 542 542 542 541 541 541 540 540 540 543 543 543 542 542 542 544 544 544 546 546 546 545 545 545 544 544 544 547 547 547 546 546 546 548 548 548 550 550 550 549 549 549 548 548 548 551 551 551 550 550 550 552 552 552 554 554 554 553 553 553 552 552 552 555 555 555 554 554 554 556 556 556 558 558 558 557 557 557 556 556 556 559 559 559 558 558 558 560 560 560 562 562 562 561 561 561 560 560 560 563 563 563 562 562 562 564 564 564 566 566 566 565 565 565 564 564 564 567 567 567 566 566 566 568 568 568 570 570 570 569 569 569 568 568 568 571 571 571 570 570 570 572 572 572 574 574 574 573 573 573 572 572 572 575 575 575 574 574 574 576 576 576 578 578 578 577 577 577 576 576 576 579 579 579 578 578 578 580 580 580 582 582 582 581 581 581 580 580 580 583 583 583 582 582 582 584 584 584 586 586 586 585 585 585 584 584 584 587 587 587 586 586 586 588 588 588 590 590 590 589 589 589 588 588 588 591 591 591 590 590 590 592 592 592 594 594 594 593 593 593 592 592 592 595 595 595 594 594 594 596 596 596 598 598 598 597 597 597 596 596 596 599 599 599 598 598 598 600 600 600 602 602 602 601 601 601 600 600 600 603 603 603 602 602 602 604 604 604 606 606 606 605 605 605 604 604 604 607 607 607 606 606 606 608 608 608 610 610 610 609 609 609 608 608 608 611 611 611 610 610 610 612 612 612 614 614 614 613 613 613 612 612 612 615 615 615 614 614 614 616 616 616 618 618 618 617 617 617 616 616 616 619 619 619 618 618 618 620 620 620 622 622 622 621 621 621 620 620 620 623 623 623 622 622 622 624 624 624 626 626 626 625 625 625 624 624 624 627 627 627 626 626 626 628 628 628 630 630 630 629 629 629 628 628 628 631 631 631 630 630 630 632 632 632 634 634 634 633 633 633 632 632 632 635 635 635 634 634 634 636 636 636 638 638 638 637 637 637 636 636 636 639 639 639 638 638 638</p>
        </triangles>
      </mesh>
    </geometry>
  </library_geometries>
  <library_visual_scenes>
    <visual_scene id="farm_verge_left_scene">
      <node id="farm_verge_left_node">
        <instance_geometry url="#farm_verge_left_geometry">
          <bind_material><technique_common>
            <instance_material symbol="farm_verge_left_material" target="#farm_verge_left_material"><bind_vertex_input semantic="UVSET0" input_semantic="TEXCOORD" input_set="0"/></instance_material>
          </technique_common></bind_material>
        </instance_geometry>
      </node>
    </visual_scene>
  </library_visual_scenes>
  <scene><instance_visual_scene url="#farm_verge_left_scene"/></scene>
</COLLADA>
