<svg width="759.195" xmlns="http://www.w3.org/2000/svg" height="758.166" id="screenshot-35b27aa9-e63a-8027-8006-675ded22c6b3" viewBox="-150 -150 759.195 758.166" xmlns:xlink="http://www.w3.org/1999/xlink" fill="none" version="1.1"><g id="shape-35b27aa9-e63a-8027-8006-675ded22c6b3" rx="0" ry="0" style="fill: rgb(0, 0, 0);"><g id="shape-35b27aa9-e63a-8027-8006-675e9f9fbbef" filter="url(#filter-render-2)" rx="0" ry="0"><defs><filter id="filter-render-2" x="-0.34949151548899576" y="-0.3503312588610918" width="1.7688813340757907" height="1.7707287694944018" filterUnits="objectBoundingBox" color-interpolation-filters="sRGB"><feFlood flood-opacity="0" result="BackgroundImageFix"/><feColorMatrix in="SourceAlpha" type="matrix" values="0 0 0 0 0 0 0 0 0 0 0 0 0 0 0 0 0 0 127 0"/><feMorphology radius="5" operator="dilate" in="SourceAlpha" result="filter_7493bc2f-f59f-805f-8006-67640669f0e2"/><feOffset dx="10" dy="10"/><feGaussianBlur stdDeviation="20"/><feColorMatrix type="matrix" values="0 0 0 0 1 0 0 0 0 0 0 0 0 0 0 0 0 0 0.25 0"/><feBlend mode="normal" in2="BackgroundImageFix" result="filter_7493bc2f-f59f-805f-8006-67640669f0e2"/><feBlend mode="normal" in="SourceGraphic" in2="filter_7493bc2f-f59f-805f-8006-67640669f0e2" result="shape"/></filter><filter id="filter-shadow-render-2" x="-0.34949151548899576" y="-0.3503312588610918" width="1.7688813340757907" height="1.7707287694944018" filterUnits="objectBoundingBox" color-interpolation-filters="sRGB"><feFlood flood-opacity="0" result="BackgroundImageFix"/><feColorMatrix in="SourceAlpha" type="matrix" values="0 0 0 0 0 0 0 0 0 0 0 0 0 0 0 0 0 0 127 0"/><feMorphology radius="5" operator="dilate" in="SourceAlpha" result="filter_7493bc2f-f59f-805f-8006-67640669f0e2"/><feOffset dx="10" dy="10"/><feGaussianBlur stdDeviation="20"/><feColorMatrix type="matrix" values="0 0 0 0 1 0 0 0 0 0 0 0 0 0 0 0 0 0 0.25 0"/><feBlend mode="normal" in2="BackgroundImageFix" result="filter_7493bc2f-f59f-805f-8006-67640669f0e2"/><feBlend mode="normal" in="SourceGraphic" in2="filter_7493bc2f-f59f-805f-8006-67640669f0e2" result="shape"/></filter></defs><g id="shape-7493bc2f-f59f-805f-8006-676054f9aba0" rx="0" ry="0"><g id="shape-35b27aa9-e63a-8027-8006-675ded2340c8"><defs><radialGradient gradientUnits="userSpaceOnUse" r="56.48" cx="44.73" id="render-4-b" cy="23.91" fy="23.91" fx="44.73" gradientTransform="matrix(5.219562, 0.000000, 0.000000, 5.207050, -148.147088, -167.749172) translate(128) rotate(-180) scale(1 -1)"><stop offset=".36" stop-color="#ff2f00"/><stop offset=".5" stop-color="#fff"/><stop offset=".56" stop-color="#ffb700"/><stop offset=".62" stop-color="#ff8700"/><stop offset=".74" stop-color="#ff3200"/><stop offset=".79" stop-color="#f10"/><stop offset=".94" stop-color="#7c0000"/><stop offset="1" stop-color="#eb0000"/></radialGradient></defs><g class="fills" id="fills-35b27aa9-e63a-8027-8006-675ded2340c8"><path d="M14.129094123840332,15.537684440612793C-8.992976188659668,38.60506820678711,51.553409576416016,136.34164428710938,61.887882232666016,146.70346069335938C72.27509307861328,157.06625366210938,99.41718292236328,146.70346069335938,122.48700714111328,123.68831634521484C145.61004638671875,100.62215423583984,155.94403076171875,73.54451751708984,145.55780029296875,63.23519515991211C135.17059326171875,52.87240219116211,37.199405670166016,-7.477452278137207,14.076848030090332,15.589930534362793Z" style="isolation: isolate; fill: url(&quot;#render-4-b&quot;);"/></g><g id="strokes-405f52c4-ec4d-8004-8007-2429152b97a0-35b27aa9-e63a-8027-8006-675ded2340c8" class="strokes" style="isolation: isolate; fill: url(&quot;#render-4-b&quot;);"><g class="inner-stroke-shape"><defs><clipPath id="inner-stroke-render-4-35b27aa9-e63a-8027-8006-675ded2340c8-0"><use href="#stroke-shape-render-4-35b27aa9-e63a-8027-8006-675ded2340c8-0"/></clipPath><path d="M14.129094123840332,15.537684440612793C-8.992976188659668,38.60506820678711,51.553409576416016,136.34164428710938,61.887882232666016,146.70346069335938C72.27509307861328,157.06625366210938,99.41718292236328,146.70346069335938,122.48700714111328,123.68831634521484C145.61004638671875,100.62215423583984,155.94403076171875,73.54451751708984,145.55780029296875,63.23519515991211C135.17059326171875,52.87240219116211,37.199405670166016,-7.477452278137207,14.076848030090332,15.589930534362793Z" id="stroke-shape-render-4-35b27aa9-e63a-8027-8006-675ded2340c8-0" style="fill: none; stroke-width: 10.4386; stroke: rgb(0, 0, 0); stroke-opacity: 1;"/></defs><use href="#stroke-shape-render-4-35b27aa9-e63a-8027-8006-675ded2340c8-0" clip-path="url('#inner-stroke-render-4-35b27aa9-e63a-8027-8006-675ded2340c8-0')"/></g></g></g><g id="shape-35b27aa9-e63a-8027-8006-675ded23b7e6" style="mix-blend-mode: screen;"><defs><linearGradient x1="3.78" y1="42.82" x2="28.67" y2="42.82" id="render-5-c" gradientTransform="matrix(5.219562, 0.000000, 0.000000, 5.207050, -148.147088, -167.749172) translate(60.6) rotate(-180) scale(1 -1)" gradientUnits="userSpaceOnUse"><stop offset="0" stop-color="#fff"/><stop offset=".5" stop-color="#777"/><stop offset=".85" stop-color="#212121"/><stop offset="1"/></linearGradient></defs><g class="fills" id="fills-35b27aa9-e63a-8027-8006-675ded23b7e6"><path d="M140.59857177734375,97.86238861083984C97.32880401611328,58.59994125366211,40.331241607666016,12.622157096862793,18.51386070251465,14.600916862487793C34.485050201416016,3.250086784362793,98.26825714111328,42.92684555053711,148.48016357421875,78.75179290771484C147.33172607421875,84.53182220458984,144.61761474609375,91.09212493896484,140.59857177734375,97.86238861083984Z" style="isolation: isolate; fill: url(&quot;#render-5-c&quot;);"/></g><g id="strokes-405f52c4-ec4d-8004-8007-2429152cce66-35b27aa9-e63a-8027-8006-675ded23b7e6" class="strokes" style="isolation: isolate; fill: url(&quot;#render-5-c&quot;);"><g class="inner-stroke-shape"><defs><clipPath id="inner-stroke-render-5-35b27aa9-e63a-8027-8006-675ded23b7e6-0"><use href="#stroke-shape-render-5-35b27aa9-e63a-8027-8006-675ded23b7e6-0"/></clipPath><path d="M140.59857177734375,97.86238861083984C97.32880401611328,58.59994125366211,40.331241607666016,12.622157096862793,18.51386070251465,14.600916862487793C34.485050201416016,3.250086784362793,98.26825714111328,42.92684555053711,148.48016357421875,78.75179290771484C147.33172607421875,84.53182220458984,144.61761474609375,91.09212493896484,140.59857177734375,97.86238861083984Z" id="stroke-shape-render-5-35b27aa9-e63a-8027-8006-675ded23b7e6-0" style="fill: none; stroke-width: 10.4386; stroke: rgb(0, 0, 0); stroke-opacity: 1;"/></defs><use href="#stroke-shape-render-5-35b27aa9-e63a-8027-8006-675ded23b7e6-0" clip-path="url('#inner-stroke-render-5-35b27aa9-e63a-8027-8006-675ded23b7e6-0')"/></g></g></g><g id="shape-35b27aa9-e63a-8027-8006-675ded23ea32" style="mix-blend-mode: screen;"><defs><linearGradient x1="115.02" y1="51.93" x2="111.1" y2="49.48" id="render-6-a" gradientTransform="matrix(5.219562, 0.000000, 0.000000, 5.207050, -148.147088, -167.749172) translate(146.92) rotate(-180) scale(1 -1)" gradientUnits="userSpaceOnUse"><stop offset=".08" stop-color="#fff"/><stop offset=".54" stop-color="#777"/><stop offset=".86" stop-color="#212121"/><stop offset="1"/></linearGradient></defs><g class="fills" id="fills-35b27aa9-e63a-8027-8006-675ded23ea32"><path d="M15.903752326965332,18.037683486938477C-6.33159875869751,40.21883773803711,51.866397857666016,134.25888061523438,61.887882232666016,144.20492553710938C71.85761260986328,154.14950561523438,97.95526885986328,144.20492553710938,120.19086456298828,122.07454681396484C142.42620849609375,99.89315032958984,152.34246826171875,73.85677337646484,142.37396240234375,63.91219711303711C132.40423583984375,53.96639633178711,38.138370513916016,-4.091465950012207,15.903752326965332,18.089929580688477Z" style="isolation: isolate; fill: url(&quot;#render-6-a&quot;);"/></g><g id="strokes-405f52c4-ec4d-8004-8007-2429152d64c5-35b27aa9-e63a-8027-8006-675ded23ea32" class="strokes" style="isolation: isolate; fill: url(&quot;#render-6-a&quot;);"><g class="inner-stroke-shape"><defs><clipPath id="inner-stroke-render-6-35b27aa9-e63a-8027-8006-675ded23ea32-0"><use href="#stroke-shape-render-6-35b27aa9-e63a-8027-8006-675ded23ea32-0"/></clipPath><path d="M15.903752326965332,18.037683486938477C-6.33159875869751,40.21883773803711,51.866397857666016,134.25888061523438,61.887882232666016,144.20492553710938C71.85761260986328,154.14950561523438,97.95526885986328,144.20492553710938,120.19086456298828,122.07454681396484C142.42620849609375,99.89315032958984,152.34246826171875,73.85677337646484,142.37396240234375,63.91219711303711C132.40423583984375,53.96639633178711,38.138370513916016,-4.091465950012207,15.903752326965332,18.089929580688477Z" id="stroke-shape-render-6-35b27aa9-e63a-8027-8006-675ded23ea32-0" style="fill: none; stroke-width: 10.4386; stroke: rgb(0, 0, 0); stroke-opacity: 1;"/></defs><use href="#stroke-shape-render-6-35b27aa9-e63a-8027-8006-675ded23ea32-0" clip-path="url('#inner-stroke-render-6-35b27aa9-e63a-8027-8006-675ded23ea32-0')"/></g></g></g><g id="shape-35b27aa9-e63a-8027-8006-675ded23ea33" style="mix-blend-mode: screen;"><defs><linearGradient x1="115.02" y1="51.93" x2="111.1" y2="49.48" id="render-7-a" gradientTransform="matrix(5.219562, 0.000000, 0.000000, 5.207050, -148.147088, -167.749172) translate(146.92) rotate(-180) scale(1 -1)" gradientUnits="userSpaceOnUse"><stop offset=".08" stop-color="#fff"/><stop offset=".54" stop-color="#777"/><stop offset=".86" stop-color="#212121"/><stop offset="1"/></linearGradient></defs><g class="fills" id="fills-35b27aa9-e63a-8027-8006-675ded23ea33"><path d="M15.903752326965332,18.037683486938477C-6.33159875869751,40.21883773803711,51.866397857666016,134.25888061523438,61.887882232666016,144.20492553710938C71.85761260986328,154.14950561523438,97.95526885986328,144.20492553710938,120.19086456298828,122.07454681396484C142.42620849609375,99.89315032958984,152.34246826171875,73.85677337646484,142.37396240234375,63.91219711303711C132.40423583984375,53.96639633178711,38.138370513916016,-4.091465950012207,15.903752326965332,18.089929580688477Z" style="isolation: isolate; fill: url(&quot;#render-7-a&quot;);"/></g><g id="strokes-405f52c4-ec4d-8004-8007-2429152e3691-35b27aa9-e63a-8027-8006-675ded23ea33" class="strokes" style="isolation: isolate; fill: url(&quot;#render-7-a&quot;);"><g class="inner-stroke-shape"><defs><clipPath id="inner-stroke-render-7-35b27aa9-e63a-8027-8006-675ded23ea33-0"><use href="#stroke-shape-render-7-35b27aa9-e63a-8027-8006-675ded23ea33-0"/></clipPath><path d="M15.903752326965332,18.037683486938477C-6.33159875869751,40.21883773803711,51.866397857666016,134.25888061523438,61.887882232666016,144.20492553710938C71.85761260986328,154.14950561523438,97.95526885986328,144.20492553710938,120.19086456298828,122.07454681396484C142.42620849609375,99.89315032958984,152.34246826171875,73.85677337646484,142.37396240234375,63.91219711303711C132.40423583984375,53.96639633178711,38.138370513916016,-4.091465950012207,15.903752326965332,18.089929580688477Z" id="stroke-shape-render-7-35b27aa9-e63a-8027-8006-675ded23ea33-0" style="fill: none; stroke-width: 10.4386; stroke: rgb(0, 0, 0); stroke-opacity: 1;"/></defs><use href="#stroke-shape-render-7-35b27aa9-e63a-8027-8006-675ded23ea33-0" clip-path="url('#inner-stroke-render-7-35b27aa9-e63a-8027-8006-675ded23ea33-0')"/></g></g></g><g id="shape-35b27aa9-e63a-8027-8006-675ded23ea34" style="mix-blend-mode: screen;"><defs><linearGradient id="render-8-g" x1="50.21" y1="35.93" x2="41.38" y2="45.73" gradientTransform="matrix(1,0,0,1,0,0)" xlink:href="#render-8-a"/><linearGradient x1="115.02" y1="51.93" x2="111.1" y2="49.48" id="render-8-a" gradientTransform="matrix(5.219562, 0.000000, 0.000000, 5.207050, -148.147088, -167.749172) translate(146.92) rotate(-180) scale(1 -1)" gradientUnits="userSpaceOnUse"><stop offset=".08" stop-color="#fff"/><stop offset=".54" stop-color="#777"/><stop offset=".86" stop-color="#212121"/><stop offset="1"/></linearGradient></defs><g class="fills" id="fills-35b27aa9-e63a-8027-8006-675ded23ea34"><path d="M15.903752326965332,18.037683486938477C-6.33159875869751,40.21883773803711,51.866397857666016,134.25888061523438,61.887882232666016,144.20492553710938C71.85761260986328,154.14950561523438,97.95526885986328,144.20492553710938,120.19086456298828,122.07454681396484C142.42620849609375,99.89315032958984,152.34246826171875,73.85677337646484,142.37396240234375,63.91219711303711C132.40423583984375,53.96639633178711,38.138370513916016,-4.091465950012207,15.903752326965332,18.089929580688477Z"/></g><g id="strokes-405f52c4-ec4d-8004-8007-2429152ecd02-35b27aa9-e63a-8027-8006-675ded23ea34" class="strokes"><g class="inner-stroke-shape"><defs><clipPath id="inner-stroke-render-8-35b27aa9-e63a-8027-8006-675ded23ea34-0"><use href="#stroke-shape-render-8-35b27aa9-e63a-8027-8006-675ded23ea34-0"/></clipPath><path d="M15.903752326965332,18.037683486938477C-6.33159875869751,40.21883773803711,51.866397857666016,134.25888061523438,61.887882232666016,144.20492553710938C71.85761260986328,154.14950561523438,97.95526885986328,144.20492553710938,120.19086456298828,122.07454681396484C142.42620849609375,99.89315032958984,152.34246826171875,73.85677337646484,142.37396240234375,63.91219711303711C132.40423583984375,53.96639633178711,38.138370513916016,-4.091465950012207,15.903752326965332,18.089929580688477Z" id="stroke-shape-render-8-35b27aa9-e63a-8027-8006-675ded23ea34-0" style="fill: none; stroke-width: 10.4386; stroke: rgb(0, 0, 0); stroke-opacity: 1;"/></defs><use href="#stroke-shape-render-8-35b27aa9-e63a-8027-8006-675ded23ea34-0" clip-path="url('#inner-stroke-render-8-35b27aa9-e63a-8027-8006-675ded23ea34-0')"/></g></g></g><g id="shape-35b27aa9-e63a-8027-8006-675ded261c5d" style="mix-blend-mode: screen;"><defs><radialGradient r="8.03" cx="435.27" id="render-9-u" cy="36.04" xlink:href="#render-9-d" fy="36.04" fx="435.27" gradientTransform="translate(-36.33 101.2) rotate(-56.18) scale(.22 .8)"/><radialGradient gradientUnits="userSpaceOnUse" r="8.02" cx="1675.15" id="render-9-d" cy="-144.68" fy="-144.68" fx="1675.15" gradientTransform="matrix(5.219562, 0.000000, 0.000000, 5.207050, -148.147088, -167.749172) translate(-215.18 -194.12) rotate(58.47) scale(.22 1)"><stop offset=".26" stop-color="#fff"/><stop offset=".38" stop-color="#afafaf"/><stop offset="1"/></radialGradient></defs><g class="fills" id="fills-35b27aa9-e63a-8027-8006-675ded261c5d"><path d="M66.27265167236328,25.692468643188477C83.75800323486328,37.40804672241211,95.34540557861328,50.73714828491211,92.16181182861328,55.47689437866211C88.97797393798828,60.21517562866211,72.17060089111328,54.59066390991211,54.685245513916016,42.92684555053711C37.199405670166016,31.211267471313477,25.61200523376465,17.882165908813477,28.79608726501465,13.142176628112793C31.98016929626465,8.403895378112793,48.786808013916016,14.028162956237793,66.27265167236328,25.692468643188477Z" style="isolation: isolate; fill: url(&quot;#render-9-u&quot;);"/></g><g id="strokes-405f52c4-ec4d-8004-8007-2429152fa2b5-35b27aa9-e63a-8027-8006-675ded261c5d" class="strokes" style="isolation: isolate; fill: url(&quot;#render-9-u&quot;);"><g class="inner-stroke-shape"><defs><clipPath id="inner-stroke-render-9-35b27aa9-e63a-8027-8006-675ded261c5d-0"><use href="#stroke-shape-render-9-35b27aa9-e63a-8027-8006-675ded261c5d-0"/></clipPath><path d="M66.27265167236328,25.692468643188477C83.75800323486328,37.40804672241211,95.34540557861328,50.73714828491211,92.16181182861328,55.47689437866211C88.97797393798828,60.21517562866211,72.17060089111328,54.59066390991211,54.685245513916016,42.92684555053711C37.199405670166016,31.211267471313477,25.61200523376465,17.882165908813477,28.79608726501465,13.142176628112793C31.98016929626465,8.403895378112793,48.786808013916016,14.028162956237793,66.27265167236328,25.692468643188477Z" id="stroke-shape-render-9-35b27aa9-e63a-8027-8006-675ded261c5d-0" style="fill: none; stroke-width: 10.4386; stroke: rgb(0, 0, 0); stroke-opacity: 1;"/></defs><use href="#stroke-shape-render-9-35b27aa9-e63a-8027-8006-675ded261c5d-0" clip-path="url('#inner-stroke-render-9-35b27aa9-e63a-8027-8006-675ded261c5d-0')"/></g></g></g></g><g id="shape-7493bc2f-f59f-805f-8006-6760990562e4" rx="0" ry="0"><g id="shape-35b27aa9-e63a-8027-8006-675ded243a23"><defs><radialGradient gradientUnits="userSpaceOnUse" r="56.48" cx="44.73" id="render-11-b" cy="23.91" fy="23.91" fx="44.73" gradientTransform="matrix(5.207114, 0.000000, 0.000000, 5.219499, -6708.207866, -9386.297534) translate(128) rotate(-180) scale(1 -1)"><stop offset=".36" stop-color="#ff2f00"/><stop offset=".5" stop-color="#fff"/><stop offset=".56" stop-color="#ffb700"/><stop offset=".62" stop-color="#ff8700"/><stop offset=".74" stop-color="#ff3200"/><stop offset=".79" stop-color="#f10"/><stop offset=".94" stop-color="#7c0000"/><stop offset="1" stop-color="#eb0000"/></radialGradient><radialGradient r="78.92" cx="69.05" id="render-11-h" cy="112.62" xlink:href="#render-11-b" fy="112.62" fx="69.05" gradientTransform="translate(137.7 -1.18) rotate(85.93)"/></defs><g class="fills" id="fills-35b27aa9-e63a-8027-8006-675ded243a23"><ellipse cx="214.59748427672866" cy="214.08309450838374" rx="200.36972814367255" ry="200.84631175218578" transform="matrix(0.071145, -0.997466, 0.997490, 0.070806, -14.215791, 412.978441)" style="isolation: isolate; fill: url(&quot;#render-11-h&quot;);"/></g><g id="strokes-405f52c4-ec4d-8004-8007-24291530b68c-35b27aa9-e63a-8027-8006-675ded243a23" class="strokes" style="isolation: isolate; fill: url(&quot;#render-11-h&quot;);"><g class="inner-stroke-shape" transform="matrix(0.071145, -0.997466, 0.997490, 0.070806, -14.215791, 412.978441)"><defs><clipPath id="inner-stroke-render-11-35b27aa9-e63a-8027-8006-675ded243a23-0"><use href="#stroke-shape-render-11-35b27aa9-e63a-8027-8006-675ded243a23-0"/></clipPath><ellipse cx="214.59748427672866" cy="214.08309450838374" rx="200.36972814367255" ry="200.84631175218578" id="stroke-shape-render-11-35b27aa9-e63a-8027-8006-675ded243a23-0" style="fill: none; stroke-width: 10.4386; stroke: rgb(0, 0, 0); stroke-opacity: 1;"/></defs><use href="#stroke-shape-render-11-35b27aa9-e63a-8027-8006-675ded243a23-0" clip-path="url('#inner-stroke-render-11-35b27aa9-e63a-8027-8006-675ded243a23-0')"/></g></g></g><g id="shape-35b27aa9-e63a-8027-8006-675ded243a24"><defs><radialGradient cx="58.14" cy="58.79" r="65.14" id="render-12-f" fx="58.14" fy="58.79" gradientUnits="userSpaceOnUse" gradientTransform="matrix(5.219562, 0.000000, 0.000000, 5.207050, -148.147088, -167.749172)"><stop offset="0" stop-color="red"/><stop offset=".11" stop-color="#e10000"/><stop offset=".46" stop-color="#8c0000"/><stop offset=".61" stop-color="#6b0000"/><stop offset=".95" stop-color="red"/></radialGradient></defs><g class="fills" id="fills-35b27aa9-e63a-8027-8006-675ded243a24"><path d="M405.12615966796875,218.56088256835938C405.12615966796875,323.9004821777344,319.52557373046875,409.3472595214844,213.88153076171875,409.3472595214844C108.23749542236328,409.3472595214844,22.63690757751465,323.9527282714844,22.63690757751465,218.56088256835938C22.63690757751465,113.17000579833984,108.23749542236328,27.775720596313477,213.88153076171875,27.775720596313477C319.52557373046875,27.775720596313477,405.12615966796875,113.17000579833984,405.12615966796875,218.56088256835938Z" style="isolation: isolate; fill: url(&quot;#render-12-f&quot;);"/></g><g id="strokes-405f52c4-ec4d-8004-8007-242915314626-35b27aa9-e63a-8027-8006-675ded243a24" class="strokes" style="isolation: isolate; fill: url(&quot;#render-12-f&quot;);"><g class="inner-stroke-shape"><defs><clipPath id="inner-stroke-render-12-35b27aa9-e63a-8027-8006-675ded243a24-0"><use href="#stroke-shape-render-12-35b27aa9-e63a-8027-8006-675ded243a24-0"/></clipPath><path d="M405.12615966796875,218.56088256835938C405.12615966796875,323.9004821777344,319.52557373046875,409.3472595214844,213.88153076171875,409.3472595214844C108.23749542236328,409.3472595214844,22.63690757751465,323.9527282714844,22.63690757751465,218.56088256835938C22.63690757751465,113.17000579833984,108.23749542236328,27.775720596313477,213.88153076171875,27.775720596313477C319.52557373046875,27.775720596313477,405.12615966796875,113.17000579833984,405.12615966796875,218.56088256835938Z" id="stroke-shape-render-12-35b27aa9-e63a-8027-8006-675ded243a24-0" style="fill: none; stroke-width: 10.4386; stroke: rgb(0, 0, 0); stroke-opacity: 1;"/></defs><use href="#stroke-shape-render-12-35b27aa9-e63a-8027-8006-675ded243a24-0" clip-path="url('#inner-stroke-render-12-35b27aa9-e63a-8027-8006-675ded243a24-0')"/></g></g></g><g id="shape-35b27aa9-e63a-8027-8006-675ded244474" style="mix-blend-mode: screen;"><defs><linearGradient id="render-13-i" x1="31.5" y1="72.96" x2="106.74" y2="72.96" gradientTransform="matrix(1,0,0,1,0,0)" xlink:href="#render-13-a"/><linearGradient x1="115.02" y1="51.93" x2="111.1" y2="49.48" id="render-13-a" gradientTransform="matrix(5.219562, 0.000000, 0.000000, 5.207050, -148.147088, -167.749172) translate(146.92) rotate(-180) scale(1 -1)" gradientUnits="userSpaceOnUse"><stop offset=".08" stop-color="#fff"/><stop offset=".54" stop-color="#777"/><stop offset=".86" stop-color="#212121"/><stop offset="1"/></linearGradient></defs><g class="fills" id="fills-35b27aa9-e63a-8027-8006-675ded244474"><path d="M32.136661529541016,221.26840209960938C32.136661529541016,116.76375579833984,117.05927276611328,32.09725570678711,221.76312255859375,32.09725570678711C316.18475341796875,32.09725570678711,394.47821044921875,100.93318939208984,408.98846435546875,191.01620483398438C398.13275146484375,92.75936126708984,314.61932373046875,16.266931533813477,213.25506591796875,16.266931533813477C104.48017120361328,16.266931533813477,16.32098960876465,104.21468353271484,16.32098960876465,212.72836303710938C16.32098960876465,313.9024353027344,92.94403839111328,397.2149353027344,191.48968505859375,407.9932556152344C101.19135284423828,393.5179138183594,32.188907623291016,315.4129333496094,32.188907623291016,221.21591186523438Z" style="isolation: isolate; fill: url(&quot;#render-13-i&quot;);"/></g><g id="strokes-405f52c4-ec4d-8004-8007-242915323e28-35b27aa9-e63a-8027-8006-675ded244474" class="strokes" style="isolation: isolate; fill: url(&quot;#render-13-i&quot;);"><g class="inner-stroke-shape"><defs><clipPath id="inner-stroke-render-13-35b27aa9-e63a-8027-8006-675ded244474-0"><use href="#stroke-shape-render-13-35b27aa9-e63a-8027-8006-675ded244474-0"/></clipPath><path d="M32.136661529541016,221.26840209960938C32.136661529541016,116.76375579833984,117.05927276611328,32.09725570678711,221.76312255859375,32.09725570678711C316.18475341796875,32.09725570678711,394.47821044921875,100.93318939208984,408.98846435546875,191.01620483398438C398.13275146484375,92.75936126708984,314.61932373046875,16.266931533813477,213.25506591796875,16.266931533813477C104.48017120361328,16.266931533813477,16.32098960876465,104.21468353271484,16.32098960876465,212.72836303710938C16.32098960876465,313.9024353027344,92.94403839111328,397.2149353027344,191.48968505859375,407.9932556152344C101.19135284423828,393.5179138183594,32.188907623291016,315.4129333496094,32.188907623291016,221.21591186523438Z" id="stroke-shape-render-13-35b27aa9-e63a-8027-8006-675ded244474-0" style="fill: none; stroke-width: 10.4386; stroke: rgb(0, 0, 0); stroke-opacity: 1;"/></defs><use href="#stroke-shape-render-13-35b27aa9-e63a-8027-8006-675ded244474-0" clip-path="url('#inner-stroke-render-13-35b27aa9-e63a-8027-8006-675ded244474-0')"/></g></g></g><g id="shape-35b27aa9-e63a-8027-8006-675ded244475" style="opacity: 0.63; mix-blend-mode: screen;"><defs><linearGradient id="render-14-j" x1="575.28" y1="20.65" x2="650.52" y2="20.65" gradientTransform="translate(682.51 94.34) rotate(-180)" xlink:href="#render-14-a"/><linearGradient x1="115.02" y1="51.93" x2="111.1" y2="49.48" id="render-14-a" gradientTransform="matrix(5.219562, 0.000000, 0.000000, 5.207050, -148.147088, -167.749172) translate(146.92) rotate(-180) scale(1 -1)" gradientUnits="userSpaceOnUse"><stop offset=".08" stop-color="#fff"/><stop offset=".54" stop-color="#777"/><stop offset=".86" stop-color="#212121"/><stop offset="1"/></linearGradient></defs><g class="fills" id="fills-35b27aa9-e63a-8027-8006-675ded244475"><path d="M395.67840576171875,206.89779663085938C395.67840576171875,311.4024353027344,310.75653076171875,396.0701599121094,206.05218505859375,396.0701599121094C111.63056182861328,396.0701599121094,33.337100982666016,327.2325134277344,18.82684898376465,237.15097045898438C29.68329429626465,335.4080505371094,113.19599151611328,411.8992614746094,214.56024169921875,411.8992614746094C323.33563232421875,411.8992614746094,411.49432373046875,323.9527282714844,411.49432373046875,215.43612670898438C411.49432373046875,114.26375579833984,334.87127685546875,31.003259658813477,236.32611083984375,20.172693252563477C326.62371826171875,34.64828109741211,395.62713623046875,112.75472259521484,395.62713623046875,206.94857788085938Z" style="isolation: isolate; fill: url(&quot;#render-14-j&quot;);"/></g><g id="strokes-405f52c4-ec4d-8004-8007-24291532df3e-35b27aa9-e63a-8027-8006-675ded244475" class="strokes" style="isolation: isolate; fill: url(&quot;#render-14-j&quot;);"><g class="inner-stroke-shape"><defs><clipPath id="inner-stroke-render-14-35b27aa9-e63a-8027-8006-675ded244475-0"><use href="#stroke-shape-render-14-35b27aa9-e63a-8027-8006-675ded244475-0"/></clipPath><path d="M395.67840576171875,206.89779663085938C395.67840576171875,311.4024353027344,310.75653076171875,396.0701599121094,206.05218505859375,396.0701599121094C111.63056182861328,396.0701599121094,33.337100982666016,327.2325134277344,18.82684898376465,237.15097045898438C29.68329429626465,335.4080505371094,113.19599151611328,411.8992614746094,214.56024169921875,411.8992614746094C323.33563232421875,411.8992614746094,411.49432373046875,323.9527282714844,411.49432373046875,215.43612670898438C411.49432373046875,114.26375579833984,334.87127685546875,31.003259658813477,236.32611083984375,20.172693252563477C326.62371826171875,34.64828109741211,395.62713623046875,112.75472259521484,395.62713623046875,206.94857788085938Z" id="stroke-shape-render-14-35b27aa9-e63a-8027-8006-675ded244475-0" style="fill: none; stroke-width: 10.4386; stroke: rgb(0, 0, 0); stroke-opacity: 1;"/></defs><use href="#stroke-shape-render-14-35b27aa9-e63a-8027-8006-675ded244475-0" clip-path="url('#inner-stroke-render-14-35b27aa9-e63a-8027-8006-675ded244475-0')"/></g></g></g><g id="shape-35b27aa9-e63a-8027-8006-675ded253444" style="mix-blend-mode: soft-light;"><defs><radialGradient gradientUnits="userSpaceOnUse" r="35.43" cx="303.41" id="render-15-k" cy="18.16" fy="18.16" fx="303.41" gradientTransform="matrix(5.219562, 0.000000, 0.000000, 5.207050, -148.147088, -167.749172) translate(374.07 92.07) rotate(-180)"><stop offset="0" stop-color="red"/><stop offset=".48" stop-color="#ff7a00"/><stop offset=".84" stop-color="#ffd000"/><stop offset="1" stop-color="#fff200"/></radialGradient></defs><g class="fills" id="fills-35b27aa9-e63a-8027-8006-675ded253444"><path d="M284.71160888671875,55.89242172241211C285.75457763671875,57.14168930053711,286.27703857421875,57.87093734741211,286.27703857421875,57.87093734741211C286.27703857421875,57.87093734741211,285.75457763671875,57.09066390991211,284.71160888671875,55.89242172241211ZM160.01580810546875,94.37337493896484C158.44989013671875,104.78694915771484,168.83709716796875,119.15901947021484,174.73504638671875,100.62215423583984C180.63299560546875,82.08431243896484,180.89398193359375,57.71541976928711,202.92059326171875,46.62484359741211C224.99969482421875,35.53402328491211,242.79803466796875,33.81454086303711,261.48406982421875,41.00033187866211C275.00262451171875,46.20760726928711,281.89227294921875,52.66488265991211,284.65936279296875,55.84017562866211C277.24725341796875,46.93709945678711,244.20770263671875,12.309901237487793,198.22283935546875,38.08480453491211C145.81854248046875,67.50447845458984,161.58172607421875,31.368005752563477,156.46649169921875,71.56600189208984C151.35125732421875,111.81624603271484,159.96405029296875,94.32088470458984,159.96405029296875,94.32088470458984ZM399.12371826171875,195.44247436523438C386.33587646484375,138.00790405273438,369.68572998046875,116.34676361083984,369.68572998046875,116.34676361083984C369.68572998046875,116.34676361083984,397.81903076171875,171.22885131835938,390.14617919921875,221.00839233398438C382.47332763671875,270.7876892089844,350.37322998046875,273.4429626464844,349.22503662109375,286.0967712402344C348.02459716796875,298.7500915527344,360.76043701171875,301.4056091308594,370.99041748046875,295.0530700683594C370.99041748046875,295.0530700683594,411.91229248046875,252.92782592773438,399.12371826171875,195.49349975585938ZM282.15301513671875,81.45955657958984C230.63616943359375,72.24300384521484,167.32293701171875,104.47469329833984,123.00873565673828,158.94003295898438C140.75579833984375,128.16659545898438,123.53095245361328,79.06453704833984,121.70404815673828,84.27181243896484C95.81488800048828,158.10775756835938,55.572452545166016,157.58627319335938,45.238224029541016,181.17489624023438C31.56317710876465,212.36508178710938,43.776309967041016,249.43881225585938,72.48358917236328,264.5396423339844C58.182315826416016,340.0940856933594,129.79412841796875,391.3826599121094,173.79559326171875,391.3826599121094C217.79608154296875,391.3826599121094,181.57244873046875,329.4710388183594,181.57244873046875,264.3306579589844C181.57244873046875,199.19027709960938,175.15228271484375,118.84676361083984,282.04949951171875,81.45955657958984ZM355.54022216796875,190.23495483398438C268.58221435546875,227.25741577148438,255.22064208984375,236.88949584960938,227.60882568359375,265.5291442871094C194.36053466796875,299.9996032714844,196.44842529296875,361.1814880371094,213.93377685546875,386.3318786621094C231.47137451171875,411.5345153808594,270.77484130859375,411.7422790527344,301.77850341796875,386.8533630371094C346.66766357421875,350.7679138183594,280.06610107421875,278.2859802246094,355.54022216796875,190.23495483398438Z" style="isolation: isolate; fill: url(&quot;#render-15-k&quot;);"/></g><g id="strokes-405f52c4-ec4d-8004-8007-242915343760-35b27aa9-e63a-8027-8006-675ded253444" class="strokes" style="isolation: isolate; fill: url(&quot;#render-15-k&quot;);"><g class="inner-stroke-shape"><defs><clipPath id="inner-stroke-render-15-35b27aa9-e63a-8027-8006-675ded253444-0"><use href="#stroke-shape-render-15-35b27aa9-e63a-8027-8006-675ded253444-0"/></clipPath><path d="M284.71160888671875,55.89242172241211C285.75457763671875,57.14168930053711,286.27703857421875,57.87093734741211,286.27703857421875,57.87093734741211C286.27703857421875,57.87093734741211,285.75457763671875,57.09066390991211,284.71160888671875,55.89242172241211ZM160.01580810546875,94.37337493896484C158.44989013671875,104.78694915771484,168.83709716796875,119.15901947021484,174.73504638671875,100.62215423583984C180.63299560546875,82.08431243896484,180.89398193359375,57.71541976928711,202.92059326171875,46.62484359741211C224.99969482421875,35.53402328491211,242.79803466796875,33.81454086303711,261.48406982421875,41.00033187866211C275.00262451171875,46.20760726928711,281.89227294921875,52.66488265991211,284.65936279296875,55.84017562866211C277.24725341796875,46.93709945678711,244.20770263671875,12.309901237487793,198.22283935546875,38.08480453491211C145.81854248046875,67.50447845458984,161.58172607421875,31.368005752563477,156.46649169921875,71.56600189208984C151.35125732421875,111.81624603271484,159.96405029296875,94.32088470458984,159.96405029296875,94.32088470458984ZM399.12371826171875,195.44247436523438C386.33587646484375,138.00790405273438,369.68572998046875,116.34676361083984,369.68572998046875,116.34676361083984C369.68572998046875,116.34676361083984,397.81903076171875,171.22885131835938,390.14617919921875,221.00839233398438C382.47332763671875,270.7876892089844,350.37322998046875,273.4429626464844,349.22503662109375,286.0967712402344C348.02459716796875,298.7500915527344,360.76043701171875,301.4056091308594,370.99041748046875,295.0530700683594C370.99041748046875,295.0530700683594,411.91229248046875,252.92782592773438,399.12371826171875,195.49349975585938ZM282.15301513671875,81.45955657958984C230.63616943359375,72.24300384521484,167.32293701171875,104.47469329833984,123.00873565673828,158.94003295898438C140.75579833984375,128.16659545898438,123.53095245361328,79.06453704833984,121.70404815673828,84.27181243896484C95.81488800048828,158.10775756835938,55.572452545166016,157.58627319335938,45.238224029541016,181.17489624023438C31.56317710876465,212.36508178710938,43.776309967041016,249.43881225585938,72.48358917236328,264.5396423339844C58.182315826416016,340.0940856933594,129.79412841796875,391.3826599121094,173.79559326171875,391.3826599121094C217.79608154296875,391.3826599121094,181.57244873046875,329.4710388183594,181.57244873046875,264.3306579589844C181.57244873046875,199.19027709960938,175.15228271484375,118.84676361083984,282.04949951171875,81.45955657958984ZM355.54022216796875,190.23495483398438C268.58221435546875,227.25741577148438,255.22064208984375,236.88949584960938,227.60882568359375,265.5291442871094C194.36053466796875,299.9996032714844,196.44842529296875,361.1814880371094,213.93377685546875,386.3318786621094C231.47137451171875,411.5345153808594,270.77484130859375,411.7422790527344,301.77850341796875,386.8533630371094C346.66766357421875,350.7679138183594,280.06610107421875,278.2859802246094,355.54022216796875,190.23495483398438Z" id="stroke-shape-render-15-35b27aa9-e63a-8027-8006-675ded253444-0" style="fill: none; stroke-width: 10.4386; stroke: rgb(0, 0, 0); stroke-opacity: 1;"/></defs><use href="#stroke-shape-render-15-35b27aa9-e63a-8027-8006-675ded253444-0" clip-path="url('#inner-stroke-render-15-35b27aa9-e63a-8027-8006-675ded253444-0')"/></g></g></g><g id="shape-35b27aa9-e63a-8027-8006-675ded253445" style="mix-blend-mode: screen;"><defs><linearGradient id="render-16-l" x1="69.61" y1="36.25" x2="69.61" y2="75.26" gradientTransform="matrix(1,0,0,1,0,0)" xlink:href="#render-16-a"/><linearGradient x1="115.02" y1="51.93" x2="111.1" y2="49.48" id="render-16-a" gradientTransform="matrix(5.219562, 0.000000, 0.000000, 5.207050, -148.147088, -167.749172) translate(146.92) rotate(-180) scale(1 -1)" gradientUnits="userSpaceOnUse"><stop offset=".08" stop-color="#fff"/><stop offset=".54" stop-color="#777"/><stop offset=".86" stop-color="#212121"/><stop offset="1"/></linearGradient></defs><g class="fills" id="fills-35b27aa9-e63a-8027-8006-675ded253445"><path d="M388.47625732421875,167.06405639648438C388.47625732421875,246.10629272460938,336.33221435546875,74.11702728271484,164.92230224609375,139.20492553710938C99.25995635986328,164.14730834960938,41.793155670166016,246.10629272460938,41.793155670166016,167.06405639648438C41.793155670166016,88.02083587646484,119.40790557861328,23.921716690063477,215.13397216796875,23.921716690063477C310.86102294921875,23.921716690063477,388.47625732421875,88.02083587646484,388.47625732421875,167.06405639648438Z"/></g><g id="strokes-405f52c4-ec4d-8004-8007-24291534eea5-35b27aa9-e63a-8027-8006-675ded253445" class="strokes"><g class="inner-stroke-shape"><defs><clipPath id="inner-stroke-render-16-35b27aa9-e63a-8027-8006-675ded253445-0"><use href="#stroke-shape-render-16-35b27aa9-e63a-8027-8006-675ded253445-0"/></clipPath><path d="M388.47625732421875,167.06405639648438C388.47625732421875,246.10629272460938,336.33221435546875,74.11702728271484,164.92230224609375,139.20492553710938C99.25995635986328,164.14730834960938,41.793155670166016,246.10629272460938,41.793155670166016,167.06405639648438C41.793155670166016,88.02083587646484,119.40790557861328,23.921716690063477,215.13397216796875,23.921716690063477C310.86102294921875,23.921716690063477,388.47625732421875,88.02083587646484,388.47625732421875,167.06405639648438Z" id="stroke-shape-render-16-35b27aa9-e63a-8027-8006-675ded253445-0" style="fill: none; stroke-width: 10.4386; stroke: rgb(0, 0, 0); stroke-opacity: 1;"/></defs><use href="#stroke-shape-render-16-35b27aa9-e63a-8027-8006-675ded253445-0" clip-path="url('#inner-stroke-render-16-35b27aa9-e63a-8027-8006-675ded253445-0')"/></g></g></g><g id="shape-35b27aa9-e63a-8027-8006-675ded25628d" style="opacity: 0.15;"><defs><radialGradient gradientUnits="userSpaceOnUse" r="56.48" cx="44.73" id="render-17-b" cy="23.91" fy="23.91" fx="44.73" gradientTransform="matrix(5.219562, 0.000000, 0.000000, 5.207050, -148.147088, -167.749172) translate(128) rotate(-180) scale(1 -1)"><stop offset=".36" stop-color="#ff2f00"/><stop offset=".5" stop-color="#fff"/><stop offset=".56" stop-color="#ffb700"/><stop offset=".62" stop-color="#ff8700"/><stop offset=".74" stop-color="#ff3200"/><stop offset=".79" stop-color="#f10"/><stop offset=".94" stop-color="#7c0000"/><stop offset="1" stop-color="#eb0000"/></radialGradient><radialGradient r="108.08" cx="150.1" id="render-17-m" cy="-615.95" xlink:href="#render-17-b" fy="-615.95" fx="150.1" gradientTransform="translate(639.71 70.96) rotate(-119.63) scale(.82 .73) skewX(-25.15)"/></defs><g class="fills" id="fills-35b27aa9-e63a-8027-8006-675ded25628d"><path d="M225.83465576171875,35.68978500366211C239.19647216796875,22.359216690063477,318.48162841796875,48.60311508178711,348.85931396484375,65.57820892333984C361.17742919921875,72.45223236083984,363.57879638671875,91.40560150146484,354.34002685546875,107.80696868896484C345.10174560546875,124.20955657958984,323.90960693359375,136.18515014648438,315.29779052734375,125.04207611083984C262.16253662109375,56.25692367553711,218.99652099609375,42.51107406616211,225.83465576171875,35.68978500366211Z" style="isolation: isolate; fill: url(&quot;#render-17-m&quot;);"/></g><g id="strokes-405f52c4-ec4d-8004-8007-24291535f430-35b27aa9-e63a-8027-8006-675ded25628d" class="strokes" style="isolation: isolate; fill: url(&quot;#render-17-m&quot;);"><g class="inner-stroke-shape"><defs><clipPath id="inner-stroke-render-17-35b27aa9-e63a-8027-8006-675ded25628d-0"><use href="#stroke-shape-render-17-35b27aa9-e63a-8027-8006-675ded25628d-0"/></clipPath><path d="M225.83465576171875,35.68978500366211C239.19647216796875,22.359216690063477,318.48162841796875,48.60311508178711,348.85931396484375,65.57820892333984C361.17742919921875,72.45223236083984,363.57879638671875,91.40560150146484,354.34002685546875,107.80696868896484C345.10174560546875,124.20955657958984,323.90960693359375,136.18515014648438,315.29779052734375,125.04207611083984C262.16253662109375,56.25692367553711,218.99652099609375,42.51107406616211,225.83465576171875,35.68978500366211Z" id="stroke-shape-render-17-35b27aa9-e63a-8027-8006-675ded25628d-0" style="fill: none; stroke-width: 10.4386; stroke: rgb(0, 0, 0); stroke-opacity: 1;"/></defs><use href="#stroke-shape-render-17-35b27aa9-e63a-8027-8006-675ded25628d-0" clip-path="url('#inner-stroke-render-17-35b27aa9-e63a-8027-8006-675ded25628d-0')"/></g></g></g><g id="shape-35b27aa9-e63a-8027-8006-675ded261c5e" style="mix-blend-mode: screen;"><defs><radialGradient r="8.03" cx="118.11" id="render-18-v" cy="46.31" xlink:href="#render-18-d" fy="46.31" fx="118.11" gradientTransform="translate(12.24 -68.52) rotate(40.94) scale(.92 1.52)"/><radialGradient gradientUnits="userSpaceOnUse" r="8.02" cx="1675.15" id="render-18-d" cy="-144.68" fy="-144.68" fx="1675.15" gradientTransform="matrix(5.219562, 0.000000, 0.000000, 5.207050, -148.147088, -167.749172) translate(-215.18 -194.12) rotate(58.47) scale(.22 1)"><stop offset=".26" stop-color="#fff"/><stop offset=".38" stop-color="#afafaf"/><stop offset="1"/></radialGradient></defs><g class="fills" id="fills-35b27aa9-e63a-8027-8006-675ded261c5e"><path d="M136.94549560546875,151.23397827148438C110.58612823486328,181.53817749023438,74.36249542236328,193.15145874023438,55.937686920166016,177.26889038085938C37.512393951416016,161.33529663085938,43.985050201416016,123.89730072021484,70.29145050048828,93.59163665771484C96.65009307861328,63.28744125366211,132.87371826171875,51.67538070678711,151.29949951171875,67.55672454833984C169.72430419921875,83.49031829833984,163.25213623046875,120.92830657958984,136.94549560546875,151.23397827148438Z" style="isolation: isolate; fill: url(&quot;#render-18-v&quot;);"/></g><g id="strokes-405f52c4-ec4d-8004-8007-242915364932-35b27aa9-e63a-8027-8006-675ded261c5e" class="strokes" style="isolation: isolate; fill: url(&quot;#render-18-v&quot;);"><g class="inner-stroke-shape"><defs><clipPath id="inner-stroke-render-18-35b27aa9-e63a-8027-8006-675ded261c5e-0"><use href="#stroke-shape-render-18-35b27aa9-e63a-8027-8006-675ded261c5e-0"/></clipPath><path d="M136.94549560546875,151.23397827148438C110.58612823486328,181.53817749023438,74.36249542236328,193.15145874023438,55.937686920166016,177.26889038085938C37.512393951416016,161.33529663085938,43.985050201416016,123.89730072021484,70.29145050048828,93.59163665771484C96.65009307861328,63.28744125366211,132.87371826171875,51.67538070678711,151.29949951171875,67.55672454833984C169.72430419921875,83.49031829833984,163.25213623046875,120.92830657958984,136.94549560546875,151.23397827148438Z" id="stroke-shape-render-18-35b27aa9-e63a-8027-8006-675ded261c5e-0" style="fill: none; stroke-width: 10.4386; stroke: rgb(0, 0, 0); stroke-opacity: 1;"/></defs><use href="#stroke-shape-render-18-35b27aa9-e63a-8027-8006-675ded261c5e-0" clip-path="url('#inner-stroke-render-18-35b27aa9-e63a-8027-8006-675ded261c5e-0')"/></g></g></g><g id="shape-35b27aa9-e63a-8027-8006-675ded261c5f" style="mix-blend-mode: screen;"><defs><radialGradient r="5.51" cx="103.31" id="render-19-w" cy="52.4" xlink:href="#render-19-d" fy="52.4" fx="103.31" gradientTransform="translate(-4.26 -49.86) rotate(27.23) scale(.92 1.52)"/><radialGradient gradientUnits="userSpaceOnUse" r="8.02" cx="1675.15" id="render-19-d" cy="-144.68" fy="-144.68" fx="1675.15" gradientTransform="matrix(5.219562, 0.000000, 0.000000, 5.207050, -148.147088, -167.749172) translate(-215.18 -194.12) rotate(58.47) scale(.22 1)"><stop offset=".26" stop-color="#fff"/><stop offset=".38" stop-color="#afafaf"/><stop offset="1"/></radialGradient></defs><g class="fills" id="fills-35b27aa9-e63a-8027-8006-675ded261c5f"><path d="M107.55878448486328,180.86141967773438C94.92743682861328,205.33480834960938,72.64057159423828,218.97738647460938,57.764347076416016,211.37606811523438C42.888858795166016,203.72103881835938,41.061954498291016,177.68612670898438,53.693302154541016,153.21224975585938C66.32489776611328,128.73886108398438,88.61225128173828,115.09627532958984,103.48773956298828,122.69905853271484C118.36396026611328,130.35409545898438,120.19086456298828,156.38900756835938,107.55878448486328,180.86141967773438Z" style="isolation: isolate; fill: url(&quot;#render-19-w&quot;);"/></g><g id="strokes-405f52c4-ec4d-8004-8007-242915372227-35b27aa9-e63a-8027-8006-675ded261c5f" class="strokes" style="isolation: isolate; fill: url(&quot;#render-19-w&quot;);"><g class="inner-stroke-shape"><defs><clipPath id="inner-stroke-render-19-35b27aa9-e63a-8027-8006-675ded261c5f-0"><use href="#stroke-shape-render-19-35b27aa9-e63a-8027-8006-675ded261c5f-0"/></clipPath><path d="M107.55878448486328,180.86141967773438C94.92743682861328,205.33480834960938,72.64057159423828,218.97738647460938,57.764347076416016,211.37606811523438C42.888858795166016,203.72103881835938,41.061954498291016,177.68612670898438,53.693302154541016,153.21224975585938C66.32489776611328,128.73886108398438,88.61225128173828,115.09627532958984,103.48773956298828,122.69905853271484C118.36396026611328,130.35409545898438,120.19086456298828,156.38900756835938,107.55878448486328,180.86141967773438Z" id="stroke-shape-render-19-35b27aa9-e63a-8027-8006-675ded261c5f-0" style="fill: none; stroke-width: 10.4386; stroke: rgb(0, 0, 0); stroke-opacity: 1;"/></defs><use href="#stroke-shape-render-19-35b27aa9-e63a-8027-8006-675ded261c5f-0" clip-path="url('#inner-stroke-render-19-35b27aa9-e63a-8027-8006-675ded261c5f-0')"/></g></g></g><g id="shape-35b27aa9-e63a-8027-8006-675ded266d50" style="mix-blend-mode: screen;"><defs><linearGradient x1="171.09" y1="129.09" x2="227.46" y2="180.87" id="render-20-x" gradientTransform="matrix(5.219562, 0.000000, 0.000000, 5.207050, -148.147088, -167.749172) translate(229.41 -131.08) rotate(90)" gradientUnits="userSpaceOnUse"><stop offset="0" stop-color="#34b3d1"/><stop offset=".17" stop-color="#fff"/><stop offset=".33" stop-color="#fdbf6f"/><stop offset=".43" stop-color="#ffff7f"/><stop offset=".5" stop-color="#673920"/><stop offset=".65" stop-color="#b55004"/><stop offset="1" stop-color="#4e0901"/></linearGradient></defs><g class="fills" id="fills-35b27aa9-e63a-8027-8006-675ded266d50"><path d="M408.93621826171875,214.70809936523438C408.93621826171875,198.25326538085938,406.84881591796875,182.26742553710938,402.98602294921875,167.01205444335938C403.09051513671875,169.51058959960938,403.19549560546875,172.01058959960938,403.19549560546875,174.50912475585938C403.19549560546875,255.89559936523438,337.06317138671875,321.9219665527344,255.48162841796875,321.9219665527344C173.89984130859375,321.9219665527344,107.71601104736328,255.94760131835938,107.71601104736328,174.50912475585938C107.71601104736328,93.07186126708984,173.84710693359375,27.098718643188477,255.48162841796875,27.098718643188477C257.98724365234375,27.098718643188477,260.49285888671875,27.149744033813477,262.99774169921875,27.306726455688477C247.70428466796875,23.452966690063477,231.68060302734375,21.369714736938477,215.18621826171875,21.369714736938477C108.18524932861328,21.369714736938477,21.38397789001465,107.91170501708984,21.38397789001465,214.70809936523438C21.38397789001465,321.5037536621094,108.13349151611328,408.0455017089844,215.18621826171875,408.0455017089844C322.23992919921875,408.0455017089844,408.98846435546875,321.5037536621094,408.98846435546875,214.70809936523438Z" style="isolation: isolate; fill: url(&quot;#render-20-x&quot;);"/></g><g id="strokes-405f52c4-ec4d-8004-8007-242915379019-35b27aa9-e63a-8027-8006-675ded266d50" class="strokes" style="isolation: isolate; fill: url(&quot;#render-20-x&quot;);"><g class="inner-stroke-shape"><defs><clipPath id="inner-stroke-render-20-35b27aa9-e63a-8027-8006-675ded266d50-0"><use href="#stroke-shape-render-20-35b27aa9-e63a-8027-8006-675ded266d50-0"/></clipPath><path d="M408.93621826171875,214.70809936523438C408.93621826171875,198.25326538085938,406.84881591796875,182.26742553710938,402.98602294921875,167.01205444335938C403.09051513671875,169.51058959960938,403.19549560546875,172.01058959960938,403.19549560546875,174.50912475585938C403.19549560546875,255.89559936523438,337.06317138671875,321.9219665527344,255.48162841796875,321.9219665527344C173.89984130859375,321.9219665527344,107.71601104736328,255.94760131835938,107.71601104736328,174.50912475585938C107.71601104736328,93.07186126708984,173.84710693359375,27.098718643188477,255.48162841796875,27.098718643188477C257.98724365234375,27.098718643188477,260.49285888671875,27.149744033813477,262.99774169921875,27.306726455688477C247.70428466796875,23.452966690063477,231.68060302734375,21.369714736938477,215.18621826171875,21.369714736938477C108.18524932861328,21.369714736938477,21.38397789001465,107.91170501708984,21.38397789001465,214.70809936523438C21.38397789001465,321.5037536621094,108.13349151611328,408.0455017089844,215.18621826171875,408.0455017089844C322.23992919921875,408.0455017089844,408.98846435546875,321.5037536621094,408.98846435546875,214.70809936523438Z" id="stroke-shape-render-20-35b27aa9-e63a-8027-8006-675ded266d50-0" style="fill: none; stroke-width: 10.4386; stroke: rgb(0, 0, 0); stroke-opacity: 1;"/></defs><use href="#stroke-shape-render-20-35b27aa9-e63a-8027-8006-675ded266d50-0" clip-path="url('#inner-stroke-render-20-35b27aa9-e63a-8027-8006-675ded266d50-0')"/></g></g></g><g id="shape-35b27aa9-e63a-8027-8006-675ded266d52"><defs><mask y1="-22.83695853644886" width="466.8897937311802" maskUnits="userSpaceOnUse" x1="-74.23809410822014" height="426.197076602537" x="-74.23809410822014" id="render-21-y" data-old-y="-22.83695853644886" data-old-width="466.8897937311802" data-old-x="-74.23809410822014" y="-22.83695853644886" x2="392.65169962296005" y2="403.36011806608815" data-old-height="426.197076602537"><g class="svg-mask-wrapper" transform="matrix(5.219562, 0.000000, 0.000000, 5.207050, -148.147088, -167.749172)"><rect x="14.16" y="27.83" width="89.45" height="81.85" style="fill: url(&quot;#render-21-e&quot;);"/></g></mask><radialGradient r="60.67" cx="47.92" id="render-21-z" cy="52.6" xlink:href="#render-21-f" fy="52.6" fx="47.92" gradientTransform="translate(7.89 3.1) scale(1.01 1.03)"/><radialGradient gradientUnits="userSpaceOnUse" r="52.03" cx="53.56" id="render-21-e" cy="98.16" fy="98.16" fx="53.56" gradientTransform="matrix(5.219562, 0.000000, 0.000000, 5.207050, -148.147088, -167.749172) translate(-6.41) scale(.87 1)"><stop offset="0" stop-color="#fff"/><stop offset="1"/></radialGradient><radialGradient cx="58.14" cy="58.79" r="65.14" id="render-21-f" fx="58.14" fy="58.79" gradientUnits="userSpaceOnUse" gradientTransform="matrix(5.219562, 0.000000, 0.000000, 5.207050, -148.147088, -167.749172)"><stop offset="0" stop-color="red"/><stop offset=".11" stop-color="#e10000"/><stop offset=".46" stop-color="#8c0000"/><stop offset=".61" stop-color="#6b0000"/><stop offset=".95" stop-color="red"/></radialGradient></defs><g class="fills" id="fills-35b27aa9-e63a-8027-8006-675ded266d52"><path d="M219.15350341796875,387.4258728027344C116.32831573486328,387.4258728027344,32.971378326416016,302.5501403808594,32.971378326416016,197.83651733398438C32.971378326416016,117.90828704833984,81.56610870361328,49.54012680053711,150.30780029296875,21.682214736938477C76.71112823486328,47.92635726928711,23.94159507751465,119.21004486083984,23.94159507751465,203.09628295898438C23.94159507751465,309.2684020996094,108.44696807861328,395.2886657714844,212.73333740234375,395.2886657714844C280.32635498046875,395.2886657714844,339.62030029296875,359.0999450683594,372.97381591796875,304.7376403808594C339.46453857421875,354.6736755371094,283.09344482421875,387.4258728027344,219.15350341796875,387.4258728027344Z" style="isolation: isolate; mask: url(&quot;#render-21-y&quot;); fill: url(&quot;#render-21-z&quot;);"/></g><g id="strokes-405f52c4-ec4d-8004-8007-24291538fcdb-35b27aa9-e63a-8027-8006-675ded266d52" class="strokes" style="isolation: isolate; mask: url(&quot;#render-21-y&quot;); fill: url(&quot;#render-21-z&quot;);"><g class="inner-stroke-shape"><defs><clipPath id="inner-stroke-render-21-35b27aa9-e63a-8027-8006-675ded266d52-0"><use href="#stroke-shape-render-21-35b27aa9-e63a-8027-8006-675ded266d52-0"/></clipPath><path d="M219.15350341796875,387.4258728027344C116.32831573486328,387.4258728027344,32.971378326416016,302.5501403808594,32.971378326416016,197.83651733398438C32.971378326416016,117.90828704833984,81.56610870361328,49.54012680053711,150.30780029296875,21.682214736938477C76.71112823486328,47.92635726928711,23.94159507751465,119.21004486083984,23.94159507751465,203.09628295898438C23.94159507751465,309.2684020996094,108.44696807861328,395.2886657714844,212.73333740234375,395.2886657714844C280.32635498046875,395.2886657714844,339.62030029296875,359.0999450683594,372.97381591796875,304.7376403808594C339.46453857421875,354.6736755371094,283.09344482421875,387.4258728027344,219.15350341796875,387.4258728027344Z" id="stroke-shape-render-21-35b27aa9-e63a-8027-8006-675ded266d52-0" style="fill: none; stroke-width: 10.4386; stroke: rgb(0, 0, 0); stroke-opacity: 1;"/></defs><use href="#stroke-shape-render-21-35b27aa9-e63a-8027-8006-675ded266d52-0" clip-path="url('#inner-stroke-render-21-35b27aa9-e63a-8027-8006-675ded266d52-0')"/></g></g></g></g><g id="shape-7493bc2f-f59f-805f-8006-675fdebc9100" rx="0" ry="0"><g id="shape-35b27aa9-e63a-8027-8006-675ded26bcde" style="mix-blend-mode: screen;"><defs><linearGradient id="render-23-B" x1="105.09" y1="51.01" x2="101.91" y2="48.81" gradientTransform="matrix(1,0,0,1,0,0)" xlink:href="#render-23-a"/><linearGradient x1="115.02" y1="51.93" x2="111.1" y2="49.48" id="render-23-a" gradientTransform="matrix(5.219562, 0.000000, 0.000000, 5.207050, -148.147088, -167.749172) translate(146.92) rotate(-180) scale(1 -1)" gradientUnits="userSpaceOnUse"><stop offset=".08" stop-color="#fff"/><stop offset=".54" stop-color="#777"/><stop offset=".86" stop-color="#212121"/><stop offset="1"/></linearGradient></defs><g class="fills" id="fills-35b27aa9-e63a-8027-8006-675ded26bcde"><path d="M415.77459716796875,20.745447158813477C411.75506591796875,43.96932601928711,398.39276123046875,66.87996673583984,376.83612060546875,83.54256439208984C351.78289794921875,102.91292572021484,321.30023193359375,109.52547454833984,294.88934326171875,103.84993743896484C298.59490966796875,109.10970306396484,303.08367919921875,114.41927337646484,308.19940185546875,119.52352142333984C330.43426513671875,141.70492553710938,356.53192138671875,151.59848022460938,366.50115966796875,141.65292358398438C375.84442138671875,132.33261108398438,427.30926513671875,49.59261703491211,415.82684326171875,20.692956924438477Z" style="isolation: isolate; fill: url(&quot;#render-23-B&quot;);"/></g><g id="strokes-405f52c4-ec4d-8004-8007-24291539898a-35b27aa9-e63a-8027-8006-675ded26bcde" class="strokes" style="isolation: isolate; fill: url(&quot;#render-23-B&quot;);"><g class="inner-stroke-shape"><defs><clipPath id="inner-stroke-render-23-35b27aa9-e63a-8027-8006-675ded26bcde-0"><use href="#stroke-shape-render-23-35b27aa9-e63a-8027-8006-675ded26bcde-0"/></clipPath><path d="M415.77459716796875,20.745447158813477C411.75506591796875,43.96932601928711,398.39276123046875,66.87996673583984,376.83612060546875,83.54256439208984C351.78289794921875,102.91292572021484,321.30023193359375,109.52547454833984,294.88934326171875,103.84993743896484C298.59490966796875,109.10970306396484,303.08367919921875,114.41927337646484,308.19940185546875,119.52352142333984C330.43426513671875,141.70492553710938,356.53192138671875,151.59848022460938,366.50115966796875,141.65292358398438C375.84442138671875,132.33261108398438,427.30926513671875,49.59261703491211,415.82684326171875,20.692956924438477Z" id="stroke-shape-render-23-35b27aa9-e63a-8027-8006-675ded26bcde-0" style="fill: none; stroke-width: 10.4386; stroke: rgb(0, 0, 0); stroke-opacity: 1;"/></defs><use href="#stroke-shape-render-23-35b27aa9-e63a-8027-8006-675ded26bcde-0" clip-path="url('#inner-stroke-render-23-35b27aa9-e63a-8027-8006-675ded26bcde-0')"/></g></g></g><g id="shape-35b27aa9-e63a-8027-8006-675ded25628e"><defs><radialGradient id="render-24-n" cx="55.58" fx="55.58" r="56.48" gradientTransform="matrix(1,0,0,1,0,0)" xlink:href="#render-24-b"/><radialGradient gradientUnits="userSpaceOnUse" r="56.48" cx="44.73" id="render-24-b" cy="23.91" fy="23.91" fx="44.73" gradientTransform="matrix(5.219562, 0.000000, 0.000000, 5.207050, -148.147088, -167.749172) translate(128) rotate(-180) scale(1 -1)"><stop offset=".36" stop-color="#ff2f00"/><stop offset=".5" stop-color="#fff"/><stop offset=".56" stop-color="#ffb700"/><stop offset=".62" stop-color="#ff8700"/><stop offset=".74" stop-color="#ff3200"/><stop offset=".79" stop-color="#f10"/><stop offset=".94" stop-color="#7c0000"/><stop offset="1" stop-color="#eb0000"/></radialGradient></defs><g class="fills" id="fills-35b27aa9-e63a-8027-8006-675ded25628e"><path d="M414.31268310546875,15.537684440612793C437.43475341796875,38.60506820678711,376.88836669921875,136.34164428710938,366.55389404296875,146.70346069335938C356.16693115234375,157.06625366210938,329.02508544921875,146.70346069335938,305.95477294921875,123.68831634521484C282.83172607421875,100.62215423583984,272.49676513671875,73.54451751708984,282.88397216796875,63.23519515991211C293.27117919921875,52.87240219116211,391.24237060546875,-7.477452278137207,414.36492919921875,15.589930534362793Z" style="isolation: isolate; fill: url(&quot;#render-24-n&quot;);"/></g><g id="strokes-405f52c4-ec4d-8004-8007-2429153a546e-35b27aa9-e63a-8027-8006-675ded25628e" class="strokes" style="isolation: isolate; fill: url(&quot;#render-24-n&quot;);"><g class="inner-stroke-shape"><defs><clipPath id="inner-stroke-render-24-35b27aa9-e63a-8027-8006-675ded25628e-0"><use href="#stroke-shape-render-24-35b27aa9-e63a-8027-8006-675ded25628e-0"/></clipPath><path d="M414.31268310546875,15.537684440612793C437.43475341796875,38.60506820678711,376.88836669921875,136.34164428710938,366.55389404296875,146.70346069335938C356.16693115234375,157.06625366210938,329.02508544921875,146.70346069335938,305.95477294921875,123.68831634521484C282.83172607421875,100.62215423583984,272.49676513671875,73.54451751708984,282.88397216796875,63.23519515991211C293.27117919921875,52.87240219116211,391.24237060546875,-7.477452278137207,414.36492919921875,15.589930534362793Z" id="stroke-shape-render-24-35b27aa9-e63a-8027-8006-675ded25628e-0" style="fill: none; stroke-width: 10.4386; stroke: rgb(0, 0, 0); stroke-opacity: 1;"/></defs><use href="#stroke-shape-render-24-35b27aa9-e63a-8027-8006-675ded25628e-0" clip-path="url('#inner-stroke-render-24-35b27aa9-e63a-8027-8006-675ded25628e-0')"/></g></g></g><g id="shape-35b27aa9-e63a-8027-8006-675ded2599ff" style="mix-blend-mode: screen;"><defs><linearGradient id="render-25-o" x1="85.97" y1="37.64" x2="97.24" y2="45.73" gradientTransform="matrix(1,0,0,1,0,0)" xlink:href="#render-25-a"/><linearGradient x1="115.02" y1="51.93" x2="111.1" y2="49.48" id="render-25-a" gradientTransform="matrix(5.219562, 0.000000, 0.000000, 5.207050, -148.147088, -167.749172) translate(146.92) rotate(-180) scale(1 -1)" gradientUnits="userSpaceOnUse"><stop offset=".08" stop-color="#fff"/><stop offset=".54" stop-color="#777"/><stop offset=".86" stop-color="#212121"/><stop offset="1"/></linearGradient></defs><g class="fills" id="fills-35b27aa9-e63a-8027-8006-675ded2599ff"><path d="M412.38153076171875,18.037683486938477C434.61688232421875,40.21883773803711,376.41888427734375,134.25888061523438,366.44915771484375,144.20492553710938C356.48065185546875,154.14950561523438,330.38250732421875,144.20492553710938,308.14715576171875,122.07454681396484C285.91180419921875,99.89315032958984,275.99432373046875,73.85677337646484,285.96405029296875,63.91219711303711C295.93280029296875,53.96639633178711,390.19842529296875,-4.091465950012207,412.43377685546875,18.089929580688477Z" style="isolation: isolate; fill: url(&quot;#render-25-o&quot;);"/></g><g id="strokes-405f52c4-ec4d-8004-8007-2429153adafc-35b27aa9-e63a-8027-8006-675ded2599ff" class="strokes" style="isolation: isolate; fill: url(&quot;#render-25-o&quot;);"><g class="inner-stroke-shape"><defs><clipPath id="inner-stroke-render-25-35b27aa9-e63a-8027-8006-675ded2599ff-0"><use href="#stroke-shape-render-25-35b27aa9-e63a-8027-8006-675ded2599ff-0"/></clipPath><path d="M412.38153076171875,18.037683486938477C434.61688232421875,40.21883773803711,376.41888427734375,134.25888061523438,366.44915771484375,144.20492553710938C356.48065185546875,154.14950561523438,330.38250732421875,144.20492553710938,308.14715576171875,122.07454681396484C285.91180419921875,99.89315032958984,275.99432373046875,73.85677337646484,285.96405029296875,63.91219711303711C295.93280029296875,53.96639633178711,390.19842529296875,-4.091465950012207,412.43377685546875,18.089929580688477Z" id="stroke-shape-render-25-35b27aa9-e63a-8027-8006-675ded2599ff-0" style="fill: none; stroke-width: 10.4386; stroke: rgb(0, 0, 0); stroke-opacity: 1;"/></defs><use href="#stroke-shape-render-25-35b27aa9-e63a-8027-8006-675ded2599ff-0" clip-path="url('#inner-stroke-render-25-35b27aa9-e63a-8027-8006-675ded2599ff-0')"/></g></g></g><g id="shape-35b27aa9-e63a-8027-8006-675ded259a01" style="mix-blend-mode: screen;"><defs><linearGradient id="render-26-q" x1="82.66" x2="107.56" gradientTransform="matrix(1,0,0,1,0,0)" xlink:href="#render-26-c"/><linearGradient x1="3.78" y1="42.82" x2="28.67" y2="42.82" id="render-26-c" gradientTransform="matrix(5.219562, 0.000000, 0.000000, 5.207050, -148.147088, -167.749172) translate(60.6) rotate(-180) scale(1 -1)" gradientUnits="userSpaceOnUse"><stop offset="0" stop-color="#fff"/><stop offset=".5" stop-color="#777"/><stop offset=".85" stop-color="#212121"/><stop offset="1"/></linearGradient></defs><g class="fills" id="fills-35b27aa9-e63a-8027-8006-675ded259a01"><path d="M291.18353271484375,97.86238861083984C334.45306396484375,58.59994125366211,391.45086669921875,12.622157096862793,413.26922607421875,14.600916862487793C397.29656982421875,3.250086784362793,333.51434326171875,42.92684555053711,283.30194091796875,78.75179290771484C284.44989013671875,84.53182220458984,287.16424560546875,91.09212493896484,291.18353271484375,97.86238861083984Z" style="isolation: isolate; fill: url(&quot;#render-26-q&quot;);"/></g><g id="strokes-405f52c4-ec4d-8004-8007-2429153b4ea5-35b27aa9-e63a-8027-8006-675ded259a01" class="strokes" style="isolation: isolate; fill: url(&quot;#render-26-q&quot;);"><g class="inner-stroke-shape"><defs><clipPath id="inner-stroke-render-26-35b27aa9-e63a-8027-8006-675ded259a01-0"><use href="#stroke-shape-render-26-35b27aa9-e63a-8027-8006-675ded259a01-0"/></clipPath><path d="M291.18353271484375,97.86238861083984C334.45306396484375,58.59994125366211,391.45086669921875,12.622157096862793,413.26922607421875,14.600916862487793C397.29656982421875,3.250086784362793,333.51434326171875,42.92684555053711,283.30194091796875,78.75179290771484C284.44989013671875,84.53182220458984,287.16424560546875,91.09212493896484,291.18353271484375,97.86238861083984Z" id="stroke-shape-render-26-35b27aa9-e63a-8027-8006-675ded259a01-0" style="fill: none; stroke-width: 10.4386; stroke: rgb(0, 0, 0); stroke-opacity: 1;"/></defs><use href="#stroke-shape-render-26-35b27aa9-e63a-8027-8006-675ded259a01-0" clip-path="url('#inner-stroke-render-26-35b27aa9-e63a-8027-8006-675ded259a01-0')"/></g></g></g><g id="shape-35b27aa9-e63a-8027-8006-675ded259a02" style="mix-blend-mode: multiply;"><defs><radialGradient cx="80.09" cy="43.51" r="27.55" id="render-27-r" fx="80.09" fy="43.51" gradientUnits="userSpaceOnUse" gradientTransform="matrix(5.219562, 0.000000, 0.000000, 5.207050, -148.147088, -167.749172)"><stop offset="0" stop-color="#b00000"/><stop offset="1" stop-color="#ebbfbf"/></radialGradient></defs><g class="fills" id="fills-35b27aa9-e63a-8027-8006-675ded259a02"><path d="M366.50115966796875,146.70346069335938C356.11468505859375,157.06625366210938,328.97283935546875,146.70346069335938,305.90252685546875,123.68831634521484C282.78045654296875,100.62215423583984,272.44476318359375,73.54451751708984,282.83172607421875,63.23519515991211C285.12884521484375,60.94442367553711,291.60076904296875,56.30941390991211,300.57830810546875,50.63387680053711C287.26873779296875,45.32332992553711,276.09930419921875,45.00960922241211,270.09637451171875,50.99862289428711C257.88275146484375,63.18294906616211,271.87103271484375,96.97640228271484,301.36126708984375,126.39608001708984C330.85223388671875,155.81674194335938,364.67498779296875,169.77084350585938,376.94061279296875,157.58627319335938C382.47332763671875,152.06771850585938,382.63006591796875,142.17416381835938,378.45428466796875,130.24960327148438C373.13006591796875,138.58065795898438,368.74603271484375,144.62167358398438,366.55389404296875,146.75546264648438Z" style="isolation: isolate; fill: url(&quot;#render-27-r&quot;);"/></g><g id="strokes-405f52c4-ec4d-8004-8007-2429153bc8c6-35b27aa9-e63a-8027-8006-675ded259a02" class="strokes" style="isolation: isolate; fill: url(&quot;#render-27-r&quot;);"><g class="inner-stroke-shape"><defs><clipPath id="inner-stroke-render-27-35b27aa9-e63a-8027-8006-675ded259a02-0"><use href="#stroke-shape-render-27-35b27aa9-e63a-8027-8006-675ded259a02-0"/></clipPath><path d="M366.50115966796875,146.70346069335938C356.11468505859375,157.06625366210938,328.97283935546875,146.70346069335938,305.90252685546875,123.68831634521484C282.78045654296875,100.62215423583984,272.44476318359375,73.54451751708984,282.83172607421875,63.23519515991211C285.12884521484375,60.94442367553711,291.60076904296875,56.30941390991211,300.57830810546875,50.63387680053711C287.26873779296875,45.32332992553711,276.09930419921875,45.00960922241211,270.09637451171875,50.99862289428711C257.88275146484375,63.18294906616211,271.87103271484375,96.97640228271484,301.36126708984375,126.39608001708984C330.85223388671875,155.81674194335938,364.67498779296875,169.77084350585938,376.94061279296875,157.58627319335938C382.47332763671875,152.06771850585938,382.63006591796875,142.17416381835938,378.45428466796875,130.24960327148438C373.13006591796875,138.58065795898438,368.74603271484375,144.62167358398438,366.55389404296875,146.75546264648438Z" id="stroke-shape-render-27-35b27aa9-e63a-8027-8006-675ded259a02-0" style="fill: none; stroke-width: 8; stroke: rgb(0, 0, 0); stroke-opacity: 1;"/></defs><use href="#stroke-shape-render-27-35b27aa9-e63a-8027-8006-675ded259a02-0" clip-path="url('#inner-stroke-render-27-35b27aa9-e63a-8027-8006-675ded259a02-0')"/></g></g></g><g id="shape-35b27aa9-e63a-8027-8006-675ded25f6ca"><defs><radialGradient cx="78.12" cy="43.76" r="9.88" id="render-28-s" fx="78.12" fy="43.76" gradientUnits="userSpaceOnUse" gradientTransform="matrix(5.219562, 0.000000, 0.000000, 5.207050, -148.147088, -167.749172)"><stop offset="0" stop-color="#b00000"/><stop offset="1" stop-color="#fff"/></radialGradient></defs><g class="fills" id="fills-35b27aa9-e63a-8027-8006-675ded25f6ca"><path d="M279.28289794921875,99.37166595458984L286.43353271484375,98.43465423583984C282.10150146484375,90.67635345458984,279.49163818359375,83.28133392333984,278.91717529296875,77.03353118896484L267.43426513671875,74.84627532958984C269.57464599609375,82.29329681396484,273.64569091796875,90.67635345458984,279.23089599609375,99.37166595458984Z" style="isolation: isolate; fill: url(&quot;#render-28-s&quot;);"/></g><g id="strokes-405f52c4-ec4d-8004-8007-2429153c6d27-35b27aa9-e63a-8027-8006-675ded25f6ca" class="strokes" style="isolation: isolate; fill: url(&quot;#render-28-s&quot;);"><g class="inner-stroke-shape"><defs><clipPath id="inner-stroke-render-28-35b27aa9-e63a-8027-8006-675ded25f6ca-0"><use href="#stroke-shape-render-28-35b27aa9-e63a-8027-8006-675ded25f6ca-0"/></clipPath><path d="M279.28289794921875,99.37166595458984L286.43353271484375,98.43465423583984C282.10150146484375,90.67635345458984,279.49163818359375,83.28133392333984,278.91717529296875,77.03353118896484L267.43426513671875,74.84627532958984C269.57464599609375,82.29329681396484,273.64569091796875,90.67635345458984,279.23089599609375,99.37166595458984Z" id="stroke-shape-render-28-35b27aa9-e63a-8027-8006-675ded25f6ca-0" style="fill: none; stroke-width: 10.4386; stroke: rgb(0, 0, 0); stroke-opacity: 1;"/></defs><use href="#stroke-shape-render-28-35b27aa9-e63a-8027-8006-675ded25f6ca-0" clip-path="url('#inner-stroke-render-28-35b27aa9-e63a-8027-8006-675ded25f6ca-0')"/></g></g></g><g id="shape-35b27aa9-e63a-8027-8006-675ded25f6cb" style="opacity: 0.53; mix-blend-mode: multiply;"><defs><linearGradient x1="126.1" y1="23.02" x2="90.28" y2="62.16" id="render-29-t" gradientUnits="userSpaceOnUse" gradientTransform="matrix(5.219562, 0.000000, 0.000000, 5.207050, -148.147088, -167.749172)"><stop offset=".16" stop-color="#ff5900"/><stop offset=".19" stop-color="#ff5000"/><stop offset=".29" stop-color="#ff2f00"/><stop offset="1" stop-color="#eb0000"/></linearGradient></defs><g class="fills" id="fills-35b27aa9-e63a-8027-8006-675ded25f6cb"><path d="M368.32830810546875,100.93318939208984C350.42547607421875,123.89730072021484,341.44793701171875,117.54524993896484,315.29779052734375,128.68783569335938C335.70574951171875,146.07870483398438,357.47161865234375,153.10775756835938,366.39691162109375,144.20492553710938C368.74603271484375,141.86190795898438,373.86102294921875,134.72787475585938,379.91619873046875,124.98983001708984C383.93475341796875,116.71126556396484,388.21502685546875,108.11922454833984,392.59906005859375,99.63167572021484C414.36492919921875,57.50741195678711,382.26483154296875,82.97005462646484,368.27606201171875,100.93318939208984Z" style="isolation: isolate; fill: url(&quot;#render-29-t&quot;);"/></g><g id="strokes-405f52c4-ec4d-8004-8007-2429153cf31e-35b27aa9-e63a-8027-8006-675ded25f6cb" class="strokes" style="isolation: isolate; fill: url(&quot;#render-29-t&quot;);"><g class="inner-stroke-shape"><defs><clipPath id="inner-stroke-render-29-35b27aa9-e63a-8027-8006-675ded25f6cb-0"><use href="#stroke-shape-render-29-35b27aa9-e63a-8027-8006-675ded25f6cb-0"/></clipPath><path d="M368.32830810546875,100.93318939208984C350.42547607421875,123.89730072021484,341.44793701171875,117.54524993896484,315.29779052734375,128.68783569335938C335.70574951171875,146.07870483398438,357.47161865234375,153.10775756835938,366.39691162109375,144.20492553710938C368.74603271484375,141.86190795898438,373.86102294921875,134.72787475585938,379.91619873046875,124.98983001708984C383.93475341796875,116.71126556396484,388.21502685546875,108.11922454833984,392.59906005859375,99.63167572021484C414.36492919921875,57.50741195678711,382.26483154296875,82.97005462646484,368.27606201171875,100.93318939208984Z" id="stroke-shape-render-29-35b27aa9-e63a-8027-8006-675ded25f6cb-0" style="fill: none; stroke-width: 10.4386; stroke: rgb(0, 0, 0); stroke-opacity: 1;"/></defs><use href="#stroke-shape-render-29-35b27aa9-e63a-8027-8006-675ded25f6cb-0" clip-path="url('#inner-stroke-render-29-35b27aa9-e63a-8027-8006-675ded25f6cb-0')"/></g></g></g><g id="shape-35b27aa9-e63a-8027-8006-675ded261c5c" style="mix-blend-mode: screen;"><defs><radialGradient gradientUnits="userSpaceOnUse" r="8.02" cx="1675.15" id="render-30-d" cy="-144.68" fy="-144.68" fx="1675.15" gradientTransform="matrix(5.219562, 0.000000, 0.000000, 5.207050, -148.147088, -167.749172) translate(-215.18 -194.12) rotate(58.47) scale(.22 1)"><stop offset=".26" stop-color="#fff"/><stop offset=".38" stop-color="#afafaf"/><stop offset="1"/></radialGradient></defs><g class="fills" id="fills-35b27aa9-e63a-8027-8006-675ded261c5c"><path d="M368.48553466796875,47.45711898803711C345.88470458984375,61.25545883178711,325.16278076171875,68.54598236083984,322.18768310546875,63.65096664428711C319.16033935546875,58.75692367553711,335.07977294921875,43.60457992553711,357.62884521484375,29.805261611938477C380.22918701171875,16.006921768188477,400.95062255859375,8.717371940612793,403.92572021484375,13.611414909362793C406.95306396484375,18.506433486938477,391.03363037109375,33.65877914428711,368.48553466796875,47.45711898803711Z" style="isolation: isolate; fill: url(&quot;#render-30-d&quot;);"/></g><g id="strokes-405f52c4-ec4d-8004-8007-2429153d4621-35b27aa9-e63a-8027-8006-675ded261c5c" class="strokes" style="isolation: isolate; fill: url(&quot;#render-30-d&quot;);"><g class="inner-stroke-shape"><defs><clipPath id="inner-stroke-render-30-35b27aa9-e63a-8027-8006-675ded261c5c-0"><use href="#stroke-shape-render-30-35b27aa9-e63a-8027-8006-675ded261c5c-0"/></clipPath><path d="M368.48553466796875,47.45711898803711C345.88470458984375,61.25545883178711,325.16278076171875,68.54598236083984,322.18768310546875,63.65096664428711C319.16033935546875,58.75692367553711,335.07977294921875,43.60457992553711,357.62884521484375,29.805261611938477C380.22918701171875,16.006921768188477,400.95062255859375,8.717371940612793,403.92572021484375,13.611414909362793C406.95306396484375,18.506433486938477,391.03363037109375,33.65877914428711,368.48553466796875,47.45711898803711Z" id="stroke-shape-render-30-35b27aa9-e63a-8027-8006-675ded261c5c-0" style="fill: none; stroke-width: 10.4386; stroke: rgb(0, 0, 0); stroke-opacity: 1;"/></defs><use href="#stroke-shape-render-30-35b27aa9-e63a-8027-8006-675ded261c5c-0" clip-path="url('#inner-stroke-render-30-35b27aa9-e63a-8027-8006-675ded261c5c-0')"/></g></g></g><g id="shape-35b27aa9-e63a-8027-8006-675ded259a00" style="mix-blend-mode: screen;"><defs><linearGradient id="render-31-p" x1="85.97" y1="37.64" x2="97.24" y2="45.73" gradientTransform="matrix(1,0,0,1,0,0)" xlink:href="#render-31-a"/><linearGradient x1="115.02" y1="51.93" x2="111.1" y2="49.48" id="render-31-a" gradientTransform="matrix(5.219562, 0.000000, 0.000000, 5.207050, -148.147088, -167.749172) translate(146.92) rotate(-180) scale(1 -1)" gradientUnits="userSpaceOnUse"><stop offset=".08" stop-color="#fff"/><stop offset=".54" stop-color="#777"/><stop offset=".86" stop-color="#212121"/><stop offset="1"/></linearGradient></defs><g class="fills" id="fills-35b27aa9-e63a-8027-8006-675ded259a00"><path d="M412.38153076171875,18.037683486938477C434.61688232421875,40.21883773803711,376.41888427734375,134.25888061523438,366.44915771484375,144.20492553710938C356.48065185546875,154.14950561523438,330.38250732421875,144.20492553710938,308.14715576171875,122.07454681396484C285.91180419921875,99.89315032958984,275.99432373046875,73.85677337646484,285.96405029296875,63.91219711303711C295.93280029296875,53.96639633178711,390.19842529296875,-4.091465950012207,412.43377685546875,18.089929580688477Z" style="isolation: isolate; fill: url(&quot;#render-31-p&quot;);"/></g><g id="strokes-405f52c4-ec4d-8004-8007-2429153d9536-35b27aa9-e63a-8027-8006-675ded259a00" class="strokes" style="isolation: isolate; fill: url(&quot;#render-31-p&quot;);"><g class="inner-stroke-shape"><defs><clipPath id="inner-stroke-render-31-35b27aa9-e63a-8027-8006-675ded259a00-0"><use href="#stroke-shape-render-31-35b27aa9-e63a-8027-8006-675ded259a00-0"/></clipPath><path d="M412.38153076171875,18.037683486938477C434.61688232421875,40.21883773803711,376.41888427734375,134.25888061523438,366.44915771484375,144.20492553710938C356.48065185546875,154.14950561523438,330.38250732421875,144.20492553710938,308.14715576171875,122.07454681396484C285.91180419921875,99.89315032958984,275.99432373046875,73.85677337646484,285.96405029296875,63.91219711303711C295.93280029296875,53.96639633178711,390.19842529296875,-4.091465950012207,412.43377685546875,18.089929580688477Z" id="stroke-shape-render-31-35b27aa9-e63a-8027-8006-675ded259a00-0" style="fill: none; stroke-width: 10.4386; stroke: rgb(0, 0, 0); stroke-opacity: 1;"/></defs><use href="#stroke-shape-render-31-35b27aa9-e63a-8027-8006-675ded259a00-0" clip-path="url('#inner-stroke-render-31-35b27aa9-e63a-8027-8006-675ded259a00-0')"/></g></g></g></g></g></g></svg>