<svg width="128" xmlns="http://www.w3.org/2000/svg" height="128" id="screenshot-00982a7e-9d1d-80dc-8007-059c2e5f99c1" viewBox="0 0 128 128" xmlns:xlink="http://www.w3.org/1999/xlink" fill="none" version="1.1"><g id="shape-00982a7e-9d1d-80dc-8007-059c2e5f99c1" rx="0" ry="0" style="fill: rgb(0, 0, 0);"><g id="shape-00982a7e-9d1d-80dc-8007-059c2e6047ef" style="display: none;"><g class="fills" id="fills-00982a7e-9d1d-80dc-8007-059c2e6047ef"><rect width="128" height="128" x="0" transform="matrix(1.000000, 0.000000, 0.000000, 1.000000, 0.000000, 0.000000)" style="fill: none;" ry="0" fill="none" rx="0" y="0"/></g></g><g id="shape-00982a7e-9d1d-80dc-8007-059c2e608698" rx="0" ry="0" style="fill: rgb(0, 0, 0);"><g id="shape-00982a7e-9d1d-80dc-8007-059c2e608699" rx="0" ry="0" style="fill: rgb(0, 0, 0);"><g id="shape-00982a7e-9d1d-80dc-8007-059c2e60f472"><g class="fills" id="fills-00982a7e-9d1d-80dc-8007-059c2e60f472"><rect rx="2" ry="2" x="112" y="96" transform="matrix(1.000000, 0.000000, 0.000000, 1.000000, 0.000000, 0.000000)" width="16" height="8" style="fill: rgb(179, 179, 179);"/></g></g><g id="shape-00982a7e-9d1d-80dc-8007-059c2e60f473"><g class="fills" id="fills-00982a7e-9d1d-80dc-8007-059c2e60f473"><rect rx="2" ry="2" x="112" y="60" transform="matrix(1.000000, 0.000000, 0.000000, 1.000000, 0.000000, 0.000000)" width="16" height="8" style="fill: rgb(179, 179, 179);"/></g></g><g id="shape-00982a7e-9d1d-80dc-8007-059c2e60f474"><g class="fills" id="fills-00982a7e-9d1d-80dc-8007-059c2e60f474"><rect rx="2" ry="2" x="112" y="42" transform="matrix(1.000000, 0.000000, 0.000000, 1.000000, 0.000000, 0.000000)" width="16" height="8" style="fill: rgb(179, 179, 179);"/></g></g><g id="shape-00982a7e-9d1d-80dc-8007-059c2e60f475"><g class="fills" id="fills-00982a7e-9d1d-80dc-8007-059c2e60f475"><rect rx="2" ry="2" x="112" y="24" transform="matrix(1.000000, 0.000000, 0.000000, 1.000000, 0.000000, 0.000000)" width="16" height="8" style="fill: rgb(179, 179, 179);"/></g></g><g id="shape-00982a7e-9d1d-80dc-8007-059c2e60f476"><g class="fills" id="fills-00982a7e-9d1d-80dc-8007-059c2e60f476"><rect rx="2" ry="2" x="112" y="78" transform="matrix(1.000000, 0.000000, 0.000000, 1.000000, 0.000000, 0.000000)" width="16" height="8" style="fill: rgb(179, 179, 179);"/></g></g></g><g id="shape-00982a7e-9d1d-80dc-8007-059c2e610a5b" rx="0" ry="0" style="fill: rgb(0, 0, 0);"><g id="shape-00982a7e-9d1d-80dc-8007-059c2e610a5c"><g class="fills" id="fills-00982a7e-9d1d-80dc-8007-059c2e610a5c"><rect rx="2" ry="2" x="20.003999999999905" y="116" transform="matrix(0.000000, 1.000000, -1.000000, 0.000000, 148.004000, 91.996000)" width="16" height="8" style="fill: rgb(179, 179, 179);"/></g></g><g id="shape-00982a7e-9d1d-80dc-8007-059c2e610a5d"><g class="fills" id="fills-00982a7e-9d1d-80dc-8007-059c2e610a5d"><rect rx="2" ry="2" x="56.003999999999905" y="116" transform="matrix(0.000000, 1.000000, -1.000000, 0.000000, 184.004000, 55.996000)" width="16" height="8" style="fill: rgb(179, 179, 179);"/></g></g><g id="shape-00982a7e-9d1d-80dc-8007-059c2e610a5e"><g class="fills" id="fills-00982a7e-9d1d-80dc-8007-059c2e610a5e"><rect rx="2" ry="2" x="74.0039999999999" y="116" transform="matrix(0.000000, 1.000000, -1.000000, 0.000000, 202.004000, 37.996000)" width="16" height="8" style="fill: rgb(179, 179, 179);"/></g></g><g id="shape-00982a7e-9d1d-80dc-8007-059c2e610a5f"><g class="fills" id="fills-00982a7e-9d1d-80dc-8007-059c2e610a5f"><rect rx="2" ry="2" x="92.0039999999999" y="116" transform="matrix(0.000000, 1.000000, -1.000000, 0.000000, 220.004000, 19.996000)" width="16" height="8" style="fill: rgb(179, 179, 179);"/></g></g><g id="shape-00982a7e-9d1d-80dc-8007-059c2e61786e"><g class="fills" id="fills-00982a7e-9d1d-80dc-8007-059c2e61786e"><rect rx="2" ry="2" x="38.003999999999905" y="116" transform="matrix(0.000000, 1.000000, -1.000000, 0.000000, 166.004000, 73.996000)" width="16" height="8" style="fill: rgb(179, 179, 179);"/></g></g></g><g id="shape-00982a7e-9d1d-80dc-8007-059c2e61786f"><g class="fills" id="fills-00982a7e-9d1d-80dc-8007-059c2e61786f"><rect rx="2" ry="2" x="0" y="96" transform="matrix(1.000000, 0.000000, 0.000000, 1.000000, 0.000000, 0.000000)" width="16" height="8" style="fill: rgb(179, 179, 179);"/></g></g><g id="shape-00982a7e-9d1d-80dc-8007-059c2e617870"><g class="fills" id="fills-00982a7e-9d1d-80dc-8007-059c2e617870"><rect rx="2" ry="2" x="0" y="60" transform="matrix(1.000000, 0.000000, 0.000000, 1.000000, 0.000000, 0.000000)" width="16" height="8" style="fill: rgb(179, 179, 179);"/></g></g><g id="shape-00982a7e-9d1d-80dc-8007-059c2e617871"><g class="fills" id="fills-00982a7e-9d1d-80dc-8007-059c2e617871"><rect rx="2" ry="2" x="0" y="42" transform="matrix(1.000000, 0.000000, 0.000000, 1.000000, 0.000000, 0.000000)" width="16" height="8" style="fill: rgb(179, 179, 179);"/></g></g><g id="shape-00982a7e-9d1d-80dc-8007-059c2e617872"><g class="fills" id="fills-00982a7e-9d1d-80dc-8007-059c2e617872"><rect rx="2" ry="2" x="0" y="24" transform="matrix(1.000000, 0.000000, 0.000000, 1.000000, 0.000000, 0.000000)" width="16" height="8" style="fill: rgb(179, 179, 179);"/></g></g><g id="shape-00982a7e-9d1d-80dc-8007-059c2e617873"><g class="fills" id="fills-00982a7e-9d1d-80dc-8007-059c2e617873"><rect rx="2" ry="2" x="0" y="78" transform="matrix(1.000000, 0.000000, 0.000000, 1.000000, 0.000000, 0.000000)" width="16" height="8" style="fill: rgb(179, 179, 179);"/></g></g><g id="shape-00982a7e-9d1d-80dc-8007-059c2e617874" rx="0" ry="0" style="fill: rgb(0, 0, 0);"><g id="shape-00982a7e-9d1d-80dc-8007-059c2e61a778"><g class="fills" id="fills-00982a7e-9d1d-80dc-8007-059c2e61a778"><rect rx="2" ry="2" x="20.003999999999905" y="4.000800000000027" transform="matrix(0.000000, 1.000000, -1.000000, 0.000000, 36.004800, -20.003200)" width="16" height="8" style="fill: rgb(179, 179, 179);"/></g></g><g id="shape-00982a7e-9d1d-80dc-8007-059c2e61a779"><g class="fills" id="fills-00982a7e-9d1d-80dc-8007-059c2e61a779"><rect rx="2" ry="2" x="56.003999999999905" y="4.000800000000027" transform="matrix(0.000000, 1.000000, -1.000000, 0.000000, 72.004800, -56.003200)" width="16" height="8" style="fill: rgb(179, 179, 179);"/></g></g><g id="shape-00982a7e-9d1d-80dc-8007-059c2e61c1a5"><g class="fills" id="fills-00982a7e-9d1d-80dc-8007-059c2e61c1a5"><rect rx="2" ry="2" x="74.0039999999999" y="4.000800000000027" transform="matrix(0.000000, 1.000000, -1.000000, 0.000000, 90.004800, -74.003200)" width="16" height="8" style="fill: rgb(179, 179, 179);"/></g></g><g id="shape-00982a7e-9d1d-80dc-8007-059c2e61c1a6"><g class="fills" id="fills-00982a7e-9d1d-80dc-8007-059c2e61c1a6"><rect rx="2" ry="2" x="92.0039999999999" y="4.000800000000027" transform="matrix(0.000000, 1.000000, -1.000000, 0.000000, 108.004800, -92.003200)" width="16" height="8" style="fill: rgb(179, 179, 179);"/></g></g><g id="shape-00982a7e-9d1d-80dc-8007-059c2e61c1a7"><g class="fills" id="fills-00982a7e-9d1d-80dc-8007-059c2e61c1a7"><rect rx="2" ry="2" x="38.003999999999905" y="4.000800000000027" transform="matrix(0.000000, 1.000000, -1.000000, 0.000000, 54.004800, -38.003200)" width="16" height="8" style="fill: rgb(179, 179, 179);"/></g></g></g><g id="shape-00982a7e-9d1d-80dc-8007-059c2e61c1a8"><g class="fills" id="fills-00982a7e-9d1d-80dc-8007-059c2e61c1a8"><rect rx="3.75" ry="3.75" x="14" y="13.200000000000045" transform="matrix(1.000000, 0.000000, 0.000000, 1.000000, 0.000000, 0.000000)" width="100" height="100.79999999999995" style="fill: rgb(170, 58, 57); fill-opacity: 1;"/></g></g><g id="shape-00982a7e-9d1d-80dc-8007-059c2e620924"><g class="fills" id="fills-00982a7e-9d1d-80dc-8007-059c2e620924"><path d="M85.29998016357422,76.10400390625C81.09996795654297,83.5040283203125,73.09996795654297,88.5040283203125,63.99999237060547,88.5040283203125C50.49999237060547,88.5040283203125,39.49999237060547,77.5040283203125,39.49999237060547,64.00799560546875C39.49999237060547,50.51202392578125,50.49999237060547,39.51202392578125,63.99999237060547,39.51202392578125C73.09996795654297,39.51202392578125,81.09996795654297,44.51202392578125,85.29998016357422,52.0159912109375L98.29998016357422,44.52001953125C91.49999237060547,32.6240234375,78.70000457763672,24.52001953125,63.99999237060547,24.52001953125C42.20000457763672,24.52001953125,24.4999942779541,42.2239990234375,24.4999942779541,64.02398681640625C24.4999942779541,85.823974609375,42.20000457763672,103.52801513671875,63.99999237060547,103.52801513671875C78.59996795654297,103.52801513671875,91.40001678466797,95.52801513671875,98.20000457763672,83.72802734375Z" style="fill: rgb(0, 0, 0); fill-opacity: 1;"/></g></g><g id="shape-00982a7e-9d1d-80dc-8007-059c2e629c23"><g class="fills" id="fills-00982a7e-9d1d-80dc-8007-059c2e629c23"><path d="M44.00200653076172,56.823974609375L49.44799041748047,56.823974609375L49.44799041748047,59.97442626953125L46.69701385498047,59.97442626953125L46.69701385498047,62.70562744140625L49.08800506591797,62.70562744140625L49.08800506591797,65.78558349609375L46.69701385498047,65.78558349609375L46.69701385498047,68.4871826171875L49.47197723388672,68.4871826171875L49.47197723388672,71.65838623046875L44.01000213623047,71.65838623046875ZM53.89397430419922,61.4351806640625M53.89397430419922,61.4351806640625L53.89397430419922,62.6951904296875C54.62999725341797,61.62158203125,55.37664031982422,61.08477783203125,56.13396453857422,61.08477783203125C57.04534149169922,61.08477783203125,57.63433074951172,61.6749267578125,57.90099334716797,62.855224609375C58.31700897216797,62.24188232421875,58.70098114013672,61.79522705078125,59.05297088623047,61.51519775390625C59.41564178466797,61.2352294921875,59.83666229248047,61.09521484375,60.31597137451172,61.09521484375C61.51598358154297,61.09521484375,62.11602020263672,62.14532470703125,62.11602020263672,64.24560546875L62.11602020263672,71.66796875L59.53301239013672,71.66796875L59.53301239013672,65.635986328125C59.53301239013672,64.64935302734375,59.27696990966797,64.156005859375,58.76500701904297,64.156005859375C58.24230194091797,64.156005859375,57.98101043701172,64.6427001953125,57.98101043701172,65.615966796875L57.98101043701172,71.66796875L55.39800262451172,71.66796875L55.39800262451172,65.45599365234375C55.39800262451172,65.0762939453125,55.32598114013672,64.76611328125,55.18199920654297,64.52557373046875C55.04332733154297,64.2791748046875,54.86467742919922,64.156005859375,54.64598846435547,64.156005859375C54.41667938232422,64.156005859375,54.22997283935547,64.2760009765625,54.08599090576172,64.5159912109375C53.94731903076172,64.7559814453125,53.87798309326172,65.0794677734375,53.87798309326172,65.48638916015625L53.87798309326172,71.67840576171875L51.30297088623047,71.67840576171875L51.30297088623047,61.45440673828125ZM64.04296112060547,56.003173828125L66.61797332763672,56.003173828125L66.61797332763672,62.66558837890625L66.66600799560547,62.66558837890625C66.98064422607422,62.12530517578125,67.27397918701172,61.728515625,67.54601287841797,61.4752197265625C67.82335662841797,61.22186279296875,68.17797088623047,61.09521484375,68.60997772216797,61.09521484375C69.33464813232422,61.09521484375,69.93968963623047,61.56854248046875,70.42498016357422,62.51519775390625C70.91033172607422,63.4554443359375,71.15300750732422,64.80584716796875,71.15300750732422,66.56640625C71.15300750732422,68.193603515625,70.91832733154297,69.5040283203125,70.44896697998047,70.49761962890625C69.98497772216797,71.4912109375,69.38500213623047,71.98797607421875,68.64897918701172,71.98797607421875C67.88231658935547,71.98797607421875,67.22130584716797,71.43121337890625,66.66600799560547,70.317626953125L66.61797332763672,70.317626953125L66.61797332763672,71.6375732421875L64.04296112060547,71.6375732421875ZM68.59300994873047,66.496826171875C68.59300994873047,64.80291748046875,68.24663543701172,63.95599365234375,67.55400848388672,63.95599365234375C66.92998504638672,63.95599365234375,66.61797332763672,64.7728271484375,66.61797332763672,66.4063720703125C66.61797332763672,67.3466796875,66.69799041748047,68.03704833984375,66.85802459716797,68.47760009765625C67.02330780029297,68.904296875,67.28466033935547,69.11761474609375,67.64196014404297,69.11761474609375C68.27666473388672,69.11761474609375,68.59398651123047,68.2440185546875,68.59398651123047,66.496826171875ZM76.51097869873047,68.53759765625L78.68596649169922,68.53759765625C78.27068328857422,70.8309326171875,77.23400115966797,71.97760009765625,75.57598114013672,71.97760009765625C74.54131317138672,71.97760009765625,73.71996307373047,71.4842529296875,73.11199188232422,70.49761962890625C72.51000213623047,69.51092529296875,72.20897674560547,68.150634765625,72.20897674560547,66.41680908203125C72.20897674560547,64.80291748046875,72.51000213623047,63.50909423828125,73.11199188232422,62.53521728515625C73.71465301513672,61.554931640625,74.51696014404297,61.0648193359375,75.51897430419922,61.0648193359375C76.12163543701172,61.0648193359375,76.70299530029297,61.30157470703125,77.26299285888672,61.77520751953125C77.81768035888672,62.24188232421875,78.22264862060547,62.8653564453125,78.47801971435547,63.6456298828125C78.73400115966797,64.42584228515625,78.87535858154297,65.653076171875,78.90196990966797,67.32720947265625L74.59197235107422,67.32720947265625C74.62932586669922,68.84716796875,74.96764373779297,69.607177734375,75.60698699951172,69.607177734375C75.82567596435547,69.607177734375,76.02031707763672,69.5072021484375,76.19097137451172,69.30718994140625C76.36168670654297,69.107177734375,76.46569061279297,68.84716796875,76.50298309326172,68.5272216796875ZM74.64000701904297,65.5855712890625L76.51097869873047,65.5855712890625C76.49498748779297,64.8656005859375,76.41497039794922,64.33575439453125,76.27098846435547,63.9959716796875C76.12700653076172,63.64935302734375,75.90300750732422,63.47601318359375,75.59899139404297,63.47601318359375C75.25829315185547,63.47601318359375,75.01329803466797,63.64263916015625,74.86400604248047,63.97601318359375C74.71465301513672,64.309326171875,74.64000701904297,64.84613037109375,74.64000701904297,65.58642578125ZM84.49297332763672,56.003173828125L87.05998992919922,56.003173828125L87.05998992919922,71.65838623046875L84.47698211669922,71.65838623046875L84.47698211669922,70.317626953125L84.44499969482422,70.317626953125C83.86833953857422,71.44451904296875,83.21996307373047,72.00799560546875,82.49999237060547,72.00799560546875C81.74333953857422,72.00799560546875,81.12999725341797,71.51123046875,80.66002655029297,70.517578125C80.19664764404297,69.52398681640625,79.96495819091797,68.19708251953125,79.96495819091797,66.53680419921875C79.96495819091797,64.8829345703125,80.20232391357422,63.56561279296875,80.67699432373047,62.58477783203125C81.15166473388672,61.59814453125,81.77532196044922,61.10479736328125,82.54796600341797,61.10479736328125C83.25200653076172,61.10479736328125,83.90001678466797,61.6114501953125,84.49199676513672,62.62481689453125ZM84.49297332763672,66.46722412109375C84.49297332763672,64.7861328125,84.16765594482422,63.94561767578125,83.51696014404297,63.94561767578125C82.84496307373047,63.94561767578125,82.50902557373047,64.8392333984375,82.50902557373047,66.62640380859375C82.50902557373047,67.41998291015625,82.59697723388672,68.0335693359375,82.77300262451172,68.46722412109375C82.95433807373047,68.89385986328125,83.20500946044922,69.107177734375,83.52501678466797,69.107177734375C83.82366180419922,69.107177734375,84.05834197998047,68.8770751953125,84.22899627685547,68.41680908203125C84.39965057373047,67.95703125,84.48497772216797,67.30694580078125,84.48497772216797,66.4664306640625ZM93.08995819091797,56.003173828125L95.65697479248047,56.003173828125L95.65697479248047,71.65838623046875L93.07396697998047,71.65838623046875L93.07396697998047,70.317626953125L93.04198455810547,70.317626953125C92.46599578857422,71.44451904296875,91.81798553466797,72.00799560546875,91.09801483154297,72.00799560546875C90.34130096435547,72.00799560546875,89.72832489013672,71.51123046875,89.25902557373047,70.517578125C88.79497528076172,69.52398681640625,88.56298065185547,68.19708251953125,88.56298065185547,66.53680419921875C88.56298065185547,64.8829345703125,88.80034637451172,63.56561279296875,89.27501678466797,62.58477783203125C89.74962615966797,61.60400390625,90.37334442138672,61.11065673828125,91.14598846435547,61.10479736328125C91.84996795654297,61.10479736328125,92.49797821044922,61.6114501953125,93.08995819091797,62.62481689453125ZM93.08995819091797,66.46722412109375C93.08995819091797,64.7861328125,92.76464080810547,63.94561767578125,92.11400604248047,63.94561767578125C91.44200897216797,63.94561767578125,91.10601043701172,64.8392333984375,91.10601043701172,66.62640380859375C91.10601043701172,67.41998291015625,91.19396209716797,68.0335693359375,91.36998748779297,68.46722412109375C91.55132293701172,68.89385986328125,91.80199432373047,69.107177734375,92.12200164794922,69.107177734375C92.42064666748047,69.107177734375,92.65532684326172,68.8770751953125,92.82598114013672,68.41680908203125C92.99663543701172,67.95654296875,93.08202362060547,67.306396484375,93.08202362060547,66.4664306640625ZM101.45500946044922,68.53759765625L103.62999725341797,68.53759765625C103.21465301513672,70.8309326171875,102.17797088623047,71.97760009765625,100.52001190185547,71.97760009765625C99.48534393310547,71.97760009765625,98.66399383544922,71.4842529296875,98.05602264404297,70.49761962890625C97.45330047607422,69.51092529296875,97.15196990966797,68.150634765625,97.15196990966797,66.41680908203125C97.15196990966797,64.80291748046875,97.45330047607422,63.50909423828125,98.05602264404297,62.53521728515625C98.65868377685547,61.554931640625,99.46099090576172,61.0648193359375,100.46300506591797,61.0648193359375C101.06566619873047,61.0648193359375,101.64696502685547,61.30157470703125,102.20702362060547,61.77520751953125C102.76165008544922,62.24188232421875,103.16667938232422,62.8653564453125,103.42198944091797,63.6456298828125C103.67797088623047,64.42584228515625,103.81932830810547,65.653076171875,103.84600067138672,67.32720947265625L99.53600311279297,67.32720947265625C99.57335662841797,68.84716796875,99.91167449951172,69.607177734375,100.55101776123047,69.607177734375C100.76964569091797,69.607177734375,100.96434783935547,69.5072021484375,101.13500213623047,69.30718994140625C101.30565643310547,69.107177734375,101.40966033935547,68.84716796875,101.44701385498047,68.5272216796875ZM99.58397674560547,65.5855712890625L101.45500946044922,65.5855712890625C101.43901824951172,64.8656005859375,101.35900115966797,64.33575439453125,101.21495819091797,63.9959716796875C101.07097625732422,63.64935302734375,100.84697723388672,63.47601318359375,100.54296112060547,63.47601318359375C100.20165252685547,63.47601318359375,99.95665740966797,63.64263916015625,99.80797576904297,63.97601318359375C99.65929412841797,64.309326171875,99.58464813232422,64.84613037109375,99.58397674560547,65.58642578125ZM109.43596649169922,56.003173828125L112.00402069091797,56.003173828125L112.00402069091797,71.65838623046875L109.41997528076172,71.65838623046875L109.41997528076172,70.317626953125L109.38799285888672,70.317626953125C108.81267547607422,71.44451904296875,108.16497039794922,72.00799560546875,107.44499969482422,72.00799560546875C106.68767547607422,72.00799560546875,106.07433319091797,71.51123046875,105.60497283935547,70.517578125C105.14165496826172,69.52398681640625,104.91002655029297,68.19708251953125,104.91002655029297,66.53680419921875C104.91002655029297,64.8829345703125,105.14733123779297,63.56561279296875,105.62200164794922,62.58477783203125C106.09667205810547,61.60400390625,106.72032928466797,61.11065673828125,107.49297332763672,61.10479736328125C108.19701385498047,61.10479736328125,108.84465789794922,61.6114501953125,109.43596649169922,62.62481689453125ZM109.43596649169922,66.46722412109375C109.43596649169922,64.7861328125,109.11101531982422,63.94561767578125,108.46099090576172,63.94561767578125C107.78899383544922,63.94561767578125,107.45299530029297,64.8392333984375,107.45299530029297,66.62640380859375C107.45299530029297,67.41998291015625,107.54100799560547,68.0335693359375,107.71697235107422,68.46722412109375C107.89830780029297,68.89385986328125,108.14897918701172,69.107177734375,108.46898651123047,69.107177734375C108.76769256591797,69.107177734375,109.00231170654297,68.8770751953125,109.17296600341797,68.41680908203125C109.34300994873047,67.95703125,109.42797088623047,67.30694580078125,109.42797088623047,66.4664306640625Z" style="fill: rgb(0, 0, 0); fill-opacity: 1;"/></g></g><g id="shape-00982a7e-9d1d-80dc-8007-059c2e62c8f6"><g class="fills" id="fills-00982a7e-9d1d-80dc-8007-059c2e62c8f6"><ellipse cx="23" cy="23" rx="3" ry="3" transform="matrix(1.000000, 0.000000, 0.000000, 1.000000, 0.000000, 0.000000)" style="fill: rgb(0, 0, 0); fill-opacity: 1;"/></g></g></g></g></svg>