<svg width="254.82" xmlns="http://www.w3.org/2000/svg" height="250.887" id="screenshot-917df5ac-2cc2-8043-8006-e4b4ae84f60e" viewBox="0 0 254.82 250.887" xmlns:xlink="http://www.w3.org/1999/xlink" fill="none" version="1.1"><g id="shape-917df5ac-2cc2-8043-8006-e4b4ae84f60e" width="800" height="800" preserveAspectRatio="xMidYMid" rx="0" ry="0" style="fill: rgb(0, 0, 0);"><g id="shape-917df5ac-2cc2-8043-8006-e4b4ae8672f1"><defs><linearGradient id="fill-color-gradient-render-2-0" x1="0.07838141901402196" y1="0.08773486550126908" x2="1.0088451116916382" y2="1.0092945993972808" gradientTransform=""><stop offset="0" stop-color="#a9b1d6" stop-opacity="1"/><stop offset="0.25" stop-color="#c79bf0" stop-opacity="1"/><stop offset="0.5" stop-color="#ebbcba" stop-opacity="1"/><stop offset="1" stop-color="#a9b1d6" stop-opacity="1"/></linearGradient><pattern patternUnits="userSpaceOnUse" x="170.16799501425476" y="1.3659843254124553" width="84.65169813687362" height="84.65299548191479" patternTransform="matrix(1.000000, 0.000000, 0.000000, 1.000000, 0.000000, 0.000000)" id="fill-0-render-2"><g><rect width="84.65169813687362" height="84.65299548191479" style="fill: url(&quot;#fill-color-gradient-render-2-0&quot;);"/></g></pattern></defs><g class="fills" id="fills-917df5ac-2cc2-8043-8006-e4b4ae8672f1"><path d="M251.90347290039062,4.282340049743652C265.4112854003906,17.78380584716797,227.96475219726562,77.13134002685547,221.63418579101562,83.46508026123047C215.30361938476562,89.78612518310547,199.22451782226562,83.97045135498047,185.72305297851562,70.46593475341797C172.21524047851562,56.96446990966797,166.39663696289062,40.88219451904297,172.72720336914062,34.55162811279297C179.05459594726562,28.21788787841797,238.39883422851562,-9.225472450256348,251.90347290039062,4.282340049743652" fill="url(#fill-0-render-2)"/></g></g><g id="shape-917df5ac-2cc2-8043-8006-e4b4ae86b032"><defs><linearGradient id="fill-color-gradient-render-3-0" x1="0.07838141901402196" y1="0.08773486550126908" x2="1.0088451116916382" y2="1.0092945993972808" gradientTransform=""><stop offset="0" stop-color="#a9b1d6" stop-opacity="1"/><stop offset="0.25" stop-color="#c79bf0" stop-opacity="1"/><stop offset="0.5" stop-color="#ebbcba" stop-opacity="1"/><stop offset="1" stop-color="#a9b1d6" stop-opacity="1"/></linearGradient><pattern patternUnits="userSpaceOnUse" x="0" y="0" width="62.48535330440336" height="63.304526373083036" patternTransform="matrix(1.000000, 0.000000, 0.000000, 1.000000, 0.000000, 0.000000)" id="fill-0-render-3"><g><rect width="62.48535330440336" height="63.304526373083036" style="fill: url(&quot;#fill-color-gradient-render-3-0&quot;);"/></g></pattern></defs><g class="fills" id="fills-917df5ac-2cc2-8043-8006-e4b4ae86b032"><path d="M62.485260009765625,18.56713104248047C41.863677978515625,6.866324424743652,12.519929885864258,-6.148568153381348,3.1852128505706787,3.1861486434936523C-6.272794723510742,12.640982627868652,7.219148635864258,42.64488983154297,19.043123245239258,63.30455780029297C29.565828323364258,45.01097869873047,44.532867431640625,29.61095428466797,62.485260009765625,18.56713104248047" fill="url(#fill-0-render-3)"/></g></g><g id="shape-917df5ac-2cc2-8043-8006-e4b4ae86d488"><defs><linearGradient id="fill-color-gradient-render-4-0" x1="0.07838141901402196" y1="0.08773486550126908" x2="1.0088451116916382" y2="1.0092945993972808" gradientTransform=""><stop offset="0" stop-color="#a9b1d6" stop-opacity="1"/><stop offset="0.25" stop-color="#c79bf0" stop-opacity="1"/><stop offset="0.5" stop-color="#ebbcba" stop-opacity="1"/><stop offset="1" stop-color="#a9b1d6" stop-opacity="1"/></linearGradient><pattern patternUnits="userSpaceOnUse" x="8.034181429403361" y="5.662797018224637" width="245.23402404785156" height="245.22455406188965" patternTransform="matrix(1.000000, 0.000000, 0.000000, 1.000000, 0.000000, 0.000000)" id="fill-0-render-4"><g><rect width="245.23402404785156" height="245.22455406188965" style="fill: url(&quot;#fill-color-gradient-render-4-0&quot;);"/></g></pattern></defs><g class="fills" id="fills-917df5ac-2cc2-8043-8006-e4b4ae86d488"><path d="M231.30386352539062,78.80870819091797C233.20254516601562,85.24987030029297,232.86123657226562,90.56957244873047,229.78115844726562,93.64330291748047C222.58828735351562,100.83946990966797,203.15737915039062,93.17894744873047,185.64102172851562,76.50902557373047C184.41836547851562,75.41283416748047,183.20547485351562,74.27562713623047,182.01455688476562,73.08153533935547C175.68081665039062,66.74462127685547,170.75283813476562,60.00023651123047,167.60000610351562,53.78966522216797C161.46548461914062,42.78380584716797,159.93008422851562,33.06371307373047,164.56753540039062,28.42638397216797C167.09463500976562,25.90233612060547,171.13809204101562,25.21361541748047,176.06924438476562,26.10131072998047C179.28506469726562,24.06700897216797,183.08218383789062,21.80199432373047,187.24575805664062,19.48009490966797C170.31680297851562,10.650870323181152,151.06924438476562,5.662833213806152,130.65274047851562,5.662833213806152C62.933990478515625,5.662833213806152,8.034090042114258,60.55309295654297,8.034090042114258,128.27818298339844C8.034090042114258,195.99070739746094,62.933990478515625,250.88743591308594,130.65274047851562,250.88743591308594C198.37173461914062,250.88743591308594,253.26821899414062,195.99070739746094,253.26821899414062,128.27818298339844C253.26821899414062,106.40868377685547,247.52847290039062,85.90062713623047,237.50186157226562,68.12194061279297C235.33462524414062,72.07701873779297,233.22769165039062,75.70030975341797,231.30386352539062,78.80870819091797" fill="url(#fill-0-render-4)"/></g></g></g></svg>