ISO-10303-21;
HEADER;
/* Generated by software containing ST-Developer
 * from STEP Tools, Inc. (www.steptools.com) 
 */
/* OPTION: using custom renumber hook */

FILE_DESCRIPTION(
/* description */ ('STEP AP242 Edition 2',
'CAx-IF Rec.Pracs.---Representation and Presentation of Product Manufa
cturing Information (PMI)---4.0---2014-10-13',
'CAx-IF Rec.Pracs.---3D Tessellated Geometry---0.4---2014-09-14','2;1',
'CAx-IF Rec.Pracs.---User Defined Attributes---1.5---2016-08-15'),
/* implementation_level */ '2;1');

FILE_NAME(
/* name */ '14IN WHEELS - four_bolt_hub_flange_with_boss',
/* time_stamp */ '2026-07-12T21:14:27Z',
/* author */ (''),
/* organization */ (''),
/* preprocessor_version */ 'ST-DEVELOPER v20',
/* originating_system */ 'ONSHAPE BY PTC INC, 1.217',
/* authorisation */ '  ');

FILE_SCHEMA (('AP242_MANAGED_MODEL_BASED_3D_ENGINEERING_MIM_LF { 1 0 10303 442 3 1 4 }'));
ENDSEC;

DATA;
#10=SHAPE_REPRESENTATION_RELATIONSHIP('','',#169,#11);
#11=ADVANCED_BREP_SHAPE_REPRESENTATION('',(#167),#285);
#12=PLANE('',#174);
#13=PLANE('',#193);
#14=PLANE('',#194);
#15=ORIENTED_EDGE('',*,*,#43,.F.);
#16=ORIENTED_EDGE('',*,*,#44,.F.);
#17=ORIENTED_EDGE('',*,*,#43,.T.);
#18=ORIENTED_EDGE('',*,*,#45,.T.);
#19=ORIENTED_EDGE('',*,*,#46,.F.);
#20=ORIENTED_EDGE('',*,*,#47,.T.);
#21=ORIENTED_EDGE('',*,*,#48,.F.);
#22=ORIENTED_EDGE('',*,*,#49,.T.);
#23=ORIENTED_EDGE('',*,*,#50,.F.);
#24=ORIENTED_EDGE('',*,*,#51,.T.);
#25=ORIENTED_EDGE('',*,*,#52,.F.);
#26=ORIENTED_EDGE('',*,*,#53,.T.);
#27=ORIENTED_EDGE('',*,*,#45,.F.);
#28=ORIENTED_EDGE('',*,*,#54,.T.);
#29=ORIENTED_EDGE('',*,*,#55,.F.);
#30=ORIENTED_EDGE('',*,*,#56,.T.);
#31=ORIENTED_EDGE('',*,*,#55,.T.);
#32=ORIENTED_EDGE('',*,*,#44,.T.);
#33=ORIENTED_EDGE('',*,*,#52,.T.);
#34=ORIENTED_EDGE('',*,*,#50,.T.);
#35=ORIENTED_EDGE('',*,*,#48,.T.);
#36=ORIENTED_EDGE('',*,*,#46,.T.);
#37=ORIENTED_EDGE('',*,*,#56,.F.);
#38=ORIENTED_EDGE('',*,*,#54,.F.);
#39=ORIENTED_EDGE('',*,*,#53,.F.);
#40=ORIENTED_EDGE('',*,*,#51,.F.);
#41=ORIENTED_EDGE('',*,*,#49,.F.);
#42=ORIENTED_EDGE('',*,*,#47,.F.);
#43=EDGE_CURVE('',#57,#57,#71,.T.);
#44=EDGE_CURVE('',#58,#58,#72,.T.);
#45=EDGE_CURVE('',#59,#59,#73,.T.);
#46=EDGE_CURVE('',#60,#60,#74,.T.);
#47=EDGE_CURVE('',#61,#61,#75,.T.);
#48=EDGE_CURVE('',#62,#62,#76,.T.);
#49=EDGE_CURVE('',#63,#63,#77,.T.);
#50=EDGE_CURVE('',#64,#64,#78,.T.);
#51=EDGE_CURVE('',#65,#65,#79,.T.);
#52=EDGE_CURVE('',#66,#66,#80,.T.);
#53=EDGE_CURVE('',#67,#67,#81,.T.);
#54=EDGE_CURVE('',#68,#68,#82,.T.);
#55=EDGE_CURVE('',#69,#69,#83,.T.);
#56=EDGE_CURVE('',#70,#70,#84,.T.);
#57=VERTEX_POINT('',#248);
#58=VERTEX_POINT('',#250);
#59=VERTEX_POINT('',#253);
#60=VERTEX_POINT('',#256);
#61=VERTEX_POINT('',#258);
#62=VERTEX_POINT('',#261);
#63=VERTEX_POINT('',#263);
#64=VERTEX_POINT('',#266);
#65=VERTEX_POINT('',#268);
#66=VERTEX_POINT('',#271);
#67=VERTEX_POINT('',#273);
#68=VERTEX_POINT('',#276);
#69=VERTEX_POINT('',#279);
#70=VERTEX_POINT('',#281);
#71=CIRCLE('',#172,0.015);
#72=CIRCLE('',#173,0.015);
#73=CIRCLE('',#175,0.0085);
#74=CIRCLE('',#177,0.004);
#75=CIRCLE('',#178,0.004);
#76=CIRCLE('',#180,0.004);
#77=CIRCLE('',#181,0.004);
#78=CIRCLE('',#183,0.004);
#79=CIRCLE('',#184,0.004);
#80=CIRCLE('',#186,0.004);
#81=CIRCLE('',#187,0.004);
#82=CIRCLE('',#189,0.0085);
#83=CIRCLE('',#191,0.035);
#84=CIRCLE('',#192,0.035);
#85=EDGE_LOOP('',(#15));
#86=EDGE_LOOP('',(#16));
#87=EDGE_LOOP('',(#17));
#88=EDGE_LOOP('',(#18));
#89=EDGE_LOOP('',(#19));
#90=EDGE_LOOP('',(#20));
#91=EDGE_LOOP('',(#21));
#92=EDGE_LOOP('',(#22));
#93=EDGE_LOOP('',(#23));
#94=EDGE_LOOP('',(#24));
#95=EDGE_LOOP('',(#25));
#96=EDGE_LOOP('',(#26));
#97=EDGE_LOOP('',(#27));
#98=EDGE_LOOP('',(#28));
#99=EDGE_LOOP('',(#29));
#100=EDGE_LOOP('',(#30));
#101=EDGE_LOOP('',(#31));
#102=EDGE_LOOP('',(#32));
#103=EDGE_LOOP('',(#33));
#104=EDGE_LOOP('',(#34));
#105=EDGE_LOOP('',(#35));
#106=EDGE_LOOP('',(#36));
#107=EDGE_LOOP('',(#37));
#108=EDGE_LOOP('',(#38));
#109=EDGE_LOOP('',(#39));
#110=EDGE_LOOP('',(#40));
#111=EDGE_LOOP('',(#41));
#112=EDGE_LOOP('',(#42));
#113=FACE_BOUND('',#85,.T.);
#114=FACE_BOUND('',#86,.T.);
#115=FACE_BOUND('',#87,.T.);
#116=FACE_BOUND('',#88,.T.);
#117=FACE_BOUND('',#89,.T.);
#118=FACE_BOUND('',#90,.T.);
#119=FACE_BOUND('',#91,.T.);
#120=FACE_BOUND('',#92,.T.);
#121=FACE_BOUND('',#93,.T.);
#122=FACE_BOUND('',#94,.T.);
#123=FACE_BOUND('',#95,.T.);
#124=FACE_BOUND('',#96,.T.);
#125=FACE_BOUND('',#97,.T.);
#126=FACE_BOUND('',#98,.T.);
#127=FACE_BOUND('',#99,.T.);
#128=FACE_BOUND('',#100,.T.);
#129=FACE_BOUND('',#101,.T.);
#130=FACE_BOUND('',#102,.T.);
#131=FACE_BOUND('',#103,.T.);
#132=FACE_BOUND('',#104,.T.);
#133=FACE_BOUND('',#105,.T.);
#134=FACE_BOUND('',#106,.T.);
#135=FACE_BOUND('',#107,.T.);
#136=FACE_BOUND('',#108,.T.);
#137=FACE_BOUND('',#109,.T.);
#138=FACE_BOUND('',#110,.T.);
#139=FACE_BOUND('',#111,.T.);
#140=FACE_BOUND('',#112,.T.);
#141=CYLINDRICAL_SURFACE('',#171,0.015);
#142=CYLINDRICAL_SURFACE('',#176,0.004);
#143=CYLINDRICAL_SURFACE('',#179,0.004);
#144=CYLINDRICAL_SURFACE('',#182,0.004);
#145=CYLINDRICAL_SURFACE('',#185,0.004);
#146=CYLINDRICAL_SURFACE('',#188,0.0085);
#147=CYLINDRICAL_SURFACE('',#190,0.035);
#148=ADVANCED_FACE('',(#113,#114),#141,.T.);
#149=ADVANCED_FACE('',(#115,#116),#12,.T.);
#150=ADVANCED_FACE('',(#117,#118),#142,.F.);
#151=ADVANCED_FACE('',(#119,#120),#143,.F.);
#152=ADVANCED_FACE('',(#121,#122),#144,.F.);
#153=ADVANCED_FACE('',(#123,#124),#145,.F.);
#154=ADVANCED_FACE('',(#125,#126),#146,.F.);
#155=ADVANCED_FACE('',(#127,#128),#147,.T.);
#156=ADVANCED_FACE('',(#129,#130,#131,#132,#133,#134),#13,.T.);
#157=ADVANCED_FACE('',(#135,#136,#137,#138,#139,#140),#14,.F.);
#158=CLOSED_SHELL('',(#148,#149,#150,#151,#152,#153,#154,#155,#156,#157));
#159=STYLED_ITEM('',(#160),#167);
#160=PRESENTATION_STYLE_ASSIGNMENT((#161));
#161=SURFACE_STYLE_USAGE(.BOTH.,#162);
#162=SURFACE_SIDE_STYLE('',(#163));
#163=SURFACE_STYLE_FILL_AREA(#164);
#164=FILL_AREA_STYLE('',(#165));
#165=FILL_AREA_STYLE_COLOUR('',#166);
#166=COLOUR_RGB('',0.627450980392157,0.627450980392157,0.627450980392157);
#167=MANIFOLD_SOLID_BREP('four_bolt_hub_flange_with_boss',#158);
#168=SHAPE_DEFINITION_REPRESENTATION(#290,#169);
#169=SHAPE_REPRESENTATION('four_bolt_hub_flange_with_boss',(#170),#285);
#170=AXIS2_PLACEMENT_3D('',#245,#195,#196);
#171=AXIS2_PLACEMENT_3D('',#246,#197,#198);
#172=AXIS2_PLACEMENT_3D('',#247,#199,#200);
#173=AXIS2_PLACEMENT_3D('',#249,#201,#202);
#174=AXIS2_PLACEMENT_3D('',#251,#203,#204);
#175=AXIS2_PLACEMENT_3D('',#252,#205,#206);
#176=AXIS2_PLACEMENT_3D('',#254,#207,#208);
#177=AXIS2_PLACEMENT_3D('',#255,#209,#210);
#178=AXIS2_PLACEMENT_3D('',#257,#211,#212);
#179=AXIS2_PLACEMENT_3D('',#259,#213,#214);
#180=AXIS2_PLACEMENT_3D('',#260,#215,#216);
#181=AXIS2_PLACEMENT_3D('',#262,#217,#218);
#182=AXIS2_PLACEMENT_3D('',#264,#219,#220);
#183=AXIS2_PLACEMENT_3D('',#265,#221,#222);
#184=AXIS2_PLACEMENT_3D('',#267,#223,#224);
#185=AXIS2_PLACEMENT_3D('',#269,#225,#226);
#186=AXIS2_PLACEMENT_3D('',#270,#227,#228);
#187=AXIS2_PLACEMENT_3D('',#272,#229,#230);
#188=AXIS2_PLACEMENT_3D('',#274,#231,#232);
#189=AXIS2_PLACEMENT_3D('',#275,#233,#234);
#190=AXIS2_PLACEMENT_3D('',#277,#235,#236);
#191=AXIS2_PLACEMENT_3D('',#278,#237,#238);
#192=AXIS2_PLACEMENT_3D('',#280,#239,#240);
#193=AXIS2_PLACEMENT_3D('',#282,#241,#242);
#194=AXIS2_PLACEMENT_3D('',#283,#243,#244);
#195=DIRECTION('',(0.,0.,1.));
#196=DIRECTION('',(1.,0.,0.));
#197=DIRECTION('',(0.,-1.,0.));
#198=DIRECTION('',(1.,0.,0.));
#199=DIRECTION('',(0.,-1.,0.));
#200=DIRECTION('',(1.,0.,0.));
#201=DIRECTION('',(0.,1.,0.));
#202=DIRECTION('',(1.,0.,0.));
#203=DIRECTION('',(0.,-1.,0.));
#204=DIRECTION('',(1.,0.,0.));
#205=DIRECTION('',(0.,1.,0.));
#206=DIRECTION('',(1.,0.,0.));
#207=DIRECTION('',(0.,-1.,0.));
#208=DIRECTION('',(1.,0.,0.));
#209=DIRECTION('',(0.,1.,0.));
#210=DIRECTION('',(1.,0.,0.));
#211=DIRECTION('',(0.,1.,0.));
#212=DIRECTION('',(1.,0.,0.));
#213=DIRECTION('',(0.,-1.,0.));
#214=DIRECTION('',(1.,0.,0.));
#215=DIRECTION('',(0.,1.,0.));
#216=DIRECTION('',(1.,0.,0.));
#217=DIRECTION('',(0.,1.,0.));
#218=DIRECTION('',(1.,0.,0.));
#219=DIRECTION('',(0.,-1.,0.));
#220=DIRECTION('',(1.,0.,0.));
#221=DIRECTION('',(0.,1.,0.));
#222=DIRECTION('',(1.,0.,0.));
#223=DIRECTION('',(0.,1.,0.));
#224=DIRECTION('',(1.,0.,0.));
#225=DIRECTION('',(0.,-1.,0.));
#226=DIRECTION('',(1.,0.,0.));
#227=DIRECTION('',(0.,1.,0.));
#228=DIRECTION('',(1.,0.,0.));
#229=DIRECTION('',(0.,1.,0.));
#230=DIRECTION('',(1.,0.,0.));
#231=DIRECTION('',(0.,-1.,0.));
#232=DIRECTION('',(1.,0.,0.));
#233=DIRECTION('',(0.,1.,0.));
#234=DIRECTION('',(1.,0.,0.));
#235=DIRECTION('',(0.,-1.,0.));
#236=DIRECTION('',(1.,0.,0.));
#237=DIRECTION('',(0.,-1.,0.));
#238=DIRECTION('',(1.,0.,0.));
#239=DIRECTION('',(0.,-1.,0.));
#240=DIRECTION('',(1.,0.,0.));
#241=DIRECTION('',(0.,-1.,0.));
#242=DIRECTION('',(1.,0.,0.));
#243=DIRECTION('',(0.,-1.,0.));
#244=DIRECTION('',(1.,0.,0.));
#245=CARTESIAN_POINT('',(0.,0.,0.));
#246=CARTESIAN_POINT('',(0.,-0.01,0.));
#247=CARTESIAN_POINT('',(0.,-0.04,0.));
#248=CARTESIAN_POINT('',(0.015,-0.04,0.));
#249=CARTESIAN_POINT('',(0.,-0.016,0.));
#250=CARTESIAN_POINT('',(0.015,-0.016,0.));
#251=CARTESIAN_POINT('',(0.,-0.04,0.));
#252=CARTESIAN_POINT('',(0.,-0.04,0.));
#253=CARTESIAN_POINT('',(0.0085,-0.04,0.));
#254=CARTESIAN_POINT('',(0.025,-0.01,-9.18485099360515E-19));
#255=CARTESIAN_POINT('',(0.025,-0.016,-9.18485099360515E-19));
#256=CARTESIAN_POINT('',(0.029,-0.016,-9.18485099360515E-19));
#257=CARTESIAN_POINT('',(0.025,-0.01,-9.18485099360515E-19));
#258=CARTESIAN_POINT('',(0.029,-0.01,-9.18485099360515E-19));
#259=CARTESIAN_POINT('',(0.,-0.01,-0.025));
#260=CARTESIAN_POINT('',(0.,-0.016,-0.025));
#261=CARTESIAN_POINT('',(0.004,-0.016,-0.025));
#262=CARTESIAN_POINT('',(0.,-0.01,-0.025));
#263=CARTESIAN_POINT('',(0.004,-0.01,-0.025));
#264=CARTESIAN_POINT('',(-0.025,-0.01,2.75545529808154E-18));
#265=CARTESIAN_POINT('',(-0.025,-0.016,2.75545529808154E-18));
#266=CARTESIAN_POINT('',(-0.021,-0.016,2.75545529808154E-18));
#267=CARTESIAN_POINT('',(-0.025,-0.01,2.75545529808154E-18));
#268=CARTESIAN_POINT('',(-0.021,-0.01,2.75545529808154E-18));
#269=CARTESIAN_POINT('',(1.83697019872103E-18,-0.01,0.025));
#270=CARTESIAN_POINT('',(1.83697019872103E-18,-0.016,0.025));
#271=CARTESIAN_POINT('',(0.004,-0.016,0.025));
#272=CARTESIAN_POINT('',(1.83697019872103E-18,-0.01,0.025));
#273=CARTESIAN_POINT('',(0.004,-0.01,0.025));
#274=CARTESIAN_POINT('',(0.,-0.01,0.));
#275=CARTESIAN_POINT('',(0.,-0.01,0.));
#276=CARTESIAN_POINT('',(0.0085,-0.01,0.));
#277=CARTESIAN_POINT('',(0.,-0.01,0.));
#278=CARTESIAN_POINT('',(0.,-0.016,0.));
#279=CARTESIAN_POINT('',(0.035,-0.016,0.));
#280=CARTESIAN_POINT('',(0.,-0.01,0.));
#281=CARTESIAN_POINT('',(0.035,-0.01,0.));
#282=CARTESIAN_POINT('',(0.,-0.016,0.));
#283=CARTESIAN_POINT('',(0.,-0.01,0.));
#284=MECHANICAL_DESIGN_GEOMETRIC_PRESENTATION_REPRESENTATION('',(#159),
#285);
#285=(
GEOMETRIC_REPRESENTATION_CONTEXT(3)
GLOBAL_UNCERTAINTY_ASSIGNED_CONTEXT((#286))
GLOBAL_UNIT_ASSIGNED_CONTEXT((#289,#288,#287))
REPRESENTATION_CONTEXT('four_bolt_hub_flange_with_boss',
'TOP_LEVEL_ASSEMBLY_PART')
);
#286=UNCERTAINTY_MEASURE_WITH_UNIT(LENGTH_MEASURE(1.E-8),#289,
'DISTANCE_ACCURACY_VALUE','Maximum Tolerance applied to model');
#287=(
NAMED_UNIT(*)
SI_UNIT($,.STERADIAN.)
SOLID_ANGLE_UNIT()
);
#288=(
NAMED_UNIT(*)
PLANE_ANGLE_UNIT()
SI_UNIT($,.RADIAN.)
);
#289=(
LENGTH_UNIT()
NAMED_UNIT(*)
SI_UNIT($,.METRE.)
);
#290=PRODUCT_DEFINITION_SHAPE('','',#291);
#291=PRODUCT_DEFINITION('','',#293,#292);
#292=PRODUCT_DEFINITION_CONTEXT('',#299,'design');
#293=PRODUCT_DEFINITION_FORMATION_WITH_SPECIFIED_SOURCE('','',#295,
 .NOT_KNOWN.);
#294=PRODUCT_RELATED_PRODUCT_CATEGORY('','',(#295));
#295=PRODUCT('four_bolt_hub_flange_with_boss',
'four_bolt_hub_flange_with_boss','four_bolt_hub_flange_with_boss',(#297));
#296=PRODUCT_CATEGORY('','');
#297=PRODUCT_CONTEXT('',#299,'mechanical');
#298=APPLICATION_PROTOCOL_DEFINITION('international standard',
'ap242_managed_model_based_3d_engineering',2020,#299);
#299=APPLICATION_CONTEXT('managed model based 3d engineering');
ENDSEC;
END-ISO-10303-21;
