ISO-10303-21;
HEADER;
/* Generated by software containing ST-Developer
 * from STEP Tools, Inc. (www.steptools.com) 
 */
/* OPTION: using custom renumber hook */

FILE_DESCRIPTION(
/* description */ ('STEP AP242 Edition 2',
'CAx-IF Rec.Pracs.---Representation and Presentation of Product Manufa
cturing Information (PMI)---4.0---2014-10-13',
'CAx-IF Rec.Pracs.---3D Tessellated Geometry---0.4---2014-09-14','2;1',
'CAx-IF Rec.Pracs.---User Defined Attributes---1.5---2016-08-15'),
/* implementation_level */ '2;1');

FILE_NAME(
/* name */ '14IN WHEELS - rim',
/* time_stamp */ '2026-07-12T21:18:16Z',
/* author */ (''),
/* organization */ (''),
/* preprocessor_version */ 'ST-DEVELOPER v20',
/* originating_system */ 'ONSHAPE BY PTC INC, 1.217',
/* authorisation */ '  ');

FILE_SCHEMA (('AP242_MANAGED_MODEL_BASED_3D_ENGINEERING_MIM_LF { 1 0 10303 442 3 1 4 }'));
ENDSEC;

DATA;
#10=SHAPE_REPRESENTATION_RELATIONSHIP('','',#210,#11);
#11=ADVANCED_BREP_SHAPE_REPRESENTATION('',(#208),#369);
#12=PLANE('',#220);
#13=PLANE('',#238);
#14=PLANE('',#242);
#15=PLANE('',#244);
#16=CONICAL_SURFACE('',#218,0.08,0.588002603547568);
#17=CONICAL_SURFACE('',#225,0.1,0.380506377112365);
#18=CONICAL_SURFACE('',#230,0.08,0.588002603547568);
#19=CONICAL_SURFACE('',#234,0.1,0.380506377112365);
#20=TOROIDAL_SURFACE('',#215,0.06964816241512,0.01);
#21=TOROIDAL_SURFACE('',#221,0.0904329952558878,0.01);
#22=TOROIDAL_SURFACE('',#223,0.088229670385731,0.01);
#23=TOROIDAL_SURFACE('',#227,0.0904329952558878,0.01);
#24=TOROIDAL_SURFACE('',#232,0.088229670385731,0.01);
#25=TOROIDAL_SURFACE('',#236,0.109739230729988,0.007);
#26=TOROIDAL_SURFACE('',#240,0.109739230729988,0.007);
#27=ORIENTED_EDGE('',*,*,#61,.F.);
#28=ORIENTED_EDGE('',*,*,#62,.F.);
#29=ORIENTED_EDGE('',*,*,#63,.T.);
#30=ORIENTED_EDGE('',*,*,#64,.T.);
#31=ORIENTED_EDGE('',*,*,#65,.F.);
#32=ORIENTED_EDGE('',*,*,#63,.F.);
#33=ORIENTED_EDGE('',*,*,#64,.F.);
#34=ORIENTED_EDGE('',*,*,#61,.T.);
#35=ORIENTED_EDGE('',*,*,#66,.T.);
#36=ORIENTED_EDGE('',*,*,#65,.T.);
#37=ORIENTED_EDGE('',*,*,#67,.T.);
#38=ORIENTED_EDGE('',*,*,#66,.F.);
#39=ORIENTED_EDGE('',*,*,#68,.F.);
#40=ORIENTED_EDGE('',*,*,#67,.F.);
#41=ORIENTED_EDGE('',*,*,#69,.T.);
#42=ORIENTED_EDGE('',*,*,#70,.T.);
#43=ORIENTED_EDGE('',*,*,#71,.T.);
#44=ORIENTED_EDGE('',*,*,#70,.F.);
#45=ORIENTED_EDGE('',*,*,#69,.F.);
#46=ORIENTED_EDGE('',*,*,#72,.T.);
#47=ORIENTED_EDGE('',*,*,#72,.F.);
#48=ORIENTED_EDGE('',*,*,#73,.F.);
#49=ORIENTED_EDGE('',*,*,#74,.T.);
#50=ORIENTED_EDGE('',*,*,#73,.T.);
#51=ORIENTED_EDGE('',*,*,#75,.F.);
#52=ORIENTED_EDGE('',*,*,#74,.F.);
#53=ORIENTED_EDGE('',*,*,#68,.T.);
#54=ORIENTED_EDGE('',*,*,#76,.T.);
#55=ORIENTED_EDGE('',*,*,#77,.T.);
#56=ORIENTED_EDGE('',*,*,#76,.F.);
#57=ORIENTED_EDGE('',*,*,#71,.F.);
#58=ORIENTED_EDGE('',*,*,#62,.T.);
#59=ORIENTED_EDGE('',*,*,#77,.F.);
#60=ORIENTED_EDGE('',*,*,#75,.T.);
#61=EDGE_CURVE('',#78,#78,#95,.T.);
#62=EDGE_CURVE('',#79,#79,#96,.T.);
#63=EDGE_CURVE('',#80,#80,#97,.T.);
#64=EDGE_CURVE('',#81,#81,#98,.T.);
#65=EDGE_CURVE('',#82,#82,#99,.T.);
#66=EDGE_CURVE('',#83,#83,#100,.T.);
#67=EDGE_CURVE('',#84,#84,#101,.T.);
#68=EDGE_CURVE('',#85,#85,#102,.T.);
#69=EDGE_CURVE('',#86,#86,#103,.T.);
#70=EDGE_CURVE('',#87,#87,#104,.T.);
#71=EDGE_CURVE('',#88,#88,#105,.T.);
#72=EDGE_CURVE('',#89,#89,#106,.T.);
#73=EDGE_CURVE('',#90,#90,#107,.T.);
#74=EDGE_CURVE('',#91,#91,#108,.T.);
#75=EDGE_CURVE('',#92,#92,#109,.T.);
#76=EDGE_CURVE('',#93,#93,#110,.T.);
#77=EDGE_CURVE('',#94,#94,#111,.T.);
#78=VERTEX_POINT('',#319);
#79=VERTEX_POINT('',#321);
#80=VERTEX_POINT('',#324);
#81=VERTEX_POINT('',#326);
#82=VERTEX_POINT('',#329);
#83=VERTEX_POINT('',#333);
#84=VERTEX_POINT('',#336);
#85=VERTEX_POINT('',#339);
#86=VERTEX_POINT('',#342);
#87=VERTEX_POINT('',#344);
#88=VERTEX_POINT('',#347);
#89=VERTEX_POINT('',#350);
#90=VERTEX_POINT('',#353);
#91=VERTEX_POINT('',#356);
#92=VERTEX_POINT('',#359);
#93=VERTEX_POINT('',#362);
#94=VERTEX_POINT('',#365);
#95=CIRCLE('',#213,0.0085);
#96=CIRCLE('',#214,0.0085);
#97=CIRCLE('',#216,0.0779686653584985);
#98=CIRCLE('',#217,0.06964816241512);
#99=CIRCLE('',#219,0.0821124923125093);
#100=CIRCLE('',#222,0.0893313328208094);
#101=CIRCLE('',#224,0.0975144372945836);
#102=CIRCLE('',#226,0.103239893893791);
#103=CIRCLE('',#228,0.0893313328208094);
#104=CIRCLE('',#229,0.0821124923125093);
#105=CIRCLE('',#231,0.075);
#106=CIRCLE('',#233,0.0975144372945836);
#107=CIRCLE('',#235,0.103239893893791);
#108=CIRCLE('',#237,0.109739230729988);
#109=CIRCLE('',#239,0.115);
#110=CIRCLE('',#241,0.109739230729988);
#111=CIRCLE('',#243,0.115);
#112=EDGE_LOOP('',(#27));
#113=EDGE_LOOP('',(#28));
#114=EDGE_LOOP('',(#29));
#115=EDGE_LOOP('',(#30));
#116=EDGE_LOOP('',(#31));
#117=EDGE_LOOP('',(#32));
#118=EDGE_LOOP('',(#33));
#119=EDGE_LOOP('',(#34));
#120=EDGE_LOOP('',(#35));
#121=EDGE_LOOP('',(#36));
#122=EDGE_LOOP('',(#37));
#123=EDGE_LOOP('',(#38));
#124=EDGE_LOOP('',(#39));
#125=EDGE_LOOP('',(#40));
#126=EDGE_LOOP('',(#41));
#127=EDGE_LOOP('',(#42));
#128=EDGE_LOOP('',(#43));
#129=EDGE_LOOP('',(#44));
#130=EDGE_LOOP('',(#45));
#131=EDGE_LOOP('',(#46));
#132=EDGE_LOOP('',(#47));
#133=EDGE_LOOP('',(#48));
#134=EDGE_LOOP('',(#49));
#135=EDGE_LOOP('',(#50));
#136=EDGE_LOOP('',(#51));
#137=EDGE_LOOP('',(#52));
#138=EDGE_LOOP('',(#53));
#139=EDGE_LOOP('',(#54));
#140=EDGE_LOOP('',(#55));
#141=EDGE_LOOP('',(#56));
#142=EDGE_LOOP('',(#57));
#143=EDGE_LOOP('',(#58));
#144=EDGE_LOOP('',(#59));
#145=EDGE_LOOP('',(#60));
#146=FACE_BOUND('',#112,.T.);
#147=FACE_BOUND('',#113,.T.);
#148=FACE_BOUND('',#114,.T.);
#149=FACE_BOUND('',#115,.T.);
#150=FACE_BOUND('',#116,.T.);
#151=FACE_BOUND('',#117,.T.);
#152=FACE_BOUND('',#118,.T.);
#153=FACE_BOUND('',#119,.T.);
#154=FACE_BOUND('',#120,.T.);
#155=FACE_BOUND('',#121,.T.);
#156=FACE_BOUND('',#122,.T.);
#157=FACE_BOUND('',#123,.T.);
#158=FACE_BOUND('',#124,.T.);
#159=FACE_BOUND('',#125,.T.);
#160=FACE_BOUND('',#126,.T.);
#161=FACE_BOUND('',#127,.T.);
#162=FACE_BOUND('',#128,.T.);
#163=FACE_BOUND('',#129,.T.);
#164=FACE_BOUND('',#130,.T.);
#165=FACE_BOUND('',#131,.T.);
#166=FACE_BOUND('',#132,.T.);
#167=FACE_BOUND('',#133,.T.);
#168=FACE_BOUND('',#134,.T.);
#169=FACE_BOUND('',#135,.T.);
#170=FACE_BOUND('',#136,.T.);
#171=FACE_BOUND('',#137,.T.);
#172=FACE_BOUND('',#138,.T.);
#173=FACE_BOUND('',#139,.T.);
#174=FACE_BOUND('',#140,.T.);
#175=FACE_BOUND('',#141,.T.);
#176=FACE_BOUND('',#142,.T.);
#177=FACE_BOUND('',#143,.T.);
#178=FACE_BOUND('',#144,.T.);
#179=FACE_BOUND('',#145,.T.);
#180=CYLINDRICAL_SURFACE('',#212,0.0085);
#181=CYLINDRICAL_SURFACE('',#245,0.115);
#182=ADVANCED_FACE('',(#146,#147),#180,.F.);
#183=ADVANCED_FACE('',(#148,#149),#20,.F.);
#184=ADVANCED_FACE('',(#150,#151),#16,.F.);
#185=ADVANCED_FACE('',(#152,#153),#12,.T.);
#186=ADVANCED_FACE('',(#154,#155),#21,.T.);
#187=ADVANCED_FACE('',(#156,#157),#22,.F.);
#188=ADVANCED_FACE('',(#158,#159),#17,.F.);
#189=ADVANCED_FACE('',(#160,#161),#23,.T.);
#190=ADVANCED_FACE('',(#162,#163),#18,.F.);
#191=ADVANCED_FACE('',(#164,#165),#24,.F.);
#192=ADVANCED_FACE('',(#166,#167),#19,.F.);
#193=ADVANCED_FACE('',(#168,#169),#25,.T.);
#194=ADVANCED_FACE('',(#170,#171),#13,.T.);
#195=ADVANCED_FACE('',(#172,#173),#26,.T.);
#196=ADVANCED_FACE('',(#174,#175),#14,.T.);
#197=ADVANCED_FACE('',(#176,#177),#15,.T.);
#198=ADVANCED_FACE('',(#178,#179),#181,.T.);
#199=CLOSED_SHELL('',(#182,#183,#184,#185,#186,#187,#188,#189,#190,#191,
#192,#193,#194,#195,#196,#197,#198));
#200=STYLED_ITEM('',(#201),#208);
#201=PRESENTATION_STYLE_ASSIGNMENT((#202));
#202=SURFACE_STYLE_USAGE(.BOTH.,#203);
#203=SURFACE_SIDE_STYLE('',(#204));
#204=SURFACE_STYLE_FILL_AREA(#205);
#205=FILL_AREA_STYLE('',(#206));
#206=FILL_AREA_STYLE_COLOUR('',#207);
#207=COLOUR_RGB('',0.96078431372549,0.96078431372549,0.96078431372549);
#208=MANIFOLD_SOLID_BREP('rim',#199);
#209=SHAPE_DEFINITION_REPRESENTATION(#374,#210);
#210=SHAPE_REPRESENTATION('rim',(#211),#369);
#211=AXIS2_PLACEMENT_3D('',#316,#246,#247);
#212=AXIS2_PLACEMENT_3D('',#317,#248,#249);
#213=AXIS2_PLACEMENT_3D('',#318,#250,#251);
#214=AXIS2_PLACEMENT_3D('',#320,#252,#253);
#215=AXIS2_PLACEMENT_3D('',#322,#254,#255);
#216=AXIS2_PLACEMENT_3D('',#323,#256,#257);
#217=AXIS2_PLACEMENT_3D('',#325,#258,#259);
#218=AXIS2_PLACEMENT_3D('',#327,#260,#261);
#219=AXIS2_PLACEMENT_3D('',#328,#262,#263);
#220=AXIS2_PLACEMENT_3D('',#330,#264,#265);
#221=AXIS2_PLACEMENT_3D('',#331,#266,#267);
#222=AXIS2_PLACEMENT_3D('',#332,#268,#269);
#223=AXIS2_PLACEMENT_3D('',#334,#270,#271);
#224=AXIS2_PLACEMENT_3D('',#335,#272,#273);
#225=AXIS2_PLACEMENT_3D('',#337,#274,#275);
#226=AXIS2_PLACEMENT_3D('',#338,#276,#277);
#227=AXIS2_PLACEMENT_3D('',#340,#278,#279);
#228=AXIS2_PLACEMENT_3D('',#341,#280,#281);
#229=AXIS2_PLACEMENT_3D('',#343,#282,#283);
#230=AXIS2_PLACEMENT_3D('',#345,#284,#285);
#231=AXIS2_PLACEMENT_3D('',#346,#286,#287);
#232=AXIS2_PLACEMENT_3D('',#348,#288,#289);
#233=AXIS2_PLACEMENT_3D('',#349,#290,#291);
#234=AXIS2_PLACEMENT_3D('',#351,#292,#293);
#235=AXIS2_PLACEMENT_3D('',#352,#294,#295);
#236=AXIS2_PLACEMENT_3D('',#354,#296,#297);
#237=AXIS2_PLACEMENT_3D('',#355,#298,#299);
#238=AXIS2_PLACEMENT_3D('',#357,#300,#301);
#239=AXIS2_PLACEMENT_3D('',#358,#302,#303);
#240=AXIS2_PLACEMENT_3D('',#360,#304,#305);
#241=AXIS2_PLACEMENT_3D('',#361,#306,#307);
#242=AXIS2_PLACEMENT_3D('',#363,#308,#309);
#243=AXIS2_PLACEMENT_3D('',#364,#310,#311);
#244=AXIS2_PLACEMENT_3D('',#366,#312,#313);
#245=AXIS2_PLACEMENT_3D('',#367,#314,#315);
#246=DIRECTION('',(0.,0.,1.));
#247=DIRECTION('',(1.,0.,0.));
#248=DIRECTION('',(0.,1.,0.));
#249=DIRECTION('',(1.,0.,0.));
#250=DIRECTION('',(0.,1.,0.));
#251=DIRECTION('',(1.,0.,0.));
#252=DIRECTION('',(0.,-1.,0.));
#253=DIRECTION('',(1.,0.,0.));
#254=DIRECTION('',(0.,-1.,0.));
#255=DIRECTION('',(0.,0.,-1.));
#256=DIRECTION('',(0.,-1.,0.));
#257=DIRECTION('',(-1.,0.,0.));
#258=DIRECTION('',(0.,1.,0.));
#259=DIRECTION('',(-1.,0.,1.22464679914735E-16));
#260=DIRECTION('',(0.,-1.,0.));
#261=DIRECTION('',(1.,0.,0.));
#262=DIRECTION('',(0.,1.,0.));
#263=DIRECTION('',(1.,0.,5.0532154980743E-16));
#264=DIRECTION('',(0.,-1.,0.));
#265=DIRECTION('',(0.,0.,-1.));
#266=DIRECTION('',(0.,1.,0.));
#267=DIRECTION('',(1.,0.,5.0532154980743E-16));
#268=DIRECTION('',(0.,-1.,0.));
#269=DIRECTION('',(1.,0.,5.0532154980743E-16));
#270=DIRECTION('',(0.,-1.,0.));
#271=DIRECTION('',(0.,0.,-1.));
#272=DIRECTION('',(0.,-1.,0.));
#273=DIRECTION('',(-1.,0.,0.));
#274=DIRECTION('',(0.,-1.,0.));
#275=DIRECTION('',(1.,0.,0.));
#276=DIRECTION('',(0.,1.,0.));
#277=DIRECTION('',(-1.,0.,0.));
#278=DIRECTION('',(0.,-1.,0.));
#279=DIRECTION('',(1.,0.,5.0532154980743E-16));
#280=DIRECTION('',(0.,1.,0.));
#281=DIRECTION('',(1.,0.,5.0532154980743E-16));
#282=DIRECTION('',(0.,-1.,0.));
#283=DIRECTION('',(1.,0.,5.0532154980743E-16));
#284=DIRECTION('',(0.,1.,0.));
#285=DIRECTION('',(1.,0.,0.));
#286=DIRECTION('',(0.,-1.,0.));
#287=DIRECTION('',(1.,0.,0.));
#288=DIRECTION('',(0.,-1.,0.));
#289=DIRECTION('',(0.,0.,-1.));
#290=DIRECTION('',(0.,1.,0.));
#291=DIRECTION('',(-1.,0.,0.));
#292=DIRECTION('',(0.,1.,0.));
#293=DIRECTION('',(1.,0.,0.));
#294=DIRECTION('',(0.,-1.,0.));
#295=DIRECTION('',(-1.,0.,0.));
#296=DIRECTION('',(0.,-1.,0.));
#297=DIRECTION('',(0.,0.,-1.));
#298=DIRECTION('',(0.,1.,0.));
#299=DIRECTION('',(-1.,0.,1.22464679914735E-16));
#300=DIRECTION('',(0.,1.,0.));
#301=DIRECTION('',(0.,0.,1.));
#302=DIRECTION('',(0.,-1.,0.));
#303=DIRECTION('',(1.,0.,0.));
#304=DIRECTION('',(0.,-1.,0.));
#305=DIRECTION('',(0.,0.,-1.));
#306=DIRECTION('',(0.,-1.,0.));
#307=DIRECTION('',(-1.,0.,1.22464679914735E-16));
#308=DIRECTION('',(0.,-1.,0.));
#309=DIRECTION('',(0.,0.,-1.));
#310=DIRECTION('',(0.,-1.,0.));
#311=DIRECTION('',(1.,0.,0.));
#312=DIRECTION('',(0.,1.,0.));
#313=DIRECTION('',(0.,0.,1.));
#314=DIRECTION('',(0.,-1.,0.));
#315=DIRECTION('',(1.,0.,0.));
#316=CARTESIAN_POINT('',(0.,0.,0.));
#317=CARTESIAN_POINT('',(0.,-0.01,0.));
#318=CARTESIAN_POINT('',(0.,-0.01,0.));
#319=CARTESIAN_POINT('',(0.0085,-0.01,0.));
#320=CARTESIAN_POINT('',(0.,0.01,0.));
#321=CARTESIAN_POINT('',(0.0085,0.01,0.));
#322=CARTESIAN_POINT('',(0.,-0.02,0.));
#323=CARTESIAN_POINT('',(0.,-0.0144529980377477,-9.54840764650763E-18));
#324=CARTESIAN_POINT('',(-0.0779686653584985,-0.0144529980377477,-9.54840764650763E-18));
#325=CARTESIAN_POINT('',(0.,-0.01,0.));
#326=CARTESIAN_POINT('',(-0.06964816241512,-0.01,8.52943991681715E-18));
#327=CARTESIAN_POINT('',(0.,-0.0175,0.));
#328=CARTESIAN_POINT('',(0.,-0.020668738468764,0.));
#329=CARTESIAN_POINT('',(0.0821124923125093,-0.020668738468764,4.14932118739079E-17));
#330=CARTESIAN_POINT('',(0.,-0.01,0.));
#331=CARTESIAN_POINT('',(0.,-0.0151217365065117,0.));
#332=CARTESIAN_POINT('',(0.,-0.0250608682532559,0.));
#333=CARTESIAN_POINT('',(0.0893313328208094,-0.0250608682532559,4.51410475473747E-17));
#334=CARTESIAN_POINT('',(0.,-0.035,0.));
#335=CARTESIAN_POINT('',(0.,-0.031286093236459,-1.19420743503467E-17));
#336=CARTESIAN_POINT('',(-0.0975144372945836,-0.031286093236459,-1.19420743503467E-17));
#337=CARTESIAN_POINT('',(0.,-0.0375,0.));
#338=CARTESIAN_POINT('',(0.,-0.0455997347344787,-1.26432405601344E-17));
#339=CARTESIAN_POINT('',(-0.103239893893791,-0.0455997347344787,-1.26432405601344E-17));
#340=CARTESIAN_POINT('',(0.,0.0151217365065117,0.));
#341=CARTESIAN_POINT('',(0.,0.0250608682532559,0.));
#342=CARTESIAN_POINT('',(0.0893313328208094,0.0250608682532559,4.51410475473747E-17));
#343=CARTESIAN_POINT('',(0.,0.020668738468764,0.));
#344=CARTESIAN_POINT('',(0.0821124923125093,0.020668738468764,4.14932118739079E-17));
#345=CARTESIAN_POINT('',(0.,0.0175,0.));
#346=CARTESIAN_POINT('',(0.,0.01,0.));
#347=CARTESIAN_POINT('',(0.075,0.01,0.));
#348=CARTESIAN_POINT('',(0.,0.035,0.));
#349=CARTESIAN_POINT('',(0.,0.031286093236459,-1.19420743503467E-17));
#350=CARTESIAN_POINT('',(-0.0975144372945836,0.031286093236459,-1.19420743503467E-17));
#351=CARTESIAN_POINT('',(0.,0.0375,0.));
#352=CARTESIAN_POINT('',(0.,0.0455997347344787,-1.26432405601344E-17));
#353=CARTESIAN_POINT('',(-0.103239893893791,0.0455997347344787,-1.26432405601344E-17));
#354=CARTESIAN_POINT('',(0.,0.043,0.));
#355=CARTESIAN_POINT('',(0.,0.05,0.));
#356=CARTESIAN_POINT('',(-0.109739230729988,0.05,1.34391797654372E-17));
#357=CARTESIAN_POINT('',(0.115,0.05,0.));
#358=CARTESIAN_POINT('',(0.,0.05,0.));
#359=CARTESIAN_POINT('',(0.115,0.05,0.));
#360=CARTESIAN_POINT('',(0.,-0.043,0.));
#361=CARTESIAN_POINT('',(0.,-0.05,0.));
#362=CARTESIAN_POINT('',(-0.109739230729988,-0.05,1.34391797654372E-17));
#363=CARTESIAN_POINT('',(0.105,-0.05,0.));
#364=CARTESIAN_POINT('',(0.,-0.05,0.));
#365=CARTESIAN_POINT('',(0.115,-0.05,0.));
#366=CARTESIAN_POINT('',(0.075,0.01,0.));
#367=CARTESIAN_POINT('',(0.,0.,0.));
#368=MECHANICAL_DESIGN_GEOMETRIC_PRESENTATION_REPRESENTATION('',(#200),
#369);
#369=(
GEOMETRIC_REPRESENTATION_CONTEXT(3)
GLOBAL_UNCERTAINTY_ASSIGNED_CONTEXT((#370))
GLOBAL_UNIT_ASSIGNED_CONTEXT((#373,#372,#371))
REPRESENTATION_CONTEXT('rim','TOP_LEVEL_ASSEMBLY_PART')
);
#370=UNCERTAINTY_MEASURE_WITH_UNIT(LENGTH_MEASURE(1.E-8),#373,
'DISTANCE_ACCURACY_VALUE','Maximum Tolerance applied to model');
#371=(
NAMED_UNIT(*)
SI_UNIT($,.STERADIAN.)
SOLID_ANGLE_UNIT()
);
#372=(
NAMED_UNIT(*)
PLANE_ANGLE_UNIT()
SI_UNIT($,.RADIAN.)
);
#373=(
LENGTH_UNIT()
NAMED_UNIT(*)
SI_UNIT($,.METRE.)
);
#374=PRODUCT_DEFINITION_SHAPE('','',#375);
#375=PRODUCT_DEFINITION('','',#377,#376);
#376=PRODUCT_DEFINITION_CONTEXT('',#383,'design');
#377=PRODUCT_DEFINITION_FORMATION_WITH_SPECIFIED_SOURCE('','',#379,
 .NOT_KNOWN.);
#378=PRODUCT_RELATED_PRODUCT_CATEGORY('','',(#379));
#379=PRODUCT('rim','rim','rim',(#381));
#380=PRODUCT_CATEGORY('','');
#381=PRODUCT_CONTEXT('',#383,'mechanical');
#382=APPLICATION_PROTOCOL_DEFINITION('international standard',
'ap242_managed_model_based_3d_engineering',2020,#383);
#383=APPLICATION_CONTEXT('managed model based 3d engineering');
ENDSEC;
END-ISO-10303-21;
