<svg xmlns="http://www.w3.org/2000/svg" version="1.1" xmlns:xlink="http://www.w3.org/1999/xlink" width="1000" height="1000"><metadata><rdf:RDF xmlns:rdf="http://www.w3.org/1999/02/22-rdf-syntax-ns#" xmlns:dc="http://purl.org/dc/elements/1.1/"><rdf:Description><dc:creator>RealFaviconGenerator</dc:creator><dc:source>https://realfavicongenerator.net</dc:source></rdf:Description></rdf:RDF></metadata><style>
    #light-icon {
      display: inline;
    }
    #dark-icon {
      display: none;
    }

    @media (prefers-color-scheme: dark) {
      #light-icon {
        display: none;
      }
      #dark-icon {
        display: inline;
      }
    }
  </style><g id="light-icon"><svg xmlns="http://www.w3.org/2000/svg" version="1.1" xmlns:xlink="http://www.w3.org/1999/xlink" width="1000" height="1000"><g clip-path="url(#SvgjsClipPath2224)"><rect width="1000" height="1000" fill="#24022d"></rect><g transform="matrix(2.0059778138853783,0,0,2.0059778138853783,5.684341886080802e-14,5.684341886080802e-14)"><svg xmlns="http://www.w3.org/2000/svg" version="1.1" xmlns:xlink="http://www.w3.org/1999/xlink" width="498.51" height="498.51" id="screenshot-58aeb570-5662-8031-8006-c02d7c3f1867" viewBox="0 0 498.51 498.51" fill="none"><g id="shape-58aeb570-5662-8031-8006-c02d7c3f1867"><g class="frame-container-wrapper"><g class="frame-container-blur"><g class="frame-container-shadows"><g fill="none"><g class="fills" id="fills-58aeb570-5662-8031-8006-c02d7c3f1867"><rect rx="0" ry="0" x="0" y="0" width="498.51028073651605" height="498.5102807365156" transform="matrix(1.000000, 0.000000, 0.000000, 1.000000, 0.000000, 0.000000)" class="frame-background"></rect></g><g class="frame-children"><g id="shape-bad4d2ef-21be-80c5-8006-6c55ee17d31a" rx="0" ry="0"><g id="shape-bad4d2ef-21be-80c5-8006-6c55ee17d31b"><defs><clipPath id="frame-clip-bad4d2ef-21be-80c5-8006-6c55ee17d31b-render-3" class="frame-clip frame-clip-def"><rect rx="24" ry="24" x="76.36407105749413" y="76.16422196777694" width="349.6003018205656" height="350" transform="matrix(0.707107, 0.707107, -0.707107, 0.707107, 251.164222, -104.035627)"></rect></clipPath><clipPath id="SvgjsClipPath2224"><rect width="1000" height="1000" x="0" y="0" rx="100" ry="100"></rect></clipPath></defs><g class="frame-container-wrapper"><g class="frame-container-blur"><g class="frame-container-shadows"><g clip-path="url(#frame-clip-bad4d2ef-21be-80c5-8006-6c55ee17d31b-render-3)" fill="none"><g class="fills" id="fills-bad4d2ef-21be-80c5-8006-6c55ee17d31b"><rect width="349.6003018205656" height="350" class="frame-background" x="76.36407105749413" transform="matrix(0.707107, 0.707107, -0.707107, 0.707107, 251.164222, -104.035627)" style="fill: rgb(180, 11, 223); fill-opacity: 0.2;" ry="24" rx="24" y="76.16422196777694"></rect></g><g class="frame-children"></g></g></g><g id="strokes-e7192f4c-b38a-80ed-8007-ccbd101dc88b-bad4d2ef-21be-80c5-8006-6c55ee17d31b" class="strokes"><g class="outer-stroke-shape"><defs><linearGradient id="stroke-color-gradient-render-3-0" x1="1" y1="0.5" x2="0" y2="0.5000000000000001" gradientTransform=""><stop offset="0" stop-color="#ffd200" stop-opacity="1"></stop><stop offset="0.33000000000000007" stop-color="#ec8c78" stop-opacity="1"></stop><stop offset="0.67" stop-color="#e779c1" stop-opacity="1"></stop><stop offset="1" stop-color="#58c7f3" stop-opacity="1"></stop></linearGradient><mask id="outer-stroke-render-3-bad4d2ef-21be-80c5-8006-6c55ee17d31b-0" x="2.828213705377115" y="2.828213705377115" width="496.67201652479963" height="496.67201652479963" maskUnits="userSpaceOnUse"><use href="#stroke-shape-render-3-bad4d2ef-21be-80c5-8006-6c55ee17d31b-0" style="fill: none; stroke: white; stroke-width: 1.4;"></use><use href="#stroke-shape-render-3-bad4d2ef-21be-80c5-8006-6c55ee17d31b-0" style="fill: black; stroke: none;"></use></mask><rect width="349.6003018205656" height="350" class="frame-background" x="76.36407105749413" id="stroke-shape-render-3-bad4d2ef-21be-80c5-8006-6c55ee17d31b-0" transform="matrix(0.707107, 0.707107, -0.707107, 0.707107, 251.164222, -104.035627)" ry="24" rx="24" y="76.16422196777694"></rect></defs><use href="#stroke-shape-render-3-bad4d2ef-21be-80c5-8006-6c55ee17d31b-0" mask="url(#outer-stroke-render-3-bad4d2ef-21be-80c5-8006-6c55ee17d31b-0)" style="fill: none; stroke-width: 1.4; stroke: url(&quot;#stroke-color-gradient-render-3-0&quot;);"></use><use href="#stroke-shape-render-3-bad4d2ef-21be-80c5-8006-6c55ee17d31b-0" style="fill: none; stroke-width: 0.7; stroke: none;"></use></g></g></g></g></g><g id="shape-bad4d2ef-21be-80c5-8006-6c55ee17d31c" height="800" class="iconify iconify--noto" rx="0" ry="0" style="fill: rgb(0, 0, 0);"><g id="shape-bad4d2ef-21be-80c5-8006-6c55ee17d31e" style="display: none;"><g class="fills" id="fills-bad4d2ef-21be-80c5-8006-6c55ee17d31e"><rect width="245.2357508899836" height="245.98136645962632" x="109.48844718651299" transform="matrix(0.707107, 0.707107, -0.707107, 0.707107, 201.476289, -108.828962)" style="fill: none;" ry="0" fill="none" rx="0" y="65.79822999765611"></rect></g></g><g id="shape-bad4d2ef-21be-80c5-8006-6c55ee17d31f"><g class="fills" id="fills-bad4d2ef-21be-80c5-8006-6c55ee17d31f"><path d="M182.26513671875,282.0091552734375C180.7978515625,283.4766845703125,178.585205078125,283.87353515625,176.6875,283.0352783203125C172.931396484375,281.3720703125,166.0859375,277.2437744140625,155.84423828125,267.0020751953125C145.3447265625,256.5028076171875,141.041015625,249.345703125,139.3232421875,245.50830078125C138.4853515625,243.6370849609375,138.92236328125,241.4388427734375,140.376708984375,239.984375L161.072265625,219.2890625L203.04248046875,261.2593994140625L182.279296875,282.0228271484375Z" style="fill: rgb(255, 202, 40);"></path></g></g><g id="shape-bad4d2ef-21be-80c5-8006-6c55ee17d320"><g class="fills" id="fills-bad4d2ef-21be-80c5-8006-6c55ee17d320"><path d="M182.26513671875,282.0091552734375C182.26513671875,282.0091552734375,173.09033203125,284.248291015625,155.83056640625,266.9886474609375C138.57080078125,249.72900390625,140.363037109375,239.9705810546875,140.363037109375,239.9705810546875" fill="none" stroke-linecap="round" stroke-miterlimit="10" style="fill: none;"></path></g><g fill="none" stroke-linecap="round" stroke-miterlimit="10" id="strokes-e7192f4c-b38a-80ed-8007-ccbd10206468-bad4d2ef-21be-80c5-8006-6c55ee17d320" class="strokes"><g class="stroke-shape"><path d="M182.26513671875,282.0091552734375C182.26513671875,282.0091552734375,173.09033203125,284.248291015625,155.83056640625,266.9886474609375C138.57080078125,249.72900390625,140.363037109375,239.9705810546875,140.363037109375,239.9705810546875" style="fill: none; stroke-width: 13.4378; stroke: rgb(255, 202, 40); stroke-opacity: 1;"></path></g></g></g><g id="shape-bad4d2ef-21be-80c5-8006-6c55ee17d321"><g class="fills" id="fills-bad4d2ef-21be-80c5-8006-6c55ee17d321"><path d="M161.125244140625,228.691650390625L154.4404296875,225.893310546875L152.266357421875,228.067138671875C152.266357421875,228.067138671875,155.553955078125,234.724609375,170.862060546875,250.033203125C186.1708984375,265.3416748046875,194.318359375,269.9559326171875,194.318359375,269.9559326171875L199.11474609375,265.1591796875L161.125244140625,228.691650390625Z" style="fill: rgb(255, 0, 0); fill-opacity: 1;"></path></g></g><g id="shape-bad4d2ef-21be-80c5-8006-6c55ee17d322"><g class="fills" id="fills-bad4d2ef-21be-80c5-8006-6c55ee17d322"><path d="M246.025390625,253.665771484375C242.529052734375,250.66943359375,245.616943359375,253.555908203125,222.102783203125,236.12890625C219.44677734375,234.15185546875,219.072265625,230.299560546875,221.2607421875,227.8134765625L280.462646484375,153.4112548828125L287.5263671875,165.693359375C288.18994140625,166.8455810546875,289.8857421875,166.7476806640625,290.429931640625,165.526123046875L315.46923828125,108.0811767578125C315.762451171875,107.323974609375,315.57666015625,106.4652099609375,314.997314453125,105.8980712890625C314.156982421875,105.0579833984375,313.13916015625,105.2901611328125,312.814453125,105.4261474609375L255.409912109375,130.478515625C254.84521484375,130.72509765625,254.46630859375,131.267822265625,254.4306640625,131.8817138671875C254.3955078125,132.49609375,254.70947265625,133.07666015625,255.2421875,133.382568359375L267.5244140625,140.4466552734375L193.122802734375,199.6484375C190.6357421875,201.836669921875,186.7705078125,201.4757080078125,184.806640625,198.8060302734375C167.38037109375,175.2913818359375,159.7001953125,148.6968994140625,183.34326171875,134.4276123046875C200.183837890625,124.2532958984375,214.931640625,125.139892578125,233.2822265625,102.5072021484375C245.37744140625,89.084716796875,253.714599609375,67.33544921875,256.890625,58.091064453125C257.462646484375,56.40771484375,255.76953125,54.876708984375,254.1533203125,55.5987548828125L191.30419921875,83.65771484375C190.2177734375,84.147705078125,189.9990234375,85.5863037109375,190.87890625,86.358642578125L204.9306640625,98.724609375C195.735595703125,105.12939453125,163.63623046875,103.3865966796875,139.85595703125,127.1668701171875C118.6572265625,148.365966796875,120.4873046875,194.41259765625,173.48486328125,247.4105224609375C226.48291015625,300.408447265625,234.330078125,282.8409423828125,255.515380859375,261.65576171875" style="fill: rgb(255, 202, 40);"></path></g></g><g id="shape-bad4d2ef-21be-80c5-8006-6c55ee17d323"><g class="fills" id="fills-bad4d2ef-21be-80c5-8006-6c55ee17d323"><path d="M191.3447265625,83.6982421875L217.35546875,92.423828125C215.450439453125,95.7373046875,204.98486328125,98.751708984375,204.98486328125,98.751708984375L190.93359375,86.385498046875C190.93359375,86.385498046875,190.255859375,85.816162109375,190.243896484375,85.01611328125C190.24462890625,84.2294921875,191.3447265625,83.6982421875,191.3447265625,83.6982421875Z" style="fill: rgb(255, 0, 0); fill-opacity: 1;"></path></g></g><g id="shape-bad4d2ef-21be-80c5-8006-6c55ee17d324"><g class="fills" id="fills-bad4d2ef-21be-80c5-8006-6c55ee17d324"><path d="M301.06201171875,115.2000732421875C302.17578125,114.709716796875,303.1640625,116.078369140625,302.3486328125,116.9754638671875C299.83447265625,119.7332763671875,296.34130859375,123.388427734375,293.448486328125,125.7403564453125C284.6591796875,132.849365234375,275.20361328125,131.9276123046875,270.52392578125,130.835693359375C269.479736328125,130.5797119140625,269.35986328125,129.1553955078125,270.35107421875,128.7054443359375L301.06201171875,115.2000732421875Z" style="fill: rgb(255, 236, 179);"></path></g></g><g id="shape-bad4d2ef-21be-80c5-8006-6c55ee17d325" style="display: none;"><g class="fills" id="fills-bad4d2ef-21be-80c5-8006-6c55ee17d325"><path d="M352.97412109375,177.547607421875C357.9072265625,172.6416015625,359.064208984375,170.021484375,353.32177734375,172.16064453125C345.7060546875,175.0072021484375,335.098876953125,181.44140625,327.0576171875,187.6134033203125C321.9228515625,191.556396484375,328.47705078125,191.098388671875,333.445068359375,189.5172119140625C337.93798828125,188.113037109375,345.07958984375,185.415283203125,352.97412109375,177.547607421875Z" style="fill: rgb(255, 236, 179);"></path></g></g><g id="shape-bad4d2ef-21be-80c5-8006-6c55ee17d326"><g class="fills" id="fills-bad4d2ef-21be-80c5-8006-6c55ee17d326"><path d="M244.42333984375,65.73486328125C245.23779296875,65.245361328125,246.1591796875,66.22119140625,245.62890625,66.9951171875C241.7802734375,72.79443359375,235.71826171875,79.83203125,224.586669921875,83.7294921875C216.95751953125,86.400390625,209.23876953125,85.150390625,205.0751953125,84.08447265625C204.675048828125,83.9864501953125,204.39501953125,83.6287841796875,204.39501953125,83.217529296875C204.395751953125,82.8052978515625,204.677734375,82.44677734375,205.07763671875,82.34814453125C209.12255859375,81.282958984375,216.66943359375,79.046630859375,225.3994140625,75.329345703125C233.77685546875,71.7755126953125,240.634521484375,67.9794921875,244.42333984375,65.73486328125Z" style="fill: rgb(255, 236, 179);"></path></g></g><g id="shape-bad4d2ef-21be-80c5-8006-6c55ee17d327"><g class="fills" id="fills-bad4d2ef-21be-80c5-8006-6c55ee17d327"><path d="M265.69091796875,141.92822265625C265.69091796875,141.92822265625,274.6279296875,135.9716796875,274.94091796875,135.658935546875C275.1982421875,135.401123046875,259.49072265625,132.57568359375,254.47216796875,131.687744140625C254.36279296875,132.3121337890625,254.605712890625,132.9901123046875,255.242431640625,133.355712890625L265.69091796875,141.92822265625Z" style="fill: rgb(255, 0, 0); fill-opacity: 1;"></path></g></g><g id="shape-bad4d2ef-21be-80c5-8006-6c55ee17d328"><g class="fills" id="fills-bad4d2ef-21be-80c5-8006-6c55ee17d328"><path d="M141.541748046875,241.09521484375C138.853271484375,242.0225830078125,138.0888671875,245.4156494140625,140.84912109375,250.3770751953125C142.973876953125,254.1865234375,146.5078125,258.943603515625,149.686279296875,256.2523193359375C151.15380859375,255.0020751953125,150.71044921875,252.356689453125,146.46044921875,245.334716796875C145.662109375,244.0196533203125,144.01220703125,240.250244140625,141.541748046875,241.09521484375Z" style="fill: rgb(255, 236, 179);"></path></g></g><g id="shape-bad4d2ef-21be-80c5-8006-6c55ee17d329"><g class="fills" id="fills-bad4d2ef-21be-80c5-8006-6c55ee17d329"><path d="M144.466796875,236.02978515625C145.0869140625,238.579833984375,148.44775390625,250.0941162109375,160.60009765625,262.2462158203125C174.10693359375,275.7530517578125,187.38818359375,276.9134521484375,187.38818359375,276.9134521484375L203.04248046875,261.2593994140625L190.607421875,256.6513671875C190.607421875,256.6513671875,186.59912109375,260.1446533203125,181.02880859375,265.71533203125C175.45703125,271.287109375,162.884765625,258.6610107421875,161.2451171875,257.0213623046875C145.625,241.4013671875,148.35302734375,232.0081787109375,148.339111328125,231.994384765625L144.466796875,235.9212646484375C144.453369140625,235.9349365234375,144.452392578125,235.9896240234375,144.466796875,236.02978515625Z" style="fill: rgb(255, 0, 0); fill-opacity: 1;"></path></g></g><g id="shape-bad4d2ef-21be-80c5-8006-6c55ee17d32a"><g class="fills" id="fills-bad4d2ef-21be-80c5-8006-6c55ee17d32a"><path d="M251.0068359375,281.147216796875C257.10009765625,280.499755859375,252.50927734375,275.1497802734375,246.51416015625,272.6546630859375C239.22265625,269.6195068359375,207.4228515625,253.4105224609375,195.028076171875,240.41748046875C191.681884765625,236.907958984375,206.09375,235.4210205078125,220.0048828125,232.7271728515625C219.66796875,231.03173828125,220.064453125,229.226318359375,221.2880859375,227.8135986328125L280.4892578125,153.41162109375L287.55322265625,165.693359375C288.216796875,166.8453369140625,289.91259765625,166.74853515625,290.45751953125,165.526123046875L286.61328125,141.5703125C286.35791015625,140.0111083984375,284.458984375,139.3895263671875,283.33154296875,140.489990234375L173.48486328125,247.4105224609375C184.048095703125,275.6885986328125,229.063720703125,283.36474609375,251.0068359375,281.147216796875L251.0068359375,281.147216796875" style="fill: rgb(255, 0, 0); fill-opacity: 1;"></path></g></g><g id="shape-bad4d2ef-21be-80c5-8006-6c55ee17d32b" style="display: none;"><g class="fills" id="fills-bad4d2ef-21be-80c5-8006-6c55ee17d32b"><path d="M238.5244140625,262.8018798828125L351.66162109375,149.664794921875L389.09521484375,187.0986328125L275.9580078125,300.2357177734375L238.5244140625,262.8018798828125" style="fill: rgb(46, 11, 51); fill-opacity: 1;"></path></g></g><g id="shape-bad4d2ef-21be-80c5-8006-6c55ee17d32c"><g class="fills" id="fills-bad4d2ef-21be-80c5-8006-6c55ee17d32c"><path d="M175.84765625,273.2540283203125C175.84765625,273.2540283203125,181.56787109375,276.5018310546875,180.774169921875,281.1434326171875C179.705810546875,287.3592529296875,174.943115234375,287.841064453125,174.943115234375,287.841064453125C174.943115234375,287.841064453125,184.638427734375,291.47607421875,187.8896484375,285.86767578125C190.9775390625,280.5579833984375,187.36083984375,276.913330078125,187.36083984375,276.913330078125L178.34521484375,272.30029296875L175.84765625,273.2540283203125Z" style="fill: rgb(255, 0, 0); fill-opacity: 1;"></path></g></g><g id="shape-bad4d2ef-21be-80c5-8006-6c55ee17d32d"><g class="fills" id="fills-bad4d2ef-21be-80c5-8006-6c55ee17d32d"><path d="M279.49755859375,154.5660400390625C279.49755859375,154.5660400390625,284.923583984375,146.267578125,285.236328125,145.9547119140625C285.494140625,145.697021484375,288.31982421875,161.40478515625,289.207275390625,166.4232177734375C288.583251953125,166.53271484375,287.905029296875,166.289794921875,287.53955078125,165.6531982421875L279.49755859375,154.5660400390625Z" style="fill: rgb(255, 0, 0); fill-opacity: 1;"></path></g></g><g id="shape-bad4d2ef-21be-80c5-8006-6c55ee17d32e"><g class="fills" id="fills-bad4d2ef-21be-80c5-8006-6c55ee17d32e"><path d="M152.359375,131.326904296875C165.32861328125,114.4835205078125,193.469970703125,113.9788818359375,193.469970703125,113.9788818359375C195.803955078125,113.6224365234375,196.74853515625,116.8504638671875,194.6171875,117.8441162109375C194.6171875,117.8441162109375,170.07763671875,123.010498046875,159.4287109375,139.6199951171875C149.255859375,155.483154296875,156.24267578125,174.155517578125,156.24267578125,174.155517578125C156.8095703125,176.3525390625,153.55078125,177.4971923828125,152.48193359375,175.5047607421875C147.24609375,165.86572265625,141.415283203125,145.54931640625,152.359375,131.326904296875Z" style="fill: rgb(255, 236, 179);"></path></g></g><g id="shape-bad4d2ef-21be-80c5-8006-6c55ee17d32f"><g class="fills" id="fills-bad4d2ef-21be-80c5-8006-6c55ee17d32f"><path d="M129.93994140625,143.4505615234375C121.423095703125,167.9808349609375,131.67724609375,205.6029052734375,173.48486328125,247.4105224609375C173.48486328125,247.4105224609375,177.771484375,229.92822265625,168.206787109375,220.363525390625C158.642578125,210.79931640625,138.02734375,187.601806640625,134.658203125,163.9578857421875C133.637939453125,156.7413330078125,133.8916015625,150.147216796875,134.63232421875,144.7186279296875C135.00341796875,141.8822021484375,130.89404296875,140.7357177734375,129.93994140625,143.4505615234375Z" style="fill: rgb(255, 0, 0); fill-opacity: 1;"></path></g></g><g id="shape-bad4d2ef-21be-80c5-8006-6c55ee17d330"><g class="fills" id="fills-bad4d2ef-21be-80c5-8006-6c55ee17d330"><path d="M213.51220703125,218.151123046875C212.59326171875,215.466552734375,209.2021484375,214.7117919921875,204.232421875,217.4864501953125C200.416259765625,219.623291015625,195.64892578125,223.171142578125,198.330078125,226.3427734375C199.576171875,227.805908203125,202.22314453125,227.3541259765625,209.25732421875,223.0828857421875C210.574462890625,222.2806396484375,214.348876953125,220.6197509765625,213.51220703125,218.151123046875Z" style="fill: rgb(255, 236, 179);"></path></g></g></g><g id="shape-bad4d2ef-21be-80c5-8006-6c55ee17d31d" width="800" height="800" class="iconify iconify--noto" rx="0" ry="0" style="fill: rgb(0, 0, 0);"><g id="shape-bad4d2ef-21be-80c5-8006-6c55ee17d331" style="display: none;"><g class="fills" id="fills-bad4d2ef-21be-80c5-8006-6c55ee17d331"><rect width="245.98136645962768" height="245.23575088998405" x="142.55306217244106" transform="matrix(-0.707107, 0.707107, -0.707107, -0.707107, 671.494773, 338.973164)" style="fill: none;" ry="0" fill="none" rx="0" y="185.93982778291434"></rect></g></g><g id="shape-bad4d2ef-21be-80c5-8006-6c55ee17d332"><g class="fills" id="fills-bad4d2ef-21be-80c5-8006-6c55ee17d332"><path d="M238.1083984375,398.7181396484375L224.01953125,411.1270751953125C223.13671875,411.9017333984375,223.35107421875,413.340087890625,224.435302734375,413.8267822265625L287.145263671875,441.6954345703125C288.7587890625,442.4119873046875,290.47119140625,440.862548828125,289.89013671875,439.1944580078125C286.755859375,429.9737548828125,278.472412109375,408.2364501953125,266.4169921875,394.8492431640625C248.282958984375,372.530517578125,233.4111328125,373.2041015625,216.57568359375,363.0806884765625C192.989013671875,348.869873046875,200.735595703125,322.264892578125,218.23388671875,298.6973876953125C220.21875,296.0350341796875,224.072509765625,295.6495361328125,226.5517578125,297.8302001953125L300.774658203125,356.806640625L288.47119140625,363.90771484375C287.3173828125,364.57421875,287.40966796875,366.270263671875,288.629638671875,366.8111572265625L345.99853515625,391.676025390625C346.755126953125,391.9666748046875,347.6142578125,391.778564453125,348.18359375,391.1973876953125C349.02587890625,390.354736328125,348.79736328125,389.3372802734375,348.662109375,389.012451171875L323.78369140625,331.6842041015625C323.5390625,331.1202392578125,322.997314453125,330.7430419921875,322.3837890625,330.709716796875C321.769287109375,330.6761474609375,321.1875,330.99169921875,320.880126953125,331.525634765625L313.77880859375,343.82958984375L254.802734375,269.6070556640625C252.6220703125,267.126708984375,252.993896484375,263.2596435546875,255.67041015625,261.288330078125C279.2373046875,243.7900390625,305.855712890625,236.02978515625,320.05322265625,259.6298828125C330.17626953125,276.439208984375,329.24462890625,291.1890869140625,351.82177734375,309.471435546875C365.20849609375,321.52685546875,386.93212890625,329.7974853515625,396.1669921875,332.9451904296875C397.8486328125,333.511962890625,399.38427734375,331.8135986328125,398.66796875,330.2005615234375L370.79931640625,267.4361572265625C370.312255859375,266.3511962890625,368.874267578125,266.136474609375,368.099609375,267.019775390625L355.6904296875,281.10888671875C349.31396484375,271.9326171875,351.15380859375,239.8277587890625,327.445556640625,216.11962890625C306.311767578125,194.9857177734375,260.259033203125,196.9547119140625,207.099853515625,250.1138916015625C153.940673828125,303.2730712890625,151.985107421875,349.3394775390625,173.105224609375,370.4598388671875C196.8134765625,394.1678466796875,226.408203125,383.458251953125,238.1083984375,398.7181396484375Z" style="fill: rgb(255, 202, 40);"></path></g></g><g id="shape-bad4d2ef-21be-80c5-8006-6c55ee17d333"><g class="fills" id="fills-bad4d2ef-21be-80c5-8006-6c55ee17d333"><path d="M370.7587890625,267.4769287109375L361.9541015625,293.5137939453125C358.646240234375,291.6190185546875,355.66357421875,281.1627197265625,355.66357421875,281.1627197265625L368.07275390625,267.07373046875C368.07275390625,267.07373046875,368.64404296875,266.3944091796875,369.44384765625,266.3800048828125C370.23095703125,266.378662109375,370.7587890625,267.4769287109375,370.7587890625,267.4769287109375Z" style="fill: rgb(255, 0, 0); fill-opacity: 1;"></path></g></g><g id="shape-bad4d2ef-21be-80c5-8006-6c55ee17d334"><g class="fills" id="fills-bad4d2ef-21be-80c5-8006-6c55ee17d334"><path d="M338.92333984375,377.2906494140625C339.410888671875,378.40234375,338.038818359375,379.3948974609375,337.144775390625,378.58251953125C334.39404296875,376.0762939453125,330.749755859375,372.594482421875,328.406982421875,369.7088623046875C321.323974609375,360.9407958984375,322.27490234375,351.4822998046875,323.380859375,346.7998046875C323.6396484375,345.7550048828125,325.06494140625,345.63037109375,325.510986328125,346.6202392578125L338.92333984375,377.2906494140625Z" style="fill: rgb(255, 236, 179);"></path></g></g><g id="shape-bad4d2ef-21be-80c5-8006-6c55ee17d335"><g class="fills" id="fills-bad4d2ef-21be-80c5-8006-6c55ee17d335"><path d="M276.41796875,429.39208984375C281.308837890625,434.3095703125,283.92626953125,435.4591064453125,281.80419921875,429.722900390625C278.980712890625,422.115478515625,272.578857421875,411.5286865234375,266.430908203125,403.5059814453125C262.50390625,398.3829345703125,262.941650390625,404.9354248046875,264.50830078125,409.8992919921875C265.8984375,414.38818359375,268.57421875,421.52099609375,276.41796875,429.39208984375Z" style="fill: rgb(255, 236, 179);"></path></g></g><g id="shape-bad4d2ef-21be-80c5-8006-6c55ee17d336"><g class="fills" id="fills-bad4d2ef-21be-80c5-8006-6c55ee17d336"><path d="M388.56103515625,320.5008544921875C389.0478515625,321.314208984375,388.06982421875,322.238525390625,387.296875,321.7103271484375C381.509521484375,317.87939453125,374.490234375,311.8388671875,370.62646484375,300.7188720703125C367.97900390625,293.0975341796875,369.25244140625,285.3753662109375,370.330810546875,281.2081298828125C370.429931640625,280.8077392578125,370.7880859375,280.52685546875,371.19970703125,280.5260009765625C371.61181640625,280.5255126953125,371.9697265625,280.806396484375,372.067138671875,281.2056884765625C373.119873046875,285.2470703125,375.33349609375,292.78759765625,379.02392578125,301.5067138671875C382.552734375,309.8729248046875,386.32763671875,316.718505859375,388.56103515625,320.5008544921875Z" style="fill: rgb(255, 236, 179);"></path></g></g><g id="shape-bad4d2ef-21be-80c5-8006-6c55ee17d337"><g class="fills" id="fills-bad4d2ef-21be-80c5-8006-6c55ee17d337"><path d="M312.302734375,341.9998779296875C312.302734375,341.9998779296875,318.2314453125,350.9189453125,318.54345703125,351.230712890625C318.800537109375,351.488037109375,321.67431640625,335.771240234375,322.577392578125,330.7501220703125C321.95263671875,330.642578125,321.2744140625,330.8876953125,320.9072265625,331.526123046875L312.302734375,341.9998779296875Z" style="fill: rgb(255, 0, 0); fill-opacity: 1;"></path></g></g><g id="shape-bad4d2ef-21be-80c5-8006-6c55ee17d338"><g class="fills" id="fills-bad4d2ef-21be-80c5-8006-6c55ee17d338"><path d="M158.986328125,340.4146728515625C159.615234375,346.5057373046875,161.207763671875,352.06591796875,163.547607421875,357.0147705078125C165.94091796875,362.01171875,169.16943359375,366.562744140625,173.091796875,370.4732666015625C196.800048828125,394.181396484375,227.48095703125,391.8148193359375,238.0810546875,398.7181396484375L238.0400390625,398.75927734375L223.96533203125,411.1546630859375C223.094970703125,411.943359375,223.33740234375,413.353515625,224.39501953125,413.8402099609375L259.12548828125,407.04443359375C250.83056640625,392.688720703125,235.331787109375,386.3486328125,219.899658203125,380.9443359375C182.458740234375,367.555419921875,176.254150390625,352.2467041015625,180.94189453125,329.4317626953125C184.728515625,311.0142822265625,200.996826171875,284.0704345703125,214.02734375,271.6361083984375C217.547119140625,268.2791748046875,218.99072265625,282.6865234375,221.642578125,296.589599609375C223.3388671875,296.2479248046875,225.142578125,296.638427734375,226.552001953125,297.8577880859375L300.774658203125,356.8336181640625L288.47119140625,363.9349365234375C287.3173828125,364.6011962890625,287.4091796875,366.2969970703125,288.62939453125,366.83837890625L312.596923828125,362.92138671875C314.157958984375,362.6611328125,314.784423828125,360.760498046875,313.6875,359.636474609375L207.099853515625,250.1138916015625C173.046875,284.1669921875,156.835205078125,318.4781494140625,158.986328125,340.4146728515625Z" style="fill: rgb(255, 0, 0); fill-opacity: 1;"></path></g></g><g id="shape-bad4d2ef-21be-80c5-8006-6c55ee17d339"><g class="fills" id="fills-bad4d2ef-21be-80c5-8006-6c55ee17d339"><path d="M299.62255859375,355.8453369140625C299.62255859375,355.8453369140625,307.904541015625,361.245849609375,308.216796875,361.5576171875C308.4736328125,361.81494140625,292.75732421875,364.6878662109375,287.736328125,365.5911865234375C287.62841796875,364.96728515625,287.87353515625,364.2884521484375,288.511962890625,363.9215087890625L299.62255859375,355.8453369140625Z" style="fill: rgb(255, 0, 0); fill-opacity: 1;"></path></g></g><g id="shape-bad4d2ef-21be-80c5-8006-6c55ee17d33a"><g class="fills" id="fills-bad4d2ef-21be-80c5-8006-6c55ee17d33a"><path d="M311.1923828125,206.253173828125C286.68798828125,197.810302734375,249.03466796875,208.17919921875,207.099853515625,250.1138916015625C207.099853515625,250.1138916015625,224.5693359375,254.3472900390625,234.1630859375,244.7535400390625C243.75634765625,235.1602783203125,267.0166015625,214.474365234375,290.67041015625,211.0333251953125C297.890625,209.990966796875,304.48388671875,210.2252197265625,309.910400390625,210.94970703125C312.74560546875,211.3116455078125,313.90478515625,207.198974609375,311.1923828125,206.253173828125Z" style="fill: rgb(255, 0, 0); fill-opacity: 1;"></path></g></g><g id="shape-bad4d2ef-21be-80c5-8006-6c55ee17d33b"><g class="fills" id="fills-bad4d2ef-21be-80c5-8006-6c55ee17d33b"><path d="M323.248046875,228.635986328125C340.052490234375,241.5545654296875,340.471435546875,269.6934814453125,340.471435546875,269.6934814453125C340.8203125,272.027099609375,337.59033203125,272.9813232421875,336.6025390625,270.8531494140625C336.6025390625,270.8531494140625,331.51123046875,246.329833984375,314.93408203125,235.7305908203125C299.101806640625,225.605712890625,280.40771484375,232.64892578125,280.40771484375,232.64892578125C278.208251953125,233.2222900390625,277.07373046875,229.967529296875,279.06982421875,228.892578125C288.724853515625,223.6273193359375,309.05908203125,217.734619140625,323.248046875,228.635986328125Z" style="fill: rgb(255, 236, 179);"></path></g></g></g></g></g></g></g></g></g></g></svg></g></g></svg></g><g id="dark-icon"><svg xmlns="http://www.w3.org/2000/svg" version="1.1" xmlns:xlink="http://www.w3.org/1999/xlink" width="1000" height="1000"><g clip-path="url(#SvgjsClipPath2225)"><rect width="1000" height="1000" fill="#24022d"></rect><g transform="matrix(2.0059778138853783,0,0,2.0059778138853783,5.684341886080802e-14,5.684341886080802e-14)"><svg xmlns="http://www.w3.org/2000/svg" version="1.1" xmlns:xlink="http://www.w3.org/1999/xlink" width="498.51" height="498.51" id="screenshot-58aeb570-5662-8031-8006-c02d7c3f1867" viewBox="0 0 498.51 498.51" fill="none"><g id="shape-58aeb570-5662-8031-8006-c02d7c3f1867"><g class="frame-container-wrapper"><g class="frame-container-blur"><g class="frame-container-shadows"><g fill="none"><g class="fills" id="fills-58aeb570-5662-8031-8006-c02d7c3f1867"><rect rx="0" ry="0" x="0" y="0" width="498.51028073651605" height="498.5102807365156" transform="matrix(1.000000, 0.000000, 0.000000, 1.000000, 0.000000, 0.000000)" class="frame-background"></rect></g><g class="frame-children"><g id="shape-bad4d2ef-21be-80c5-8006-6c55ee17d31a" rx="0" ry="0"><g id="shape-bad4d2ef-21be-80c5-8006-6c55ee17d31b"><defs><clipPath id="frame-clip-bad4d2ef-21be-80c5-8006-6c55ee17d31b-render-3" class="frame-clip frame-clip-def"><rect rx="24" ry="24" x="76.36407105749413" y="76.16422196777694" width="349.6003018205656" height="350" transform="matrix(0.707107, 0.707107, -0.707107, 0.707107, 251.164222, -104.035627)"></rect></clipPath><clipPath id="SvgjsClipPath2225"><rect width="1000" height="1000" x="0" y="0" rx="100" ry="100"></rect></clipPath></defs><g class="frame-container-wrapper"><g class="frame-container-blur"><g class="frame-container-shadows"><g clip-path="url(#frame-clip-bad4d2ef-21be-80c5-8006-6c55ee17d31b-render-3)" fill="none"><g class="fills" id="fills-bad4d2ef-21be-80c5-8006-6c55ee17d31b"><rect width="349.6003018205656" height="350" class="frame-background" x="76.36407105749413" transform="matrix(0.707107, 0.707107, -0.707107, 0.707107, 251.164222, -104.035627)" style="fill: rgb(180, 11, 223); fill-opacity: 0.2;" ry="24" rx="24" y="76.16422196777694"></rect></g><g class="frame-children"></g></g></g><g id="strokes-e7192f4c-b38a-80ed-8007-ccbd101dc88b-bad4d2ef-21be-80c5-8006-6c55ee17d31b" class="strokes"><g class="outer-stroke-shape"><defs><linearGradient id="stroke-color-gradient-render-3-0" x1="1" y1="0.5" x2="0" y2="0.5000000000000001" gradientTransform=""><stop offset="0" stop-color="#ffd200" stop-opacity="1"></stop><stop offset="0.33000000000000007" stop-color="#ec8c78" stop-opacity="1"></stop><stop offset="0.67" stop-color="#e779c1" stop-opacity="1"></stop><stop offset="1" stop-color="#58c7f3" stop-opacity="1"></stop></linearGradient><mask id="outer-stroke-render-3-bad4d2ef-21be-80c5-8006-6c55ee17d31b-0" x="2.828213705377115" y="2.828213705377115" width="496.67201652479963" height="496.67201652479963" maskUnits="userSpaceOnUse"><use href="#stroke-shape-render-3-bad4d2ef-21be-80c5-8006-6c55ee17d31b-0" style="fill: none; stroke: white; stroke-width: 1.4;"></use><use href="#stroke-shape-render-3-bad4d2ef-21be-80c5-8006-6c55ee17d31b-0" style="fill: black; stroke: none;"></use></mask><rect width="349.6003018205656" height="350" class="frame-background" x="76.36407105749413" id="stroke-shape-render-3-bad4d2ef-21be-80c5-8006-6c55ee17d31b-0" transform="matrix(0.707107, 0.707107, -0.707107, 0.707107, 251.164222, -104.035627)" ry="24" rx="24" y="76.16422196777694"></rect></defs><use href="#stroke-shape-render-3-bad4d2ef-21be-80c5-8006-6c55ee17d31b-0" mask="url(#outer-stroke-render-3-bad4d2ef-21be-80c5-8006-6c55ee17d31b-0)" style="fill: none; stroke-width: 1.4; stroke: url(&quot;#stroke-color-gradient-render-3-0&quot;);"></use><use href="#stroke-shape-render-3-bad4d2ef-21be-80c5-8006-6c55ee17d31b-0" style="fill: none; stroke-width: 0.7; stroke: none;"></use></g></g></g></g></g><g id="shape-bad4d2ef-21be-80c5-8006-6c55ee17d31c" height="800" class="iconify iconify--noto" rx="0" ry="0" style="fill: rgb(0, 0, 0);"><g id="shape-bad4d2ef-21be-80c5-8006-6c55ee17d31e" style="display: none;"><g class="fills" id="fills-bad4d2ef-21be-80c5-8006-6c55ee17d31e"><rect width="245.2357508899836" height="245.98136645962632" x="109.48844718651299" transform="matrix(0.707107, 0.707107, -0.707107, 0.707107, 201.476289, -108.828962)" style="fill: none;" ry="0" fill="none" rx="0" y="65.79822999765611"></rect></g></g><g id="shape-bad4d2ef-21be-80c5-8006-6c55ee17d31f"><g class="fills" id="fills-bad4d2ef-21be-80c5-8006-6c55ee17d31f"><path d="M182.26513671875,282.0091552734375C180.7978515625,283.4766845703125,178.585205078125,283.87353515625,176.6875,283.0352783203125C172.931396484375,281.3720703125,166.0859375,277.2437744140625,155.84423828125,267.0020751953125C145.3447265625,256.5028076171875,141.041015625,249.345703125,139.3232421875,245.50830078125C138.4853515625,243.6370849609375,138.92236328125,241.4388427734375,140.376708984375,239.984375L161.072265625,219.2890625L203.04248046875,261.2593994140625L182.279296875,282.0228271484375Z" style="fill: rgb(255, 202, 40);"></path></g></g><g id="shape-bad4d2ef-21be-80c5-8006-6c55ee17d320"><g class="fills" id="fills-bad4d2ef-21be-80c5-8006-6c55ee17d320"><path d="M182.26513671875,282.0091552734375C182.26513671875,282.0091552734375,173.09033203125,284.248291015625,155.83056640625,266.9886474609375C138.57080078125,249.72900390625,140.363037109375,239.9705810546875,140.363037109375,239.9705810546875" fill="none" stroke-linecap="round" stroke-miterlimit="10" style="fill: none;"></path></g><g fill="none" stroke-linecap="round" stroke-miterlimit="10" id="strokes-e7192f4c-b38a-80ed-8007-ccbd10206468-bad4d2ef-21be-80c5-8006-6c55ee17d320" class="strokes"><g class="stroke-shape"><path d="M182.26513671875,282.0091552734375C182.26513671875,282.0091552734375,173.09033203125,284.248291015625,155.83056640625,266.9886474609375C138.57080078125,249.72900390625,140.363037109375,239.9705810546875,140.363037109375,239.9705810546875" style="fill: none; stroke-width: 13.4378; stroke: rgb(255, 202, 40); stroke-opacity: 1;"></path></g></g></g><g id="shape-bad4d2ef-21be-80c5-8006-6c55ee17d321"><g class="fills" id="fills-bad4d2ef-21be-80c5-8006-6c55ee17d321"><path d="M161.125244140625,228.691650390625L154.4404296875,225.893310546875L152.266357421875,228.067138671875C152.266357421875,228.067138671875,155.553955078125,234.724609375,170.862060546875,250.033203125C186.1708984375,265.3416748046875,194.318359375,269.9559326171875,194.318359375,269.9559326171875L199.11474609375,265.1591796875L161.125244140625,228.691650390625Z" style="fill: rgb(255, 0, 0); fill-opacity: 1;"></path></g></g><g id="shape-bad4d2ef-21be-80c5-8006-6c55ee17d322"><g class="fills" id="fills-bad4d2ef-21be-80c5-8006-6c55ee17d322"><path d="M246.025390625,253.665771484375C242.529052734375,250.66943359375,245.616943359375,253.555908203125,222.102783203125,236.12890625C219.44677734375,234.15185546875,219.072265625,230.299560546875,221.2607421875,227.8134765625L280.462646484375,153.4112548828125L287.5263671875,165.693359375C288.18994140625,166.8455810546875,289.8857421875,166.7476806640625,290.429931640625,165.526123046875L315.46923828125,108.0811767578125C315.762451171875,107.323974609375,315.57666015625,106.4652099609375,314.997314453125,105.8980712890625C314.156982421875,105.0579833984375,313.13916015625,105.2901611328125,312.814453125,105.4261474609375L255.409912109375,130.478515625C254.84521484375,130.72509765625,254.46630859375,131.267822265625,254.4306640625,131.8817138671875C254.3955078125,132.49609375,254.70947265625,133.07666015625,255.2421875,133.382568359375L267.5244140625,140.4466552734375L193.122802734375,199.6484375C190.6357421875,201.836669921875,186.7705078125,201.4757080078125,184.806640625,198.8060302734375C167.38037109375,175.2913818359375,159.7001953125,148.6968994140625,183.34326171875,134.4276123046875C200.183837890625,124.2532958984375,214.931640625,125.139892578125,233.2822265625,102.5072021484375C245.37744140625,89.084716796875,253.714599609375,67.33544921875,256.890625,58.091064453125C257.462646484375,56.40771484375,255.76953125,54.876708984375,254.1533203125,55.5987548828125L191.30419921875,83.65771484375C190.2177734375,84.147705078125,189.9990234375,85.5863037109375,190.87890625,86.358642578125L204.9306640625,98.724609375C195.735595703125,105.12939453125,163.63623046875,103.3865966796875,139.85595703125,127.1668701171875C118.6572265625,148.365966796875,120.4873046875,194.41259765625,173.48486328125,247.4105224609375C226.48291015625,300.408447265625,234.330078125,282.8409423828125,255.515380859375,261.65576171875" style="fill: rgb(255, 202, 40);"></path></g></g><g id="shape-bad4d2ef-21be-80c5-8006-6c55ee17d323"><g class="fills" id="fills-bad4d2ef-21be-80c5-8006-6c55ee17d323"><path d="M191.3447265625,83.6982421875L217.35546875,92.423828125C215.450439453125,95.7373046875,204.98486328125,98.751708984375,204.98486328125,98.751708984375L190.93359375,86.385498046875C190.93359375,86.385498046875,190.255859375,85.816162109375,190.243896484375,85.01611328125C190.24462890625,84.2294921875,191.3447265625,83.6982421875,191.3447265625,83.6982421875Z" style="fill: rgb(255, 0, 0); fill-opacity: 1;"></path></g></g><g id="shape-bad4d2ef-21be-80c5-8006-6c55ee17d324"><g class="fills" id="fills-bad4d2ef-21be-80c5-8006-6c55ee17d324"><path d="M301.06201171875,115.2000732421875C302.17578125,114.709716796875,303.1640625,116.078369140625,302.3486328125,116.9754638671875C299.83447265625,119.7332763671875,296.34130859375,123.388427734375,293.448486328125,125.7403564453125C284.6591796875,132.849365234375,275.20361328125,131.9276123046875,270.52392578125,130.835693359375C269.479736328125,130.5797119140625,269.35986328125,129.1553955078125,270.35107421875,128.7054443359375L301.06201171875,115.2000732421875Z" style="fill: rgb(255, 236, 179);"></path></g></g><g id="shape-bad4d2ef-21be-80c5-8006-6c55ee17d325" style="display: none;"><g class="fills" id="fills-bad4d2ef-21be-80c5-8006-6c55ee17d325"><path d="M352.97412109375,177.547607421875C357.9072265625,172.6416015625,359.064208984375,170.021484375,353.32177734375,172.16064453125C345.7060546875,175.0072021484375,335.098876953125,181.44140625,327.0576171875,187.6134033203125C321.9228515625,191.556396484375,328.47705078125,191.098388671875,333.445068359375,189.5172119140625C337.93798828125,188.113037109375,345.07958984375,185.415283203125,352.97412109375,177.547607421875Z" style="fill: rgb(255, 236, 179);"></path></g></g><g id="shape-bad4d2ef-21be-80c5-8006-6c55ee17d326"><g class="fills" id="fills-bad4d2ef-21be-80c5-8006-6c55ee17d326"><path d="M244.42333984375,65.73486328125C245.23779296875,65.245361328125,246.1591796875,66.22119140625,245.62890625,66.9951171875C241.7802734375,72.79443359375,235.71826171875,79.83203125,224.586669921875,83.7294921875C216.95751953125,86.400390625,209.23876953125,85.150390625,205.0751953125,84.08447265625C204.675048828125,83.9864501953125,204.39501953125,83.6287841796875,204.39501953125,83.217529296875C204.395751953125,82.8052978515625,204.677734375,82.44677734375,205.07763671875,82.34814453125C209.12255859375,81.282958984375,216.66943359375,79.046630859375,225.3994140625,75.329345703125C233.77685546875,71.7755126953125,240.634521484375,67.9794921875,244.42333984375,65.73486328125Z" style="fill: rgb(255, 236, 179);"></path></g></g><g id="shape-bad4d2ef-21be-80c5-8006-6c55ee17d327"><g class="fills" id="fills-bad4d2ef-21be-80c5-8006-6c55ee17d327"><path d="M265.69091796875,141.92822265625C265.69091796875,141.92822265625,274.6279296875,135.9716796875,274.94091796875,135.658935546875C275.1982421875,135.401123046875,259.49072265625,132.57568359375,254.47216796875,131.687744140625C254.36279296875,132.3121337890625,254.605712890625,132.9901123046875,255.242431640625,133.355712890625L265.69091796875,141.92822265625Z" style="fill: rgb(255, 0, 0); fill-opacity: 1;"></path></g></g><g id="shape-bad4d2ef-21be-80c5-8006-6c55ee17d328"><g class="fills" id="fills-bad4d2ef-21be-80c5-8006-6c55ee17d328"><path d="M141.541748046875,241.09521484375C138.853271484375,242.0225830078125,138.0888671875,245.4156494140625,140.84912109375,250.3770751953125C142.973876953125,254.1865234375,146.5078125,258.943603515625,149.686279296875,256.2523193359375C151.15380859375,255.0020751953125,150.71044921875,252.356689453125,146.46044921875,245.334716796875C145.662109375,244.0196533203125,144.01220703125,240.250244140625,141.541748046875,241.09521484375Z" style="fill: rgb(255, 236, 179);"></path></g></g><g id="shape-bad4d2ef-21be-80c5-8006-6c55ee17d329"><g class="fills" id="fills-bad4d2ef-21be-80c5-8006-6c55ee17d329"><path d="M144.466796875,236.02978515625C145.0869140625,238.579833984375,148.44775390625,250.0941162109375,160.60009765625,262.2462158203125C174.10693359375,275.7530517578125,187.38818359375,276.9134521484375,187.38818359375,276.9134521484375L203.04248046875,261.2593994140625L190.607421875,256.6513671875C190.607421875,256.6513671875,186.59912109375,260.1446533203125,181.02880859375,265.71533203125C175.45703125,271.287109375,162.884765625,258.6610107421875,161.2451171875,257.0213623046875C145.625,241.4013671875,148.35302734375,232.0081787109375,148.339111328125,231.994384765625L144.466796875,235.9212646484375C144.453369140625,235.9349365234375,144.452392578125,235.9896240234375,144.466796875,236.02978515625Z" style="fill: rgb(255, 0, 0); fill-opacity: 1;"></path></g></g><g id="shape-bad4d2ef-21be-80c5-8006-6c55ee17d32a"><g class="fills" id="fills-bad4d2ef-21be-80c5-8006-6c55ee17d32a"><path d="M251.0068359375,281.147216796875C257.10009765625,280.499755859375,252.50927734375,275.1497802734375,246.51416015625,272.6546630859375C239.22265625,269.6195068359375,207.4228515625,253.4105224609375,195.028076171875,240.41748046875C191.681884765625,236.907958984375,206.09375,235.4210205078125,220.0048828125,232.7271728515625C219.66796875,231.03173828125,220.064453125,229.226318359375,221.2880859375,227.8135986328125L280.4892578125,153.41162109375L287.55322265625,165.693359375C288.216796875,166.8453369140625,289.91259765625,166.74853515625,290.45751953125,165.526123046875L286.61328125,141.5703125C286.35791015625,140.0111083984375,284.458984375,139.3895263671875,283.33154296875,140.489990234375L173.48486328125,247.4105224609375C184.048095703125,275.6885986328125,229.063720703125,283.36474609375,251.0068359375,281.147216796875L251.0068359375,281.147216796875" style="fill: rgb(255, 0, 0); fill-opacity: 1;"></path></g></g><g id="shape-bad4d2ef-21be-80c5-8006-6c55ee17d32b" style="display: none;"><g class="fills" id="fills-bad4d2ef-21be-80c5-8006-6c55ee17d32b"><path d="M238.5244140625,262.8018798828125L351.66162109375,149.664794921875L389.09521484375,187.0986328125L275.9580078125,300.2357177734375L238.5244140625,262.8018798828125" style="fill: rgb(46, 11, 51); fill-opacity: 1;"></path></g></g><g id="shape-bad4d2ef-21be-80c5-8006-6c55ee17d32c"><g class="fills" id="fills-bad4d2ef-21be-80c5-8006-6c55ee17d32c"><path d="M175.84765625,273.2540283203125C175.84765625,273.2540283203125,181.56787109375,276.5018310546875,180.774169921875,281.1434326171875C179.705810546875,287.3592529296875,174.943115234375,287.841064453125,174.943115234375,287.841064453125C174.943115234375,287.841064453125,184.638427734375,291.47607421875,187.8896484375,285.86767578125C190.9775390625,280.5579833984375,187.36083984375,276.913330078125,187.36083984375,276.913330078125L178.34521484375,272.30029296875L175.84765625,273.2540283203125Z" style="fill: rgb(255, 0, 0); fill-opacity: 1;"></path></g></g><g id="shape-bad4d2ef-21be-80c5-8006-6c55ee17d32d"><g class="fills" id="fills-bad4d2ef-21be-80c5-8006-6c55ee17d32d"><path d="M279.49755859375,154.5660400390625C279.49755859375,154.5660400390625,284.923583984375,146.267578125,285.236328125,145.9547119140625C285.494140625,145.697021484375,288.31982421875,161.40478515625,289.207275390625,166.4232177734375C288.583251953125,166.53271484375,287.905029296875,166.289794921875,287.53955078125,165.6531982421875L279.49755859375,154.5660400390625Z" style="fill: rgb(255, 0, 0); fill-opacity: 1;"></path></g></g><g id="shape-bad4d2ef-21be-80c5-8006-6c55ee17d32e"><g class="fills" id="fills-bad4d2ef-21be-80c5-8006-6c55ee17d32e"><path d="M152.359375,131.326904296875C165.32861328125,114.4835205078125,193.469970703125,113.9788818359375,193.469970703125,113.9788818359375C195.803955078125,113.6224365234375,196.74853515625,116.8504638671875,194.6171875,117.8441162109375C194.6171875,117.8441162109375,170.07763671875,123.010498046875,159.4287109375,139.6199951171875C149.255859375,155.483154296875,156.24267578125,174.155517578125,156.24267578125,174.155517578125C156.8095703125,176.3525390625,153.55078125,177.4971923828125,152.48193359375,175.5047607421875C147.24609375,165.86572265625,141.415283203125,145.54931640625,152.359375,131.326904296875Z" style="fill: rgb(255, 236, 179);"></path></g></g><g id="shape-bad4d2ef-21be-80c5-8006-6c55ee17d32f"><g class="fills" id="fills-bad4d2ef-21be-80c5-8006-6c55ee17d32f"><path d="M129.93994140625,143.4505615234375C121.423095703125,167.9808349609375,131.67724609375,205.6029052734375,173.48486328125,247.4105224609375C173.48486328125,247.4105224609375,177.771484375,229.92822265625,168.206787109375,220.363525390625C158.642578125,210.79931640625,138.02734375,187.601806640625,134.658203125,163.9578857421875C133.637939453125,156.7413330078125,133.8916015625,150.147216796875,134.63232421875,144.7186279296875C135.00341796875,141.8822021484375,130.89404296875,140.7357177734375,129.93994140625,143.4505615234375Z" style="fill: rgb(255, 0, 0); fill-opacity: 1;"></path></g></g><g id="shape-bad4d2ef-21be-80c5-8006-6c55ee17d330"><g class="fills" id="fills-bad4d2ef-21be-80c5-8006-6c55ee17d330"><path d="M213.51220703125,218.151123046875C212.59326171875,215.466552734375,209.2021484375,214.7117919921875,204.232421875,217.4864501953125C200.416259765625,219.623291015625,195.64892578125,223.171142578125,198.330078125,226.3427734375C199.576171875,227.805908203125,202.22314453125,227.3541259765625,209.25732421875,223.0828857421875C210.574462890625,222.2806396484375,214.348876953125,220.6197509765625,213.51220703125,218.151123046875Z" style="fill: rgb(255, 236, 179);"></path></g></g></g><g id="shape-bad4d2ef-21be-80c5-8006-6c55ee17d31d" width="800" height="800" class="iconify iconify--noto" rx="0" ry="0" style="fill: rgb(0, 0, 0);"><g id="shape-bad4d2ef-21be-80c5-8006-6c55ee17d331" style="display: none;"><g class="fills" id="fills-bad4d2ef-21be-80c5-8006-6c55ee17d331"><rect width="245.98136645962768" height="245.23575088998405" x="142.55306217244106" transform="matrix(-0.707107, 0.707107, -0.707107, -0.707107, 671.494773, 338.973164)" style="fill: none;" ry="0" fill="none" rx="0" y="185.93982778291434"></rect></g></g><g id="shape-bad4d2ef-21be-80c5-8006-6c55ee17d332"><g class="fills" id="fills-bad4d2ef-21be-80c5-8006-6c55ee17d332"><path d="M238.1083984375,398.7181396484375L224.01953125,411.1270751953125C223.13671875,411.9017333984375,223.35107421875,413.340087890625,224.435302734375,413.8267822265625L287.145263671875,441.6954345703125C288.7587890625,442.4119873046875,290.47119140625,440.862548828125,289.89013671875,439.1944580078125C286.755859375,429.9737548828125,278.472412109375,408.2364501953125,266.4169921875,394.8492431640625C248.282958984375,372.530517578125,233.4111328125,373.2041015625,216.57568359375,363.0806884765625C192.989013671875,348.869873046875,200.735595703125,322.264892578125,218.23388671875,298.6973876953125C220.21875,296.0350341796875,224.072509765625,295.6495361328125,226.5517578125,297.8302001953125L300.774658203125,356.806640625L288.47119140625,363.90771484375C287.3173828125,364.57421875,287.40966796875,366.270263671875,288.629638671875,366.8111572265625L345.99853515625,391.676025390625C346.755126953125,391.9666748046875,347.6142578125,391.778564453125,348.18359375,391.1973876953125C349.02587890625,390.354736328125,348.79736328125,389.3372802734375,348.662109375,389.012451171875L323.78369140625,331.6842041015625C323.5390625,331.1202392578125,322.997314453125,330.7430419921875,322.3837890625,330.709716796875C321.769287109375,330.6761474609375,321.1875,330.99169921875,320.880126953125,331.525634765625L313.77880859375,343.82958984375L254.802734375,269.6070556640625C252.6220703125,267.126708984375,252.993896484375,263.2596435546875,255.67041015625,261.288330078125C279.2373046875,243.7900390625,305.855712890625,236.02978515625,320.05322265625,259.6298828125C330.17626953125,276.439208984375,329.24462890625,291.1890869140625,351.82177734375,309.471435546875C365.20849609375,321.52685546875,386.93212890625,329.7974853515625,396.1669921875,332.9451904296875C397.8486328125,333.511962890625,399.38427734375,331.8135986328125,398.66796875,330.2005615234375L370.79931640625,267.4361572265625C370.312255859375,266.3511962890625,368.874267578125,266.136474609375,368.099609375,267.019775390625L355.6904296875,281.10888671875C349.31396484375,271.9326171875,351.15380859375,239.8277587890625,327.445556640625,216.11962890625C306.311767578125,194.9857177734375,260.259033203125,196.9547119140625,207.099853515625,250.1138916015625C153.940673828125,303.2730712890625,151.985107421875,349.3394775390625,173.105224609375,370.4598388671875C196.8134765625,394.1678466796875,226.408203125,383.458251953125,238.1083984375,398.7181396484375Z" style="fill: rgb(255, 202, 40);"></path></g></g><g id="shape-bad4d2ef-21be-80c5-8006-6c55ee17d333"><g class="fills" id="fills-bad4d2ef-21be-80c5-8006-6c55ee17d333"><path d="M370.7587890625,267.4769287109375L361.9541015625,293.5137939453125C358.646240234375,291.6190185546875,355.66357421875,281.1627197265625,355.66357421875,281.1627197265625L368.07275390625,267.07373046875C368.07275390625,267.07373046875,368.64404296875,266.3944091796875,369.44384765625,266.3800048828125C370.23095703125,266.378662109375,370.7587890625,267.4769287109375,370.7587890625,267.4769287109375Z" style="fill: rgb(255, 0, 0); fill-opacity: 1;"></path></g></g><g id="shape-bad4d2ef-21be-80c5-8006-6c55ee17d334"><g class="fills" id="fills-bad4d2ef-21be-80c5-8006-6c55ee17d334"><path d="M338.92333984375,377.2906494140625C339.410888671875,378.40234375,338.038818359375,379.3948974609375,337.144775390625,378.58251953125C334.39404296875,376.0762939453125,330.749755859375,372.594482421875,328.406982421875,369.7088623046875C321.323974609375,360.9407958984375,322.27490234375,351.4822998046875,323.380859375,346.7998046875C323.6396484375,345.7550048828125,325.06494140625,345.63037109375,325.510986328125,346.6202392578125L338.92333984375,377.2906494140625Z" style="fill: rgb(255, 236, 179);"></path></g></g><g id="shape-bad4d2ef-21be-80c5-8006-6c55ee17d335"><g class="fills" id="fills-bad4d2ef-21be-80c5-8006-6c55ee17d335"><path d="M276.41796875,429.39208984375C281.308837890625,434.3095703125,283.92626953125,435.4591064453125,281.80419921875,429.722900390625C278.980712890625,422.115478515625,272.578857421875,411.5286865234375,266.430908203125,403.5059814453125C262.50390625,398.3829345703125,262.941650390625,404.9354248046875,264.50830078125,409.8992919921875C265.8984375,414.38818359375,268.57421875,421.52099609375,276.41796875,429.39208984375Z" style="fill: rgb(255, 236, 179);"></path></g></g><g id="shape-bad4d2ef-21be-80c5-8006-6c55ee17d336"><g class="fills" id="fills-bad4d2ef-21be-80c5-8006-6c55ee17d336"><path d="M388.56103515625,320.5008544921875C389.0478515625,321.314208984375,388.06982421875,322.238525390625,387.296875,321.7103271484375C381.509521484375,317.87939453125,374.490234375,311.8388671875,370.62646484375,300.7188720703125C367.97900390625,293.0975341796875,369.25244140625,285.3753662109375,370.330810546875,281.2081298828125C370.429931640625,280.8077392578125,370.7880859375,280.52685546875,371.19970703125,280.5260009765625C371.61181640625,280.5255126953125,371.9697265625,280.806396484375,372.067138671875,281.2056884765625C373.119873046875,285.2470703125,375.33349609375,292.78759765625,379.02392578125,301.5067138671875C382.552734375,309.8729248046875,386.32763671875,316.718505859375,388.56103515625,320.5008544921875Z" style="fill: rgb(255, 236, 179);"></path></g></g><g id="shape-bad4d2ef-21be-80c5-8006-6c55ee17d337"><g class="fills" id="fills-bad4d2ef-21be-80c5-8006-6c55ee17d337"><path d="M312.302734375,341.9998779296875C312.302734375,341.9998779296875,318.2314453125,350.9189453125,318.54345703125,351.230712890625C318.800537109375,351.488037109375,321.67431640625,335.771240234375,322.577392578125,330.7501220703125C321.95263671875,330.642578125,321.2744140625,330.8876953125,320.9072265625,331.526123046875L312.302734375,341.9998779296875Z" style="fill: rgb(255, 0, 0); fill-opacity: 1;"></path></g></g><g id="shape-bad4d2ef-21be-80c5-8006-6c55ee17d338"><g class="fills" id="fills-bad4d2ef-21be-80c5-8006-6c55ee17d338"><path d="M158.986328125,340.4146728515625C159.615234375,346.5057373046875,161.207763671875,352.06591796875,163.547607421875,357.0147705078125C165.94091796875,362.01171875,169.16943359375,366.562744140625,173.091796875,370.4732666015625C196.800048828125,394.181396484375,227.48095703125,391.8148193359375,238.0810546875,398.7181396484375L238.0400390625,398.75927734375L223.96533203125,411.1546630859375C223.094970703125,411.943359375,223.33740234375,413.353515625,224.39501953125,413.8402099609375L259.12548828125,407.04443359375C250.83056640625,392.688720703125,235.331787109375,386.3486328125,219.899658203125,380.9443359375C182.458740234375,367.555419921875,176.254150390625,352.2467041015625,180.94189453125,329.4317626953125C184.728515625,311.0142822265625,200.996826171875,284.0704345703125,214.02734375,271.6361083984375C217.547119140625,268.2791748046875,218.99072265625,282.6865234375,221.642578125,296.589599609375C223.3388671875,296.2479248046875,225.142578125,296.638427734375,226.552001953125,297.8577880859375L300.774658203125,356.8336181640625L288.47119140625,363.9349365234375C287.3173828125,364.6011962890625,287.4091796875,366.2969970703125,288.62939453125,366.83837890625L312.596923828125,362.92138671875C314.157958984375,362.6611328125,314.784423828125,360.760498046875,313.6875,359.636474609375L207.099853515625,250.1138916015625C173.046875,284.1669921875,156.835205078125,318.4781494140625,158.986328125,340.4146728515625Z" style="fill: rgb(255, 0, 0); fill-opacity: 1;"></path></g></g><g id="shape-bad4d2ef-21be-80c5-8006-6c55ee17d339"><g class="fills" id="fills-bad4d2ef-21be-80c5-8006-6c55ee17d339"><path d="M299.62255859375,355.8453369140625C299.62255859375,355.8453369140625,307.904541015625,361.245849609375,308.216796875,361.5576171875C308.4736328125,361.81494140625,292.75732421875,364.6878662109375,287.736328125,365.5911865234375C287.62841796875,364.96728515625,287.87353515625,364.2884521484375,288.511962890625,363.9215087890625L299.62255859375,355.8453369140625Z" style="fill: rgb(255, 0, 0); fill-opacity: 1;"></path></g></g><g id="shape-bad4d2ef-21be-80c5-8006-6c55ee17d33a"><g class="fills" id="fills-bad4d2ef-21be-80c5-8006-6c55ee17d33a"><path d="M311.1923828125,206.253173828125C286.68798828125,197.810302734375,249.03466796875,208.17919921875,207.099853515625,250.1138916015625C207.099853515625,250.1138916015625,224.5693359375,254.3472900390625,234.1630859375,244.7535400390625C243.75634765625,235.1602783203125,267.0166015625,214.474365234375,290.67041015625,211.0333251953125C297.890625,209.990966796875,304.48388671875,210.2252197265625,309.910400390625,210.94970703125C312.74560546875,211.3116455078125,313.90478515625,207.198974609375,311.1923828125,206.253173828125Z" style="fill: rgb(255, 0, 0); fill-opacity: 1;"></path></g></g><g id="shape-bad4d2ef-21be-80c5-8006-6c55ee17d33b"><g class="fills" id="fills-bad4d2ef-21be-80c5-8006-6c55ee17d33b"><path d="M323.248046875,228.635986328125C340.052490234375,241.5545654296875,340.471435546875,269.6934814453125,340.471435546875,269.6934814453125C340.8203125,272.027099609375,337.59033203125,272.9813232421875,336.6025390625,270.8531494140625C336.6025390625,270.8531494140625,331.51123046875,246.329833984375,314.93408203125,235.7305908203125C299.101806640625,225.605712890625,280.40771484375,232.64892578125,280.40771484375,232.64892578125C278.208251953125,233.2222900390625,277.07373046875,229.967529296875,279.06982421875,228.892578125C288.724853515625,223.6273193359375,309.05908203125,217.734619140625,323.248046875,228.635986328125Z" style="fill: rgb(255, 236, 179);"></path></g></g></g></g></g></g></g></g></g></g></svg></g></g></svg></g></svg>