<svg width="34" height="34" viewBox="0 0 34 34" fill="none" xmlns="http://www.w3.org/2000/svg">
<rect x="1" y="11" width="32" height="12" fill="black"/>
<path fill-rule="evenodd" clip-rule="evenodd" d="M8.92844 17.9583L9.14557 18.0056L8.38463 20.4182H1.5V20.1764H1.83567C2.21173 20.1764 2.48019 20.0534 2.64141 19.8095C2.73331 19.6686 2.77794 19.3437 2.77794 18.838V13.0991C2.77794 12.5442 2.71744 12.1973 2.59432 12.0585C2.42428 11.866 2.17134 11.7697 1.83567 11.7697H1.5V11.5258H5.52643V11.7697C5.05423 11.7653 4.72298 11.8078 4.53265 11.8995C4.34251 11.9912 4.21268 12.1077 4.14319 12.2486C4.07387 12.3872 4.03806 12.7229 4.03806 13.2514V18.8376C4.03806 19.2004 4.07387 19.4488 4.14319 19.5851C4.19469 19.677 4.2753 19.7439 4.38502 19.7887C4.49455 19.8314 4.83481 19.8538 5.40772 19.8538H6.05683C6.73945 19.8538 7.21835 19.8046 7.49369 19.7035C7.76903 19.603 8.01968 19.4237 8.24793 19.1689C8.47406 18.914 8.70231 18.5088 8.92844 17.9583Z" fill="white"/>
<path fill-rule="evenodd" clip-rule="evenodd" d="M9.98902 16.2888H7.30933L6.84066 17.3812C6.72389 17.6495 6.66656 17.85 6.66656 17.9841C6.66656 18.0889 6.71701 18.1811 6.81632 18.261C6.91739 18.3413 7.13329 18.3937 7.4679 18.4178V18.6062H5.28809V18.4178C5.57736 18.3658 5.76381 18.2997 5.84918 18.2176C6.02345 18.0554 6.21519 17.7229 6.42597 17.2226L8.86172 11.5269H9.03952L11.4492 17.2837C11.6427 17.747 11.8185 18.0467 11.9771 18.1845C12.1357 18.3219 12.3569 18.4006 12.6391 18.4177V18.606H9.90718V18.4177C10.1825 18.4039 10.369 18.3566 10.4665 18.2785C10.5641 18.2016 10.6129 18.1058 10.6129 17.9926C10.6129 17.843 10.5431 17.6077 10.4072 17.2835L9.98902 16.2888ZM9.84615 15.9106L8.67175 13.1142L7.46772 15.9106H9.84615Z" fill="white"/>
<path fill-rule="evenodd" clip-rule="evenodd" d="M18.4289 11.4667L18.528 13.5694H18.2754C18.2278 13.1993 18.1623 12.9355 18.0766 12.7753C17.9411 12.5204 17.7586 12.3331 17.533 12.2112C17.3053 12.0895 17.0073 12.0285 16.6375 12.0285H15.374V18.8782C15.374 19.4287 15.4348 19.7714 15.5523 19.9093C15.7192 20.0944 15.9786 20.1866 16.3261 20.1866H16.6376V20.4302H12.8359V20.1866H13.1541C13.533 20.1866 13.8016 20.0716 13.9595 19.8414C14.0565 19.7016 14.1063 19.3791 14.1063 18.8782V12.0285H13.0278C12.6105 12.0285 12.3126 12.06 12.1367 12.1209C11.9067 12.2045 11.7104 12.367 11.5479 12.6037C11.3855 12.8427 11.2885 13.1632 11.2571 13.5694H11.0066L11.1126 11.4667H18.4289Z" fill="white"/>
<path fill-rule="evenodd" clip-rule="evenodd" d="M19.5167 14.4065V17.8034H21.4057C21.8969 17.8034 22.2236 17.7297 22.3878 17.5825C22.6087 17.3878 22.7298 17.0462 22.7558 16.5549H22.9893V19.5473H22.7558C22.6972 19.1298 22.6369 18.8614 22.5783 18.7423C22.5025 18.5955 22.3771 18.4784 22.2042 18.3939C22.031 18.3098 21.765 18.2664 21.4057 18.2664H19.5167V21.1006C19.5167 21.4813 19.5344 21.7132 19.5667 21.7952C19.6011 21.8776 19.6596 21.9424 19.7441 21.9923C19.8286 22.0399 19.9907 22.0635 20.2264 22.0635H21.6847C22.1695 22.0635 22.5243 22.0311 22.7431 21.9619C22.9636 21.8947 23.1733 21.7628 23.377 21.5636C23.6388 21.3019 23.9069 20.9059 24.1817 20.3778H24.435L23.695 22.5331H17.0699V22.2995H17.375C17.5761 22.2992 17.7739 22.2487 17.9504 22.1524C18.0868 22.0852 18.1778 21.9836 18.2273 21.8492C18.275 21.7132 18.2986 21.4361 18.2986 21.0186V15.4341C18.2986 14.8889 18.2448 14.5536 18.1342 14.4259C17.9827 14.2571 17.7297 14.1726 17.3749 14.1726H17.0697V13.9368H23.6949L23.7899 15.8192H23.5412C23.4523 15.3671 23.3551 15.0575 23.247 14.8889C23.1389 14.7201 22.9807 14.5903 22.7688 14.5016C22.6 14.4389 22.3014 14.4065 21.8752 14.4065H19.5167Z" fill="white"/>
<path fill-rule="evenodd" clip-rule="evenodd" d="M28.4368 15.4708L30.3475 18.3178C30.8759 19.106 31.268 19.6035 31.5257 19.8119C31.781 20.0201 32.1059 20.1344 32.4999 20.1568V20.3986H28.6811V20.1568C28.9341 20.1524 29.1224 20.1254 29.2454 20.0762C29.3357 20.0382 29.414 19.9762 29.4717 19.897C29.5299 19.8164 29.5588 19.7333 29.5588 19.6504C29.5581 19.5469 29.5383 19.4445 29.5006 19.3482C29.4692 19.2741 29.3484 19.0815 29.1403 18.7705L27.6302 16.4879L25.7668 18.8757C25.5698 19.1309 25.4509 19.299 25.413 19.3842C25.3726 19.4692 25.3523 19.5588 25.3523 19.6505C25.3523 19.7918 25.413 19.9061 25.5294 19.9979C25.6479 20.0898 25.8742 20.1436 26.2057 20.157V20.3988H23.0496V20.157C23.2738 20.1346 23.4641 20.0873 23.6276 20.0181C23.9047 19.9006 24.1646 19.7461 24.4003 19.5588C24.6466 19.3662 24.9267 19.0702 25.2403 18.6718L27.3415 16.0221L25.5896 13.4551C25.1124 12.7606 24.7073 12.3038 24.3755 12.0888C24.0419 11.8714 23.659 11.7573 23.2265 11.7437V11.4996H27.3413V11.7437C26.9917 11.7573 26.7521 11.8132 26.6223 11.914C26.4944 12.0147 26.4297 12.1269 26.4297 12.2477C26.4297 12.4112 26.5348 12.6463 26.7431 12.9576L28.1094 14.9983L29.6908 12.9958C29.8744 12.7606 29.9864 12.5992 30.0291 12.5119C30.0695 12.4223 30.0917 12.3327 30.0917 12.2408C30.0917 12.1489 30.0649 12.0683 30.0111 11.9988C29.9505 11.9101 29.8635 11.8427 29.7624 11.8062C29.6615 11.7681 29.4534 11.748 29.1399 11.7434V11.4993H32.2957V11.7434C32.0473 11.757 31.8434 11.7949 31.6845 11.86C31.4492 11.9607 31.2319 12.0974 31.0347 12.2676C30.8375 12.4378 30.56 12.7537 30.2012 13.2129L28.4368 15.4708Z" fill="white"/>
</svg>
