<svg viewBox="0 0 512 512" xmlns="http://www.w3.org/2000/svg" fill-rule="evenodd" clip-rule="evenodd" stroke-linejoin="round" stroke-miterlimit="2"><g fill="#f7a41d" fill-rule="nonzero"><path d="M156.328 99.136L97.5 171.031l-29.41-45.75 88.238-26.145z"/><path d="M156.328 99.136l-42.485 35.95-16.34 35.945H77.895v166.668h29.414l-35.949 16.34-26.144 55.554H6V99.136h150.328z"/><path d="M107.308 337.699l-62.093 71.894-26.145-35.945 88.238-35.95zm81.7-238.563l19.609 45.754-81.703 26.14 62.093-71.894z"/><path d="M189.007 99.136h179.738v71.895H126.914l62.093-39.211V99.136zM385.085 337.699l-62.093 71.894-22.875-42.48 84.968-29.414z"/><path d="M385.085 337.699l-52.289 29.414-9.804 42.48H143.254v-71.894h241.831z"/><path d="M496.194 27.242l-320.26 382.351-160.13 75.164 320.262-385.62 160.128-71.895zM466.78 99.136l-3.265 58.828L404.69 174.3l62.09-75.164z"/><path d="M506 99.136v310.457H352.405l45.75-39.215 16.34-32.68h19.609V174.3H404.69l32.68-29.414 29.413-45.75H506z"/><path d="M414.495 337.699l16.34 49.023-78.43 22.871 62.09-71.894z"/></g></svg>