ISO-10303-21;
HEADER;
/* Generated by software containing ST-Developer
 * from STEP Tools, Inc. (www.steptools.com) 
 */
/* OPTION: using custom renumber hook */

FILE_DESCRIPTION(
/* description */ ('STEP AP242 Edition 2',
'CAx-IF Rec.Pracs.---Representation and Presentation of Product Manufa
cturing Information (PMI)---4.0---2014-10-13',
'CAx-IF Rec.Pracs.---3D Tessellated Geometry---0.4---2014-09-14','2;1',
'CAx-IF Rec.Pracs.---User Defined Attributes---1.5---2016-08-15'),
/* implementation_level */ '2;1');

FILE_NAME(
/* name */ '1x1 Pre-drilled Alu Thin - 1x1 Alu',
/* time_stamp */ '2026-08-17T10:41:01Z',
/* author */ (''),
/* organization */ (''),
/* preprocessor_version */ 'ST-DEVELOPER v20',
/* originating_system */ 'ONSHAPE BY PTC INC, 1.219',
/* authorisation */ '  ');

FILE_SCHEMA (('AP242_MANAGED_MODEL_BASED_3D_ENGINEERING_MIM_LF { 1 0 10303 442 3 1 4 }'));
ENDSEC;

DATA;
#10=SHAPE_REPRESENTATION_RELATIONSHIP('','',#1357,#11);
#11=ADVANCED_BREP_SHAPE_REPRESENTATION('',(#1355),#2275);
#12=CYLINDRICAL_SURFACE('',#1482,0.0025);
#13=CYLINDRICAL_SURFACE('',#1483,0.0025);
#14=CYLINDRICAL_SURFACE('',#1484,0.0025);
#15=CYLINDRICAL_SURFACE('',#1485,0.0025);
#16=CYLINDRICAL_SURFACE('',#1486,0.0025);
#17=CYLINDRICAL_SURFACE('',#1487,0.0025);
#18=CYLINDRICAL_SURFACE('',#1488,0.0025);
#19=CYLINDRICAL_SURFACE('',#1489,0.0025);
#20=CYLINDRICAL_SURFACE('',#1490,0.0025);
#21=CYLINDRICAL_SURFACE('',#1491,0.0025);
#22=CYLINDRICAL_SURFACE('',#1492,0.0025);
#23=CYLINDRICAL_SURFACE('',#1493,0.0025);
#24=CYLINDRICAL_SURFACE('',#1494,0.0025);
#25=CYLINDRICAL_SURFACE('',#1495,0.0025);
#26=CYLINDRICAL_SURFACE('',#1496,0.0025);
#27=CYLINDRICAL_SURFACE('',#1497,0.0025);
#28=CYLINDRICAL_SURFACE('',#1498,0.0025);
#29=CYLINDRICAL_SURFACE('',#1499,0.0025);
#30=CYLINDRICAL_SURFACE('',#1500,0.0025);
#31=CYLINDRICAL_SURFACE('',#1501,0.0025);
#32=CYLINDRICAL_SURFACE('',#1502,0.0025);
#33=CYLINDRICAL_SURFACE('',#1503,0.0025);
#34=CYLINDRICAL_SURFACE('',#1504,0.0025);
#35=CYLINDRICAL_SURFACE('',#1505,0.0025);
#36=CYLINDRICAL_SURFACE('',#1506,0.0025);
#37=CYLINDRICAL_SURFACE('',#1507,0.0025);
#38=CYLINDRICAL_SURFACE('',#1508,0.0025);
#39=CYLINDRICAL_SURFACE('',#1509,0.0025);
#40=CYLINDRICAL_SURFACE('',#1510,0.0025);
#41=CYLINDRICAL_SURFACE('',#1511,0.0025);
#42=CYLINDRICAL_SURFACE('',#1512,0.0025);
#43=CYLINDRICAL_SURFACE('',#1513,0.0025);
#44=CYLINDRICAL_SURFACE('',#1514,0.0025);
#45=CYLINDRICAL_SURFACE('',#1515,0.0025);
#46=CYLINDRICAL_SURFACE('',#1516,0.0025);
#47=CYLINDRICAL_SURFACE('',#1517,0.0025);
#48=CYLINDRICAL_SURFACE('',#1518,0.0025);
#49=CYLINDRICAL_SURFACE('',#1519,0.0025);
#50=CYLINDRICAL_SURFACE('',#1520,0.0025);
#51=CYLINDRICAL_SURFACE('',#1521,0.0025);
#52=CYLINDRICAL_SURFACE('',#1522,0.0025);
#53=CYLINDRICAL_SURFACE('',#1523,0.0025);
#54=CYLINDRICAL_SURFACE('',#1524,0.0025);
#55=CYLINDRICAL_SURFACE('',#1525,0.0025);
#56=CYLINDRICAL_SURFACE('',#1526,0.0025);
#57=CYLINDRICAL_SURFACE('',#1527,0.0025);
#58=CYLINDRICAL_SURFACE('',#1528,0.0025);
#59=CYLINDRICAL_SURFACE('',#1529,0.0025);
#60=CYLINDRICAL_SURFACE('',#1530,0.0025);
#61=CYLINDRICAL_SURFACE('',#1531,0.0025);
#62=CYLINDRICAL_SURFACE('',#1532,0.0025);
#63=CYLINDRICAL_SURFACE('',#1533,0.0025);
#64=CYLINDRICAL_SURFACE('',#1534,0.0025);
#65=CYLINDRICAL_SURFACE('',#1535,0.0025);
#66=CYLINDRICAL_SURFACE('',#1536,0.0025);
#67=CYLINDRICAL_SURFACE('',#1537,0.0025);
#68=LINE('',#1961,#100);
#69=LINE('',#1963,#101);
#70=LINE('',#1965,#102);
#71=LINE('',#1967,#103);
#72=LINE('',#1969,#104);
#73=LINE('',#1971,#105);
#74=LINE('',#1974,#106);
#75=LINE('',#1976,#107);
#76=LINE('',#1977,#108);
#77=LINE('',#1979,#109);
#78=LINE('',#1981,#110);
#79=LINE('',#1983,#111);
#80=LINE('',#2013,#112);
#81=LINE('',#2015,#113);
#82=LINE('',#2017,#114);
#83=LINE('',#2019,#115);
#84=LINE('',#2049,#116);
#85=LINE('',#2051,#117);
#86=LINE('',#2079,#118);
#87=LINE('',#2083,#119);
#88=LINE('',#2085,#120);
#89=LINE('',#2115,#121);
#90=LINE('',#2117,#122);
#91=LINE('',#2119,#123);
#92=LINE('',#2121,#124);
#93=LINE('',#2151,#125);
#94=LINE('',#2181,#126);
#95=LINE('',#2182,#127);
#96=LINE('',#2212,#128);
#97=LINE('',#2213,#129);
#98=LINE('',#2215,#130);
#99=LINE('',#2216,#131);
#100=VECTOR('',#1570,1.);
#101=VECTOR('',#1571,1.);
#102=VECTOR('',#1572,1.);
#103=VECTOR('',#1573,1.);
#104=VECTOR('',#1574,1.);
#105=VECTOR('',#1577,1.);
#106=VECTOR('',#1578,1.);
#107=VECTOR('',#1579,1.);
#108=VECTOR('',#1580,1.);
#109=VECTOR('',#1581,1.);
#110=VECTOR('',#1582,1.);
#111=VECTOR('',#1583,1.);
#112=VECTOR('',#1614,1.);
#113=VECTOR('',#1615,1.);
#114=VECTOR('',#1616,1.);
#115=VECTOR('',#1617,1.);
#116=VECTOR('',#1648,1.);
#117=VECTOR('',#1649,1.);
#118=VECTOR('',#1678,1.);
#119=VECTOR('',#1681,1.);
#120=VECTOR('',#1682,1.);
#121=VECTOR('',#1713,1.);
#122=VECTOR('',#1714,1.);
#123=VECTOR('',#1715,1.);
#124=VECTOR('',#1716,1.);
#125=VECTOR('',#1747,1.);
#126=VECTOR('',#1778,1.);
#127=VECTOR('',#1779,1.);
#128=VECTOR('',#1810,1.);
#129=VECTOR('',#1811,1.);
#130=VECTOR('',#1814,1.);
#131=VECTOR('',#1815,1.);
#132=ORIENTED_EDGE('',*,*,#420,.F.);
#133=ORIENTED_EDGE('',*,*,#421,.F.);
#134=ORIENTED_EDGE('',*,*,#422,.F.);
#135=ORIENTED_EDGE('',*,*,#423,.F.);
#136=ORIENTED_EDGE('',*,*,#424,.F.);
#137=ORIENTED_EDGE('',*,*,#425,.F.);
#138=ORIENTED_EDGE('',*,*,#426,.F.);
#139=ORIENTED_EDGE('',*,*,#427,.F.);
#140=ORIENTED_EDGE('',*,*,#428,.F.);
#141=ORIENTED_EDGE('',*,*,#429,.F.);
#142=ORIENTED_EDGE('',*,*,#430,.F.);
#143=ORIENTED_EDGE('',*,*,#431,.F.);
#144=ORIENTED_EDGE('',*,*,#432,.F.);
#145=ORIENTED_EDGE('',*,*,#433,.F.);
#146=ORIENTED_EDGE('',*,*,#434,.F.);
#147=ORIENTED_EDGE('',*,*,#435,.T.);
#148=ORIENTED_EDGE('',*,*,#436,.T.);
#149=ORIENTED_EDGE('',*,*,#437,.F.);
#150=ORIENTED_EDGE('',*,*,#438,.F.);
#151=ORIENTED_EDGE('',*,*,#439,.F.);
#152=ORIENTED_EDGE('',*,*,#440,.F.);
#153=ORIENTED_EDGE('',*,*,#441,.T.);
#154=ORIENTED_EDGE('',*,*,#434,.T.);
#155=ORIENTED_EDGE('',*,*,#442,.F.);
#156=ORIENTED_EDGE('',*,*,#443,.F.);
#157=ORIENTED_EDGE('',*,*,#444,.F.);
#158=ORIENTED_EDGE('',*,*,#445,.T.);
#159=ORIENTED_EDGE('',*,*,#446,.F.);
#160=ORIENTED_EDGE('',*,*,#447,.F.);
#161=ORIENTED_EDGE('',*,*,#448,.F.);
#162=ORIENTED_EDGE('',*,*,#449,.F.);
#163=ORIENTED_EDGE('',*,*,#450,.F.);
#164=ORIENTED_EDGE('',*,*,#451,.F.);
#165=ORIENTED_EDGE('',*,*,#452,.F.);
#166=ORIENTED_EDGE('',*,*,#453,.F.);
#167=ORIENTED_EDGE('',*,*,#454,.F.);
#168=ORIENTED_EDGE('',*,*,#455,.F.);
#169=ORIENTED_EDGE('',*,*,#456,.F.);
#170=ORIENTED_EDGE('',*,*,#457,.F.);
#171=ORIENTED_EDGE('',*,*,#458,.F.);
#172=ORIENTED_EDGE('',*,*,#459,.F.);
#173=ORIENTED_EDGE('',*,*,#460,.T.);
#174=ORIENTED_EDGE('',*,*,#461,.T.);
#175=ORIENTED_EDGE('',*,*,#462,.F.);
#176=ORIENTED_EDGE('',*,*,#463,.F.);
#177=ORIENTED_EDGE('',*,*,#443,.T.);
#178=ORIENTED_EDGE('',*,*,#464,.F.);
#179=ORIENTED_EDGE('',*,*,#465,.F.);
#180=ORIENTED_EDGE('',*,*,#466,.F.);
#181=ORIENTED_EDGE('',*,*,#467,.F.);
#182=ORIENTED_EDGE('',*,*,#468,.F.);
#183=ORIENTED_EDGE('',*,*,#469,.F.);
#184=ORIENTED_EDGE('',*,*,#470,.F.);
#185=ORIENTED_EDGE('',*,*,#471,.F.);
#186=ORIENTED_EDGE('',*,*,#472,.F.);
#187=ORIENTED_EDGE('',*,*,#473,.F.);
#188=ORIENTED_EDGE('',*,*,#474,.F.);
#189=ORIENTED_EDGE('',*,*,#475,.F.);
#190=ORIENTED_EDGE('',*,*,#476,.F.);
#191=ORIENTED_EDGE('',*,*,#477,.F.);
#192=ORIENTED_EDGE('',*,*,#478,.F.);
#193=ORIENTED_EDGE('',*,*,#479,.F.);
#194=ORIENTED_EDGE('',*,*,#444,.T.);
#195=ORIENTED_EDGE('',*,*,#463,.T.);
#196=ORIENTED_EDGE('',*,*,#480,.T.);
#197=ORIENTED_EDGE('',*,*,#481,.T.);
#198=ORIENTED_EDGE('',*,*,#482,.T.);
#199=ORIENTED_EDGE('',*,*,#483,.T.);
#200=ORIENTED_EDGE('',*,*,#484,.T.);
#201=ORIENTED_EDGE('',*,*,#485,.T.);
#202=ORIENTED_EDGE('',*,*,#486,.T.);
#203=ORIENTED_EDGE('',*,*,#487,.T.);
#204=ORIENTED_EDGE('',*,*,#488,.T.);
#205=ORIENTED_EDGE('',*,*,#489,.T.);
#206=ORIENTED_EDGE('',*,*,#490,.T.);
#207=ORIENTED_EDGE('',*,*,#491,.T.);
#208=ORIENTED_EDGE('',*,*,#492,.T.);
#209=ORIENTED_EDGE('',*,*,#493,.F.);
#210=ORIENTED_EDGE('',*,*,#494,.T.);
#211=ORIENTED_EDGE('',*,*,#445,.F.);
#212=ORIENTED_EDGE('',*,*,#479,.T.);
#213=ORIENTED_EDGE('',*,*,#495,.T.);
#214=ORIENTED_EDGE('',*,*,#496,.F.);
#215=ORIENTED_EDGE('',*,*,#497,.F.);
#216=ORIENTED_EDGE('',*,*,#498,.F.);
#217=ORIENTED_EDGE('',*,*,#499,.F.);
#218=ORIENTED_EDGE('',*,*,#500,.F.);
#219=ORIENTED_EDGE('',*,*,#501,.F.);
#220=ORIENTED_EDGE('',*,*,#502,.F.);
#221=ORIENTED_EDGE('',*,*,#503,.F.);
#222=ORIENTED_EDGE('',*,*,#504,.F.);
#223=ORIENTED_EDGE('',*,*,#505,.F.);
#224=ORIENTED_EDGE('',*,*,#506,.F.);
#225=ORIENTED_EDGE('',*,*,#507,.F.);
#226=ORIENTED_EDGE('',*,*,#508,.F.);
#227=ORIENTED_EDGE('',*,*,#509,.F.);
#228=ORIENTED_EDGE('',*,*,#510,.F.);
#229=ORIENTED_EDGE('',*,*,#511,.T.);
#230=ORIENTED_EDGE('',*,*,#512,.T.);
#231=ORIENTED_EDGE('',*,*,#513,.F.);
#232=ORIENTED_EDGE('',*,*,#514,.F.);
#233=ORIENTED_EDGE('',*,*,#440,.T.);
#234=ORIENTED_EDGE('',*,*,#515,.T.);
#235=ORIENTED_EDGE('',*,*,#516,.T.);
#236=ORIENTED_EDGE('',*,*,#517,.T.);
#237=ORIENTED_EDGE('',*,*,#518,.T.);
#238=ORIENTED_EDGE('',*,*,#519,.T.);
#239=ORIENTED_EDGE('',*,*,#520,.T.);
#240=ORIENTED_EDGE('',*,*,#521,.T.);
#241=ORIENTED_EDGE('',*,*,#522,.T.);
#242=ORIENTED_EDGE('',*,*,#523,.T.);
#243=ORIENTED_EDGE('',*,*,#524,.T.);
#244=ORIENTED_EDGE('',*,*,#525,.T.);
#245=ORIENTED_EDGE('',*,*,#526,.T.);
#246=ORIENTED_EDGE('',*,*,#527,.T.);
#247=ORIENTED_EDGE('',*,*,#528,.T.);
#248=ORIENTED_EDGE('',*,*,#529,.T.);
#249=ORIENTED_EDGE('',*,*,#435,.F.);
#250=ORIENTED_EDGE('',*,*,#441,.F.);
#251=ORIENTED_EDGE('',*,*,#514,.T.);
#252=ORIENTED_EDGE('',*,*,#530,.F.);
#253=ORIENTED_EDGE('',*,*,#531,.F.);
#254=ORIENTED_EDGE('',*,*,#532,.F.);
#255=ORIENTED_EDGE('',*,*,#533,.F.);
#256=ORIENTED_EDGE('',*,*,#534,.F.);
#257=ORIENTED_EDGE('',*,*,#535,.F.);
#258=ORIENTED_EDGE('',*,*,#536,.F.);
#259=ORIENTED_EDGE('',*,*,#537,.F.);
#260=ORIENTED_EDGE('',*,*,#538,.F.);
#261=ORIENTED_EDGE('',*,*,#539,.F.);
#262=ORIENTED_EDGE('',*,*,#540,.F.);
#263=ORIENTED_EDGE('',*,*,#541,.F.);
#264=ORIENTED_EDGE('',*,*,#542,.F.);
#265=ORIENTED_EDGE('',*,*,#543,.F.);
#266=ORIENTED_EDGE('',*,*,#544,.F.);
#267=ORIENTED_EDGE('',*,*,#512,.F.);
#268=ORIENTED_EDGE('',*,*,#545,.T.);
#269=ORIENTED_EDGE('',*,*,#437,.T.);
#270=ORIENTED_EDGE('',*,*,#546,.T.);
#271=ORIENTED_EDGE('',*,*,#547,.T.);
#272=ORIENTED_EDGE('',*,*,#548,.T.);
#273=ORIENTED_EDGE('',*,*,#549,.T.);
#274=ORIENTED_EDGE('',*,*,#550,.T.);
#275=ORIENTED_EDGE('',*,*,#551,.T.);
#276=ORIENTED_EDGE('',*,*,#552,.T.);
#277=ORIENTED_EDGE('',*,*,#553,.T.);
#278=ORIENTED_EDGE('',*,*,#554,.T.);
#279=ORIENTED_EDGE('',*,*,#555,.T.);
#280=ORIENTED_EDGE('',*,*,#556,.T.);
#281=ORIENTED_EDGE('',*,*,#557,.T.);
#282=ORIENTED_EDGE('',*,*,#558,.T.);
#283=ORIENTED_EDGE('',*,*,#559,.T.);
#284=ORIENTED_EDGE('',*,*,#560,.T.);
#285=ORIENTED_EDGE('',*,*,#461,.F.);
#286=ORIENTED_EDGE('',*,*,#561,.F.);
#287=ORIENTED_EDGE('',*,*,#496,.T.);
#288=ORIENTED_EDGE('',*,*,#562,.F.);
#289=ORIENTED_EDGE('',*,*,#438,.T.);
#290=ORIENTED_EDGE('',*,*,#545,.F.);
#291=ORIENTED_EDGE('',*,*,#511,.F.);
#292=ORIENTED_EDGE('',*,*,#563,.F.);
#293=ORIENTED_EDGE('',*,*,#493,.T.);
#294=ORIENTED_EDGE('',*,*,#561,.T.);
#295=ORIENTED_EDGE('',*,*,#460,.F.);
#296=ORIENTED_EDGE('',*,*,#513,.T.);
#297=ORIENTED_EDGE('',*,*,#544,.T.);
#298=ORIENTED_EDGE('',*,*,#436,.F.);
#299=ORIENTED_EDGE('',*,*,#529,.F.);
#300=ORIENTED_EDGE('',*,*,#462,.T.);
#301=ORIENTED_EDGE('',*,*,#560,.F.);
#302=ORIENTED_EDGE('',*,*,#495,.F.);
#303=ORIENTED_EDGE('',*,*,#478,.T.);
#304=ORIENTED_EDGE('',*,*,#543,.T.);
#305=ORIENTED_EDGE('',*,*,#559,.F.);
#306=ORIENTED_EDGE('',*,*,#542,.T.);
#307=ORIENTED_EDGE('',*,*,#558,.F.);
#308=ORIENTED_EDGE('',*,*,#541,.T.);
#309=ORIENTED_EDGE('',*,*,#557,.F.);
#310=ORIENTED_EDGE('',*,*,#540,.T.);
#311=ORIENTED_EDGE('',*,*,#556,.F.);
#312=ORIENTED_EDGE('',*,*,#539,.T.);
#313=ORIENTED_EDGE('',*,*,#555,.F.);
#314=ORIENTED_EDGE('',*,*,#538,.T.);
#315=ORIENTED_EDGE('',*,*,#554,.F.);
#316=ORIENTED_EDGE('',*,*,#537,.T.);
#317=ORIENTED_EDGE('',*,*,#553,.F.);
#318=ORIENTED_EDGE('',*,*,#536,.T.);
#319=ORIENTED_EDGE('',*,*,#552,.F.);
#320=ORIENTED_EDGE('',*,*,#535,.T.);
#321=ORIENTED_EDGE('',*,*,#551,.F.);
#322=ORIENTED_EDGE('',*,*,#534,.T.);
#323=ORIENTED_EDGE('',*,*,#550,.F.);
#324=ORIENTED_EDGE('',*,*,#533,.T.);
#325=ORIENTED_EDGE('',*,*,#549,.F.);
#326=ORIENTED_EDGE('',*,*,#532,.T.);
#327=ORIENTED_EDGE('',*,*,#548,.F.);
#328=ORIENTED_EDGE('',*,*,#531,.T.);
#329=ORIENTED_EDGE('',*,*,#547,.F.);
#330=ORIENTED_EDGE('',*,*,#530,.T.);
#331=ORIENTED_EDGE('',*,*,#546,.F.);
#332=ORIENTED_EDGE('',*,*,#477,.T.);
#333=ORIENTED_EDGE('',*,*,#528,.F.);
#334=ORIENTED_EDGE('',*,*,#476,.T.);
#335=ORIENTED_EDGE('',*,*,#527,.F.);
#336=ORIENTED_EDGE('',*,*,#475,.T.);
#337=ORIENTED_EDGE('',*,*,#526,.F.);
#338=ORIENTED_EDGE('',*,*,#474,.T.);
#339=ORIENTED_EDGE('',*,*,#525,.F.);
#340=ORIENTED_EDGE('',*,*,#473,.T.);
#341=ORIENTED_EDGE('',*,*,#524,.F.);
#342=ORIENTED_EDGE('',*,*,#472,.T.);
#343=ORIENTED_EDGE('',*,*,#523,.F.);
#344=ORIENTED_EDGE('',*,*,#471,.T.);
#345=ORIENTED_EDGE('',*,*,#522,.F.);
#346=ORIENTED_EDGE('',*,*,#470,.T.);
#347=ORIENTED_EDGE('',*,*,#521,.F.);
#348=ORIENTED_EDGE('',*,*,#469,.T.);
#349=ORIENTED_EDGE('',*,*,#520,.F.);
#350=ORIENTED_EDGE('',*,*,#468,.T.);
#351=ORIENTED_EDGE('',*,*,#519,.F.);
#352=ORIENTED_EDGE('',*,*,#467,.T.);
#353=ORIENTED_EDGE('',*,*,#518,.F.);
#354=ORIENTED_EDGE('',*,*,#466,.T.);
#355=ORIENTED_EDGE('',*,*,#517,.F.);
#356=ORIENTED_EDGE('',*,*,#465,.T.);
#357=ORIENTED_EDGE('',*,*,#516,.F.);
#358=ORIENTED_EDGE('',*,*,#464,.T.);
#359=ORIENTED_EDGE('',*,*,#515,.F.);
#360=ORIENTED_EDGE('',*,*,#439,.T.);
#361=ORIENTED_EDGE('',*,*,#494,.F.);
#362=ORIENTED_EDGE('',*,*,#563,.T.);
#363=ORIENTED_EDGE('',*,*,#510,.T.);
#364=ORIENTED_EDGE('',*,*,#442,.T.);
#365=ORIENTED_EDGE('',*,*,#433,.T.);
#366=ORIENTED_EDGE('',*,*,#562,.T.);
#367=ORIENTED_EDGE('',*,*,#459,.T.);
#368=ORIENTED_EDGE('',*,*,#458,.T.);
#369=ORIENTED_EDGE('',*,*,#420,.T.);
#370=ORIENTED_EDGE('',*,*,#457,.T.);
#371=ORIENTED_EDGE('',*,*,#421,.T.);
#372=ORIENTED_EDGE('',*,*,#456,.T.);
#373=ORIENTED_EDGE('',*,*,#422,.T.);
#374=ORIENTED_EDGE('',*,*,#455,.T.);
#375=ORIENTED_EDGE('',*,*,#423,.T.);
#376=ORIENTED_EDGE('',*,*,#454,.T.);
#377=ORIENTED_EDGE('',*,*,#424,.T.);
#378=ORIENTED_EDGE('',*,*,#453,.T.);
#379=ORIENTED_EDGE('',*,*,#425,.T.);
#380=ORIENTED_EDGE('',*,*,#452,.T.);
#381=ORIENTED_EDGE('',*,*,#426,.T.);
#382=ORIENTED_EDGE('',*,*,#451,.T.);
#383=ORIENTED_EDGE('',*,*,#427,.T.);
#384=ORIENTED_EDGE('',*,*,#450,.T.);
#385=ORIENTED_EDGE('',*,*,#428,.T.);
#386=ORIENTED_EDGE('',*,*,#449,.T.);
#387=ORIENTED_EDGE('',*,*,#429,.T.);
#388=ORIENTED_EDGE('',*,*,#448,.T.);
#389=ORIENTED_EDGE('',*,*,#430,.T.);
#390=ORIENTED_EDGE('',*,*,#447,.T.);
#391=ORIENTED_EDGE('',*,*,#431,.T.);
#392=ORIENTED_EDGE('',*,*,#446,.T.);
#393=ORIENTED_EDGE('',*,*,#432,.T.);
#394=ORIENTED_EDGE('',*,*,#509,.T.);
#395=ORIENTED_EDGE('',*,*,#492,.F.);
#396=ORIENTED_EDGE('',*,*,#508,.T.);
#397=ORIENTED_EDGE('',*,*,#491,.F.);
#398=ORIENTED_EDGE('',*,*,#507,.T.);
#399=ORIENTED_EDGE('',*,*,#490,.F.);
#400=ORIENTED_EDGE('',*,*,#506,.T.);
#401=ORIENTED_EDGE('',*,*,#489,.F.);
#402=ORIENTED_EDGE('',*,*,#505,.T.);
#403=ORIENTED_EDGE('',*,*,#488,.F.);
#404=ORIENTED_EDGE('',*,*,#504,.T.);
#405=ORIENTED_EDGE('',*,*,#487,.F.);
#406=ORIENTED_EDGE('',*,*,#503,.T.);
#407=ORIENTED_EDGE('',*,*,#486,.F.);
#408=ORIENTED_EDGE('',*,*,#502,.T.);
#409=ORIENTED_EDGE('',*,*,#485,.F.);
#410=ORIENTED_EDGE('',*,*,#501,.T.);
#411=ORIENTED_EDGE('',*,*,#484,.F.);
#412=ORIENTED_EDGE('',*,*,#500,.T.);
#413=ORIENTED_EDGE('',*,*,#483,.F.);
#414=ORIENTED_EDGE('',*,*,#499,.T.);
#415=ORIENTED_EDGE('',*,*,#482,.F.);
#416=ORIENTED_EDGE('',*,*,#498,.T.);
#417=ORIENTED_EDGE('',*,*,#481,.F.);
#418=ORIENTED_EDGE('',*,*,#497,.T.);
#419=ORIENTED_EDGE('',*,*,#480,.F.);
#420=EDGE_CURVE('',#564,#564,#696,.T.);
#421=EDGE_CURVE('',#565,#565,#697,.T.);
#422=EDGE_CURVE('',#566,#566,#698,.T.);
#423=EDGE_CURVE('',#567,#567,#699,.T.);
#424=EDGE_CURVE('',#568,#568,#700,.T.);
#425=EDGE_CURVE('',#569,#569,#701,.T.);
#426=EDGE_CURVE('',#570,#570,#702,.T.);
#427=EDGE_CURVE('',#571,#571,#703,.T.);
#428=EDGE_CURVE('',#572,#572,#704,.T.);
#429=EDGE_CURVE('',#573,#573,#705,.T.);
#430=EDGE_CURVE('',#574,#574,#706,.T.);
#431=EDGE_CURVE('',#575,#575,#707,.T.);
#432=EDGE_CURVE('',#576,#576,#708,.T.);
#433=EDGE_CURVE('',#577,#578,#709,.T.);
#434=EDGE_CURVE('',#579,#577,#68,.T.);
#435=EDGE_CURVE('',#579,#580,#69,.T.);
#436=EDGE_CURVE('',#580,#581,#70,.T.);
#437=EDGE_CURVE('',#582,#581,#71,.T.);
#438=EDGE_CURVE('',#578,#582,#72,.T.);
#439=EDGE_CURVE('',#583,#584,#73,.T.);
#440=EDGE_CURVE('',#585,#583,#74,.T.);
#441=EDGE_CURVE('',#585,#579,#75,.T.);
#442=EDGE_CURVE('',#586,#577,#76,.T.);
#443=EDGE_CURVE('',#587,#586,#77,.T.);
#444=EDGE_CURVE('',#588,#587,#78,.T.);
#445=EDGE_CURVE('',#588,#584,#79,.T.);
#446=EDGE_CURVE('',#589,#589,#710,.T.);
#447=EDGE_CURVE('',#590,#590,#711,.T.);
#448=EDGE_CURVE('',#591,#591,#712,.T.);
#449=EDGE_CURVE('',#592,#592,#713,.T.);
#450=EDGE_CURVE('',#593,#593,#714,.T.);
#451=EDGE_CURVE('',#594,#594,#715,.T.);
#452=EDGE_CURVE('',#595,#595,#716,.T.);
#453=EDGE_CURVE('',#596,#596,#717,.T.);
#454=EDGE_CURVE('',#597,#597,#718,.T.);
#455=EDGE_CURVE('',#598,#598,#719,.T.);
#456=EDGE_CURVE('',#599,#599,#720,.T.);
#457=EDGE_CURVE('',#600,#600,#721,.T.);
#458=EDGE_CURVE('',#601,#601,#722,.T.);
#459=EDGE_CURVE('',#602,#586,#723,.T.);
#460=EDGE_CURVE('',#602,#603,#80,.T.);
#461=EDGE_CURVE('',#603,#604,#81,.T.);
#462=EDGE_CURVE('',#605,#604,#82,.T.);
#463=EDGE_CURVE('',#587,#605,#83,.T.);
#464=EDGE_CURVE('',#606,#606,#724,.T.);
#465=EDGE_CURVE('',#607,#607,#725,.T.);
#466=EDGE_CURVE('',#608,#608,#726,.T.);
#467=EDGE_CURVE('',#609,#609,#727,.T.);
#468=EDGE_CURVE('',#610,#610,#728,.T.);
#469=EDGE_CURVE('',#611,#611,#729,.T.);
#470=EDGE_CURVE('',#612,#612,#730,.T.);
#471=EDGE_CURVE('',#613,#613,#731,.T.);
#472=EDGE_CURVE('',#614,#614,#732,.T.);
#473=EDGE_CURVE('',#615,#615,#733,.T.);
#474=EDGE_CURVE('',#616,#616,#734,.T.);
#475=EDGE_CURVE('',#617,#617,#735,.T.);
#476=EDGE_CURVE('',#618,#618,#736,.T.);
#477=EDGE_CURVE('',#619,#619,#737,.T.);
#478=EDGE_CURVE('',#620,#605,#84,.T.);
#479=EDGE_CURVE('',#588,#620,#85,.T.);
#480=EDGE_CURVE('',#621,#621,#738,.T.);
#481=EDGE_CURVE('',#622,#622,#739,.T.);
#482=EDGE_CURVE('',#623,#623,#740,.T.);
#483=EDGE_CURVE('',#624,#624,#741,.T.);
#484=EDGE_CURVE('',#625,#625,#742,.T.);
#485=EDGE_CURVE('',#626,#626,#743,.T.);
#486=EDGE_CURVE('',#627,#627,#744,.T.);
#487=EDGE_CURVE('',#628,#628,#745,.T.);
#488=EDGE_CURVE('',#629,#629,#746,.T.);
#489=EDGE_CURVE('',#630,#630,#747,.T.);
#490=EDGE_CURVE('',#631,#631,#748,.T.);
#491=EDGE_CURVE('',#632,#632,#749,.T.);
#492=EDGE_CURVE('',#633,#633,#750,.T.);
#493=EDGE_CURVE('',#634,#635,#86,.T.);
#494=EDGE_CURVE('',#634,#584,#751,.T.);
#495=EDGE_CURVE('',#620,#636,#87,.T.);
#496=EDGE_CURVE('',#635,#636,#88,.T.);
#497=EDGE_CURVE('',#637,#637,#752,.T.);
#498=EDGE_CURVE('',#638,#638,#753,.T.);
#499=EDGE_CURVE('',#639,#639,#754,.T.);
#500=EDGE_CURVE('',#640,#640,#755,.T.);
#501=EDGE_CURVE('',#641,#641,#756,.T.);
#502=EDGE_CURVE('',#642,#642,#757,.T.);
#503=EDGE_CURVE('',#643,#643,#758,.T.);
#504=EDGE_CURVE('',#644,#644,#759,.T.);
#505=EDGE_CURVE('',#645,#645,#760,.T.);
#506=EDGE_CURVE('',#646,#646,#761,.T.);
#507=EDGE_CURVE('',#647,#647,#762,.T.);
#508=EDGE_CURVE('',#648,#648,#763,.T.);
#509=EDGE_CURVE('',#649,#649,#764,.T.);
#510=EDGE_CURVE('',#650,#583,#765,.T.);
#511=EDGE_CURVE('',#650,#651,#89,.T.);
#512=EDGE_CURVE('',#651,#652,#90,.T.);
#513=EDGE_CURVE('',#653,#652,#91,.T.);
#514=EDGE_CURVE('',#585,#653,#92,.T.);
#515=EDGE_CURVE('',#654,#654,#766,.T.);
#516=EDGE_CURVE('',#655,#655,#767,.T.);
#517=EDGE_CURVE('',#656,#656,#768,.T.);
#518=EDGE_CURVE('',#657,#657,#769,.T.);
#519=EDGE_CURVE('',#658,#658,#770,.T.);
#520=EDGE_CURVE('',#659,#659,#771,.T.);
#521=EDGE_CURVE('',#660,#660,#772,.T.);
#522=EDGE_CURVE('',#661,#661,#773,.T.);
#523=EDGE_CURVE('',#662,#662,#774,.T.);
#524=EDGE_CURVE('',#663,#663,#775,.T.);
#525=EDGE_CURVE('',#664,#664,#776,.T.);
#526=EDGE_CURVE('',#665,#665,#777,.T.);
#527=EDGE_CURVE('',#666,#666,#778,.T.);
#528=EDGE_CURVE('',#667,#667,#779,.T.);
#529=EDGE_CURVE('',#653,#580,#93,.T.);
#530=EDGE_CURVE('',#668,#668,#780,.T.);
#531=EDGE_CURVE('',#669,#669,#781,.T.);
#532=EDGE_CURVE('',#670,#670,#782,.T.);
#533=EDGE_CURVE('',#671,#671,#783,.T.);
#534=EDGE_CURVE('',#672,#672,#784,.T.);
#535=EDGE_CURVE('',#673,#673,#785,.T.);
#536=EDGE_CURVE('',#674,#674,#786,.T.);
#537=EDGE_CURVE('',#675,#675,#787,.T.);
#538=EDGE_CURVE('',#676,#676,#788,.T.);
#539=EDGE_CURVE('',#677,#677,#789,.T.);
#540=EDGE_CURVE('',#678,#678,#790,.T.);
#541=EDGE_CURVE('',#679,#679,#791,.T.);
#542=EDGE_CURVE('',#680,#680,#792,.T.);
#543=EDGE_CURVE('',#681,#681,#793,.T.);
#544=EDGE_CURVE('',#652,#581,#94,.T.);
#545=EDGE_CURVE('',#651,#582,#95,.T.);
#546=EDGE_CURVE('',#682,#682,#794,.T.);
#547=EDGE_CURVE('',#683,#683,#795,.T.);
#548=EDGE_CURVE('',#684,#684,#796,.T.);
#549=EDGE_CURVE('',#685,#685,#797,.T.);
#550=EDGE_CURVE('',#686,#686,#798,.T.);
#551=EDGE_CURVE('',#687,#687,#799,.T.);
#552=EDGE_CURVE('',#688,#688,#800,.T.);
#553=EDGE_CURVE('',#689,#689,#801,.T.);
#554=EDGE_CURVE('',#690,#690,#802,.T.);
#555=EDGE_CURVE('',#691,#691,#803,.T.);
#556=EDGE_CURVE('',#692,#692,#804,.T.);
#557=EDGE_CURVE('',#693,#693,#805,.T.);
#558=EDGE_CURVE('',#694,#694,#806,.T.);
#559=EDGE_CURVE('',#695,#695,#807,.T.);
#560=EDGE_CURVE('',#636,#604,#96,.T.);
#561=EDGE_CURVE('',#635,#603,#97,.T.);
#562=EDGE_CURVE('',#578,#602,#98,.F.);
#563=EDGE_CURVE('',#634,#650,#99,.F.);
#564=VERTEX_POINT('',#1933);
#565=VERTEX_POINT('',#1935);
#566=VERTEX_POINT('',#1937);
#567=VERTEX_POINT('',#1939);
#568=VERTEX_POINT('',#1941);
#569=VERTEX_POINT('',#1943);
#570=VERTEX_POINT('',#1945);
#571=VERTEX_POINT('',#1947);
#572=VERTEX_POINT('',#1949);
#573=VERTEX_POINT('',#1951);
#574=VERTEX_POINT('',#1953);
#575=VERTEX_POINT('',#1955);
#576=VERTEX_POINT('',#1957);
#577=VERTEX_POINT('',#1959);
#578=VERTEX_POINT('',#1960);
#579=VERTEX_POINT('',#1962);
#580=VERTEX_POINT('',#1964);
#581=VERTEX_POINT('',#1966);
#582=VERTEX_POINT('',#1968);
#583=VERTEX_POINT('',#1972);
#584=VERTEX_POINT('',#1973);
#585=VERTEX_POINT('',#1975);
#586=VERTEX_POINT('',#1978);
#587=VERTEX_POINT('',#1980);
#588=VERTEX_POINT('',#1982);
#589=VERTEX_POINT('',#1986);
#590=VERTEX_POINT('',#1988);
#591=VERTEX_POINT('',#1990);
#592=VERTEX_POINT('',#1992);
#593=VERTEX_POINT('',#1994);
#594=VERTEX_POINT('',#1996);
#595=VERTEX_POINT('',#1998);
#596=VERTEX_POINT('',#2000);
#597=VERTEX_POINT('',#2002);
#598=VERTEX_POINT('',#2004);
#599=VERTEX_POINT('',#2006);
#600=VERTEX_POINT('',#2008);
#601=VERTEX_POINT('',#2010);
#602=VERTEX_POINT('',#2012);
#603=VERTEX_POINT('',#2014);
#604=VERTEX_POINT('',#2016);
#605=VERTEX_POINT('',#2018);
#606=VERTEX_POINT('',#2022);
#607=VERTEX_POINT('',#2024);
#608=VERTEX_POINT('',#2026);
#609=VERTEX_POINT('',#2028);
#610=VERTEX_POINT('',#2030);
#611=VERTEX_POINT('',#2032);
#612=VERTEX_POINT('',#2034);
#613=VERTEX_POINT('',#2036);
#614=VERTEX_POINT('',#2038);
#615=VERTEX_POINT('',#2040);
#616=VERTEX_POINT('',#2042);
#617=VERTEX_POINT('',#2044);
#618=VERTEX_POINT('',#2046);
#619=VERTEX_POINT('',#2048);
#620=VERTEX_POINT('',#2050);
#621=VERTEX_POINT('',#2054);
#622=VERTEX_POINT('',#2056);
#623=VERTEX_POINT('',#2058);
#624=VERTEX_POINT('',#2060);
#625=VERTEX_POINT('',#2062);
#626=VERTEX_POINT('',#2064);
#627=VERTEX_POINT('',#2066);
#628=VERTEX_POINT('',#2068);
#629=VERTEX_POINT('',#2070);
#630=VERTEX_POINT('',#2072);
#631=VERTEX_POINT('',#2074);
#632=VERTEX_POINT('',#2076);
#633=VERTEX_POINT('',#2078);
#634=VERTEX_POINT('',#2080);
#635=VERTEX_POINT('',#2081);
#636=VERTEX_POINT('',#2084);
#637=VERTEX_POINT('',#2088);
#638=VERTEX_POINT('',#2090);
#639=VERTEX_POINT('',#2092);
#640=VERTEX_POINT('',#2094);
#641=VERTEX_POINT('',#2096);
#642=VERTEX_POINT('',#2098);
#643=VERTEX_POINT('',#2100);
#644=VERTEX_POINT('',#2102);
#645=VERTEX_POINT('',#2104);
#646=VERTEX_POINT('',#2106);
#647=VERTEX_POINT('',#2108);
#648=VERTEX_POINT('',#2110);
#649=VERTEX_POINT('',#2112);
#650=VERTEX_POINT('',#2114);
#651=VERTEX_POINT('',#2116);
#652=VERTEX_POINT('',#2118);
#653=VERTEX_POINT('',#2120);
#654=VERTEX_POINT('',#2124);
#655=VERTEX_POINT('',#2126);
#656=VERTEX_POINT('',#2128);
#657=VERTEX_POINT('',#2130);
#658=VERTEX_POINT('',#2132);
#659=VERTEX_POINT('',#2134);
#660=VERTEX_POINT('',#2136);
#661=VERTEX_POINT('',#2138);
#662=VERTEX_POINT('',#2140);
#663=VERTEX_POINT('',#2142);
#664=VERTEX_POINT('',#2144);
#665=VERTEX_POINT('',#2146);
#666=VERTEX_POINT('',#2148);
#667=VERTEX_POINT('',#2150);
#668=VERTEX_POINT('',#2154);
#669=VERTEX_POINT('',#2156);
#670=VERTEX_POINT('',#2158);
#671=VERTEX_POINT('',#2160);
#672=VERTEX_POINT('',#2162);
#673=VERTEX_POINT('',#2164);
#674=VERTEX_POINT('',#2166);
#675=VERTEX_POINT('',#2168);
#676=VERTEX_POINT('',#2170);
#677=VERTEX_POINT('',#2172);
#678=VERTEX_POINT('',#2174);
#679=VERTEX_POINT('',#2176);
#680=VERTEX_POINT('',#2178);
#681=VERTEX_POINT('',#2180);
#682=VERTEX_POINT('',#2185);
#683=VERTEX_POINT('',#2187);
#684=VERTEX_POINT('',#2189);
#685=VERTEX_POINT('',#2191);
#686=VERTEX_POINT('',#2193);
#687=VERTEX_POINT('',#2195);
#688=VERTEX_POINT('',#2197);
#689=VERTEX_POINT('',#2199);
#690=VERTEX_POINT('',#2201);
#691=VERTEX_POINT('',#2203);
#692=VERTEX_POINT('',#2205);
#693=VERTEX_POINT('',#2207);
#694=VERTEX_POINT('',#2209);
#695=VERTEX_POINT('',#2211);
#696=CIRCLE('',#1360,0.0025);
#697=CIRCLE('',#1361,0.0025);
#698=CIRCLE('',#1362,0.0025);
#699=CIRCLE('',#1363,0.0025);
#700=CIRCLE('',#1364,0.0025);
#701=CIRCLE('',#1365,0.0025);
#702=CIRCLE('',#1366,0.0025);
#703=CIRCLE('',#1367,0.0025);
#704=CIRCLE('',#1368,0.0025);
#705=CIRCLE('',#1369,0.0025);
#706=CIRCLE('',#1370,0.0025);
#707=CIRCLE('',#1371,0.0025);
#708=CIRCLE('',#1372,0.0025);
#709=CIRCLE('',#1373,0.0025);
#710=CIRCLE('',#1376,0.0025);
#711=CIRCLE('',#1377,0.0025);
#712=CIRCLE('',#1378,0.0025);
#713=CIRCLE('',#1379,0.0025);
#714=CIRCLE('',#1380,0.0025);
#715=CIRCLE('',#1381,0.0025);
#716=CIRCLE('',#1382,0.0025);
#717=CIRCLE('',#1383,0.0025);
#718=CIRCLE('',#1384,0.0025);
#719=CIRCLE('',#1385,0.0025);
#720=CIRCLE('',#1386,0.0025);
#721=CIRCLE('',#1387,0.0025);
#722=CIRCLE('',#1388,0.0025);
#723=CIRCLE('',#1389,0.0025);
#724=CIRCLE('',#1391,0.0025);
#725=CIRCLE('',#1392,0.0025);
#726=CIRCLE('',#1393,0.0025);
#727=CIRCLE('',#1394,0.0025);
#728=CIRCLE('',#1395,0.0025);
#729=CIRCLE('',#1396,0.0025);
#730=CIRCLE('',#1397,0.0025);
#731=CIRCLE('',#1398,0.0025);
#732=CIRCLE('',#1399,0.0025);
#733=CIRCLE('',#1400,0.0025);
#734=CIRCLE('',#1401,0.0025);
#735=CIRCLE('',#1402,0.0025);
#736=CIRCLE('',#1403,0.0025);
#737=CIRCLE('',#1404,0.0025);
#738=CIRCLE('',#1406,0.0025);
#739=CIRCLE('',#1407,0.0025);
#740=CIRCLE('',#1408,0.0025);
#741=CIRCLE('',#1409,0.0025);
#742=CIRCLE('',#1410,0.0025);
#743=CIRCLE('',#1411,0.0025);
#744=CIRCLE('',#1412,0.0025);
#745=CIRCLE('',#1413,0.0025);
#746=CIRCLE('',#1414,0.0025);
#747=CIRCLE('',#1415,0.0025);
#748=CIRCLE('',#1416,0.0025);
#749=CIRCLE('',#1417,0.0025);
#750=CIRCLE('',#1418,0.0025);
#751=CIRCLE('',#1419,0.0025);
#752=CIRCLE('',#1421,0.0025);
#753=CIRCLE('',#1422,0.0025);
#754=CIRCLE('',#1423,0.0025);
#755=CIRCLE('',#1424,0.0025);
#756=CIRCLE('',#1425,0.0025);
#757=CIRCLE('',#1426,0.0025);
#758=CIRCLE('',#1427,0.0025);
#759=CIRCLE('',#1428,0.0025);
#760=CIRCLE('',#1429,0.0025);
#761=CIRCLE('',#1430,0.0025);
#762=CIRCLE('',#1431,0.0025);
#763=CIRCLE('',#1432,0.0025);
#764=CIRCLE('',#1433,0.0025);
#765=CIRCLE('',#1434,0.0025);
#766=CIRCLE('',#1436,0.0025);
#767=CIRCLE('',#1437,0.0025);
#768=CIRCLE('',#1438,0.0025);
#769=CIRCLE('',#1439,0.0025);
#770=CIRCLE('',#1440,0.0025);
#771=CIRCLE('',#1441,0.0025);
#772=CIRCLE('',#1442,0.0025);
#773=CIRCLE('',#1443,0.0025);
#774=CIRCLE('',#1444,0.0025);
#775=CIRCLE('',#1445,0.0025);
#776=CIRCLE('',#1446,0.0025);
#777=CIRCLE('',#1447,0.0025);
#778=CIRCLE('',#1448,0.0025);
#779=CIRCLE('',#1449,0.0025);
#780=CIRCLE('',#1451,0.0025);
#781=CIRCLE('',#1452,0.0025);
#782=CIRCLE('',#1453,0.0025);
#783=CIRCLE('',#1454,0.0025);
#784=CIRCLE('',#1455,0.0025);
#785=CIRCLE('',#1456,0.0025);
#786=CIRCLE('',#1457,0.0025);
#787=CIRCLE('',#1458,0.0025);
#788=CIRCLE('',#1459,0.0025);
#789=CIRCLE('',#1460,0.0025);
#790=CIRCLE('',#1461,0.0025);
#791=CIRCLE('',#1462,0.0025);
#792=CIRCLE('',#1463,0.0025);
#793=CIRCLE('',#1464,0.0025);
#794=CIRCLE('',#1466,0.0025);
#795=CIRCLE('',#1467,0.0025);
#796=CIRCLE('',#1468,0.0025);
#797=CIRCLE('',#1469,0.0025);
#798=CIRCLE('',#1470,0.0025);
#799=CIRCLE('',#1471,0.0025);
#800=CIRCLE('',#1472,0.0025);
#801=CIRCLE('',#1473,0.0025);
#802=CIRCLE('',#1474,0.0025);
#803=CIRCLE('',#1475,0.0025);
#804=CIRCLE('',#1476,0.0025);
#805=CIRCLE('',#1477,0.0025);
#806=CIRCLE('',#1478,0.0025);
#807=CIRCLE('',#1479,0.0025);
#808=EDGE_LOOP('',(#132));
#809=EDGE_LOOP('',(#133));
#810=EDGE_LOOP('',(#134));
#811=EDGE_LOOP('',(#135));
#812=EDGE_LOOP('',(#136));
#813=EDGE_LOOP('',(#137));
#814=EDGE_LOOP('',(#138));
#815=EDGE_LOOP('',(#139));
#816=EDGE_LOOP('',(#140));
#817=EDGE_LOOP('',(#141));
#818=EDGE_LOOP('',(#142));
#819=EDGE_LOOP('',(#143));
#820=EDGE_LOOP('',(#144));
#821=EDGE_LOOP('',(#145,#146,#147,#148,#149,#150));
#822=EDGE_LOOP('',(#151,#152,#153,#154,#155,#156,#157,#158));
#823=EDGE_LOOP('',(#159));
#824=EDGE_LOOP('',(#160));
#825=EDGE_LOOP('',(#161));
#826=EDGE_LOOP('',(#162));
#827=EDGE_LOOP('',(#163));
#828=EDGE_LOOP('',(#164));
#829=EDGE_LOOP('',(#165));
#830=EDGE_LOOP('',(#166));
#831=EDGE_LOOP('',(#167));
#832=EDGE_LOOP('',(#168));
#833=EDGE_LOOP('',(#169));
#834=EDGE_LOOP('',(#170));
#835=EDGE_LOOP('',(#171));
#836=EDGE_LOOP('',(#172,#173,#174,#175,#176,#177));
#837=EDGE_LOOP('',(#178));
#838=EDGE_LOOP('',(#179));
#839=EDGE_LOOP('',(#180));
#840=EDGE_LOOP('',(#181));
#841=EDGE_LOOP('',(#182));
#842=EDGE_LOOP('',(#183));
#843=EDGE_LOOP('',(#184));
#844=EDGE_LOOP('',(#185));
#845=EDGE_LOOP('',(#186));
#846=EDGE_LOOP('',(#187));
#847=EDGE_LOOP('',(#188));
#848=EDGE_LOOP('',(#189));
#849=EDGE_LOOP('',(#190));
#850=EDGE_LOOP('',(#191));
#851=EDGE_LOOP('',(#192,#193,#194,#195));
#852=EDGE_LOOP('',(#196));
#853=EDGE_LOOP('',(#197));
#854=EDGE_LOOP('',(#198));
#855=EDGE_LOOP('',(#199));
#856=EDGE_LOOP('',(#200));
#857=EDGE_LOOP('',(#201));
#858=EDGE_LOOP('',(#202));
#859=EDGE_LOOP('',(#203));
#860=EDGE_LOOP('',(#204));
#861=EDGE_LOOP('',(#205));
#862=EDGE_LOOP('',(#206));
#863=EDGE_LOOP('',(#207));
#864=EDGE_LOOP('',(#208));
#865=EDGE_LOOP('',(#209,#210,#211,#212,#213,#214));
#866=EDGE_LOOP('',(#215));
#867=EDGE_LOOP('',(#216));
#868=EDGE_LOOP('',(#217));
#869=EDGE_LOOP('',(#218));
#870=EDGE_LOOP('',(#219));
#871=EDGE_LOOP('',(#220));
#872=EDGE_LOOP('',(#221));
#873=EDGE_LOOP('',(#222));
#874=EDGE_LOOP('',(#223));
#875=EDGE_LOOP('',(#224));
#876=EDGE_LOOP('',(#225));
#877=EDGE_LOOP('',(#226));
#878=EDGE_LOOP('',(#227));
#879=EDGE_LOOP('',(#228,#229,#230,#231,#232,#233));
#880=EDGE_LOOP('',(#234));
#881=EDGE_LOOP('',(#235));
#882=EDGE_LOOP('',(#236));
#883=EDGE_LOOP('',(#237));
#884=EDGE_LOOP('',(#238));
#885=EDGE_LOOP('',(#239));
#886=EDGE_LOOP('',(#240));
#887=EDGE_LOOP('',(#241));
#888=EDGE_LOOP('',(#242));
#889=EDGE_LOOP('',(#243));
#890=EDGE_LOOP('',(#244));
#891=EDGE_LOOP('',(#245));
#892=EDGE_LOOP('',(#246));
#893=EDGE_LOOP('',(#247));
#894=EDGE_LOOP('',(#248,#249,#250,#251));
#895=EDGE_LOOP('',(#252));
#896=EDGE_LOOP('',(#253));
#897=EDGE_LOOP('',(#254));
#898=EDGE_LOOP('',(#255));
#899=EDGE_LOOP('',(#256));
#900=EDGE_LOOP('',(#257));
#901=EDGE_LOOP('',(#258));
#902=EDGE_LOOP('',(#259));
#903=EDGE_LOOP('',(#260));
#904=EDGE_LOOP('',(#261));
#905=EDGE_LOOP('',(#262));
#906=EDGE_LOOP('',(#263));
#907=EDGE_LOOP('',(#264));
#908=EDGE_LOOP('',(#265));
#909=EDGE_LOOP('',(#266,#267,#268,#269));
#910=EDGE_LOOP('',(#270));
#911=EDGE_LOOP('',(#271));
#912=EDGE_LOOP('',(#272));
#913=EDGE_LOOP('',(#273));
#914=EDGE_LOOP('',(#274));
#915=EDGE_LOOP('',(#275));
#916=EDGE_LOOP('',(#276));
#917=EDGE_LOOP('',(#277));
#918=EDGE_LOOP('',(#278));
#919=EDGE_LOOP('',(#279));
#920=EDGE_LOOP('',(#280));
#921=EDGE_LOOP('',(#281));
#922=EDGE_LOOP('',(#282));
#923=EDGE_LOOP('',(#283));
#924=EDGE_LOOP('',(#284,#285,#286,#287));
#925=EDGE_LOOP('',(#288,#289,#290,#291,#292,#293,#294,#295));
#926=EDGE_LOOP('',(#296,#297,#298,#299));
#927=EDGE_LOOP('',(#300,#301,#302,#303));
#928=EDGE_LOOP('',(#304));
#929=EDGE_LOOP('',(#305));
#930=EDGE_LOOP('',(#306));
#931=EDGE_LOOP('',(#307));
#932=EDGE_LOOP('',(#308));
#933=EDGE_LOOP('',(#309));
#934=EDGE_LOOP('',(#310));
#935=EDGE_LOOP('',(#311));
#936=EDGE_LOOP('',(#312));
#937=EDGE_LOOP('',(#313));
#938=EDGE_LOOP('',(#314));
#939=EDGE_LOOP('',(#315));
#940=EDGE_LOOP('',(#316));
#941=EDGE_LOOP('',(#317));
#942=EDGE_LOOP('',(#318));
#943=EDGE_LOOP('',(#319));
#944=EDGE_LOOP('',(#320));
#945=EDGE_LOOP('',(#321));
#946=EDGE_LOOP('',(#322));
#947=EDGE_LOOP('',(#323));
#948=EDGE_LOOP('',(#324));
#949=EDGE_LOOP('',(#325));
#950=EDGE_LOOP('',(#326));
#951=EDGE_LOOP('',(#327));
#952=EDGE_LOOP('',(#328));
#953=EDGE_LOOP('',(#329));
#954=EDGE_LOOP('',(#330));
#955=EDGE_LOOP('',(#331));
#956=EDGE_LOOP('',(#332));
#957=EDGE_LOOP('',(#333));
#958=EDGE_LOOP('',(#334));
#959=EDGE_LOOP('',(#335));
#960=EDGE_LOOP('',(#336));
#961=EDGE_LOOP('',(#337));
#962=EDGE_LOOP('',(#338));
#963=EDGE_LOOP('',(#339));
#964=EDGE_LOOP('',(#340));
#965=EDGE_LOOP('',(#341));
#966=EDGE_LOOP('',(#342));
#967=EDGE_LOOP('',(#343));
#968=EDGE_LOOP('',(#344));
#969=EDGE_LOOP('',(#345));
#970=EDGE_LOOP('',(#346));
#971=EDGE_LOOP('',(#347));
#972=EDGE_LOOP('',(#348));
#973=EDGE_LOOP('',(#349));
#974=EDGE_LOOP('',(#350));
#975=EDGE_LOOP('',(#351));
#976=EDGE_LOOP('',(#352));
#977=EDGE_LOOP('',(#353));
#978=EDGE_LOOP('',(#354));
#979=EDGE_LOOP('',(#355));
#980=EDGE_LOOP('',(#356));
#981=EDGE_LOOP('',(#357));
#982=EDGE_LOOP('',(#358));
#983=EDGE_LOOP('',(#359));
#984=EDGE_LOOP('',(#360,#361,#362,#363));
#985=EDGE_LOOP('',(#364,#365,#366,#367));
#986=EDGE_LOOP('',(#368));
#987=EDGE_LOOP('',(#369));
#988=EDGE_LOOP('',(#370));
#989=EDGE_LOOP('',(#371));
#990=EDGE_LOOP('',(#372));
#991=EDGE_LOOP('',(#373));
#992=EDGE_LOOP('',(#374));
#993=EDGE_LOOP('',(#375));
#994=EDGE_LOOP('',(#376));
#995=EDGE_LOOP('',(#377));
#996=EDGE_LOOP('',(#378));
#997=EDGE_LOOP('',(#379));
#998=EDGE_LOOP('',(#380));
#999=EDGE_LOOP('',(#381));
#1000=EDGE_LOOP('',(#382));
#1001=EDGE_LOOP('',(#383));
#1002=EDGE_LOOP('',(#384));
#1003=EDGE_LOOP('',(#385));
#1004=EDGE_LOOP('',(#386));
#1005=EDGE_LOOP('',(#387));
#1006=EDGE_LOOP('',(#388));
#1007=EDGE_LOOP('',(#389));
#1008=EDGE_LOOP('',(#390));
#1009=EDGE_LOOP('',(#391));
#1010=EDGE_LOOP('',(#392));
#1011=EDGE_LOOP('',(#393));
#1012=EDGE_LOOP('',(#394));
#1013=EDGE_LOOP('',(#395));
#1014=EDGE_LOOP('',(#396));
#1015=EDGE_LOOP('',(#397));
#1016=EDGE_LOOP('',(#398));
#1017=EDGE_LOOP('',(#399));
#1018=EDGE_LOOP('',(#400));
#1019=EDGE_LOOP('',(#401));
#1020=EDGE_LOOP('',(#402));
#1021=EDGE_LOOP('',(#403));
#1022=EDGE_LOOP('',(#404));
#1023=EDGE_LOOP('',(#405));
#1024=EDGE_LOOP('',(#406));
#1025=EDGE_LOOP('',(#407));
#1026=EDGE_LOOP('',(#408));
#1027=EDGE_LOOP('',(#409));
#1028=EDGE_LOOP('',(#410));
#1029=EDGE_LOOP('',(#411));
#1030=EDGE_LOOP('',(#412));
#1031=EDGE_LOOP('',(#413));
#1032=EDGE_LOOP('',(#414));
#1033=EDGE_LOOP('',(#415));
#1034=EDGE_LOOP('',(#416));
#1035=EDGE_LOOP('',(#417));
#1036=EDGE_LOOP('',(#418));
#1037=EDGE_LOOP('',(#419));
#1038=FACE_BOUND('',#808,.T.);
#1039=FACE_BOUND('',#809,.T.);
#1040=FACE_BOUND('',#810,.T.);
#1041=FACE_BOUND('',#811,.T.);
#1042=FACE_BOUND('',#812,.T.);
#1043=FACE_BOUND('',#813,.T.);
#1044=FACE_BOUND('',#814,.T.);
#1045=FACE_BOUND('',#815,.T.);
#1046=FACE_BOUND('',#816,.T.);
#1047=FACE_BOUND('',#817,.T.);
#1048=FACE_BOUND('',#818,.T.);
#1049=FACE_BOUND('',#819,.T.);
#1050=FACE_BOUND('',#820,.T.);
#1051=FACE_BOUND('',#821,.T.);
#1052=FACE_BOUND('',#822,.T.);
#1053=FACE_BOUND('',#823,.T.);
#1054=FACE_BOUND('',#824,.T.);
#1055=FACE_BOUND('',#825,.T.);
#1056=FACE_BOUND('',#826,.T.);
#1057=FACE_BOUND('',#827,.T.);
#1058=FACE_BOUND('',#828,.T.);
#1059=FACE_BOUND('',#829,.T.);
#1060=FACE_BOUND('',#830,.T.);
#1061=FACE_BOUND('',#831,.T.);
#1062=FACE_BOUND('',#832,.T.);
#1063=FACE_BOUND('',#833,.T.);
#1064=FACE_BOUND('',#834,.T.);
#1065=FACE_BOUND('',#835,.T.);
#1066=FACE_BOUND('',#836,.T.);
#1067=FACE_BOUND('',#837,.T.);
#1068=FACE_BOUND('',#838,.T.);
#1069=FACE_BOUND('',#839,.T.);
#1070=FACE_BOUND('',#840,.T.);
#1071=FACE_BOUND('',#841,.T.);
#1072=FACE_BOUND('',#842,.T.);
#1073=FACE_BOUND('',#843,.T.);
#1074=FACE_BOUND('',#844,.T.);
#1075=FACE_BOUND('',#845,.T.);
#1076=FACE_BOUND('',#846,.T.);
#1077=FACE_BOUND('',#847,.T.);
#1078=FACE_BOUND('',#848,.T.);
#1079=FACE_BOUND('',#849,.T.);
#1080=FACE_BOUND('',#850,.T.);
#1081=FACE_BOUND('',#851,.T.);
#1082=FACE_BOUND('',#852,.T.);
#1083=FACE_BOUND('',#853,.T.);
#1084=FACE_BOUND('',#854,.T.);
#1085=FACE_BOUND('',#855,.T.);
#1086=FACE_BOUND('',#856,.T.);
#1087=FACE_BOUND('',#857,.T.);
#1088=FACE_BOUND('',#858,.T.);
#1089=FACE_BOUND('',#859,.T.);
#1090=FACE_BOUND('',#860,.T.);
#1091=FACE_BOUND('',#861,.T.);
#1092=FACE_BOUND('',#862,.T.);
#1093=FACE_BOUND('',#863,.T.);
#1094=FACE_BOUND('',#864,.T.);
#1095=FACE_BOUND('',#865,.T.);
#1096=FACE_BOUND('',#866,.T.);
#1097=FACE_BOUND('',#867,.T.);
#1098=FACE_BOUND('',#868,.T.);
#1099=FACE_BOUND('',#869,.T.);
#1100=FACE_BOUND('',#870,.T.);
#1101=FACE_BOUND('',#871,.T.);
#1102=FACE_BOUND('',#872,.T.);
#1103=FACE_BOUND('',#873,.T.);
#1104=FACE_BOUND('',#874,.T.);
#1105=FACE_BOUND('',#875,.T.);
#1106=FACE_BOUND('',#876,.T.);
#1107=FACE_BOUND('',#877,.T.);
#1108=FACE_BOUND('',#878,.T.);
#1109=FACE_BOUND('',#879,.T.);
#1110=FACE_BOUND('',#880,.T.);
#1111=FACE_BOUND('',#881,.T.);
#1112=FACE_BOUND('',#882,.T.);
#1113=FACE_BOUND('',#883,.T.);
#1114=FACE_BOUND('',#884,.T.);
#1115=FACE_BOUND('',#885,.T.);
#1116=FACE_BOUND('',#886,.T.);
#1117=FACE_BOUND('',#887,.T.);
#1118=FACE_BOUND('',#888,.T.);
#1119=FACE_BOUND('',#889,.T.);
#1120=FACE_BOUND('',#890,.T.);
#1121=FACE_BOUND('',#891,.T.);
#1122=FACE_BOUND('',#892,.T.);
#1123=FACE_BOUND('',#893,.T.);
#1124=FACE_BOUND('',#894,.T.);
#1125=FACE_BOUND('',#895,.T.);
#1126=FACE_BOUND('',#896,.T.);
#1127=FACE_BOUND('',#897,.T.);
#1128=FACE_BOUND('',#898,.T.);
#1129=FACE_BOUND('',#899,.T.);
#1130=FACE_BOUND('',#900,.T.);
#1131=FACE_BOUND('',#901,.T.);
#1132=FACE_BOUND('',#902,.T.);
#1133=FACE_BOUND('',#903,.T.);
#1134=FACE_BOUND('',#904,.T.);
#1135=FACE_BOUND('',#905,.T.);
#1136=FACE_BOUND('',#906,.T.);
#1137=FACE_BOUND('',#907,.T.);
#1138=FACE_BOUND('',#908,.T.);
#1139=FACE_BOUND('',#909,.T.);
#1140=FACE_BOUND('',#910,.T.);
#1141=FACE_BOUND('',#911,.T.);
#1142=FACE_BOUND('',#912,.T.);
#1143=FACE_BOUND('',#913,.T.);
#1144=FACE_BOUND('',#914,.T.);
#1145=FACE_BOUND('',#915,.T.);
#1146=FACE_BOUND('',#916,.T.);
#1147=FACE_BOUND('',#917,.T.);
#1148=FACE_BOUND('',#918,.T.);
#1149=FACE_BOUND('',#919,.T.);
#1150=FACE_BOUND('',#920,.T.);
#1151=FACE_BOUND('',#921,.T.);
#1152=FACE_BOUND('',#922,.T.);
#1153=FACE_BOUND('',#923,.T.);
#1154=FACE_BOUND('',#924,.T.);
#1155=FACE_BOUND('',#925,.T.);
#1156=FACE_BOUND('',#926,.T.);
#1157=FACE_BOUND('',#927,.T.);
#1158=FACE_BOUND('',#928,.T.);
#1159=FACE_BOUND('',#929,.T.);
#1160=FACE_BOUND('',#930,.T.);
#1161=FACE_BOUND('',#931,.T.);
#1162=FACE_BOUND('',#932,.T.);
#1163=FACE_BOUND('',#933,.T.);
#1164=FACE_BOUND('',#934,.T.);
#1165=FACE_BOUND('',#935,.T.);
#1166=FACE_BOUND('',#936,.T.);
#1167=FACE_BOUND('',#937,.T.);
#1168=FACE_BOUND('',#938,.T.);
#1169=FACE_BOUND('',#939,.T.);
#1170=FACE_BOUND('',#940,.T.);
#1171=FACE_BOUND('',#941,.T.);
#1172=FACE_BOUND('',#942,.T.);
#1173=FACE_BOUND('',#943,.T.);
#1174=FACE_BOUND('',#944,.T.);
#1175=FACE_BOUND('',#945,.T.);
#1176=FACE_BOUND('',#946,.T.);
#1177=FACE_BOUND('',#947,.T.);
#1178=FACE_BOUND('',#948,.T.);
#1179=FACE_BOUND('',#949,.T.);
#1180=FACE_BOUND('',#950,.T.);
#1181=FACE_BOUND('',#951,.T.);
#1182=FACE_BOUND('',#952,.T.);
#1183=FACE_BOUND('',#953,.T.);
#1184=FACE_BOUND('',#954,.T.);
#1185=FACE_BOUND('',#955,.T.);
#1186=FACE_BOUND('',#956,.T.);
#1187=FACE_BOUND('',#957,.T.);
#1188=FACE_BOUND('',#958,.T.);
#1189=FACE_BOUND('',#959,.T.);
#1190=FACE_BOUND('',#960,.T.);
#1191=FACE_BOUND('',#961,.T.);
#1192=FACE_BOUND('',#962,.T.);
#1193=FACE_BOUND('',#963,.T.);
#1194=FACE_BOUND('',#964,.T.);
#1195=FACE_BOUND('',#965,.T.);
#1196=FACE_BOUND('',#966,.T.);
#1197=FACE_BOUND('',#967,.T.);
#1198=FACE_BOUND('',#968,.T.);
#1199=FACE_BOUND('',#969,.T.);
#1200=FACE_BOUND('',#970,.T.);
#1201=FACE_BOUND('',#971,.T.);
#1202=FACE_BOUND('',#972,.T.);
#1203=FACE_BOUND('',#973,.T.);
#1204=FACE_BOUND('',#974,.T.);
#1205=FACE_BOUND('',#975,.T.);
#1206=FACE_BOUND('',#976,.T.);
#1207=FACE_BOUND('',#977,.T.);
#1208=FACE_BOUND('',#978,.T.);
#1209=FACE_BOUND('',#979,.T.);
#1210=FACE_BOUND('',#980,.T.);
#1211=FACE_BOUND('',#981,.T.);
#1212=FACE_BOUND('',#982,.T.);
#1213=FACE_BOUND('',#983,.T.);
#1214=FACE_BOUND('',#984,.T.);
#1215=FACE_BOUND('',#985,.T.);
#1216=FACE_BOUND('',#986,.T.);
#1217=FACE_BOUND('',#987,.T.);
#1218=FACE_BOUND('',#988,.T.);
#1219=FACE_BOUND('',#989,.T.);
#1220=FACE_BOUND('',#990,.T.);
#1221=FACE_BOUND('',#991,.T.);
#1222=FACE_BOUND('',#992,.T.);
#1223=FACE_BOUND('',#993,.T.);
#1224=FACE_BOUND('',#994,.T.);
#1225=FACE_BOUND('',#995,.T.);
#1226=FACE_BOUND('',#996,.T.);
#1227=FACE_BOUND('',#997,.T.);
#1228=FACE_BOUND('',#998,.T.);
#1229=FACE_BOUND('',#999,.T.);
#1230=FACE_BOUND('',#1000,.T.);
#1231=FACE_BOUND('',#1001,.T.);
#1232=FACE_BOUND('',#1002,.T.);
#1233=FACE_BOUND('',#1003,.T.);
#1234=FACE_BOUND('',#1004,.T.);
#1235=FACE_BOUND('',#1005,.T.);
#1236=FACE_BOUND('',#1006,.T.);
#1237=FACE_BOUND('',#1007,.T.);
#1238=FACE_BOUND('',#1008,.T.);
#1239=FACE_BOUND('',#1009,.T.);
#1240=FACE_BOUND('',#1010,.T.);
#1241=FACE_BOUND('',#1011,.T.);
#1242=FACE_BOUND('',#1012,.T.);
#1243=FACE_BOUND('',#1013,.T.);
#1244=FACE_BOUND('',#1014,.T.);
#1245=FACE_BOUND('',#1015,.T.);
#1246=FACE_BOUND('',#1016,.T.);
#1247=FACE_BOUND('',#1017,.T.);
#1248=FACE_BOUND('',#1018,.T.);
#1249=FACE_BOUND('',#1019,.T.);
#1250=FACE_BOUND('',#1020,.T.);
#1251=FACE_BOUND('',#1021,.T.);
#1252=FACE_BOUND('',#1022,.T.);
#1253=FACE_BOUND('',#1023,.T.);
#1254=FACE_BOUND('',#1024,.T.);
#1255=FACE_BOUND('',#1025,.T.);
#1256=FACE_BOUND('',#1026,.T.);
#1257=FACE_BOUND('',#1027,.T.);
#1258=FACE_BOUND('',#1028,.T.);
#1259=FACE_BOUND('',#1029,.T.);
#1260=FACE_BOUND('',#1030,.T.);
#1261=FACE_BOUND('',#1031,.T.);
#1262=FACE_BOUND('',#1032,.T.);
#1263=FACE_BOUND('',#1033,.T.);
#1264=FACE_BOUND('',#1034,.T.);
#1265=FACE_BOUND('',#1035,.T.);
#1266=FACE_BOUND('',#1036,.T.);
#1267=FACE_BOUND('',#1037,.T.);
#1268=PLANE('',#1359);
#1269=PLANE('',#1374);
#1270=PLANE('',#1375);
#1271=PLANE('',#1390);
#1272=PLANE('',#1405);
#1273=PLANE('',#1420);
#1274=PLANE('',#1435);
#1275=PLANE('',#1450);
#1276=PLANE('',#1465);
#1277=PLANE('',#1480);
#1278=PLANE('',#1481);
#1279=ADVANCED_FACE('',(#1038,#1039,#1040,#1041,#1042,#1043,#1044,#1045,
#1046,#1047,#1048,#1049,#1050,#1051),#1268,.F.);
#1280=ADVANCED_FACE('',(#1052),#1269,.T.);
#1281=ADVANCED_FACE('',(#1053,#1054,#1055,#1056,#1057,#1058,#1059,#1060,
#1061,#1062,#1063,#1064,#1065,#1066),#1270,.T.);
#1282=ADVANCED_FACE('',(#1067,#1068,#1069,#1070,#1071,#1072,#1073,#1074,
#1075,#1076,#1077,#1078,#1079,#1080,#1081),#1271,.T.);
#1283=ADVANCED_FACE('',(#1082,#1083,#1084,#1085,#1086,#1087,#1088,#1089,
#1090,#1091,#1092,#1093,#1094,#1095),#1272,.F.);
#1284=ADVANCED_FACE('',(#1096,#1097,#1098,#1099,#1100,#1101,#1102,#1103,
#1104,#1105,#1106,#1107,#1108,#1109),#1273,.T.);
#1285=ADVANCED_FACE('',(#1110,#1111,#1112,#1113,#1114,#1115,#1116,#1117,
#1118,#1119,#1120,#1121,#1122,#1123,#1124),#1274,.F.);
#1286=ADVANCED_FACE('',(#1125,#1126,#1127,#1128,#1129,#1130,#1131,#1132,
#1133,#1134,#1135,#1136,#1137,#1138,#1139),#1275,.T.);
#1287=ADVANCED_FACE('',(#1140,#1141,#1142,#1143,#1144,#1145,#1146,#1147,
#1148,#1149,#1150,#1151,#1152,#1153,#1154),#1276,.F.);
#1288=ADVANCED_FACE('',(#1155),#1277,.T.);
#1289=ADVANCED_FACE('',(#1156,#1157),#1278,.F.);
#1290=ADVANCED_FACE('',(#1158,#1159),#12,.F.);
#1291=ADVANCED_FACE('',(#1160,#1161),#13,.F.);
#1292=ADVANCED_FACE('',(#1162,#1163),#14,.F.);
#1293=ADVANCED_FACE('',(#1164,#1165),#15,.F.);
#1294=ADVANCED_FACE('',(#1166,#1167),#16,.F.);
#1295=ADVANCED_FACE('',(#1168,#1169),#17,.F.);
#1296=ADVANCED_FACE('',(#1170,#1171),#18,.F.);
#1297=ADVANCED_FACE('',(#1172,#1173),#19,.F.);
#1298=ADVANCED_FACE('',(#1174,#1175),#20,.F.);
#1299=ADVANCED_FACE('',(#1176,#1177),#21,.F.);
#1300=ADVANCED_FACE('',(#1178,#1179),#22,.F.);
#1301=ADVANCED_FACE('',(#1180,#1181),#23,.F.);
#1302=ADVANCED_FACE('',(#1182,#1183),#24,.F.);
#1303=ADVANCED_FACE('',(#1184,#1185),#25,.F.);
#1304=ADVANCED_FACE('',(#1186,#1187),#26,.F.);
#1305=ADVANCED_FACE('',(#1188,#1189),#27,.F.);
#1306=ADVANCED_FACE('',(#1190,#1191),#28,.F.);
#1307=ADVANCED_FACE('',(#1192,#1193),#29,.F.);
#1308=ADVANCED_FACE('',(#1194,#1195),#30,.F.);
#1309=ADVANCED_FACE('',(#1196,#1197),#31,.F.);
#1310=ADVANCED_FACE('',(#1198,#1199),#32,.F.);
#1311=ADVANCED_FACE('',(#1200,#1201),#33,.F.);
#1312=ADVANCED_FACE('',(#1202,#1203),#34,.F.);
#1313=ADVANCED_FACE('',(#1204,#1205),#35,.F.);
#1314=ADVANCED_FACE('',(#1206,#1207),#36,.F.);
#1315=ADVANCED_FACE('',(#1208,#1209),#37,.F.);
#1316=ADVANCED_FACE('',(#1210,#1211),#38,.F.);
#1317=ADVANCED_FACE('',(#1212,#1213),#39,.F.);
#1318=ADVANCED_FACE('',(#1214),#40,.F.);
#1319=ADVANCED_FACE('',(#1215),#41,.F.);
#1320=ADVANCED_FACE('',(#1216,#1217),#42,.F.);
#1321=ADVANCED_FACE('',(#1218,#1219),#43,.F.);
#1322=ADVANCED_FACE('',(#1220,#1221),#44,.F.);
#1323=ADVANCED_FACE('',(#1222,#1223),#45,.F.);
#1324=ADVANCED_FACE('',(#1224,#1225),#46,.F.);
#1325=ADVANCED_FACE('',(#1226,#1227),#47,.F.);
#1326=ADVANCED_FACE('',(#1228,#1229),#48,.F.);
#1327=ADVANCED_FACE('',(#1230,#1231),#49,.F.);
#1328=ADVANCED_FACE('',(#1232,#1233),#50,.F.);
#1329=ADVANCED_FACE('',(#1234,#1235),#51,.F.);
#1330=ADVANCED_FACE('',(#1236,#1237),#52,.F.);
#1331=ADVANCED_FACE('',(#1238,#1239),#53,.F.);
#1332=ADVANCED_FACE('',(#1240,#1241),#54,.F.);
#1333=ADVANCED_FACE('',(#1242,#1243),#55,.F.);
#1334=ADVANCED_FACE('',(#1244,#1245),#56,.F.);
#1335=ADVANCED_FACE('',(#1246,#1247),#57,.F.);
#1336=ADVANCED_FACE('',(#1248,#1249),#58,.F.);
#1337=ADVANCED_FACE('',(#1250,#1251),#59,.F.);
#1338=ADVANCED_FACE('',(#1252,#1253),#60,.F.);
#1339=ADVANCED_FACE('',(#1254,#1255),#61,.F.);
#1340=ADVANCED_FACE('',(#1256,#1257),#62,.F.);
#1341=ADVANCED_FACE('',(#1258,#1259),#63,.F.);
#1342=ADVANCED_FACE('',(#1260,#1261),#64,.F.);
#1343=ADVANCED_FACE('',(#1262,#1263),#65,.F.);
#1344=ADVANCED_FACE('',(#1264,#1265),#66,.F.);
#1345=ADVANCED_FACE('',(#1266,#1267),#67,.F.);
#1346=CLOSED_SHELL('',(#1279,#1280,#1281,#1282,#1283,#1284,#1285,#1286,
#1287,#1288,#1289,#1290,#1291,#1292,#1293,#1294,#1295,#1296,#1297,#1298,
#1299,#1300,#1301,#1302,#1303,#1304,#1305,#1306,#1307,#1308,#1309,#1310,
#1311,#1312,#1313,#1314,#1315,#1316,#1317,#1318,#1319,#1320,#1321,#1322,
#1323,#1324,#1325,#1326,#1327,#1328,#1329,#1330,#1331,#1332,#1333,#1334,
#1335,#1336,#1337,#1338,#1339,#1340,#1341,#1342,#1343,#1344,#1345));
#1347=STYLED_ITEM('',(#1348),#1355);
#1348=PRESENTATION_STYLE_ASSIGNMENT((#1349));
#1349=SURFACE_STYLE_USAGE(.BOTH.,#1350);
#1350=SURFACE_SIDE_STYLE('',(#1351));
#1351=SURFACE_STYLE_FILL_AREA(#1352);
#1352=FILL_AREA_STYLE('',(#1353));
#1353=FILL_AREA_STYLE_COLOUR('',#1354);
#1354=COLOUR_RGB('',0.890196078431373,0.909803921568627,0.925490196078431);
#1355=MANIFOLD_SOLID_BREP('1x1 Alu',#1346);
#1356=SHAPE_DEFINITION_REPRESENTATION(#2280,#1357);
#1357=SHAPE_REPRESENTATION('1x1 Alu',(#1358),#2275);
#1358=AXIS2_PLACEMENT_3D('',#1930,#1538,#1539);
#1359=AXIS2_PLACEMENT_3D('',#1931,#1540,#1541);
#1360=AXIS2_PLACEMENT_3D('',#1932,#1542,#1543);
#1361=AXIS2_PLACEMENT_3D('',#1934,#1544,#1545);
#1362=AXIS2_PLACEMENT_3D('',#1936,#1546,#1547);
#1363=AXIS2_PLACEMENT_3D('',#1938,#1548,#1549);
#1364=AXIS2_PLACEMENT_3D('',#1940,#1550,#1551);
#1365=AXIS2_PLACEMENT_3D('',#1942,#1552,#1553);
#1366=AXIS2_PLACEMENT_3D('',#1944,#1554,#1555);
#1367=AXIS2_PLACEMENT_3D('',#1946,#1556,#1557);
#1368=AXIS2_PLACEMENT_3D('',#1948,#1558,#1559);
#1369=AXIS2_PLACEMENT_3D('',#1950,#1560,#1561);
#1370=AXIS2_PLACEMENT_3D('',#1952,#1562,#1563);
#1371=AXIS2_PLACEMENT_3D('',#1954,#1564,#1565);
#1372=AXIS2_PLACEMENT_3D('',#1956,#1566,#1567);
#1373=AXIS2_PLACEMENT_3D('',#1958,#1568,#1569);
#1374=AXIS2_PLACEMENT_3D('',#1970,#1575,#1576);
#1375=AXIS2_PLACEMENT_3D('',#1984,#1584,#1585);
#1376=AXIS2_PLACEMENT_3D('',#1985,#1586,#1587);
#1377=AXIS2_PLACEMENT_3D('',#1987,#1588,#1589);
#1378=AXIS2_PLACEMENT_3D('',#1989,#1590,#1591);
#1379=AXIS2_PLACEMENT_3D('',#1991,#1592,#1593);
#1380=AXIS2_PLACEMENT_3D('',#1993,#1594,#1595);
#1381=AXIS2_PLACEMENT_3D('',#1995,#1596,#1597);
#1382=AXIS2_PLACEMENT_3D('',#1997,#1598,#1599);
#1383=AXIS2_PLACEMENT_3D('',#1999,#1600,#1601);
#1384=AXIS2_PLACEMENT_3D('',#2001,#1602,#1603);
#1385=AXIS2_PLACEMENT_3D('',#2003,#1604,#1605);
#1386=AXIS2_PLACEMENT_3D('',#2005,#1606,#1607);
#1387=AXIS2_PLACEMENT_3D('',#2007,#1608,#1609);
#1388=AXIS2_PLACEMENT_3D('',#2009,#1610,#1611);
#1389=AXIS2_PLACEMENT_3D('',#2011,#1612,#1613);
#1390=AXIS2_PLACEMENT_3D('',#2020,#1618,#1619);
#1391=AXIS2_PLACEMENT_3D('',#2021,#1620,#1621);
#1392=AXIS2_PLACEMENT_3D('',#2023,#1622,#1623);
#1393=AXIS2_PLACEMENT_3D('',#2025,#1624,#1625);
#1394=AXIS2_PLACEMENT_3D('',#2027,#1626,#1627);
#1395=AXIS2_PLACEMENT_3D('',#2029,#1628,#1629);
#1396=AXIS2_PLACEMENT_3D('',#2031,#1630,#1631);
#1397=AXIS2_PLACEMENT_3D('',#2033,#1632,#1633);
#1398=AXIS2_PLACEMENT_3D('',#2035,#1634,#1635);
#1399=AXIS2_PLACEMENT_3D('',#2037,#1636,#1637);
#1400=AXIS2_PLACEMENT_3D('',#2039,#1638,#1639);
#1401=AXIS2_PLACEMENT_3D('',#2041,#1640,#1641);
#1402=AXIS2_PLACEMENT_3D('',#2043,#1642,#1643);
#1403=AXIS2_PLACEMENT_3D('',#2045,#1644,#1645);
#1404=AXIS2_PLACEMENT_3D('',#2047,#1646,#1647);
#1405=AXIS2_PLACEMENT_3D('',#2052,#1650,#1651);
#1406=AXIS2_PLACEMENT_3D('',#2053,#1652,#1653);
#1407=AXIS2_PLACEMENT_3D('',#2055,#1654,#1655);
#1408=AXIS2_PLACEMENT_3D('',#2057,#1656,#1657);
#1409=AXIS2_PLACEMENT_3D('',#2059,#1658,#1659);
#1410=AXIS2_PLACEMENT_3D('',#2061,#1660,#1661);
#1411=AXIS2_PLACEMENT_3D('',#2063,#1662,#1663);
#1412=AXIS2_PLACEMENT_3D('',#2065,#1664,#1665);
#1413=AXIS2_PLACEMENT_3D('',#2067,#1666,#1667);
#1414=AXIS2_PLACEMENT_3D('',#2069,#1668,#1669);
#1415=AXIS2_PLACEMENT_3D('',#2071,#1670,#1671);
#1416=AXIS2_PLACEMENT_3D('',#2073,#1672,#1673);
#1417=AXIS2_PLACEMENT_3D('',#2075,#1674,#1675);
#1418=AXIS2_PLACEMENT_3D('',#2077,#1676,#1677);
#1419=AXIS2_PLACEMENT_3D('',#2082,#1679,#1680);
#1420=AXIS2_PLACEMENT_3D('',#2086,#1683,#1684);
#1421=AXIS2_PLACEMENT_3D('',#2087,#1685,#1686);
#1422=AXIS2_PLACEMENT_3D('',#2089,#1687,#1688);
#1423=AXIS2_PLACEMENT_3D('',#2091,#1689,#1690);
#1424=AXIS2_PLACEMENT_3D('',#2093,#1691,#1692);
#1425=AXIS2_PLACEMENT_3D('',#2095,#1693,#1694);
#1426=AXIS2_PLACEMENT_3D('',#2097,#1695,#1696);
#1427=AXIS2_PLACEMENT_3D('',#2099,#1697,#1698);
#1428=AXIS2_PLACEMENT_3D('',#2101,#1699,#1700);
#1429=AXIS2_PLACEMENT_3D('',#2103,#1701,#1702);
#1430=AXIS2_PLACEMENT_3D('',#2105,#1703,#1704);
#1431=AXIS2_PLACEMENT_3D('',#2107,#1705,#1706);
#1432=AXIS2_PLACEMENT_3D('',#2109,#1707,#1708);
#1433=AXIS2_PLACEMENT_3D('',#2111,#1709,#1710);
#1434=AXIS2_PLACEMENT_3D('',#2113,#1711,#1712);
#1435=AXIS2_PLACEMENT_3D('',#2122,#1717,#1718);
#1436=AXIS2_PLACEMENT_3D('',#2123,#1719,#1720);
#1437=AXIS2_PLACEMENT_3D('',#2125,#1721,#1722);
#1438=AXIS2_PLACEMENT_3D('',#2127,#1723,#1724);
#1439=AXIS2_PLACEMENT_3D('',#2129,#1725,#1726);
#1440=AXIS2_PLACEMENT_3D('',#2131,#1727,#1728);
#1441=AXIS2_PLACEMENT_3D('',#2133,#1729,#1730);
#1442=AXIS2_PLACEMENT_3D('',#2135,#1731,#1732);
#1443=AXIS2_PLACEMENT_3D('',#2137,#1733,#1734);
#1444=AXIS2_PLACEMENT_3D('',#2139,#1735,#1736);
#1445=AXIS2_PLACEMENT_3D('',#2141,#1737,#1738);
#1446=AXIS2_PLACEMENT_3D('',#2143,#1739,#1740);
#1447=AXIS2_PLACEMENT_3D('',#2145,#1741,#1742);
#1448=AXIS2_PLACEMENT_3D('',#2147,#1743,#1744);
#1449=AXIS2_PLACEMENT_3D('',#2149,#1745,#1746);
#1450=AXIS2_PLACEMENT_3D('',#2152,#1748,#1749);
#1451=AXIS2_PLACEMENT_3D('',#2153,#1750,#1751);
#1452=AXIS2_PLACEMENT_3D('',#2155,#1752,#1753);
#1453=AXIS2_PLACEMENT_3D('',#2157,#1754,#1755);
#1454=AXIS2_PLACEMENT_3D('',#2159,#1756,#1757);
#1455=AXIS2_PLACEMENT_3D('',#2161,#1758,#1759);
#1456=AXIS2_PLACEMENT_3D('',#2163,#1760,#1761);
#1457=AXIS2_PLACEMENT_3D('',#2165,#1762,#1763);
#1458=AXIS2_PLACEMENT_3D('',#2167,#1764,#1765);
#1459=AXIS2_PLACEMENT_3D('',#2169,#1766,#1767);
#1460=AXIS2_PLACEMENT_3D('',#2171,#1768,#1769);
#1461=AXIS2_PLACEMENT_3D('',#2173,#1770,#1771);
#1462=AXIS2_PLACEMENT_3D('',#2175,#1772,#1773);
#1463=AXIS2_PLACEMENT_3D('',#2177,#1774,#1775);
#1464=AXIS2_PLACEMENT_3D('',#2179,#1776,#1777);
#1465=AXIS2_PLACEMENT_3D('',#2183,#1780,#1781);
#1466=AXIS2_PLACEMENT_3D('',#2184,#1782,#1783);
#1467=AXIS2_PLACEMENT_3D('',#2186,#1784,#1785);
#1468=AXIS2_PLACEMENT_3D('',#2188,#1786,#1787);
#1469=AXIS2_PLACEMENT_3D('',#2190,#1788,#1789);
#1470=AXIS2_PLACEMENT_3D('',#2192,#1790,#1791);
#1471=AXIS2_PLACEMENT_3D('',#2194,#1792,#1793);
#1472=AXIS2_PLACEMENT_3D('',#2196,#1794,#1795);
#1473=AXIS2_PLACEMENT_3D('',#2198,#1796,#1797);
#1474=AXIS2_PLACEMENT_3D('',#2200,#1798,#1799);
#1475=AXIS2_PLACEMENT_3D('',#2202,#1800,#1801);
#1476=AXIS2_PLACEMENT_3D('',#2204,#1802,#1803);
#1477=AXIS2_PLACEMENT_3D('',#2206,#1804,#1805);
#1478=AXIS2_PLACEMENT_3D('',#2208,#1806,#1807);
#1479=AXIS2_PLACEMENT_3D('',#2210,#1808,#1809);
#1480=AXIS2_PLACEMENT_3D('',#2214,#1812,#1813);
#1481=AXIS2_PLACEMENT_3D('',#2217,#1816,#1817);
#1482=AXIS2_PLACEMENT_3D('',#2218,#1818,#1819);
#1483=AXIS2_PLACEMENT_3D('',#2219,#1820,#1821);
#1484=AXIS2_PLACEMENT_3D('',#2220,#1822,#1823);
#1485=AXIS2_PLACEMENT_3D('',#2221,#1824,#1825);
#1486=AXIS2_PLACEMENT_3D('',#2222,#1826,#1827);
#1487=AXIS2_PLACEMENT_3D('',#2223,#1828,#1829);
#1488=AXIS2_PLACEMENT_3D('',#2224,#1830,#1831);
#1489=AXIS2_PLACEMENT_3D('',#2225,#1832,#1833);
#1490=AXIS2_PLACEMENT_3D('',#2226,#1834,#1835);
#1491=AXIS2_PLACEMENT_3D('',#2227,#1836,#1837);
#1492=AXIS2_PLACEMENT_3D('',#2228,#1838,#1839);
#1493=AXIS2_PLACEMENT_3D('',#2229,#1840,#1841);
#1494=AXIS2_PLACEMENT_3D('',#2230,#1842,#1843);
#1495=AXIS2_PLACEMENT_3D('',#2231,#1844,#1845);
#1496=AXIS2_PLACEMENT_3D('',#2232,#1846,#1847);
#1497=AXIS2_PLACEMENT_3D('',#2233,#1848,#1849);
#1498=AXIS2_PLACEMENT_3D('',#2234,#1850,#1851);
#1499=AXIS2_PLACEMENT_3D('',#2235,#1852,#1853);
#1500=AXIS2_PLACEMENT_3D('',#2236,#1854,#1855);
#1501=AXIS2_PLACEMENT_3D('',#2237,#1856,#1857);
#1502=AXIS2_PLACEMENT_3D('',#2238,#1858,#1859);
#1503=AXIS2_PLACEMENT_3D('',#2239,#1860,#1861);
#1504=AXIS2_PLACEMENT_3D('',#2240,#1862,#1863);
#1505=AXIS2_PLACEMENT_3D('',#2241,#1864,#1865);
#1506=AXIS2_PLACEMENT_3D('',#2242,#1866,#1867);
#1507=AXIS2_PLACEMENT_3D('',#2243,#1868,#1869);
#1508=AXIS2_PLACEMENT_3D('',#2244,#1870,#1871);
#1509=AXIS2_PLACEMENT_3D('',#2245,#1872,#1873);
#1510=AXIS2_PLACEMENT_3D('',#2246,#1874,#1875);
#1511=AXIS2_PLACEMENT_3D('',#2247,#1876,#1877);
#1512=AXIS2_PLACEMENT_3D('',#2248,#1878,#1879);
#1513=AXIS2_PLACEMENT_3D('',#2249,#1880,#1881);
#1514=AXIS2_PLACEMENT_3D('',#2250,#1882,#1883);
#1515=AXIS2_PLACEMENT_3D('',#2251,#1884,#1885);
#1516=AXIS2_PLACEMENT_3D('',#2252,#1886,#1887);
#1517=AXIS2_PLACEMENT_3D('',#2253,#1888,#1889);
#1518=AXIS2_PLACEMENT_3D('',#2254,#1890,#1891);
#1519=AXIS2_PLACEMENT_3D('',#2255,#1892,#1893);
#1520=AXIS2_PLACEMENT_3D('',#2256,#1894,#1895);
#1521=AXIS2_PLACEMENT_3D('',#2257,#1896,#1897);
#1522=AXIS2_PLACEMENT_3D('',#2258,#1898,#1899);
#1523=AXIS2_PLACEMENT_3D('',#2259,#1900,#1901);
#1524=AXIS2_PLACEMENT_3D('',#2260,#1902,#1903);
#1525=AXIS2_PLACEMENT_3D('',#2261,#1904,#1905);
#1526=AXIS2_PLACEMENT_3D('',#2262,#1906,#1907);
#1527=AXIS2_PLACEMENT_3D('',#2263,#1908,#1909);
#1528=AXIS2_PLACEMENT_3D('',#2264,#1910,#1911);
#1529=AXIS2_PLACEMENT_3D('',#2265,#1912,#1913);
#1530=AXIS2_PLACEMENT_3D('',#2266,#1914,#1915);
#1531=AXIS2_PLACEMENT_3D('',#2267,#1916,#1917);
#1532=AXIS2_PLACEMENT_3D('',#2268,#1918,#1919);
#1533=AXIS2_PLACEMENT_3D('',#2269,#1920,#1921);
#1534=AXIS2_PLACEMENT_3D('',#2270,#1922,#1923);
#1535=AXIS2_PLACEMENT_3D('',#2271,#1924,#1925);
#1536=AXIS2_PLACEMENT_3D('',#2272,#1926,#1927);
#1537=AXIS2_PLACEMENT_3D('',#2273,#1928,#1929);
#1538=DIRECTION('',(0.,0.,1.));
#1539=DIRECTION('',(1.,0.,0.));
#1540=DIRECTION('',(0.,-1.36592399683213E-16,1.));
#1541=DIRECTION('',(0.,-1.,-1.36592399683213E-16));
#1542=DIRECTION('',(0.,1.36592399683213E-16,-1.));
#1543=DIRECTION('',(0.,1.,1.36592399683213E-16));
#1544=DIRECTION('',(0.,1.36592399683213E-16,-1.));
#1545=DIRECTION('',(0.,1.,1.36592399683213E-16));
#1546=DIRECTION('',(0.,1.36592399683213E-16,-1.));
#1547=DIRECTION('',(0.,1.,1.36592399683213E-16));
#1548=DIRECTION('',(0.,1.36592399683213E-16,-1.));
#1549=DIRECTION('',(0.,1.,1.36592399683213E-16));
#1550=DIRECTION('',(0.,1.36592399683213E-16,-1.));
#1551=DIRECTION('',(0.,1.,1.36592399683213E-16));
#1552=DIRECTION('',(0.,1.36592399683213E-16,-1.));
#1553=DIRECTION('',(0.,1.,1.36592399683213E-16));
#1554=DIRECTION('',(0.,1.36592399683213E-16,-1.));
#1555=DIRECTION('',(0.,1.,1.36592399683213E-16));
#1556=DIRECTION('',(0.,1.36592399683213E-16,-1.));
#1557=DIRECTION('',(0.,1.,1.36592399683213E-16));
#1558=DIRECTION('',(0.,1.36592399683213E-16,-1.));
#1559=DIRECTION('',(0.,1.,1.36592399683213E-16));
#1560=DIRECTION('',(0.,1.36592399683213E-16,-1.));
#1561=DIRECTION('',(0.,1.,1.36592399683213E-16));
#1562=DIRECTION('',(0.,1.36592399683213E-16,-1.));
#1563=DIRECTION('',(0.,1.,1.36592399683213E-16));
#1564=DIRECTION('',(0.,1.36592399683213E-16,-1.));
#1565=DIRECTION('',(0.,1.,1.36592399683213E-16));
#1566=DIRECTION('',(0.,1.36592399683213E-16,-1.));
#1567=DIRECTION('',(0.,1.,1.36592399683213E-16));
#1568=DIRECTION('',(0.,1.36592399683213E-16,-1.));
#1569=DIRECTION('',(0.,1.,1.36592399683213E-16));
#1570=DIRECTION('',(0.,1.,1.36592399683213E-16));
#1571=DIRECTION('',(-1.,0.,0.));
#1572=DIRECTION('',(0.,1.,1.36592399683213E-16));
#1573=DIRECTION('',(-1.,0.,0.));
#1574=DIRECTION('',(0.,1.,1.36592399683213E-16));
#1575=DIRECTION('',(1.,0.,0.));
#1576=DIRECTION('',(0.,0.,-1.));
#1577=DIRECTION('',(0.,1.36592399683213E-16,-1.));
#1578=DIRECTION('',(0.,1.,1.36592399683213E-16));
#1579=DIRECTION('',(0.,0.,-1.));
#1580=DIRECTION('',(0.,1.36592399683213E-16,-1.));
#1581=DIRECTION('',(0.,1.,1.82123199577617E-16));
#1582=DIRECTION('',(0.,0.,-1.));
#1583=DIRECTION('',(0.,1.,1.82123199577617E-16));
#1584=DIRECTION('',(0.,-1.82123199577617E-16,1.));
#1585=DIRECTION('',(0.,-1.,-1.82123199577617E-16));
#1586=DIRECTION('',(0.,-1.82123199577617E-16,1.));
#1587=DIRECTION('',(0.,-1.,-1.82123199577617E-16));
#1588=DIRECTION('',(0.,-1.82123199577617E-16,1.));
#1589=DIRECTION('',(0.,-1.,-1.82123199577617E-16));
#1590=DIRECTION('',(0.,-1.82123199577617E-16,1.));
#1591=DIRECTION('',(0.,-1.,-1.82123199577617E-16));
#1592=DIRECTION('',(0.,-1.82123199577617E-16,1.));
#1593=DIRECTION('',(0.,-1.,-1.82123199577617E-16));
#1594=DIRECTION('',(0.,-1.82123199577617E-16,1.));
#1595=DIRECTION('',(0.,-1.,-1.82123199577617E-16));
#1596=DIRECTION('',(0.,-1.82123199577617E-16,1.));
#1597=DIRECTION('',(0.,-1.,-1.82123199577617E-16));
#1598=DIRECTION('',(0.,-1.82123199577617E-16,1.));
#1599=DIRECTION('',(0.,-1.,-1.82123199577617E-16));
#1600=DIRECTION('',(0.,-1.82123199577617E-16,1.));
#1601=DIRECTION('',(0.,-1.,-1.82123199577617E-16));
#1602=DIRECTION('',(0.,-1.82123199577617E-16,1.));
#1603=DIRECTION('',(0.,-1.,-1.82123199577617E-16));
#1604=DIRECTION('',(0.,-1.82123199577617E-16,1.));
#1605=DIRECTION('',(0.,-1.,-1.82123199577617E-16));
#1606=DIRECTION('',(0.,-1.82123199577617E-16,1.));
#1607=DIRECTION('',(0.,-1.,-1.82123199577617E-16));
#1608=DIRECTION('',(0.,-1.82123199577617E-16,1.));
#1609=DIRECTION('',(0.,-1.,-1.82123199577617E-16));
#1610=DIRECTION('',(0.,-1.82123199577617E-16,1.));
#1611=DIRECTION('',(0.,-1.,-1.82123199577617E-16));
#1612=DIRECTION('',(0.,-1.82123199577617E-16,1.));
#1613=DIRECTION('',(0.,-1.,-1.82123199577617E-16));
#1614=DIRECTION('',(0.,1.,1.82123199577617E-16));
#1615=DIRECTION('',(-1.,0.,0.));
#1616=DIRECTION('',(0.,1.,1.82123199577617E-16));
#1617=DIRECTION('',(-1.,0.,0.));
#1618=DIRECTION('',(0.,1.,0.));
#1619=DIRECTION('',(1.,0.,0.));
#1620=DIRECTION('',(0.,1.,0.));
#1621=DIRECTION('',(1.,0.,0.));
#1622=DIRECTION('',(0.,1.,0.));
#1623=DIRECTION('',(1.,0.,0.));
#1624=DIRECTION('',(0.,1.,0.));
#1625=DIRECTION('',(1.,0.,0.));
#1626=DIRECTION('',(0.,1.,0.));
#1627=DIRECTION('',(1.,0.,0.));
#1628=DIRECTION('',(0.,1.,0.));
#1629=DIRECTION('',(1.,0.,0.));
#1630=DIRECTION('',(0.,1.,0.));
#1631=DIRECTION('',(1.,0.,0.));
#1632=DIRECTION('',(0.,1.,0.));
#1633=DIRECTION('',(1.,0.,0.));
#1634=DIRECTION('',(0.,1.,0.));
#1635=DIRECTION('',(1.,0.,0.));
#1636=DIRECTION('',(0.,1.,0.));
#1637=DIRECTION('',(1.,0.,0.));
#1638=DIRECTION('',(0.,1.,0.));
#1639=DIRECTION('',(1.,0.,0.));
#1640=DIRECTION('',(0.,1.,0.));
#1641=DIRECTION('',(1.,0.,0.));
#1642=DIRECTION('',(0.,1.,0.));
#1643=DIRECTION('',(1.,0.,0.));
#1644=DIRECTION('',(0.,1.,0.));
#1645=DIRECTION('',(1.,0.,0.));
#1646=DIRECTION('',(0.,1.,0.));
#1647=DIRECTION('',(1.,0.,0.));
#1648=DIRECTION('',(0.,0.,-1.));
#1649=DIRECTION('',(-1.,0.,0.));
#1650=DIRECTION('',(0.,-1.82123199577617E-16,1.));
#1651=DIRECTION('',(0.,-1.,-1.82123199577617E-16));
#1652=DIRECTION('',(0.,-1.82123199577617E-16,1.));
#1653=DIRECTION('',(0.,-1.,-1.82123199577617E-16));
#1654=DIRECTION('',(0.,-1.82123199577617E-16,1.));
#1655=DIRECTION('',(0.,-1.,-1.82123199577617E-16));
#1656=DIRECTION('',(0.,-1.82123199577617E-16,1.));
#1657=DIRECTION('',(0.,-1.,-1.82123199577617E-16));
#1658=DIRECTION('',(0.,-1.82123199577617E-16,1.));
#1659=DIRECTION('',(0.,-1.,-1.82123199577617E-16));
#1660=DIRECTION('',(0.,-1.82123199577617E-16,1.));
#1661=DIRECTION('',(0.,-1.,-1.82123199577617E-16));
#1662=DIRECTION('',(0.,-1.82123199577617E-16,1.));
#1663=DIRECTION('',(0.,-1.,-1.82123199577617E-16));
#1664=DIRECTION('',(0.,-1.82123199577617E-16,1.));
#1665=DIRECTION('',(0.,-1.,-1.82123199577617E-16));
#1666=DIRECTION('',(0.,-1.82123199577617E-16,1.));
#1667=DIRECTION('',(0.,-1.,-1.82123199577617E-16));
#1668=DIRECTION('',(0.,-1.82123199577617E-16,1.));
#1669=DIRECTION('',(0.,-1.,-1.82123199577617E-16));
#1670=DIRECTION('',(0.,-1.82123199577617E-16,1.));
#1671=DIRECTION('',(0.,-1.,-1.82123199577617E-16));
#1672=DIRECTION('',(0.,-1.82123199577617E-16,1.));
#1673=DIRECTION('',(0.,-1.,-1.82123199577617E-16));
#1674=DIRECTION('',(0.,-1.82123199577617E-16,1.));
#1675=DIRECTION('',(0.,-1.,-1.82123199577617E-16));
#1676=DIRECTION('',(0.,-1.82123199577617E-16,1.));
#1677=DIRECTION('',(0.,-1.,-1.82123199577617E-16));
#1678=DIRECTION('',(0.,1.,1.82123199577617E-16));
#1679=DIRECTION('',(0.,-1.82123199577617E-16,1.));
#1680=DIRECTION('',(0.,-1.,-1.82123199577617E-16));
#1681=DIRECTION('',(0.,1.,1.82123199577617E-16));
#1682=DIRECTION('',(-1.,0.,0.));
#1683=DIRECTION('',(0.,-1.36592399683213E-16,1.));
#1684=DIRECTION('',(0.,-1.,-1.36592399683213E-16));
#1685=DIRECTION('',(0.,-1.36592399683213E-16,1.));
#1686=DIRECTION('',(0.,-1.,-1.36592399683213E-16));
#1687=DIRECTION('',(0.,-1.36592399683213E-16,1.));
#1688=DIRECTION('',(0.,-1.,-1.36592399683213E-16));
#1689=DIRECTION('',(0.,-1.36592399683213E-16,1.));
#1690=DIRECTION('',(0.,-1.,-1.36592399683213E-16));
#1691=DIRECTION('',(0.,-1.36592399683213E-16,1.));
#1692=DIRECTION('',(0.,-1.,-1.36592399683213E-16));
#1693=DIRECTION('',(0.,-1.36592399683213E-16,1.));
#1694=DIRECTION('',(0.,-1.,-1.36592399683213E-16));
#1695=DIRECTION('',(0.,-1.36592399683213E-16,1.));
#1696=DIRECTION('',(0.,-1.,-1.36592399683213E-16));
#1697=DIRECTION('',(0.,-1.36592399683213E-16,1.));
#1698=DIRECTION('',(0.,-1.,-1.36592399683213E-16));
#1699=DIRECTION('',(0.,-1.36592399683213E-16,1.));
#1700=DIRECTION('',(0.,-1.,-1.36592399683213E-16));
#1701=DIRECTION('',(0.,-1.36592399683213E-16,1.));
#1702=DIRECTION('',(0.,-1.,-1.36592399683213E-16));
#1703=DIRECTION('',(0.,-1.36592399683213E-16,1.));
#1704=DIRECTION('',(0.,-1.,-1.36592399683213E-16));
#1705=DIRECTION('',(0.,-1.36592399683213E-16,1.));
#1706=DIRECTION('',(0.,-1.,-1.36592399683213E-16));
#1707=DIRECTION('',(0.,-1.36592399683213E-16,1.));
#1708=DIRECTION('',(0.,-1.,-1.36592399683213E-16));
#1709=DIRECTION('',(0.,-1.36592399683213E-16,1.));
#1710=DIRECTION('',(0.,-1.,-1.36592399683213E-16));
#1711=DIRECTION('',(0.,-1.36592399683213E-16,1.));
#1712=DIRECTION('',(0.,-1.,-1.36592399683213E-16));
#1713=DIRECTION('',(0.,1.,1.36592399683213E-16));
#1714=DIRECTION('',(-1.,0.,0.));
#1715=DIRECTION('',(0.,1.,1.36592399683213E-16));
#1716=DIRECTION('',(-1.,0.,0.));
#1717=DIRECTION('',(0.,1.,0.));
#1718=DIRECTION('',(1.,0.,0.));
#1719=DIRECTION('',(0.,1.,0.));
#1720=DIRECTION('',(1.,0.,0.));
#1721=DIRECTION('',(0.,1.,0.));
#1722=DIRECTION('',(1.,0.,0.));
#1723=DIRECTION('',(0.,1.,0.));
#1724=DIRECTION('',(1.,0.,0.));
#1725=DIRECTION('',(0.,1.,0.));
#1726=DIRECTION('',(1.,0.,0.));
#1727=DIRECTION('',(0.,1.,0.));
#1728=DIRECTION('',(1.,0.,0.));
#1729=DIRECTION('',(0.,1.,0.));
#1730=DIRECTION('',(1.,0.,0.));
#1731=DIRECTION('',(0.,1.,0.));
#1732=DIRECTION('',(1.,0.,0.));
#1733=DIRECTION('',(0.,1.,0.));
#1734=DIRECTION('',(1.,0.,0.));
#1735=DIRECTION('',(0.,1.,0.));
#1736=DIRECTION('',(1.,0.,0.));
#1737=DIRECTION('',(0.,1.,0.));
#1738=DIRECTION('',(1.,0.,0.));
#1739=DIRECTION('',(0.,1.,0.));
#1740=DIRECTION('',(1.,0.,0.));
#1741=DIRECTION('',(0.,1.,0.));
#1742=DIRECTION('',(1.,0.,0.));
#1743=DIRECTION('',(0.,1.,0.));
#1744=DIRECTION('',(1.,0.,0.));
#1745=DIRECTION('',(0.,1.,0.));
#1746=DIRECTION('',(1.,0.,0.));
#1747=DIRECTION('',(0.,0.,-1.));
#1748=DIRECTION('',(0.,1.,0.));
#1749=DIRECTION('',(1.,0.,0.));
#1750=DIRECTION('',(0.,1.,0.));
#1751=DIRECTION('',(1.,0.,0.));
#1752=DIRECTION('',(0.,1.,0.));
#1753=DIRECTION('',(1.,0.,0.));
#1754=DIRECTION('',(0.,1.,0.));
#1755=DIRECTION('',(1.,0.,0.));
#1756=DIRECTION('',(0.,1.,0.));
#1757=DIRECTION('',(1.,0.,0.));
#1758=DIRECTION('',(0.,1.,0.));
#1759=DIRECTION('',(1.,0.,0.));
#1760=DIRECTION('',(0.,1.,0.));
#1761=DIRECTION('',(1.,0.,0.));
#1762=DIRECTION('',(0.,1.,0.));
#1763=DIRECTION('',(1.,0.,0.));
#1764=DIRECTION('',(0.,1.,0.));
#1765=DIRECTION('',(1.,0.,0.));
#1766=DIRECTION('',(0.,1.,0.));
#1767=DIRECTION('',(1.,0.,0.));
#1768=DIRECTION('',(0.,1.,0.));
#1769=DIRECTION('',(1.,0.,0.));
#1770=DIRECTION('',(0.,1.,0.));
#1771=DIRECTION('',(1.,0.,0.));
#1772=DIRECTION('',(0.,1.,0.));
#1773=DIRECTION('',(1.,0.,0.));
#1774=DIRECTION('',(0.,1.,0.));
#1775=DIRECTION('',(1.,0.,0.));
#1776=DIRECTION('',(0.,1.,0.));
#1777=DIRECTION('',(1.,0.,0.));
#1778=DIRECTION('',(0.,0.,-1.));
#1779=DIRECTION('',(0.,0.,-1.));
#1780=DIRECTION('',(0.,1.,0.));
#1781=DIRECTION('',(1.,0.,0.));
#1782=DIRECTION('',(0.,1.,0.));
#1783=DIRECTION('',(1.,0.,0.));
#1784=DIRECTION('',(0.,1.,0.));
#1785=DIRECTION('',(1.,0.,0.));
#1786=DIRECTION('',(0.,1.,0.));
#1787=DIRECTION('',(1.,0.,0.));
#1788=DIRECTION('',(0.,1.,0.));
#1789=DIRECTION('',(1.,0.,0.));
#1790=DIRECTION('',(0.,1.,0.));
#1791=DIRECTION('',(1.,0.,0.));
#1792=DIRECTION('',(0.,1.,0.));
#1793=DIRECTION('',(1.,0.,0.));
#1794=DIRECTION('',(0.,1.,0.));
#1795=DIRECTION('',(1.,0.,0.));
#1796=DIRECTION('',(0.,1.,0.));
#1797=DIRECTION('',(1.,0.,0.));
#1798=DIRECTION('',(0.,1.,0.));
#1799=DIRECTION('',(1.,0.,0.));
#1800=DIRECTION('',(0.,1.,0.));
#1801=DIRECTION('',(1.,0.,0.));
#1802=DIRECTION('',(0.,1.,0.));
#1803=DIRECTION('',(1.,0.,0.));
#1804=DIRECTION('',(0.,1.,0.));
#1805=DIRECTION('',(1.,0.,0.));
#1806=DIRECTION('',(0.,1.,0.));
#1807=DIRECTION('',(1.,0.,0.));
#1808=DIRECTION('',(0.,1.,0.));
#1809=DIRECTION('',(1.,0.,0.));
#1810=DIRECTION('',(0.,0.,-1.));
#1811=DIRECTION('',(0.,0.,-1.));
#1812=DIRECTION('',(1.,0.,0.));
#1813=DIRECTION('',(0.,0.,-1.));
#1814=DIRECTION('',(0.,1.36592399683213E-16,-1.));
#1815=DIRECTION('',(0.,1.36592399683213E-16,-1.));
#1816=DIRECTION('',(1.,0.,0.));
#1817=DIRECTION('',(0.,0.,-1.));
#1818=DIRECTION('',(0.,1.,0.));
#1819=DIRECTION('',(1.,0.,0.));
#1820=DIRECTION('',(0.,1.,0.));
#1821=DIRECTION('',(1.,0.,0.));
#1822=DIRECTION('',(0.,1.,0.));
#1823=DIRECTION('',(1.,0.,0.));
#1824=DIRECTION('',(0.,1.,0.));
#1825=DIRECTION('',(1.,0.,0.));
#1826=DIRECTION('',(0.,1.,0.));
#1827=DIRECTION('',(1.,0.,0.));
#1828=DIRECTION('',(0.,1.,0.));
#1829=DIRECTION('',(1.,0.,0.));
#1830=DIRECTION('',(0.,1.,0.));
#1831=DIRECTION('',(1.,0.,0.));
#1832=DIRECTION('',(0.,1.,0.));
#1833=DIRECTION('',(1.,0.,0.));
#1834=DIRECTION('',(0.,1.,0.));
#1835=DIRECTION('',(1.,0.,0.));
#1836=DIRECTION('',(0.,1.,0.));
#1837=DIRECTION('',(1.,0.,0.));
#1838=DIRECTION('',(0.,1.,0.));
#1839=DIRECTION('',(1.,0.,0.));
#1840=DIRECTION('',(0.,1.,0.));
#1841=DIRECTION('',(1.,0.,0.));
#1842=DIRECTION('',(0.,1.,0.));
#1843=DIRECTION('',(1.,0.,0.));
#1844=DIRECTION('',(0.,1.,0.));
#1845=DIRECTION('',(1.,0.,0.));
#1846=DIRECTION('',(0.,1.,0.));
#1847=DIRECTION('',(1.,0.,0.));
#1848=DIRECTION('',(0.,1.,0.));
#1849=DIRECTION('',(1.,0.,0.));
#1850=DIRECTION('',(0.,1.,0.));
#1851=DIRECTION('',(1.,0.,0.));
#1852=DIRECTION('',(0.,1.,0.));
#1853=DIRECTION('',(1.,0.,0.));
#1854=DIRECTION('',(0.,1.,0.));
#1855=DIRECTION('',(1.,0.,0.));
#1856=DIRECTION('',(0.,1.,0.));
#1857=DIRECTION('',(1.,0.,0.));
#1858=DIRECTION('',(0.,1.,0.));
#1859=DIRECTION('',(1.,0.,0.));
#1860=DIRECTION('',(0.,1.,0.));
#1861=DIRECTION('',(1.,0.,0.));
#1862=DIRECTION('',(0.,1.,0.));
#1863=DIRECTION('',(1.,0.,0.));
#1864=DIRECTION('',(0.,1.,0.));
#1865=DIRECTION('',(1.,0.,0.));
#1866=DIRECTION('',(0.,1.,0.));
#1867=DIRECTION('',(1.,0.,0.));
#1868=DIRECTION('',(0.,1.,0.));
#1869=DIRECTION('',(1.,0.,0.));
#1870=DIRECTION('',(0.,1.,0.));
#1871=DIRECTION('',(1.,0.,0.));
#1872=DIRECTION('',(0.,1.,0.));
#1873=DIRECTION('',(1.,0.,0.));
#1874=DIRECTION('',(0.,1.36592399683213E-16,-1.));
#1875=DIRECTION('',(0.,1.,1.36592399683213E-16));
#1876=DIRECTION('',(0.,1.36592399683213E-16,-1.));
#1877=DIRECTION('',(0.,1.,1.36592399683213E-16));
#1878=DIRECTION('',(0.,1.36592399683213E-16,-1.));
#1879=DIRECTION('',(0.,1.,1.36592399683213E-16));
#1880=DIRECTION('',(0.,1.36592399683213E-16,-1.));
#1881=DIRECTION('',(0.,1.,1.36592399683213E-16));
#1882=DIRECTION('',(0.,1.36592399683213E-16,-1.));
#1883=DIRECTION('',(0.,1.,1.36592399683213E-16));
#1884=DIRECTION('',(0.,1.36592399683213E-16,-1.));
#1885=DIRECTION('',(0.,1.,1.36592399683213E-16));
#1886=DIRECTION('',(0.,1.36592399683213E-16,-1.));
#1887=DIRECTION('',(0.,1.,1.36592399683213E-16));
#1888=DIRECTION('',(0.,1.36592399683213E-16,-1.));
#1889=DIRECTION('',(0.,1.,1.36592399683213E-16));
#1890=DIRECTION('',(0.,1.36592399683213E-16,-1.));
#1891=DIRECTION('',(0.,1.,1.36592399683213E-16));
#1892=DIRECTION('',(0.,1.36592399683213E-16,-1.));
#1893=DIRECTION('',(0.,1.,1.36592399683213E-16));
#1894=DIRECTION('',(0.,1.36592399683213E-16,-1.));
#1895=DIRECTION('',(0.,1.,1.36592399683213E-16));
#1896=DIRECTION('',(0.,1.36592399683213E-16,-1.));
#1897=DIRECTION('',(0.,1.,1.36592399683213E-16));
#1898=DIRECTION('',(0.,1.36592399683213E-16,-1.));
#1899=DIRECTION('',(0.,1.,1.36592399683213E-16));
#1900=DIRECTION('',(0.,1.36592399683213E-16,-1.));
#1901=DIRECTION('',(0.,1.,1.36592399683213E-16));
#1902=DIRECTION('',(0.,1.36592399683213E-16,-1.));
#1903=DIRECTION('',(0.,1.,1.36592399683213E-16));
#1904=DIRECTION('',(0.,1.36592399683213E-16,-1.));
#1905=DIRECTION('',(0.,1.,1.36592399683213E-16));
#1906=DIRECTION('',(0.,1.36592399683213E-16,-1.));
#1907=DIRECTION('',(0.,1.,1.36592399683213E-16));
#1908=DIRECTION('',(0.,1.36592399683213E-16,-1.));
#1909=DIRECTION('',(0.,1.,1.36592399683213E-16));
#1910=DIRECTION('',(0.,1.36592399683213E-16,-1.));
#1911=DIRECTION('',(0.,1.,1.36592399683213E-16));
#1912=DIRECTION('',(0.,1.36592399683213E-16,-1.));
#1913=DIRECTION('',(0.,1.,1.36592399683213E-16));
#1914=DIRECTION('',(0.,1.36592399683213E-16,-1.));
#1915=DIRECTION('',(0.,1.,1.36592399683213E-16));
#1916=DIRECTION('',(0.,1.36592399683213E-16,-1.));
#1917=DIRECTION('',(0.,1.,1.36592399683213E-16));
#1918=DIRECTION('',(0.,1.36592399683213E-16,-1.));
#1919=DIRECTION('',(0.,1.,1.36592399683213E-16));
#1920=DIRECTION('',(0.,1.36592399683213E-16,-1.));
#1921=DIRECTION('',(0.,1.,1.36592399683213E-16));
#1922=DIRECTION('',(0.,1.36592399683213E-16,-1.));
#1923=DIRECTION('',(0.,1.,1.36592399683213E-16));
#1924=DIRECTION('',(0.,1.36592399683213E-16,-1.));
#1925=DIRECTION('',(0.,1.,1.36592399683213E-16));
#1926=DIRECTION('',(0.,1.36592399683213E-16,-1.));
#1927=DIRECTION('',(0.,1.,1.36592399683213E-16));
#1928=DIRECTION('',(0.,1.36592399683213E-16,-1.));
#1929=DIRECTION('',(0.,1.,1.36592399683213E-16));
#1930=CARTESIAN_POINT('',(0.,0.,0.));
#1931=CARTESIAN_POINT('',(0.0889,0.,-0.0127));
#1932=CARTESIAN_POINT('',(0.074,-8.05431717247382E-17,-0.0127));
#1933=CARTESIAN_POINT('',(0.074,0.00249999999999992,-0.0127));
#1934=CARTESIAN_POINT('',(0.0613,-7.89878702898211E-17,-0.0127));
#1935=CARTESIAN_POINT('',(0.0613,0.00249999999999992,-0.0127));
#1936=CARTESIAN_POINT('',(0.0486,-7.74325688549039E-17,-0.0127));
#1937=CARTESIAN_POINT('',(0.0486,0.00249999999999992,-0.0127));
#1938=CARTESIAN_POINT('',(0.0359,-7.58772674199868E-17,-0.0127));
#1939=CARTESIAN_POINT('',(0.0359,0.00249999999999992,-0.0127));
#1940=CARTESIAN_POINT('',(0.0232000000000003,-7.43219659850696E-17,-0.0127));
#1941=CARTESIAN_POINT('',(0.0232000000000003,0.00249999999999993,-0.0127));
#1942=CARTESIAN_POINT('',(0.0105000000000003,-7.27666645501525E-17,-0.0127));
#1943=CARTESIAN_POINT('',(0.0105000000000003,0.00249999999999993,-0.0127));
#1944=CARTESIAN_POINT('',(-0.00219999999999976,-7.12113631152353E-17,-0.0127));
#1945=CARTESIAN_POINT('',(-0.00219999999999976,0.00249999999999993,-0.0127));
#1946=CARTESIAN_POINT('',(-0.0148999999999998,-6.96560616803182E-17,-0.0127));
#1947=CARTESIAN_POINT('',(-0.0148999999999998,0.00249999999999993,-0.0127));
#1948=CARTESIAN_POINT('',(-0.0276,-6.8100760245401E-17,-0.0127));
#1949=CARTESIAN_POINT('',(-0.0276,0.00249999999999993,-0.0127));
#1950=CARTESIAN_POINT('',(-0.0403,-6.65454588104839E-17,-0.0127));
#1951=CARTESIAN_POINT('',(-0.0403,0.00249999999999993,-0.0127));
#1952=CARTESIAN_POINT('',(-0.053,-6.49901573755668E-17,-0.0127));
#1953=CARTESIAN_POINT('',(-0.053,0.00249999999999993,-0.0127));
#1954=CARTESIAN_POINT('',(-0.0657,-6.34348559406496E-17,-0.0127));
#1955=CARTESIAN_POINT('',(-0.0657,0.00249999999999994,-0.0127));
#1956=CARTESIAN_POINT('',(-0.0784,-6.18795545057325E-17,-0.0127));
#1957=CARTESIAN_POINT('',(-0.0784,0.00249999999999994,-0.0127));
#1958=CARTESIAN_POINT('',(0.0867,-8.20984731596553E-17,-0.0127));
#1959=CARTESIAN_POINT('',(0.0889,-0.00118743420870489,-0.0127));
#1960=CARTESIAN_POINT('',(0.0889,0.00118743420870473,-0.0127));
#1961=CARTESIAN_POINT('',(0.0889,0.,-0.0127));
#1962=CARTESIAN_POINT('',(0.0889,-0.0127,-0.0127));
#1963=CARTESIAN_POINT('',(0.0889,-0.0127,-0.0127));
#1964=CARTESIAN_POINT('',(-0.0889,-0.0127,-0.0127));
#1965=CARTESIAN_POINT('',(-0.0889,0.,-0.0127));
#1966=CARTESIAN_POINT('',(-0.0889,0.0127,-0.0127));
#1967=CARTESIAN_POINT('',(0.0889,0.0127,-0.0127));
#1968=CARTESIAN_POINT('',(0.0889,0.0127,-0.0127));
#1969=CARTESIAN_POINT('',(0.0889,0.,-0.0127));
#1970=CARTESIAN_POINT('',(0.0889,0.,0.));
#1971=CARTESIAN_POINT('',(0.0889,-0.00118743420870492,0.16899635061556));
#1972=CARTESIAN_POINT('',(0.0889,-0.0011874342087049,0.0127));
#1973=CARTESIAN_POINT('',(0.0889,-0.0011874342087049,0.009525));
#1974=CARTESIAN_POINT('',(0.0889,0.,0.0127));
#1975=CARTESIAN_POINT('',(0.0889,-0.0127,0.0127));
#1976=CARTESIAN_POINT('',(0.0889,-0.0127,-1.7347234759768E-18));
#1977=CARTESIAN_POINT('',(0.0889,-0.00118743420870492,0.16899635061556));
#1978=CARTESIAN_POINT('',(0.0889,-0.00118743420870489,-0.009525));
#1979=CARTESIAN_POINT('',(0.0889,0.,-0.009525));
#1980=CARTESIAN_POINT('',(0.0889,-0.009525,-0.009525));
#1981=CARTESIAN_POINT('',(0.0889,-0.009525,-1.7347234759768E-18));
#1982=CARTESIAN_POINT('',(0.0889,-0.009525,0.009525));
#1983=CARTESIAN_POINT('',(0.0889,0.,0.009525));
#1984=CARTESIAN_POINT('',(0.0889,0.,-0.009525));
#1985=CARTESIAN_POINT('',(-0.0784,-6.23132353747267E-17,-0.009525));
#1986=CARTESIAN_POINT('',(-0.0784,-0.00250000000000006,-0.009525));
#1987=CARTESIAN_POINT('',(-0.0657,-6.38685368096438E-17,-0.009525));
#1988=CARTESIAN_POINT('',(-0.0657,-0.00250000000000006,-0.009525));
#1989=CARTESIAN_POINT('',(-0.053,-6.5423838244561E-17,-0.009525));
#1990=CARTESIAN_POINT('',(-0.053,-0.00250000000000007,-0.009525));
#1991=CARTESIAN_POINT('',(-0.0403,-6.69791396794781E-17,-0.009525));
#1992=CARTESIAN_POINT('',(-0.0403,-0.00250000000000007,-0.009525));
#1993=CARTESIAN_POINT('',(-0.0276,-6.85344411143953E-17,-0.009525));
#1994=CARTESIAN_POINT('',(-0.0276,-0.00250000000000007,-0.009525));
#1995=CARTESIAN_POINT('',(-0.0148999999999998,-7.00897425493124E-17,-0.009525));
#1996=CARTESIAN_POINT('',(-0.0148999999999998,-0.00250000000000007,-0.009525));
#1997=CARTESIAN_POINT('',(-0.00219999999999976,-7.16450439842295E-17,-0.009525));
#1998=CARTESIAN_POINT('',(-0.00219999999999976,-0.00250000000000007,-0.009525));
#1999=CARTESIAN_POINT('',(0.0105000000000003,-7.32003454191467E-17,-0.009525));
#2000=CARTESIAN_POINT('',(0.0105000000000003,-0.00250000000000007,-0.009525));
#2001=CARTESIAN_POINT('',(0.0232000000000003,-7.47556468540638E-17,-0.009525));
#2002=CARTESIAN_POINT('',(0.0232000000000003,-0.00250000000000007,-0.009525));
#2003=CARTESIAN_POINT('',(0.0359,-7.6310948288981E-17,-0.009525));
#2004=CARTESIAN_POINT('',(0.0359,-0.00250000000000008,-0.009525));
#2005=CARTESIAN_POINT('',(0.0486,-7.78662497238981E-17,-0.009525));
#2006=CARTESIAN_POINT('',(0.0486,-0.00250000000000008,-0.009525));
#2007=CARTESIAN_POINT('',(0.0613,-7.94215511588153E-17,-0.009525));
#2008=CARTESIAN_POINT('',(0.0613,-0.00250000000000008,-0.009525));
#2009=CARTESIAN_POINT('',(0.074,-8.09768525937324E-17,-0.009525));
#2010=CARTESIAN_POINT('',(0.074,-0.00250000000000008,-0.009525));
#2011=CARTESIAN_POINT('',(0.0867,-8.25321540286496E-17,-0.009525));
#2012=CARTESIAN_POINT('',(0.0889,0.00118743420870473,-0.009525));
#2013=CARTESIAN_POINT('',(0.0889,0.,-0.009525));
#2014=CARTESIAN_POINT('',(0.0889,0.009525,-0.009525));
#2015=CARTESIAN_POINT('',(0.0889,0.009525,-0.009525));
#2016=CARTESIAN_POINT('',(-0.0889,0.009525,-0.009525));
#2017=CARTESIAN_POINT('',(-0.0889,0.,-0.009525));
#2018=CARTESIAN_POINT('',(-0.0889,-0.009525,-0.009525));
#2019=CARTESIAN_POINT('',(0.0889,-0.009525,-0.009525));
#2020=CARTESIAN_POINT('',(0.0889,-0.009525,-1.7347234759768E-18));
#2021=CARTESIAN_POINT('',(-0.08119999,-0.009525,-1.53080849893419E-19));
#2022=CARTESIAN_POINT('',(-0.07869999,-0.009525,-1.53080849893419E-19));
#2023=CARTESIAN_POINT('',(-0.06849999,-0.009525,-1.53080849893419E-19));
#2024=CARTESIAN_POINT('',(-0.06599999,-0.009525,-1.53080849893419E-19));
#2025=CARTESIAN_POINT('',(-0.05579999,-0.009525,-1.53080849893419E-19));
#2026=CARTESIAN_POINT('',(-0.05329999,-0.009525,-1.53080849893419E-19));
#2027=CARTESIAN_POINT('',(-0.04309999,-0.009525,-1.53080849893419E-19));
#2028=CARTESIAN_POINT('',(-0.04059999,-0.009525,-1.53080849893419E-19));
#2029=CARTESIAN_POINT('',(-0.03039999,-0.009525,-1.53080849893419E-19));
#2030=CARTESIAN_POINT('',(-0.02789999,-0.009525,-1.53080849893419E-19));
#2031=CARTESIAN_POINT('',(-0.01769999,-0.009525,-1.53080849893419E-19));
#2032=CARTESIAN_POINT('',(-0.01519999,-0.009525,-1.53080849893419E-19));
#2033=CARTESIAN_POINT('',(-0.00499999,-0.009525,-1.53080849893419E-19));
#2034=CARTESIAN_POINT('',(-0.00249999,-0.009525,-1.53080849893419E-19));
#2035=CARTESIAN_POINT('',(0.00770001,-0.009525,-1.53080849893419E-19));
#2036=CARTESIAN_POINT('',(0.01020001,-0.009525,-1.53080849893419E-19));
#2037=CARTESIAN_POINT('',(0.02040001,-0.009525,-1.53080849893419E-19));
#2038=CARTESIAN_POINT('',(0.02290001,-0.009525,-1.53080849893419E-19));
#2039=CARTESIAN_POINT('',(0.03310001,-0.009525,-1.53080849893419E-19));
#2040=CARTESIAN_POINT('',(0.03560001,-0.009525,-1.53080849893419E-19));
#2041=CARTESIAN_POINT('',(0.04580001,-0.009525,-1.53080849893419E-19));
#2042=CARTESIAN_POINT('',(0.04830001,-0.009525,-1.53080849893419E-19));
#2043=CARTESIAN_POINT('',(0.05850001,-0.009525,-1.53080849893419E-19));
#2044=CARTESIAN_POINT('',(0.06100001,-0.009525,-1.53080849893419E-19));
#2045=CARTESIAN_POINT('',(0.07120001,-0.009525,-1.53080849893419E-19));
#2046=CARTESIAN_POINT('',(0.07370001,-0.009525,-1.53080849893419E-19));
#2047=CARTESIAN_POINT('',(0.08390001,-0.009525,-1.53080849893419E-19));
#2048=CARTESIAN_POINT('',(0.08640001,-0.009525,-1.53080849893419E-19));
#2049=CARTESIAN_POINT('',(-0.0889,-0.009525,-1.7347234759768E-18));
#2050=CARTESIAN_POINT('',(-0.0889,-0.009525,0.009525));
#2051=CARTESIAN_POINT('',(0.0889,-0.009525,0.009525));
#2052=CARTESIAN_POINT('',(0.0889,0.,0.009525));
#2053=CARTESIAN_POINT('',(-0.0784,-6.49153205886919E-17,0.009525));
#2054=CARTESIAN_POINT('',(-0.0784,-0.00250000000000007,0.009525));
#2055=CARTESIAN_POINT('',(-0.0657,-6.6470622023609E-17,0.009525));
#2056=CARTESIAN_POINT('',(-0.0657,-0.00250000000000007,0.009525));
#2057=CARTESIAN_POINT('',(-0.053,-6.80259234585262E-17,0.009525));
#2058=CARTESIAN_POINT('',(-0.053,-0.00250000000000007,0.009525));
#2059=CARTESIAN_POINT('',(-0.0403,-6.95812248934433E-17,0.009525));
#2060=CARTESIAN_POINT('',(-0.0403,-0.00250000000000007,0.009525));
#2061=CARTESIAN_POINT('',(-0.0276,-7.11365263283605E-17,0.009525));
#2062=CARTESIAN_POINT('',(-0.0276,-0.00250000000000007,0.009525));
#2063=CARTESIAN_POINT('',(-0.0148999999999998,-7.26918277632776E-17,0.009525));
#2064=CARTESIAN_POINT('',(-0.0148999999999998,-0.00250000000000007,0.009525));
#2065=CARTESIAN_POINT('',(-0.00219999999999976,-7.42471291981948E-17,0.009525));
#2066=CARTESIAN_POINT('',(-0.00219999999999976,-0.00250000000000007,0.009525));
#2067=CARTESIAN_POINT('',(0.0105000000000003,-7.58024306331119E-17,0.009525));
#2068=CARTESIAN_POINT('',(0.0105000000000003,-0.00250000000000008,0.009525));
#2069=CARTESIAN_POINT('',(0.0232000000000003,-7.7357732068029E-17,0.009525));
#2070=CARTESIAN_POINT('',(0.0232000000000003,-0.00250000000000008,0.009525));
#2071=CARTESIAN_POINT('',(0.0359,-7.89130335029462E-17,0.009525));
#2072=CARTESIAN_POINT('',(0.0359,-0.00250000000000008,0.009525));
#2073=CARTESIAN_POINT('',(0.0486,-8.04683349378633E-17,0.009525));
#2074=CARTESIAN_POINT('',(0.0486,-0.00250000000000008,0.009525));
#2075=CARTESIAN_POINT('',(0.0613,-8.20236363727805E-17,0.009525));
#2076=CARTESIAN_POINT('',(0.0613,-0.00250000000000008,0.009525));
#2077=CARTESIAN_POINT('',(0.074,-8.35789378076976E-17,0.009525));
#2078=CARTESIAN_POINT('',(0.074,-0.00250000000000008,0.009525));
#2079=CARTESIAN_POINT('',(0.0889,0.,0.009525));
#2080=CARTESIAN_POINT('',(0.0889,0.00118743420870473,0.009525));
#2081=CARTESIAN_POINT('',(0.0889,0.009525,0.009525));
#2082=CARTESIAN_POINT('',(0.0867,-8.51342392426148E-17,0.009525));
#2083=CARTESIAN_POINT('',(-0.0889,0.,0.009525));
#2084=CARTESIAN_POINT('',(-0.0889,0.009525,0.009525));
#2085=CARTESIAN_POINT('',(0.0889,0.009525,0.009525));
#2086=CARTESIAN_POINT('',(0.0889,0.,0.0127));
#2087=CARTESIAN_POINT('',(-0.0784,-6.53490014576861E-17,0.0127));
#2088=CARTESIAN_POINT('',(-0.0784,-0.00250000000000007,0.0127));
#2089=CARTESIAN_POINT('',(-0.0657,-6.69043028926032E-17,0.0127));
#2090=CARTESIAN_POINT('',(-0.0657,-0.00250000000000007,0.0127));
#2091=CARTESIAN_POINT('',(-0.053,-6.84596043275204E-17,0.0127));
#2092=CARTESIAN_POINT('',(-0.053,-0.00250000000000007,0.0127));
#2093=CARTESIAN_POINT('',(-0.0403,-7.00149057624375E-17,0.0127));
#2094=CARTESIAN_POINT('',(-0.0403,-0.00250000000000007,0.0127));
#2095=CARTESIAN_POINT('',(-0.0276,-7.15702071973547E-17,0.0127));
#2096=CARTESIAN_POINT('',(-0.0276,-0.00250000000000007,0.0127));
#2097=CARTESIAN_POINT('',(-0.0148999999999998,-7.31255086322718E-17,0.0127));
#2098=CARTESIAN_POINT('',(-0.0148999999999998,-0.00250000000000007,0.0127));
#2099=CARTESIAN_POINT('',(-0.00219999999999976,-7.46808100671889E-17,0.0127));
#2100=CARTESIAN_POINT('',(-0.00219999999999976,-0.00250000000000007,0.0127));
#2101=CARTESIAN_POINT('',(0.0105000000000003,-7.62361115021061E-17,0.0127));
#2102=CARTESIAN_POINT('',(0.0105000000000003,-0.00250000000000008,0.0127));
#2103=CARTESIAN_POINT('',(0.0232000000000003,-7.77914129370232E-17,0.0127));
#2104=CARTESIAN_POINT('',(0.0232000000000003,-0.00250000000000008,0.0127));
#2105=CARTESIAN_POINT('',(0.0359,-7.93467143719404E-17,0.0127));
#2106=CARTESIAN_POINT('',(0.0359,-0.00250000000000008,0.0127));
#2107=CARTESIAN_POINT('',(0.0486,-8.09020158068575E-17,0.0127));
#2108=CARTESIAN_POINT('',(0.0486,-0.00250000000000008,0.0127));
#2109=CARTESIAN_POINT('',(0.0613,-8.24573172417747E-17,0.0127));
#2110=CARTESIAN_POINT('',(0.0613,-0.00250000000000008,0.0127));
#2111=CARTESIAN_POINT('',(0.074,-8.40126186766918E-17,0.0127));
#2112=CARTESIAN_POINT('',(0.074,-0.00250000000000008,0.0127));
#2113=CARTESIAN_POINT('',(0.0867,-8.5567920111609E-17,0.0127));
#2114=CARTESIAN_POINT('',(0.0889,0.00118743420870473,0.0127));
#2115=CARTESIAN_POINT('',(0.0889,0.,0.0127));
#2116=CARTESIAN_POINT('',(0.0889,0.0127,0.0127));
#2117=CARTESIAN_POINT('',(0.0889,0.0127,0.0127));
#2118=CARTESIAN_POINT('',(-0.0889,0.0127,0.0127));
#2119=CARTESIAN_POINT('',(-0.0889,0.,0.0127));
#2120=CARTESIAN_POINT('',(-0.0889,-0.0127,0.0127));
#2121=CARTESIAN_POINT('',(0.0889,-0.0127,0.0127));
#2122=CARTESIAN_POINT('',(0.0889,-0.0127,-1.7347234759768E-18));
#2123=CARTESIAN_POINT('',(-0.08119999,-0.0127,-1.53080849893419E-19));
#2124=CARTESIAN_POINT('',(-0.07869999,-0.0127,-1.53080849893419E-19));
#2125=CARTESIAN_POINT('',(-0.06849999,-0.0127,-1.53080849893419E-19));
#2126=CARTESIAN_POINT('',(-0.06599999,-0.0127,-1.53080849893419E-19));
#2127=CARTESIAN_POINT('',(-0.05579999,-0.0127,-1.53080849893419E-19));
#2128=CARTESIAN_POINT('',(-0.05329999,-0.0127,-1.53080849893419E-19));
#2129=CARTESIAN_POINT('',(-0.04309999,-0.0127,-1.53080849893419E-19));
#2130=CARTESIAN_POINT('',(-0.04059999,-0.0127,-1.53080849893419E-19));
#2131=CARTESIAN_POINT('',(-0.03039999,-0.0127,-1.53080849893419E-19));
#2132=CARTESIAN_POINT('',(-0.02789999,-0.0127,-1.53080849893419E-19));
#2133=CARTESIAN_POINT('',(-0.01769999,-0.0127,-1.53080849893419E-19));
#2134=CARTESIAN_POINT('',(-0.01519999,-0.0127,-1.53080849893419E-19));
#2135=CARTESIAN_POINT('',(-0.00499999,-0.0127,-1.53080849893419E-19));
#2136=CARTESIAN_POINT('',(-0.00249999,-0.0127,-1.53080849893419E-19));
#2137=CARTESIAN_POINT('',(0.00770001,-0.0127,-1.53080849893419E-19));
#2138=CARTESIAN_POINT('',(0.01020001,-0.0127,-1.53080849893419E-19));
#2139=CARTESIAN_POINT('',(0.02040001,-0.0127,-1.53080849893419E-19));
#2140=CARTESIAN_POINT('',(0.02290001,-0.0127,-1.53080849893419E-19));
#2141=CARTESIAN_POINT('',(0.03310001,-0.0127,-1.53080849893419E-19));
#2142=CARTESIAN_POINT('',(0.03560001,-0.0127,-1.53080849893419E-19));
#2143=CARTESIAN_POINT('',(0.04580001,-0.0127,-1.53080849893419E-19));
#2144=CARTESIAN_POINT('',(0.04830001,-0.0127,-1.53080849893419E-19));
#2145=CARTESIAN_POINT('',(0.05850001,-0.0127,-1.53080849893419E-19));
#2146=CARTESIAN_POINT('',(0.06100001,-0.0127,-1.53080849893419E-19));
#2147=CARTESIAN_POINT('',(0.07120001,-0.0127,-1.53080849893419E-19));
#2148=CARTESIAN_POINT('',(0.07370001,-0.0127,-1.53080849893419E-19));
#2149=CARTESIAN_POINT('',(0.08390001,-0.0127,-1.53080849893419E-19));
#2150=CARTESIAN_POINT('',(0.08640001,-0.0127,-1.53080849893419E-19));
#2151=CARTESIAN_POINT('',(-0.0889,-0.0127,-1.7347234759768E-18));
#2152=CARTESIAN_POINT('',(0.0889,0.0127,1.7347234759768E-18));
#2153=CARTESIAN_POINT('',(-0.08119999,0.0127,-1.53080849893419E-19));
#2154=CARTESIAN_POINT('',(-0.07869999,0.0127,-1.53080849893419E-19));
#2155=CARTESIAN_POINT('',(-0.06849999,0.0127,-1.53080849893419E-19));
#2156=CARTESIAN_POINT('',(-0.06599999,0.0127,-1.53080849893419E-19));
#2157=CARTESIAN_POINT('',(-0.05579999,0.0127,-1.53080849893419E-19));
#2158=CARTESIAN_POINT('',(-0.05329999,0.0127,-1.53080849893419E-19));
#2159=CARTESIAN_POINT('',(-0.04309999,0.0127,-1.53080849893419E-19));
#2160=CARTESIAN_POINT('',(-0.04059999,0.0127,-1.53080849893419E-19));
#2161=CARTESIAN_POINT('',(-0.03039999,0.0127,-1.53080849893419E-19));
#2162=CARTESIAN_POINT('',(-0.02789999,0.0127,-1.53080849893419E-19));
#2163=CARTESIAN_POINT('',(-0.01769999,0.0127,-1.53080849893419E-19));
#2164=CARTESIAN_POINT('',(-0.01519999,0.0127,-1.53080849893419E-19));
#2165=CARTESIAN_POINT('',(-0.00499999,0.0127,-1.53080849893419E-19));
#2166=CARTESIAN_POINT('',(-0.00249999,0.0127,-1.53080849893419E-19));
#2167=CARTESIAN_POINT('',(0.00770001,0.0127,-1.53080849893419E-19));
#2168=CARTESIAN_POINT('',(0.01020001,0.0127,-1.53080849893419E-19));
#2169=CARTESIAN_POINT('',(0.02040001,0.0127,-1.53080849893419E-19));
#2170=CARTESIAN_POINT('',(0.02290001,0.0127,-1.53080849893419E-19));
#2171=CARTESIAN_POINT('',(0.03310001,0.0127,-1.53080849893419E-19));
#2172=CARTESIAN_POINT('',(0.03560001,0.0127,-1.53080849893419E-19));
#2173=CARTESIAN_POINT('',(0.04580001,0.0127,-1.53080849893419E-19));
#2174=CARTESIAN_POINT('',(0.04830001,0.0127,-1.53080849893419E-19));
#2175=CARTESIAN_POINT('',(0.05850001,0.0127,-1.53080849893419E-19));
#2176=CARTESIAN_POINT('',(0.06100001,0.0127,-1.53080849893419E-19));
#2177=CARTESIAN_POINT('',(0.07120001,0.0127,-1.53080849893419E-19));
#2178=CARTESIAN_POINT('',(0.07370001,0.0127,-1.53080849893419E-19));
#2179=CARTESIAN_POINT('',(0.08390001,0.0127,-1.53080849893419E-19));
#2180=CARTESIAN_POINT('',(0.08640001,0.0127,-1.53080849893419E-19));
#2181=CARTESIAN_POINT('',(-0.0889,0.0127,1.7347234759768E-18));
#2182=CARTESIAN_POINT('',(0.0889,0.0127,1.7347234759768E-18));
#2183=CARTESIAN_POINT('',(0.0889,0.009525,1.7347234759768E-18));
#2184=CARTESIAN_POINT('',(-0.08119999,0.009525,-1.53080849893419E-19));
#2185=CARTESIAN_POINT('',(-0.07869999,0.009525,-1.53080849893419E-19));
#2186=CARTESIAN_POINT('',(-0.06849999,0.009525,-1.53080849893419E-19));
#2187=CARTESIAN_POINT('',(-0.06599999,0.009525,-1.53080849893419E-19));
#2188=CARTESIAN_POINT('',(-0.05579999,0.009525,-1.53080849893419E-19));
#2189=CARTESIAN_POINT('',(-0.05329999,0.009525,-1.53080849893419E-19));
#2190=CARTESIAN_POINT('',(-0.04309999,0.009525,-1.53080849893419E-19));
#2191=CARTESIAN_POINT('',(-0.04059999,0.009525,-1.53080849893419E-19));
#2192=CARTESIAN_POINT('',(-0.03039999,0.009525,-1.53080849893419E-19));
#2193=CARTESIAN_POINT('',(-0.02789999,0.009525,-1.53080849893419E-19));
#2194=CARTESIAN_POINT('',(-0.01769999,0.009525,-1.53080849893419E-19));
#2195=CARTESIAN_POINT('',(-0.01519999,0.009525,-1.53080849893419E-19));
#2196=CARTESIAN_POINT('',(-0.00499999,0.009525,-1.53080849893419E-19));
#2197=CARTESIAN_POINT('',(-0.00249999,0.009525,-1.53080849893419E-19));
#2198=CARTESIAN_POINT('',(0.00770001,0.009525,-1.53080849893419E-19));
#2199=CARTESIAN_POINT('',(0.01020001,0.009525,-1.53080849893419E-19));
#2200=CARTESIAN_POINT('',(0.02040001,0.009525,-1.53080849893419E-19));
#2201=CARTESIAN_POINT('',(0.02290001,0.009525,-1.53080849893419E-19));
#2202=CARTESIAN_POINT('',(0.03310001,0.009525,-1.53080849893419E-19));
#2203=CARTESIAN_POINT('',(0.03560001,0.009525,-1.53080849893419E-19));
#2204=CARTESIAN_POINT('',(0.04580001,0.009525,-1.53080849893419E-19));
#2205=CARTESIAN_POINT('',(0.04830001,0.009525,-1.53080849893419E-19));
#2206=CARTESIAN_POINT('',(0.05850001,0.009525,-1.53080849893419E-19));
#2207=CARTESIAN_POINT('',(0.06100001,0.009525,-1.53080849893419E-19));
#2208=CARTESIAN_POINT('',(0.07120001,0.009525,-1.53080849893419E-19));
#2209=CARTESIAN_POINT('',(0.07370001,0.009525,-1.53080849893419E-19));
#2210=CARTESIAN_POINT('',(0.08390001,0.009525,-1.53080849893419E-19));
#2211=CARTESIAN_POINT('',(0.08640001,0.009525,-1.53080849893419E-19));
#2212=CARTESIAN_POINT('',(-0.0889,0.009525,1.7347234759768E-18));
#2213=CARTESIAN_POINT('',(0.0889,0.009525,1.7347234759768E-18));
#2214=CARTESIAN_POINT('',(0.0889,0.,0.));
#2215=CARTESIAN_POINT('',(0.0889,0.0011874342087047,0.16899635061556));
#2216=CARTESIAN_POINT('',(0.0889,0.0011874342087047,0.16899635061556));
#2217=CARTESIAN_POINT('',(-0.0889,0.,0.));
#2218=CARTESIAN_POINT('',(0.08390001,-0.168702282084988,-1.53080849893419E-19));
#2219=CARTESIAN_POINT('',(0.07120001,-0.168702282084988,-1.53080849893419E-19));
#2220=CARTESIAN_POINT('',(0.05850001,-0.168702282084988,-1.53080849893419E-19));
#2221=CARTESIAN_POINT('',(0.04580001,-0.168702282084988,-1.53080849893419E-19));
#2222=CARTESIAN_POINT('',(0.03310001,-0.168702282084988,-1.53080849893419E-19));
#2223=CARTESIAN_POINT('',(0.02040001,-0.168702282084988,-1.53080849893419E-19));
#2224=CARTESIAN_POINT('',(0.00770001,-0.168702282084988,-1.53080849893419E-19));
#2225=CARTESIAN_POINT('',(-0.00499999,-0.168702282084988,-1.53080849893419E-19));
#2226=CARTESIAN_POINT('',(-0.01769999,-0.168702282084988,-1.53080849893419E-19));
#2227=CARTESIAN_POINT('',(-0.03039999,-0.168702282084988,-1.53080849893419E-19));
#2228=CARTESIAN_POINT('',(-0.04309999,-0.168702282084988,-1.53080849893419E-19));
#2229=CARTESIAN_POINT('',(-0.05579999,-0.168702282084988,-1.53080849893419E-19));
#2230=CARTESIAN_POINT('',(-0.06849999,-0.168702282084988,-1.53080849893419E-19));
#2231=CARTESIAN_POINT('',(-0.08119999,-0.168702282084988,-1.53080849893419E-19));
#2232=CARTESIAN_POINT('',(0.08390001,-0.168702282084988,-1.53080849893419E-19));
#2233=CARTESIAN_POINT('',(0.07120001,-0.168702282084988,-1.53080849893419E-19));
#2234=CARTESIAN_POINT('',(0.05850001,-0.168702282084988,-1.53080849893419E-19));
#2235=CARTESIAN_POINT('',(0.04580001,-0.168702282084988,-1.53080849893419E-19));
#2236=CARTESIAN_POINT('',(0.03310001,-0.168702282084988,-1.53080849893419E-19));
#2237=CARTESIAN_POINT('',(0.02040001,-0.168702282084988,-1.53080849893419E-19));
#2238=CARTESIAN_POINT('',(0.00770001,-0.168702282084988,-1.53080849893419E-19));
#2239=CARTESIAN_POINT('',(-0.00499999,-0.168702282084988,-1.53080849893419E-19));
#2240=CARTESIAN_POINT('',(-0.01769999,-0.168702282084988,-1.53080849893419E-19));
#2241=CARTESIAN_POINT('',(-0.03039999,-0.168702282084988,-1.53080849893419E-19));
#2242=CARTESIAN_POINT('',(-0.04309999,-0.168702282084988,-1.53080849893419E-19));
#2243=CARTESIAN_POINT('',(-0.05579999,-0.168702282084988,-1.53080849893419E-19));
#2244=CARTESIAN_POINT('',(-0.06849999,-0.168702282084988,-1.53080849893419E-19));
#2245=CARTESIAN_POINT('',(-0.08119999,-0.168702282084988,-1.53080849893419E-19));
#2246=CARTESIAN_POINT('',(0.0867,-1.06916813703917E-16,0.16899635061556));
#2247=CARTESIAN_POINT('',(0.0867,-1.06916813703917E-16,0.16899635061556));
#2248=CARTESIAN_POINT('',(0.074,-1.05361512269E-16,0.16899635061556));
#2249=CARTESIAN_POINT('',(0.0613,-1.03806210834083E-16,0.16899635061556));
#2250=CARTESIAN_POINT('',(0.0486,-1.02250909399166E-16,0.16899635061556));
#2251=CARTESIAN_POINT('',(0.0359,-1.00695607964249E-16,0.16899635061556));
#2252=CARTESIAN_POINT('',(0.0232000000000003,-9.91403065293314E-17,0.16899635061556));
#2253=CARTESIAN_POINT('',(0.0105000000000003,-9.75850050944143E-17,0.16899635061556));
#2254=CARTESIAN_POINT('',(-0.00219999999999976,-9.60297036594971E-17,0.16899635061556));
#2255=CARTESIAN_POINT('',(-0.0148999999999998,-9.447440222458E-17,0.16899635061556));
#2256=CARTESIAN_POINT('',(-0.0276,-9.29191007896628E-17,0.16899635061556));
#2257=CARTESIAN_POINT('',(-0.0403,-9.13637993547457E-17,0.16899635061556));
#2258=CARTESIAN_POINT('',(-0.053,-8.98084979198286E-17,0.16899635061556));
#2259=CARTESIAN_POINT('',(-0.0657,-8.82531964849114E-17,0.16899635061556));
#2260=CARTESIAN_POINT('',(-0.0784,-8.66978950499943E-17,0.16899635061556));
#2261=CARTESIAN_POINT('',(0.074,-1.05361512269E-16,0.16899635061556));
#2262=CARTESIAN_POINT('',(0.0613,-1.03806210834083E-16,0.16899635061556));
#2263=CARTESIAN_POINT('',(0.0486,-1.02250909399166E-16,0.16899635061556));
#2264=CARTESIAN_POINT('',(0.0359,-1.00695607964249E-16,0.16899635061556));
#2265=CARTESIAN_POINT('',(0.0232000000000003,-9.91403065293314E-17,0.16899635061556));
#2266=CARTESIAN_POINT('',(0.0105000000000003,-9.75850050944143E-17,0.16899635061556));
#2267=CARTESIAN_POINT('',(-0.00219999999999976,-9.60297036594971E-17,0.16899635061556));
#2268=CARTESIAN_POINT('',(-0.0148999999999998,-9.447440222458E-17,0.16899635061556));
#2269=CARTESIAN_POINT('',(-0.0276,-9.29191007896628E-17,0.16899635061556));
#2270=CARTESIAN_POINT('',(-0.0403,-9.13637993547457E-17,0.16899635061556));
#2271=CARTESIAN_POINT('',(-0.053,-8.98084979198286E-17,0.16899635061556));
#2272=CARTESIAN_POINT('',(-0.0657,-8.82531964849114E-17,0.16899635061556));
#2273=CARTESIAN_POINT('',(-0.0784,-8.66978950499943E-17,0.16899635061556));
#2274=MECHANICAL_DESIGN_GEOMETRIC_PRESENTATION_REPRESENTATION('',(#1347),
#2275);
#2275=(
GEOMETRIC_REPRESENTATION_CONTEXT(3)
GLOBAL_UNCERTAINTY_ASSIGNED_CONTEXT((#2276))
GLOBAL_UNIT_ASSIGNED_CONTEXT((#2279,#2278,#2277))
REPRESENTATION_CONTEXT('1x1 Alu','TOP_LEVEL_ASSEMBLY_PART')
);
#2276=UNCERTAINTY_MEASURE_WITH_UNIT(LENGTH_MEASURE(1.E-8),#2279,
'DISTANCE_ACCURACY_VALUE','Maximum Tolerance applied to model');
#2277=(
NAMED_UNIT(*)
SI_UNIT($,.STERADIAN.)
SOLID_ANGLE_UNIT()
);
#2278=(
NAMED_UNIT(*)
PLANE_ANGLE_UNIT()
SI_UNIT($,.RADIAN.)
);
#2279=(
LENGTH_UNIT()
NAMED_UNIT(*)
SI_UNIT($,.METRE.)
);
#2280=PRODUCT_DEFINITION_SHAPE('','',#2281);
#2281=PRODUCT_DEFINITION('','',#2283,#2282);
#2282=PRODUCT_DEFINITION_CONTEXT('',#2289,'design');
#2283=PRODUCT_DEFINITION_FORMATION_WITH_SPECIFIED_SOURCE('','',#2285,
 .NOT_KNOWN.);
#2284=PRODUCT_RELATED_PRODUCT_CATEGORY('','',(#2285));
#2285=PRODUCT('1x1 Alu','1x1 Alu','1x1 Alu',(#2287));
#2286=PRODUCT_CATEGORY('','');
#2287=PRODUCT_CONTEXT('',#2289,'mechanical');
#2288=APPLICATION_PROTOCOL_DEFINITION('international standard',
'ap242_managed_model_based_3d_engineering',2020,#2289);
#2289=APPLICATION_CONTEXT('managed model based 3d engineering');
ENDSEC;
END-ISO-10303-21;
